<svg width="48" height="48" viewBox="0 0 48 48" fill="none" xmlns="http://www.w3.org/2000/svg">
<path fill-rule="evenodd" clip-rule="evenodd" d="M6 4C4.89543 4 4 4.89543 4 6C4 7.10457 4.89543 8 6 8H8V36C8 40.4183 11.5817 44 16 44H32C36.4183 44 40 40.4183 40 36V8H42C43.1046 8 44 7.10457 44 6C44 4.89543 43.1046 4 42 4H6ZM36 8H12V36C12 38.2091 13.7909 40 16 40H32C34.2091 40 36 38.2091 36 36V8Z" fill="#777E91"/>
<path d="M25.4142 14.5858C24.6332 13.8047 23.3668 13.8047 22.5858 14.5858L16.5858 20.5858C15.8047 21.3668 15.8047 22.6332 16.5858 23.4142C17.3668 24.1953 18.6332 24.1953 19.4142 23.4142L22 20.8284V32C22 33.1046 22.8954 34 24 34C25.1046 34 26 33.1046 26 32V20.8284L28.5858 23.4142C29.3668 24.1953 30.6332 24.1953 31.4142 23.4142C32.1953 22.6332 32.1953 21.3668 31.4142 20.5858L25.4142 14.5858Z" fill="#777E91"/>
</svg>
