<svg width="49" height="48" viewBox="0 0 49 48" fill="none" xmlns="http://www.w3.org/2000/svg">
<g id="icons/Soup/Line">
<path id="Shape" fill-rule="evenodd" clip-rule="evenodd" d="M4.5 26C4.5 22.6863 7.18629 20 10.5 20H38.5C41.8137 20 44.5 22.6863 44.5 26C44.5 35.9411 36.4411 44 26.5 44H22.5C12.5589 44 4.5 35.9411 4.5 26ZM10.5 24H38.5C39.6046 24 40.5 24.8954 40.5 26C40.5 26.679 40.4517 27.3468 40.3582 28H8.64178C8.54834 27.3468 8.5 26.679 8.5 26C8.5 24.8954 9.39543 24 10.5 24ZM9.84726 32C12.0942 36.7299 16.9152 40 22.5 40H26.5C32.0848 40 36.9058 36.7299 39.1527 32H9.84726Z" fill="#777E91"/>
<g id="Shape_2">
<path d="M18.5 4C19.6046 4 20.5 4.89543 20.5 6C20.5 8.45315 19.8455 9.78123 19.2889 10.8944L19.2729 10.9263C18.8372 11.7975 18.5 12.4717 18.5 14C18.5 15.1046 17.6046 16 16.5 16C15.3954 16 14.5 15.1046 14.5 14C14.5 11.5468 15.1545 10.2188 15.7111 9.10557L15.7271 9.07371C16.1628 8.20251 16.5 7.52827 16.5 6C16.5 4.89543 17.3954 4 18.5 4Z" fill="#777E91"/>
<path d="M26.5 4C27.6046 4 28.5 4.89543 28.5 6C28.5 8.45315 27.8455 9.78123 27.2889 10.8944L27.2729 10.9263C26.8372 11.7975 26.5 12.4717 26.5 14C26.5 15.1046 25.6046 16 24.5 16C23.3954 16 22.5 15.1046 22.5 14C22.5 11.5468 23.1545 10.2188 23.7111 9.10557L23.7271 9.07371C24.1628 8.20251 24.5 7.52827 24.5 6C24.5 4.89543 25.3954 4 26.5 4Z" fill="#777E91"/>
<path d="M36.5 6C36.5 4.89543 35.6046 4 34.5 4C33.3954 4 32.5 4.89543 32.5 6C32.5 7.52827 32.1628 8.20251 31.7271 9.07371L31.7111 9.10557C31.1545 10.2188 30.5 11.5468 30.5 14C30.5 15.1046 31.3954 16 32.5 16C33.6046 16 34.5 15.1046 34.5 14C34.5 12.4717 34.8372 11.7975 35.2729 10.9263L35.2889 10.8944C35.8455 9.78123 36.5 8.45315 36.5 6Z" fill="#777E91"/>
</g>
</g>
</svg>
