<svg width="501" height="446" viewBox="0 0 501 446" fill="none" xmlns="http://www.w3.org/2000/svg">
<g clip-path="url(#clip0_1328_8043)">
<path d="M383.138 80.2472C381.407 79.8122 379.675 79.3886 377.944 79.0109C354.739 73.8365 330.814 73.1611 307.092 73.5847C285.379 73.9625 262.33 78.5186 240.953 73.413C226.297 69.9214 213.312 61.7364 201.842 52.3608C188.389 41.3596 176.402 28.4009 160.904 20.1929C122.226 -0.298374 83.4636 12.4314 54.6203 37.9024C54.5723 37.9367 54.5242 37.9825 54.4881 38.0169C52.6486 39.631 50.8692 41.3023 49.1138 43.0195C49.0657 43.0538 49.0176 43.0996 48.9815 43.134C32.2214 59.6186 19.3928 80.3273 12.708 100.658C9.41372 110.675 6.75663 120.829 4.74879 131.04C4.72474 131.086 4.72474 131.132 4.71272 131.178C4.29191 133.261 3.90717 135.356 3.54648 137.44C3.54648 137.485 3.53446 137.531 3.52244 137.577C-12.384 230.978 25.2721 327.539 117.645 373.284C161.902 395.206 214.178 414.129 265.204 410.557C297.81 408.291 327.796 393.729 353.537 375.241C409.12 335.312 452.583 275.567 465.315 209.777C477.026 149.254 446.632 96.5601 383.138 80.2472Z" fill="#04B90B"/>
<path opacity="0.5" d="M383.138 80.2472C381.407 79.8122 379.675 79.3886 377.944 79.0109C354.739 73.8365 330.814 73.1611 307.092 73.5847C285.379 73.9625 262.33 78.5186 240.953 73.413C226.297 69.9214 213.312 61.7364 201.842 52.3608C188.389 41.3596 176.402 28.4009 160.904 20.1929C122.226 -0.298374 83.4636 12.4314 54.6203 37.9024C54.5723 37.9367 54.5242 37.9825 54.4881 38.0169C52.6486 39.631 50.8692 41.3023 49.1138 43.0195C49.0657 43.0538 49.0176 43.0996 48.9815 43.134C32.2214 59.6186 19.3928 80.3273 12.708 100.658C9.41372 110.675 6.75663 120.829 4.74879 131.04C4.72474 131.086 4.72474 131.132 4.71272 131.178C4.29191 133.261 3.90717 135.356 3.54648 137.44C3.54648 137.485 3.53446 137.531 3.52244 137.577C-12.384 230.978 25.2721 327.539 117.645 373.284C161.902 395.206 214.178 414.129 265.204 410.557C297.81 408.291 327.796 393.729 353.537 375.241C409.12 335.312 452.583 275.567 465.315 209.777C477.026 149.254 446.632 96.5601 383.138 80.2472Z" fill="white"/>
<path d="M476.112 410.341H500.435" stroke="#263238" stroke-width="1.18987" stroke-miterlimit="10" stroke-linecap="round" stroke-linejoin="round"/>
<path d="M284.272 410.341H311.264" stroke="#263238" stroke-width="1.18987" stroke-miterlimit="10" stroke-linecap="round" stroke-linejoin="round"/>
<path d="M72.2699 410.341H162.888" stroke="#263238" stroke-width="1.18987" stroke-miterlimit="10" stroke-linecap="round" stroke-linejoin="round"/>
<path d="M37.0908 410.341H57.6021" stroke="#263238" stroke-width="1.18987" stroke-miterlimit="10" stroke-linecap="round" stroke-linejoin="round"/>
<path d="M129.958 146.44C129.958 146.44 131.461 155.758 123.165 159.708C123.165 159.708 133.18 161.745 134.094 170.961C134.094 170.961 134.286 158.38 140.033 156.846C140.045 156.857 132.266 156.731 129.958 146.44Z" fill="white"/>
<path d="M249.116 147.617C249.116 147.617 248.635 153.33 243.153 154.566C243.153 154.566 248.78 157.108 247.974 162.683C247.974 162.683 249.934 155.264 253.565 155.116C253.565 155.116 248.972 154.005 249.116 147.617Z" fill="white"/>
<path d="M255.729 128.146C255.729 128.146 255.248 133.858 249.765 135.094C249.765 135.094 255.392 137.636 254.587 143.211C254.587 143.211 256.546 135.793 260.177 135.644C260.165 135.655 255.573 134.545 255.729 128.146Z" fill="white"/>
<path d="M115.313 128.57C115.313 128.57 114.892 137.075 109.386 139.697C109.386 139.697 116.984 141.391 118.355 149.942C118.355 149.942 117.213 140.406 123.357 138.392C123.357 138.392 116.84 135.404 115.313 128.57Z" fill="white"/>
<path d="M391.482 435.983C435.154 435.983 470.557 428.433 470.557 419.12C470.557 409.807 435.154 402.258 391.482 402.258C347.81 402.258 312.406 409.807 312.406 419.12C312.406 428.433 347.81 435.983 391.482 435.983Z" fill="white" stroke="#263238" stroke-width="1.18987" stroke-miterlimit="10" stroke-linecap="round" stroke-linejoin="round"/>
<path d="M391.926 429.538C430.2 429.538 461.227 423.48 461.227 416.007C461.227 408.534 430.2 402.476 391.926 402.476C353.653 402.476 322.626 408.534 322.626 416.007C322.626 423.48 353.653 429.538 391.926 429.538Z" stroke="#263238" stroke-width="1.18987" stroke-miterlimit="10" stroke-linecap="round" stroke-linejoin="round"/>
<path d="M344.88 398.011C341.754 396.671 338.135 396.168 334.865 397.141C331.595 398.114 328.782 400.724 328.18 403.94C327.615 406.986 329.046 410.134 331.282 412.366C333.519 414.598 336.488 416.052 339.47 417.243C347.73 420.551 356.699 422.245 365.656 422.199C373.195 422.165 380.745 420.906 388.248 421.616C395.425 422.291 402.29 424.729 409.408 425.84C416.658 426.962 424.148 426.676 431.278 425.004C438.66 423.276 446.523 419.017 447.798 411.885C448.675 407.008 445.934 401.868 441.594 399.155C437.241 396.442 431.567 396.03 426.601 397.496C427.912 397.106 425.988 386.048 425.651 384.56C423.259 374.303 410.466 366.976 399.838 367.514C392.696 367.88 385.566 372.494 384.063 379.145C381.623 377.851 378.208 378.344 375.78 379.626C373.339 380.919 371.692 383.449 371.548 386.105C366.846 382.03 359.585 381.08 353.537 382.934C351.024 383.701 348.608 385.075 347.177 387.204C346.167 388.715 345.71 390.49 345.277 392.241C344.796 394.107 345.349 396.145 344.88 398.011Z" fill="#04B90B"/>
<path d="M344.4 398.206C341.274 396.867 337.655 396.363 334.384 397.336C331.114 398.309 328.301 400.919 327.7 404.136C327.135 407.181 328.565 410.329 330.802 412.561C333.038 414.794 336.008 416.247 338.989 417.438C347.249 420.746 356.218 422.441 365.175 422.395C372.714 422.36 380.264 421.101 387.767 421.811C394.944 422.486 401.81 424.925 408.927 426.035C416.177 427.157 423.667 426.871 430.797 425.199C438.179 423.471 446.042 419.212 447.317 412.081C448.194 407.204 445.453 402.064 441.113 399.351C436.761 396.638 431.086 396.226 426.12 397.691C427.431 397.302 425.507 386.243 425.17 384.755C422.778 374.498 409.985 367.171 399.357 367.709C392.215 368.076 385.086 372.689 383.583 379.34C381.142 378.047 377.727 378.539 375.299 379.821C372.858 381.115 371.211 383.645 371.067 386.3C366.366 382.225 359.104 381.275 353.056 383.129C350.543 383.896 348.127 385.27 346.696 387.399C345.686 388.91 345.229 390.685 344.796 392.436C344.303 394.314 344.856 396.34 344.4 398.206Z" stroke="#263238" stroke-width="1.18987" stroke-miterlimit="10" stroke-linecap="round" stroke-linejoin="round"/>
<path opacity="0.19" d="M344.917 398.275C341.791 396.936 338.172 396.432 334.902 397.405C331.631 398.378 328.818 400.988 328.217 404.205C327.652 407.25 329.082 410.398 331.319 412.631C333.555 414.863 336.525 416.317 339.506 417.507C347.766 420.816 356.735 422.51 365.693 422.464C373.231 422.43 380.781 421.171 388.284 421.88C395.462 422.556 402.327 424.994 409.444 426.105C416.694 427.226 424.185 426.94 431.314 425.269C438.696 423.54 446.56 419.282 447.834 412.15C448.712 407.273 445.97 402.133 441.63 399.42C437.278 396.707 431.603 396.295 426.637 397.76C427.948 397.371 426.024 386.313 425.688 384.824C423.295 374.567 410.502 367.241 399.874 367.779C392.732 368.145 385.603 372.759 384.1 379.41C381.659 378.116 378.245 378.608 375.816 379.89C373.375 381.184 371.728 383.714 371.584 386.37C366.883 382.294 359.621 381.344 353.573 383.199C351.061 383.966 348.644 385.339 347.213 387.469C346.203 388.98 345.746 390.754 345.314 392.506C344.833 394.372 345.386 396.409 344.917 398.275Z" fill="white"/>
<path opacity="0.2" d="M421.527 377.577C415.912 372.734 406.619 373.444 400.535 377.748C394.451 382.053 391.169 389.15 389.774 396.236C387.406 394.611 384.027 394.782 381.49 396.156C378.954 397.53 377.174 399.911 375.984 402.452C371.752 399.43 365.452 399.396 361.184 402.349C359.621 403.425 358.358 404.845 356.903 406.058C352.9 409.424 347.513 411.244 342.187 411.038C336.861 410.832 331.643 408.588 327.952 404.925C327.952 404.925 323.66 410.729 340.155 417.3C356.651 423.882 367.351 423.035 376.26 421.971C385.182 420.906 396.315 422.818 404.118 425.371C411.921 427.912 434.656 428.129 442.676 419.853C450.695 411.576 449.805 395.446 426.625 396.935C426.637 396.935 426.902 382.202 421.527 377.577Z" fill="black"/>
<path d="M375.323 363.967C372.065 362.547 370.562 358.712 371.019 355.324C371.476 351.935 373.46 348.925 375.6 346.189C377.728 343.441 380.084 340.785 381.443 337.626C386.781 325.262 375.299 310.644 380.409 298.2" stroke="#263238" stroke-width="1.18987" stroke-miterlimit="10" stroke-linecap="round" stroke-linejoin="round"/>
<path d="M421.96 363.016C418.907 362.123 417.115 359.021 416.538 356.033C414.723 346.623 421.528 337.763 423.006 328.307C424.221 320.454 421.72 312.567 419.231 304.988" stroke="#263238" stroke-width="1.18987" stroke-miterlimit="10" stroke-linecap="round" stroke-linejoin="round"/>
<path d="M399.333 360.257C396.075 357.338 396.447 352.244 398.203 348.328C399.958 344.413 402.832 340.956 404.022 336.858C405.429 332.027 404.25 326.578 400.932 322.686" stroke="#263238" stroke-width="1.18987" stroke-miterlimit="10" stroke-linecap="round" stroke-linejoin="round"/>
<path d="M370.562 307.369C370.286 311.673 370.562 316.012 371.404 320.259" stroke="#263238" stroke-width="1.18987" stroke-miterlimit="10" stroke-linecap="round" stroke-linejoin="round"/>
<path d="M370.802 333.698C371.211 337.968 368.254 341.769 365.885 345.421C363.192 349.576 361.088 354.132 360.318 358.952C359.549 363.771 360.174 368.877 362.651 373.158" stroke="#263238" stroke-width="1.18987" stroke-miterlimit="10" stroke-linecap="round" stroke-linejoin="round"/>
<path d="M209.286 161.193L210.44 175.193L210.464 175.525C209.55 175.411 208.528 175.365 207.41 175.354C199.439 175.319 187.007 177.861 178.134 179.944C171.942 181.41 167.47 182.657 167.47 182.657L166.135 177.62L161.11 158.709C157.01 155.355 150.758 142.178 150.758 142.178C145.672 141.434 139.348 137.038 137.977 130.891C136.607 124.755 144.542 125.339 144.542 125.339L149.688 122.328L156.132 105.58C156.132 105.58 150.469 93.1139 161.614 88.0884C172.748 83.0629 210.656 100.543 210.656 100.543L214.756 116.925C220.022 118.974 214.456 131.246 214.456 131.246C214.456 131.246 214.961 131.441 215.55 138.687C216.127 145.945 209.286 161.193 209.286 161.193Z" fill="white"/>
<path d="M196.625 122.271C198.308 128.361 204.235 132.7 204.019 134.279C203.743 136.294 201.122 139.019 198.765 139.053" stroke="#263238" stroke-width="1.18987" stroke-miterlimit="10" stroke-linecap="round" stroke-linejoin="round"/>
<path d="M208.299 112.483C208.299 112.483 203.106 108.442 199.066 113.628" stroke="#263238" stroke-width="2.37975" stroke-miterlimit="10" stroke-linecap="round" stroke-linejoin="round"/>
<path d="M178.435 143.243C178.435 143.243 181.092 149.826 191.636 149.597" stroke="#263238" stroke-width="1.18987" stroke-miterlimit="10" stroke-linecap="round" stroke-linejoin="round"/>
<path d="M185.215 117.635C181.416 115.403 176.15 115.597 173.361 120.543" stroke="#263238" stroke-width="2.37975" stroke-miterlimit="10" stroke-linecap="round" stroke-linejoin="round"/>
<path d="M184.651 127.24C185.011 129.026 184.482 130.617 183.472 130.8C182.462 130.983 181.356 129.69 181.008 127.904C180.647 126.118 181.176 124.527 182.186 124.343C183.184 124.16 184.29 125.454 184.651 127.24Z" fill="#263238"/>
<path d="M206.327 123.232C206.688 125.018 206.159 126.609 205.149 126.792C204.139 126.975 203.033 125.682 202.684 123.896C202.324 122.11 202.853 120.519 203.863 120.336C204.861 120.152 205.967 121.446 206.327 123.232Z" fill="#263238"/>
<path d="M150.252 129.781C150.252 129.781 141.44 122.5 138.662 127.537C135.873 132.563 144.926 144.102 153.427 140.565" stroke="#263238" stroke-width="1.18987" stroke-miterlimit="10" stroke-linecap="round" stroke-linejoin="round"/>
<path d="M209.442 102.536C209.442 102.536 210.115 123.52 212.544 128.19C214.973 132.861 217.077 135.173 214.504 147.365C211.931 159.545 202.12 173.775 191.612 174.725C181.104 175.675 157.202 160.507 150.373 141.573" stroke="#263238" stroke-width="1.18987" stroke-miterlimit="10" stroke-linecap="round" stroke-linejoin="round"/>
<path d="M150.493 130.639C150.493 130.639 156.889 127.491 155.723 122.031C154.556 116.582 155.374 115.918 159.955 113.113C164.535 110.308 161.698 104.516 157.31 98.8033C152.921 93.1024 161.265 86.2796 168.058 89.153C174.851 92.0149 213.565 106.508 223.965 102.203C234.365 97.899 231.384 84.1504 217.377 76.4461C217.377 76.4461 209.814 67.8604 211.846 59.9386C213.878 52.0168 165.365 28.1371 142.642 76.7895C142.642 76.7895 131.857 80.8076 129.597 94.6364C127.384 108.248 143.014 125.854 143.014 125.854C143.014 125.854 148.557 128.567 150.493 130.639Z" fill="#263238"/>
<path d="M157.034 86.6692C160.592 82.113 167.205 80.4646 173.108 81.2659C179.012 82.0673 184.374 84.9292 189.412 87.9742C194.449 91.0193 199.403 94.3277 205.03 96.2051C208.228 97.2697 211.738 97.8536 214.997 96.9721C217.582 96.2738 219.914 94.6139 221.08 92.3129" stroke="white" stroke-width="1.18987" stroke-miterlimit="10" stroke-linecap="round" stroke-linejoin="round"/>
<path d="M146.946 82.9834C142.618 83.2581 138.842 86.349 137.159 90.1611C135.476 93.9617 135.668 98.3347 136.859 102.307C137.7 105.1 138.999 107.722 140.453 110.275" stroke="white" stroke-width="1.18987" stroke-miterlimit="10" stroke-linecap="round" stroke-linejoin="round"/>
<path d="M210.139 159.315C209.406 161.628 209.406 164.101 209.55 166.516C209.718 169.515 209.959 172.022 210.548 174.976" stroke="#263238" stroke-width="1.18987" stroke-miterlimit="10" stroke-linecap="round" stroke-linejoin="round"/>
<path d="M161.049 157.908C163.129 164.914 165.437 173.363 167.553 182.738" stroke="#263238" stroke-width="1.18987" stroke-miterlimit="10" stroke-linecap="round" stroke-linejoin="round"/>
<path d="M210.788 120.679C210.788 120.679 212.748 115.585 216.475 117.84C220.202 120.095 214.275 131.554 214.275 131.554" stroke="#263238" stroke-width="1.18987" stroke-miterlimit="10" stroke-linecap="round" stroke-linejoin="round"/>
<path d="M216.235 99.0095C216.235 99.0095 218.098 113.445 213.578 118.001L210.115 119.009L208.288 99.8452L216.235 99.0095Z" fill="#263238"/>
<path d="M127.336 80.9226C127.336 80.9226 115.145 80.1098 103.362 66.7619C91.5798 53.4139 101.102 44.0498 107.005 39.0357C112.909 34.0331 127.348 20.273 133.408 13.8967C139.456 7.53179 151.575 -0.653268 165.269 1.47599C178.963 3.59381 192.261 11.4125 205.318 15.0529C218.375 18.6932 231.324 32.2587 233.235 41.0505C235.147 49.8423 231.035 63.7168 226.262 67.0481L218.05 66.8077L221.681 78.656C221.681 78.656 172.856 60.2711 129.236 94.7742L132.915 82.4337L127.336 80.9226Z" fill="white"/>
<path d="M149.759 65.1355C149.699 70.4129 149.844 75.6788 150.18 80.9447L129.933 95.2771L134.887 72.0384L149.759 65.1355Z" fill="#04B90B"/>
<path opacity="0.6" d="M149.759 65.1355C149.699 70.4129 150 76.2741 150.349 81.5285L129.933 95.2657L134.887 72.027L149.759 65.1355Z" fill="white"/>
<path d="M152.164 1.76177C154.075 1.07491 156.336 1.87625 157.658 3.35299C158.981 4.82974 159.474 6.85597 159.45 8.80207C159.389 15.1555 154.424 20.5359 148.978 24.222C143.531 27.9082 137.303 30.5984 132.506 35.0286C127.06 40.0656 123.873 47.2547 123.861 54.4781C123.849 61.7131 127.023 68.8907 132.458 73.9506C132.999 74.4428 133.552 74.9236 134.081 75.4273L132.398 81.941C132.398 81.941 110.696 79.2394 103.326 66.7729C95.9559 54.3064 98.2523 48.5025 104.721 41.1187C111.189 33.7465 119.617 29.8085 127.865 18.6356C136.113 7.4627 152.164 1.76177 152.164 1.76177Z" fill="#04B90B"/>
<path opacity="0.6" d="M152.164 1.76177C154.075 1.07491 156.336 1.87625 157.658 3.35299C158.981 4.82974 159.474 6.85597 159.45 8.80207C159.389 15.1555 154.424 20.5359 148.978 24.222C143.531 27.9082 137.303 30.5984 132.506 35.0286C127.06 40.0656 123.873 47.2547 123.861 54.4781C123.849 61.7131 127.023 68.8907 132.458 73.9506C132.999 74.4428 133.552 74.9236 134.081 75.4273L132.398 81.941C132.398 81.941 110.696 79.2394 103.326 66.7729C95.9559 54.3064 98.2523 48.5025 104.721 41.1187C111.189 33.7465 119.617 29.8085 127.865 18.6356C136.113 7.4627 152.164 1.76177 152.164 1.76177Z" fill="white"/>
<path d="M129.933 95.2659C129.933 95.2659 163.478 62.1594 221.537 79.2965L214.395 60.5338C214.395 60.5338 174.058 49.9791 134.887 72.0387L129.933 95.2659Z" stroke="#263238" stroke-width="1.18987" stroke-miterlimit="10" stroke-linecap="round" stroke-linejoin="round"/>
<path d="M218.266 70.5849C222.402 69.9553 230.434 65.5937 232.261 61.9992C234.089 58.4161 234.51 54.3178 234.437 50.334C234.329 44.656 233.223 38.8978 230.386 33.9067C224.158 22.9513 211.053 17.5823 198.897 12.9804C191.311 10.1185 183.736 7.25656 176.15 4.38321C171.545 2.64316 166.844 0.880228 161.902 0.571142C152.092 -0.0470308 142.846 5.16165 135.68 11.5609C128.514 17.9716 122.755 25.6987 115.482 31.9949C111.935 35.0629 108.039 37.776 104.757 41.0958C101.463 44.4156 98.7575 48.5024 98.2765 53.0357C97.5792 59.5723 101.619 65.7883 106.584 70.3674C111.478 74.8892 116.407 80.2009 132.338 82.0096" stroke="#263238" stroke-width="1.18987" stroke-miterlimit="10" stroke-linecap="round" stroke-linejoin="round"/>
<path d="M194.329 58.0051C197.623 56.1392 200.533 53.6665 202.841 50.7588" stroke="#263238" stroke-width="1.18987" stroke-miterlimit="10" stroke-linecap="round" stroke-linejoin="round"/>
<path d="M146.044 66.361C140.285 64.495 135.488 60.122 133.288 54.7188" stroke="#263238" stroke-width="1.18987" stroke-miterlimit="10" stroke-linecap="round" stroke-linejoin="round"/>
<path d="M150.264 10.7601C144.878 10.3938 140.177 14.1486 136.714 18.1095C133.263 22.0704 130.185 26.6266 125.364 28.9504" stroke="#263238" stroke-width="1.18987" stroke-miterlimit="10" stroke-linecap="round" stroke-linejoin="round"/>
<path d="M344.544 236.129L294.913 273.013C294.913 273.013 275.856 213.897 274.738 206.537C271.684 199.45 260.611 189.56 260.611 189.56C260.611 189.56 219.925 187.637 216.992 186.045C214.058 184.454 213.721 175.181 213.721 175.181C212.663 175.17 211.557 175.181 210.439 175.204C209.441 175.239 208.431 175.296 207.409 175.353C197.707 176.04 186.814 178.318 178.554 180.379C170.835 182.302 165.413 184.019 165.413 184.019L168.407 196.451L166.23 199.565C159.101 204.648 120.05 216.965 109.938 221.315C104.432 225.253 97.2181 231.939 97.2181 231.939C97.2181 231.939 62.183 297.385 56.7366 305.375C51.2901 313.354 51.5546 322.078 51.5546 322.078C55.5703 330.263 61.4977 330.801 67.5813 332.804C68.5792 333.136 69.5892 333.502 70.5991 333.949C77.7288 337.131 140.597 332.392 140.597 332.392C140.597 332.392 136.077 353.707 156.684 345.602C189.663 332.621 268.51 341.607 268.51 341.607L266.623 293.562L284.489 313.023C284.489 313.023 292.845 317.716 302.896 311.729C318.19 302.33 362.482 250.415 362.482 250.415C358.214 240.742 344.544 236.129 344.544 236.129ZM145.443 311.088L141.848 307.665C135.62 304.082 112.391 299.904 112.391 299.904L128.743 277.409C128.743 277.409 145.996 302.823 146.753 304.975C147.51 307.127 145.443 311.088 145.443 311.088Z" fill="white"/>
<path d="M179.841 362.387L183.544 438.353C183.544 438.353 171.425 435.468 168.058 430.66C164.692 425.852 157.189 353.835 157.189 353.835C157.189 353.835 164.355 360.143 179.841 362.387Z" fill="#04B90B"/>
<path opacity="0.56" d="M179.841 362.387L183.544 438.353C183.544 438.353 171.425 435.468 168.058 430.66C164.692 425.852 157.189 353.835 157.189 353.835C157.189 353.835 164.355 360.143 179.841 362.387Z" fill="white"/>
<path d="M147.271 306.212L128.358 278.12L144.229 258.144C144.229 258.144 145.395 269.443 152.465 274.686C163.73 283.054 161.253 308.777 161.253 308.777L147.271 306.212Z" fill="#04B90B"/>
<path opacity="0.6" d="M147.271 306.212L128.358 278.12L144.229 258.144C144.229 258.144 145.395 269.443 152.465 274.686C163.73 283.054 161.253 308.777 161.253 308.777L147.271 306.212Z" fill="white"/>
<path d="M262.499 233.027C262.499 233.027 276.254 291.295 284.225 300.602C292.196 309.909 292.365 273.689 295.178 273.185C297.991 272.681 302.692 294.397 300.877 300.957C300.877 300.957 301.959 304.403 305.951 300.957C309.93 297.511 359.537 253.724 359.537 253.724C359.537 253.724 308.572 315.118 294 314.74C281.676 316.354 268.367 295.393 268.367 295.393L262.499 233.027Z" fill="#04B90B"/>
<path opacity="0.6" d="M262.499 233.027C262.499 233.027 276.254 291.295 284.225 300.602C292.196 309.909 292.365 273.689 295.178 273.185C297.991 272.681 302.692 294.397 300.877 300.957C300.877 300.957 301.959 304.403 305.951 300.957C309.93 297.511 359.537 253.724 359.537 253.724C359.537 253.724 308.572 315.118 294 314.74C281.676 316.354 268.367 295.393 268.367 295.393L262.499 233.027Z" fill="white"/>
<path d="M114.844 296.287L111.79 300.179C111.79 300.179 87.3474 297.26 67.6055 332.794C61.5099 330.779 55.5945 330.252 51.5788 322.067C51.5788 322.067 51.3143 313.333 56.7608 305.365C62.2072 297.375 97.6391 231.173 97.6391 231.173C97.6391 231.173 102.989 225.381 109.951 221.305C135.223 208.598 159.125 204.637 166.243 199.555L168.419 196.441L165.425 184.009C165.425 184.009 170.835 182.292 178.566 180.368L182.558 196.59C183.916 202.119 180.79 207.751 175.224 209.8L117.585 230.99C113.858 232.352 110.816 235.008 109.049 238.408L77.4524 299.172C78.0055 298.634 90.5695 286.465 114.844 296.287Z" fill="#04B90B"/>
<path opacity="0.6" d="M114.844 296.287L111.79 300.179C111.79 300.179 87.3474 297.26 67.6055 332.794C61.5099 330.779 55.5945 330.252 51.5788 322.067C51.5788 322.067 51.3143 313.333 56.7608 305.365C62.2072 297.375 97.6391 231.173 97.6391 231.173C97.6391 231.173 105.214 224.636 109.951 221.305C133.889 209.548 159.125 204.637 166.243 199.555L168.419 196.441L165.425 184.009C165.425 184.009 170.835 182.292 178.566 180.368L182.558 196.59C183.916 202.119 180.79 207.751 175.224 209.8L117.585 230.99C113.858 232.352 110.816 235.008 109.049 238.408L77.4524 299.172C78.0055 298.634 90.5695 286.465 114.844 296.287Z" fill="white"/>
<path d="M349.594 233.211L364.804 212.719C364.804 212.719 375.564 205.828 379.46 204.065C383.355 202.302 383.908 198.765 385.772 200.001C387.623 201.237 385.952 208.484 382.057 210.773C378.161 213.074 373.713 215.364 374.266 216.955C374.819 218.546 397.458 216.6 397.458 216.6C397.458 216.6 426.325 216.222 426.734 218.352C427.143 220.481 408.772 223.663 408.772 223.663C408.772 223.663 428.526 223.446 428.574 224.522C428.622 225.598 417.308 229.307 417.308 229.307C417.308 229.307 425.303 229.708 424.931 231.356C424.546 233.016 416.382 235.134 416.382 235.134C416.382 235.134 399.682 244.853 395.979 246.433C392.264 248.024 366.859 245.025 366.859 245.025L362.519 250.371C362.519 250.371 355.173 240.434 347.382 236.199L349.594 233.211Z" fill="white"/>
<path d="M293.507 296.207C294.661 288.595 294.986 281.062 295.058 273.369" stroke="#263238" stroke-width="1.18987" stroke-miterlimit="10" stroke-linecap="round" stroke-linejoin="round"/>
<path d="M210.512 175.285C211.75 175.239 213.001 175.217 214.275 175.205L215.502 182.589C215.91 185.039 218.111 186.836 220.708 186.859L259.843 189.389C262.716 189.412 273.621 203.595 275.46 208.941L295.178 273.174L344.557 235.843C344.557 235.843 354.223 237.091 362.507 250.37C362.507 250.37 330.718 290.666 301.863 312.165C297.643 315.301 288.193 316.011 284.43 312.394C278.094 306.303 272.347 300.854 267.91 295.268" stroke="#263238" stroke-width="1.18987" stroke-miterlimit="10" stroke-linecap="round" stroke-linejoin="round"/>
<path d="M136.547 276.587C139.841 274.561 143.147 272.534 146.442 270.508" stroke="#263238" stroke-width="1.18987" stroke-miterlimit="10" stroke-linecap="round" stroke-linejoin="round"/>
<path d="M140.201 278.634C142.81 277.833 145.576 277.478 148.329 277.604" stroke="#263238" stroke-width="1.18987" stroke-miterlimit="10" stroke-linecap="round" stroke-linejoin="round"/>
<path d="M128.755 277.959C134.767 285.938 140.346 294.215 145.443 302.755C146.585 304.667 146.91 306.91 146.405 309.051L122.383 410.225" stroke="#263238" stroke-width="1.18987" stroke-miterlimit="10" stroke-linecap="round" stroke-linejoin="round"/>
<path d="M259.842 217.219L268.138 293.426C268.691 310.529 270.026 321.358 270.807 342.788" stroke="#263238" stroke-width="1.18987" stroke-miterlimit="10" stroke-linecap="round" stroke-linejoin="round"/>
<path d="M167.421 198.959L178.566 266.89L193.475 262.15C203.73 258.888 214.539 257.434 225.348 257.858L240.569 258.464L222.222 186.184H229.183L268.378 295.406L270.795 343.841C270.795 343.841 197.875 328.604 157.021 349.152L160.231 378.939C160.231 378.939 162.167 387.09 164.223 410.821L131.761 410.26L122.383 410.226L146.068 311.238C146.068 311.238 166.555 312.68 165.918 297.02C165.281 281.36 159.678 202.657 159.678 202.657L167.421 198.959Z" fill="#263238"/>
<path d="M197.106 198.318C197.106 200.104 195.591 201.547 193.715 201.547C191.84 201.547 190.325 200.104 190.325 198.318C190.325 196.532 191.84 195.09 193.715 195.09C195.591 195.09 197.106 196.532 197.106 198.318Z" fill="#263238"/>
<path d="M200.977 214.001C200.977 215.787 199.462 217.229 197.587 217.229C195.711 217.229 194.196 215.787 194.196 214.001C194.196 212.215 195.711 210.773 197.587 210.773C199.462 210.773 200.977 212.215 200.977 214.001Z" fill="#263238"/>
<path d="M218.784 300.236C231.035 298.267 243.371 296.721 255.743 295.6" stroke="white" stroke-width="1.18987" stroke-miterlimit="10" stroke-linecap="round" stroke-linejoin="round"/>
<path d="M197.599 304.071C202.637 303.064 207.686 302.113 212.748 301.243" stroke="white" stroke-width="1.18987" stroke-miterlimit="10" stroke-linecap="round" stroke-linejoin="round"/>
<path d="M255.766 299.778C245.799 303.601 235.748 307.23 225.624 310.653" stroke="white" stroke-width="1.18987" stroke-miterlimit="10" stroke-linecap="round" stroke-linejoin="round"/>
<path d="M253.433 218.74C254.467 224.934 255.97 231.07 257.918 237.068" stroke="#263238" stroke-width="1.18987" stroke-miterlimit="10" stroke-linecap="round" stroke-linejoin="round"/>
<path d="M397.663 225.369C397.663 225.369 426.578 220.836 426.723 218.375C426.879 215.913 405.947 217.184 401.005 216.829C396.064 216.474 375.372 218.947 374.687 217.711C374.002 216.474 375.673 216.188 380.242 212.571C384.798 208.942 388.153 202.566 386.926 200.539C385.712 198.513 381.636 203.012 378.546 204.66C376.034 206 366.547 211.128 364.804 213.372C363.061 215.616 351.651 230.635 347.323 236.359" stroke="#263238" stroke-width="1.18987" stroke-miterlimit="10" stroke-linecap="round" stroke-linejoin="round"/>
<path d="M398.3 225.095C398.3 225.095 428.683 222.427 428.574 224.545C428.382 228.059 408.003 230.83 399.659 231.379" stroke="#263238" stroke-width="1.18987" stroke-miterlimit="10" stroke-linecap="round" stroke-linejoin="round"/>
<path d="M399.466 231.562C399.466 231.562 425.304 228.116 424.919 231.379C424.546 234.641 395.162 239.919 395.162 239.919" stroke="#263238" stroke-width="1.18987" stroke-miterlimit="10" stroke-linecap="round" stroke-linejoin="round"/>
<path d="M361.437 251.698C364.335 247.737 366.271 245.013 366.271 245.013C366.271 245.013 391.146 247.611 394.729 246.959C398.3 246.306 415.084 236.061 415.084 236.061" stroke="#263238" stroke-width="1.18987" stroke-miterlimit="10" stroke-linecap="round" stroke-linejoin="round"/>
<path d="M372.426 225.231C377.909 225.803 382.934 229.398 385.038 234.251" stroke="#263238" stroke-width="1.18987" stroke-miterlimit="10" stroke-linecap="round" stroke-linejoin="round"/>
<path d="M299.001 275.681C301.802 279.767 302.115 284.907 302.331 289.784" stroke="#263238" stroke-width="1.18987" stroke-miterlimit="10" stroke-linecap="round" stroke-linejoin="round"/>
<path d="M157.154 350.514L166.063 422.921C166.063 422.921 165.642 430.545 172.363 434.403C179.084 438.261 208.541 444.454 224.988 443.469C241.436 442.496 262.332 441.512 269.858 435.971C277.396 430.43 275.677 415.423 275.677 415.423L281.16 370.09C281.16 370.09 286.149 352.781 280.138 347.584C269.173 338.128 176.559 330.95 157.154 350.514Z" fill="white"/>
<path d="M157.178 353.848C157.178 353.848 162.228 358.312 169.442 360.373C176.655 362.433 265.434 360.007 276.435 357.957C287.436 355.908 283.468 347.323 277.336 344.919C271.205 342.515 214.251 334.616 189.099 340.065C166.736 344.896 152.85 345.251 157.178 353.848Z" fill="#04B90B"/>
<path opacity="0.6" d="M157.178 353.848C157.178 353.848 162.228 358.313 169.441 360.373C176.655 362.434 265.433 360.007 276.434 357.958C287.435 355.909 283.468 347.323 277.336 344.919C271.204 342.515 220.96 335.578 190.662 339.516C168.299 344.324 152.85 345.251 157.178 353.848Z" fill="white"/>
<path d="M283.54 351.763C283.54 353.995 280.979 356.113 276.434 357.956C265.842 362.306 244.501 365.259 219.914 365.259C196.433 365.259 175.934 362.569 164.921 358.551C159.45 356.559 156.312 354.247 156.312 351.763C156.312 344.299 184.795 338.254 219.926 338.254C255.057 338.254 283.54 344.287 283.54 351.763Z" stroke="#263238" stroke-width="1.18987" stroke-miterlimit="10" stroke-linecap="round" stroke-linejoin="round"/>
<path d="M276.446 357.957C265.854 362.308 244.513 365.261 219.926 365.261C196.445 365.261 175.946 362.571 164.932 358.553C173.156 353.653 195.255 350.127 221.212 350.127C246.124 350.116 267.477 353.367 276.446 357.957Z" fill="#263238"/>
<path d="M156.312 351.763L166.255 426.481C166.724 429.961 169.033 432.961 172.375 434.403C184.891 439.784 218.507 450.579 266.467 437.929C270.591 436.842 273.597 433.43 274.09 429.378L277.132 404.479L277.432 401.938L279.885 381.836L280.426 377.382L283.54 351.751" stroke="#263238" stroke-width="1.18987" stroke-miterlimit="10" stroke-linecap="round" stroke-linejoin="round"/>
<path d="M208.961 443.63C208.961 443.63 203.442 437.483 206.027 429.492C206.027 429.492 198.705 432.984 198.489 439.131C198.489 439.131 187.716 436.258 189.015 421.284C189.015 421.284 182.979 430.511 188.366 440.562C193.752 450.624 208.961 443.63 208.961 443.63Z" fill="#263238"/>
<path d="M237.011 443.677C237.011 443.677 244.874 436.923 246.894 424.846C246.894 424.846 249.431 431.852 246.642 440.3C246.642 440.3 254 437.644 255.767 429.436C255.767 429.436 257.294 438.606 252.725 443.677C248.157 448.748 237.011 443.677 237.011 443.677Z" fill="#263238"/>
<path d="M301.899 384.286C299.049 393.799 288.806 404.171 277.119 404.48L277.42 401.939C287.423 401.446 296.765 392.174 299.326 383.588C299.951 381.505 300.997 376.399 297.234 374.087C295.118 372.816 293.038 372.427 290.838 372.942C285.127 374.27 280.895 381.138 280.859 381.218C280.642 381.573 280.269 381.791 279.873 381.837L280.414 377.383C282.386 374.934 285.86 371.499 290.2 370.481C293.11 369.817 295.948 370.309 298.665 371.957C302.392 374.224 303.558 378.723 301.899 384.286Z" fill="#263238"/>
<path d="M210.344 355.827C216.86 359.342 224.891 359.537 232.177 357.899C234.702 357.339 237.227 356.537 239.367 355.129" stroke="white" stroke-width="1.18987" stroke-miterlimit="10" stroke-linecap="round" stroke-linejoin="round"/>
<path d="M248.902 356.296C246.882 358.231 244.382 359.708 241.664 360.578" stroke="white" stroke-width="1.18987" stroke-miterlimit="10" stroke-linecap="round" stroke-linejoin="round"/>
<path d="M164.981 406.631C141.151 409.31 138.795 383.129 145.203 378.985C151.611 374.841 164.212 389.013 164.212 389.013" stroke="white" stroke-width="2.37975" stroke-miterlimit="10" stroke-linecap="round" stroke-linejoin="round"/>
<path d="M227.91 355.129L180.623 273.301C180.623 273.301 175.441 270.348 175.79 276.255C176.138 282.173 219.686 355.644 219.686 355.644L227.91 355.129Z" fill="white" stroke="#263238" stroke-width="1.18987" stroke-miterlimit="10" stroke-linecap="round" stroke-linejoin="round"/>
<path d="M209.948 372.838C224.255 373.674 242.35 373.353 257.932 368.785" stroke="#263238" stroke-width="1.18987" stroke-miterlimit="10" stroke-linecap="round" stroke-linejoin="round"/>
<path d="M184.759 369.941C184.759 369.941 189.568 370.868 197.143 371.738" stroke="#263238" stroke-width="1.18987" stroke-miterlimit="10" stroke-linecap="round" stroke-linejoin="round"/>
<path d="M139.84 264.943C130.15 275.349 121.337 286.499 113.522 298.255" stroke="#263238" stroke-width="1.18987" stroke-miterlimit="10" stroke-linecap="round" stroke-linejoin="round"/>
<path d="M108.064 297.81C102.244 296.516 96.0405 296.791 90.3657 298.6" stroke="#263238" stroke-width="1.18987" stroke-miterlimit="10" stroke-linecap="round" stroke-linejoin="round"/>
<path d="M106.14 229.353C106.14 229.353 127.83 241.155 135.801 259.277" stroke="#263238" stroke-width="1.18987" stroke-miterlimit="10" stroke-linecap="round" stroke-linejoin="round"/>
<path d="M124.054 303.087C124.463 317.877 134.141 333 134.141 333L169.718 327.825L167.361 321.266C168.575 321.838 171.04 321.643 172.711 322.01C183.183 324.334 200.4 323.876 200.4 323.876C204.32 320.499 205.582 318.472 206.724 316.561C209.622 311.684 206.893 310.356 206.893 310.356C211.089 304.758 207.867 300.717 207.867 300.717C214.07 297.352 211.425 295.497 211.425 295.497C207.434 289.556 183.881 292.12 183.881 292.12L163.201 308.708L149.194 306.372L124.054 303.087Z" fill="white"/>
<path d="M161.278 308.914L164.38 307.952L183.869 292.12C183.869 292.12 209.31 290.838 211.125 295.188C212.953 299.538 207.638 301.553 203.082 303.281" stroke="#263238" stroke-width="1.18987" stroke-miterlimit="10" stroke-linecap="round" stroke-linejoin="round"/>
<path d="M207.025 301.736C207.025 301.736 213.313 304.357 204.681 311.638" stroke="#263238" stroke-width="1.18987" stroke-miterlimit="10" stroke-linecap="round" stroke-linejoin="round"/>
<path d="M206.196 310.54C208.961 309.052 210.777 315.76 201.074 318.988" stroke="#263238" stroke-width="1.18987" stroke-miterlimit="10" stroke-linecap="round" stroke-linejoin="round"/>
<path d="M206.905 316.995L199.8 324.264C199.8 324.264 183.797 325.592 169.405 321.173L167.83 321.609" stroke="#263238" stroke-width="1.18987" stroke-miterlimit="10" stroke-linecap="round" stroke-linejoin="round"/>
<path d="M85.4481 311.169C92.169 304.289 101.968 300.202 111.839 300.179C113.895 300.179 115.926 300.557 117.886 301.141C124.848 303.202 153.45 306.304 162.179 309.223L169.754 327.436C139.804 334.648 99.8757 335.232 75.8777 334.179C70.5876 333.95 64.2635 332.176 58.6608 329.451C52.1082 326.269 49.5954 318.564 53.0099 312.36L96.0885 233.405C97.2667 231.265 105.671 223.709 108.027 222.816L129.981 212.731C131.629 211.952 135.428 210.418 137.183 209.869L161.458 202.119C163.309 201.421 168.623 197.368 168.143 195.525L165.149 183.894C165.149 183.894 184.193 176.236 210.5 175.297" stroke="#263238" stroke-width="1.18987" stroke-miterlimit="10" stroke-linecap="round" stroke-linejoin="round"/>
<path d="M45.6996 167.754H19.7178V182.681H45.6996V167.754Z" stroke="#263238" stroke-width="1.18987" stroke-miterlimit="10" stroke-linecap="round" stroke-linejoin="round"/>
<path d="M57.2538 186.996H31.272V201.924H57.2538V186.996Z" stroke="#263238" stroke-width="1.18987" stroke-miterlimit="10" stroke-linecap="round" stroke-linejoin="round"/>
<path d="M469.86 162.899H443.879V177.827H469.86V162.899Z" stroke="#263238" stroke-width="1.18987" stroke-miterlimit="10" stroke-linecap="round" stroke-linejoin="round"/>
<path d="M453.665 182.142H427.683V197.07H453.665V182.142Z" stroke="#263238" stroke-width="1.18987" stroke-miterlimit="10" stroke-linecap="round" stroke-linejoin="round"/>
<path d="M87.7683 371.234H66.0547V376.798H87.7683V371.234Z" stroke="#263238" stroke-width="1.18987" stroke-miterlimit="10" stroke-linecap="round" stroke-linejoin="round"/>
<path d="M100.08 353.227H75.733V368.155H100.08V353.227Z" stroke="#263238" stroke-width="1.18987" stroke-miterlimit="10" stroke-linecap="round" stroke-linejoin="round"/>
<path d="M290.934 73.8827V11.1611H456.178V122.1H431.555" stroke="#263238" stroke-width="1.18987" stroke-miterlimit="10" stroke-linecap="round" stroke-linejoin="round"/>
<path d="M290.934 96.7779V87.3564" stroke="#263238" stroke-width="1.18987" stroke-miterlimit="10" stroke-linecap="round" stroke-linejoin="round"/>
<path d="M313.092 122.1H290.934V102.96" stroke="#263238" stroke-width="1.18987" stroke-miterlimit="10" stroke-linecap="round" stroke-linejoin="round"/>
<path d="M333.291 24.5668C334.566 24.5668 335.599 23.5827 335.599 22.3688C335.599 21.155 334.566 20.1709 333.291 20.1709C332.016 20.1709 330.982 21.155 330.982 22.3688C330.982 23.5827 332.016 24.5668 333.291 24.5668Z" stroke="#263238" stroke-width="1.18987" stroke-miterlimit="10" stroke-linecap="round" stroke-linejoin="round"/>
<path d="M375.9 22.541C375.9 23.7544 374.866 24.7389 373.592 24.7389C372.317 24.7389 371.283 23.7544 371.283 22.541C371.283 21.3275 372.317 20.343 373.592 20.343C374.866 20.343 375.9 21.3275 375.9 22.541Z" stroke="#263238" stroke-width="1.18987" stroke-miterlimit="10" stroke-linecap="round" stroke-linejoin="round"/>
<path d="M416.61 22.3686C416.61 23.5821 415.576 24.5665 414.302 24.5665C413.027 24.5665 411.993 23.5821 411.993 22.3686C411.993 21.1552 413.027 20.1707 414.302 20.1707C415.576 20.1707 416.61 21.1552 416.61 22.3686Z" stroke="#263238" stroke-width="1.18987" stroke-miterlimit="10" stroke-linecap="round" stroke-linejoin="round"/>
<path d="M340 106.578C338.016 106.601 336.417 105.067 336.441 103.189L337.547 37.56C337.656 35.1789 336.814 33.0955 334.313 33.0955H332.606C330.141 33.0955 328.145 34.1715 328.205 36.5069L329.792 103.224C329.841 105.101 328.254 106.635 326.282 106.635H326.041C324.118 106.635 322.567 108.1 322.531 109.932L322.086 140.325C322.038 143.611 324.851 146.29 328.302 146.255L339.663 146.118C343.09 146.084 345.831 143.371 345.723 140.097L344.785 109.795C344.725 107.974 343.15 106.532 341.226 106.555L340 106.578Z" stroke="#263238" stroke-width="1.18987" stroke-miterlimit="10" stroke-linecap="round" stroke-linejoin="round"/>
<path d="M331.067 37.8814C331.067 36.8053 331.981 35.9353 333.111 35.9353C334.241 35.9353 335.155 36.8053 335.155 37.8814C335.155 38.9575 334.241 39.8275 333.111 39.8275C331.981 39.8161 331.067 38.946 331.067 37.8814Z" stroke="#263238" stroke-width="1.18987" stroke-miterlimit="10" stroke-linecap="round" stroke-linejoin="round"/>
<path d="M325.789 137.727V120.796" stroke="#263238" stroke-width="1.18987" stroke-miterlimit="10" stroke-linecap="round" stroke-linejoin="round"/>
<path d="M329.179 137.727V120.796" stroke="#263238" stroke-width="1.18987" stroke-miterlimit="10" stroke-linecap="round" stroke-linejoin="round"/>
<path d="M333.075 137.452L333.039 120.818" stroke="#263238" stroke-width="1.18987" stroke-miterlimit="10" stroke-linecap="round" stroke-linejoin="round"/>
<path d="M337.235 137.669V120.738" stroke="#263238" stroke-width="1.18987" stroke-miterlimit="10" stroke-linecap="round" stroke-linejoin="round"/>
<path d="M341.623 137.636V120.705" stroke="#263238" stroke-width="1.18987" stroke-miterlimit="10" stroke-linecap="round" stroke-linejoin="round"/>
<path d="M412.366 38.9107C412.366 37.8346 413.28 36.9646 414.41 36.9646C415.54 36.9646 416.454 37.8346 416.454 38.9107C416.454 39.9868 415.54 40.8568 414.41 40.8568C413.28 40.8568 412.366 39.9868 412.366 38.9107Z" stroke="#263238" stroke-width="1.18987" stroke-miterlimit="10" stroke-linecap="round" stroke-linejoin="round"/>
<path d="M414.807 110.79L419.099 38.0636C419.244 35.671 417.236 33.6562 414.723 33.6562H413.929C411.477 33.6562 409.493 35.5795 409.541 37.9148L410.503 81.1639C410.719 91.1119 410.936 101.06 411.176 111.008C411.2 111.889 410.719 112.702 409.938 113.183C407.016 114.98 404.984 117.991 403.926 121.173C402.532 125.375 402.279 130.332 403.073 134.682C403.95 139.513 407.473 144.79 412.98 145.5C418.39 146.198 422.273 141.653 423.692 137.177C425.123 132.633 425.712 127.161 424.498 122.524C423.921 120.303 422.778 118.266 421.3 116.434C420.314 115.209 418.162 113.927 416.418 113.24C415.384 112.84 414.747 111.855 414.807 110.79Z" stroke="#263238" stroke-width="1.18987" stroke-miterlimit="10" stroke-linecap="round" stroke-linejoin="round"/>
<path d="M406.235 133.572V123.853" stroke="#263238" stroke-width="1.18987" stroke-miterlimit="10" stroke-linecap="round" stroke-linejoin="round"/>
<path d="M420.819 133.572V123.853" stroke="#263238" stroke-width="1.18987" stroke-miterlimit="10" stroke-linecap="round" stroke-linejoin="round"/>
<path d="M410.576 135.814V121.379" stroke="#263238" stroke-width="1.18987" stroke-miterlimit="10" stroke-linecap="round" stroke-linejoin="round"/>
<path d="M417.489 135.814V121.379" stroke="#263238" stroke-width="1.18987" stroke-miterlimit="10" stroke-linecap="round" stroke-linejoin="round"/>
<path d="M413.954 140.519V119.146" stroke="#263238" stroke-width="1.18987" stroke-miterlimit="10" stroke-linecap="round" stroke-linejoin="round"/>
<path d="M371.476 38.6124C371.476 37.5363 372.39 36.6663 373.52 36.6663C374.65 36.6663 375.564 37.5363 375.564 38.6124C375.564 39.6884 374.65 40.5585 373.52 40.5585C372.39 40.5585 371.476 39.6884 371.476 38.6124Z" stroke="#263238" stroke-width="1.18987" stroke-miterlimit="10" stroke-linecap="round" stroke-linejoin="round"/>
<path d="M376.298 102.696L379.496 37.1926C379.616 34.8115 377.62 32.8196 375.119 32.8196H372.101C369.589 32.8196 367.593 34.8344 367.725 37.2155L371.464 103.177C371.512 104.081 371.055 104.94 370.25 105.432C366.619 107.596 356.64 114.659 356.399 126.908C356.111 141.893 373.893 148.555 384.088 143.003C394.068 137.577 401.257 115.151 377.836 105.077C376.851 104.654 376.249 103.703 376.298 102.696Z" stroke="#263238" stroke-width="1.18987" stroke-miterlimit="10" stroke-linecap="round" stroke-linejoin="round"/>
<path d="M374.266 137.714C374.266 137.13 374.759 136.66 375.372 136.66C375.985 136.66 376.478 137.13 376.478 137.714C376.478 138.297 375.985 138.767 375.372 138.767C374.759 138.767 374.266 138.297 374.266 137.714Z" stroke="#263238" stroke-width="1.18987" stroke-miterlimit="10" stroke-linecap="round" stroke-linejoin="round"/>
<path d="M368.302 136.123C368.913 136.123 369.408 135.652 369.408 135.07C369.408 134.488 368.913 134.017 368.302 134.017C367.691 134.017 367.196 134.488 367.196 135.07C367.196 135.652 367.691 136.123 368.302 136.123Z" stroke="#263238" stroke-width="1.18987" stroke-miterlimit="10" stroke-linecap="round" stroke-linejoin="round"/>
<path d="M382.597 136.123C383.208 136.123 383.703 135.652 383.703 135.07C383.703 134.488 383.208 134.017 382.597 134.017C381.986 134.017 381.491 134.488 381.491 135.07C381.491 135.652 381.986 136.123 382.597 136.123Z" stroke="#263238" stroke-width="1.18987" stroke-miterlimit="10" stroke-linecap="round" stroke-linejoin="round"/>
<path d="M374.266 130.845C374.266 130.262 374.758 129.792 375.372 129.792C375.985 129.792 376.478 130.262 376.478 130.845C376.478 131.429 375.985 131.899 375.372 131.899C374.758 131.899 374.266 131.429 374.266 130.845Z" stroke="#263238" stroke-width="1.18987" stroke-miterlimit="10" stroke-linecap="round" stroke-linejoin="round"/>
<path d="M368.302 129.255C368.913 129.255 369.408 128.783 369.408 128.202C369.408 127.62 368.913 127.148 368.302 127.148C367.691 127.148 367.196 127.62 367.196 128.202C367.196 128.783 367.691 129.255 368.302 129.255Z" stroke="#263238" stroke-width="1.18987" stroke-miterlimit="10" stroke-linecap="round" stroke-linejoin="round"/>
<path d="M382.598 129.255C383.209 129.255 383.704 128.783 383.704 128.202C383.704 127.62 383.209 127.148 382.598 127.148C381.987 127.148 381.492 127.62 381.492 128.202C381.492 128.783 381.987 129.255 382.598 129.255Z" stroke="#263238" stroke-width="1.18987" stroke-miterlimit="10" stroke-linecap="round" stroke-linejoin="round"/>
<path d="M374.265 123.966C374.265 123.382 374.758 122.913 375.371 122.913C375.984 122.913 376.477 123.382 376.477 123.966C376.477 124.55 375.984 125.019 375.371 125.019C374.758 125.019 374.265 124.55 374.265 123.966Z" stroke="#263238" stroke-width="1.18987" stroke-miterlimit="10" stroke-linecap="round" stroke-linejoin="round"/>
<path d="M367.184 121.32C367.184 120.736 367.677 120.267 368.291 120.267C368.904 120.267 369.397 120.736 369.397 121.32C369.397 121.904 368.904 122.373 368.291 122.373C367.677 122.373 367.184 121.904 367.184 121.32Z" stroke="#263238" stroke-width="1.18987" stroke-miterlimit="10" stroke-linecap="round" stroke-linejoin="round"/>
<path d="M381.492 121.32C381.492 120.736 381.985 120.267 382.598 120.267C383.211 120.267 383.704 120.736 383.704 121.32C383.704 121.904 383.211 122.373 382.598 122.373C381.985 122.373 381.492 121.904 381.492 121.32Z" stroke="#263238" stroke-width="1.18987" stroke-miterlimit="10" stroke-linecap="round" stroke-linejoin="round"/>
<path d="M374.266 112.334C374.266 112.918 374.759 113.388 375.372 113.388C375.985 113.388 376.478 112.918 376.478 112.334C376.478 111.751 375.985 111.281 375.372 111.281C374.759 111.281 374.266 111.751 374.266 112.334Z" stroke="#263238" stroke-width="1.18987" stroke-miterlimit="10" stroke-linecap="round" stroke-linejoin="round"/>
<path d="M367.184 114.978C367.184 115.562 367.677 116.031 368.29 116.031C368.904 116.031 369.397 115.562 369.397 114.978C369.397 114.394 368.904 113.925 368.29 113.925C367.677 113.925 367.184 114.394 367.184 114.978Z" stroke="#263238" stroke-width="1.18987" stroke-miterlimit="10" stroke-linecap="round" stroke-linejoin="round"/>
<path d="M381.492 114.978C381.492 115.562 381.985 116.031 382.598 116.031C383.211 116.031 383.704 115.562 383.704 114.978C383.704 114.394 383.211 113.925 382.598 113.925C381.985 113.925 381.492 114.394 381.492 114.978Z" stroke="#263238" stroke-width="1.18987" stroke-miterlimit="10" stroke-linecap="round" stroke-linejoin="round"/>
</g>
<defs>
<clipPath id="clip0_1328_8043">
<rect width="501" height="446" fill="white"/>
</clipPath>
</defs>
</svg>
