<svg width="140" height="40" viewBox="0 0 140 40" fill="none" xmlns="http://www.w3.org/2000/svg">
<path d="M4.14913 5.22193C5.00024 5.22193 5.42579 4.83899 5.42579 4.07311C5.42579 3.30723 5.00024 2.92428 4.14913 2.92428C3.43988 2.92428 3.08525 3.30723 3.08525 4.07311C3.08525 4.83899 3.43988 5.22193 4.14913 5.22193ZM19.469 14.9347C20.6747 14.9347 21.7386 15.3873 22.6607 16.2924C23.5827 17.1976 24.0437 18.2768 24.0437 19.53C24.0437 20.8181 23.5827 21.9147 22.6607 22.8198C21.7741 23.6902 20.6747 24.1253 19.3626 24.1253H13.4049V32.5849C13.4049 34.2907 12.7666 35.8225 11.4899 37.1802C10.2487 38.503 8.61743 39.1645 6.59606 39.1645C4.82292 39.1645 3.2803 38.503 1.96818 37.1802C0.65606 35.8573 0 34.2907 0 32.4804V6.57964C0 4.69974 0.65606 3.13316 1.96818 1.8799C3.2803 0.626632 4.85839 0 6.70245 0H21.0648C22.767 0 24.221 0.574413 25.4267 1.72324C26.6325 2.87206 27.2353 4.28199 27.2353 5.953C27.2353 7.62402 26.6325 9.05135 25.4267 10.235C24.221 11.4186 22.767 12.0104 21.0648 12.0104H13.4049V14.9347H19.469ZM3.40442 5.84857C3.15618 5.84857 2.90794 5.97041 2.6597 6.2141C2.44692 6.42298 2.34054 6.71889 2.34054 7.10183V32.5849C2.34054 33.3856 2.60651 34.1862 3.13845 34.9869C3.67039 35.7528 4.4683 36.3098 5.53218 36.658L5.74495 36.7624C5.88681 36.7624 6.09958 36.6754 6.38328 36.5013C6.70245 36.2924 6.87976 36.101 6.91522 35.9269V35.6136C6.91522 35.3699 6.8443 35.1436 6.70245 34.9347C6.5606 34.691 6.38328 34.5692 6.17051 34.5692C5.81588 34.4996 5.46125 34.2907 5.10663 33.9426C4.752 33.5596 4.57469 33.107 4.57469 32.5849V7.10183C4.57469 6.26632 4.1846 5.84857 3.40442 5.84857ZM23.9373 7.41514C23.7245 7.20627 23.4054 7.10183 22.9798 7.10183C22.838 7.10183 22.6252 7.17145 22.3415 7.31071C21.9869 7.65883 21.5613 7.8329 21.0648 7.8329H13.4049C12.6247 7.8329 12.2346 8.21584 12.2346 8.98172C12.2346 9.74761 12.6247 10.1305 13.4049 10.1305H21.0648C21.5613 10.1305 22.0933 10.0261 22.6607 9.81723C23.2281 9.57354 23.6891 9.26023 24.0437 8.87728C24.1855 8.73803 24.2565 8.56397 24.2565 8.35509C24.2565 7.93734 24.1501 7.62402 23.9373 7.41514ZM21.2776 20.1567C21.1358 19.8782 20.8166 19.7389 20.3201 19.7389C20.001 19.7737 19.7882 19.8433 19.6818 19.9478C19.6109 20.0174 19.3272 20.0522 18.8307 20.0522H13.6177C12.8375 20.0522 12.4474 20.4352 12.4474 21.201C12.4474 22.0366 12.8375 22.4543 13.6177 22.4543H18.8307C19.4335 22.4543 19.8768 22.4195 20.1605 22.3499C20.4797 22.2802 20.7811 22.1062 21.0648 21.8277C21.3485 21.5492 21.4904 21.2359 21.4904 20.8877L21.2776 20.1567Z" fill="#04B90B"/>
<path d="M35.1991 12.7415C34.9863 12.7415 34.809 12.8285 34.6671 13.0026C34.5253 13.1767 34.4543 13.403 34.4543 13.6815C34.4543 14.1688 34.7026 14.4125 35.1991 14.4125C35.6955 14.4125 35.9438 14.1688 35.9438 13.6815C35.9438 13.0548 35.6955 12.7415 35.1991 12.7415ZM42.3271 7.31071C45.8379 7.31071 48.8345 8.9121 51.3169 12.1149C53.8347 15.2829 55.0936 19.1123 55.0936 23.6031C55.0936 28.094 53.8347 31.9582 51.3169 35.1958C48.8345 38.3986 45.8379 40 42.3271 40C38.8163 40 35.8019 38.3986 33.2841 35.1958C30.8017 31.9582 29.5605 28.094 29.5605 23.6031C29.5605 19.1123 30.8017 15.2829 33.2841 12.1149C35.8019 8.9121 38.8163 7.31071 42.3271 7.31071ZM42.3271 29.765C43.6037 29.765 44.7208 29.1732 45.6783 27.9896C46.6358 26.7711 47.1145 25.309 47.1145 23.6031C47.1145 21.9321 46.6358 20.5048 45.6783 19.3211C44.7208 18.1375 43.6037 17.5457 42.3271 17.5457C41.0504 17.5457 39.9333 18.1375 38.9758 19.3211C38.0183 20.5048 37.5396 21.9321 37.5396 23.6031C37.5396 25.309 38.0006 26.7711 38.9226 27.9896C39.8801 29.1732 41.0149 29.765 42.3271 29.765ZM48.072 26.7363L47.9656 27.154C47.9656 27.4325 48.1075 27.7111 48.3912 27.9896L48.7103 28.094C49.1359 28.094 49.4196 27.8851 49.5615 27.4674C49.987 26.3185 50.1998 25.0305 50.1998 23.6031C50.1998 20.9574 49.4373 18.6771 47.9124 16.7624C46.3875 14.8477 44.5257 13.8903 42.3271 13.8903C41.5469 13.8903 40.9086 13.96 40.4121 14.0992C39.9156 14.2037 39.4191 14.4473 38.9226 14.8303C38.568 14.9347 38.3907 15.2132 38.3907 15.6658L38.4971 16.0835C38.6744 16.4317 38.9226 16.6057 39.2418 16.6057L39.6674 16.3969C40.3766 15.9095 41.2986 15.6658 42.4334 15.6658C44.1357 15.6658 45.5896 16.4491 46.7954 18.0157C48.0011 19.5474 48.604 21.4099 48.604 23.6031C48.604 24.6475 48.4266 25.6919 48.072 26.7363ZM46.9018 34.7781C46.2634 35.2654 45.5364 35.631 44.7208 35.8747C43.9052 36.1184 43.1072 36.2402 42.3271 36.2402C39.5964 36.2402 37.2559 35.0218 35.3055 32.5849C33.3905 30.1131 32.433 27.1192 32.433 23.6031C32.433 20.9922 32.9649 18.6945 34.0288 16.7102C34.0643 16.6754 34.082 16.6231 34.082 16.5535C34.1175 16.4491 34.1352 16.3272 34.1352 16.188C34.1352 15.8399 34.082 15.631 33.9756 15.5614C33.9047 15.4569 33.816 15.4047 33.7096 15.4047C33.6387 15.3699 33.5323 15.3525 33.3905 15.3525C33.0358 15.3525 32.8585 15.4569 32.8585 15.6658C32.2557 16.8842 31.7769 18.1723 31.4223 19.53C31.1031 20.8529 30.9435 22.2106 30.9435 23.6031C30.9435 27.5718 32.0606 30.9835 34.2948 33.8381C36.5289 36.6928 39.2063 38.1201 42.3271 38.1201C44.2066 38.1201 46.0152 37.4935 47.7529 36.2402C47.9656 36.0313 48.072 35.8225 48.072 35.6136L47.9656 35.0914C47.8238 34.8129 47.5755 34.6736 47.2209 34.6736L46.9018 34.7781Z" fill="#04B90B"/>
<path d="M63.5103 12.7415C63.2976 12.7415 63.1202 12.8285 62.9784 13.0026C62.8365 13.1767 62.7656 13.403 62.7656 13.6815C62.7656 14.1688 63.0139 14.4125 63.5103 14.4125C64.0068 14.4125 64.2551 14.1688 64.2551 13.6815C64.2551 13.0548 64.0068 12.7415 63.5103 12.7415ZM70.6383 7.31071C74.1491 7.31071 77.1457 8.9121 79.6281 12.1149C82.146 15.2829 83.4049 19.1123 83.4049 23.6031C83.4049 28.094 82.146 31.9582 79.6281 35.1958C77.1457 38.3986 74.1491 40 70.6383 40C67.1275 40 64.1132 38.3986 61.5954 35.1958C59.113 31.9582 57.8718 28.094 57.8718 23.6031C57.8718 19.1123 59.113 15.2829 61.5954 12.1149C64.1132 8.9121 67.1275 7.31071 70.6383 7.31071ZM70.6383 29.765C71.915 29.765 73.0321 29.1732 73.9896 27.9896C74.9471 26.7711 75.4258 25.309 75.4258 23.6031C75.4258 21.9321 74.9471 20.5048 73.9896 19.3211C73.0321 18.1375 71.915 17.5457 70.6383 17.5457C69.3617 17.5457 68.2446 18.1375 67.2871 19.3211C66.3296 20.5048 65.8509 21.9321 65.8509 23.6031C65.8509 25.309 66.3119 26.7711 67.2339 27.9896C68.1914 29.1732 69.3262 29.765 70.6383 29.765ZM76.3833 26.7363L76.2769 27.154C76.2769 27.4325 76.4188 27.7111 76.7025 27.9896L77.0216 28.094C77.4472 28.094 77.7309 27.8851 77.8727 27.4674C78.2983 26.3185 78.511 25.0305 78.511 23.6031C78.511 20.9574 77.7486 18.6771 76.2237 16.7624C74.6988 14.8477 72.837 13.8903 70.6383 13.8903C69.8582 13.8903 69.2198 13.96 68.7234 14.0992C68.2269 14.2037 67.7304 14.4473 67.2339 14.8303C66.8793 14.9347 66.702 15.2132 66.702 15.6658L66.8084 16.0835C66.9857 16.4317 67.2339 16.6057 67.5531 16.6057L67.9786 16.3969C68.6879 15.9095 69.6099 15.6658 70.7447 15.6658C72.4469 15.6658 73.9009 16.4491 75.1066 18.0157C76.3124 19.5474 76.9152 21.4099 76.9152 23.6031C76.9152 24.6475 76.7379 25.6919 76.3833 26.7363ZM75.213 34.7781C74.5747 35.2654 73.8477 35.631 73.0321 35.8747C72.2164 36.1184 71.4185 36.2402 70.6383 36.2402C67.9077 36.2402 65.5672 35.0218 63.6167 32.5849C61.7017 30.1131 60.7442 27.1192 60.7442 23.6031C60.7442 20.9922 61.2762 18.6945 62.3401 16.7102C62.3755 16.6754 62.3933 16.6231 62.3933 16.5535C62.4287 16.4491 62.4465 16.3272 62.4465 16.188C62.4465 15.8399 62.3933 15.631 62.2869 15.5614C62.2159 15.4569 62.1273 15.4047 62.0209 15.4047C61.95 15.3699 61.8436 15.3525 61.7017 15.3525C61.3471 15.3525 61.1698 15.4569 61.1698 15.6658C60.5669 16.8842 60.0882 18.1723 59.7336 19.53C59.4144 20.8529 59.2548 22.2106 59.2548 23.6031C59.2548 27.5718 60.3719 30.9835 62.606 33.8381C64.8402 36.6928 67.5176 38.1201 70.6383 38.1201C72.5179 38.1201 74.3265 37.4935 76.0641 36.2402C76.2769 36.0313 76.3833 35.8225 76.3833 35.6136L76.2769 35.0914C76.135 34.8129 75.8868 34.6736 75.5322 34.6736L75.213 34.7781Z" fill="#04B90B"/>
<path d="M89.2683 12.1149C89.8357 12.1149 90.1194 11.8016 90.1194 11.1749C90.1194 10.5483 89.8357 10.235 89.2683 10.235C88.63 10.235 88.3108 10.5483 88.3108 11.1749C88.3108 11.8016 88.63 12.1149 89.2683 12.1149ZM107.035 27.154C107.283 26.4926 107.461 25.866 107.567 25.2742C107.709 24.6823 107.78 24.0557 107.78 23.3943C107.78 20.7137 106.787 18.4334 104.801 16.5535C102.851 14.6388 100.51 13.6815 97.7793 13.6815H96.3963C95.758 13.6815 95.4388 13.96 95.4388 14.517C95.4388 15.1436 95.758 15.4569 96.3963 15.4569H97.7793C100.013 15.4569 101.928 16.2402 103.524 17.8068C105.156 19.3386 105.971 21.201 105.971 23.3943C105.971 24.4386 105.758 25.483 105.333 26.5274L105.226 26.9452C105.226 27.2933 105.439 27.537 105.865 27.6762L106.184 27.7807C106.61 27.7807 106.893 27.5718 107.035 27.154ZM97.7793 39.1645H89.8002C88.7718 39.1645 87.8852 38.8164 87.1405 38.1201C86.4313 37.389 86.0767 36.5187 86.0767 35.5091V11.3838C86.0767 10.4439 86.4313 9.60836 87.1405 8.87728C87.8852 8.1114 88.7718 7.72846 89.8002 7.72846H97.7793C102.177 7.72846 105.953 9.26023 109.11 12.3238C112.266 15.3873 113.844 19.0775 113.844 23.3943C113.844 27.7111 112.266 31.4186 109.11 34.517C105.953 37.6153 102.177 39.1645 97.7793 39.1645ZM96.8218 29.5561L97.3538 29.6606C99.1624 29.6606 100.687 29.0688 101.928 27.8851C103.205 26.6667 103.843 25.1697 103.843 23.3943C103.843 21.7232 103.205 20.3133 101.928 19.1645C100.652 18.0157 99.1624 17.4413 97.4602 17.4413H96.8218V29.5561ZM102.992 34.3603C101.432 35.1262 99.6943 35.5091 97.7793 35.5091H94.6941C94.1267 35.5091 93.843 35.7876 93.843 36.3446C93.843 36.9713 94.1267 37.2846 94.6941 37.2846H97.7793C99.978 37.2846 101.999 36.832 103.843 35.9269C104.127 35.8225 104.269 35.5788 104.269 35.1958V34.6736C104.127 34.3951 103.843 34.2559 103.418 34.2559L102.992 34.3603ZM89.8002 13.6815C89.8002 13.0548 89.5165 12.7415 88.9491 12.7415C88.3108 12.7415 87.9916 13.0548 87.9916 13.6815V34.6736C87.9916 35.2306 88.3108 35.5091 88.9491 35.5091C89.5165 35.5091 89.8002 35.2306 89.8002 34.6736V13.6815Z" fill="#04B90B"/>
<path d="M120.425 15.6658H125.531C126.17 15.6658 126.489 15.3525 126.489 14.7258C126.489 14.2385 126.17 13.9252 125.531 13.7859H120.425C119.822 13.7859 119.467 13.5944 119.361 13.2115C119.254 12.8285 118.971 12.6371 118.51 12.6371H118.19C117.765 12.7763 117.552 13.0896 117.552 13.577L117.659 13.8903C117.871 14.3777 118.226 14.7955 118.722 15.1436C119.219 15.4917 119.786 15.6658 120.425 15.6658ZM124.148 35.6136C123.581 35.6136 123.297 35.8921 123.297 36.4491C123.297 37.0061 123.581 37.2846 124.148 37.2846H135C135.957 37.2846 136.702 36.9713 137.234 36.3446L137.447 35.8225C137.34 35.4395 137.252 35.1958 137.181 35.0914C137.11 34.9521 136.915 34.8825 136.596 34.8825C136.347 34.8825 136.17 34.9869 136.064 35.1958C135.638 35.4743 135.283 35.6136 135 35.6136H124.148ZM119.042 11.906C119.68 11.906 119.999 11.5927 119.999 10.9661C119.999 10.4091 119.68 10.1305 119.042 10.1305C118.474 10.1305 118.19 10.4439 118.19 11.0705C118.19 11.6275 118.474 11.906 119.042 11.906ZM135 39.1645H120.85C119.325 39.1645 118.031 38.6423 116.967 37.5979C115.939 36.5187 115.424 35.3003 115.424 33.9426C115.424 33.49 115.478 33.02 115.584 32.5326C115.726 32.0104 115.921 31.5753 116.169 31.2272L124.999 17.5457H120.425C119.077 17.5457 117.907 17.0583 116.914 16.0835C115.921 15.1088 115.424 13.96 115.424 12.6371C115.424 11.2794 115.903 10.1305 116.861 9.1906C117.854 8.21584 119.042 7.72846 120.425 7.72846H134.149C135.744 7.72846 137.039 8.26806 138.032 9.34726C139.06 10.3916 139.574 11.6275 139.574 13.0548C139.574 14.0992 139.291 15.074 138.723 15.9791L130 29.4517H135.106C136.454 29.4517 137.606 29.9043 138.564 30.8094C139.521 31.7145 140 32.8634 140 34.2559C140 35.6136 139.504 36.7798 138.511 37.7546C137.553 38.6945 136.383 39.1645 135 39.1645ZM117.871 35.718C118.155 35.9965 118.403 36.1358 118.616 36.1358L119.042 35.9269C119.325 35.9269 119.467 35.718 119.467 35.3003C119.432 34.9869 119.396 34.8129 119.361 34.7781C119.148 34.4648 119.042 34.1514 119.042 33.8381C119.042 33.4204 119.148 33.107 119.361 32.8982L128.085 19.3211C128.439 18.8686 128.616 18.3116 128.616 17.6501C128.616 17.1279 128.528 16.6754 128.351 16.2924C128.209 15.8747 127.943 15.6658 127.553 15.6658H127.127C126.843 15.805 126.701 16.0836 126.701 16.5013L126.808 16.9191L126.914 17.5457C126.914 17.9634 126.843 18.2419 126.701 18.3812L117.871 31.9582C117.623 32.376 117.446 32.7241 117.339 33.0026C117.268 33.2463 117.233 33.5248 117.233 33.8381C117.233 34.1862 117.304 34.5344 117.446 34.8825C117.588 35.1958 117.729 35.4743 117.871 35.718Z" fill="#04B90B"/>
</svg>
