<svg width="136" height="24" viewBox="0 0 136 24" fill="none" xmlns="http://www.w3.org/2000/svg">
<path d="M11.0818 3.12771C11.4292 2.32266 12.5707 2.32266 12.9181 3.12771L15.0982 8.1796C15.2453 8.52048 15.5691 8.75181 15.9393 8.78042L21.5299 9.21241C22.4269 9.28172 22.7833 10.4078 22.0896 10.9806L17.8852 14.4518C17.5886 14.6967 17.4588 15.0899 17.5511 15.4632L18.8451 20.6916C19.0579 21.5514 18.1303 22.2429 17.367 21.7935L12.5073 18.9326C12.1942 18.7482 11.8058 18.7482 11.4927 18.9326L6.63292 21.7935C5.86962 22.2429 4.9421 21.5514 5.15489 20.6916L6.44882 15.4632C6.54121 15.0899 6.41134 14.6967 6.11478 14.4518L1.9104 10.9806C1.21664 10.4078 1.57304 9.28172 2.47003 9.21241L8.06068 8.78042C8.43085 8.75181 8.7547 8.52048 8.9018 8.1796L11.0818 3.12771Z" fill="#04B90B"/>
<path d="M39.0818 3.12771C39.4292 2.32266 40.5707 2.32266 40.9181 3.12771L43.0982 8.1796C43.2453 8.52048 43.5691 8.75181 43.9393 8.78042L49.5299 9.21241C50.4269 9.28172 50.7833 10.4078 50.0896 10.9806L45.8852 14.4518C45.5886 14.6967 45.4588 15.0899 45.5511 15.4632L46.8451 20.6916C47.0579 21.5514 46.1303 22.2429 45.367 21.7935L40.5073 18.9326C40.1942 18.7482 39.8058 18.7482 39.4927 18.9326L34.6329 21.7935C33.8696 22.2429 32.9421 21.5514 33.1549 20.6916L34.4488 15.4632C34.5412 15.0899 34.4113 14.6967 34.1148 14.4518L29.9104 10.9806C29.2166 10.4078 29.573 9.28172 30.47 9.21241L36.0607 8.78042C36.4308 8.75181 36.7547 8.52048 36.9018 8.1796L39.0818 3.12771Z" fill="#04B90B"/>
<path d="M67.0818 3.12771C67.4292 2.32266 68.5707 2.32266 68.9181 3.12771L71.0982 8.1796C71.2453 8.52048 71.5691 8.75181 71.9393 8.78042L77.5299 9.21241C78.4269 9.28172 78.7833 10.4078 78.0896 10.9806L73.8852 14.4518C73.5886 14.6967 73.4588 15.0899 73.5511 15.4632L74.8451 20.6916C75.0579 21.5514 74.1303 22.2429 73.367 21.7935L68.5073 18.9326C68.1942 18.7482 67.8058 18.7482 67.4927 18.9326L62.6329 21.7935C61.8696 22.2429 60.9421 21.5514 61.1549 20.6916L62.4488 15.4632C62.5412 15.0899 62.4113 14.6967 62.1148 14.4518L57.9104 10.9806C57.2166 10.4078 57.573 9.28172 58.47 9.21241L64.0607 8.78042C64.4308 8.75181 64.7547 8.52048 64.9018 8.1796L67.0818 3.12771Z" fill="#04B90B"/>
<path d="M95.0818 3.12771C95.4292 2.32266 96.5707 2.32266 96.9181 3.12771L99.0982 8.1796C99.2453 8.52048 99.5691 8.75181 99.9393 8.78042L105.53 9.21241C106.427 9.28172 106.783 10.4078 106.09 10.9806L101.885 14.4518C101.589 14.6967 101.459 15.0899 101.551 15.4632L102.845 20.6916C103.058 21.5514 102.13 22.2429 101.367 21.7935L96.5073 18.9326C96.1942 18.7482 95.8058 18.7482 95.4927 18.9326L90.6329 21.7935C89.8696 22.2429 88.9421 21.5514 89.1549 20.6916L90.4488 15.4632C90.5412 15.0899 90.4113 14.6967 90.1148 14.4518L85.9104 10.9806C85.2166 10.4078 85.573 9.28172 86.47 9.21241L92.0607 8.78042C92.4308 8.75181 92.7547 8.52048 92.9018 8.1796L95.0818 3.12771Z" fill="#04B90B"/>
<path d="M123.082 3.12771C123.429 2.32266 124.571 2.32266 124.918 3.12771L127.098 8.1796C127.245 8.52048 127.569 8.75181 127.939 8.78042L133.53 9.21241C134.427 9.28172 134.783 10.4078 134.09 10.9806L129.885 14.4518C129.589 14.6967 129.459 15.0899 129.551 15.4632L130.845 20.6916C131.058 21.5514 130.13 22.2429 129.367 21.7935L124.507 18.9326C124.194 18.7482 123.806 18.7482 123.493 18.9326L118.633 21.7935C117.87 22.2429 116.942 21.5514 117.155 20.6916L118.449 15.4632C118.541 15.0899 118.411 14.6967 118.115 14.4518L113.91 10.9806C113.217 10.4078 113.573 9.28172 114.47 9.21241L120.061 8.78042C120.431 8.75181 120.755 8.52048 120.902 8.1796L123.082 3.12771Z" fill="#04B90B"/>
</svg>
