<svg width="48" height="48" viewBox="0 0 48 48" fill="none" xmlns="http://www.w3.org/2000/svg">
<g id="icons/Delivery Truck/Line">
<path id="Shape" fill-rule="evenodd" clip-rule="evenodd" d="M0 14C0 10.6863 2.68629 8 6 8H22C25.3137 8 28 10.6863 28 14V32C28 34.2091 26.2091 36 24 36H16V32H23C23.5523 32 24 31.5523 24 31V14C24 12.8954 23.1046 12 22 12H6C4.89543 12 4 12.8954 4 14V30C4 31.1046 4.89543 32 6 32H8V36H6C2.68629 36 0 33.3137 0 30V14Z" fill="#777E91"/>
<path id="Shape_2" fill-rule="evenodd" clip-rule="evenodd" d="M24 14H36.4502C37.9458 14 39.3875 14.5586 40.4927 15.5663L46.0425 20.6264C47.2894 21.7633 48 23.3727 48 25.0601V30C48 33.3137 45.3137 36 42 36H40V32H42C43.1046 32 44 31.1046 44 30V25.0601C44 24.4976 43.7631 23.9612 43.3475 23.5822L37.7977 18.5221C37.4293 18.1862 36.9488 18 36.4502 18H30C28.8954 18 28 18.8954 28 20V31C28 31.5523 28.4477 32 29 32H32V36H24V14Z" fill="#777E91"/>
<path id="Shape_3" fill-rule="evenodd" clip-rule="evenodd" d="M12 36C13.1046 36 14 35.1046 14 34C14 32.8954 13.1046 32 12 32C10.8954 32 10 32.8954 10 34C10 35.1046 10.8954 36 12 36ZM12 40C15.3137 40 18 37.3137 18 34C18 30.6863 15.3137 28 12 28C8.68629 28 6 30.6863 6 34C6 37.3137 8.68629 40 12 40Z" fill="#777E91"/>
<path id="Shape_4" fill-rule="evenodd" clip-rule="evenodd" d="M36 36C37.1046 36 38 35.1046 38 34C38 32.8954 37.1046 32 36 32C34.8954 32 34 32.8954 34 34C34 35.1046 34.8954 36 36 36ZM36 40C39.3137 40 42 37.3137 42 34C42 30.6863 39.3137 28 36 28C32.6863 28 30 30.6863 30 34C30 37.3137 32.6863 40 36 40Z" fill="#777E91"/>
</g>
</svg>
