<svg width="393" height="249" viewBox="0 0 393 249" fill="none" xmlns="http://www.w3.org/2000/svg">
<g filter="url(#filter0_d_1309_2234)">
<rect x="35.782" y="81.0625" width="20" height="72" transform="rotate(29.0637 35.782 81.0625)" fill="#F7E89D"/>
</g>
<path fill-rule="evenodd" clip-rule="evenodd" d="M21.2075 116.477L18.2531 121.699L329.491 298.677L335.429 288.207L21.2075 116.477ZM339.384 290.356L333.396 300.914L370.309 322.052L376.694 310.636L339.384 290.356Z" fill="#2F363A"/>
<path d="M335.429 288.207L329.491 298.677L333.396 300.914L339.384 290.356L335.429 288.207Z" fill="#F7E89D"/>
<path fill-rule="evenodd" clip-rule="evenodd" d="M26.6611 106.837L23.7824 112.101L337.544 284.566L343.33 274.011L26.6611 106.837ZM347.315 276.103L341.481 286.746L378.695 307.349L384.915 295.842L347.315 276.103Z" fill="#2F363A"/>
<path d="M343.33 274.011L337.544 284.566L341.481 286.746L347.315 276.103L343.33 274.011Z" fill="#F7E89D"/>
<defs>
<filter id="filter0_d_1309_2234" x="0.805664" y="81.0625" width="52.4579" height="75.6494" filterUnits="userSpaceOnUse" color-interpolation-filters="sRGB">
<feFlood flood-opacity="0" result="BackgroundImageFix"/>
<feColorMatrix in="SourceAlpha" type="matrix" values="0 0 0 0 0 0 0 0 0 0 0 0 0 0 0 0 0 0 127 0" result="hardAlpha"/>
<feOffset dy="3"/>
<feComposite in2="hardAlpha" operator="out"/>
<feColorMatrix type="matrix" values="0 0 0 0 0.3225 0 0 0 0 0.3126 0 0 0 0 0.2775 0 0 0 1 0"/>
<feBlend mode="normal" in2="BackgroundImageFix" result="effect1_dropShadow_1309_2234"/>
<feBlend mode="normal" in="SourceGraphic" in2="effect1_dropShadow_1309_2234" result="shape"/>
</filter>
</defs>
</svg>
