<?xml version="1.0" encoding="UTF-8"?>
<!DOCTYPE svg PUBLIC "-//W3C//DTD SVG 1.1//EN" "http://www.w3.org/Graphics/SVG/1.1/DTD/svg11.dtd">
<svg xmlns="http://www.w3.org/2000/svg" version="1.1" width="540px" height="462px" style="shape-rendering:geometricPrecision; text-rendering:geometricPrecision; image-rendering:optimizeQuality; fill-rule:evenodd; clip-rule:evenodd" xmlns:xlink="http://www.w3.org/1999/xlink">
<g><path style="opacity:1" fill="#eceeee" d="M 475.5,96.5 C 475.083,97.1239 474.416,97.4573 473.5,97.5C 469.87,96.5737 466.203,95.9071 462.5,95.5C 422.902,70.2398 379.568,54.7398 332.5,49C 264.429,39.2065 197.762,44.8731 132.5,66C 116.055,72.7245 100.055,80.2245 84.5,88.5C 80.429,89.1844 76.429,90.1844 72.5,91.5C 72.1667,91.1667 71.8333,90.8333 71.5,90.5C 72.1925,89.4822 72.8592,88.4822 73.5,87.5C 103.974,67.4952 137.307,53.9952 173.5,47C 251.155,31.0803 327.822,34.7469 403.5,58C 425.308,65.7098 445.975,75.7098 465.5,88C 469.025,90.698 472.358,93.5314 475.5,96.5 Z"/></g>
<g><path style="opacity:1" fill="#d3c7cb" d="M 462.5,95.5 C 480.523,107.689 494.023,123.689 503,143.5C 510.676,165.219 508.343,185.885 496,205.5C 487.645,217.688 477.478,228.021 465.5,236.5C 473.408,228.934 479.742,220.267 484.5,210.5C 491.466,192.97 489.299,176.636 478,161.5C 461.9,142.237 442.067,128.237 418.5,119.5C 418.548,103.937 412.882,90.9372 401.5,80.5C 396.959,76.3934 391.626,73.56 385.5,72C 359.882,67.2076 335.549,70.8743 312.5,83C 310.907,83.9487 309.574,85.1154 308.5,86.5C 305.628,87.5262 303.128,89.1929 301,91.5C 300.722,90.5842 300.222,89.9175 299.5,89.5C 298.292,88.7659 296.959,88.4326 295.5,88.5C 295.5,87.5 295.5,86.5 295.5,85.5C 294.07,85.4208 292.736,85.7542 291.5,86.5C 290.063,83.9557 288.563,83.9557 287,86.5C 285.635,82.7768 283.968,82.7768 282,86.5C 280.649,84.981 279.149,83.6477 277.5,82.5C 276.851,84.6241 276.017,86.6241 275,88.5C 273.416,87.1387 271.582,86.472 269.5,86.5C 269.5,87.5 269.5,88.5 269.5,89.5C 268.167,89.5 266.833,89.5 265.5,89.5C 263.952,89.8212 263.285,90.8212 263.5,92.5C 261.833,92.5 260.167,92.5 258.5,92.5C 258.963,86.8511 261.963,83.0177 267.5,81C 272.171,75.5293 270.838,72.3627 263.5,71.5C 262.479,69.812 261.145,68.4787 259.5,67.5C 257.915,65.0183 255.915,64.3516 253.5,65.5C 251.665,66.1223 250.498,67.4556 250,69.5C 249.667,73.5 249.333,77.5 249,81.5C 242.88,76.8235 242.047,71.4902 246.5,65.5C 247.451,64.0813 247.784,62.4147 247.5,60.5C 240.335,60.6251 233.335,59.6251 226.5,57.5C 222.312,57.8803 218.312,58.8803 214.5,60.5C 213.244,60.4614 212.244,60.9614 211.5,62C 215.142,65.4866 219.142,68.4866 223.5,71C 225.543,72.708 227.21,74.708 228.5,77C 227.5,77.6667 226.5,77.6667 225.5,77C 221.691,72.6791 217.025,69.8458 211.5,68.5C 202.888,66.9196 202.555,67.7529 210.5,71C 211.71,72.0391 212.71,73.2058 213.5,74.5C 210.753,74.1866 208.086,74.52 205.5,75.5C 204.619,76.9705 203.286,77.8038 201.5,78C 203.608,78.3599 205.608,79.0266 207.5,80C 204.724,81.7787 205.057,82.7787 208.5,83C 207.833,83.6667 207.167,84.3333 206.5,85C 208.167,85.3333 209.833,85.6667 211.5,86C 210.956,86.7172 210.289,87.2172 209.5,87.5C 208.711,87.7828 208.044,88.2828 207.5,89C 209.382,89.1981 211.048,89.6981 212.5,90.5C 213.36,92.2879 214.36,93.9545 215.5,95.5C 208.708,96.1848 202.041,97.5181 195.5,99.5C 192.958,98.3756 190.292,97.5423 187.5,97C 171.703,94.7167 156.703,96.8833 142.5,103.5C 129.122,109.025 116.788,116.358 105.5,125.5C 81.4093,135.759 63.2426,152.426 51,175.5C 47.2129,188.194 48.0462,200.527 53.5,212.5C 57.9848,220.993 63.6515,228.659 70.5,235.5C 50.7295,222.379 37.3961,204.379 30.5,181.5C 28.6228,168.951 29.4561,156.618 33,144.5C 40.0329,129.279 49.8662,116.112 62.5,105C 69.7225,99.236 77.0558,93.736 84.5,88.5C 100.055,80.2245 116.055,72.7245 132.5,66C 197.762,44.8731 264.429,39.2065 332.5,49C 379.568,54.7398 422.902,70.2398 462.5,95.5 Z"/></g>
<g><path style="opacity:1" fill="#9ddd6a" d="M 246.5,65.5 C 242.671,63.8359 238.671,62.6693 234.5,62C 227.654,61.8283 220.987,61.3283 214.5,60.5C 218.312,58.8803 222.312,57.8803 226.5,57.5C 233.335,59.6251 240.335,60.6251 247.5,60.5C 247.784,62.4147 247.451,64.0813 246.5,65.5 Z"/></g>
<g><path style="opacity:1" fill="#819c37" d="M 214.5,60.5 C 220.987,61.3283 227.654,61.8283 234.5,62C 238.671,62.6693 242.671,63.8359 246.5,65.5C 242.047,71.4902 242.88,76.8235 249,81.5C 249.333,77.5 249.667,73.5 250,69.5C 250.498,67.4556 251.665,66.1223 253.5,65.5C 254.918,67.3079 256.918,67.9746 259.5,67.5C 261.145,68.4787 262.479,69.812 263.5,71.5C 270.838,72.3627 272.171,75.5293 267.5,81C 261.963,83.0177 258.963,86.8511 258.5,92.5C 258.789,101.439 260.289,110.106 263,118.5C 264.49,111.924 265.657,105.257 266.5,98.5C 266.533,95.8984 265.533,93.8984 263.5,92.5C 263.285,90.8212 263.952,89.8212 265.5,89.5C 268.075,90.7874 270.741,92.1207 273.5,93.5C 273.998,92.3966 274.331,91.3966 274.5,90.5C 277.452,92.1886 280.452,92.8552 283.5,92.5C 284.167,91.5 284.833,90.5 285.5,89.5C 286.711,90.3898 288.045,90.3898 289.5,89.5C 291.99,90.7716 294.324,92.2716 296.5,94C 294.519,94.6054 294.185,95.6054 295.5,97C 297.315,97.7568 298.981,98.5902 300.5,99.5C 299.184,101.213 296.85,102.379 293.5,103C 295.081,103.707 296.581,104.54 298,105.5C 298.692,106.437 298.525,107.103 297.5,107.5C 293.688,106.676 289.688,106.176 285.5,106C 286.5,105 287.5,104 288.5,103C 284.018,101.989 280.184,103.156 277,106.5C 277.172,103.649 278.339,101.149 280.5,99C 279.833,98.3333 279.167,98.3333 278.5,99C 276.014,102.137 274.181,105.637 273,109.5C 272.586,109.043 272.086,108.709 271.5,108.5C 270.416,109.665 269.583,110.998 269,112.5C 268.667,111.5 268.333,110.5 268,109.5C 267.685,114.838 267.852,120.172 268.5,125.5C 267.566,126.568 267.232,127.901 267.5,129.5C 264.793,126.753 263.127,123.42 262.5,119.5C 261.209,119.263 260.209,119.596 259.5,120.5C 258.662,120.158 258.328,119.492 258.5,118.5C 259.391,117.739 260.058,116.739 260.5,115.5C 258.332,106.488 256.166,97.4879 254,88.5C 253.667,90.5 253.333,92.5 253,94.5C 251.093,90.5897 248.427,87.2564 245,84.5C 245.747,86.9755 247.081,89.3089 249,91.5C 249.749,92.635 249.583,93.635 248.5,94.5C 241.285,87.2627 232.619,84.096 222.5,85C 225.603,86.8263 228.937,88.1596 232.5,89C 234.26,89.9653 234.594,91.132 233.5,92.5C 229.814,90.3181 226.148,90.1515 222.5,92C 227.464,93.3709 232.131,95.2043 236.5,97.5C 232.891,98.9741 229.557,100.974 226.5,103.5C 224.679,102.272 223.679,100.606 223.5,98.5C 221.94,98.5191 220.44,98.8524 219,99.5C 217.287,98.8626 217.121,97.8626 218.5,96.5C 217.675,95.6143 216.675,95.281 215.5,95.5C 214.36,93.9545 213.36,92.2879 212.5,90.5C 213.043,90.44 213.376,90.1067 213.5,89.5C 212.051,88.8281 210.718,88.1614 209.5,87.5C 210.289,87.2172 210.956,86.7172 211.5,86C 209.833,85.6667 208.167,85.3333 206.5,85C 207.167,84.3333 207.833,83.6667 208.5,83C 205.057,82.7787 204.724,81.7787 207.5,80C 205.608,79.0266 203.608,78.3599 201.5,78C 203.286,77.8038 204.619,76.9705 205.5,75.5C 208.086,74.52 210.753,74.1866 213.5,74.5C 212.737,75.2679 211.737,75.7679 210.5,76C 213.634,76.7901 216.634,76.4568 219.5,75C 216.087,73.7541 213.421,71.5874 211.5,68.5C 217.025,69.8458 221.691,72.6791 225.5,77C 226.5,77.6667 227.5,77.6667 228.5,77C 227.21,74.708 225.543,72.708 223.5,71C 219.142,68.4866 215.142,65.4866 211.5,62C 212.244,60.9614 213.244,60.4614 214.5,60.5 Z"/></g>
<g><path style="opacity:1" fill="#a2dc70" d="M 259.5,67.5 C 256.918,67.9746 254.918,67.3079 253.5,65.5C 255.915,64.3516 257.915,65.0183 259.5,67.5 Z"/></g>
<g><path style="opacity:1" fill="#9ad764" d="M 211.5,68.5 C 213.421,71.5874 216.087,73.7541 219.5,75C 216.634,76.4568 213.634,76.7901 210.5,76C 211.737,75.7679 212.737,75.2679 213.5,74.5C 212.71,73.2058 211.71,72.0391 210.5,71C 202.555,67.7529 202.888,66.9196 211.5,68.5 Z"/></g>
<g><path style="opacity:1" fill="#fbfaf9" d="M 401.5,80.5 C 393.802,79.6571 386.469,77.4904 379.5,74C 369.833,72 360.167,72 350.5,74C 339.243,76.8636 328.243,80.5303 317.5,85C 314.568,85.9533 311.568,86.4533 308.5,86.5C 309.574,85.1154 310.907,83.9487 312.5,83C 335.549,70.8743 359.882,67.2076 385.5,72C 391.626,73.56 396.959,76.3934 401.5,80.5 Z"/></g>
<g><path style="opacity:1" fill="#f8d7c7" d="M 401.5,80.5 C 412.882,90.9372 418.548,103.937 418.5,119.5C 417.658,138.536 412.325,156.203 402.5,172.5C 397.4,173.8 392.4,173.8 387.5,172.5C 399.873,160.788 400.706,148.121 390,134.5C 375.418,117.292 356.918,108.292 334.5,107.5C 318.743,106.464 305.243,111.464 294,122.5C 288.702,132.09 288.036,142.09 292,152.5C 297.539,172.044 310.373,182.877 330.5,185C 344.764,187.235 358.764,186.069 372.5,181.5C 370.058,183.226 367.391,184.726 364.5,186C 353.289,189.176 341.956,191.842 330.5,194C 326.578,195.798 322.578,197.298 318.5,198.5C 296.588,188.077 282.422,171.077 276,147.5C 273.606,140.699 272.44,133.699 272.5,126.5C 272.5,126.167 272.5,125.833 272.5,125.5C 275.33,124.49 277.83,122.823 280,120.5C 281.836,116.982 283.67,113.482 285.5,110C 289.473,108.972 293.473,108.139 297.5,107.5C 298.525,107.103 298.692,106.437 298,105.5C 296.581,104.54 295.081,103.707 293.5,103C 296.85,102.379 299.184,101.213 300.5,99.5C 303.97,99.2895 303.97,98.1229 300.5,96C 303.051,94.4842 302.718,93.6509 299.5,93.5C 299.5,92.1667 299.5,90.8333 299.5,89.5C 300.222,89.9175 300.722,90.5842 301,91.5C 303.128,89.1929 305.628,87.5262 308.5,86.5C 311.568,86.4533 314.568,85.9533 317.5,85C 328.243,80.5303 339.243,76.8636 350.5,74C 360.167,72 369.833,72 379.5,74C 386.469,77.4904 393.802,79.6571 401.5,80.5 Z"/></g>
<g><path style="opacity:1" fill="#aab180" d="M 209.5,87.5 C 210.718,88.1614 212.051,88.8281 213.5,89.5C 213.376,90.1067 213.043,90.44 212.5,90.5C 211.048,89.6981 209.382,89.1981 207.5,89C 208.044,88.2828 208.711,87.7828 209.5,87.5 Z"/></g>
<g><path style="opacity:1" fill="#9bda64" d="M 299.5,89.5 C 299.5,90.8333 299.5,92.1667 299.5,93.5C 302.718,93.6509 303.051,94.4842 300.5,96C 303.97,98.1229 303.97,99.2895 300.5,99.5C 298.981,98.5902 297.315,97.7568 295.5,97C 294.185,95.6054 294.519,94.6054 296.5,94C 294.324,92.2716 291.99,90.7716 289.5,89.5C 288.045,90.3898 286.711,90.3898 285.5,89.5C 284.833,90.5 284.167,91.5 283.5,92.5C 280.452,92.8552 277.452,92.1886 274.5,90.5C 274.331,91.3966 273.998,92.3966 273.5,93.5C 270.741,92.1207 268.075,90.7874 265.5,89.5C 266.833,89.5 268.167,89.5 269.5,89.5C 269.5,88.5 269.5,87.5 269.5,86.5C 271.582,86.472 273.416,87.1387 275,88.5C 276.017,86.6241 276.851,84.6241 277.5,82.5C 279.149,83.6477 280.649,84.981 282,86.5C 283.968,82.7768 285.635,82.7768 287,86.5C 288.563,83.9557 290.063,83.9557 291.5,86.5C 292.736,85.7542 294.07,85.4208 295.5,85.5C 295.5,86.5 295.5,87.5 295.5,88.5C 296.959,88.4326 298.292,88.7659 299.5,89.5 Z"/></g>
<g><path style="opacity:1" fill="#e5e5e5" d="M 73.5,87.5 C 72.8592,88.4822 72.1925,89.4822 71.5,90.5C 71.8333,90.8333 72.1667,91.1667 72.5,91.5C 76.429,90.1844 80.429,89.1844 84.5,88.5C 77.0558,93.736 69.7225,99.236 62.5,105C 49.8662,116.112 40.0329,129.279 33,144.5C 29.4561,156.618 28.6228,168.951 30.5,181.5C 37.3961,204.379 50.7295,222.379 70.5,235.5C 71.5,236.167 72.5,236.833 73.5,237.5C 73.8102,239.144 74.8102,240.144 76.5,240.5C 91.053,250.614 106.72,258.947 123.5,265.5C 129.285,268.095 135.285,270.095 141.5,271.5C 162.505,278.832 184.171,283.832 206.5,286.5C 211.633,287.665 216.966,288.332 222.5,288.5C 222.833,288.5 223.167,288.5 223.5,288.5C 236.631,290.135 249.964,290.802 263.5,290.5C 282.884,290.827 302.217,289.993 321.5,288C 329.387,286.938 337.053,285.438 344.5,283.5C 378.936,278.521 411.602,268.021 442.5,252C 446.58,249.971 450.246,247.471 453.5,244.5C 457.754,242.251 461.754,239.585 465.5,236.5C 477.478,228.021 487.645,217.688 496,205.5C 508.343,185.885 510.676,165.219 503,143.5C 494.023,123.689 480.523,107.689 462.5,95.5C 466.203,95.9071 469.87,96.5737 473.5,97.5C 474.416,97.4573 475.083,97.1239 475.5,96.5C 499.756,114.007 513.423,137.674 516.5,167.5C 515.697,182.721 511.197,196.721 503,209.5C 497.292,237.128 488.125,263.461 475.5,288.5C 465.496,307.502 453.163,324.835 438.5,340.5C 408.975,352.299 378.642,361.465 347.5,368C 271.38,380.016 197.047,373.35 124.5,348C 109.286,342.059 94.6191,335.059 80.5,327C 73.5456,319.558 66.879,312.058 60.5,304.5C 59.1535,302.463 57.8202,300.463 56.5,298.5C 43.3567,269.933 35.19,239.933 32,208.5C 14.7818,175.471 17.7818,144.471 41,115.5C 50.546,104.438 61.3794,95.1047 73.5,87.5 Z"/></g>
<g><path style="opacity:1" fill="#834733" d="M 258.5,92.5 C 260.167,92.5 261.833,92.5 263.5,92.5C 265.533,93.8984 266.533,95.8984 266.5,98.5C 265.657,105.257 264.49,111.924 263,118.5C 260.289,110.106 258.789,101.439 258.5,92.5 Z"/></g>
<g><path style="opacity:1" fill="#6c850b" d="M 258.5,118.5 C 254.797,111.599 250.464,105.099 245.5,99C 242.649,97.7114 239.649,97.2114 236.5,97.5C 232.131,95.2043 227.464,93.3709 222.5,92C 226.148,90.1515 229.814,90.3181 233.5,92.5C 234.594,91.132 234.26,89.9653 232.5,89C 228.937,88.1596 225.603,86.8263 222.5,85C 232.619,84.096 241.285,87.2627 248.5,94.5C 249.583,93.635 249.749,92.635 249,91.5C 247.081,89.3089 245.747,86.9755 245,84.5C 248.427,87.2564 251.093,90.5897 253,94.5C 253.333,92.5 253.667,90.5 254,88.5C 256.166,97.4879 258.332,106.488 260.5,115.5C 260.058,116.739 259.391,117.739 258.5,118.5 Z"/></g>
<g><path style="opacity:1" fill="#fbf7f3" d="M 195.5,99.5 C 204.498,102.166 212.831,106.166 220.5,111.5C 220.5,112.167 220.5,112.833 220.5,113.5C 220.167,113.5 219.833,113.5 219.5,113.5C 194.882,103.186 169.216,99.8526 142.5,103.5C 156.703,96.8833 171.703,94.7167 187.5,97C 190.292,97.5423 192.958,98.3756 195.5,99.5 Z"/></g>
<g><path style="opacity:1" fill="#834633" d="M 215.5,95.5 C 216.675,95.281 217.675,95.6143 218.5,96.5C 217.121,97.8626 217.287,98.8626 219,99.5C 220.44,98.8524 221.94,98.5191 223.5,98.5C 223.679,100.606 224.679,102.272 226.5,103.5C 229.557,100.974 232.891,98.9741 236.5,97.5C 239.649,97.2114 242.649,97.7114 245.5,99C 250.464,105.099 254.797,111.599 258.5,118.5C 258.328,119.492 258.662,120.158 259.5,120.5C 260.092,123.127 260.425,125.794 260.5,128.5C 258.435,128.483 256.435,128.15 254.5,127.5C 250.266,126.251 245.933,125.418 241.5,125C 235.877,121.045 230.543,116.712 225.5,112C 223.866,111.506 222.199,111.34 220.5,111.5C 212.831,106.166 204.498,102.166 195.5,99.5C 202.041,97.5181 208.708,96.1848 215.5,95.5 Z"/></g>
<g><path style="opacity:1" fill="#e99359" d="M 219.5,113.5 C 217.473,113.338 215.473,113.505 213.5,114C 214.252,114.671 214.586,115.504 214.5,116.5C 211.432,116.547 208.432,117.047 205.5,118C 206.094,118.464 206.761,118.631 207.5,118.5C 208.808,119.232 210.142,120.066 211.5,121C 196.58,125.585 196.913,127.585 212.5,127C 208.185,130.666 208.685,131.833 214,130.5C 216.241,130.68 216.741,131.513 215.5,133C 217.134,133.494 218.801,133.66 220.5,133.5C 216.709,139.125 212.043,143.958 206.5,148C 192.825,158.503 178.491,168.003 163.5,176.5C 145.883,176.868 128.549,175.535 111.5,172.5C 102.739,163.303 98.0722,152.303 97.5,139.5C 99.649,134.535 102.316,129.868 105.5,125.5C 116.788,116.358 129.122,109.025 142.5,103.5C 169.216,99.8526 194.882,103.186 219.5,113.5 Z"/></g>
<g><path style="opacity:1" fill="#b38c9d" d="M 235.5,106.5 C 239.846,106.334 244.179,106.501 248.5,107C 249.308,107.308 249.975,107.808 250.5,108.5C 252.727,113.922 251.061,117.255 245.5,118.5C 241.707,115.096 237.374,112.43 232.5,110.5C 231.614,109.675 231.281,108.675 231.5,107.5C 233.099,107.768 234.432,107.434 235.5,106.5 Z"/></g>
<g><path style="opacity:1" fill="#face11" d="M 387.5,172.5 C 382.666,175.752 377.666,178.752 372.5,181.5C 358.764,186.069 344.764,187.235 330.5,185C 310.373,182.877 297.539,172.044 292,152.5C 288.036,142.09 288.702,132.09 294,122.5C 305.243,111.464 318.743,106.464 334.5,107.5C 356.918,108.292 375.418,117.292 390,134.5C 400.706,148.121 399.873,160.788 387.5,172.5 Z"/></g>
<g><path style="opacity:1" fill="#9ada61" d="M 220.5,111.5 C 222.199,111.34 223.866,111.506 225.5,112C 230.543,116.712 235.877,121.045 241.5,125C 245.933,125.418 250.266,126.251 254.5,127.5C 244.397,129.964 236.231,126.964 230,118.5C 228.983,121.028 227.816,121.028 226.5,118.5C 225.672,119.415 224.672,120.081 223.5,120.5C 220.772,119.982 218.272,118.982 216,117.5C 213.23,118.348 210.397,118.681 207.5,118.5C 206.761,118.631 206.094,118.464 205.5,118C 208.432,117.047 211.432,116.547 214.5,116.5C 216.3,115.09 218.3,114.09 220.5,113.5C 220.5,112.833 220.5,112.167 220.5,111.5 Z"/></g>
<g><path style="opacity:1" fill="#6c870b" d="M 297.5,107.5 C 293.473,108.139 289.473,108.972 285.5,110C 283.67,113.482 281.836,116.982 280,120.5C 277.83,122.823 275.33,124.49 272.5,125.5C 271.167,125.5 269.833,125.5 268.5,125.5C 267.852,120.172 267.685,114.838 268,109.5C 268.333,110.5 268.667,111.5 269,112.5C 269.583,110.998 270.416,109.665 271.5,108.5C 272.086,108.709 272.586,109.043 273,109.5C 274.181,105.637 276.014,102.137 278.5,99C 279.167,98.3333 279.833,98.3333 280.5,99C 278.339,101.149 277.172,103.649 277,106.5C 280.184,103.156 284.018,101.989 288.5,103C 287.5,104 286.5,105 285.5,106C 289.688,106.176 293.688,106.676 297.5,107.5 Z"/></g>
<g><path style="opacity:1" fill="#cab35c" d="M 219.5,113.5 C 219.833,113.5 220.167,113.5 220.5,113.5C 218.3,114.09 216.3,115.09 214.5,116.5C 214.586,115.504 214.252,114.671 213.5,114C 215.473,113.505 217.473,113.338 219.5,113.5 Z"/></g>
<g><path style="opacity:1" fill="#829b36" d="M 254.5,127.5 C 256.435,128.15 258.435,128.483 260.5,128.5C 260.232,130.099 260.566,131.432 261.5,132.5C 260.564,133.974 259.23,134.974 257.5,135.5C 255.522,133.332 253.188,132.665 250.5,133.5C 243.462,130.076 237.129,130.909 231.5,136C 236.485,135.781 241.485,135.781 246.5,136C 244.156,136.837 242.156,138.171 240.5,140C 244.025,140.179 247.359,140.679 250.5,141.5C 248.975,143.216 247.975,145.216 247.5,147.5C 245.953,148.768 244.953,150.435 244.5,152.5C 243.596,151.791 243.263,150.791 243.5,149.5C 243.785,147.712 243.452,146.045 242.5,144.5C 241.702,144.957 241.369,145.624 241.5,146.5C 240.521,147.765 239.521,149.099 238.5,150.5C 236.898,148.573 235.565,146.406 234.5,144C 232.953,143.667 231.62,144.167 230.5,145.5C 229.833,144.167 229.167,142.833 228.5,141.5C 227.167,142.167 225.833,142.833 224.5,143.5C 223.614,142.675 223.281,141.675 223.5,140.5C 224.043,140.44 224.376,140.107 224.5,139.5C 222.662,138.811 220.995,138.478 219.5,138.5C 220.167,137.167 220.833,135.833 221.5,134.5C 221.376,133.893 221.043,133.56 220.5,133.5C 218.801,133.66 217.134,133.494 215.5,133C 216.741,131.513 216.241,130.68 214,130.5C 208.685,131.833 208.185,130.666 212.5,127C 196.913,127.585 196.58,125.585 211.5,121C 210.142,120.066 208.808,119.232 207.5,118.5C 210.397,118.681 213.23,118.348 216,117.5C 218.272,118.982 220.772,119.982 223.5,120.5C 224.672,120.081 225.672,119.415 226.5,118.5C 227.816,121.028 228.983,121.028 230,118.5C 236.231,126.964 244.397,129.964 254.5,127.5 Z"/></g>
<g><path style="opacity:1" fill="#f5b91c" d="M 349.5,118.5 C 352.179,118.525 353.512,119.858 353.5,122.5C 362.119,125.105 370.786,127.605 379.5,130C 380.276,133.858 379.276,137.358 376.5,140.5C 374.583,137.417 371.916,135.25 368.5,134C 358.389,133.884 348.389,132.884 338.5,131C 337.354,128.443 338.354,127.11 341.5,127C 344.371,124.297 347.038,121.464 349.5,118.5 Z"/></g>
<g><path style="opacity:1" fill="#824433" d="M 418.5,119.5 C 442.067,128.237 461.9,142.237 478,161.5C 489.299,176.636 491.466,192.97 484.5,210.5C 470.152,213.894 456.152,218.394 442.5,224C 441.748,224.671 441.414,225.504 441.5,226.5C 438.02,222.67 434.02,219.67 429.5,217.5C 441.44,215.674 453.44,214.341 465.5,213.5C 465.884,206.811 466.551,200.145 467.5,193.5C 467.509,187.84 465.842,182.84 462.5,178.5C 459.321,175.914 455.654,174.414 451.5,174C 438.467,173.223 425.467,173.39 412.5,174.5C 411.507,172.677 410.007,171.344 408,170.5C 406.2,171.32 404.366,171.986 402.5,172.5C 412.325,156.203 417.658,138.536 418.5,119.5 Z"/></g>
<g><path style="opacity:1" fill="#f5ba1c" d="M 307.5,126.5 C 312.701,128.098 317.701,130.265 322.5,133C 323.554,135.382 324.221,137.882 324.5,140.5C 320.089,140.537 316.423,139.037 313.5,136C 309.425,135.376 306.092,133.543 303.5,130.5C 304.549,128.784 305.882,127.451 307.5,126.5 Z"/></g>
<g><path style="opacity:1" fill="#834433" d="M 105.5,125.5 C 102.316,129.868 99.649,134.535 97.5,139.5C 92.5075,146.33 90.6742,153.997 92,162.5C 96.4708,169.653 102.971,172.986 111.5,172.5C 128.549,175.535 145.883,176.868 163.5,176.5C 153.131,184.191 142.465,191.524 131.5,198.5C 130.833,198.167 130.167,197.833 129.5,197.5C 129.672,196.508 129.338,195.842 128.5,195.5C 128.737,194.209 128.404,193.209 127.5,192.5C 126.653,191.034 125.32,190.2 123.5,190C 114.247,190.361 105.58,192.861 97.5,197.5C 95.1975,199.978 93.0308,202.645 91,205.5C 88.7111,210.419 86.2111,215.086 83.5,219.5C 73.8437,215.92 63.8437,213.587 53.5,212.5C 48.0462,200.527 47.2129,188.194 51,175.5C 63.2426,152.426 81.4093,135.759 105.5,125.5 Z"/></g>
<g><path style="opacity:1" fill="#874832" d="M 268.5,125.5 C 269.833,125.5 271.167,125.5 272.5,125.5C 272.5,125.833 272.5,126.167 272.5,126.5C 271.225,130.102 270.225,133.769 269.5,137.5C 268.833,134.833 268.167,132.167 267.5,129.5C 267.232,127.901 267.566,126.568 268.5,125.5 Z"/></g>
<g><path style="opacity:1" fill="#824432" d="M 261.5,132.5 C 263.752,132.916 265.252,134.249 266,136.5C 266.83,141.143 267.497,145.81 268,150.5C 268.383,149.944 268.883,149.611 269.5,149.5C 270.832,155.496 272.166,161.496 273.5,167.5C 266.872,164.52 260.539,161.02 254.5,157C 252.024,153.855 249.69,150.688 247.5,147.5C 247.975,145.216 248.975,143.216 250.5,141.5C 252.858,139.471 255.192,137.471 257.5,135.5C 259.23,134.974 260.564,133.974 261.5,132.5 Z"/></g>
<g><path style="opacity:1" fill="#6b860a" d="M 257.5,135.5 C 255.192,137.471 252.858,139.471 250.5,141.5C 247.359,140.679 244.025,140.179 240.5,140C 242.156,138.171 244.156,136.837 246.5,136C 241.485,135.781 236.485,135.781 231.5,136C 237.129,130.909 243.462,130.076 250.5,133.5C 253.188,132.665 255.522,133.332 257.5,135.5 Z"/></g>
<g><path style="opacity:1" fill="#f4b91c" d="M 360.5,138.5 C 361.5,138.5 362.5,138.5 363.5,138.5C 363.619,145.225 360.619,150.058 354.5,153C 349.833,153 345.167,153 340.5,153C 338.316,155.016 336.316,157.183 334.5,159.5C 330.701,161.422 326.701,161.922 322.5,161C 321.107,159.829 320.273,158.329 320,156.5C 315.864,157.809 311.698,157.809 307.5,156.5C 304.422,152.579 305.422,150.079 310.5,149C 315.846,148.47 321.179,148.637 326.5,149.5C 332.861,148.528 339.194,147.361 345.5,146C 351.119,144.524 356.119,142.024 360.5,138.5 Z"/></g>
<g><path style="opacity:1" fill="#6c8409" d="M 267.5,129.5 C 268.167,132.167 268.833,134.833 269.5,137.5C 271.977,141.395 271.977,145.395 269.5,149.5C 268.883,149.611 268.383,149.944 268,150.5C 267.497,145.81 266.83,141.143 266,136.5C 265.252,134.249 263.752,132.916 261.5,132.5C 260.566,131.432 260.232,130.099 260.5,128.5C 260.425,125.794 260.092,123.127 259.5,120.5C 260.209,119.596 261.209,119.263 262.5,119.5C 263.127,123.42 264.793,126.753 267.5,129.5 Z"/></g>
<g><path style="opacity:1" fill="#c3682a" d="M 223.5,140.5 C 223.281,141.675 223.614,142.675 224.5,143.5C 225.833,142.833 227.167,142.167 228.5,141.5C 229.167,142.833 229.833,144.167 230.5,145.5C 231.62,144.167 232.953,143.667 234.5,144C 235.565,146.406 236.898,148.573 238.5,150.5C 239.521,149.099 240.521,147.765 241.5,146.5C 241.932,147.71 242.599,148.71 243.5,149.5C 243.263,150.791 243.596,151.791 244.5,152.5C 251.198,159.665 259.198,165.165 268.5,169C 275.978,180.146 285.644,188.813 297.5,195C 301.416,198.41 304.749,202.243 307.5,206.5C 304.898,208.142 302.231,209.808 299.5,211.5C 299.977,212.478 300.643,213.311 301.5,214C 300.584,214.278 299.918,214.778 299.5,215.5C 293.767,215.647 288.1,216.314 282.5,217.5C 281.92,215.251 280.587,213.585 278.5,212.5C 268.819,204.151 259.486,195.484 250.5,186.5C 246.298,186.183 242.298,186.517 238.5,187.5C 230.784,188.681 223.118,190.181 215.5,192C 202.051,195.872 188.717,200.039 175.5,204.5C 173.883,205.038 172.216,205.371 170.5,205.5C 170.167,205.5 169.833,205.5 169.5,205.5C 161.812,204.717 154.145,203.717 146.5,202.5C 145.833,202.5 145.167,202.5 144.5,202.5C 142.833,202.5 141.167,202.5 139.5,202.5C 140.543,199.944 142.21,197.777 144.5,196C 148.833,193.667 153.167,191.333 157.5,189C 159.5,185.667 162.167,183 165.5,181C 173.828,176.838 181.828,172.171 189.5,167C 200.423,157.57 211.756,148.737 223.5,140.5 Z"/></g>
<g><path style="opacity:1" fill="#ca7234" d="M 97.5,139.5 C 98.0722,152.303 102.739,163.303 111.5,172.5C 102.971,172.986 96.4708,169.653 92,162.5C 90.6742,153.997 92.5075,146.33 97.5,139.5 Z"/></g>
<g><path style="opacity:1" fill="#cc6b31" d="M 272.5,126.5 C 272.44,133.699 273.606,140.699 276,147.5C 282.422,171.077 296.588,188.077 318.5,198.5C 316.909,200.633 314.909,202.299 312.5,203.5C 311.118,200.606 309.118,198.106 306.5,196C 299.672,191.085 292.672,186.419 285.5,182C 281.983,176.66 277.983,171.827 273.5,167.5C 272.166,161.496 270.832,155.496 269.5,149.5C 271.977,145.395 271.977,141.395 269.5,137.5C 270.225,133.769 271.225,130.102 272.5,126.5 Z"/></g>
<g><path style="opacity:1" fill="#e8bc80" d="M 243.5,149.5 C 242.599,148.71 241.932,147.71 241.5,146.5C 241.369,145.624 241.702,144.957 242.5,144.5C 243.452,146.045 243.785,147.712 243.5,149.5 Z"/></g>
<g><path style="opacity:1" fill="#b38e9f" d="M 429.5,147.5 C 439.554,146.129 448.887,147.962 457.5,153C 460.334,157.36 459.334,160.693 454.5,163C 440.492,167.177 426.992,166.011 414,159.5C 413.48,157.711 413.813,156.044 415,154.5C 419.582,151.482 424.416,149.149 429.5,147.5 Z"/></g>
<g><path style="opacity:1" fill="#f4b91c" d="M 380.5,150.5 C 381.822,150.33 382.989,150.663 384,151.5C 384.667,154.833 384.667,158.167 384,161.5C 379.113,164.528 373.946,166.862 368.5,168.5C 368.616,163.898 366.949,160.065 363.5,157C 366.486,157.128 369.486,157.128 372.5,157C 375.355,154.969 378.022,152.803 380.5,150.5 Z"/></g>
<g><path style="opacity:1" fill="#fac18f" d="M 220.5,133.5 C 221.043,133.56 221.376,133.893 221.5,134.5C 220.833,135.833 220.167,137.167 219.5,138.5C 220.995,138.478 222.662,138.811 224.5,139.5C 224.376,140.107 224.043,140.44 223.5,140.5C 211.756,148.737 200.423,157.57 189.5,167C 181.828,172.171 173.828,176.838 165.5,181C 162.167,183 159.5,185.667 157.5,189C 153.167,191.333 148.833,193.667 144.5,196C 142.21,197.777 140.543,199.944 139.5,202.5C 136.318,202.052 133.651,200.718 131.5,198.5C 142.465,191.524 153.131,184.191 163.5,176.5C 178.491,168.003 192.825,158.503 206.5,148C 212.043,143.958 216.709,139.125 220.5,133.5 Z"/></g>
<g><path style="opacity:1" fill="#b28c9c" d="M 69.5,163.5 C 73.1817,163.335 76.8484,163.501 80.5,164C 81.5742,164.739 82.2409,165.739 82.5,167C 78.2714,170.961 73.2714,172.295 67.5,171C 66.09,170.632 65.09,169.799 64.5,168.5C 65.8818,166.451 67.5484,164.785 69.5,163.5 Z"/></g>
<g><path style="opacity:1" fill="#b38d9d" d="M 457.5,164.5 C 461.257,164.071 464.757,164.737 468,166.5C 468.711,168.367 468.211,169.867 466.5,171C 463.833,171.667 461.167,171.667 458.5,171C 454.9,169.359 454.566,167.193 457.5,164.5 Z"/></g>
<g><path style="opacity:1" fill="#f5b91c" d="M 353.5,165.5 C 354.833,165.5 356.167,165.5 357.5,165.5C 357.751,168.909 357.417,172.242 356.5,175.5C 351.533,176.662 346.533,176.829 341.5,176C 338.702,174.547 335.702,173.547 332.5,173C 330.717,171.933 330.217,170.433 331,168.5C 335.741,168.236 340.575,168.069 345.5,168C 348.522,167.902 351.189,167.068 353.5,165.5 Z"/></g>
<g><path style="opacity:1" fill="#e5a170" d="M 462.5,178.5 C 460.285,179.268 457.952,179.935 455.5,180.5C 455.423,179.25 454.756,178.417 453.5,178C 449.413,177.238 445.413,177.404 441.5,178.5C 432.199,177.613 422.866,177.279 413.5,177.5C 413.167,177.5 412.833,177.5 412.5,177.5C 412.5,176.5 412.5,175.5 412.5,174.5C 425.467,173.39 438.467,173.223 451.5,174C 455.654,174.414 459.321,175.914 462.5,178.5 Z"/></g>
<g><path style="opacity:1" fill="#b38d9d" d="M 101.5,176.5 C 111.29,175.454 120.623,176.954 129.5,181C 123.019,185.049 116.019,187.716 108.5,189C 95.8395,189.933 83.1728,190.267 70.5,190C 67.3634,189.399 64.3634,188.399 61.5,187C 58.1931,182.321 59.5264,179.655 65.5,179C 77.6387,177.995 89.6387,177.161 101.5,176.5 Z"/></g>
<g><path style="opacity:1" fill="#9a5838" d="M 413.5,177.5 C 422.866,177.279 432.199,177.613 441.5,178.5C 445.715,180.436 450.381,181.103 455.5,180.5C 457.952,179.935 460.285,179.268 462.5,178.5C 465.842,182.84 467.509,187.84 467.5,193.5C 466.551,200.145 465.884,206.811 465.5,213.5C 453.44,214.341 441.44,215.674 429.5,217.5C 427.629,217.141 426.129,216.141 425,214.5C 423.454,211.408 421.954,208.408 420.5,205.5C 420.552,203.097 420.219,200.764 419.5,198.5C 419.167,197.833 418.833,197.167 418.5,196.5C 417.612,189.946 415.945,183.613 413.5,177.5 Z"/></g>
<g><path style="opacity:1" fill="#fcfaf6" d="M 455.5,180.5 C 450.381,181.103 445.715,180.436 441.5,178.5C 445.413,177.404 449.413,177.238 453.5,178C 454.756,178.417 455.423,179.25 455.5,180.5 Z"/></g>
<g><path style="opacity:1" fill="#fac18e" d="M 247.5,147.5 C 249.69,150.688 252.024,153.855 254.5,157C 260.539,161.02 266.872,164.52 273.5,167.5C 277.983,171.827 281.983,176.66 285.5,182C 292.672,186.419 299.672,191.085 306.5,196C 309.118,198.106 311.118,200.606 312.5,203.5C 310.999,204.752 309.332,205.752 307.5,206.5C 304.749,202.243 301.416,198.41 297.5,195C 285.644,188.813 275.978,180.146 268.5,169C 259.198,165.165 251.198,159.665 244.5,152.5C 244.953,150.435 245.953,148.768 247.5,147.5 Z"/></g>
<g><path style="opacity:1" fill="#dc8c5f" d="M 238.5,187.5 C 242.298,186.517 246.298,186.183 250.5,186.5C 250.5,186.833 250.5,187.167 250.5,187.5C 245.45,216.549 238.283,245.216 229,273.5C 226.821,278.521 224.654,283.521 222.5,288.5C 216.966,288.332 211.633,287.665 206.5,286.5C 218.126,260.236 228.959,233.569 239,206.5C 241.446,200.16 241.946,193.827 240.5,187.5C 239.833,187.5 239.167,187.5 238.5,187.5 Z"/></g>
<g><path style="opacity:1" fill="#faf4ee" d="M 238.5,187.5 C 239.167,187.5 239.833,187.5 240.5,187.5C 238.572,189.474 236.239,190.974 233.5,192C 218.588,197.375 203.255,201.042 187.5,203C 183.613,206.03 179.28,207.03 174.5,206C 175.056,205.617 175.389,205.117 175.5,204.5C 188.717,200.039 202.051,195.872 215.5,192C 223.118,190.181 230.784,188.681 238.5,187.5 Z"/></g>
<g><path style="opacity:1" fill="#f2eae5" d="M 127.5,192.5 C 120.965,193.222 114.298,194.055 107.5,195C 104.287,195.606 101.287,196.773 98.5,198.5C 97.8933,198.376 97.56,198.043 97.5,197.5C 105.58,192.861 114.247,190.361 123.5,190C 125.32,190.2 126.653,191.034 127.5,192.5 Z"/></g>
<g><path style="opacity:1" fill="#e1b495" d="M 240.5,187.5 C 241.946,193.827 241.446,200.16 239,206.5C 228.959,233.569 218.126,260.236 206.5,286.5C 184.171,283.832 162.505,278.832 141.5,271.5C 144.439,269.012 146.939,266.012 149,262.5C 159.413,244.765 166.58,225.765 170.5,205.5C 172.216,205.371 173.883,205.038 175.5,204.5C 175.389,205.117 175.056,205.617 174.5,206C 179.28,207.03 183.613,206.03 187.5,203C 203.255,201.042 218.588,197.375 233.5,192C 236.239,190.974 238.572,189.474 240.5,187.5 Z"/></g>
<g><path style="opacity:1" fill="#b35b29" d="M 250.5,187.5 C 255.462,194.575 260.796,201.408 266.5,208C 270.348,210.883 274.348,212.383 278.5,212.5C 280.587,213.585 281.92,215.251 282.5,217.5C 280.902,219.698 279.569,222.031 278.5,224.5C 275.716,226.454 273.383,228.954 271.5,232C 269.866,232.494 268.199,232.66 266.5,232.5C 266.643,230.738 266.309,229.071 265.5,227.5C 264.726,226.289 263.893,226.289 263,227.5C 262.774,231.552 263.274,235.552 264.5,239.5C 262.358,242.422 260.192,245.422 258,248.5C 257.301,254.059 255.968,259.392 254,264.5C 253.825,260.789 253.325,257.122 252.5,253.5C 247.815,265.869 241.315,277.202 233,287.5C 229.943,288.451 226.777,288.784 223.5,288.5C 223.167,288.5 222.833,288.5 222.5,288.5C 224.654,283.521 226.821,278.521 229,273.5C 238.283,245.216 245.45,216.549 250.5,187.5 Z"/></g>
<g><path style="opacity:1" fill="#a64f32" d="M 412.5,174.5 C 412.5,175.5 412.5,176.5 412.5,177.5C 397.022,181.286 382.022,186.453 367.5,193C 360.55,197.615 353.884,202.615 347.5,208C 333.442,216.021 319.775,224.521 306.5,233.5C 307.11,227.52 306.11,221.853 303.5,216.5C 302.311,215.571 300.978,215.238 299.5,215.5C 299.918,214.778 300.584,214.278 301.5,214C 300.643,213.311 299.977,212.478 299.5,211.5C 302.231,209.808 304.898,208.142 307.5,206.5C 309.332,205.752 310.999,204.752 312.5,203.5C 314.909,202.299 316.909,200.633 318.5,198.5C 322.578,197.298 326.578,195.798 330.5,194C 341.956,191.842 353.289,189.176 364.5,186C 367.391,184.726 370.058,183.226 372.5,181.5C 377.666,178.752 382.666,175.752 387.5,172.5C 392.4,173.8 397.4,173.8 402.5,172.5C 404.366,171.986 406.2,171.32 408,170.5C 410.007,171.344 411.507,172.677 412.5,174.5 Z"/></g>
<g><path style="opacity:1" fill="#f9f3ec" d="M 129.5,197.5 C 130.167,197.833 130.833,198.167 131.5,198.5C 133.651,200.718 136.318,202.052 139.5,202.5C 133.559,206.172 130.226,204.505 129.5,197.5 Z"/></g>
<g><path style="opacity:1" fill="#f7efe8" d="M 250.5,186.5 C 259.486,195.484 268.819,204.151 278.5,212.5C 274.348,212.383 270.348,210.883 266.5,208C 260.796,201.408 255.462,194.575 250.5,187.5C 250.5,187.167 250.5,186.833 250.5,186.5 Z"/></g>
<g><path style="opacity:1" fill="#e0b394" d="M 128.5,195.5 C 129.338,195.842 129.672,196.508 129.5,197.5C 130.226,204.505 133.559,206.172 139.5,202.5C 141.167,202.5 142.833,202.5 144.5,202.5C 142.337,212.133 140.17,221.799 138,231.5C 133.834,243.178 129.001,254.512 123.5,265.5C 106.72,258.947 91.053,250.614 76.5,240.5C 87.588,235.967 98.588,231.133 109.5,226C 118.777,217.602 125.11,207.435 128.5,195.5 Z"/></g>
<g><path style="opacity:1" fill="#f9f2ec" d="M 146.5,202.5 C 154.145,203.717 161.812,204.717 169.5,205.5C 168.71,206.794 167.71,207.961 166.5,209C 158.532,210.501 151.865,208.334 146.5,202.5 Z"/></g>
<g><path style="opacity:1" fill="#a74e32" d="M 420.5,205.5 C 421.954,208.408 423.454,211.408 425,214.5C 426.129,216.141 427.629,217.141 429.5,217.5C 434.02,219.67 438.02,222.67 441.5,226.5C 442.167,227.5 442.833,228.5 443.5,229.5C 438.993,233.168 434.327,236.668 429.5,240C 394.756,258.414 358.089,270.914 319.5,277.5C 314.491,269.161 310.824,260.161 308.5,250.5C 338.682,245.957 367.349,236.79 394.5,223C 403.048,216.945 411.715,211.112 420.5,205.5 Z"/></g>
<g><path style="opacity:1" fill="#67351e" d="M 484.5,210.5 C 479.742,220.267 473.408,228.934 465.5,236.5C 461.754,239.585 457.754,242.251 453.5,244.5C 449.919,239.672 446.585,234.672 443.5,229.5C 442.833,228.5 442.167,227.5 441.5,226.5C 441.414,225.504 441.748,224.671 442.5,224C 456.152,218.394 470.152,213.894 484.5,210.5 Z"/></g>
<g><path style="opacity:1" fill="#faf7f2" d="M 129.5,210.5 C 131.167,210.5 132.833,210.5 134.5,210.5C 134.763,213.734 133.263,215.068 130,214.5C 125.769,213.91 125.602,212.577 129.5,210.5 Z"/></g>
<g><path style="opacity:1" fill="#67351e" d="M 53.5,212.5 C 63.8437,213.587 73.8437,215.92 83.5,219.5C 77.0706,223.685 73.7373,229.685 73.5,237.5C 72.5,236.833 71.5,236.167 70.5,235.5C 63.6515,228.659 57.9848,220.993 53.5,212.5 Z"/></g>
<g><path style="opacity:1" fill="#faf6f0" d="M 187.5,211.5 C 190.187,211.336 192.854,211.503 195.5,212C 198.167,213 198.167,214 195.5,215C 192.183,215.498 188.85,215.665 185.5,215.5C 185.527,213.801 186.194,212.467 187.5,211.5 Z"/></g>
<g><path style="opacity:1" fill="#fbf6f2" d="M 212.5,212.5 C 216.819,211.799 220.486,212.966 223.5,216C 218.467,216.829 213.467,216.662 208.5,215.5C 209.901,214.479 211.235,213.479 212.5,212.5 Z"/></g>
<g><path style="opacity:1" fill="#e0a277" d="M 418.5,196.5 C 418.833,197.167 419.167,197.833 419.5,198.5C 414.511,202.33 409.511,206.163 404.5,210C 399.237,212.8 393.904,215.3 388.5,217.5C 386.238,222.26 382.571,225.427 377.5,227C 368.732,228.634 359.898,229.8 351,230.5C 346.795,232.512 343.295,235.345 340.5,239C 333.104,238.315 326.437,239.982 320.5,244C 317.515,244.868 314.515,245.201 311.5,245C 312.047,244.075 312.713,243.242 313.5,242.5C 317.661,240.95 321.661,239.116 325.5,237C 323.833,236.667 322.167,236.333 320.5,236C 319.167,235.333 319.167,234.667 320.5,234C 323.576,233.654 326.576,232.988 329.5,232C 333.54,227.958 337.873,224.291 342.5,221C 348.007,218.541 349.007,219.208 345.5,223C 349.193,222.662 352.859,221.829 356.5,220.5C 359.429,216.741 363.095,213.908 367.5,212C 365.5,211 363.5,210 361.5,209C 372.506,209.33 382.84,206.997 392.5,202C 392.833,201.667 393.167,201.333 393.5,201C 391,200.167 388.5,199.333 386,198.5C 381.979,201.594 377.479,203.76 372.5,205C 369.294,205.89 366.294,205.557 363.5,204C 369.091,201.803 374.758,199.803 380.5,198C 378.668,197.252 377.001,196.252 375.5,195C 379.833,194.667 384.167,194.333 388.5,194C 389.056,193.617 389.389,193.117 389.5,192.5C 389.842,191.662 390.508,191.328 391.5,191.5C 394.464,189.552 397.464,187.552 400.5,185.5C 401.408,186.79 401.241,188.123 400,189.5C 397.795,192.04 395.295,194.207 392.5,196C 398.735,196.367 404.402,194.7 409.5,191C 410.833,190.333 412.167,190.333 413.5,191C 409.618,195.214 404.952,198.214 399.5,200C 398.167,201.333 396.833,202.667 395.5,204C 396.333,204.167 397.167,204.333 398,204.5C 405.153,202.507 411.987,199.841 418.5,196.5 Z"/></g>
<g><path style="opacity:1" fill="#824332" d="M 299.5,215.5 C 300.978,215.238 302.311,215.571 303.5,216.5C 306.11,221.853 307.11,227.52 306.5,233.5C 306.5,235.5 306.5,237.5 306.5,239.5C 302.316,239.149 298.316,238.482 294.5,237.5C 298.088,236.202 301.421,234.536 304.5,232.5C 302.268,229.637 299.268,228.304 295.5,228.5C 289.493,229.336 284.493,232.003 280.5,236.5C 278.883,235.962 277.216,235.629 275.5,235.5C 275.872,231.628 276.872,227.961 278.5,224.5C 279.569,222.031 280.902,219.698 282.5,217.5C 288.1,216.314 293.767,215.647 299.5,215.5 Z"/></g>
<g><path style="opacity:1" fill="#c06a4e" d="M 127.5,192.5 C 128.404,193.209 128.737,194.209 128.5,195.5C 125.11,207.435 118.777,217.602 109.5,226C 98.588,231.133 87.588,235.967 76.5,240.5C 74.8102,240.144 73.8102,239.144 73.5,237.5C 73.7373,229.685 77.0706,223.685 83.5,219.5C 86.2111,215.086 88.7111,210.419 91,205.5C 93.0308,202.645 95.1975,199.978 97.5,197.5C 97.56,198.043 97.8933,198.376 98.5,198.5C 101.287,196.773 104.287,195.606 107.5,195C 114.298,194.055 120.965,193.222 127.5,192.5 Z"/></g>
<g><path style="opacity:1" fill="#fcfaf6" d="M 195.5,218.5 C 199.884,218.174 204.217,218.508 208.5,219.5C 207.975,220.192 207.308,220.692 206.5,221C 202.848,221.499 199.182,221.665 195.5,221.5C 195.5,220.5 195.5,219.5 195.5,218.5 Z"/></g>
<g><path style="opacity:1" fill="#fbf8f3" d="M 177.5,223.5 C 178.5,223.5 179.5,223.5 180.5,223.5C 180.426,227.541 179.093,228.208 176.5,225.5C 176.863,224.817 177.196,224.15 177.5,223.5 Z"/></g>
<g><path style="opacity:1" fill="#9e5125" d="M 278.5,224.5 C 276.872,227.961 275.872,231.628 275.5,235.5C 272.015,253.791 268.015,272.124 263.5,290.5C 249.964,290.802 236.631,290.135 223.5,288.5C 226.777,288.784 229.943,288.451 233,287.5C 241.315,277.202 247.815,265.869 252.5,253.5C 253.325,257.122 253.825,260.789 254,264.5C 255.968,259.392 257.301,254.059 258,248.5C 260.192,245.422 262.358,242.422 264.5,239.5C 263.274,235.552 262.774,231.552 263,227.5C 263.893,226.289 264.726,226.289 265.5,227.5C 266.309,229.071 266.643,230.738 266.5,232.5C 268.199,232.66 269.866,232.494 271.5,232C 273.383,228.954 275.716,226.454 278.5,224.5 Z"/></g>
<g><path style="opacity:1" fill="#e0b192" d="M 412.5,177.5 C 412.833,177.5 413.167,177.5 413.5,177.5C 415.945,183.613 417.612,189.946 418.5,196.5C 411.987,199.841 405.153,202.507 398,204.5C 397.167,204.333 396.333,204.167 395.5,204C 396.833,202.667 398.167,201.333 399.5,200C 404.952,198.214 409.618,195.214 413.5,191C 412.167,190.333 410.833,190.333 409.5,191C 404.402,194.7 398.735,196.367 392.5,196C 395.295,194.207 397.795,192.04 400,189.5C 401.241,188.123 401.408,186.79 400.5,185.5C 397.464,187.552 394.464,189.552 391.5,191.5C 391.804,190.85 392.137,190.183 392.5,189.5C 387.823,187.423 384.823,188.756 383.5,193.5C 385.565,193.483 387.565,193.15 389.5,192.5C 389.389,193.117 389.056,193.617 388.5,194C 384.167,194.333 379.833,194.667 375.5,195C 377.001,196.252 378.668,197.252 380.5,198C 374.758,199.803 369.091,201.803 363.5,204C 366.294,205.557 369.294,205.89 372.5,205C 377.479,203.76 381.979,201.594 386,198.5C 388.5,199.333 391,200.167 393.5,201C 393.167,201.333 392.833,201.667 392.5,202C 382.84,206.997 372.506,209.33 361.5,209C 363.5,210 365.5,211 367.5,212C 363.095,213.908 359.429,216.741 356.5,220.5C 352.859,221.829 349.193,222.662 345.5,223C 349.007,219.208 348.007,218.541 342.5,221C 337.873,224.291 333.54,227.958 329.5,232C 326.576,232.988 323.576,233.654 320.5,234C 319.167,234.667 319.167,235.333 320.5,236C 322.167,236.333 323.833,236.667 325.5,237C 321.661,239.116 317.661,240.95 313.5,242.5C 312.713,243.242 312.047,244.075 311.5,245C 314.515,245.201 317.515,244.868 320.5,244C 326.437,239.982 333.104,238.315 340.5,239C 343.295,235.345 346.795,232.512 351,230.5C 359.898,229.8 368.732,228.634 377.5,227C 382.571,225.427 386.238,222.26 388.5,217.5C 393.904,215.3 399.237,212.8 404.5,210C 409.511,206.163 414.511,202.33 419.5,198.5C 420.219,200.764 420.552,203.097 420.5,205.5C 411.715,211.112 403.048,216.945 394.5,223C 367.349,236.79 338.682,245.957 308.5,250.5C 307.325,246.958 306.659,243.291 306.5,239.5C 306.5,237.5 306.5,235.5 306.5,233.5C 319.775,224.521 333.442,216.021 347.5,208C 353.884,202.615 360.55,197.615 367.5,193C 382.022,186.453 397.022,181.286 412.5,177.5 Z"/></g>
<g><path style="opacity:1" fill="#e1b393" d="M 364.5,217.5 C 371.175,217.334 377.842,217.5 384.5,218C 383.5,219 382.5,220 381.5,221C 371.639,223.46 361.806,225.96 352,228.5C 351.517,227.552 351.351,226.552 351.5,225.5C 357.349,225.321 361.682,222.655 364.5,217.5 Z"/></g>
<g><path style="opacity:1" fill="#f9f4ef" d="M 340.5,214.5 C 342.288,214.215 343.955,214.548 345.5,215.5C 342.976,218.681 339.643,220.348 335.5,220.5C 335.749,217.256 337.416,215.256 340.5,214.5 Z"/></g>
<g><path style="opacity:1" fill="#e1b292" d="M 389.5,207.5 C 403.802,207.783 403.802,209.617 389.5,213C 383.144,213.574 376.811,213.907 370.5,214C 374.152,211.918 378.152,210.918 382.5,211C 385.069,210.102 387.402,208.935 389.5,207.5 Z"/></g>
<g><path style="opacity:1" fill="#fbf7f2" d="M 391.5,191.5 C 390.508,191.328 389.842,191.662 389.5,192.5C 387.565,193.15 385.565,193.483 383.5,193.5C 384.823,188.756 387.823,187.423 392.5,189.5C 392.137,190.183 391.804,190.85 391.5,191.5 Z"/></g>
<g><path style="opacity:1" fill="#fbf6f1" d="M 188.5,227.5 C 190.927,227.523 193.26,228.023 195.5,229C 196.337,230.011 196.67,231.178 196.5,232.5C 193.68,232.752 191.014,232.252 188.5,231C 187.316,229.855 187.316,228.688 188.5,227.5 Z"/></g>
<g><path style="opacity:1" fill="#fbf5f0" d="M 205.5,228.5 C 209.99,227.903 212.99,229.569 214.5,233.5C 211.091,233.751 207.758,233.417 204.5,232.5C 204.167,232 203.833,231.5 203.5,231C 204.056,229.989 204.722,229.156 205.5,228.5 Z"/></g>
<g><path style="opacity:1" fill="#b18a99" d="M 294.5,237.5 C 290.204,238.463 285.871,238.629 281.5,238C 280.944,237.617 280.611,237.117 280.5,236.5C 284.493,232.003 289.493,229.336 295.5,228.5C 299.268,228.304 302.268,229.637 304.5,232.5C 301.421,234.536 298.088,236.202 294.5,237.5 Z"/></g>
<g><path style="opacity:1" fill="#e1b292" d="M 340.5,226.5 C 343.187,226.336 345.854,226.503 348.5,227C 344.802,229.186 341.468,231.853 338.5,235C 335.23,236.321 331.897,236.987 328.5,237C 333.286,234.38 337.286,230.88 340.5,226.5 Z"/></g>
<g><path style="opacity:1" fill="#c88458" d="M 443.5,229.5 C 446.585,234.672 449.919,239.672 453.5,244.5C 450.246,247.471 446.58,249.971 442.5,252C 411.602,268.021 378.936,278.521 344.5,283.5C 337.159,283.666 329.826,283.5 322.5,283C 320.84,281.512 319.84,279.679 319.5,277.5C 358.089,270.914 394.756,258.414 429.5,240C 434.327,236.668 438.993,233.168 443.5,229.5 Z"/></g>
<g><path style="opacity:1" fill="#faf5f0" d="M 100.5,232.5 C 102.924,232.192 105.257,232.526 107.5,233.5C 103.392,236.057 99.0591,238.39 94.5,240.5C 93.4173,239.635 93.2506,238.635 94,237.5C 95.9651,235.45 98.1318,233.783 100.5,232.5 Z"/></g>
<g><path style="opacity:1" fill="#faf6f0" d="M 179.5,232.5 C 181.665,232.116 183.332,232.783 184.5,234.5C 182.255,236.623 179.588,237.623 176.5,237.5C 176.31,235.041 177.31,233.374 179.5,232.5 Z"/></g>
<g><path style="opacity:1" fill="#67341d" d="M 275.5,235.5 C 277.216,235.629 278.883,235.962 280.5,236.5C 280.611,237.117 280.944,237.617 281.5,238C 285.871,238.629 290.204,238.463 294.5,237.5C 298.316,238.482 302.316,239.149 306.5,239.5C 306.659,243.291 307.325,246.958 308.5,250.5C 310.824,260.161 314.491,269.161 319.5,277.5C 319.84,279.679 320.84,281.512 322.5,283C 329.826,283.5 337.159,283.666 344.5,283.5C 337.053,285.438 329.387,286.938 321.5,288C 302.217,289.993 282.884,290.827 263.5,290.5C 268.015,272.124 272.015,253.791 275.5,235.5 Z"/></g>
<g><path style="opacity:1" fill="#bf6a4d" d="M 144.5,202.5 C 145.167,202.5 145.833,202.5 146.5,202.5C 151.865,208.334 158.532,210.501 166.5,209C 167.71,207.961 168.71,206.794 169.5,205.5C 169.833,205.5 170.167,205.5 170.5,205.5C 166.58,225.765 159.413,244.765 149,262.5C 146.939,266.012 144.439,269.012 141.5,271.5C 135.285,270.095 129.285,268.095 123.5,265.5C 129.001,254.512 133.834,243.178 138,231.5C 140.17,221.799 142.337,212.133 144.5,202.5 Z"/></g>
<g><path style="opacity:1" fill="#fbf9f4" d="M 187.5,241.5 C 191.375,241.085 195.042,241.585 198.5,243C 194.382,245.231 190.049,245.731 185.5,244.5C 186.193,243.482 186.859,242.482 187.5,241.5 Z"/></g>
<g><path style="opacity:1" fill="#faf6f1" d="M 204.5,252.5 C 212.136,252.464 212.469,253.797 205.5,256.5C 202.1,255.73 201.767,254.397 204.5,252.5 Z"/></g>
<g><path style="opacity:1" fill="#faf8f3" d="M 174.5,253.5 C 177.157,253.162 179.49,253.829 181.5,255.5C 181.291,256.086 180.957,256.586 180.5,257C 177.621,257.874 174.955,257.54 172.5,256C 173.381,255.292 174.047,254.458 174.5,253.5 Z"/></g>
<g><path style="opacity:1" fill="#f9f3ed" d="M 167.5,269.5 C 171.349,269.019 173.349,270.686 173.5,274.5C 171.345,274.628 169.345,274.128 167.5,273C 166.316,271.855 166.316,270.688 167.5,269.5 Z"/></g>
<g><path style="opacity:1" fill="#193a3f" d="M 475.5,288.5 C 488.018,319.861 484.185,349.194 464,376.5C 441.95,402.617 414.783,421.45 382.5,433C 319.564,454.849 255.564,458.515 190.5,444C 155.947,436.386 124.614,422.053 96.5,401C 85.5781,391.747 76.0781,381.247 68,369.5C 54.6411,347.347 50.8078,323.681 56.5,298.5C 57.8202,300.463 59.1535,302.463 60.5,304.5C 80.8001,342.962 111.133,370.462 151.5,387C 210.761,408.988 271.427,413.654 333.5,401C 374.844,391.414 409.844,371.248 438.5,340.5C 453.163,324.835 465.496,307.502 475.5,288.5 Z"/></g>
<g><path style="opacity:1" fill="#bcbcbc" d="M 60.5,304.5 C 66.879,312.058 73.5456,319.558 80.5,327C 94.6191,335.059 109.286,342.059 124.5,348C 197.047,373.35 271.38,380.016 347.5,368C 378.642,361.465 408.975,352.299 438.5,340.5C 409.844,371.248 374.844,391.414 333.5,401C 271.427,413.654 210.761,408.988 151.5,387C 111.133,370.462 80.8001,342.962 60.5,304.5 Z"/></g>
</svg>
