<?xml version="1.0" encoding="UTF-8"?>
<!DOCTYPE svg PUBLIC "-//W3C//DTD SVG 1.1//EN" "http://www.w3.org/Graphics/SVG/1.1/DTD/svg11.dtd">
<svg xmlns="http://www.w3.org/2000/svg" version="1.1" width="644px" height="388px" style="shape-rendering:geometricPrecision; text-rendering:geometricPrecision; image-rendering:optimizeQuality; fill-rule:evenodd; clip-rule:evenodd" xmlns:xlink="http://www.w3.org/1999/xlink">
<g><path style="opacity:1" fill="#c0c132" d="M 359.5,29.5 C 360.043,29.56 360.376,29.8933 360.5,30.5C 358.121,38.7635 355.955,47.0968 354,55.5C 352.067,59.9166 349.567,63.9166 346.5,67.5C 341.134,73.1939 335.134,78.1939 328.5,82.5C 325.482,82.6646 322.482,82.498 319.5,82C 320.888,81.1107 320.722,80.6107 319,80.5C 304.854,85.9418 303.687,83.7752 315.5,74C 311.978,74.5082 308.812,76.0082 306,78.5C 305.833,78 305.667,77.5 305.5,77C 307.611,71.6345 309.778,66.4678 312,61.5C 307.632,65.533 303.632,69.8663 300,74.5C 299.667,73.5 299.333,72.5 299,71.5C 297.667,72.8333 296.333,74.1667 295,75.5C 294.178,73.2115 293.511,70.8782 293,68.5C 292.059,70.0614 290.892,71.3947 289.5,72.5C 287.407,68.6221 287.074,64.6221 288.5,60.5C 306.218,42.5227 327.885,33.3561 353.5,33C 355.388,31.6063 357.388,30.4396 359.5,29.5 Z"/></g>
<g><path style="opacity:0.987" fill="#234a4f" d="M 355.5,68.5 C 352.287,68.81 349.287,68.4767 346.5,67.5C 349.567,63.9166 352.067,59.9166 354,55.5C 355.955,47.0968 358.121,38.7635 360.5,30.5C 360.376,29.8933 360.043,29.56 359.5,29.5C 363.049,25.2353 365.383,25.902 366.5,31.5C 364.102,40.5276 361.602,49.5276 359,58.5C 357.627,61.4125 356.127,64.2458 354.5,67C 355.056,67.3826 355.389,67.8826 355.5,68.5 Z"/></g>
<g><path style="opacity:1" fill="#faf9ed" d="M 329.5,39.5 C 334.93,39.161 340.264,39.661 345.5,41C 344.672,41.9147 343.672,42.5814 342.5,43C 336.567,43.2356 330.734,44.0689 325,45.5C 323.833,45.1667 322.667,44.8333 321.5,44.5C 323.928,42.2946 326.595,40.6279 329.5,39.5 Z"/></g>
<g><path style="opacity:1" fill="#acac29" d="M 348.5,47.5 C 350.344,48.2039 350.844,49.5372 350,51.5C 346.378,61.4424 340.211,69.2757 331.5,75C 330.056,75.7805 328.723,75.6139 327.5,74.5C 335.703,66.4221 342.703,57.4221 348.5,47.5 Z"/></g>
<g><path style="opacity:1" fill="#faf9ee" d="M 297.5,55.5 C 299.167,55.5 300.833,55.5 302.5,55.5C 302.67,56.8221 302.337,57.9887 301.5,59C 299.559,60.9028 297.226,61.7361 294.5,61.5C 294.615,59.0532 295.615,57.0532 297.5,55.5 Z"/></g>
<g><path style="opacity:0.998" fill="#979d9d" d="M 280.5,68.5 C 280.5,69.1667 280.167,69.5 279.5,69.5C 269.48,69.9118 259.48,70.5785 249.5,71.5C 248.833,71.5 248.5,71.1667 248.5,70.5C 259.127,69.4192 269.793,68.7525 280.5,68.5 Z"/></g>
<g><path style="opacity:1" fill="#e1e1df" d="M 279.5,69.5 C 279.5,69.8333 279.5,70.1667 279.5,70.5C 273.685,77.3197 273.018,84.6531 277.5,92.5C 277.389,93.1174 277.056,93.6174 276.5,94C 271.352,95.1088 266.685,94.1088 262.5,91C 258.759,84.0951 254.426,77.5951 249.5,71.5C 259.48,70.5785 269.48,69.9118 279.5,69.5 Z"/></g>
<g><path style="opacity:1" fill="#e5e5e4" d="M 363.5,69.5 C 364.833,69.5 366.167,69.5 367.5,69.5C 405.924,73.7501 443.924,80.9168 481.5,91C 512.548,99.859 541.215,113.526 567.5,132C 582.236,143.063 592.736,157.23 599,174.5C 602.411,190.778 599.411,205.778 590,219.5C 578.622,234.212 564.788,246.046 548.5,255C 516.65,271.951 482.983,283.951 447.5,291C 347.933,310.795 249.266,307.129 151.5,280C 120.524,271.011 92.1904,257.011 66.5,238C 55.7862,229.287 47.2862,218.787 41,206.5C 35.0305,191.819 35.0305,177.153 41,162.5C 49.6902,146.808 61.5236,133.975 76.5,124C 112.632,102.062 151.632,87.3954 193.5,80C 208.062,77.0388 222.729,74.8721 237.5,73.5C 241.816,82.7997 247.149,91.4664 253.5,99.5C 250.275,100.237 246.941,100.903 243.5,101.5C 231.351,92.4326 217.684,89.2659 202.5,92C 197.118,92.6308 192.118,94.1308 187.5,96.5C 174.719,100.558 162.719,106.224 151.5,113.5C 145.331,109.832 138.664,107.666 131.5,107C 118.271,113.724 106.604,122.557 96.5,133.5C 107.391,135.903 118.391,137.07 129.5,137C 134.743,132.92 139.41,128.42 143.5,123.5C 145.379,122.659 147.379,122.325 149.5,122.5C 146.69,125.136 143.69,127.636 140.5,130C 145.218,128.152 150.218,126.986 155.5,126.5C 148.744,130.07 142.077,133.903 135.5,138C 128.678,142.657 122.678,148.157 117.5,154.5C 115.379,154.325 113.379,154.659 111.5,155.5C 113.74,150.702 116.74,146.369 120.5,142.5C 110.222,140.342 99.8885,138.842 89.5,138C 74.5396,146.418 67.8729,159.251 69.5,176.5C 81.1667,176.5 92.8333,176.5 104.5,176.5C 102.329,190.484 105.496,203.151 114,214.5C 121.56,223.577 130.393,230.91 140.5,236.5C 139.219,239.447 137.219,241.781 134.5,243.5C 127.239,237.036 120.406,230.036 114,222.5C 105.256,224.541 96.4226,226.208 87.5,227.5C 88.1264,230.315 89.4598,232.815 91.5,235C 100.296,241.789 109.63,247.789 119.5,253C 125.378,252.948 131.045,251.781 136.5,249.5C 146.319,250.494 156.319,250.827 166.5,250.5C 172.96,253.395 179.626,255.729 186.5,257.5C 190.442,264.108 195.442,269.775 201.5,274.5C 202.894,276.708 204.894,278.208 207.5,279C 218.241,279.452 228.574,277.452 238.5,273C 239.056,272.617 239.389,272.117 239.5,271.5C 240.167,271.5 240.833,271.5 241.5,271.5C 251.103,273.242 260.77,274.575 270.5,275.5C 271.833,275.833 273.167,276.167 274.5,276.5C 279.072,278.558 283.738,278.891 288.5,277.5C 288.833,277.5 289.167,277.5 289.5,277.5C 329.73,279.761 369.73,277.761 409.5,271.5C 409.833,271.5 410.167,271.5 410.5,271.5C 411.479,273.145 412.812,274.479 414.5,275.5C 416.854,273.812 418.854,271.812 420.5,269.5C 421.167,269.167 421.833,268.833 422.5,268.5C 433.599,266.346 444.599,263.679 455.5,260.5C 460.425,261.685 465.425,262.351 470.5,262.5C 472.631,263.314 474.964,263.814 477.5,264C 439.04,280.229 399.04,290.895 357.5,296C 336.247,298.564 314.914,300.231 293.5,301C 356.617,303.536 418.617,296.536 479.5,280C 509.701,271.731 537.368,258.398 562.5,240C 601.211,206.96 602.211,172.96 565.5,138C 543.897,120.86 519.897,107.86 493.5,99C 447.092,83.7086 399.425,74.8753 350.5,72.5C 350.953,71.5416 351.619,70.7083 352.5,70C 356.152,69.5014 359.818,69.3347 363.5,69.5 Z"/></g>
<g><path style="opacity:1" fill="#d3d77a" d="M 288.5,60.5 C 287.074,64.6221 287.407,68.6221 289.5,72.5C 290.892,71.3947 292.059,70.0614 293,68.5C 293.511,70.8782 294.178,73.2115 295,75.5C 296.333,74.1667 297.667,72.8333 299,71.5C 299.333,72.5 299.667,73.5 300,74.5C 303.632,69.8663 307.632,65.533 312,61.5C 309.778,66.4678 307.611,71.6345 305.5,77C 305.667,77.5 305.833,78 306,78.5C 308.812,76.0082 311.978,74.5082 315.5,74C 303.687,83.7752 304.854,85.9418 319,80.5C 320.722,80.6107 320.888,81.1107 319.5,82C 322.482,82.498 325.482,82.6646 328.5,82.5C 328.5,82.8333 328.5,83.1667 328.5,83.5C 326.19,84.325 324.19,85.6583 322.5,87.5C 319.605,88.3994 316.938,89.7328 314.5,91.5C 310.221,92.7771 305.888,93.7771 301.5,94.5C 294.353,93.1734 288.186,89.84 283,84.5C 280.294,80.215 279.127,75.5483 279.5,70.5C 279.5,70.1667 279.5,69.8333 279.5,69.5C 280.167,69.5 280.5,69.1667 280.5,68.5C 282.833,65.5 285.5,62.8333 288.5,60.5 Z"/></g>
<g><path style="opacity:1" fill="#9d9d98" d="M 346.5,67.5 C 349.287,68.4767 352.287,68.81 355.5,68.5C 358.385,68.1936 361.052,68.5269 363.5,69.5C 359.818,69.3347 356.152,69.5014 352.5,70C 351.619,70.7083 350.953,71.5416 350.5,72.5C 348.833,73.5 347.5,74.8333 346.5,76.5C 343.793,78.8432 341.126,81.1765 338.5,83.5C 337.833,83.5 337.167,83.5 336.5,83.5C 333.833,83.5 331.167,83.5 328.5,83.5C 328.5,83.1667 328.5,82.8333 328.5,82.5C 335.134,78.1939 341.134,73.1939 346.5,67.5 Z"/></g>
<g><path style="opacity:1" fill="#d3d87b" d="M 241.5,66.5 C 243.67,68.0862 246.004,69.4196 248.5,70.5C 248.5,71.1667 248.833,71.5 249.5,71.5C 254.426,77.5951 258.759,84.0951 262.5,91C 266.685,94.1088 271.352,95.1088 276.5,94C 277.056,93.6174 277.389,93.1174 277.5,92.5C 278.272,94.5295 277.606,96.3629 275.5,98C 262.591,99.2929 253.091,94.1263 247,82.5C 244.465,77.3938 242.631,72.0604 241.5,66.5 Z"/></g>
<g><path style="opacity:0.997" fill="#989a9a" d="M 367.5,69.5 C 423.661,72.2976 477.661,84.4643 529.5,106C 555.215,116.595 577.048,132.429 595,153.5C 612.134,180.778 609.967,206.444 588.5,230.5C 577.362,240.654 565.695,249.987 553.5,258.5C 501.968,282.894 447.301,297.727 389.5,303C 309.258,311.285 230.258,304.952 152.5,284C 130.578,277.473 109.578,268.806 89.5,258C 88.2506,257.26 87.2506,257.427 86.5,258.5C 78.7067,252.431 70.7067,246.598 62.5,241C 57.3308,236.663 52.3308,232.163 47.5,227.5C 23.0782,198.453 23.5782,169.786 49,141.5C 71.3897,120.873 97.2231,105.707 126.5,96C 162.255,83.7277 198.922,75.561 236.5,71.5C 237.338,71.8417 237.672,72.5084 237.5,73.5C 222.729,74.8721 208.062,77.0388 193.5,80C 151.632,87.3954 112.632,102.062 76.5,124C 61.5236,133.975 49.6902,146.808 41,162.5C 35.0305,177.153 35.0305,191.819 41,206.5C 47.2862,218.787 55.7862,229.287 66.5,238C 92.1904,257.011 120.524,271.011 151.5,280C 249.266,307.129 347.933,310.795 447.5,291C 482.983,283.951 516.65,271.951 548.5,255C 564.788,246.046 578.622,234.212 590,219.5C 599.411,205.778 602.411,190.778 599,174.5C 592.736,157.23 582.236,143.063 567.5,132C 541.215,113.526 512.548,99.859 481.5,91C 443.924,80.9168 405.924,73.7501 367.5,69.5 Z"/></g>
<g><path style="opacity:1" fill="#ac7e21" d="M 322.5,87.5 C 322.007,89.8056 321.674,92.139 321.5,94.5C 320.833,94.5 320.5,94.8333 320.5,95.5C 316.915,96.5828 313.249,97.2494 309.5,97.5C 309.833,96.8333 310.167,96.1667 310.5,95.5C 312.167,94.5 313.5,93.1667 314.5,91.5C 316.938,89.7328 319.605,88.3994 322.5,87.5 Z"/></g>
<g><path style="opacity:1" fill="#f2d02b" d="M 336.5,83.5 C 337.167,83.5 337.833,83.5 338.5,83.5C 347.098,85.0986 353.431,89.7653 357.5,97.5C 359.77,104.003 361.604,110.67 363,117.5C 363.626,123.195 363.459,128.862 362.5,134.5C 358.116,136.637 353.782,138.97 349.5,141.5C 348.167,140.5 346.833,139.5 345.5,138.5C 342.062,132.94 337.062,129.606 330.5,128.5C 322.278,119.038 318.945,108.038 320.5,95.5C 320.5,94.8333 320.833,94.5 321.5,94.5C 327.071,91.5542 332.071,87.8875 336.5,83.5 Z"/></g>
<g><path style="opacity:1" fill="#ad951e" d="M 328.5,83.5 C 331.167,83.5 333.833,83.5 336.5,83.5C 332.071,87.8875 327.071,91.5542 321.5,94.5C 321.674,92.139 322.007,89.8056 322.5,87.5C 324.19,85.6583 326.19,84.325 328.5,83.5 Z"/></g>
<g><path style="opacity:1" fill="#e5e5e4" d="M 346.5,76.5 C 397.312,81.4506 445.645,94.9506 491.5,117C 505.484,124.989 518.317,134.489 530,145.5C 553.06,170.785 554.393,197.118 534,224.5C 523.008,237.007 510.175,247.007 495.5,254.5C 495.5,251.167 495.5,247.833 495.5,244.5C 495.5,243.833 495.833,243.5 496.5,243.5C 514.222,235.06 528.055,222.393 538,205.5C 543.234,192.153 542.568,179.153 536,166.5C 525.65,151.819 512.483,140.319 496.5,132C 452.979,110.925 406.979,99.4252 358.5,97.5C 358.167,97.5 357.833,97.5 357.5,97.5C 353.431,89.7653 347.098,85.0986 338.5,83.5C 341.126,81.1765 343.793,78.8432 346.5,76.5 Z"/></g>
<g><path style="opacity:1" fill="#cccccc" d="M 350.5,72.5 C 399.425,74.8753 447.092,83.7086 493.5,99C 519.897,107.86 543.897,120.86 565.5,138C 602.211,172.96 601.211,206.96 562.5,240C 537.368,258.398 509.701,271.731 479.5,280C 418.617,296.536 356.617,303.536 293.5,301C 314.914,300.231 336.247,298.564 357.5,296C 399.04,290.895 439.04,280.229 477.5,264C 474.964,263.814 472.631,263.314 470.5,262.5C 478.781,263.171 486.781,262.005 494.5,259C 495.38,257.644 495.714,256.144 495.5,254.5C 510.175,247.007 523.008,237.007 534,224.5C 554.393,197.118 553.06,170.785 530,145.5C 518.317,134.489 505.484,124.989 491.5,117C 445.645,94.9506 397.312,81.4506 346.5,76.5C 347.5,74.8333 348.833,73.5 350.5,72.5 Z"/></g>
<g><path style="opacity:1" fill="#a4a39c" d="M 314.5,91.5 C 313.5,93.1667 312.167,94.5 310.5,95.5C 306.629,95.815 302.962,95.4816 299.5,94.5C 300.167,94.5 300.833,94.5 301.5,94.5C 305.888,93.7771 310.221,92.7771 314.5,91.5 Z"/></g>
<g><path style="opacity:1" fill="#fdfbf2" d="M 342.5,93.5 C 352.663,94.8276 356.663,100.494 354.5,110.5C 351.227,104.242 347.227,98.5756 342.5,93.5 Z"/></g>
<g><path style="opacity:1" fill="#96893e" d="M 299.5,94.5 C 302.962,95.4816 306.629,95.815 310.5,95.5C 310.167,96.1667 309.833,96.8333 309.5,97.5C 308.609,98.1098 307.609,98.4431 306.5,98.5C 298.144,98.7618 291.31,102.095 286,108.5C 285.517,109.448 285.351,110.448 285.5,111.5C 284.503,114.005 284.503,116.672 285.5,119.5C 278.514,112.375 278.847,105.542 286.5,99C 290.474,96.3979 294.807,94.8979 299.5,94.5 Z"/></g>
<g><path style="opacity:1" fill="#8bae26" d="M 243.5,101.5 C 244.579,103.543 246.246,104.876 248.5,105.5C 248.657,106.873 248.49,108.207 248,109.5C 246.954,107.91 245.787,106.41 244.5,105C 243.833,104.333 243.167,104.333 242.5,105C 244.377,107.231 245.21,109.731 245,112.5C 237.288,104.059 227.788,99.5591 216.5,99C 218.731,100.147 221.065,101.147 223.5,102C 215.191,101.546 206.858,101.546 198.5,102C 205.722,103.524 213.056,104.524 220.5,105C 208.845,104.64 197.179,104.64 185.5,105C 180.721,105.926 176.054,107.259 171.5,109C 188.833,109.333 206.167,109.667 223.5,110C 213.5,110.333 203.5,110.667 193.5,111C 184.65,111.894 176.65,114.894 169.5,120C 188.833,120.333 208.167,120.667 227.5,121C 220.368,123.477 213.034,125.143 205.5,126C 210.823,126.499 216.156,126.666 221.5,126.5C 220.167,127.167 218.833,127.833 217.5,128.5C 211.229,129.711 204.896,130.378 198.5,130.5C 195.455,130.492 192.455,130.159 189.5,129.5C 181.212,126.039 172.546,123.705 163.5,122.5C 158.833,122.5 154.167,122.5 149.5,122.5C 147.379,122.325 145.379,122.659 143.5,123.5C 140.667,124.28 138,125.114 135.5,126C 140.721,121.572 146.055,117.405 151.5,113.5C 162.719,106.224 174.719,100.558 187.5,96.5C 192.118,94.1308 197.118,92.6308 202.5,92C 217.684,89.2659 231.351,92.4326 243.5,101.5 Z"/></g>
<g><path style="opacity:1" fill="#f5f8ec" d="M 187.5,96.5 C 190.397,96.1253 193.063,96.6253 195.5,98C 190.986,101.116 185.986,102.949 180.5,103.5C 180.351,102.448 180.517,101.448 181,100.5C 183.314,99.2668 185.481,97.9334 187.5,96.5 Z"/></g>
<g><path style="opacity:1" fill="#f1af29" d="M 320.5,95.5 C 318.945,108.038 322.278,119.038 330.5,128.5C 326.818,128.335 323.152,128.501 319.5,129C 316.405,129.935 314.071,131.769 312.5,134.5C 310.864,135.749 309.697,137.416 309,139.5C 307.006,147.187 309.173,153.354 315.5,158C 317.491,158.374 319.158,159.207 320.5,160.5C 319.833,161.5 319.167,162.5 318.5,163.5C 317.833,163.5 317.167,163.5 316.5,163.5C 315.119,160.926 313.452,158.426 311.5,156C 308.316,154.496 305.149,152.996 302,151.5C 303.844,147.088 304.51,142.421 304,137.5C 302.757,134.424 300.923,131.757 298.5,129.5C 299.028,128.279 299.695,127.113 300.5,126C 298.19,125.503 295.857,125.337 293.5,125.5C 294.141,124.518 294.807,123.518 295.5,122.5C 292.008,121.865 288.675,120.865 285.5,119.5C 284.503,116.672 284.503,114.005 285.5,111.5C 290.505,108.998 295.505,106.498 300.5,104C 302.996,102.669 304.996,100.836 306.5,98.5C 307.609,98.4431 308.609,98.1098 309.5,97.5C 313.249,97.2494 316.915,96.5828 320.5,95.5 Z"/></g>
<g><path style="opacity:1" fill="#cebf56" d="M 306.5,98.5 C 304.996,100.836 302.996,102.669 300.5,104C 295.505,106.498 290.505,108.998 285.5,111.5C 285.351,110.448 285.517,109.448 286,108.5C 291.31,102.095 298.144,98.7618 306.5,98.5 Z"/></g>
<g><path style="opacity:1" fill="#c1c12f" d="M 241.5,66.5 C 242.631,72.0604 244.465,77.3938 247,82.5C 253.091,94.1263 262.591,99.2929 275.5,98C 277.606,96.3629 278.272,94.5295 277.5,92.5C 273.018,84.6531 273.685,77.3197 279.5,70.5C 279.127,75.5483 280.294,80.215 283,84.5C 288.186,89.84 294.353,93.1734 301.5,94.5C 300.833,94.5 300.167,94.5 299.5,94.5C 294.807,94.8979 290.474,96.3979 286.5,99C 278.847,105.542 278.514,112.375 285.5,119.5C 288.675,120.865 292.008,121.865 295.5,122.5C 294.807,123.518 294.141,124.518 293.5,125.5C 292.833,125.5 292.5,125.833 292.5,126.5C 288.816,127.728 285.15,127.728 281.5,126.5C 278.48,124.477 276.146,121.81 274.5,118.5C 272.73,113.076 269.73,112.242 265.5,116C 261.465,120.864 256.465,124.53 250.5,127C 242.743,129.918 234.743,131.751 226.5,132.5C 223.5,132.5 220.5,132.5 217.5,132.5C 211.804,132.553 206.138,132.22 200.5,131.5C 199.508,131.672 198.842,131.338 198.5,130.5C 204.896,130.378 211.229,129.711 217.5,128.5C 233.335,131.725 247.169,127.725 259,116.5C 259.688,115.668 259.521,115.002 258.5,114.5C 247.293,121.979 234.959,125.979 221.5,126.5C 216.156,126.666 210.823,126.499 205.5,126C 213.034,125.143 220.368,123.477 227.5,121C 208.167,120.667 188.833,120.333 169.5,120C 176.65,114.894 184.65,111.894 193.5,111C 203.5,110.667 213.5,110.333 223.5,110C 206.167,109.667 188.833,109.333 171.5,109C 176.054,107.259 180.721,105.926 185.5,105C 197.179,104.64 208.845,104.64 220.5,105C 213.056,104.524 205.722,103.524 198.5,102C 206.858,101.546 215.191,101.546 223.5,102C 221.065,101.147 218.731,100.147 216.5,99C 227.788,99.5591 237.288,104.059 245,112.5C 245.21,109.731 244.377,107.231 242.5,105C 243.167,104.333 243.833,104.333 244.5,105C 245.787,106.41 246.954,107.91 248,109.5C 248.49,108.207 248.657,106.873 248.5,105.5C 253.08,108.297 258.08,109.13 263.5,108C 264.167,107.333 264.833,106.667 265.5,106C 261.025,104.598 257.025,102.431 253.5,99.5C 247.149,91.4664 241.816,82.7997 237.5,73.5C 237.672,72.5084 237.338,71.8417 236.5,71.5C 233.427,65.9335 235.094,64.2669 241.5,66.5 Z"/></g>
<g><path style="opacity:1" fill="#c8bb55" d="M 253.5,99.5 C 257.025,102.431 261.025,104.598 265.5,106C 264.833,106.667 264.167,107.333 263.5,108C 258.08,109.13 253.08,108.297 248.5,105.5C 246.246,104.876 244.579,103.543 243.5,101.5C 246.941,100.903 250.275,100.237 253.5,99.5 Z"/></g>
<g><path style="opacity:1" fill="#fdfdfd" d="M 128.5,101.5 C 129.552,101.351 130.552,101.517 131.5,102C 109.102,111.092 88.7689,123.426 70.5,139C 38.658,170.583 38.658,202.25 70.5,234C 83.1918,244.684 97.1918,253.351 112.5,260C 89.5382,253.591 70.0382,241.425 54,223.5C 31.8392,191.999 35.3392,163.499 64.5,138C 83.8768,122.476 105.21,110.309 128.5,101.5 Z"/></g>
<g><path style="opacity:1" fill="#fefefd" d="M 151.5,113.5 C 146.055,117.405 140.721,121.572 135.5,126C 138,125.114 140.667,124.28 143.5,123.5C 139.41,128.42 134.743,132.92 129.5,137C 118.391,137.07 107.391,135.903 96.5,133.5C 106.604,122.557 118.271,113.724 131.5,107C 138.664,107.666 145.331,109.832 151.5,113.5 Z"/></g>
<g><path style="opacity:1" fill="#f3b129" d="M 323.5,97.5 C 327.877,105.26 331.21,113.593 333.5,122.5C 333.167,123.167 332.833,123.833 332.5,124.5C 326.701,118.2 323.367,110.7 322.5,102C 322.605,100.408 322.939,98.9085 323.5,97.5 Z"/></g>
<g><path style="opacity:1" fill="#e6a015" d="M 312.5,101.5 C 314.278,107.802 315.612,114.469 316.5,121.5C 316.167,123.833 315.167,124.167 313.5,122.5C 312.319,124.135 312.319,125.802 313.5,127.5C 310.844,128.515 308.177,129.515 305.5,130.5C 304.637,128.229 304.637,125.895 305.5,123.5C 304.167,123.5 302.833,123.5 301.5,123.5C 301.421,122.07 301.754,120.736 302.5,119.5C 300.229,118.637 297.895,118.637 295.5,119.5C 295.297,117.61 295.963,116.11 297.5,115C 294.902,115.422 292.236,115.422 289.5,115C 294.218,109.317 300.218,106.984 307.5,108C 305.114,110.793 305.781,111.626 309.5,110.5C 310.185,107.353 311.185,104.353 312.5,101.5 Z"/></g>
<g><path style="opacity:1" fill="#99b548" d="M 384.5,112.5 C 383.127,128.249 389.793,139.083 404.5,145C 410.204,145.687 415.87,145.521 421.5,144.5C 420.5,145.833 419.5,147.167 418.5,148.5C 412.484,151.253 406.15,152.587 399.5,152.5C 395.681,152.586 392.015,151.919 388.5,150.5C 384.038,146.695 380.705,142.028 378.5,136.5C 377.5,133.833 376.5,131.167 375.5,128.5C 375.146,121.207 378.146,115.874 384.5,112.5 Z"/></g>
<g><path style="opacity:1" fill="#f0dd9e" d="M 510.5,155.5 C 511.324,158.764 511.658,162.098 511.5,165.5C 511.167,166.167 510.833,166.833 510.5,167.5C 508.861,169.806 506.861,171.806 504.5,173.5C 504.106,163.546 500.106,155.38 492.5,149C 470.39,129.239 444.39,120.072 414.5,121.5C 418.382,117.723 423.049,115.223 428.5,114C 462.268,115.383 489.601,129.217 510.5,155.5 Z"/></g>
<g><path style="opacity:1" fill="#acac29" d="M 217.5,128.5 C 218.833,127.833 220.167,127.167 221.5,126.5C 234.959,125.979 247.293,121.979 258.5,114.5C 259.521,115.002 259.688,115.668 259,116.5C 247.169,127.725 233.335,131.725 217.5,128.5 Z"/></g>
<g><path style="opacity:1" fill="#f0dd9f" d="M 274.5,118.5 C 276.146,121.81 278.48,124.477 281.5,126.5C 285.67,131.811 290.67,132.811 296.5,129.5C 297.167,129.5 297.833,129.5 298.5,129.5C 300.923,131.757 302.757,134.424 304,137.5C 304.51,142.421 303.844,147.088 302,151.5C 305.149,152.996 308.316,154.496 311.5,156C 313.452,158.426 315.119,160.926 316.5,163.5C 317.092,166.127 317.425,168.794 317.5,171.5C 317.132,174.533 317.798,177.2 319.5,179.5C 317.088,179.694 316.088,181.027 316.5,183.5C 315.778,183.082 315.278,182.416 315,181.5C 313.89,183.037 312.39,183.703 310.5,183.5C 304.032,181.915 297.699,182.248 291.5,184.5C 295.186,161.044 285.853,145.211 263.5,137C 259.192,135.673 254.859,134.507 250.5,133.5C 258.276,130.769 264.942,126.269 270.5,120C 271.745,119.209 273.078,118.709 274.5,118.5 Z"/></g>
<g><path style="opacity:1" fill="#a4a3a3" d="M 149.5,122.5 C 154.167,122.5 158.833,122.5 163.5,122.5C 161.5,123.833 159.5,125.167 157.5,126.5C 156.833,126.5 156.167,126.5 155.5,126.5C 150.218,126.986 145.218,128.152 140.5,130C 143.69,127.636 146.69,125.136 149.5,122.5 Z"/></g>
<g><path style="opacity:1" fill="#948a3f" d="M 357.5,97.5 C 357.833,97.5 358.167,97.5 358.5,97.5C 364.86,108.63 367.527,120.63 366.5,133.5C 365.292,134.234 363.959,134.567 362.5,134.5C 363.459,128.862 363.626,123.195 363,117.5C 361.604,110.67 359.77,104.003 357.5,97.5 Z"/></g>
<g><path style="opacity:1" fill="#d4b625" d="M 414.5,122.5 C 414.5,122.167 414.5,121.833 414.5,121.5C 444.39,120.072 470.39,129.239 492.5,149C 500.106,155.38 504.106,163.546 504.5,173.5C 502.183,177.146 499.516,180.48 496.5,183.5C 493.733,183.87 491.733,185.204 490.5,187.5C 490.167,187.5 489.833,187.5 489.5,187.5C 488.878,185.665 487.544,184.498 485.5,184C 480.511,183.501 475.511,183.334 470.5,183.5C 479.533,176.976 487.867,169.476 495.5,161C 493.323,159.798 490.989,159.298 488.5,159.5C 489.66,158.735 490.66,157.735 491.5,156.5C 483.226,154.51 474.892,152.843 466.5,151.5C 466.586,150.504 466.252,149.671 465.5,149C 458.281,144.816 450.614,143.649 442.5,145.5C 446.627,147.938 450.96,149.605 455.5,150.5C 445.431,150.282 435.431,150.948 425.5,152.5C 425.5,151.5 425.5,150.5 425.5,149.5C 426.569,146.592 426.736,143.592 426,140.5C 422.698,134.058 418.865,128.058 414.5,122.5 Z"/></g>
<g><path style="opacity:1" fill="#938a3e" d="M 163.5,122.5 C 172.546,123.705 181.212,126.039 189.5,129.5C 187.901,129.232 186.568,129.566 185.5,130.5C 184.167,130.5 182.833,130.5 181.5,130.5C 173.858,127.786 165.858,126.453 157.5,126.5C 159.5,125.167 161.5,123.833 163.5,122.5 Z"/></g>
<g><path style="opacity:1" fill="#a99c6c" d="M 274.5,118.5 C 273.078,118.709 271.745,119.209 270.5,120C 264.942,126.269 258.276,130.769 250.5,133.5C 248.833,133.5 247.167,133.5 245.5,133.5C 238.978,133.823 232.645,133.49 226.5,132.5C 234.743,131.751 242.743,129.918 250.5,127C 256.465,124.53 261.465,120.864 265.5,116C 269.73,112.242 272.73,113.076 274.5,118.5 Z"/></g>
<g><path style="opacity:1" fill="#f3b228" d="M 338.5,124.5 C 343.052,126.713 347.052,129.713 350.5,133.5C 343.312,134.895 339.312,131.895 338.5,124.5 Z"/></g>
<g><path style="opacity:1" fill="#b28121" d="M 292.5,126.5 C 292.5,125.833 292.833,125.5 293.5,125.5C 295.857,125.337 298.19,125.503 300.5,126C 299.695,127.113 299.028,128.279 298.5,129.5C 297.833,129.5 297.167,129.5 296.5,129.5C 295.564,128.026 294.23,127.026 292.5,126.5 Z"/></g>
<g><path style="opacity:1" fill="#cdbf57" d="M 155.5,126.5 C 156.167,126.5 156.833,126.5 157.5,126.5C 165.858,126.453 173.858,127.786 181.5,130.5C 176.154,130.919 171.154,132.252 166.5,134.5C 167.716,141.23 170.549,147.23 175,152.5C 177.066,155.961 178.566,159.627 179.5,163.5C 177.716,163.107 176.05,162.441 174.5,161.5C 166.453,156.989 157.787,154.989 148.5,155.5C 140.876,154.602 133.209,154.269 125.5,154.5C 123.5,154.5 121.5,154.5 119.5,154.5C 118.833,154.5 118.167,154.5 117.5,154.5C 122.678,148.157 128.678,142.657 135.5,138C 142.077,133.903 148.744,130.07 155.5,126.5 Z"/></g>
<g><path style="opacity:1" fill="#ac9e70" d="M 281.5,126.5 C 285.15,127.728 288.816,127.728 292.5,126.5C 294.23,127.026 295.564,128.026 296.5,129.5C 290.67,132.811 285.67,131.811 281.5,126.5 Z"/></g>
<g><path style="opacity:1" fill="#f0dd9d" d="M 375.5,128.5 C 376.5,131.167 377.5,133.833 378.5,136.5C 376.25,137.13 374.25,138.13 372.5,139.5C 365.167,142.5 357.833,145.5 350.5,148.5C 350.326,146.139 349.993,143.806 349.5,141.5C 353.782,138.97 358.116,136.637 362.5,134.5C 363.959,134.567 365.292,134.234 366.5,133.5C 369.366,131.568 372.366,129.901 375.5,128.5 Z"/></g>
<g><path style="opacity:1" fill="#ad921e" d="M 185.5,130.5 C 186.568,129.566 187.901,129.232 189.5,129.5C 192.455,130.159 195.455,130.492 198.5,130.5C 198.842,131.338 199.508,131.672 200.5,131.5C 200.557,132.609 200.89,133.609 201.5,134.5C 199.435,134.483 197.435,134.15 195.5,133.5C 192.162,132.499 188.829,131.499 185.5,130.5 Z"/></g>
<g><path style="opacity:1" fill="#f1cf29" d="M 181.5,130.5 C 182.833,130.5 184.167,130.5 185.5,130.5C 188.829,131.499 192.162,132.499 195.5,133.5C 189.673,136.744 183.34,138.744 176.5,139.5C 173.446,137.306 170.112,135.639 166.5,134.5C 171.154,132.252 176.154,130.919 181.5,130.5 Z"/></g>
<g><path style="opacity:1" fill="#9c7435" d="M 217.5,132.5 C 220.5,132.5 223.5,132.5 226.5,132.5C 232.645,133.49 238.978,133.823 245.5,133.5C 243.337,134.469 241.004,135.302 238.5,136C 229.528,137.04 220.528,137.54 211.5,137.5C 213.5,135.833 215.5,134.167 217.5,132.5 Z"/></g>
<g><path style="opacity:1" fill="#fcfbf5" d="M 283.5,133.5 C 287.62,133.091 290.954,134.424 293.5,137.5C 292.307,139.384 290.641,139.884 288.5,139C 285.293,138.428 283.626,136.595 283.5,133.5 Z"/></g>
<g><path style="opacity:1" fill="#d49c45" d="M 245.5,133.5 C 247.167,133.5 248.833,133.5 250.5,133.5C 254.859,134.507 259.192,135.673 263.5,137C 285.853,145.211 295.186,161.044 291.5,184.5C 290.726,185.147 289.726,185.48 288.5,185.5C 274.83,183.955 261.163,181.955 247.5,179.5C 241.116,173.31 233.449,169.81 224.5,169C 213.937,168.323 203.604,169.489 193.5,172.5C 189.46,170.15 185.46,167.816 181.5,165.5C 184.478,164.522 186.478,162.522 187.5,159.5C 193.907,157.195 199.74,153.862 205,149.5C 206.009,147.975 206.509,146.308 206.5,144.5C 207.921,141.991 209.588,139.657 211.5,137.5C 220.528,137.54 229.528,137.04 238.5,136C 241.004,135.302 243.337,134.469 245.5,133.5 Z"/></g>
<g><path style="opacity:1" fill="#99b446" d="M 312.5,134.5 C 312.733,144.792 317.733,151.626 327.5,155C 331.751,156.195 336.085,156.695 340.5,156.5C 336.526,161.81 331.192,163.81 324.5,162.5C 323.486,161.326 322.153,160.66 320.5,160.5C 319.158,159.207 317.491,158.374 315.5,158C 309.173,153.354 307.006,147.187 309,139.5C 309.697,137.416 310.864,135.749 312.5,134.5 Z"/></g>
<g><path style="opacity:1" fill="#fefefe" d="M 111.5,155.5 C 108.314,155.613 105.647,156.78 103.5,159C 103.639,160.301 104.305,161.134 105.5,161.5C 106.925,162.922 107.925,164.589 108.5,166.5C 106.616,169.603 105.282,172.937 104.5,176.5C 92.8333,176.5 81.1667,176.5 69.5,176.5C 67.8729,159.251 74.5396,146.418 89.5,138C 99.8885,138.842 110.222,140.342 120.5,142.5C 116.74,146.369 113.74,150.702 111.5,155.5 Z"/></g>
<g><path style="opacity:1" fill="#f2912a" d="M 166.5,134.5 C 170.112,135.639 173.446,137.306 176.5,139.5C 182.243,144.983 185.91,151.65 187.5,159.5C 186.478,162.522 184.478,164.522 181.5,165.5C 180.5,165.167 179.833,164.5 179.5,163.5C 178.566,159.627 177.066,155.961 175,152.5C 170.549,147.23 167.716,141.23 166.5,134.5 Z"/></g>
<g><path style="opacity:1" fill="#9b8620" d="M 414.5,122.5 C 418.865,128.058 422.698,134.058 426,140.5C 426.736,143.592 426.569,146.592 425.5,149.5C 423.283,148.631 420.95,148.298 418.5,148.5C 419.5,147.167 420.5,145.833 421.5,144.5C 422.555,141.927 422.722,139.261 422,136.5C 419.725,132.268 417.225,128.268 414.5,124.5C 414.5,124.167 414.5,123.833 414.5,123.5C 414.5,123.167 414.5,122.833 414.5,122.5 Z"/></g>
<g><path style="opacity:1" fill="#a49744" d="M 200.5,131.5 C 206.138,132.22 211.804,132.553 217.5,132.5C 215.5,134.167 213.5,135.833 211.5,137.5C 209.588,139.657 207.921,141.991 206.5,144.5C 204.306,141.446 202.639,138.112 201.5,134.5C 200.89,133.609 200.557,132.609 200.5,131.5 Z"/></g>
<g><path style="opacity:1" fill="#efd067" d="M 378.5,136.5 C 380.705,142.028 384.038,146.695 388.5,150.5C 390.36,151.939 392.027,153.605 393.5,155.5C 391.299,156.566 388.965,157.233 386.5,157.5C 383.855,152.218 380.688,147.218 377,142.5C 375.871,140.859 374.371,139.859 372.5,139.5C 374.25,138.13 376.25,137.13 378.5,136.5 Z"/></g>
<g><path style="opacity:1" fill="#ae9b66" d="M 345.5,138.5 C 346.833,139.5 348.167,140.5 349.5,141.5C 349.993,143.806 350.326,146.139 350.5,148.5C 350.5,149.167 350.167,149.5 349.5,149.5C 347.95,150.441 346.284,151.107 344.5,151.5C 346.545,147.284 346.878,142.951 345.5,138.5 Z"/></g>
<g><path style="opacity:1" fill="#d2d87b" d="M 414.5,121.5 C 414.5,121.833 414.5,122.167 414.5,122.5C 414.5,122.833 414.5,123.167 414.5,123.5C 412.703,122.27 410.703,121.604 408.5,121.5C 408.427,125.72 410.427,128.054 414.5,128.5C 414.5,127.167 414.5,125.833 414.5,124.5C 417.225,128.268 419.725,132.268 422,136.5C 422.722,139.261 422.555,141.927 421.5,144.5C 415.87,145.521 410.204,145.687 404.5,145C 389.793,139.083 383.127,128.249 384.5,112.5C 396.036,107.06 405.37,109.894 412.5,121C 413.094,121.464 413.761,121.631 414.5,121.5 Z"/></g>
<g><path style="opacity:1" fill="#9ab64a" d="M 389.5,121.5 C 392.535,125.724 395.869,129.891 399.5,134C 404.198,136.845 409.198,139.011 414.5,140.5C 399.31,143.08 390.977,136.747 389.5,121.5 Z"/></g>
<g><path style="opacity:1" fill="#f3af29" d="M 195.5,133.5 C 197.435,134.15 199.435,134.483 201.5,134.5C 202.639,138.112 204.306,141.446 206.5,144.5C 206.509,146.308 206.009,147.975 205,149.5C 199.74,153.862 193.907,157.195 187.5,159.5C 185.91,151.65 182.243,144.983 176.5,139.5C 183.34,138.744 189.673,136.744 195.5,133.5 Z"/></g>
<g><path style="opacity:1" fill="#b59910" d="M 466.5,151.5 C 462.802,151.448 459.135,151.114 455.5,150.5C 450.96,149.605 446.627,147.938 442.5,145.5C 450.614,143.649 458.281,144.816 465.5,149C 466.252,149.671 466.586,150.504 466.5,151.5 Z"/></g>
<g><path style="opacity:1" fill="#fcacad" d="M 418.5,148.5 C 420.95,148.298 423.283,148.631 425.5,149.5C 425.5,150.5 425.5,151.5 425.5,152.5C 421.528,159.806 415.861,165.472 408.5,169.5C 409.075,160.75 405.075,156.084 396.5,155.5C 397.306,154.272 398.306,153.272 399.5,152.5C 406.15,152.587 412.484,151.253 418.5,148.5 Z"/></g>
<g><path style="opacity:1" fill="#ac7d1f" d="M 349.5,149.5 C 346.479,165.499 337.479,170.166 322.5,163.5C 322.842,162.662 323.508,162.328 324.5,162.5C 331.192,163.81 336.526,161.81 340.5,156.5C 342.074,155.016 343.407,153.349 344.5,151.5C 346.284,151.107 347.95,150.441 349.5,149.5 Z"/></g>
<g><path style="opacity:1" fill="#c2c12f" d="M 455.5,150.5 C 459.135,151.114 462.802,151.448 466.5,151.5C 474.892,152.843 483.226,154.51 491.5,156.5C 490.66,157.735 489.66,158.735 488.5,159.5C 479.441,168.225 469.774,176.225 459.5,183.5C 454.802,185.899 449.802,187.399 444.5,188C 430.833,188.667 417.167,188.667 403.5,188C 400.443,187.744 397.443,187.244 394.5,186.5C 393.817,186.863 393.15,187.196 392.5,187.5C 392.167,187.5 391.833,187.5 391.5,187.5C 390.1,186.9 389.1,185.9 388.5,184.5C 392.382,182.066 396.048,179.399 399.5,176.5C 402.81,174.518 405.81,172.185 408.5,169.5C 415.861,165.472 421.528,159.806 425.5,152.5C 435.431,150.948 445.431,150.282 455.5,150.5 Z"/></g>
<g><path style="opacity:1" fill="#d2d77b" d="M 330.5,128.5 C 337.062,129.606 342.062,132.94 345.5,138.5C 346.878,142.951 346.545,147.284 344.5,151.5C 343.407,153.349 342.074,155.016 340.5,156.5C 336.085,156.695 331.751,156.195 327.5,155C 317.733,151.626 312.733,144.792 312.5,134.5C 314.071,131.769 316.405,129.935 319.5,129C 323.152,128.501 326.818,128.335 330.5,128.5 Z"/></g>
<g><path style="opacity:1" fill="#9bb74b" d="M 318.5,136.5 C 319.203,138.716 320.536,140.549 322.5,142C 328.234,145.196 333.9,148.363 339.5,151.5C 329.456,153.061 321.956,149.395 317,140.5C 316.156,138.537 316.656,137.204 318.5,136.5 Z"/></g>
<g><path style="opacity:1" fill="#9ab649" d="M 324.5,138.5 C 329.494,137.813 332.494,139.813 333.5,144.5C 328.891,144.888 325.891,142.888 324.5,138.5 Z"/></g>
<g><path style="opacity:1" fill="#fdfdf9" d="M 335.5,134.5 C 339.241,133.599 341.241,134.932 341.5,138.5C 337.759,139.401 335.759,138.068 335.5,134.5 Z"/></g>
<g><path style="opacity:1" fill="#fbfbf4" d="M 318.5,136.5 C 317.418,134.021 318.418,132.521 321.5,132C 324.167,131.333 326.833,131.333 329.5,132C 329.957,132.414 330.291,132.914 330.5,133.5C 326.856,135.744 322.856,136.744 318.5,136.5 Z"/></g>
<g><path style="opacity:1" fill="#a7934a" d="M 388.5,150.5 C 392.015,151.919 395.681,152.586 399.5,152.5C 398.306,153.272 397.306,154.272 396.5,155.5C 395.5,155.5 394.5,155.5 393.5,155.5C 392.027,153.605 390.36,151.939 388.5,150.5 Z"/></g>
<g><path style="opacity:1" fill="#f3af2a" d="M 372.5,139.5 C 374.371,139.859 375.871,140.859 377,142.5C 380.688,147.218 383.855,152.218 386.5,157.5C 372.755,158.848 359.422,162.014 346.5,167C 341.97,173.681 337.304,180.181 332.5,186.5C 327.752,181.094 323.419,175.427 319.5,169.5C 319.5,168.5 319.5,167.5 319.5,166.5C 320.167,165.167 321.167,164.167 322.5,163.5C 337.479,170.166 346.479,165.499 349.5,149.5C 350.167,149.5 350.5,149.167 350.5,148.5C 357.833,145.5 365.167,142.5 372.5,139.5 Z"/></g>
<g><path style="opacity:1" fill="#f9f8e9" d="M 455.5,153.5 C 457.857,153.337 460.19,153.503 462.5,154C 465.167,155.333 465.167,156.667 462.5,158C 459.317,159.031 456.651,158.365 454.5,156C 454.743,155.098 455.077,154.265 455.5,153.5 Z"/></g>
<g><path style="opacity:1" fill="#fcadae" d="M 117.5,154.5 C 118.167,154.5 118.833,154.5 119.5,154.5C 116.865,158.091 118.032,159.758 123,159.5C 127.626,159.425 128.46,157.758 125.5,154.5C 133.209,154.269 140.876,154.602 148.5,155.5C 143.199,158.269 137.532,160.269 131.5,161.5C 122.585,161.424 113.919,161.424 105.5,161.5C 104.305,161.134 103.639,160.301 103.5,159C 105.647,156.78 108.314,155.613 111.5,155.5C 113.379,154.659 115.379,154.325 117.5,154.5 Z"/></g>
<g><path style="opacity:1" fill="#fdf4f4" d="M 119.5,154.5 C 121.5,154.5 123.5,154.5 125.5,154.5C 128.46,157.758 127.626,159.425 123,159.5C 118.032,159.758 116.865,158.091 119.5,154.5 Z"/></g>
<g><path style="opacity:1" fill="#faf9ef" d="M 427.5,155.5 C 429.924,155.192 432.257,155.526 434.5,156.5C 431.532,160.437 427.865,161.603 423.5,160C 425.041,158.629 426.375,157.129 427.5,155.5 Z"/></g>
<g><path style="opacity:1" fill="#98821a" d="M 488.5,159.5 C 490.989,159.298 493.323,159.798 495.5,161C 487.867,169.476 479.533,176.976 470.5,183.5C 469.833,183.833 469.167,184.167 468.5,184.5C 465.287,184.81 462.287,184.477 459.5,183.5C 469.774,176.225 479.441,168.225 488.5,159.5 Z"/></g>
<g><path style="opacity:1" fill="#9b8d46" d="M 510.5,155.5 C 512.584,157.576 514.251,159.91 515.5,162.5C 514.564,163.974 513.23,164.974 511.5,165.5C 511.658,162.098 511.324,158.764 510.5,155.5 Z"/></g>
<g><path style="opacity:1" fill="#f35e61" d="M 393.5,155.5 C 394.5,155.5 395.5,155.5 396.5,155.5C 405.075,156.084 409.075,160.75 408.5,169.5C 405.81,172.185 402.81,174.518 399.5,176.5C 399.238,165.579 393.572,160.579 382.5,161.5C 369.361,162.319 358.861,167.986 351,178.5C 347.348,184.644 344.181,190.978 341.5,197.5C 340.833,197.5 340.167,197.5 339.5,197.5C 336.236,198.324 332.902,198.658 329.5,198.5C 326.833,198.5 324.167,198.5 321.5,198.5C 322.167,197.167 323.167,196.167 324.5,195.5C 327.881,193.12 330.547,190.12 332.5,186.5C 337.304,180.181 341.97,173.681 346.5,167C 359.422,162.014 372.755,158.848 386.5,157.5C 388.965,157.233 391.299,156.566 393.5,155.5 Z"/></g>
<g><path style="opacity:1" fill="#f76d6c" d="M 148.5,155.5 C 157.787,154.989 166.453,156.989 174.5,161.5C 163.91,161.991 153.244,162.991 142.5,164.5C 143.872,168.601 146.205,171.934 149.5,174.5C 148.116,176.703 146.449,178.703 144.5,180.5C 139.438,174.725 135.105,168.391 131.5,161.5C 137.532,160.269 143.199,158.269 148.5,155.5 Z"/></g>
<g><path style="opacity:1" fill="#a09941" d="M 174.5,161.5 C 176.05,162.441 177.716,163.107 179.5,163.5C 179.833,164.5 180.5,165.167 181.5,165.5C 185.46,167.816 189.46,170.15 193.5,172.5C 193.557,173.609 193.89,174.609 194.5,175.5C 193.078,176.925 191.411,177.925 189.5,178.5C 182.647,176.216 175.647,174.549 168.5,173.5C 168.198,166.003 164.698,163.669 158,166.5C 157.503,168.81 157.337,171.143 157.5,173.5C 154.904,174.265 152.237,174.599 149.5,174.5C 146.205,171.934 143.872,168.601 142.5,164.5C 153.244,162.991 163.91,161.991 174.5,161.5 Z"/></g>
<g><path style="opacity:1" fill="#d43135" d="M 399.5,176.5 C 396.048,179.399 392.382,182.066 388.5,184.5C 388.167,184.5 387.833,184.5 387.5,184.5C 389.226,182.772 390.559,180.772 391.5,178.5C 392.167,178.5 392.5,178.167 392.5,177.5C 395.23,174.845 395.896,171.845 394.5,168.5C 382.662,165.204 372.328,167.704 363.5,176C 367.341,174.84 371.341,173.84 375.5,173C 379.92,172.232 384.253,172.398 388.5,173.5C 388.5,174.167 388.5,174.833 388.5,175.5C 383.223,180.568 376.89,184.068 369.5,186C 368.402,186.77 368.402,187.603 369.5,188.5C 369.586,189.496 369.252,190.329 368.5,191C 360.851,192.996 353.184,194.829 345.5,196.5C 344.167,196.833 342.833,197.167 341.5,197.5C 344.181,190.978 347.348,184.644 351,178.5C 358.861,167.986 369.361,162.319 382.5,161.5C 393.572,160.579 399.238,165.579 399.5,176.5 Z"/></g>
<g><path style="opacity:1" fill="#d8c78b" d="M 320.5,160.5 C 322.153,160.66 323.486,161.326 324.5,162.5C 323.508,162.328 322.842,162.662 322.5,163.5C 321.167,164.167 320.167,165.167 319.5,166.5C 318.596,165.791 318.263,164.791 318.5,163.5C 319.167,162.5 319.833,161.5 320.5,160.5 Z"/></g>
<g><path style="opacity:1" fill="#cbc653" d="M 168.5,173.5 C 164.833,173.5 161.167,173.5 157.5,173.5C 157.337,171.143 157.503,168.81 158,166.5C 164.698,163.669 168.198,166.003 168.5,173.5 Z"/></g>
<g><path style="opacity:1" fill="#96893f" d="M 316.5,163.5 C 317.167,163.5 317.833,163.5 318.5,163.5C 318.263,164.791 318.596,165.791 319.5,166.5C 319.5,167.5 319.5,168.5 319.5,169.5C 319.167,170.5 318.5,171.167 317.5,171.5C 317.425,168.794 317.092,166.127 316.5,163.5 Z"/></g>
<g><path style="opacity:1" fill="#f86b6c" d="M 530.5,164.5 C 533.427,172.435 534.094,180.435 532.5,188.5C 532.215,173.877 524.881,166.877 510.5,167.5C 510.833,166.833 511.167,166.167 511.5,165.5C 513.23,164.974 514.564,163.974 515.5,162.5C 521.341,157.954 526.341,158.621 530.5,164.5 Z"/></g>
<g><path style="opacity:1" fill="#fdf0ef" d="M 523.5,161.5 C 526.91,161.384 528.244,163.05 527.5,166.5C 523.464,166.718 522.13,165.051 523.5,161.5 Z"/></g>
<g><path style="opacity:1" fill="#cec058" d="M 108.5,166.5 C 114.214,171.549 120.214,176.215 126.5,180.5C 126.414,181.496 126.748,182.329 127.5,183C 131.863,185.684 136.53,187.518 141.5,188.5C 139.867,194.767 140.534,200.767 143.5,206.5C 146.791,217.024 145.791,227.024 140.5,236.5C 130.393,230.91 121.56,223.577 114,214.5C 105.496,203.151 102.329,190.484 104.5,176.5C 105.282,172.937 106.616,169.603 108.5,166.5 Z"/></g>
<g><path style="opacity:1" fill="#b3801f" d="M 394.5,168.5 C 393.801,171.541 391.801,173.208 388.5,173.5C 384.253,172.398 379.92,172.232 375.5,173C 371.341,173.84 367.341,174.84 363.5,176C 372.328,167.704 382.662,165.204 394.5,168.5 Z"/></g>
<g><path style="opacity:1" fill="#7f9c2c" d="M 247.5,179.5 C 248.594,181.865 249.261,184.365 249.5,187C 249.604,189.145 248.937,190.979 247.5,192.5C 240.319,196.87 232.653,199.536 224.5,200.5C 223.5,200.5 222.5,200.5 221.5,200.5C 218.167,200.5 214.833,200.5 211.5,200.5C 211.66,198.801 211.494,197.134 211,195.5C 205.935,190.926 200.769,186.593 195.5,182.5C 198.036,179.862 197.703,177.529 194.5,175.5C 193.89,174.609 193.557,173.609 193.5,172.5C 203.604,169.489 213.937,168.323 224.5,169C 233.449,169.81 241.116,173.31 247.5,179.5 Z"/></g>
<g><path style="opacity:1" fill="#f3f5ea" d="M 209.5,170.5 C 212.187,170.336 214.854,170.503 217.5,171C 217.957,171.414 218.291,171.914 218.5,172.5C 215.234,175.045 211.568,175.878 207.5,175C 207.043,174.586 206.709,174.086 206.5,173.5C 207.34,172.265 208.34,171.265 209.5,170.5 Z"/></g>
<g><path style="opacity:1" fill="#d92327" d="M 131.5,161.5 C 135.105,168.391 139.438,174.725 144.5,180.5C 143.559,182.05 142.893,183.716 142.5,185.5C 136.779,185.037 131.445,183.37 126.5,180.5C 120.214,176.215 114.214,171.549 108.5,166.5C 107.925,164.589 106.925,162.922 105.5,161.5C 113.919,161.424 122.585,161.424 131.5,161.5 Z"/></g>
<g><path style="opacity:1" fill="#f8f9f2" d="M 226.5,172.5 C 229.187,172.336 231.854,172.503 234.5,173C 235.337,174.011 235.67,175.178 235.5,176.5C 233.143,176.663 230.81,176.497 228.5,176C 227.177,175.184 226.511,174.017 226.5,172.5 Z"/></g>
<g><path style="opacity:1" fill="#97b347" d="M 157.5,173.5 C 161.167,173.5 164.833,173.5 168.5,173.5C 175.647,174.549 182.647,176.216 189.5,178.5C 189.833,179.167 190.167,179.833 190.5,180.5C 192.284,180.893 193.95,181.559 195.5,182.5C 200.769,186.593 205.935,190.926 211,195.5C 211.494,197.134 211.66,198.801 211.5,200.5C 210.883,202.229 209.883,203.729 208.5,205C 204.59,206.053 200.923,207.553 197.5,209.5C 190.939,206.55 184.606,203.05 178.5,199C 165.364,194.543 153.698,197.043 143.5,206.5C 140.534,200.767 139.867,194.767 141.5,188.5C 141.557,187.391 141.89,186.391 142.5,185.5C 142.893,183.716 143.559,182.05 144.5,180.5C 146.449,178.703 148.116,176.703 149.5,174.5C 152.237,174.599 154.904,174.265 157.5,173.5 Z"/></g>
<g><path style="opacity:1" fill="#95843c" d="M 394.5,168.5 C 395.896,171.845 395.23,174.845 392.5,177.5C 391.005,177.011 389.671,176.345 388.5,175.5C 388.5,174.833 388.5,174.167 388.5,173.5C 391.801,173.208 393.801,171.541 394.5,168.5 Z"/></g>
<g><path style="opacity:1" fill="#989717" d="M 452.5,170.5 C 456.195,169.874 457.029,170.874 455,173.5C 452.696,175.068 450.196,176.235 447.5,177C 440.5,177.667 433.5,177.667 426.5,177C 428.221,175.473 430.221,174.473 432.5,174C 437.5,173.667 442.5,173.333 447.5,173C 449.315,172.243 450.981,171.41 452.5,170.5 Z"/></g>
<g><path style="opacity:1" fill="#f9faf3" d="M 155.5,176.5 C 158.518,176.335 161.518,176.502 164.5,177C 165.91,177.368 166.91,178.201 167.5,179.5C 163.181,180.286 158.847,180.953 154.5,181.5C 153.833,181.167 153.167,180.833 152.5,180.5C 153.524,179.148 154.524,177.815 155.5,176.5 Z"/></g>
<g><path style="opacity:1" fill="#c9c653" d="M 194.5,175.5 C 197.703,177.529 198.036,179.862 195.5,182.5C 193.95,181.559 192.284,180.893 190.5,180.5C 190.167,179.833 189.833,179.167 189.5,178.5C 191.411,177.925 193.078,176.925 194.5,175.5 Z"/></g>
<g><path style="opacity:1" fill="#979717" d="M 470.5,168.5 C 471.376,168.369 472.043,168.702 472.5,169.5C 465.99,175.588 458.657,180.421 450.5,184C 437.154,184.833 423.821,184.666 410.5,183.5C 414.299,181.907 418.299,181.074 422.5,181C 430.833,180.667 439.167,180.333 447.5,180C 455.775,177.196 463.442,173.362 470.5,168.5 Z"/></g>
<g><path style="opacity:1" fill="#f7f9f0" d="M 190.5,180.5 C 191.141,181.482 191.807,182.482 192.5,183.5C 187.506,185.165 183.173,184.165 179.5,180.5C 180.171,179.054 181.338,178.388 183,178.5C 185.544,179.071 188.044,179.738 190.5,180.5 Z"/></g>
<g><path style="opacity:1" fill="#fdfdf9" d="M 319.5,179.5 C 320.598,180.601 320.765,181.934 320,183.5C 318.708,184.791 317.542,184.791 316.5,183.5C 316.088,181.027 317.088,179.694 319.5,179.5 Z"/></g>
<g><path style="opacity:1" fill="#948a3f" d="M 247.5,179.5 C 261.163,181.955 274.83,183.955 288.5,185.5C 289.726,185.48 290.726,185.147 291.5,184.5C 297.699,182.248 304.032,181.915 310.5,183.5C 310.5,184.167 310.5,184.833 310.5,185.5C 307.813,185.336 305.146,185.503 302.5,186C 296.383,187.376 290.55,189.209 285,191.5C 283.833,191.167 282.667,190.833 281.5,190.5C 283.547,188.985 285.881,188.151 288.5,188C 284.609,186.362 280.609,186.195 276.5,187.5C 270.499,185.445 264.332,184.112 258,183.5C 255.833,183.833 253.667,184.167 251.5,184.5C 255.702,189.328 255.368,193.828 250.5,198C 247.673,199.664 244.673,200.83 241.5,201.5C 235.839,201.093 230.172,200.76 224.5,200.5C 232.653,199.536 240.319,196.87 247.5,192.5C 248.937,190.979 249.604,189.145 249.5,187C 249.261,184.365 248.594,181.865 247.5,179.5 Z"/></g>
<g><path style="opacity:1" fill="#657e21" d="M 235.5,180.5 C 237.288,180.215 238.955,180.548 240.5,181.5C 236.104,186.694 230.438,189.027 223.5,188.5C 221.5,188.167 219.5,187.833 217.5,187.5C 217.709,186.914 218.043,186.414 218.5,186C 222.833,185 227.167,184 231.5,183C 233.066,182.392 234.4,181.558 235.5,180.5 Z"/></g>
<g><path style="opacity:1" fill="#d92126" d="M 510.5,167.5 C 524.881,166.877 532.215,173.877 532.5,188.5C 529.489,196.673 524.823,203.84 518.5,210C 516.5,210.667 514.5,210.667 512.5,210C 505.921,207.523 499.255,205.356 492.5,203.5C 489.365,202.7 487.698,200.7 487.5,197.5C 487.964,194.583 488.964,191.916 490.5,189.5C 492.833,187.833 494.833,185.833 496.5,183.5C 499.516,180.48 502.183,177.146 504.5,173.5C 506.861,171.806 508.861,169.806 510.5,167.5 Z"/></g>
<g><path style="opacity:1" fill="#fefefe" d="M 96.5,183.5 C 98.5,183.5 100.5,183.5 102.5,183.5C 99.8291,196.477 103.162,207.477 112.5,216.5C 102.908,218.821 93.2417,220.821 83.5,222.5C 75.155,217.846 69.655,210.846 67,201.5C 66.5006,195.843 66.3339,190.176 66.5,184.5C 76.6806,184.827 86.6806,184.494 96.5,183.5 Z"/></g>
<g><path style="opacity:1" fill="#f3de80" d="M 319.5,169.5 C 323.419,175.427 327.752,181.094 332.5,186.5C 330.547,190.12 327.881,193.12 324.5,195.5C 322.722,193.106 320.389,191.44 317.5,190.5C 314.15,191.843 310.817,193.177 307.5,194.5C 307.905,191.285 308.905,188.285 310.5,185.5C 310.5,184.833 310.5,184.167 310.5,183.5C 312.39,183.703 313.89,183.037 315,181.5C 315.278,182.416 315.778,183.082 316.5,183.5C 317.542,184.791 318.708,184.791 320,183.5C 320.765,181.934 320.598,180.601 319.5,179.5C 317.798,177.2 317.132,174.533 317.5,171.5C 318.5,171.167 319.167,170.5 319.5,169.5 Z"/></g>
<g><path style="opacity:1" fill="#6d5f2d" d="M 388.5,175.5 C 389.671,176.345 391.005,177.011 392.5,177.5C 392.5,178.167 392.167,178.5 391.5,178.5C 385.845,180.638 380.511,183.472 375.5,187C 373.564,187.813 371.564,188.313 369.5,188.5C 368.402,187.603 368.402,186.77 369.5,186C 376.89,184.068 383.223,180.568 388.5,175.5 Z"/></g>
<g><path style="opacity:1" fill="#94883e" d="M 126.5,180.5 C 131.445,183.37 136.779,185.037 142.5,185.5C 141.89,186.391 141.557,187.391 141.5,188.5C 136.53,187.518 131.863,185.684 127.5,183C 126.748,182.329 126.414,181.496 126.5,180.5 Z"/></g>
<g><path style="opacity:1" fill="#f1cf2d" d="M 470.5,183.5 C 475.511,183.334 480.511,183.501 485.5,184C 487.544,184.498 488.878,185.665 489.5,187.5C 485.135,191.189 480.469,194.522 475.5,197.5C 471.041,195.174 466.208,194.174 461,194.5C 453.208,195.703 445.375,196.703 437.5,197.5C 437.167,196.167 436.833,194.833 436.5,193.5C 444.108,192.898 451.774,191.731 459.5,190C 462.898,188.643 465.898,186.81 468.5,184.5C 469.167,184.167 469.833,183.833 470.5,183.5 Z"/></g>
<g><path style="opacity:1" fill="#80993c" d="M 158.5,185.5 C 163.511,185.334 168.511,185.501 173.5,186C 175.002,186.583 176.335,187.416 177.5,188.5C 169.503,189.262 161.503,189.928 153.5,190.5C 152.5,190.167 151.5,189.833 150.5,189.5C 152.991,187.588 155.658,186.254 158.5,185.5 Z"/></g>
<g><path style="opacity:1" fill="#fdfcf6" d="M 473.5,185.5 C 476.807,185.063 479.807,185.73 482.5,187.5C 482.291,188.086 481.957,188.586 481.5,189C 477.967,189.903 474.633,189.57 471.5,188C 472.381,187.292 473.047,186.458 473.5,185.5 Z"/></g>
<g><path style="opacity:1" fill="#98873c" d="M 496.5,183.5 C 494.833,185.833 492.833,187.833 490.5,189.5C 490.5,188.833 490.5,188.167 490.5,187.5C 491.733,185.204 493.733,183.87 496.5,183.5 Z"/></g>
<g><path style="opacity:1" fill="#cabc56" d="M 310.5,185.5 C 308.905,188.285 307.905,191.285 307.5,194.5C 300.661,198.42 293.661,202.087 286.5,205.5C 285.194,203.527 283.527,201.861 281.5,200.5C 276.104,192.905 268.771,190.405 259.5,193C 257.416,193.697 255.749,194.864 254.5,196.5C 251.263,198.63 249.263,201.63 248.5,205.5C 246.046,204.773 243.713,203.773 241.5,202.5C 241.5,202.167 241.5,201.833 241.5,201.5C 244.673,200.83 247.673,199.664 250.5,198C 255.368,193.828 255.702,189.328 251.5,184.5C 253.667,184.167 255.833,183.833 258,183.5C 264.332,184.112 270.499,185.445 276.5,187.5C 280.609,186.195 284.609,186.362 288.5,188C 285.881,188.151 283.547,188.985 281.5,190.5C 282.667,190.833 283.833,191.167 285,191.5C 290.55,189.209 296.383,187.376 302.5,186C 305.146,185.503 307.813,185.336 310.5,185.5 Z"/></g>
<g><path style="opacity:1" fill="#ae951e" d="M 459.5,183.5 C 462.287,184.477 465.287,184.81 468.5,184.5C 465.898,186.81 462.898,188.643 459.5,190C 451.774,191.731 444.108,192.898 436.5,193.5C 431.833,193.5 427.167,193.5 422.5,193.5C 411.993,193.243 401.66,191.91 391.5,189.5C 391.863,188.817 392.196,188.15 392.5,187.5C 393.15,187.196 393.817,186.863 394.5,186.5C 397.443,187.244 400.443,187.744 403.5,188C 417.167,188.667 430.833,188.667 444.5,188C 449.802,187.399 454.802,185.899 459.5,183.5 Z"/></g>
<g><path style="opacity:1" fill="#f2ce2b" d="M 391.5,187.5 C 391.833,187.5 392.167,187.5 392.5,187.5C 392.196,188.15 391.863,188.817 391.5,189.5C 401.66,191.91 411.993,193.243 422.5,193.5C 417.794,195.245 413.127,196.912 408.5,198.5C 400.146,198.573 391.812,198.24 383.5,197.5C 384.234,196.292 384.567,194.959 384.5,193.5C 380.759,192.599 378.759,193.932 378.5,197.5C 375.833,197.5 373.167,197.5 370.5,197.5C 370.833,196.833 371.167,196.167 371.5,195.5C 372.492,195.672 373.158,195.338 373.5,194.5C 379.483,192.169 385.483,189.835 391.5,187.5 Z"/></g>
<g><path style="opacity:1" fill="#cdbe55" d="M 387.5,184.5 C 387.833,184.5 388.167,184.5 388.5,184.5C 389.1,185.9 390.1,186.9 391.5,187.5C 385.483,189.835 379.483,192.169 373.5,194.5C 373.67,193.178 373.337,192.011 372.5,191C 377.639,188.977 382.639,186.81 387.5,184.5 Z"/></g>
<g><path style="opacity:1" fill="#829b3d" d="M 164.5,190.5 C 171.496,190.332 178.163,191.665 184.5,194.5C 175.852,195.332 167.186,195.832 158.5,196C 155.129,197.068 151.796,198.235 148.5,199.5C 147.718,197.671 148.384,196.171 150.5,195C 154.942,192.384 159.608,190.884 164.5,190.5 Z"/></g>
<g><path style="opacity:1" fill="#f1f5e5" d="M 198.5,189.5 C 202.138,188.737 203.638,190.07 203,193.5C 199.331,195.009 197.831,193.676 198.5,189.5 Z"/></g>
<g><path style="opacity:1" fill="#667f21" d="M 241.5,187.5 C 242.675,187.281 243.675,187.614 244.5,188.5C 241.406,192.423 237.406,194.923 232.5,196C 228.459,196.827 224.459,196.66 220.5,195.5C 227.391,192.368 234.391,189.702 241.5,187.5 Z"/></g>
<g><path style="opacity:1" fill="#f2d029" d="M 324.5,195.5 C 323.167,196.167 322.167,197.167 321.5,198.5C 323.631,199.314 325.964,199.814 328.5,200C 327.5,201 326.5,202 325.5,203C 328.482,203.498 331.482,203.665 334.5,203.5C 335.833,204.5 337.167,205.5 338.5,206.5C 342.476,209.469 346.476,212.469 350.5,215.5C 355.858,219.888 358.192,225.554 357.5,232.5C 355.464,233.626 354.13,235.293 353.5,237.5C 341.476,247.677 328.476,256.51 314.5,264C 310.948,264.878 307.614,266.044 304.5,267.5C 300.905,265.898 297.571,263.898 294.5,261.5C 294.176,256.861 292.176,253.194 288.5,250.5C 285.094,245.794 280.428,243.127 274.5,242.5C 272.815,240.429 271.148,238.429 269.5,236.5C 268.833,235.5 268.167,234.5 267.5,233.5C 277.997,233.179 284.497,227.846 287,217.5C 287.497,213.476 287.331,209.476 286.5,205.5C 293.661,202.087 300.661,198.42 307.5,194.5C 310.817,193.177 314.15,191.843 317.5,190.5C 320.389,191.44 322.722,193.106 324.5,195.5 Z"/></g>
<g><path style="opacity:1" fill="#92863e" d="M 391.5,178.5 C 390.559,180.772 389.226,182.772 387.5,184.5C 382.639,186.81 377.639,188.977 372.5,191C 373.337,192.011 373.67,193.178 373.5,194.5C 373.158,195.338 372.492,195.672 371.5,195.5C 362.294,198.141 352.961,200.141 343.5,201.5C 344.942,200.18 345.608,198.514 345.5,196.5C 353.184,194.829 360.851,192.996 368.5,191C 369.252,190.329 369.586,189.496 369.5,188.5C 371.564,188.313 373.564,187.813 375.5,187C 380.511,183.472 385.845,180.638 391.5,178.5 Z"/></g>
<g><path style="opacity:1" fill="#cdbf59" d="M 358.5,97.5 C 406.979,99.4252 452.979,110.925 496.5,132C 512.483,140.319 525.65,151.819 536,166.5C 542.568,179.153 543.234,192.153 538,205.5C 528.055,222.393 514.222,235.06 496.5,243.5C 496.333,231.495 496.5,219.495 497,207.5C 505.25,210.922 513.75,213.088 522.5,214C 530.304,207.571 535.471,199.404 538,189.5C 538.771,182.911 537.771,176.577 535,170.5C 534.208,167.894 532.708,165.894 530.5,164.5C 526.341,158.621 521.341,157.954 515.5,162.5C 514.251,159.91 512.584,157.576 510.5,155.5C 489.601,129.217 462.268,115.383 428.5,114C 423.049,115.223 418.382,117.723 414.5,121.5C 413.761,121.631 413.094,121.464 412.5,121C 405.37,109.894 396.036,107.06 384.5,112.5C 378.146,115.874 375.146,121.207 375.5,128.5C 372.366,129.901 369.366,131.568 366.5,133.5C 367.527,120.63 364.86,108.63 358.5,97.5 Z"/></g>
<g><path style="opacity:1" fill="#99b649" d="M 397.5,125.5 C 401.776,125.97 405.11,127.97 407.5,131.5C 403.876,133.035 400.709,132.368 398,129.5C 397.51,128.207 397.343,126.873 397.5,125.5 Z"/></g>
<g><path style="opacity:1" fill="#fbfbf2" d="M 414.5,123.5 C 414.5,123.833 414.5,124.167 414.5,124.5C 414.5,125.833 414.5,127.167 414.5,128.5C 410.427,128.054 408.427,125.72 408.5,121.5C 410.703,121.604 412.703,122.27 414.5,123.5 Z"/></g>
<g><path style="opacity:1" fill="#fdfcf8" d="M 432.5,115.5 C 437.06,114.658 440.727,115.991 443.5,119.5C 440.011,120.859 436.677,120.526 433.5,118.5C 432.614,117.675 432.281,116.675 432.5,115.5 Z"/></g>
<g><path style="opacity:1" fill="#fafbf1" d="M 391.5,112.5 C 395.182,112.335 398.848,112.501 402.5,113C 404.923,114.571 406.256,116.737 406.5,119.5C 402.134,117.439 397.467,116.273 392.5,116C 390.273,115.296 389.94,114.129 391.5,112.5 Z"/></g>
<g><path style="opacity:1" fill="#fdf4e6" d="M 383.5,197.5 C 381.716,198.72 380.05,198.72 378.5,197.5C 378.759,193.932 380.759,192.599 384.5,193.5C 384.567,194.959 384.234,196.292 383.5,197.5 Z"/></g>
<g><path style="opacity:1" fill="#f29029" d="M 475.5,197.5 C 480.595,203.113 482.928,209.78 482.5,217.5C 481.478,231.266 479.812,244.933 477.5,258.5C 471.567,259.447 465.567,259.447 459.5,258.5C 451.894,256.683 444.228,255.016 436.5,253.5C 441.634,248.065 445.634,241.898 448.5,235C 445.923,222.109 442.256,209.609 437.5,197.5C 445.375,196.703 453.208,195.703 461,194.5C 466.208,194.174 471.041,195.174 475.5,197.5 Z"/></g>
<g><path style="opacity:1" fill="#648b3c" d="M 197.5,209.5 C 194.551,210.614 192.385,212.614 191,215.5C 188.113,223.339 184.946,231.006 181.5,238.5C 177.337,241.722 172.67,243.889 167.5,245C 156.172,245.5 144.838,245.667 133.5,245.5C 133.833,244.833 134.167,244.167 134.5,243.5C 137.219,241.781 139.219,239.447 140.5,236.5C 145.791,227.024 146.791,217.024 143.5,206.5C 153.698,197.043 165.364,194.543 178.5,199C 184.606,203.05 190.939,206.55 197.5,209.5 Z"/></g>
<g><path style="opacity:1" fill="#6c612e" d="M 345.5,196.5 C 345.608,198.514 344.942,200.18 343.5,201.5C 343.5,202.167 343.167,202.5 342.5,202.5C 340.712,202.785 339.045,202.452 337.5,201.5C 338.63,200.378 339.297,199.044 339.5,197.5C 340.167,197.5 340.833,197.5 341.5,197.5C 342.833,197.167 344.167,196.833 345.5,196.5 Z"/></g>
<g><path style="opacity:1" fill="#f28f29" d="M 370.5,197.5 C 373.167,197.5 375.833,197.5 378.5,197.5C 380.05,198.72 381.716,198.72 383.5,197.5C 391.812,198.24 400.146,198.573 408.5,198.5C 409.693,198.97 410.36,199.97 410.5,201.5C 408.304,224.472 407.97,247.472 409.5,270.5C 405.026,266.356 400.026,263.023 394.5,260.5C 394.5,259.833 394.167,259.5 393.5,259.5C 396.264,253.074 396.097,246.74 393,240.5C 392.292,239.619 391.458,238.953 390.5,238.5C 387.667,234.244 383.667,231.744 378.5,231C 373.833,230.333 369.167,230.333 364.5,231C 362.942,231.21 361.609,231.71 360.5,232.5C 359.5,232.5 358.5,232.5 357.5,232.5C 358.192,225.554 355.858,219.888 350.5,215.5C 356.868,209.13 363.535,203.13 370.5,197.5 Z"/></g>
<g><path style="opacity:1" fill="#a69552" d="M 339.5,197.5 C 339.297,199.044 338.63,200.378 337.5,201.5C 339.045,202.452 340.712,202.785 342.5,202.5C 342.167,204.833 340.833,206.167 338.5,206.5C 337.167,205.5 335.833,204.5 334.5,203.5C 332.833,201.833 331.167,200.167 329.5,198.5C 332.902,198.658 336.236,198.324 339.5,197.5 Z"/></g>
<g><path style="opacity:1" fill="#cebf56" d="M 371.5,195.5 C 371.167,196.167 370.833,196.833 370.5,197.5C 363.535,203.13 356.868,209.13 350.5,215.5C 346.476,212.469 342.476,209.469 338.5,206.5C 340.833,206.167 342.167,204.833 342.5,202.5C 343.167,202.5 343.5,202.167 343.5,201.5C 352.961,200.141 362.294,198.141 371.5,195.5 Z"/></g>
<g><path style="opacity:1" fill="#fdfaeb" d="M 307.5,198.5 C 309.5,198.5 311.5,198.5 313.5,198.5C 313.67,199.822 313.337,200.989 312.5,202C 309.794,203.908 306.794,204.741 303.5,204.5C 303.351,203.448 303.517,202.448 304,201.5C 305.518,200.837 306.685,199.837 307.5,198.5 Z"/></g>
<g><path style="opacity:1" fill="#ad941f" d="M 221.5,200.5 C 222.5,200.5 223.5,200.5 224.5,200.5C 230.172,200.76 235.839,201.093 241.5,201.5C 241.5,201.833 241.5,202.167 241.5,202.5C 232.882,203.898 224.215,205.064 215.5,206C 214.748,206.671 214.414,207.504 214.5,208.5C 213.833,208.5 213.5,208.833 213.5,209.5C 210.994,210.75 208.327,211.416 205.5,211.5C 210.322,207.111 215.655,203.445 221.5,200.5 Z"/></g>
<g><path style="opacity:1" fill="#c29f29" d="M 321.5,198.5 C 324.167,198.5 326.833,198.5 329.5,198.5C 331.167,200.167 332.833,201.833 334.5,203.5C 331.482,203.665 328.482,203.498 325.5,203C 326.5,202 327.5,201 328.5,200C 325.964,199.814 323.631,199.314 321.5,198.5 Z"/></g>
<g><path style="opacity:1" fill="#99b546" d="M 254.5,196.5 C 252.953,211.718 259.62,221.385 274.5,225.5C 269.403,229.956 263.737,230.623 257.5,227.5C 250.133,222.083 247.133,214.75 248.5,205.5C 249.263,201.63 251.263,198.63 254.5,196.5 Z"/></g>
<g><path style="opacity:1" fill="#f2d029" d="M 241.5,202.5 C 243.713,203.773 246.046,204.773 248.5,205.5C 247.133,214.75 250.133,222.083 257.5,227.5C 259.484,230.164 262.151,231.831 265.5,232.5C 265.5,236.5 265.5,240.5 265.5,244.5C 259.814,245.866 257.148,249.533 257.5,255.5C 249.8,261.015 241.8,266.015 233.5,270.5C 228.26,272.302 222.927,273.802 217.5,275C 212.416,275.778 207.416,275.611 202.5,274.5C 197.76,269.02 194.593,262.687 193,255.5C 192.333,246.5 192.333,237.5 193,228.5C 194.18,225.479 195.346,222.479 196.5,219.5C 198.403,215.697 201.403,213.031 205.5,211.5C 208.327,211.416 210.994,210.75 213.5,209.5C 212.524,210.815 211.524,212.148 210.5,213.5C 211,213.833 211.5,214.167 212,214.5C 216.343,212.331 220.843,210.664 225.5,209.5C 225.5,208.5 225.5,207.5 225.5,206.5C 221.513,206.01 217.846,206.676 214.5,208.5C 214.414,207.504 214.748,206.671 215.5,206C 224.215,205.064 232.882,203.898 241.5,202.5 Z"/></g>
<g><path style="opacity:1" fill="#d2d87b" d="M 281.5,200.5 C 283.653,208.726 282.486,216.392 278,223.5C 276.887,224.305 275.721,224.972 274.5,225.5C 259.62,221.385 252.953,211.718 254.5,196.5C 255.749,194.864 257.416,193.697 259.5,193C 268.771,190.405 276.104,192.905 281.5,200.5 Z"/></g>
<g><path style="opacity:1" fill="#9ab649" d="M 263.5,202.5 C 267.755,204.299 270.088,207.632 270.5,212.5C 265.249,211.362 262.916,208.028 263.5,202.5 Z"/></g>
<g><path style="opacity:1" fill="#fbfbf2" d="M 267.5,194.5 C 272.713,194.087 275.38,196.42 275.5,201.5C 271.756,201.129 268.756,199.462 266.5,196.5C 266.863,195.817 267.196,195.15 267.5,194.5 Z"/></g>
<g><path style="opacity:1" fill="#aa7d1e" d="M 211.5,200.5 C 214.833,200.5 218.167,200.5 221.5,200.5C 215.655,203.445 210.322,207.111 205.5,211.5C 201.403,213.031 198.403,215.697 196.5,219.5C 194.864,220.749 193.697,222.416 193,224.5C 191.789,230.132 189.789,235.466 187,240.5C 185.693,242.192 184.193,243.525 182.5,244.5C 181.85,242.565 181.517,240.565 181.5,238.5C 184.946,231.006 188.113,223.339 191,215.5C 192.385,212.614 194.551,210.614 197.5,209.5C 200.923,207.553 204.59,206.053 208.5,205C 209.883,203.729 210.883,202.229 211.5,200.5 Z"/></g>
<g><path style="opacity:1" fill="#f3b228" d="M 213.5,209.5 C 213.5,208.833 213.833,208.5 214.5,208.5C 217.846,206.676 221.513,206.01 225.5,206.5C 225.5,207.5 225.5,208.5 225.5,209.5C 220.843,210.664 216.343,212.331 212,214.5C 211.5,214.167 211,213.833 210.5,213.5C 211.524,212.148 212.524,210.815 213.5,209.5 Z"/></g>
<g><path style="opacity:1" fill="#fafbf2" d="M 277.5,206.5 C 278.496,206.414 279.329,206.748 280,207.5C 281.468,211.918 279.968,214.252 275.5,214.5C 275.283,211.579 275.949,208.913 277.5,206.5 Z"/></g>
<g><path style="opacity:1" fill="#ac9622" d="M 281.5,200.5 C 283.527,201.861 285.194,203.527 286.5,205.5C 287.331,209.476 287.497,213.476 287,217.5C 284.497,227.846 277.997,233.179 267.5,233.5C 266.994,231.895 266.327,231.561 265.5,232.5C 262.151,231.831 259.484,230.164 257.5,227.5C 263.737,230.623 269.403,229.956 274.5,225.5C 275.721,224.972 276.887,224.305 278,223.5C 282.486,216.392 283.653,208.726 281.5,200.5 Z"/></g>
<g><path style="opacity:1" fill="#95893e" d="M 530.5,164.5 C 532.708,165.894 534.208,167.894 535,170.5C 537.771,176.577 538.771,182.911 538,189.5C 535.471,199.404 530.304,207.571 522.5,214C 513.75,213.088 505.25,210.922 497,207.5C 496.5,219.495 496.333,231.495 496.5,243.5C 495.833,243.5 495.5,243.833 495.5,244.5C 494.609,245.11 493.609,245.443 492.5,245.5C 492.5,231.5 492.5,217.5 492.5,203.5C 499.255,205.356 505.921,207.523 512.5,210C 514.5,210.667 516.5,210.667 518.5,210C 524.823,203.84 529.489,196.673 532.5,188.5C 534.094,180.435 533.427,172.435 530.5,164.5 Z"/></g>
<g><path style="opacity:1" fill="#9ab64a" d="M 258.5,197.5 C 259.951,201.744 261.785,206.077 264,210.5C 266.709,213.378 269.542,216.044 272.5,218.5C 267.284,219.146 263.117,217.146 260,212.5C 256.231,207.664 255.731,202.664 258.5,197.5 Z"/></g>
<g><path style="opacity:1" fill="#fcfaeb" d="M 338.5,214.5 C 343.34,215.257 346.674,217.923 348.5,222.5C 346.813,223.568 345.146,223.401 343.5,222C 340.758,220.114 339.091,217.614 338.5,214.5 Z"/></g>
<g><path style="opacity:1" fill="#f3ae29" d="M 489.5,187.5 C 489.833,187.5 490.167,187.5 490.5,187.5C 490.5,188.167 490.5,188.833 490.5,189.5C 488.964,191.916 487.964,194.583 487.5,197.5C 487.698,200.7 489.365,202.7 492.5,203.5C 492.5,217.5 492.5,231.5 492.5,245.5C 491.834,248.689 491.167,252.023 490.5,255.5C 486.342,257.29 482.009,258.29 477.5,258.5C 479.812,244.933 481.478,231.266 482.5,217.5C 482.928,209.78 480.595,203.113 475.5,197.5C 480.469,194.522 485.135,191.189 489.5,187.5 Z"/></g>
<g><path style="opacity:1" fill="#547432" d="M 172.5,216.5 C 173.693,216.97 174.36,217.97 174.5,219.5C 173.624,224.872 170.624,228.039 165.5,229C 165.167,228.667 164.833,228.333 164.5,228C 166.997,224.011 169.664,220.177 172.5,216.5 Z"/></g>
<g><path style="opacity:1" fill="#547432" d="M 181.5,215.5 C 182.995,215.415 183.995,216.081 184.5,217.5C 182.767,227.047 177.767,234.214 169.5,239C 167.421,239.808 165.421,239.641 163.5,238.5C 172.509,233.161 178.509,225.494 181.5,215.5 Z"/></g>
<g><path style="opacity:1" fill="#f3af28" d="M 422.5,193.5 C 427.167,193.5 431.833,193.5 436.5,193.5C 436.833,194.833 437.167,196.167 437.5,197.5C 442.256,209.609 445.923,222.109 448.5,235C 445.634,241.898 441.634,248.065 436.5,253.5C 431.532,257.991 425.865,261.491 419.5,264C 416.741,265.529 414.741,267.695 413.5,270.5C 412.609,271.11 411.609,271.443 410.5,271.5C 410.167,271.5 409.833,271.5 409.5,271.5C 409.5,271.167 409.5,270.833 409.5,270.5C 407.97,247.472 408.304,224.472 410.5,201.5C 410.36,199.97 409.693,198.97 408.5,198.5C 413.127,196.912 417.794,195.245 422.5,193.5 Z"/></g>
<g><path style="opacity:1" fill="#fefefe" d="M 134.5,243.5 C 134.167,244.167 133.833,244.833 133.5,245.5C 135.013,246.51 137.347,246.843 140.5,246.5C 139.738,248.262 138.404,249.262 136.5,249.5C 131.045,251.781 125.378,252.948 119.5,253C 109.63,247.789 100.296,241.789 91.5,235C 89.4598,232.815 88.1264,230.315 87.5,227.5C 96.4226,226.208 105.256,224.541 114,222.5C 120.406,230.036 127.239,237.036 134.5,243.5 Z"/></g>
<g><path style="opacity:1" fill="#f3b229" d="M 206.5,217.5 C 207.5,217.5 208.5,217.5 209.5,217.5C 208.374,222.292 205.707,225.959 201.5,228.5C 200.386,227.277 200.219,225.944 201,224.5C 202.316,221.692 204.15,219.359 206.5,217.5 Z"/></g>
<g><path style="opacity:1" fill="#1d444b" d="M 47.5,227.5 C 52.3308,232.163 57.3308,236.663 62.5,241C 70.7067,246.598 78.7067,252.431 86.5,258.5C 126.45,291.805 172.117,313.972 223.5,325C 288.834,337.601 354.167,337.601 419.5,325C 470.366,314.733 515.033,292.566 553.5,258.5C 565.695,249.987 577.362,240.654 588.5,230.5C 589.409,235.659 590.909,240.659 593,245.5C 596.9,263.233 593.234,279.233 582,293.5C 570.35,307.404 556.517,318.57 540.5,327C 493.195,350.329 443.195,364.329 390.5,369C 324.038,375.905 258.038,372.905 192.5,360C 158.538,353.235 126.204,341.902 95.5,326C 73.4894,314.99 56.3228,298.823 44,277.5C 37.1248,260.156 38.2915,243.489 47.5,227.5 Z"/></g>
<g><path style="opacity:1" fill="#99b446" d="M 357.5,232.5 C 358.5,232.5 359.5,232.5 360.5,232.5C 359.059,248.07 366.059,257.403 381.5,260.5C 374.985,265.02 367.985,265.687 360.5,262.5C 357.443,260.046 355.109,257.046 353.5,253.5C 353.784,251.585 353.451,249.919 352.5,248.5C 352.423,244.785 352.756,241.119 353.5,237.5C 354.13,235.293 355.464,233.626 357.5,232.5 Z"/></g>
<g><path style="opacity:1" fill="#f39129" d="M 484.5,230.5 C 486.25,233.355 487.083,236.689 487,240.5C 488.011,239.663 489.178,239.33 490.5,239.5C 491.115,243.96 490.115,247.96 487.5,251.5C 486.575,250.359 485.741,250.359 485,251.5C 484.333,252.833 483.667,254.167 483,255.5C 480.777,247.004 481.277,238.671 484.5,230.5 Z"/></g>
<g><path style="opacity:1" fill="#f29129" d="M 419.5,235.5 C 420.833,235.5 422.167,235.5 423.5,235.5C 423.67,236.822 423.337,237.989 422.5,239C 419.779,241.027 416.779,242.527 413.5,243.5C 412.417,242.635 412.251,241.635 413,240.5C 414.805,238.174 416.972,236.508 419.5,235.5 Z"/></g>
<g><path style="opacity:1" fill="#908b46" d="M 181.5,238.5 C 181.517,240.565 181.85,242.565 182.5,244.5C 182.5,244.833 182.5,245.167 182.5,245.5C 177.591,248.394 172.258,249.727 166.5,249.5C 163.903,249.357 161.569,248.523 159.5,247C 153.175,246.5 146.842,246.334 140.5,246.5C 137.347,246.843 135.013,246.51 133.5,245.5C 144.838,245.667 156.172,245.5 167.5,245C 172.67,243.889 177.337,241.722 181.5,238.5 Z"/></g>
<g><path style="opacity:1" fill="#dc7103" d="M 400.5,238.5 C 402.463,240.967 403.629,243.967 404,247.5C 404.828,251.871 404.661,256.205 403.5,260.5C 401.683,258.584 400.516,256.251 400,253.5C 399.222,248.416 399.389,243.416 400.5,238.5 Z"/></g>
<g><path style="opacity:1" fill="#958b3d" d="M 267.5,233.5 C 268.167,234.5 268.833,235.5 269.5,236.5C 270.099,239.948 269.099,242.614 266.5,244.5C 266.167,244.5 265.833,244.5 265.5,244.5C 265.5,240.5 265.5,236.5 265.5,232.5C 266.327,231.561 266.994,231.895 267.5,233.5 Z"/></g>
<g><path style="opacity:1" fill="#ab661e" d="M 390.5,238.5 C 391.458,238.953 392.292,239.619 393,240.5C 396.097,246.74 396.264,253.074 393.5,259.5C 391.809,258.136 390.142,256.803 388.5,255.5C 391.383,250.099 392.05,244.433 390.5,238.5 Z"/></g>
<g><path style="opacity:1" fill="#f29129" d="M 429.5,238.5 C 430.978,238.238 432.311,238.571 433.5,239.5C 428.277,245.698 421.777,250.032 414,252.5C 413.5,252.167 413,251.833 412.5,251.5C 417.901,246.759 423.567,242.426 429.5,238.5 Z"/></g>
<g><path style="opacity:1" fill="#dc7203" d="M 452.5,240.5 C 459.099,240.007 465.432,241.007 471.5,243.5C 471.833,243.833 472.167,244.167 472.5,244.5C 469.215,245.324 465.882,245.824 462.5,246C 466.693,246.436 470.359,247.936 473.5,250.5C 472.333,250.833 471.167,251.167 470,251.5C 465.201,250.337 460.368,249.837 455.5,250C 461.332,251.106 466.665,253.273 471.5,256.5C 469.235,257.647 466.902,257.814 464.5,257C 458.127,255.596 451.794,254.096 445.5,252.5C 444.167,251.833 444.167,251.167 445.5,250.5C 447.115,249.846 448.782,249.346 450.5,249C 445.372,247.438 445.372,246.105 450.5,245C 451.641,244.259 451.641,243.425 450.5,242.5C 451.243,241.818 451.909,241.151 452.5,240.5 Z"/></g>
<g><path style="opacity:1" fill="#f3b128" d="M 343.5,235.5 C 345.355,235.272 346.188,235.939 346,237.5C 341.413,243.597 335.58,247.93 328.5,250.5C 328.167,250.167 327.833,249.833 327.5,249.5C 331.94,243.722 337.273,239.055 343.5,235.5 Z"/></g>
<g><path style="opacity:1" fill="#f3b128" d="M 197.5,232.5 C 198.75,232.577 199.583,233.244 200,234.5C 201.021,244.28 202.354,253.947 204,263.5C 196.945,254.268 194.778,243.934 197.5,232.5 Z"/></g>
<g><path style="opacity:1" fill="#f2af29" d="M 353.5,237.5 C 352.756,241.119 352.423,244.785 352.5,248.5C 345.621,256.609 337.288,262.775 327.5,267C 321.434,269.768 315.101,270.768 308.5,270C 306.934,269.392 305.6,268.558 304.5,267.5C 307.614,266.044 310.948,264.878 314.5,264C 328.476,256.51 341.476,247.677 353.5,237.5 Z"/></g>
<g><path style="opacity:1" fill="#a4a4a4" d="M 140.5,246.5 C 146.842,246.334 153.175,246.5 159.5,247C 161.569,248.523 163.903,249.357 166.5,249.5C 166.5,249.833 166.5,250.167 166.5,250.5C 156.319,250.827 146.319,250.494 136.5,249.5C 138.404,249.262 139.738,248.262 140.5,246.5 Z"/></g>
<g><path style="opacity:1" fill="#cfc05a" d="M 182.5,245.5 C 184.029,249.421 185.363,253.421 186.5,257.5C 179.626,255.729 172.96,253.395 166.5,250.5C 166.5,250.167 166.5,249.833 166.5,249.5C 172.258,249.727 177.591,248.394 182.5,245.5 Z"/></g>
<g><path style="opacity:1" fill="#99b547" d="M 265.5,244.5 C 265.833,244.5 266.167,244.5 266.5,244.5C 265.137,255.384 267.803,265.051 274.5,273.5C 271.574,272.302 268.574,271.302 265.5,270.5C 262.09,268.094 259.424,265.094 257.5,261.5C 257.5,259.5 257.5,257.5 257.5,255.5C 257.148,249.533 259.814,245.866 265.5,244.5 Z"/></g>
<g><path style="opacity:1" fill="#d2d67a" d="M 390.5,238.5 C 392.05,244.433 391.383,250.099 388.5,255.5C 386.427,257.58 384.093,259.246 381.5,260.5C 366.059,257.403 359.059,248.07 360.5,232.5C 361.609,231.71 362.942,231.21 364.5,231C 369.167,230.333 373.833,230.333 378.5,231C 383.667,231.744 387.667,234.244 390.5,238.5 Z"/></g>
<g><path style="opacity:1" fill="#9ab649" d="M 369.5,241.5 C 372.974,243.318 376.307,245.318 379.5,247.5C 374.618,249.62 370.951,248.453 368.5,244C 368.743,243.098 369.077,242.265 369.5,241.5 Z"/></g>
<g><path style="opacity:1" fill="#9ab649" d="M 363.5,238.5 C 365.584,243.105 368.584,247.272 372.5,251C 376.099,252.014 379.765,252.847 383.5,253.5C 382.45,255.873 380.617,256.873 378,256.5C 367.48,255.142 362.647,249.142 363.5,238.5 Z"/></g>
<g><path style="opacity:1" fill="#fafaf0" d="M 372.5,232.5 C 375.798,232.016 378.464,233.016 380.5,235.5C 380.291,236.086 379.957,236.586 379.5,237C 376.5,237.667 373.5,237.667 370.5,237C 370.043,236.586 369.709,236.086 369.5,235.5C 370.34,234.265 371.34,233.265 372.5,232.5 Z"/></g>
<g><path style="opacity:1" fill="#f29129" d="M 440.5,237.5 C 441.376,237.369 442.043,237.702 442.5,238.5C 435.427,248.704 426.093,256.037 414.5,260.5C 414.167,260.167 413.833,259.833 413.5,259.5C 422.519,252.143 431.519,244.81 440.5,237.5 Z"/></g>
<g><path style="opacity:1" fill="#f2b22b" d="M 196.5,219.5 C 195.346,222.479 194.18,225.479 193,228.5C 192.333,237.5 192.333,246.5 193,255.5C 194.593,262.687 197.76,269.02 202.5,274.5C 202.167,274.5 201.833,274.5 201.5,274.5C 195.442,269.775 190.442,264.108 186.5,257.5C 185.363,253.421 184.029,249.421 182.5,245.5C 182.5,245.167 182.5,244.833 182.5,244.5C 184.193,243.525 185.693,242.192 187,240.5C 189.789,235.466 191.789,230.132 193,224.5C 193.697,222.416 194.864,220.749 196.5,219.5 Z"/></g>
<g><path style="opacity:1" fill="#af971f" d="M 288.5,250.5 C 292.176,253.194 294.176,256.861 294.5,261.5C 293.395,260.4 292.062,259.733 290.5,259.5C 290.244,256.402 289.578,253.402 288.5,250.5 Z"/></g>
<g><path style="opacity:1" fill="#95893e" d="M 436.5,253.5 C 444.228,255.016 451.894,256.683 459.5,258.5C 458.432,259.434 457.099,259.768 455.5,259.5C 450.669,259.267 446.003,258.267 441.5,256.5C 435.609,261.275 429.275,265.275 422.5,268.5C 421.833,268.833 421.167,269.167 420.5,269.5C 418.139,269.674 415.806,270.007 413.5,270.5C 414.741,267.695 416.741,265.529 419.5,264C 425.865,261.491 431.532,257.991 436.5,253.5 Z"/></g>
<g><path style="opacity:1" fill="#ccbf59" d="M 353.5,253.5 C 355.109,257.046 357.443,260.046 360.5,262.5C 363.673,266.79 368.006,268.79 373.5,268.5C 380.656,268.619 386.656,266.119 391.5,261C 392.448,260.517 393.448,260.351 394.5,260.5C 400.026,263.023 405.026,266.356 409.5,270.5C 409.5,270.833 409.5,271.167 409.5,271.5C 369.73,277.761 329.73,279.761 289.5,277.5C 292.541,273.742 294.208,269.409 294.5,264.5C 300.564,267.362 306.564,270.529 312.5,274C 329.434,273.533 343.1,266.7 353.5,253.5 Z"/></g>
<g><path style="opacity:1" fill="#cacacb" d="M 86.5,258.5 C 87.2506,257.427 88.2506,257.26 89.5,258C 109.578,268.806 130.578,277.473 152.5,284C 230.258,304.952 309.258,311.285 389.5,303C 447.301,297.727 501.968,282.894 553.5,258.5C 515.033,292.566 470.366,314.733 419.5,325C 354.167,337.601 288.834,337.601 223.5,325C 172.117,313.972 126.45,291.805 86.5,258.5 Z"/></g>
<g><path style="opacity:1" fill="#f3b228" d="M 322.5,251.5 C 323.675,251.281 324.675,251.614 325.5,252.5C 321.07,258.985 315.07,262.319 307.5,262.5C 308.982,260.517 310.649,258.684 312.5,257C 316.056,255.392 319.389,253.559 322.5,251.5 Z"/></g>
<g><path style="opacity:1" fill="#cec05b" d="M 455.5,259.5 C 455.5,259.833 455.5,260.167 455.5,260.5C 444.599,263.679 433.599,266.346 422.5,268.5C 429.275,265.275 435.609,261.275 441.5,256.5C 446.003,258.267 450.669,259.267 455.5,259.5 Z"/></g>
<g><path style="opacity:1" fill="#948a3f" d="M 257.5,255.5 C 257.5,257.5 257.5,259.5 257.5,261.5C 252.131,264.847 246.797,268.181 241.5,271.5C 240.833,271.5 240.167,271.5 239.5,271.5C 237.5,271.167 235.5,270.833 233.5,270.5C 241.8,266.015 249.8,261.015 257.5,255.5 Z"/></g>
<g><path style="opacity:1" fill="#a2a09c" d="M 495.5,244.5 C 495.5,247.833 495.5,251.167 495.5,254.5C 495.714,256.144 495.38,257.644 494.5,259C 486.781,262.005 478.781,263.171 470.5,262.5C 465.425,262.351 460.425,261.685 455.5,260.5C 455.5,260.167 455.5,259.833 455.5,259.5C 457.099,259.768 458.432,259.434 459.5,258.5C 465.567,259.447 471.567,259.447 477.5,258.5C 482.009,258.29 486.342,257.29 490.5,255.5C 491.167,252.023 491.834,248.689 492.5,245.5C 493.609,245.443 494.609,245.11 495.5,244.5 Z"/></g>
<g><path style="opacity:1" fill="#cec05a" d="M 257.5,261.5 C 259.424,265.094 262.09,268.094 265.5,270.5C 266.861,272.527 268.527,274.194 270.5,275.5C 260.77,274.575 251.103,273.242 241.5,271.5C 246.797,268.181 252.131,264.847 257.5,261.5 Z"/></g>
<g><path style="opacity:1" fill="#93893f" d="M 388.5,255.5 C 390.142,256.803 391.809,258.136 393.5,259.5C 394.167,259.5 394.5,259.833 394.5,260.5C 393.448,260.351 392.448,260.517 391.5,261C 386.656,266.119 380.656,268.619 373.5,268.5C 368.006,268.79 363.673,266.79 360.5,262.5C 367.985,265.687 374.985,265.02 381.5,260.5C 384.093,259.246 386.427,257.58 388.5,255.5 Z"/></g>
<g><path style="opacity:1" fill="#94893f" d="M 352.5,248.5 C 353.451,249.919 353.784,251.585 353.5,253.5C 343.1,266.7 329.434,273.533 312.5,274C 306.564,270.529 300.564,267.362 294.5,264.5C 294.208,269.409 292.541,273.742 289.5,277.5C 289.167,277.5 288.833,277.5 288.5,277.5C 283.87,276.771 279.203,276.437 274.5,276.5C 273.167,276.167 271.833,275.833 270.5,275.5C 268.527,274.194 266.861,272.527 265.5,270.5C 268.574,271.302 271.574,272.302 274.5,273.5C 277.743,274.58 281.076,274.747 284.5,274C 288.02,269.793 290.02,264.96 290.5,259.5C 292.062,259.733 293.395,260.4 294.5,261.5C 297.571,263.898 300.905,265.898 304.5,267.5C 305.6,268.558 306.934,269.392 308.5,270C 315.101,270.768 321.434,269.768 327.5,267C 337.288,262.775 345.621,256.609 352.5,248.5 Z"/></g>
<g><path style="opacity:1" fill="#d1d679" d="M 269.5,236.5 C 271.148,238.429 272.815,240.429 274.5,242.5C 280.428,243.127 285.094,245.794 288.5,250.5C 289.578,253.402 290.244,256.402 290.5,259.5C 290.02,264.96 288.02,269.793 284.5,274C 281.076,274.747 277.743,274.58 274.5,273.5C 267.803,265.051 265.137,255.384 266.5,244.5C 269.099,242.614 270.099,239.948 269.5,236.5 Z"/></g>
<g><path style="opacity:1" fill="#9db74b" d="M 269.5,247.5 C 271.614,248.36 272.78,250.027 273,252.5C 273.576,249.876 274.91,249.209 277,250.5C 278.483,254.435 279.649,258.435 280.5,262.5C 279.178,262.67 278.011,262.337 277,261.5C 276.79,264.269 277.623,266.769 279.5,269C 276.72,269.269 274.554,268.102 273,265.5C 269.384,259.862 268.217,253.862 269.5,247.5 Z"/></g>
<g><path style="opacity:1" fill="#a5a4a1" d="M 233.5,270.5 C 235.5,270.833 237.5,271.167 239.5,271.5C 239.389,272.117 239.056,272.617 238.5,273C 228.574,277.452 218.241,279.452 207.5,279C 204.894,278.208 202.894,276.708 201.5,274.5C 201.833,274.5 202.167,274.5 202.5,274.5C 207.416,275.611 212.416,275.778 217.5,275C 222.927,273.802 228.26,272.302 233.5,270.5 Z"/></g>
<g><path style="opacity:1" fill="#a7a49e" d="M 420.5,269.5 C 418.854,271.812 416.854,273.812 414.5,275.5C 412.812,274.479 411.479,273.145 410.5,271.5C 411.609,271.443 412.609,271.11 413.5,270.5C 415.806,270.007 418.139,269.674 420.5,269.5 Z"/></g>
<g><path style="opacity:1" fill="#a6a5a3" d="M 274.5,276.5 C 279.203,276.437 283.87,276.771 288.5,277.5C 283.738,278.891 279.072,278.558 274.5,276.5 Z"/></g>
</svg>
