<?xml version="1.0" encoding="UTF-8"?>
<!DOCTYPE svg PUBLIC "-//W3C//DTD SVG 1.1//EN" "http://www.w3.org/Graphics/SVG/1.1/DTD/svg11.dtd">
<svg xmlns="http://www.w3.org/2000/svg" version="1.1" width="681px" height="366px" style="shape-rendering:geometricPrecision; text-rendering:geometricPrecision; image-rendering:optimizeQuality; fill-rule:evenodd; clip-rule:evenodd" xmlns:xlink="http://www.w3.org/1999/xlink">
<g><path style="opacity:1" fill="#e5e5e4" d="M 366.5,72.5 C 416.974,75.625 466.641,84.125 515.5,98C 543.382,106.61 569.382,118.943 593.5,135C 607.519,145.015 618.686,157.515 627,172.5C 634.333,187.833 634.333,203.167 627,218.5C 617.649,236.185 604.482,250.352 587.5,261C 555.72,279.933 521.72,293.6 485.5,302C 388.648,323.226 291.648,323.893 194.5,304C 152.333,295.407 113.333,279.407 77.5,256C 63.4217,246.259 52.5884,233.759 45,218.5C 37.8422,200.147 39.1755,182.48 49,165.5C 59.9701,149.528 73.8035,136.695 90.5,127C 128.365,105.933 168.698,91.5992 211.5,84C 228.973,81.1545 246.307,78.3212 263.5,75.5C 275.386,75.3562 287.053,74.3562 298.5,72.5C 321.175,71.2616 343.841,71.2616 366.5,72.5 Z"/></g>
<g><path style="opacity:0.784" fill="#7f8c8e" d="M 298.5,72.5 C 287.053,74.3562 275.386,75.3562 263.5,75.5C 274.964,73.8476 286.631,72.8476 298.5,72.5 Z"/></g>
<g><path style="opacity:0.999" fill="#959798" d="M 366.5,72.5 C 431.809,73.6056 494.809,86.1056 555.5,110C 581.596,120.615 604.263,136.115 623.5,156.5C 629.28,164.39 633.78,173.056 637,182.5C 640.188,197.23 638.188,211.23 631,224.5C 620.175,240.99 606.342,254.49 589.5,265C 560.379,282.154 529.379,294.821 496.5,303C 407.895,323.472 318.562,327.139 228.5,314C 180.784,307.094 135.451,292.761 92.5,271C 82.4309,264.975 72.7642,258.475 63.5,251.5C 25.0607,217.323 23.7274,181.823 59.5,145C 83.145,125.171 109.812,110.504 139.5,101C 179.775,87.3118 221.108,78.8118 263.5,75.5C 246.307,78.3212 228.973,81.1545 211.5,84C 168.698,91.5992 128.365,105.933 90.5,127C 73.8035,136.695 59.9701,149.528 49,165.5C 39.1755,182.48 37.8422,200.147 45,218.5C 52.5884,233.759 63.4217,246.259 77.5,256C 113.333,279.407 152.333,295.407 194.5,304C 291.648,323.893 388.648,323.226 485.5,302C 521.72,293.6 555.72,279.933 587.5,261C 604.482,250.352 617.649,236.185 627,218.5C 634.333,203.167 634.333,187.833 627,172.5C 618.686,157.515 607.519,145.015 593.5,135C 569.382,118.943 543.382,106.61 515.5,98C 466.641,84.125 416.974,75.625 366.5,72.5 Z"/></g>
<g><path style="opacity:1" fill="#cccccc" d="M 548.5,144.5 C 546.171,138.423 542.671,133.089 538,128.5C 537.51,127.207 537.343,125.873 537.5,124.5C 536.5,124.5 535.5,124.5 534.5,124.5C 534.5,122.5 534.5,120.5 534.5,118.5C 527.281,119.548 520.948,117.715 515.5,113C 514.207,112.51 512.873,112.343 511.5,112.5C 511.374,109.405 509.707,107.572 506.5,107C 500.701,106.918 495.201,105.751 490,103.5C 489.127,103.735 488.293,104.069 487.5,104.5C 486.293,102.73 484.626,101.73 482.5,101.5C 476.481,100.171 470.481,100.171 464.5,101.5C 428.785,90.123 392.118,82.623 354.5,79C 340.169,77.9668 325.836,76.9668 311.5,76C 375.989,73.9811 439.322,81.3144 501.5,98C 536.868,107.684 568.868,123.684 597.5,146C 609.693,157.19 618.193,170.69 623,186.5C 624.808,204.406 620.142,220.406 609,234.5C 595.278,249.441 579.445,261.607 561.5,271C 523.978,289.174 484.645,301.508 443.5,308C 400.749,314.616 357.749,317.283 314.5,316C 375.342,314.047 434.342,302.714 491.5,282C 511.405,273.384 530.072,262.718 547.5,250C 557.552,241.625 565.719,231.792 572,220.5C 578.919,205.299 579.252,189.965 573,174.5C 567.155,162.5 558.988,152.5 548.5,144.5 Z"/></g>
<g><path style="opacity:1" fill="#f3edd6" d="M 548.5,144.5 C 550.067,147.283 551.9,149.949 554,152.5C 554.75,157.208 556.417,161.542 559,165.5C 559.002,169.339 558.835,173.172 558.5,177C 560.25,178.754 560.917,180.921 560.5,183.5C 558.831,185.509 557.164,187.509 555.5,189.5C 554.252,188.96 553.085,188.293 552,187.5C 551.759,190.289 551.092,192.956 550,195.5C 548.644,196.38 547.144,196.714 545.5,196.5C 546.093,199.596 545.093,201.929 542.5,203.5C 541.914,203.291 541.414,202.957 541,202.5C 540.959,208.914 538.292,210.581 533,207.5C 531.992,212.218 529.326,213.885 525,212.5C 525.208,217.794 522.708,220.127 517.5,219.5C 517.5,220.833 517.5,222.167 517.5,223.5C 515.278,223.822 513.444,223.155 512,221.5C 511.727,223.101 511.227,224.601 510.5,226C 505.534,226.146 500.7,226.979 496,228.5C 494.018,228.01 492.351,227.01 491,225.5C 490.535,226.931 489.701,228.097 488.5,229C 485.131,229.663 481.797,229.496 478.5,228.5C 475.833,229.5 473.167,230.5 470.5,231.5C 468.399,231.368 466.899,230.368 466,228.5C 461.765,232.827 458.265,232.494 455.5,227.5C 456.523,225.997 457.523,224.497 458.5,223C 457.956,221.053 456.623,220.22 454.5,220.5C 452.681,220.342 451.348,221.009 450.5,222.5C 452.297,223.695 453.297,225.362 453.5,227.5C 449.92,228.077 446.92,227.077 444.5,224.5C 441.897,225.562 439.23,225.728 436.5,225C 435.874,224.25 435.374,223.416 435,222.5C 433.211,224.229 431.044,224.896 428.5,224.5C 428.663,222.143 428.497,219.81 428,217.5C 421.526,219.427 417.193,217.094 415,210.5C 412.01,214.515 409.177,214.349 406.5,210C 403.947,209.239 401.447,208.406 399,207.5C 398.508,206.451 398.674,205.451 399.5,204.5C 395.047,203.364 393.714,200.697 395.5,196.5C 394.653,195.155 393.487,194.155 392,193.5C 391.503,191.19 391.337,188.857 391.5,186.5C 389.833,186.5 388.167,186.5 386.5,186.5C 386.737,185.209 386.404,184.209 385.5,183.5C 384.243,181.632 384.576,179.965 386.5,178.5C 385.833,177.167 385.167,175.833 384.5,174.5C 386.171,172.49 386.838,170.157 386.5,167.5C 386.511,165.983 387.177,164.816 388.5,164C 387.748,163.329 387.414,162.496 387.5,161.5C 388.287,159.896 389.62,159.229 391.5,159.5C 390.451,155.169 392.118,153.003 396.5,153C 394.137,150.916 394.137,149.083 396.5,147.5C 398.796,143.523 401.129,139.523 403.5,135.5C 405.751,133.316 407.917,130.983 410,128.5C 410.471,126.754 411.138,125.087 412,123.5C 415.13,121.372 417.963,118.872 420.5,116C 424.29,114.19 428.29,113.023 432.5,112.5C 435.301,110.927 437.968,109.094 440.5,107C 443.167,106.667 445.833,106.333 448.5,106C 450.838,103.581 453.505,103.081 456.5,104.5C 459.34,103.797 462.007,102.797 464.5,101.5C 470.481,100.171 476.481,100.171 482.5,101.5C 484.626,101.73 486.293,102.73 487.5,104.5C 488.293,104.069 489.127,103.735 490,103.5C 495.201,105.751 500.701,106.918 506.5,107C 509.707,107.572 511.374,109.405 511.5,112.5C 512.873,112.343 514.207,112.51 515.5,113C 520.948,117.715 527.281,119.548 534.5,118.5C 534.5,120.5 534.5,122.5 534.5,124.5C 535.5,124.5 536.5,124.5 537.5,124.5C 537.343,125.873 537.51,127.207 538,128.5C 542.671,133.089 546.171,138.423 548.5,144.5 Z"/></g>
<g><path style="opacity:1" fill="#fdfdfd" d="M 136.5,108.5 C 137.552,108.351 138.552,108.517 139.5,109C 111.869,120.06 87.7028,136.226 67,157.5C 47.067,182.925 46.4004,208.925 65,235.5C 80.3028,252.4 98.4695,265.234 119.5,274C 96.2484,267.521 75.7484,254.687 58,235.5C 41.1727,214.075 39.1727,191.408 52,167.5C 65.0827,149.422 81.5827,135.255 101.5,125C 113.057,118.884 124.724,113.384 136.5,108.5 Z"/></g>
<g><path style="opacity:1" fill="#d97335" d="M 154.5,113.5 C 156.857,113.337 159.19,113.503 161.5,114C 164.167,115.667 166.833,117.333 169.5,119C 186.388,123.187 200.888,131.354 213,143.5C 213.528,144.816 213.028,145.483 211.5,145.5C 211.167,145.5 210.833,145.5 210.5,145.5C 206.662,141.09 201.662,138.756 195.5,138.5C 187.087,129.797 176.754,125.131 164.5,124.5C 163.833,124.167 163.167,123.833 162.5,123.5C 161.167,121.5 159.5,119.833 157.5,118.5C 156.075,117.078 155.075,115.411 154.5,113.5 Z"/></g>
<g><path style="opacity:1" fill="#fefefe" d="M 157.5,118.5 C 159.5,119.833 161.167,121.5 162.5,123.5C 154.312,130.966 145.979,138.466 137.5,146C 125.747,145.703 114.08,144.369 102.5,142C 113.455,130.383 126.122,121.049 140.5,114C 141.833,113.333 143.167,113.333 144.5,114C 148.756,115.807 153.089,117.307 157.5,118.5 Z"/></g>
<g><path style="opacity:1" fill="#d89159" d="M 244.5,123.5 C 246.335,124.122 247.502,125.456 248,127.5C 249.205,135.119 249.705,142.786 249.5,150.5C 243.032,152.085 236.699,151.752 230.5,149.5C 230.922,144.763 229.588,140.763 226.5,137.5C 227.117,137.611 227.617,137.944 228,138.5C 230.306,131.413 233.472,124.746 237.5,118.5C 241.057,118.01 243.391,119.677 244.5,123.5 Z"/></g>
<g><path style="opacity:1" fill="#c46819" d="M 164.5,124.5 C 176.754,125.131 187.087,129.797 195.5,138.5C 193.833,139.5 192.5,140.833 191.5,142.5C 182.31,139.493 172.976,136.993 163.5,135C 160.864,131.31 161.197,127.81 164.5,124.5 Z"/></g>
<g><path style="opacity:1" fill="#e2ad80" d="M 206.5,118.5 C 214.429,123.427 221.096,129.761 226.5,137.5C 229.588,140.763 230.922,144.763 230.5,149.5C 229.791,150.404 228.791,150.737 227.5,150.5C 225.369,149.686 223.036,149.186 220.5,149C 225.733,147.213 225.399,146.047 219.5,145.5C 216.935,146.079 214.935,147.412 213.5,149.5C 213.267,147.938 212.6,146.605 211.5,145.5C 213.028,145.483 213.528,144.816 213,143.5C 200.888,131.354 186.388,123.187 169.5,119C 166.833,117.333 164.167,115.667 161.5,114C 159.19,113.503 156.857,113.337 154.5,113.5C 157.092,110.544 160.426,109.211 164.5,109.5C 178.722,111.646 192.722,114.646 206.5,118.5 Z"/></g>
<g><path style="opacity:1" fill="#dc854a" d="M 216.5,139.5 C 219.734,139.205 222.734,139.871 225.5,141.5C 222.124,142.711 218.791,142.544 215.5,141C 216.056,140.617 216.389,140.117 216.5,139.5 Z"/></g>
<g><path style="opacity:1" fill="#d97739" d="M 211.5,136.5 C 214.355,135.197 217.355,135.197 220.5,136.5C 217.463,137.741 214.463,137.741 211.5,136.5 Z"/></g>
<g><path style="opacity:1" fill="#db7e42" d="M 206.5,130.5 C 210.869,129.923 214.869,130.757 218.5,133C 214.5,133.667 210.5,133.667 206.5,133C 205.402,132.23 205.402,131.397 206.5,130.5 Z"/></g>
<g><path style="opacity:1" fill="#d97a3e" d="M 201.5,127.5 C 206.032,127.069 210.365,127.569 214.5,129C 209.5,129.667 204.5,129.667 199.5,129C 200.416,128.722 201.082,128.222 201.5,127.5 Z"/></g>
<g><path style="opacity:1" fill="#da783a" d="M 199.5,123.5 C 202.978,123.184 206.312,123.684 209.5,125C 204.514,125.916 199.514,126.25 194.5,126C 196.315,125.243 197.981,124.41 199.5,123.5 Z"/></g>
<g><path style="opacity:1" fill="#d9793c" d="M 195.5,120.5 C 199.048,120.095 202.381,120.595 205.5,122C 200.174,122.852 194.84,123.186 189.5,123C 191.611,122.155 193.611,121.322 195.5,120.5 Z"/></g>
<g><path style="opacity:1" fill="#da763a" d="M 188.5,118.5 C 191.187,118.336 193.854,118.503 196.5,119C 192.93,120.428 189.264,121.094 185.5,121C 186.571,120.148 187.571,119.315 188.5,118.5 Z"/></g>
<g><path style="opacity:1" fill="#d9783a" d="M 181.5,115.5 C 184.187,115.336 186.854,115.503 189.5,116C 185.319,117.769 180.986,118.769 176.5,119C 178.233,117.811 179.9,116.644 181.5,115.5 Z"/></g>
<g><path style="opacity:1" fill="#da783b" d="M 172.5,114.5 C 181.629,114.158 181.796,115.158 173,117.5C 171.317,116.824 171.15,115.824 172.5,114.5 Z"/></g>
<g><path style="opacity:1" fill="#a3b122" d="M 394.5,144.5 C 395.401,145.29 396.068,146.29 396.5,147.5C 394.137,149.083 394.137,150.916 396.5,153C 392.118,153.003 390.451,155.169 391.5,159.5C 389.62,159.229 388.287,159.896 387.5,161.5C 379.9,161.704 374.567,158.371 371.5,151.5C 374.535,143.657 380.202,139.824 388.5,140C 391.106,140.792 393.106,142.292 394.5,144.5 Z"/></g>
<g><path style="opacity:1" fill="#d67133" d="M 257.5,145.5 C 257.5,146.833 257.5,148.167 257.5,149.5C 264.811,150.469 272.144,150.636 279.5,150C 281.973,149.78 283.64,148.614 284.5,146.5C 287.81,148.482 290.81,150.815 293.5,153.5C 293.5,154.5 293.5,155.5 293.5,156.5C 299.692,158.928 306.025,159.095 312.5,157C 313.823,156.184 314.489,155.017 314.5,153.5C 319.859,151.312 325.192,148.812 330.5,146C 333.146,145.503 335.813,145.336 338.5,145.5C 339.347,146.966 340.68,147.8 342.5,148C 343.252,148.671 343.586,149.504 343.5,150.5C 339.525,150.486 336.192,151.819 333.5,154.5C 332.833,154.5 332.5,154.833 332.5,155.5C 330.388,156.44 328.388,157.606 326.5,159C 320.712,159.961 315.045,160.795 309.5,161.5C 303.131,161.347 296.797,161.68 290.5,162.5C 290.89,158.283 289.39,154.95 286,152.5C 279.67,155.203 273.17,155.87 266.5,154.5C 262.741,154.138 259.407,152.805 256.5,150.5C 256.216,148.585 256.549,146.919 257.5,145.5 Z"/></g>
<g><path style="opacity:1" fill="#fefefe" d="M 95.5,146.5 C 106.619,148.131 117.619,149.964 128.5,152C 118.407,161.686 112.741,173.519 111.5,187.5C 99.1633,187.734 86.83,188.067 74.5,188.5C 73.1592,170.116 80.1592,156.116 95.5,146.5 Z"/></g>
<g><path style="opacity:1" fill="#c96c1e" d="M 174.5,151.5 C 171.202,152.237 168.369,153.904 166,156.5C 160.918,156.963 156.084,158.296 151.5,160.5C 150.438,161.425 150.438,162.425 151.5,163.5C 157.075,167.311 160.075,172.645 160.5,179.5C 159.352,175.601 157.352,172.101 154.5,169C 152.323,167.798 149.989,167.298 147.5,167.5C 143.72,160.346 145.386,154.846 152.5,151C 158.465,146.995 164.798,145.995 171.5,148C 172.71,149.039 173.71,150.206 174.5,151.5 Z"/></g>
<g><path style="opacity:1" fill="#d9935c" d="M 195.5,138.5 C 201.662,138.756 206.662,141.09 210.5,145.5C 208.761,144.566 207.095,144.566 205.5,145.5C 207.91,147.372 210.577,148.705 213.5,149.5C 214.935,147.412 216.935,146.079 219.5,145.5C 225.399,146.047 225.733,147.213 220.5,149C 223.036,149.186 225.369,149.686 227.5,150.5C 226.448,150.351 225.448,150.517 224.5,151C 226.196,152.176 227.862,153.343 229.5,154.5C 229.414,155.496 229.748,156.329 230.5,157C 229.584,157.278 228.918,157.778 228.5,158.5C 229.262,160.262 230.596,161.262 232.5,161.5C 234.179,161.285 235.179,161.952 235.5,163.5C 231.689,165.589 227.689,165.922 223.5,164.5C 222.968,162.259 221.635,160.759 219.5,160C 211.905,159.885 204.905,157.885 198.5,154C 195.456,153.637 192.456,153.137 189.5,152.5C 189.506,149.482 190.506,146.816 192.5,144.5C 192.137,143.817 191.804,143.15 191.5,142.5C 192.5,140.833 193.833,139.5 195.5,138.5 Z"/></g>
<g><path style="opacity:1" fill="#f6ece1" d="M 210.5,145.5 C 210.833,145.5 211.167,145.5 211.5,145.5C 212.6,146.605 213.267,147.938 213.5,149.5C 210.577,148.705 207.91,147.372 205.5,145.5C 207.095,144.566 208.761,144.566 210.5,145.5 Z"/></g>
<g><path style="opacity:1" fill="#f8eee5" d="M 196.5,140.5 C 198.665,140.116 200.332,140.783 201.5,142.5C 198.83,144.09 197.163,143.423 196.5,140.5 Z"/></g>
<g><path style="opacity:1" fill="#93a120" d="M 343.5,150.5 C 349.814,149.641 352.481,152.308 351.5,158.5C 349.488,159.014 347.488,159.18 345.5,159C 345.957,158.586 346.291,158.086 346.5,157.5C 345.311,156.571 343.978,156.238 342.5,156.5C 342.5,157.5 342.5,158.5 342.5,159.5C 340.143,159.663 337.81,159.497 335.5,159C 333.963,157.89 333.297,156.39 333.5,154.5C 336.192,151.819 339.525,150.486 343.5,150.5 Z"/></g>
<g><path style="opacity:1" fill="#d88d50" d="M 309.5,161.5 C 310.889,165.555 310.222,169.221 307.5,172.5C 301.683,174.152 296.017,173.819 290.5,171.5C 289.307,173.527 287.64,175.027 285.5,176C 281.79,176.895 278.123,177.895 274.5,179C 273.848,181.09 273.681,183.257 274,185.5C 268.999,188.002 265.166,191.668 262.5,196.5C 263.544,198.768 263.711,201.101 263,203.5C 258.952,211.198 252.952,216.865 245,220.5C 243.831,219.991 242.998,219.158 242.5,218C 236.837,217.918 231.504,216.584 226.5,214C 231.821,210.891 237.488,208.558 243.5,207C 251.204,198.095 256.704,187.929 260,176.5C 261.008,171.824 261.675,167.157 262,162.5C 261.329,161.748 260.496,161.414 259.5,161.5C 259.167,160.833 258.833,160.167 258.5,159.5C 262.562,158.65 266.562,157.483 270.5,156C 268.942,155.79 267.609,155.29 266.5,154.5C 273.17,155.87 279.67,155.203 286,152.5C 289.39,154.95 290.89,158.283 290.5,162.5C 296.797,161.68 303.131,161.347 309.5,161.5 Z"/></g>
<g><path style="opacity:1" fill="#af6332" d="M 293.5,153.5 C 297.693,155.623 302.027,155.956 306.5,154.5C 307.833,154.5 309.167,154.5 310.5,154.5C 311.833,154.167 313.167,153.833 314.5,153.5C 314.489,155.017 313.823,156.184 312.5,157C 306.025,159.095 299.692,158.928 293.5,156.5C 293.5,155.5 293.5,154.5 293.5,153.5 Z"/></g>
<g><path style="opacity:1" fill="#db7235" d="M 189.5,152.5 C 192.456,153.137 195.456,153.637 198.5,154C 204.905,157.885 211.905,159.885 219.5,160C 221.635,160.759 222.968,162.259 223.5,164.5C 227.689,165.922 231.689,165.589 235.5,163.5C 237.213,164.635 237.88,166.302 237.5,168.5C 234.689,168.429 232.022,167.762 229.5,166.5C 222.334,169.461 215.001,170.128 207.5,168.5C 207.158,167.662 206.492,167.328 205.5,167.5C 205.5,167.167 205.5,166.833 205.5,166.5C 206.791,165.458 206.791,164.292 205.5,163C 201.136,160.818 196.802,158.651 192.5,156.5C 191.893,156.624 191.56,156.957 191.5,157.5C 188.022,156.063 184.689,156.23 181.5,158C 184.817,158.498 188.15,158.665 191.5,158.5C 188.375,159.479 185.042,159.813 181.5,159.5C 180.167,159.167 178.833,158.833 177.5,158.5C 177.833,157.5 178.5,156.833 179.5,156.5C 182.079,155.772 184.746,155.272 187.5,155C 188.066,154.005 188.733,153.172 189.5,152.5 Z"/></g>
<g><path style="opacity:1" fill="#fcf8f5" d="M 191.5,157.5 C 191.5,157.833 191.5,158.167 191.5,158.5C 188.15,158.665 184.817,158.498 181.5,158C 184.689,156.23 188.022,156.063 191.5,157.5 Z"/></g>
<g><path style="opacity:1" fill="#a45512" d="M 332.5,155.5 C 332.5,156.833 332.5,158.167 332.5,159.5C 331.158,160.793 329.491,161.626 327.5,162C 322.167,162.667 316.833,163.333 311.5,164C 312.591,166.064 312.758,168.231 312,170.5C 310.925,173.894 309.758,177.228 308.5,180.5C 305.122,181.023 302.122,182.356 299.5,184.5C 299.167,184.5 298.833,184.5 298.5,184.5C 294.676,186.162 290.676,187.329 286.5,188C 283.127,191.763 279.294,194.93 275,197.5C 274.488,203.042 271.821,207.375 267,210.5C 264.981,222.687 257.815,229.02 245.5,229.5C 240.727,227.459 235.727,225.959 230.5,225C 229.619,224.292 228.953,223.458 228.5,222.5C 233.697,223.68 238.864,225.013 244,226.5C 255.257,226.244 261.924,220.577 264,209.5C 265.817,206.684 267.983,204.184 270.5,202C 270.732,198.442 272.065,195.442 274.5,193C 278.043,191.392 281.043,189.058 283.5,186C 290.792,184.094 297.792,181.427 304.5,178C 306.607,176.736 307.607,174.903 307.5,172.5C 310.222,169.221 310.889,165.555 309.5,161.5C 315.045,160.795 320.712,159.961 326.5,159C 328.388,157.606 330.388,156.44 332.5,155.5 Z"/></g>
<g><path style="opacity:1" fill="#ef5a24" d="M 205.5,166.5 C 202.141,168.487 198.475,168.987 194.5,168C 190.102,165.143 185.768,162.309 181.5,159.5C 185.042,159.813 188.375,159.479 191.5,158.5C 191.5,158.167 191.5,157.833 191.5,157.5C 191.56,156.957 191.893,156.624 192.5,156.5C 196.802,158.651 201.136,160.818 205.5,163C 206.791,164.292 206.791,165.458 205.5,166.5 Z"/></g>
<g><path style="opacity:1" fill="#7d8617" d="M 333.5,154.5 C 333.297,156.39 333.963,157.89 335.5,159C 337.81,159.497 340.143,159.663 342.5,159.5C 342.5,158.5 342.5,157.5 342.5,156.5C 343.978,156.238 345.311,156.571 346.5,157.5C 346.291,158.086 345.957,158.586 345.5,159C 347.488,159.18 349.488,159.014 351.5,158.5C 349.277,163.206 345.444,165.54 340,165.5C 338.833,165.333 337.667,165.167 336.5,165C 335.023,163.188 333.69,161.355 332.5,159.5C 332.5,158.167 332.5,156.833 332.5,155.5C 332.5,154.833 332.833,154.5 333.5,154.5 Z"/></g>
<g><path style="opacity:1" fill="#faf7f2" d="M 228.5,158.5 C 230.973,158.088 232.306,159.088 232.5,161.5C 230.596,161.262 229.262,160.262 228.5,158.5 Z"/></g>
<g><path style="opacity:1" fill="#f6ede2" d="M 255.5,160.5 C 254.365,162.213 252.698,162.88 250.5,162.5C 251.552,160.744 253.219,160.077 255.5,160.5 Z"/></g>
<g><path style="opacity:1" fill="#d9935b" d="M 258.5,159.5 C 258.833,160.167 259.167,160.833 259.5,161.5C 255.164,168.164 252.664,175.497 252,183.5C 249.971,186.596 247.138,188.262 243.5,188.5C 246.587,195.213 245.253,201.046 239.5,206C 230.387,209.093 221.053,211.259 211.5,212.5C 210.326,211.486 209.66,210.153 209.5,208.5C 217.932,207.99 226.265,206.824 234.5,205C 237.022,203.641 238.355,201.474 238.5,198.5C 239.097,198.265 239.43,197.765 239.5,197C 238.999,193.952 237.666,191.452 235.5,189.5C 234.925,187.589 233.925,185.922 232.5,184.5C 233.5,183.833 234.5,183.167 235.5,182.5C 235.5,181.833 235.5,181.167 235.5,180.5C 236.552,180.649 237.552,180.483 238.5,180C 236.299,178.957 233.966,178.123 231.5,177.5C 234.428,176.516 237.428,176.183 240.5,176.5C 240.5,175.5 240.5,174.5 240.5,173.5C 238.396,173.799 236.396,173.466 234.5,172.5C 239.132,171.672 243.798,171.172 248.5,171C 245.441,170.355 242.441,169.522 239.5,168.5C 240.77,167.712 241.77,166.712 242.5,165.5C 243.833,164.833 245.167,164.167 246.5,163.5C 247.708,162.766 249.041,162.433 250.5,162.5C 252.698,162.88 254.365,162.213 255.5,160.5C 256.209,159.596 257.209,159.263 258.5,159.5 Z"/></g>
<g><path style="opacity:1" fill="#f8f0e7" d="M 270.5,162.5 C 275.506,162.566 275.506,163.566 270.5,165.5C 269.438,164.575 269.438,163.575 270.5,162.5 Z"/></g>
<g><path style="opacity:1" fill="#faf7f4" d="M 246.5,163.5 C 245.167,164.167 243.833,164.833 242.5,165.5C 240.158,165.225 240.158,164.392 242.5,163C 244.066,162.235 245.399,162.402 246.5,163.5 Z"/></g>
<g><path style="opacity:1" fill="#879319" d="M 371.5,151.5 C 374.567,158.371 379.9,161.704 387.5,161.5C 387.414,162.496 387.748,163.329 388.5,164C 387.177,164.816 386.511,165.983 386.5,167.5C 375.834,167.175 370.834,161.842 371.5,151.5 Z"/></g>
<g><path style="opacity:1" fill="#db9e69" d="M 256.5,150.5 C 259.407,152.805 262.741,154.138 266.5,154.5C 267.609,155.29 268.942,155.79 270.5,156C 266.562,157.483 262.562,158.65 258.5,159.5C 257.209,159.263 256.209,159.596 255.5,160.5C 253.219,160.077 251.552,160.744 250.5,162.5C 249.041,162.433 247.708,162.766 246.5,163.5C 245.399,162.402 244.066,162.235 242.5,163C 240.158,164.392 240.158,165.225 242.5,165.5C 241.77,166.712 240.77,167.712 239.5,168.5C 242.441,169.522 245.441,170.355 248.5,171C 243.798,171.172 239.132,171.672 234.5,172.5C 236.396,173.466 238.396,173.799 240.5,173.5C 240.5,174.5 240.5,175.5 240.5,176.5C 237.428,176.183 234.428,176.516 231.5,177.5C 233.966,178.123 236.299,178.957 238.5,180C 237.552,180.483 236.552,180.649 235.5,180.5C 232.606,180.042 230.106,180.709 228,182.5C 227.536,181.906 227.369,181.239 227.5,180.5C 230.172,168.696 229.505,168.529 225.5,180C 222.846,180.941 220.179,181.774 217.5,182.5C 216.232,181.213 216.565,180.213 218.5,179.5C 215.516,176.674 212.183,174.341 208.5,172.5C 207.571,171.311 207.238,169.978 207.5,168.5C 215.001,170.128 222.334,169.461 229.5,166.5C 232.022,167.762 234.689,168.429 237.5,168.5C 237.88,166.302 237.213,164.635 235.5,163.5C 235.179,161.952 234.179,161.285 232.5,161.5C 232.306,159.088 230.973,158.088 228.5,158.5C 228.918,157.778 229.584,157.278 230.5,157C 229.748,156.329 229.414,155.496 229.5,154.5C 232.167,154.833 234.833,155.167 237.5,155.5C 236.282,156.161 234.949,156.828 233.5,157.5C 235.047,159.194 236.88,160.527 239,161.5C 240.3,160.293 241.8,159.626 243.5,159.5C 243.351,158.448 243.517,157.448 244,156.5C 246.12,159.08 248.287,159.08 250.5,156.5C 255.612,157.752 255.779,157.085 251,154.5C 249.56,155.148 248.06,155.481 246.5,155.5C 247.028,154.279 247.695,153.113 248.5,152C 251.207,151.605 253.873,151.105 256.5,150.5 Z"/></g>
<g><path style="opacity:1" fill="#de905a" d="M 237.5,155.5 C 240.5,155.5 243.5,155.5 246.5,155.5C 248.06,155.481 249.56,155.148 251,154.5C 255.779,157.085 255.612,157.752 250.5,156.5C 248.287,159.08 246.12,159.08 244,156.5C 243.517,157.448 243.351,158.448 243.5,159.5C 241.8,159.626 240.3,160.293 239,161.5C 236.88,160.527 235.047,159.194 233.5,157.5C 234.949,156.828 236.282,156.161 237.5,155.5 Z"/></g>
<g><path style="opacity:1" fill="#d97a3e" d="M 178.5,167.5 C 179.167,167.5 179.5,167.833 179.5,168.5C 175.179,171.125 170.513,171.958 165.5,171C 169.584,169.062 173.917,167.895 178.5,167.5 Z"/></g>
<g><path style="opacity:1" fill="#b58660" d="M 177.5,164.5 C 184.833,167.5 192.167,170.5 199.5,173.5C 199.5,174.5 199.5,175.5 199.5,176.5C 196.833,175.5 194.167,174.5 191.5,173.5C 187.797,171.321 183.797,169.655 179.5,168.5C 179.5,167.833 179.167,167.5 178.5,167.5C 177.89,166.609 177.557,165.609 177.5,164.5 Z"/></g>
<g><path style="opacity:1" fill="#c54e21" d="M 177.5,158.5 C 178.833,158.833 180.167,159.167 181.5,159.5C 185.768,162.309 190.102,165.143 194.5,168C 198.475,168.987 202.141,168.487 205.5,166.5C 205.5,166.833 205.5,167.167 205.5,167.5C 205.313,169.564 204.813,171.564 204,173.5C 202.51,174.728 201.01,174.728 199.5,173.5C 192.167,170.5 184.833,167.5 177.5,164.5C 177.565,164.062 177.399,163.728 177,163.5C 173.421,167.58 169.255,168.414 164.5,166C 168.207,165.263 171.873,164.429 175.5,163.5C 175.12,161.302 175.787,159.635 177.5,158.5 Z"/></g>
<g><path style="opacity:1" fill="#e2ad7f" d="M 174.5,151.5 C 176.5,152.833 178.167,154.5 179.5,156.5C 178.5,156.833 177.833,157.5 177.5,158.5C 175.787,159.635 175.12,161.302 175.5,163.5C 171.873,164.429 168.207,165.263 164.5,166C 169.255,168.414 173.421,167.58 177,163.5C 177.399,163.728 177.565,164.062 177.5,164.5C 177.557,165.609 177.89,166.609 178.5,167.5C 173.917,167.895 169.584,169.062 165.5,171C 170.513,171.958 175.179,171.125 179.5,168.5C 183.797,169.655 187.797,171.321 191.5,173.5C 191.5,173.833 191.5,174.167 191.5,174.5C 190.678,176.389 189.845,178.389 189,180.5C 187.989,181.337 186.822,181.67 185.5,181.5C 185.53,180.503 185.03,179.836 184,179.5C 182.05,179.707 180.884,180.707 180.5,182.5C 179.866,183.947 178.699,184.613 177,184.5C 173.664,183.027 170.164,182.36 166.5,182.5C 166.023,172.525 161.023,166.192 151.5,163.5C 150.438,162.425 150.438,161.425 151.5,160.5C 156.084,158.296 160.918,156.963 166,156.5C 168.369,153.904 171.202,152.237 174.5,151.5 Z"/></g>
<g><path style="opacity:1" fill="#d9793c" d="M 172.5,157.5 C 173.645,158.793 173.311,159.959 171.5,161C 166.895,163.664 162.228,163.997 157.5,162C 161.558,161.66 165.558,160.993 169.5,160C 170.942,159.623 171.942,158.79 172.5,157.5 Z"/></g>
<g><path style="opacity:1" fill="#f8efe6" d="M 170.5,154.5 C 174.036,154.938 173.869,155.938 170,157.5C 169.5,157.167 169,156.833 168.5,156.5C 169.243,155.818 169.909,155.151 170.5,154.5 Z"/></g>
<g><path style="opacity:1" fill="#da793c" d="M 178.5,171.5 C 179.552,171.351 180.552,171.517 181.5,172C 178.033,175.949 173.699,177.616 168.5,177C 172.056,175.392 175.389,173.559 178.5,171.5 Z"/></g>
<g><path style="opacity:1" fill="#d97233" d="M 259.5,161.5 C 260.496,161.414 261.329,161.748 262,162.5C 261.675,167.157 261.008,171.824 260,176.5C 256.704,187.929 251.204,198.095 243.5,207C 237.488,208.558 231.821,210.891 226.5,214C 231.504,216.584 236.837,217.918 242.5,218C 242.998,219.158 243.831,219.991 245,220.5C 252.952,216.865 258.952,211.198 263,203.5C 263.711,201.101 263.544,198.768 262.5,196.5C 265.166,191.668 268.999,188.002 274,185.5C 273.681,183.257 273.848,181.09 274.5,179C 278.123,177.895 281.79,176.895 285.5,176C 287.64,175.027 289.307,173.527 290.5,171.5C 296.017,173.819 301.683,174.152 307.5,172.5C 307.607,174.903 306.607,176.736 304.5,178C 297.792,181.427 290.792,184.094 283.5,186C 281.043,189.058 278.043,191.392 274.5,193C 272.065,195.442 270.732,198.442 270.5,202C 267.983,204.184 265.817,206.684 264,209.5C 261.924,220.577 255.257,226.244 244,226.5C 238.864,225.013 233.697,223.68 228.5,222.5C 225.828,220.609 224.828,217.942 225.5,214.5C 221.108,215.992 216.775,215.825 212.5,214C 211.944,213.617 211.611,213.117 211.5,212.5C 221.053,211.259 230.387,209.093 239.5,206C 245.253,201.046 246.587,195.213 243.5,188.5C 247.138,188.262 249.971,186.596 252,183.5C 252.664,175.497 255.164,168.164 259.5,161.5 Z"/></g>
<g><path style="opacity:1" fill="#fbf9f5" d="M 271.5,172.5 C 272.675,172.281 273.675,172.614 274.5,173.5C 272.948,174.798 271.948,174.465 271.5,172.5 Z"/></g>
<g><path style="opacity:0.999" fill="#1e454b" d="M 623.5,156.5 C 648.513,175.374 657.347,200.04 650,230.5C 641.502,249.004 628.669,263.837 611.5,275C 585.543,291.888 557.543,304.554 527.5,313C 428.828,339.25 329.161,343.583 228.5,326C 192.923,319.695 158.589,309.362 125.5,295C 101.608,284.917 80.9417,270.417 63.5,251.5C 72.7642,258.475 82.4309,264.975 92.5,271C 135.451,292.761 180.784,307.094 228.5,314C 318.562,327.139 407.895,323.472 496.5,303C 529.379,294.821 560.379,282.154 589.5,265C 606.342,254.49 620.175,240.99 631,224.5C 638.188,211.23 640.188,197.23 637,182.5C 633.78,173.056 629.28,164.39 623.5,156.5 Z"/></g>
<g><path style="opacity:1" fill="#e2ac7f" d="M 371.5,166.5 C 373.299,171.36 374.632,176.36 375.5,181.5C 370.821,181.666 366.155,181.499 361.5,181C 360.09,180.632 359.09,179.799 358.5,178.5C 349.838,177.831 341.171,178.164 332.5,179.5C 327.564,178.848 327.898,178.015 333.5,177C 333.167,176.667 332.833,176.333 332.5,176C 329.937,175.874 327.604,175.707 325.5,175.5C 326.579,173.457 328.246,172.124 330.5,171.5C 330.328,172.492 330.662,173.158 331.5,173.5C 334.386,175.846 337.72,176.68 341.5,176C 338.829,174.097 335.829,173.264 332.5,173.5C 333.091,172.849 333.757,172.182 334.5,171.5C 334.043,170.702 333.376,170.369 332.5,170.5C 334.277,169.4 336.277,168.566 338.5,168C 343.822,167.316 349.156,166.816 354.5,166.5C 354.5,167.167 354.5,167.833 354.5,168.5C 353.262,167.588 351.928,167.421 350.5,168C 355.117,170.221 359.283,173.054 363,176.5C 363.5,176.333 364,176.167 364.5,176C 361.938,173.267 359.271,170.767 356.5,168.5C 358.292,168.634 359.958,168.301 361.5,167.5C 360.432,166.566 359.099,166.232 357.5,166.5C 360.017,165.027 362.85,164.36 366,164.5C 368.295,164.547 370.129,165.213 371.5,166.5 Z"/></g>
<g><path style="opacity:1" fill="#d0844d" d="M 205.5,167.5 C 206.492,167.328 207.158,167.662 207.5,168.5C 207.238,169.978 207.571,171.311 208.5,172.5C 212.183,174.341 215.516,176.674 218.5,179.5C 216.565,180.213 216.232,181.213 217.5,182.5C 215.833,183.167 214.167,183.833 212.5,184.5C 212.881,182.058 212.214,181.391 210.5,182.5C 206.816,180.472 203.15,178.472 199.5,176.5C 199.5,175.5 199.5,174.5 199.5,173.5C 201.01,174.728 202.51,174.728 204,173.5C 204.813,171.564 205.313,169.564 205.5,167.5 Z"/></g>
<g><path style="opacity:1" fill="#d87436" d="M 325.5,175.5 C 327.604,175.707 329.937,175.874 332.5,176C 332.833,176.333 333.167,176.667 333.5,177C 327.898,178.015 327.564,178.848 332.5,179.5C 341.171,178.164 349.838,177.831 358.5,178.5C 359.09,179.799 360.09,180.632 361.5,181C 366.155,181.499 370.821,181.666 375.5,181.5C 376.791,182.542 376.791,183.708 375.5,185C 372.289,186.348 368.956,187.182 365.5,187.5C 360.101,186.366 354.768,185.032 349.5,183.5C 342.598,184.994 335.598,185.827 328.5,186C 327.672,186.915 326.672,187.581 325.5,188C 317.507,188.5 309.507,188.666 301.5,188.5C 300.5,188.5 299.5,188.5 298.5,188.5C 298.5,187.167 298.5,185.833 298.5,184.5C 298.833,184.5 299.167,184.5 299.5,184.5C 299.414,185.496 299.748,186.329 300.5,187C 305.368,188.186 309.702,187.186 313.5,184C 318.167,182.667 322.833,181.333 327.5,180C 325.372,179.345 323.372,178.511 321.5,177.5C 322.671,176.655 324.005,175.989 325.5,175.5 Z"/></g>
<g><path style="opacity:1" fill="#d99760" d="M 191.5,174.5 C 191.5,174.167 191.5,173.833 191.5,173.5C 194.167,174.5 196.833,175.5 199.5,176.5C 203.15,178.472 206.816,180.472 210.5,182.5C 212.214,181.391 212.881,182.058 212.5,184.5C 204.283,187.516 196.283,191.016 188.5,195C 185.5,195.333 182.5,195.667 179.5,196C 176.003,198.583 172.336,200.916 168.5,203C 167.228,204.307 166.228,205.807 165.5,207.5C 160.259,210.404 155.593,214.071 151.5,218.5C 150.571,217.311 150.238,215.978 150.5,214.5C 145.821,216.579 142.154,215.413 139.5,211C 133.732,208.772 127.732,207.939 121.5,208.5C 121.84,205.325 123.507,203.159 126.5,202C 131.42,199.804 136.42,197.804 141.5,196C 144.447,193.564 146.78,190.731 148.5,187.5C 149.117,187.611 149.617,187.944 150,188.5C 153.447,185.962 157.28,184.295 161.5,183.5C 168.245,186.695 175.245,189.695 182.5,192.5C 183.5,192.167 184.5,191.833 185.5,191.5C 183.922,190.702 182.256,190.202 180.5,190C 184.931,188.371 188.764,185.871 192,182.5C 192.801,179.633 192.634,176.966 191.5,174.5 Z"/></g>
<g><path style="opacity:1" fill="#e2aa7c" d="M 147.5,167.5 C 149.989,167.298 152.323,167.798 154.5,169C 157.352,172.101 159.352,175.601 160.5,179.5C 161.234,180.708 161.567,182.041 161.5,183.5C 157.28,184.295 153.447,185.962 150,188.5C 149.617,187.944 149.117,187.611 148.5,187.5C 146.912,183.59 144.579,180.257 141.5,177.5C 141.412,172.92 143.412,169.587 147.5,167.5 Z"/></g>
<g><path style="opacity:1" fill="#da773a" d="M 151.5,175.5 C 152.873,175.343 154.207,175.51 155.5,176C 152.733,177.893 149.733,178.893 146.5,179C 147.955,177.374 149.622,176.208 151.5,175.5 Z"/></g>
<g><path style="opacity:1" fill="#faf8f3" d="M 147.5,170.5 C 155.113,170.446 155.28,171.113 148,172.5C 147.167,172.333 146.333,172.167 145.5,172C 146.416,171.722 147.082,171.222 147.5,170.5 Z"/></g>
<g><path style="opacity:1" fill="#d97f35" d="M 151.5,163.5 C 161.023,166.192 166.023,172.525 166.5,182.5C 170.164,182.36 173.664,183.027 177,184.5C 178.699,184.613 179.866,183.947 180.5,182.5C 182.216,182.371 183.883,182.038 185.5,181.5C 186.822,181.67 187.989,181.337 189,180.5C 189.845,178.389 190.678,176.389 191.5,174.5C 192.634,176.966 192.801,179.633 192,182.5C 188.764,185.871 184.931,188.371 180.5,190C 182.256,190.202 183.922,190.702 185.5,191.5C 184.5,191.833 183.5,192.167 182.5,192.5C 175.245,189.695 168.245,186.695 161.5,183.5C 161.567,182.041 161.234,180.708 160.5,179.5C 160.075,172.645 157.075,167.311 151.5,163.5 Z"/></g>
<g><path style="opacity:1" fill="#f8f0e8" d="M 185.5,181.5 C 183.883,182.038 182.216,182.371 180.5,182.5C 180.884,180.707 182.05,179.707 184,179.5C 185.03,179.836 185.53,180.503 185.5,181.5 Z"/></g>
<g><path style="opacity:1" fill="#d97638" d="M 180.5,176.5 C 182.199,176.34 183.866,176.506 185.5,177C 182.258,178.639 178.924,179.639 175.5,180C 176.955,178.374 178.622,177.208 180.5,176.5 Z"/></g>
<g><path style="opacity:1" fill="#d97334" d="M 227.5,180.5 C 225.734,182.771 223.734,184.937 221.5,187C 211.673,190.381 202.339,194.715 193.5,200C 184.17,201.071 175.837,204.404 168.5,210C 171.788,209.338 175.121,208.338 178.5,207C 183.189,206.709 187.856,206.709 192.5,207C 193.5,206 194.5,205 195.5,204C 209.871,202.965 224.038,200.799 238,197.5C 238.399,197.728 238.565,198.062 238.5,198.5C 238.355,201.474 237.022,203.641 234.5,205C 226.265,206.824 217.932,207.99 209.5,208.5C 206.873,209.092 204.206,209.425 201.5,209.5C 192.944,209.746 184.611,211.246 176.5,214C 172.759,214.502 169.092,214.502 165.5,214C 163.145,216.355 160.812,218.688 158.5,221C 158.759,222.261 159.426,223.261 160.5,224C 166.864,225.086 173.198,226.253 179.5,227.5C 178.64,229.614 176.973,230.78 174.5,231C 169.286,231.012 164.286,231.845 159.5,233.5C 158.644,230.314 156.977,227.647 154.5,225.5C 153.155,226.347 152.155,227.513 151.5,229C 149.956,230.187 148.289,230.52 146.5,230C 145.833,227 145.167,224 144.5,221C 140.713,220.84 137.046,220.174 133.5,219C 130.341,215.918 126.675,213.584 122.5,212C 121.663,210.989 121.33,209.822 121.5,208.5C 127.732,207.939 133.732,208.772 139.5,211C 142.154,215.413 145.821,216.579 150.5,214.5C 150.238,215.978 150.571,217.311 151.5,218.5C 155.593,214.071 160.259,210.404 165.5,207.5C 166.228,205.807 167.228,204.307 168.5,203C 172.336,200.916 176.003,198.583 179.5,196C 182.5,195.667 185.5,195.333 188.5,195C 196.283,191.016 204.283,187.516 212.5,184.5C 214.167,183.833 215.833,183.167 217.5,182.5C 220.179,181.774 222.846,180.941 225.5,180C 229.505,168.529 230.172,168.696 227.5,180.5 Z"/></g>
<g><path style="opacity:1" fill="#f6eee3" d="M 235.5,182.5 C 238.462,182.117 239.462,183.117 238.5,185.5C 237.145,184.812 236.145,183.812 235.5,182.5 Z"/></g>
<g><path style="opacity:1" fill="#e1a97b" d="M 321.5,177.5 C 323.372,178.511 325.372,179.345 327.5,180C 322.833,181.333 318.167,182.667 313.5,184C 309.702,187.186 305.368,188.186 300.5,187C 299.748,186.329 299.414,185.496 299.5,184.5C 302.122,182.356 305.122,181.023 308.5,180.5C 312.629,178.718 316.962,177.718 321.5,177.5 Z"/></g>
<g><path style="opacity:1" fill="#db7b3f" d="M 314.5,179.5 C 316.288,179.215 317.955,179.548 319.5,180.5C 316.538,182.034 313.538,182.367 310.5,181.5C 311.949,180.828 313.282,180.161 314.5,179.5 Z"/></g>
<g><path style="opacity:1" fill="#a45512" d="M 371.5,166.5 C 372.496,166.414 373.329,166.748 374,167.5C 375.128,173.438 376.628,179.271 378.5,185C 377.849,187.504 376.182,188.837 373.5,189C 370.167,189.667 366.833,189.667 363.5,189C 359.966,187.565 356.299,186.732 352.5,186.5C 345.509,187.124 338.509,187.624 331.5,188C 330.167,189 328.833,190 327.5,191C 319.167,191.667 310.833,191.667 302.5,191C 301.748,190.329 301.414,189.496 301.5,188.5C 309.507,188.666 317.507,188.5 325.5,188C 326.672,187.581 327.672,186.915 328.5,186C 335.598,185.827 342.598,184.994 349.5,183.5C 354.768,185.032 360.101,186.366 365.5,187.5C 368.956,187.182 372.289,186.348 375.5,185C 376.791,183.708 376.791,182.542 375.5,181.5C 374.632,176.36 373.299,171.36 371.5,166.5 Z"/></g>
<g><path style="opacity:1" fill="#f7f0e6" d="M 232.5,184.5 C 233.925,185.922 234.925,187.589 235.5,189.5C 233.771,188.883 232.271,187.883 231,186.5C 230.472,185.184 230.972,184.517 232.5,184.5 Z"/></g>
<g><path style="opacity:1" fill="#c56716" d="M 403.5,135.5 C 401.129,139.523 398.796,143.523 396.5,147.5C 396.068,146.29 395.401,145.29 394.5,144.5C 393.106,142.292 391.106,140.792 388.5,140C 380.202,139.824 374.535,143.657 371.5,151.5C 370.834,161.842 375.834,167.175 386.5,167.5C 386.838,170.157 386.171,172.49 384.5,174.5C 385.167,175.833 385.833,177.167 386.5,178.5C 384.576,179.965 384.243,181.632 385.5,183.5C 384.267,184.976 383.267,186.643 382.5,188.5C 382.529,190.029 383.196,191.196 384.5,192C 381.562,193.92 380.895,196.42 382.5,199.5C 380.896,201.179 380.229,203.179 380.5,205.5C 380.134,206.695 379.301,207.361 378,207.5C 374.787,205.846 371.954,206.179 369.5,208.5C 371.816,209.932 374.316,210.932 377,211.5C 377.214,216.427 379.381,220.261 383.5,223C 388.5,225.333 393.5,227.667 398.5,230C 400.794,234.614 403.794,238.614 407.5,242C 411.9,244.368 416.566,245.868 421.5,246.5C 421.5,246.833 421.5,247.167 421.5,247.5C 416.882,250.938 411.882,253.772 406.5,256C 396.561,257.771 386.561,259.104 376.5,260C 366.065,263.716 355.732,267.716 345.5,272C 337.555,273.132 329.889,272.132 322.5,269C 318.548,268.088 314.881,268.755 311.5,271C 307.128,276.556 301.794,280.722 295.5,283.5C 294.391,283.557 293.391,283.89 292.5,284.5C 292.893,282.716 293.559,281.05 294.5,279.5C 297.338,274.504 296.671,269.837 292.5,265.5C 298.441,265.977 302.774,263.643 305.5,258.5C 306.167,258.5 306.5,258.833 306.5,259.5C 312.408,266.755 319.242,267.422 327,261.5C 329.489,257.595 329.989,253.595 328.5,249.5C 328.25,247.326 327.25,245.659 325.5,244.5C 325.5,243.833 325.5,243.167 325.5,242.5C 325.306,240.088 323.973,239.088 321.5,239.5C 321.167,238.833 320.833,238.167 320.5,237.5C 326.329,235.343 329.996,231.343 331.5,225.5C 338.041,228.786 343.874,227.786 349,222.5C 350.045,227.028 351.545,231.361 353.5,235.5C 353.859,237.371 354.859,238.871 356.5,240C 364.849,241.242 371.015,238.075 375,230.5C 375.885,227.462 375.385,224.795 373.5,222.5C 373.267,220.938 372.6,219.605 371.5,218.5C 369.948,215.888 367.614,214.555 364.5,214.5C 360.958,214.187 357.625,214.521 354.5,215.5C 353.85,215.804 353.183,216.137 352.5,216.5C 351.686,214.234 351.186,211.9 351,209.5C 350.292,208.619 349.458,207.953 348.5,207.5C 347.232,205.613 345.399,204.613 343,204.5C 341.624,204.684 340.791,205.351 340.5,206.5C 338.833,206.5 337.167,206.5 335.5,206.5C 329.377,207.624 326.043,211.29 325.5,217.5C 324.609,216.89 323.609,216.557 322.5,216.5C 321.942,215.21 320.942,214.377 319.5,214C 316.633,213.199 313.966,213.366 311.5,214.5C 310.5,214.5 309.5,214.5 308.5,214.5C 309.072,208.366 306.072,204.699 299.5,203.5C 296.786,200.066 293.786,199.733 290.5,202.5C 288.847,202.66 287.514,203.326 286.5,204.5C 281.774,208.558 281.274,213.224 285,218.5C 289.934,223.984 295.768,224.984 302.5,221.5C 303.218,225.675 304.884,229.342 307.5,232.5C 307.369,233.239 307.536,233.906 308,234.5C 309.652,235.399 311.152,236.399 312.5,237.5C 310.181,237.992 308.181,238.992 306.5,240.5C 305.391,240.557 304.391,240.89 303.5,241.5C 301.539,239.688 299.206,238.688 296.5,238.5C 293.555,237.532 290.555,237.366 287.5,238C 286.058,238.377 285.058,239.21 284.5,240.5C 282.973,240.427 281.973,241.094 281.5,242.5C 276.333,246.964 276.333,251.631 281.5,256.5C 282.057,259.05 283.39,261.05 285.5,262.5C 282.763,262.599 280.096,262.265 277.5,261.5C 276.5,261.5 275.5,261.5 274.5,261.5C 272.226,260.263 269.893,258.929 267.5,257.5C 266.893,257.624 266.56,257.957 266.5,258.5C 265.833,258.5 265.5,258.167 265.5,257.5C 262.648,255.488 259.481,253.821 256,252.5C 252.16,253.187 249.327,255.187 247.5,258.5C 247.365,254.373 245.365,251.706 241.5,250.5C 240.306,249.223 238.64,248.556 236.5,248.5C 234.833,248.667 233.167,248.833 231.5,249C 230.944,249.383 230.611,249.883 230.5,250.5C 228.973,250.427 227.973,251.094 227.5,252.5C 225.833,253.167 224.167,253.833 222.5,254.5C 221.564,253.026 220.23,252.026 218.5,251.5C 214.922,250.411 211.255,250.245 207.5,251C 206.619,251.708 205.953,252.542 205.5,253.5C 203.139,255.194 201.139,257.194 199.5,259.5C 199.5,258.833 199.167,258.5 198.5,258.5C 196.603,257.195 194.269,256.529 191.5,256.5C 187.156,256.786 182.823,257.12 178.5,257.5C 179.29,256.206 180.29,255.039 181.5,254C 189.665,254.002 197.332,252.169 204.5,248.5C 205.246,247.264 205.579,245.93 205.5,244.5C 208.231,245.607 211.064,246.607 214,247.5C 222.716,246.32 226.216,241.653 224.5,233.5C 223.974,231.77 222.974,230.436 221.5,229.5C 220.833,228.833 220.167,228.167 219.5,227.5C 218.508,225.974 217.008,225.307 215,225.5C 212.992,225.307 211.492,225.974 210.5,227.5C 208.901,227.232 207.568,227.566 206.5,228.5C 206.167,228.5 205.833,228.5 205.5,228.5C 205.847,224.904 205.18,221.571 203.5,218.5C 205.189,214.926 204.522,211.926 201.5,209.5C 204.206,209.425 206.873,209.092 209.5,208.5C 209.66,210.153 210.326,211.486 211.5,212.5C 211.611,213.117 211.944,213.617 212.5,214C 216.775,215.825 221.108,215.992 225.5,214.5C 224.828,217.942 225.828,220.609 228.5,222.5C 228.953,223.458 229.619,224.292 230.5,225C 235.727,225.959 240.727,227.459 245.5,229.5C 257.815,229.02 264.981,222.687 267,210.5C 271.821,207.375 274.488,203.042 275,197.5C 279.294,194.93 283.127,191.763 286.5,188C 290.676,187.329 294.676,186.162 298.5,184.5C 298.5,185.833 298.5,187.167 298.5,188.5C 299.5,188.5 300.5,188.5 301.5,188.5C 301.414,189.496 301.748,190.329 302.5,191C 310.833,191.667 319.167,191.667 327.5,191C 328.833,190 330.167,189 331.5,188C 338.509,187.624 345.509,187.124 352.5,186.5C 356.299,186.732 359.966,187.565 363.5,189C 366.833,189.667 370.167,189.667 373.5,189C 376.182,188.837 377.849,187.504 378.5,185C 376.628,179.271 375.128,173.438 374,167.5C 373.329,166.748 372.496,166.414 371.5,166.5C 370.129,165.213 368.295,164.547 366,164.5C 362.85,164.36 360.017,165.027 357.5,166.5C 356.5,166.5 355.5,166.5 354.5,166.5C 349.156,166.816 343.822,167.316 338.5,168C 336.277,168.566 334.277,169.4 332.5,170.5C 331.833,170.833 331.167,171.167 330.5,171.5C 328.246,172.124 326.579,173.457 325.5,175.5C 324.005,175.989 322.671,176.655 321.5,177.5C 316.962,177.718 312.629,178.718 308.5,180.5C 309.758,177.228 310.925,173.894 312,170.5C 312.758,168.231 312.591,166.064 311.5,164C 316.833,163.333 322.167,162.667 327.5,162C 329.491,161.626 331.158,160.793 332.5,159.5C 333.69,161.355 335.023,163.188 336.5,165C 337.667,165.167 338.833,165.333 340,165.5C 345.444,165.54 349.277,163.206 351.5,158.5C 352.481,152.308 349.814,149.641 343.5,150.5C 343.586,149.504 343.252,148.671 342.5,148C 340.68,147.8 339.347,146.966 338.5,145.5C 335.307,136.119 330.307,127.786 323.5,120.5C 321.962,120.453 320.962,121.12 320.5,122.5C 317.941,122.198 315.607,122.532 313.5,123.5C 311.5,123.5 310.5,124.5 310.5,126.5C 308.874,124.757 306.874,124.257 304.5,125C 298.401,126.758 292.734,129.258 287.5,132.5C 278.434,131.008 270.1,133.175 262.5,139C 260.235,140.758 258.568,142.925 257.5,145.5C 256.549,146.919 256.216,148.585 256.5,150.5C 253.873,151.105 251.207,151.605 248.5,152C 247.695,153.113 247.028,154.279 246.5,155.5C 243.5,155.5 240.5,155.5 237.5,155.5C 234.833,155.167 232.167,154.833 229.5,154.5C 227.862,153.343 226.196,152.176 224.5,151C 225.448,150.517 226.448,150.351 227.5,150.5C 228.791,150.737 229.791,150.404 230.5,149.5C 236.699,151.752 243.032,152.085 249.5,150.5C 249.705,142.786 249.205,135.119 248,127.5C 247.502,125.456 246.335,124.122 244.5,123.5C 243.391,119.677 241.057,118.01 237.5,118.5C 233.472,124.746 230.306,131.413 228,138.5C 227.617,137.944 227.117,137.611 226.5,137.5C 221.096,129.761 214.429,123.427 206.5,118.5C 248.045,113.894 289.711,112.394 331.5,114C 349.73,115.705 367.73,118.705 385.5,123C 393.134,124.97 399.134,129.137 403.5,135.5 Z"/></g>
<g><path style="opacity:1" fill="#da793d" d="M 354.5,168.5 C 355.167,168.5 355.833,168.5 356.5,168.5C 359.271,170.767 361.938,173.267 364.5,176C 364,176.167 363.5,176.333 363,176.5C 359.283,173.054 355.117,170.221 350.5,168C 351.928,167.421 353.262,167.588 354.5,168.5 Z"/></g>
<g><path style="opacity:1" fill="#da7638" d="M 331.5,173.5 C 331.833,173.5 332.167,173.5 332.5,173.5C 335.829,173.264 338.829,174.097 341.5,176C 337.72,176.68 334.386,175.846 331.5,173.5 Z"/></g>
<g><path style="opacity:1" fill="#f8f1e8" d="M 332.5,170.5 C 333.376,170.369 334.043,170.702 334.5,171.5C 333.757,172.182 333.091,172.849 332.5,173.5C 332.167,173.5 331.833,173.5 331.5,173.5C 330.662,173.158 330.328,172.492 330.5,171.5C 331.167,171.167 331.833,170.833 332.5,170.5 Z"/></g>
<g><path style="opacity:1" fill="#d97538" d="M 337.5,172.5 C 340.928,171.345 344.261,171.845 347.5,174C 344.038,174.46 340.704,173.96 337.5,172.5 Z"/></g>
<g><path style="opacity:1" fill="#da7a3e" d="M 361.5,167.5 C 364.516,168.343 367.183,169.843 369.5,172C 370.765,173.337 371.265,174.837 371,176.5C 367.286,173.949 364.119,170.949 361.5,167.5 Z"/></g>
<g><path style="opacity:1" fill="#da783c" d="M 344.5,170.5 C 349.56,169.243 353.894,170.743 357.5,175C 353.223,173.629 348.889,172.129 344.5,170.5 Z"/></g>
<g><path style="opacity:1" fill="#f9f4ed" d="M 354.5,166.5 C 355.5,166.5 356.5,166.5 357.5,166.5C 359.099,166.232 360.432,166.566 361.5,167.5C 359.958,168.301 358.292,168.634 356.5,168.5C 355.833,168.5 355.167,168.5 354.5,168.5C 354.5,167.833 354.5,167.167 354.5,166.5 Z"/></g>
<g><path style="opacity:1" fill="#f7f7ee" d="M 341.5,151.5 C 343.604,151.201 345.604,151.534 347.5,152.5C 345.235,153.647 342.902,153.814 340.5,153C 341.056,152.617 341.389,152.117 341.5,151.5 Z"/></g>
<g><path style="opacity:1" fill="#e9ecc7" d="M 394.5,144.5 C 393.595,146.807 392.262,146.807 390.5,144.5C 391.7,143.708 393.033,143.708 394.5,144.5 Z"/></g>
<g><path style="opacity:1" fill="#f3f5df" d="M 385.5,140.5 C 386.756,140.461 387.756,140.961 388.5,142C 385.281,143.955 381.947,145.288 378.5,146C 380.54,143.664 382.873,141.831 385.5,140.5 Z"/></g>
<g><path style="opacity:1" fill="#c85424" d="M 285.5,138.5 C 285.369,139.239 285.536,139.906 286,140.5C 292.189,146.202 299.022,150.869 306.5,154.5C 302.027,155.956 297.693,155.623 293.5,153.5C 290.81,150.815 287.81,148.482 284.5,146.5C 280.019,143.758 275.353,141.258 270.5,139C 275.642,138.496 279.809,140.329 283,144.5C 283.711,142.633 283.211,141.133 281.5,140C 278.833,139 276.167,138 273.5,137C 277.295,136.021 280.628,136.854 283.5,139.5C 284.183,139.137 284.85,138.804 285.5,138.5 Z"/></g>
<g><path style="opacity:1" fill="#d9935b" d="M 287.5,132.5 C 287.206,135.481 285.872,136.148 283.5,134.5C 281.596,131.943 279.596,132.11 277.5,135C 279.265,135.64 280.932,135.473 282.5,134.5C 283.789,135.637 284.789,136.97 285.5,138.5C 284.85,138.804 284.183,139.137 283.5,139.5C 280.628,136.854 277.295,136.021 273.5,137C 276.167,138 278.833,139 281.5,140C 283.211,141.133 283.711,142.633 283,144.5C 279.809,140.329 275.642,138.496 270.5,139C 275.353,141.258 280.019,143.758 284.5,146.5C 283.64,148.614 281.973,149.78 279.5,150C 272.144,150.636 264.811,150.469 257.5,149.5C 257.5,148.167 257.5,146.833 257.5,145.5C 258.568,142.925 260.235,140.758 262.5,139C 270.1,133.175 278.434,131.008 287.5,132.5 Z"/></g>
<g><path style="opacity:1" fill="#f5e7da" d="M 283.5,134.5 C 283.167,134.5 282.833,134.5 282.5,134.5C 280.932,135.473 279.265,135.64 277.5,135C 279.596,132.11 281.596,131.943 283.5,134.5 Z"/></g>
<g><path style="opacity:1" fill="#faf8f2" d="M 378.5,126.5 C 380.103,126.312 381.437,126.812 382.5,128C 380.537,128.844 379.204,128.344 378.5,126.5 Z"/></g>
<g><path style="opacity:1" fill="#b5602d" d="M 319.5,125.5 C 321.74,126.264 324.073,127.098 326.5,128C 323.183,128.498 319.85,128.665 316.5,128.5C 317.167,127.167 318.167,126.167 319.5,125.5 Z"/></g>
<g><path style="opacity:1" fill="#d38e58" d="M 338.5,145.5 C 335.813,145.336 333.146,145.503 330.5,146C 325.192,148.812 319.859,151.312 314.5,153.5C 313.167,153.833 311.833,154.167 310.5,154.5C 314.6,150.113 314.267,145.946 309.5,142C 307,141.115 304.667,139.948 302.5,138.5C 307.939,136.126 312.605,132.793 316.5,128.5C 319.85,128.665 323.183,128.498 326.5,128C 324.073,127.098 321.74,126.264 319.5,125.5C 322.505,124.625 322.838,123.625 320.5,122.5C 320.962,121.12 321.962,120.453 323.5,120.5C 330.307,127.786 335.307,136.119 338.5,145.5 Z"/></g>
<g><path style="opacity:1" fill="#fae6dd" d="M 313.5,123.5 C 314.534,125.817 313.534,126.817 310.5,126.5C 310.5,124.5 311.5,123.5 313.5,123.5 Z"/></g>
<g><path style="opacity:1" fill="#f5e7da" d="M 353.5,123.5 C 358.693,122.489 364.027,122.656 369.5,124C 370.672,124.419 371.672,125.085 372.5,126C 366.155,125.72 359.821,124.886 353.5,123.5 Z"/></g>
<g><path style="opacity:1" fill="#f6ece2" d="M 244.5,123.5 C 245.562,124.575 245.562,125.575 244.5,126.5C 242.5,125.167 240.5,123.833 238.5,122.5C 240.617,121.531 242.617,121.864 244.5,123.5 Z"/></g>
<g><path style="opacity:1" fill="#ef5b26" d="M 313.5,123.5 C 315.607,122.532 317.941,122.198 320.5,122.5C 322.838,123.625 322.505,124.625 319.5,125.5C 318.167,126.167 317.167,127.167 316.5,128.5C 312.605,132.793 307.939,136.126 302.5,138.5C 304.667,139.948 307,141.115 309.5,142C 314.267,145.946 314.6,150.113 310.5,154.5C 309.167,154.5 307.833,154.5 306.5,154.5C 299.022,150.869 292.189,146.202 286,140.5C 285.536,139.906 285.369,139.239 285.5,138.5C 284.789,136.97 283.789,135.637 282.5,134.5C 282.833,134.5 283.167,134.5 283.5,134.5C 285.872,136.148 287.206,135.481 287.5,132.5C 292.734,129.258 298.401,126.758 304.5,125C 306.874,124.257 308.874,124.757 310.5,126.5C 313.534,126.817 314.534,125.817 313.5,123.5 Z"/></g>
<g><path style="opacity:1" fill="#fbebe4" d="M 298.5,128.5 C 300.199,128.34 301.866,128.506 303.5,129C 300.076,131.551 296.41,133.218 292.5,134C 294.396,131.932 296.396,130.099 298.5,128.5 Z"/></g>
<g><path style="opacity:1" fill="#f4e4d5" d="M 337.5,119.5 C 341.555,119.176 345.555,119.509 349.5,120.5C 347.5,120.833 345.5,121.167 343.5,121.5C 341.048,121.461 339.048,120.794 337.5,119.5 Z"/></g>
<g><path style="opacity:1" fill="#a3a3a2" d="M 562.5,186.5 C 565.136,189.31 567.636,192.31 570,195.5C 570.958,197.199 571.458,199.033 571.5,201C 570.199,211.593 566.199,220.926 559.5,229C 552.044,235.118 544.044,240.451 535.5,245C 529.668,247.277 523.668,248.944 517.5,250C 499.71,252.303 481.877,254.137 464,255.5C 458.127,255.443 452.293,254.943 446.5,254C 438.163,251.767 429.829,249.6 421.5,247.5C 421.5,247.167 421.5,246.833 421.5,246.5C 424.777,244.227 427.777,241.56 430.5,238.5C 431.418,240.82 432.752,242.987 434.5,245C 440.969,246.684 447.469,247.184 454,246.5C 457.667,247.604 461,249.271 464,251.5C 467.718,250.904 471.384,250.238 475,249.5C 477.852,250.865 480.518,250.531 483,248.5C 484.301,248.96 485.634,249.294 487,249.5C 491.361,248.258 495.694,246.925 500,245.5C 500.873,245.735 501.707,246.069 502.5,246.5C 503.833,245.5 505.167,244.5 506.5,243.5C 509.595,245.114 512.261,244.614 514.5,242C 518.531,241.519 522.531,240.853 526.5,240C 528.766,237.245 531.766,235.912 535.5,236C 544.295,230.826 552.129,224.326 559,216.5C 560.746,213.1 562.246,209.6 563.5,206C 563.241,204.739 562.574,203.739 561.5,203C 561.953,199.773 562.953,196.773 564.5,194C 562.981,192.649 561.648,191.149 560.5,189.5C 561.193,188.482 561.859,187.482 562.5,186.5 Z"/></g>
<g><path style="opacity:1" fill="#f8f3ec" d="M 154.5,187.5 C 155.675,187.281 156.675,187.614 157.5,188.5C 156.131,190.124 154.464,190.624 152.5,190C 153.381,189.292 154.047,188.458 154.5,187.5 Z"/></g>
<g><path style="opacity:1" fill="#d97537" d="M 160.5,188.5 C 164.717,187.01 168.717,187.676 172.5,190.5C 172.167,190.833 171.833,191.167 171.5,191.5C 167.925,190.119 164.258,189.119 160.5,188.5 Z"/></g>
<g><path style="opacity:1" fill="#d88c4e" d="M 227.5,180.5 C 227.369,181.239 227.536,181.906 228,182.5C 230.106,180.709 232.606,180.042 235.5,180.5C 235.5,181.167 235.5,181.833 235.5,182.5C 234.5,183.167 233.5,183.833 232.5,184.5C 230.972,184.517 230.472,185.184 231,186.5C 232.271,187.883 233.771,188.883 235.5,189.5C 237.666,191.452 238.999,193.952 239.5,197C 239.43,197.765 239.097,198.265 238.5,198.5C 238.565,198.062 238.399,197.728 238,197.5C 224.038,200.799 209.871,202.965 195.5,204C 194.5,205 193.5,206 192.5,207C 187.856,206.709 183.189,206.709 178.5,207C 175.121,208.338 171.788,209.338 168.5,210C 175.837,204.404 184.17,201.071 193.5,200C 202.339,194.715 211.673,190.381 221.5,187C 223.734,184.937 225.734,182.771 227.5,180.5 Z"/></g>
<g><path style="opacity:1" fill="#d97639" d="M 151.5,192.5 C 158.557,190.354 164.89,191.854 170.5,197C 164.434,194.821 158.101,193.321 151.5,192.5 Z"/></g>
<g><path style="opacity:1" fill="#fefefe" d="M 109.5,210.5 C 106.431,214.295 103.597,218.295 101,222.5C 100.421,226.203 100.588,229.869 101.5,233.5C 96.9286,234.977 92.2619,235.477 87.5,235C 74.5269,224.92 69.5269,211.753 72.5,195.5C 84.856,195.704 97.1894,195.37 109.5,194.5C 109.5,199.833 109.5,205.167 109.5,210.5 Z"/></g>
<g><path style="opacity:1" fill="#c76918" d="M 141.5,177.5 C 144.579,180.257 146.912,183.59 148.5,187.5C 146.78,190.731 144.447,193.564 141.5,196C 136.42,197.804 131.42,199.804 126.5,202C 123.507,203.159 121.84,205.325 121.5,208.5C 121.33,209.822 121.663,210.989 122.5,212C 126.675,213.584 130.341,215.918 133.5,219C 137.046,220.174 140.713,220.84 144.5,221C 145.167,224 145.833,227 146.5,230C 148.289,230.52 149.956,230.187 151.5,229C 152.155,227.513 153.155,226.347 154.5,225.5C 156.977,227.647 158.644,230.314 159.5,233.5C 157.597,235.628 155.931,237.961 154.5,240.5C 148.718,241.434 147.218,244.434 150,249.5C 150.608,251.066 151.442,252.4 152.5,253.5C 153.34,255.853 154.674,257.853 156.5,259.5C 157.249,261.246 158.583,262.246 160.5,262.5C 163.479,261.672 166.479,261.005 169.5,260.5C 168.833,261.167 168.167,261.833 167.5,262.5C 167.93,263.421 169.264,263.921 171.5,264C 170.833,264.333 170.167,264.667 169.5,265C 179.236,265.155 188.903,264.321 198.5,262.5C 198.205,264.735 198.539,266.735 199.5,268.5C 201.147,271.473 203.147,274.14 205.5,276.5C 207.08,280.059 209.913,282.059 214,282.5C 222.07,282.385 226.904,278.385 228.5,270.5C 235.077,275.945 241.41,275.612 247.5,269.5C 248.927,272.764 251.261,275.264 254.5,277C 262.669,280.944 271.002,284.111 279.5,286.5C 271.51,287.058 263.51,287.558 255.5,288C 250.342,288.719 245.342,290.052 240.5,292C 235.5,292.667 230.5,292.667 225.5,292C 212.89,285.196 199.89,279.196 186.5,274C 173.005,269.469 159.339,265.636 145.5,262.5C 143.407,261.955 141.407,261.122 139.5,260C 135.5,255.667 131.5,251.333 127.5,247C 122.346,245.028 117.012,243.695 111.5,243C 109.308,242.074 107.308,240.907 105.5,239.5C 104.167,237.5 102.833,235.5 101.5,233.5C 100.588,229.869 100.421,226.203 101,222.5C 103.597,218.295 106.431,214.295 109.5,210.5C 117.963,203.207 126.296,195.707 134.5,188C 136.833,186.5 139.167,185 141.5,183.5C 142.231,181.599 142.231,179.599 141.5,177.5 Z"/></g>
<g><path style="opacity:1" fill="#f9f3ea" d="M 134.5,203.5 C 134.167,203.5 133.833,203.5 133.5,203.5C 132.425,204.562 131.425,204.562 130.5,203.5C 131.693,201.616 133.359,201.116 135.5,202C 134.944,202.383 134.611,202.883 134.5,203.5 Z"/></g>
<g><path style="opacity:1" fill="#e9e7cb" d="M 299.5,203.5 C 298.848,204.725 297.681,205.392 296,205.5C 294.833,205.333 293.667,205.167 292.5,205C 292.833,204.667 293.167,204.333 293.5,204C 292.263,203.768 291.263,203.268 290.5,202.5C 293.786,199.733 296.786,200.066 299.5,203.5 Z"/></g>
<g><path style="opacity:1" fill="#d8783b" d="M 140.5,199.5 C 147.406,199.191 153.406,201.357 158.5,206C 152.147,204.496 146.147,202.33 140.5,199.5 Z"/></g>
<g><path style="opacity:1" fill="#91a01d" d="M 290.5,202.5 C 291.263,203.268 292.263,203.768 293.5,204C 293.167,204.333 292.833,204.667 292.5,205C 293.667,205.167 294.833,205.333 296,205.5C 297.681,205.392 298.848,204.725 299.5,203.5C 306.072,204.699 309.072,208.366 308.5,214.5C 307.659,216.379 307.325,218.379 307.5,220.5C 306.732,219.737 306.232,218.737 306,217.5C 299.221,220.891 293.221,219.891 288,214.5C 286.957,211.243 286.457,207.91 286.5,204.5C 287.514,203.326 288.847,202.66 290.5,202.5 Z"/></g>
<g><path style="opacity:1" fill="#e4d1b3" d="M 385.5,183.5 C 386.404,184.209 386.737,185.209 386.5,186.5C 388.167,186.5 389.833,186.5 391.5,186.5C 391.337,188.857 391.503,191.19 392,193.5C 393.487,194.155 394.653,195.155 395.5,196.5C 393.714,200.697 395.047,203.364 399.5,204.5C 398.674,205.451 398.508,206.451 399,207.5C 401.447,208.406 403.947,209.239 406.5,210C 409.177,214.349 412.01,214.515 415,210.5C 417.193,217.094 421.526,219.427 428,217.5C 428.497,219.81 428.663,222.143 428.5,224.5C 431.044,224.896 433.211,224.229 435,222.5C 435.374,223.416 435.874,224.25 436.5,225C 439.23,225.728 441.897,225.562 444.5,224.5C 446.92,227.077 449.92,228.077 453.5,227.5C 453.297,225.362 452.297,223.695 450.5,222.5C 451.348,221.009 452.681,220.342 454.5,220.5C 456.623,220.22 457.956,221.053 458.5,223C 457.523,224.497 456.523,225.997 455.5,227.5C 458.265,232.494 461.765,232.827 466,228.5C 466.899,230.368 468.399,231.368 470.5,231.5C 473.167,230.5 475.833,229.5 478.5,228.5C 481.797,229.496 485.131,229.663 488.5,229C 489.701,228.097 490.535,226.931 491,225.5C 492.351,227.01 494.018,228.01 496,228.5C 500.7,226.979 505.534,226.146 510.5,226C 511.227,224.601 511.727,223.101 512,221.5C 513.444,223.155 515.278,223.822 517.5,223.5C 517.5,222.167 517.5,220.833 517.5,219.5C 522.708,220.127 525.208,217.794 525,212.5C 529.326,213.885 531.992,212.218 533,207.5C 538.292,210.581 540.959,208.914 541,202.5C 541.414,202.957 541.914,203.291 542.5,203.5C 545.093,201.929 546.093,199.596 545.5,196.5C 547.144,196.714 548.644,196.38 550,195.5C 551.092,192.956 551.759,190.289 552,187.5C 553.085,188.293 554.252,188.96 555.5,189.5C 557.164,187.509 558.831,185.509 560.5,183.5C 561.906,183.973 562.573,184.973 562.5,186.5C 561.859,187.482 561.193,188.482 560.5,189.5C 561.648,191.149 562.981,192.649 564.5,194C 562.953,196.773 561.953,199.773 561.5,203C 562.574,203.739 563.241,204.739 563.5,206C 562.246,209.6 560.746,213.1 559,216.5C 552.129,224.326 544.295,230.826 535.5,236C 531.766,235.912 528.766,237.245 526.5,240C 522.531,240.853 518.531,241.519 514.5,242C 512.261,244.614 509.595,245.114 506.5,243.5C 505.167,244.5 503.833,245.5 502.5,246.5C 501.707,246.069 500.873,245.735 500,245.5C 495.694,246.925 491.361,248.258 487,249.5C 485.634,249.294 484.301,248.96 483,248.5C 480.518,250.531 477.852,250.865 475,249.5C 471.384,250.238 467.718,250.904 464,251.5C 461,249.271 457.667,247.604 454,246.5C 447.469,247.184 440.969,246.684 434.5,245C 432.752,242.987 431.418,240.82 430.5,238.5C 426.908,236.191 422.908,235.025 418.5,235C 415.646,230.906 411.646,228.906 406.5,229C 405.44,227.702 404.274,226.535 403,225.5C 395.088,225.212 388.422,221.878 383,215.5C 381.656,212.502 381.489,209.502 382.5,206.5C 382.043,205.702 381.376,205.369 380.5,205.5C 380.229,203.179 380.896,201.179 382.5,199.5C 380.895,196.42 381.562,193.92 384.5,192C 383.196,191.196 382.529,190.029 382.5,188.5C 383.267,186.643 384.267,184.976 385.5,183.5 Z"/></g>
<g><path style="opacity:1" fill="#f1f1df" d="M 348.5,207.5 C 348.5,208.5 348.5,209.5 348.5,210.5C 346.551,208.607 343.885,207.274 340.5,206.5C 340.791,205.351 341.624,204.684 343,204.5C 345.399,204.613 347.232,205.613 348.5,207.5 Z"/></g>
<g><path style="opacity:1" fill="#d9783b" d="M 133.5,203.5 C 133.833,203.5 134.167,203.5 134.5,203.5C 141.113,203.305 147.113,205.139 152.5,209C 145.936,207.866 139.602,206.033 133.5,203.5 Z"/></g>
<g><path style="opacity:1" fill="#d6b584" d="M 545.5,206.5 C 546.5,206.5 547.5,206.5 548.5,206.5C 547.743,210.919 545.076,213.253 540.5,213.5C 541.002,210.331 542.669,207.998 545.5,206.5 Z"/></g>
<g><path style="opacity:1" fill="#c7cd87" d="M 301.5,207.5 C 303.484,207.383 305.15,208.05 306.5,209.5C 304.069,210.786 302.403,210.119 301.5,207.5 Z"/></g>
<g><path style="opacity:1" fill="#a2b320" d="M 308.5,214.5 C 309.5,214.5 310.5,214.5 311.5,214.5C 312.552,214.351 313.552,214.517 314.5,215C 314.833,216 315.167,217 315.5,218C 317.5,218.667 319.5,218.667 321.5,218C 320.288,216.893 320.621,216.393 322.5,216.5C 323.609,216.557 324.609,216.89 325.5,217.5C 327.984,219.545 328.984,222.212 328.5,225.5C 328.267,227.062 327.6,228.395 326.5,229.5C 322.204,230.463 317.871,230.629 313.5,230C 309.87,227.916 307.87,224.749 307.5,220.5C 307.325,218.379 307.659,216.379 308.5,214.5 Z"/></g>
<g><path style="opacity:1" fill="#f2f2dc" d="M 311.5,214.5 C 313.966,213.366 316.633,213.199 319.5,214C 320.942,214.377 321.942,215.21 322.5,216.5C 320.621,216.393 320.288,216.893 321.5,218C 319.5,218.667 317.5,218.667 315.5,218C 315.167,217 314.833,216 314.5,215C 313.552,214.517 312.552,214.351 311.5,214.5 Z"/></g>
<g><path style="opacity:1" fill="#f6f1e7" d="M 364.5,214.5 C 367.614,214.555 369.948,215.888 371.5,218.5C 368.386,218.445 366.052,217.112 364.5,214.5 Z"/></g>
<g><path style="opacity:1" fill="#8a971b" d="M 335.5,206.5 C 334.357,208.101 335.024,208.767 337.5,208.5C 339.03,208.36 340.03,207.693 340.5,206.5C 343.885,207.274 346.551,208.607 348.5,210.5C 348.5,209.5 348.5,208.5 348.5,207.5C 349.458,207.953 350.292,208.619 351,209.5C 351.186,211.9 351.686,214.234 352.5,216.5C 353.183,216.137 353.85,215.804 354.5,215.5C 354.851,217.869 355.018,220.203 355,222.5C 353.615,221.449 352.615,220.116 352,218.5C 351.946,226.61 356.113,230.61 364.5,230.5C 366.167,230.333 367.833,230.167 369.5,230C 370.05,227.842 371.05,227.342 372.5,228.5C 368.255,236.798 361.921,239.132 353.5,235.5C 351.545,231.361 350.045,227.028 349,222.5C 343.874,227.786 338.041,228.786 331.5,225.5C 330.652,224.375 329.652,224.375 328.5,225.5C 328.984,222.212 327.984,219.545 325.5,217.5C 326.043,211.29 329.377,207.624 335.5,206.5 Z"/></g>
<g><path style="opacity:1" fill="#f1f2e3" d="M 335.5,206.5 C 337.167,206.5 338.833,206.5 340.5,206.5C 340.03,207.693 339.03,208.36 337.5,208.5C 335.024,208.767 334.357,208.101 335.5,206.5 Z"/></g>
<g><path style="opacity:1" fill="#d6b685" d="M 531.5,215.5 C 533.429,215.231 535.095,215.731 536.5,217C 533.476,220.527 529.809,221.694 525.5,220.5C 527.162,218.348 529.162,216.682 531.5,215.5 Z"/></g>
<g><path style="opacity:1" fill="#a5b424" d="M 364.5,214.5 C 366.052,217.112 368.386,218.445 371.5,218.5C 372.6,219.605 373.267,220.938 373.5,222.5C 373.795,224.735 373.461,226.735 372.5,228.5C 371.05,227.342 370.05,227.842 369.5,230C 367.833,230.167 366.167,230.333 364.5,230.5C 356.113,230.61 351.946,226.61 352,218.5C 352.615,220.116 353.615,221.449 355,222.5C 355.018,220.203 354.851,217.869 354.5,215.5C 357.625,214.521 360.958,214.187 364.5,214.5 Z"/></g>
<g><path style="opacity:1" fill="#f0f1d4" d="M 358.5,217.5 C 360.035,216.212 361.701,216.212 363.5,217.5C 361.833,218.666 360.166,218.666 358.5,217.5 Z"/></g>
<g><path style="opacity:1" fill="#e8ecc6" d="M 322.5,218.5 C 324.337,218.639 324.67,219.306 323.5,220.5C 322.702,220.043 322.369,219.376 322.5,218.5 Z"/></g>
<g><path style="opacity:1" fill="#f4f5e1" d="M 367.5,219.5 C 369.983,219.73 370.483,220.397 369,221.5C 367.97,221.164 367.47,220.497 367.5,219.5 Z"/></g>
<g><path style="opacity:1" fill="#e2ae81" d="M 201.5,209.5 C 204.522,211.926 205.189,214.926 203.5,218.5C 205.18,221.571 205.847,224.904 205.5,228.5C 203.319,231.263 202.985,234.263 204.5,237.5C 203.127,237.657 201.793,237.49 200.5,237C 199.21,234.708 197.543,232.708 195.5,231C 202.167,229.679 202.167,229.013 195.5,229C 194.934,229.995 194.267,230.828 193.5,231.5C 192.694,230.272 191.694,229.272 190.5,228.5C 187.458,227.61 183.791,227.277 179.5,227.5C 173.198,226.253 166.864,225.086 160.5,224C 159.426,223.261 158.759,222.261 158.5,221C 160.812,218.688 163.145,216.355 165.5,214C 169.092,214.502 172.759,214.502 176.5,214C 184.611,211.246 192.944,209.746 201.5,209.5 Z"/></g>
<g><path style="opacity:1" fill="#da783b" d="M 173.5,218.5 C 181.942,218.29 190.275,219.124 198.5,221C 188.977,220.56 179.477,220.727 170,221.5C 168.278,221.389 168.112,220.889 169.5,220C 171.058,219.79 172.391,219.29 173.5,218.5 Z"/></g>
<g><path style="opacity:1" fill="#da793c" d="M 182.5,213.5 C 187.777,212.931 192.777,213.765 197.5,216C 193.649,216.54 189.815,216.374 186,215.5C 184.319,215.392 183.152,214.725 182.5,213.5 Z"/></g>
<g><path style="opacity:1" fill="#8f4b12" d="M 380.5,205.5 C 381.376,205.369 382.043,205.702 382.5,206.5C 381.489,209.502 381.656,212.502 383,215.5C 388.422,221.878 395.088,225.212 403,225.5C 404.274,226.535 405.44,227.702 406.5,229C 411.646,228.906 415.646,230.906 418.5,235C 422.908,235.025 426.908,236.191 430.5,238.5C 427.777,241.56 424.777,244.227 421.5,246.5C 416.566,245.868 411.9,244.368 407.5,242C 403.794,238.614 400.794,234.614 398.5,230C 393.5,227.667 388.5,225.333 383.5,223C 379.381,220.261 377.214,216.427 377,211.5C 374.316,210.932 371.816,209.932 369.5,208.5C 371.954,206.179 374.787,205.846 378,207.5C 379.301,207.361 380.134,206.695 380.5,205.5 Z"/></g>
<g><path style="opacity:1" fill="#da7b3f" d="M 183.5,224.5 C 187.846,224.334 192.179,224.501 196.5,225C 198.384,225.216 200.051,225.883 201.5,227C 197.335,227.312 193.168,227.145 189,226.5C 186.705,226.453 184.871,225.787 183.5,224.5 Z"/></g>
<g><path style="opacity:1" fill="#f8f5eb" d="M 219.5,227.5 C 217.633,227.955 215.8,228.622 214,229.5C 212.45,229.127 211.283,228.46 210.5,227.5C 211.492,225.974 212.992,225.307 215,225.5C 217.008,225.307 218.508,225.974 219.5,227.5 Z"/></g>
<g><path style="opacity:1" fill="#a35410" d="M 116.5,228.5 C 122.229,228.266 127.562,229.599 132.5,232.5C 134.436,233.908 134.602,235.241 133,236.5C 127.636,235.201 122.47,233.368 117.5,231C 116.748,230.329 116.414,229.496 116.5,228.5 Z"/></g>
<g><path style="opacity:1" fill="#838e18" d="M 286.5,204.5 C 286.457,207.91 286.957,211.243 288,214.5C 293.221,219.891 299.221,220.891 306,217.5C 306.232,218.737 306.732,219.737 307.5,220.5C 307.87,224.749 309.87,227.916 313.5,230C 317.871,230.629 322.204,230.463 326.5,229.5C 322.219,234.184 316.885,235.684 310.5,234C 309.473,233.487 308.473,232.987 307.5,232.5C 304.884,229.342 303.218,225.675 302.5,221.5C 295.768,224.984 289.934,223.984 285,218.5C 281.274,213.224 281.774,208.558 286.5,204.5 Z"/></g>
<g><path style="opacity:1" fill="#a5b426" d="M 210.5,227.5 C 211.283,228.46 212.45,229.127 214,229.5C 215.8,228.622 217.633,227.955 219.5,227.5C 220.167,228.167 220.833,228.833 221.5,229.5C 222.974,230.436 223.974,231.77 224.5,233.5C 224.293,236.241 223.293,238.574 221.5,240.5C 219.143,240.663 216.81,240.497 214.5,240C 215.833,239 215.833,238 214.5,237C 212.687,237.046 211.021,236.88 209.5,236.5C 207.713,234.142 206.713,231.475 206.5,228.5C 207.568,227.566 208.901,227.232 210.5,227.5 Z"/></g>
<g><path style="opacity:1" fill="#f7f8eb" d="M 221.5,229.5 C 221.052,231.465 220.052,231.798 218.5,230.5C 219.325,229.614 220.325,229.281 221.5,229.5 Z"/></g>
<g><path style="opacity:1" fill="#a15611" d="M 331.5,225.5 C 329.996,231.343 326.329,235.343 320.5,237.5C 317.833,237.5 315.167,237.5 312.5,237.5C 311.152,236.399 309.652,235.399 308,234.5C 307.536,233.906 307.369,233.239 307.5,232.5C 308.473,232.987 309.473,233.487 310.5,234C 316.885,235.684 322.219,234.184 326.5,229.5C 327.6,228.395 328.267,227.062 328.5,225.5C 329.652,224.375 330.652,224.375 331.5,225.5 Z"/></g>
<g><path style="opacity:1" fill="#a15611" d="M 373.5,222.5 C 375.385,224.795 375.885,227.462 375,230.5C 371.015,238.075 364.849,241.242 356.5,240C 354.859,238.871 353.859,237.371 353.5,235.5C 361.921,239.132 368.255,236.798 372.5,228.5C 373.461,226.735 373.795,224.735 373.5,222.5 Z"/></g>
<g><path style="opacity:1" fill="#8a941b" d="M 205.5,228.5 C 205.833,228.5 206.167,228.5 206.5,228.5C 206.713,231.475 207.713,234.142 209.5,236.5C 211.021,236.88 212.687,237.046 214.5,237C 215.833,238 215.833,239 214.5,240C 216.81,240.497 219.143,240.663 221.5,240.5C 216.406,245.241 211.073,245.574 205.5,241.5C 205.443,240.391 205.11,239.391 204.5,238.5C 204.5,238.167 204.5,237.833 204.5,237.5C 202.985,234.263 203.319,231.263 205.5,228.5 Z"/></g>
<g><path style="opacity:1" fill="#a65611" d="M 238.5,235.5 C 243.361,235.063 248.028,235.563 252.5,237C 247.569,240.882 242.403,241.382 237,238.5C 236.761,237.212 237.261,236.212 238.5,235.5 Z"/></g>
<g><path style="opacity:1" fill="#d99159" d="M 179.5,227.5 C 183.791,227.277 187.458,227.61 190.5,228.5C 188.972,228.517 188.472,229.184 189,230.5C 190.356,231.38 191.856,231.714 193.5,231.5C 194.267,230.828 194.934,229.995 195.5,229C 202.167,229.013 202.167,229.679 195.5,231C 197.543,232.708 199.21,234.708 200.5,237C 201.793,237.49 203.127,237.657 204.5,237.5C 204.5,237.833 204.5,238.167 204.5,238.5C 202.921,240.23 201.254,242.064 199.5,244C 197.191,244.756 195.191,244.256 193.5,242.5C 191.205,243.432 188.871,244.265 186.5,245C 181.467,245.171 176.467,245.671 171.5,246.5C 170.687,247.814 169.687,248.981 168.5,250C 165.246,250.25 162.246,251.25 159.5,253C 157.19,253.497 154.857,253.663 152.5,253.5C 151.442,252.4 150.608,251.066 150,249.5C 147.218,244.434 148.718,241.434 154.5,240.5C 155.931,237.961 157.597,235.628 159.5,233.5C 164.286,231.845 169.286,231.012 174.5,231C 176.973,230.78 178.64,229.614 179.5,227.5 Z"/></g>
<g><path style="opacity:1" fill="#f8f2eb" d="M 190.5,228.5 C 191.694,229.272 192.694,230.272 193.5,231.5C 191.856,231.714 190.356,231.38 189,230.5C 188.472,229.184 188.972,228.517 190.5,228.5 Z"/></g>
<g><path style="opacity:1" fill="#f8efe5" d="M 296.5,238.5 C 292.684,239.482 288.684,240.149 284.5,240.5C 285.058,239.21 286.058,238.377 287.5,238C 290.555,237.366 293.555,237.532 296.5,238.5 Z"/></g>
<g><path style="opacity:1" fill="#fdfdfc" d="M 105.5,239.5 C 107.308,240.907 109.308,242.074 111.5,243C 117.012,243.695 122.346,245.028 127.5,247C 131.5,251.333 135.5,255.667 139.5,260C 141.407,261.122 143.407,261.955 145.5,262.5C 145.389,263.117 145.056,263.617 144.5,264C 139.964,265.425 135.464,266.925 131,268.5C 117.813,262.243 105.813,254.243 95,244.5C 94.5,243.5 94,242.5 93.5,241.5C 97.4525,240.506 101.452,239.84 105.5,239.5 Z"/></g>
<g><path style="opacity:1" fill="#f5f1e4" d="M 321.5,239.5 C 323.973,239.088 325.306,240.088 325.5,242.5C 323.596,242.262 322.262,241.262 321.5,239.5 Z"/></g>
<g><path style="opacity:1" fill="#d87233" d="M 204.5,238.5 C 205.11,239.391 205.443,240.391 205.5,241.5C 202.651,246.279 198.318,249.112 192.5,250C 188.167,250.333 183.833,250.667 179.5,251C 178.167,252.333 176.833,253.667 175.5,255C 169.224,256.821 162.891,258.321 156.5,259.5C 154.674,257.853 153.34,255.853 152.5,253.5C 154.857,253.663 157.19,253.497 159.5,253C 162.246,251.25 165.246,250.25 168.5,250C 169.687,248.981 170.687,247.814 171.5,246.5C 176.467,245.671 181.467,245.171 186.5,245C 188.871,244.265 191.205,243.432 193.5,242.5C 195.191,244.256 197.191,244.756 199.5,244C 201.254,242.064 202.921,240.23 204.5,238.5 Z"/></g>
<g><path style="opacity:1" fill="#93a021" d="M 312.5,237.5 C 315.167,237.5 317.833,237.5 320.5,237.5C 320.833,238.167 321.167,238.833 321.5,239.5C 322.262,241.262 323.596,242.262 325.5,242.5C 325.5,243.167 325.5,243.833 325.5,244.5C 327.25,245.659 328.25,247.326 328.5,249.5C 328.606,252.079 327.939,254.412 326.5,256.5C 325.842,255.602 325.176,254.602 324.5,253.5C 315.829,258.431 309.662,256.098 306,246.5C 305.51,244.455 305.677,242.455 306.5,240.5C 308.181,238.992 310.181,237.992 312.5,237.5 Z"/></g>
<g><path style="opacity:1" fill="#f4f4e5" d="M 322.5,243.5 C 318.514,242.671 314.514,241.837 310.5,241C 313.5,240.333 316.5,240.333 319.5,241C 320.942,241.377 321.942,242.21 322.5,243.5 Z"/></g>
<g><path style="opacity:1" fill="#a45512" d="M 224.5,233.5 C 226.216,241.653 222.716,246.32 214,247.5C 211.064,246.607 208.231,245.607 205.5,244.5C 205.579,245.93 205.246,247.264 204.5,248.5C 197.332,252.169 189.665,254.002 181.5,254C 180.29,255.039 179.29,256.206 178.5,257.5C 175.579,258.696 172.579,259.696 169.5,260.5C 166.479,261.005 163.479,261.672 160.5,262.5C 158.583,262.246 157.249,261.246 156.5,259.5C 162.891,258.321 169.224,256.821 175.5,255C 176.833,253.667 178.167,252.333 179.5,251C 183.833,250.667 188.167,250.333 192.5,250C 198.318,249.112 202.651,246.279 205.5,241.5C 211.073,245.574 216.406,245.241 221.5,240.5C 223.293,238.574 224.293,236.241 224.5,233.5 Z"/></g>
<g><path style="opacity:1" fill="#a5b526" d="M 296.5,238.5 C 299.206,238.688 301.539,239.688 303.5,241.5C 301.035,246.1 301.035,250.767 303.5,255.5C 303.5,256.167 303.167,256.5 302.5,256.5C 296.621,258.193 290.954,257.693 285.5,255C 282.117,251.518 280.784,247.351 281.5,242.5C 281.973,241.094 282.973,240.427 284.5,240.5C 288.684,240.149 292.684,239.482 296.5,238.5 Z"/></g>
<g><path style="opacity:1" fill="#f2f3dd" d="M 289.5,241.5 C 292.518,241.335 295.518,241.502 298.5,242C 299.308,242.308 299.975,242.808 300.5,243.5C 296.558,243.204 292.391,243.537 288,244.5C 287.5,244.333 287,244.167 286.5,244C 287.571,243.148 288.571,242.315 289.5,241.5 Z"/></g>
<g><path style="opacity:1" fill="#7c8617" d="M 306.5,240.5 C 305.677,242.455 305.51,244.455 306,246.5C 309.662,256.098 315.829,258.431 324.5,253.5C 325.176,254.602 325.842,255.602 326.5,256.5C 320.706,263.181 314.039,264.181 306.5,259.5C 306.5,258.833 306.167,258.5 305.5,258.5C 305.573,256.973 304.906,255.973 303.5,255.5C 301.035,250.767 301.035,246.1 303.5,241.5C 304.391,240.89 305.391,240.557 306.5,240.5 Z"/></g>
<g><path style="opacity:1" fill="#f4f5e8" d="M 322.5,243.5 C 323.609,243.557 324.609,243.89 325.5,244.5C 324.053,245.885 323.053,245.552 322.5,243.5 Z"/></g>
<g><path style="opacity:1" fill="#f3f1e3" d="M 241.5,250.5 C 237.833,250.5 234.167,250.5 230.5,250.5C 230.611,249.883 230.944,249.383 231.5,249C 233.167,248.833 234.833,248.667 236.5,248.5C 238.64,248.556 240.306,249.223 241.5,250.5 Z"/></g>
<g><path style="opacity:1" fill="#f2efe0" d="M 218.5,251.5 C 215.375,252.637 212.208,253.971 209,255.5C 207.923,254.571 206.756,253.904 205.5,253.5C 205.953,252.542 206.619,251.708 207.5,251C 211.255,250.245 214.922,250.411 218.5,251.5 Z"/></g>
<g><path style="opacity:1" fill="#93a11f" d="M 230.5,250.5 C 234.167,250.5 237.833,250.5 241.5,250.5C 245.365,251.706 247.365,254.373 247.5,258.5C 246.89,259.391 246.557,260.391 246.5,261.5C 245.698,262.952 245.198,264.618 245,266.5C 244.292,267.381 243.458,268.047 242.5,268.5C 232.694,267.693 227.694,262.36 227.5,252.5C 227.973,251.094 228.973,250.427 230.5,250.5 Z"/></g>
<g><path style="opacity:1" fill="#eff0da" d="M 234.5,251.5 C 235.978,251.238 237.311,251.571 238.5,252.5C 237.833,252.833 237.167,253.167 236.5,253.5C 235.287,253.253 234.62,252.586 234.5,251.5 Z"/></g>
<g><path style="opacity:1" fill="#7c8517" d="M 227.5,252.5 C 227.694,262.36 232.694,267.693 242.5,268.5C 236.976,272.717 231.643,272.383 226.5,267.5C 224.254,263.45 222.921,259.116 222.5,254.5C 224.167,253.833 225.833,253.167 227.5,252.5 Z"/></g>
<g><path style="opacity:1" fill="#92a11e" d="M 218.5,251.5 C 220.23,252.026 221.564,253.026 222.5,254.5C 222.921,259.116 224.254,263.45 226.5,267.5C 226.029,269.579 225.363,271.579 224.5,273.5C 213.333,276.786 205,273.453 199.5,263.5C 199.5,262.167 199.5,260.833 199.5,259.5C 201.139,257.194 203.139,255.194 205.5,253.5C 206.756,253.904 207.923,254.571 209,255.5C 212.208,253.971 215.375,252.637 218.5,251.5 Z"/></g>
<g><path style="opacity:1" fill="#fcfbf4" d="M 217.5,253.5 C 219.337,253.639 219.67,254.306 218.5,255.5C 217.702,255.043 217.369,254.376 217.5,253.5 Z"/></g>
<g><path style="opacity:1" fill="#f9f9ee" d="M 242.5,253.5 C 244.337,253.639 244.67,254.306 243.5,255.5C 242.702,255.043 242.369,254.376 242.5,253.5 Z"/></g>
<g><path style="opacity:1" fill="#ef5b25" d="M 265.5,257.5 C 263.645,257.272 262.812,257.939 263,259.5C 264.692,261.245 266.525,261.578 268.5,260.5C 268.145,259.478 267.478,258.811 266.5,258.5C 266.56,257.957 266.893,257.624 267.5,257.5C 269.893,258.929 272.226,260.263 274.5,261.5C 273.249,262.472 273.582,263.139 275.5,263.5C 276.713,263.253 277.38,262.586 277.5,261.5C 280.096,262.265 282.763,262.599 285.5,262.5C 287.98,263.242 290.313,264.242 292.5,265.5C 296.671,269.837 297.338,274.504 294.5,279.5C 283.693,274.51 272.359,271.01 260.5,269C 255.109,267.714 250.442,265.214 246.5,261.5C 246.557,260.391 246.89,259.391 247.5,258.5C 249.327,255.187 252.16,253.187 256,252.5C 259.481,253.821 262.648,255.488 265.5,257.5 Z"/></g>
<g><path style="opacity:1" fill="#879218" d="M 281.5,242.5 C 280.784,247.351 282.117,251.518 285.5,255C 290.954,257.693 296.621,258.193 302.5,256.5C 298.155,262.965 292.488,264.131 285.5,260C 284.295,258.624 282.962,257.458 281.5,256.5C 276.333,251.631 276.333,246.964 281.5,242.5 Z"/></g>
<g><path style="opacity:1" fill="#959f1b" d="M 198.5,258.5 C 188.452,261.673 178.119,263.006 167.5,262.5C 168.167,261.833 168.833,261.167 169.5,260.5C 172.579,259.696 175.579,258.696 178.5,257.5C 182.823,257.12 187.156,256.786 191.5,256.5C 194.269,256.529 196.603,257.195 198.5,258.5 Z"/></g>
<g><path style="opacity:1" fill="#fce8df" d="M 255.5,255.5 C 256.978,255.238 258.311,255.571 259.5,256.5C 257.284,257.806 254.951,258.306 252.5,258C 253.571,257.148 254.571,256.315 255.5,255.5 Z"/></g>
<g><path style="opacity:1" fill="#a25a11" d="M 198.5,258.5 C 199.167,258.5 199.5,258.833 199.5,259.5C 199.5,260.833 199.5,262.167 199.5,263.5C 199.5,265.167 199.5,266.833 199.5,268.5C 198.539,266.735 198.205,264.735 198.5,262.5C 188.903,264.321 179.236,265.155 169.5,265C 170.167,264.667 170.833,264.333 171.5,264C 169.264,263.921 167.93,263.421 167.5,262.5C 178.119,263.006 188.452,261.673 198.5,258.5 Z"/></g>
<g><path style="opacity:1" fill="#fae5dc" d="M 265.5,257.5 C 265.5,258.167 265.833,258.5 266.5,258.5C 267.478,258.811 268.145,259.478 268.5,260.5C 266.525,261.578 264.692,261.245 263,259.5C 262.812,257.939 263.645,257.272 265.5,257.5 Z"/></g>
<g><path style="opacity:1" fill="#a25611" d="M 328.5,249.5 C 329.989,253.595 329.489,257.595 327,261.5C 319.242,267.422 312.408,266.755 306.5,259.5C 314.039,264.181 320.706,263.181 326.5,256.5C 327.939,254.412 328.606,252.079 328.5,249.5 Z"/></g>
<g><path style="opacity:1" fill="#f8d0bf" d="M 274.5,261.5 C 275.5,261.5 276.5,261.5 277.5,261.5C 277.38,262.586 276.713,263.253 275.5,263.5C 273.582,263.139 273.249,262.472 274.5,261.5 Z"/></g>
<g><path style="opacity:1" fill="#a25611" d="M 303.5,255.5 C 304.906,255.973 305.573,256.973 305.5,258.5C 302.774,263.643 298.441,265.977 292.5,265.5C 290.313,264.242 287.98,263.242 285.5,262.5C 283.39,261.05 282.057,259.05 281.5,256.5C 282.962,257.458 284.295,258.624 285.5,260C 292.488,264.131 298.155,262.965 302.5,256.5C 303.167,256.5 303.5,256.167 303.5,255.5 Z"/></g>
<g><path style="opacity:1" fill="#c1471c" d="M 246.5,261.5 C 250.442,265.214 255.109,267.714 260.5,269C 272.359,271.01 283.693,274.51 294.5,279.5C 293.559,281.05 292.893,282.716 292.5,284.5C 291.5,284.5 290.5,284.5 289.5,284.5C 279.197,283.258 269.197,280.758 259.5,277C 255.304,274.739 251.304,272.239 247.5,269.5C 246.735,266.904 246.401,264.237 246.5,261.5 Z"/></g>
<g><path style="opacity:1" fill="#7b8617" d="M 199.5,263.5 C 205,273.453 213.333,276.786 224.5,273.5C 223.327,275.504 221.66,277.004 219.5,278C 214.61,278.966 209.943,278.466 205.5,276.5C 203.147,274.14 201.147,271.473 199.5,268.5C 199.5,266.833 199.5,265.167 199.5,263.5 Z"/></g>
<g><path style="opacity:1" fill="#a15711" d="M 246.5,261.5 C 246.401,264.237 246.735,266.904 247.5,269.5C 241.41,275.612 235.077,275.945 228.5,270.5C 226.904,278.385 222.07,282.385 214,282.5C 209.913,282.059 207.08,280.059 205.5,276.5C 209.943,278.466 214.61,278.966 219.5,278C 221.66,277.004 223.327,275.504 224.5,273.5C 225.363,271.579 226.029,269.579 226.5,267.5C 231.643,272.383 236.976,272.717 242.5,268.5C 243.458,268.047 244.292,267.381 245,266.5C 245.198,264.618 245.698,262.952 246.5,261.5 Z"/></g>
<g><path style="opacity:1" fill="#a35413" d="M 247.5,269.5 C 251.304,272.239 255.304,274.739 259.5,277C 269.197,280.758 279.197,283.258 289.5,284.5C 287.401,285.612 285.067,286.279 282.5,286.5C 281.5,286.5 280.5,286.5 279.5,286.5C 271.002,284.111 262.669,280.944 254.5,277C 251.261,275.264 248.927,272.764 247.5,269.5 Z"/></g>
<g><path style="opacity:1" fill="#b9b5b2" d="M 295.5,283.5 C 293.79,288.183 290.457,289.683 285.5,288C 284.263,287.768 283.263,287.268 282.5,286.5C 285.067,286.279 287.401,285.612 289.5,284.5C 290.5,284.5 291.5,284.5 292.5,284.5C 293.391,283.89 294.391,283.557 295.5,283.5 Z"/></g>
</svg>
