<?xml version="1.0" encoding="UTF-8"?>
<!DOCTYPE svg PUBLIC "-//W3C//DTD SVG 1.1//EN" "http://www.w3.org/Graphics/SVG/1.1/DTD/svg11.dtd">
<svg xmlns="http://www.w3.org/2000/svg" version="1.1" width="659px" height="378px" style="shape-rendering:geometricPrecision; text-rendering:geometricPrecision; image-rendering:optimizeQuality; fill-rule:evenodd; clip-rule:evenodd" xmlns:xlink="http://www.w3.org/1999/xlink">
<g><path style="opacity:1" fill="#2e383a" d="M 467.5,60.5 C 466.357,60.9081 465.357,61.5748 464.5,62.5C 465.419,65.8331 464.419,68.6664 461.5,71C 449.603,77.448 437.603,83.6146 425.5,89.5C 371.221,65.2086 315.221,60.7086 257.5,76C 248.868,78.6606 240.534,81.8273 232.5,85.5C 228.277,87.4442 223.944,89.1108 219.5,90.5C 207.428,84.6299 195.428,78.4632 183.5,72C 179.747,69.6804 178.414,66.5137 179.5,62.5C 178.099,61.4793 176.765,60.4793 175.5,59.5C 205.359,44.278 237.025,34.4447 270.5,30C 330.836,22.3335 389.503,29.0002 446.5,50C 453.84,53.0032 460.84,56.5032 467.5,60.5 Z"/></g>
<g><path style="opacity:1" fill="#e9e0c7" d="M 153.5,48.5 C 150.538,47.9391 147.705,46.9391 145,45.5C 143.392,45.9739 143.226,46.6406 144.5,47.5C 154.458,52.3953 164.291,57.3953 174,62.5C 174.5,62.3333 175,62.1667 175.5,62C 174.748,61.3292 174.414,60.4959 174.5,59.5C 174.833,59.5 175.167,59.5 175.5,59.5C 176.765,60.4793 178.099,61.4793 179.5,62.5C 178.414,66.5137 179.747,69.6804 183.5,72C 195.428,78.4632 207.428,84.6299 219.5,90.5C 220.965,91.7368 222.632,92.7368 224.5,93.5C 226.762,94.8234 229.096,96.1568 231.5,97.5C 231.145,98.5223 230.478,99.189 229.5,99.5C 197.745,82.29 165.745,65.6233 133.5,49.5C 132.005,49.5852 131.005,48.9185 130.5,47.5C 134.936,42.4116 140.27,41.2449 146.5,44C 149.187,45.0486 151.52,46.5486 153.5,48.5 Z"/></g>
<g><path style="opacity:1" fill="#e9e1c8" d="M 512.5,47.5 C 479.865,64.8185 447.198,82.1519 414.5,99.5C 413.522,99.189 412.855,98.5223 412.5,97.5C 414.565,96.1433 416.565,94.81 418.5,93.5C 421.004,92.4161 423.337,91.0828 425.5,89.5C 437.603,83.6146 449.603,77.448 461.5,71C 464.419,68.6664 465.419,65.8331 464.5,62.5C 465.357,61.5748 466.357,60.9081 467.5,60.5C 469.368,59.7368 471.035,58.7368 472.5,57.5C 481.473,52.6792 490.473,47.8458 499.5,43C 504.879,41.698 509.212,43.198 512.5,47.5 Z"/></g>
<g><path style="opacity:1" fill="#edede6" d="M 153.5,48.5 C 159.483,51.4706 165.483,54.4706 171.5,57.5C 172.29,58.4013 173.29,59.0679 174.5,59.5C 174.414,60.4959 174.748,61.3292 175.5,62C 175,62.1667 174.5,62.3333 174,62.5C 164.291,57.3953 154.458,52.3953 144.5,47.5C 143.226,46.6406 143.392,45.9739 145,45.5C 147.705,46.9391 150.538,47.9391 153.5,48.5 Z"/></g>
<g><path style="opacity:1" fill="#505d67" d="M 472.5,57.5 C 471.035,58.7368 469.368,59.7368 467.5,60.5C 460.84,56.5032 453.84,53.0032 446.5,50C 389.503,29.0002 330.836,22.3335 270.5,30C 237.025,34.4447 205.359,44.278 175.5,59.5C 175.167,59.5 174.833,59.5 174.5,59.5C 173.29,59.0679 172.29,58.4013 171.5,57.5C 218.651,35.6016 268.318,24.935 320.5,25.5C 373.652,25.0623 424.319,35.7289 472.5,57.5 Z"/></g>
<g><path style="opacity:1" fill="#fcfbf7" d="M 497.5,45.5 C 498.873,45.3433 500.207,45.51 501.5,46C 490.446,52.2792 479.279,58.4459 468,64.5C 467.251,63.365 467.417,62.365 468.5,61.5C 478.421,56.3782 488.088,51.0448 497.5,45.5 Z"/></g>
<g><path style="opacity:1" fill="#2e383a" d="M 162.5,66.5 C 173.988,71.7414 184.988,77.7414 195.5,84.5C 193.901,84.2322 192.568,84.5655 191.5,85.5C 186.914,86.6713 185.581,89.3379 187.5,93.5C 189.706,98.047 192.706,102.047 196.5,105.5C 185.846,114.659 176.346,124.992 168,136.5C 164.327,142.841 161.494,149.508 159.5,156.5C 153.782,156.52 148.448,158.02 143.5,161C 141.561,162.432 140.228,164.265 139.5,166.5C 120.813,167.235 102.147,168.235 83.5,169.5C 84.6243,153.627 89.4577,138.96 98,125.5C 108.325,108.504 121.492,94.0042 137.5,82C 145.471,76.1855 153.804,71.0189 162.5,66.5 Z"/></g>
<g><path style="opacity:1" fill="#325125" d="M 425.5,89.5 C 423.337,91.0828 421.004,92.4161 418.5,93.5C 416.056,90.7753 413.39,88.2753 410.5,86C 399.936,84.7659 389.603,85.7659 379.5,89C 374.58,91.9156 370.247,95.5823 366.5,100C 364.564,100.813 362.564,101.313 360.5,101.5C 339.489,93.5322 318.489,93.5322 297.5,101.5C 291.855,100.284 286.188,100.284 280.5,101.5C 279.609,100.89 278.609,100.557 277.5,100.5C 271.342,92.0824 263.009,87.2491 252.5,86C 245.842,85.5004 239.175,85.3337 232.5,85.5C 240.534,81.8273 248.868,78.6606 257.5,76C 315.221,60.7086 371.221,65.2086 425.5,89.5 Z"/></g>
<g><path style="opacity:1" fill="#2e383a" d="M 480.5,66.5 C 510.838,82.6716 534.005,106.005 550,136.5C 554.674,147.041 557.507,158.041 558.5,169.5C 540.158,168.686 521.824,167.686 503.5,166.5C 503.249,164.83 502.582,163.33 501.5,162C 497.525,159.854 493.525,158.02 489.5,156.5C 481.73,134.623 468.397,116.956 449.5,103.5C 451.833,100.167 454.167,96.8333 456.5,93.5C 458.074,90.5696 457.408,88.0696 454.5,86C 450.797,85.4213 447.131,85.588 443.5,86.5C 455.666,79.5827 467.999,72.916 480.5,66.5 Z"/></g>
<g><path style="opacity:1" fill="#c8b47e" d="M 133.5,49.5 C 165.745,65.6233 197.745,82.29 229.5,99.5C 228.399,100.598 227.066,100.765 225.5,100C 217.918,96.4584 210.585,92.6251 203.5,88.5C 201.421,86.127 198.754,84.7936 195.5,84.5C 184.988,77.7414 173.988,71.7414 162.5,66.5C 161.101,65.1103 159.434,64.1103 157.5,63.5C 149.136,59.323 141.136,54.6564 133.5,49.5 Z"/></g>
<g><path style="opacity:1" fill="#c7b47e" d="M 512.5,47.5 C 513.738,47.81 513.738,48.31 512.5,49C 503.609,54.063 494.609,58.8963 485.5,63.5C 483.632,64.2632 481.965,65.2632 480.5,66.5C 467.999,72.916 455.666,79.5827 443.5,86.5C 440.669,87.0787 438.336,88.412 436.5,90.5C 430.046,93.2175 423.713,96.3842 417.5,100C 416.251,100.74 415.251,100.573 414.5,99.5C 447.198,82.1519 479.865,64.8185 512.5,47.5 Z"/></g>
<g><path style="opacity:1" fill="#d0a943" d="M 191.5,85.5 C 195.811,85.3263 199.811,86.3263 203.5,88.5C 210.585,92.6251 217.918,96.4584 225.5,100C 227.066,100.765 228.399,100.598 229.5,99.5C 230.478,99.189 231.145,98.5223 231.5,97.5C 229.096,96.1568 226.762,94.8234 224.5,93.5C 227.473,91.1938 230.14,88.5272 232.5,85.5C 239.175,85.3337 245.842,85.5004 252.5,86C 263.009,87.2491 271.342,92.0824 277.5,100.5C 278.053,102.552 279.053,102.885 280.5,101.5C 286.188,100.284 291.855,100.284 297.5,101.5C 290.965,105.027 284.965,109.36 279.5,114.5C 278.391,113.71 277.058,113.21 275.5,113C 276.5,112.667 277.5,112.333 278.5,112C 277.382,110.926 276.382,109.76 275.5,108.5C 274.667,109.5 273.833,110.5 273,111.5C 272.601,111.272 272.435,110.938 272.5,110.5C 273.511,106.888 273.678,103.221 273,99.5C 271.594,96.5914 269.428,94.5914 266.5,93.5C 265.713,91.8958 264.38,91.2291 262.5,91.5C 257.515,90.2325 252.848,90.8992 248.5,93.5C 245.017,94.8635 243.35,97.5301 243.5,101.5C 244.435,105.969 245.768,110.303 247.5,114.5C 246.66,116.853 245.326,118.853 243.5,120.5C 241.46,119.058 239.127,118.058 236.5,117.5C 234.869,114.404 232.869,111.57 230.5,109C 225.845,109.164 221.179,109.164 216.5,109C 214.893,107.951 214.227,106.451 214.5,104.5C 210.719,105.211 207.719,104.045 205.5,101C 203.833,100.667 202.167,100.333 200.5,100C 199.349,96.831 198.349,93.9977 197.5,91.5C 194.444,93.2892 191.111,93.9559 187.5,93.5C 185.581,89.3379 186.914,86.6713 191.5,85.5 Z"/></g>
<g><path style="opacity:1" fill="#625e46" d="M 191.5,85.5 C 192.568,84.5655 193.901,84.2322 195.5,84.5C 198.754,84.7936 201.421,86.127 203.5,88.5C 199.811,86.3263 195.811,85.3263 191.5,85.5 Z"/></g>
<g><path style="opacity:1" fill="#d0aa44" d="M 418.5,93.5 C 416.565,94.81 414.565,96.1433 412.5,97.5C 412.855,98.5223 413.522,99.189 414.5,99.5C 415.251,100.573 416.251,100.74 417.5,100C 423.713,96.3842 430.046,93.2175 436.5,90.5C 439.331,89.9213 441.664,88.588 443.5,86.5C 447.131,85.588 450.797,85.4213 454.5,86C 457.408,88.0696 458.074,90.5696 456.5,93.5C 452.889,93.9559 449.556,93.2892 446.5,91.5C 444.127,94.0177 443.127,97.0177 443.5,100.5C 441.801,100.34 440.134,100.506 438.5,101C 435.828,103.951 432.495,105.117 428.5,104.5C 428.714,106.144 428.38,107.644 427.5,109C 423.81,109.581 420.144,109.415 416.5,108.5C 414.701,108.577 413.034,109.077 411.5,110C 410.084,112.835 408.417,115.502 406.5,118C 404.122,118.511 401.788,119.178 399.5,120C 397.597,122.405 395.264,124.239 392.5,125.5C 390.35,123.851 388.35,122.018 386.5,120C 385.251,119.26 384.251,119.427 383.5,120.5C 377.575,112.04 369.908,105.707 360.5,101.5C 362.564,101.313 364.564,100.813 366.5,100C 370.247,95.5823 374.58,91.9156 379.5,89C 389.603,85.7659 399.936,84.7659 410.5,86C 413.39,88.2753 416.056,90.7753 418.5,93.5 Z"/></g>
<g><path style="opacity:1" fill="#6b6444" d="M 443.5,86.5 C 441.664,88.588 439.331,89.9213 436.5,90.5C 438.336,88.412 440.669,87.0787 443.5,86.5 Z"/></g>
<g><path style="opacity:1" fill="#344f25" d="M 232.5,85.5 C 230.14,88.5272 227.473,91.1938 224.5,93.5C 222.632,92.7368 220.965,91.7368 219.5,90.5C 223.944,89.1108 228.277,87.4442 232.5,85.5 Z"/></g>
<g><path style="opacity:0.99" fill="#535d67" d="M 157.5,63.5 C 159.434,64.1103 161.101,65.1103 162.5,66.5C 153.804,71.0189 145.471,76.1855 137.5,82C 121.492,94.0042 108.325,108.504 98,125.5C 89.4577,138.96 84.6243,153.627 83.5,169.5C 81.1667,169.5 78.8333,169.5 76.5,169.5C 83.1054,136.788 99.1054,109.621 124.5,88C 135.443,79.5286 146.443,71.3619 157.5,63.5 Z"/></g>
<g><path style="opacity:1" fill="#5f791f" d="M 391.5,90.5 C 392.204,92.3442 393.537,92.8442 395.5,92C 394.944,91.6174 394.611,91.1174 394.5,90.5C 398.618,91.7272 402.618,93.2272 406.5,95C 409.397,96.7155 410.731,99.2155 410.5,102.5C 403.813,107.005 396.48,108.672 388.5,107.5C 390.573,105.42 392.907,103.754 395.5,102.5C 398.068,103.643 400.735,103.476 403.5,102C 402.437,100.812 401.103,100.312 399.5,100.5C 403.513,96.4953 402.513,95.4953 396.5,97.5C 391.676,95.2383 386.676,94.9049 381.5,96.5C 383.494,92.5466 386.827,90.5466 391.5,90.5 Z"/></g>
<g><path style="opacity:1" fill="#e6e8d7" d="M 391.5,90.5 C 392.5,90.5 393.5,90.5 394.5,90.5C 394.611,91.1174 394.944,91.6174 395.5,92C 393.537,92.8442 392.204,92.3442 391.5,90.5 Z"/></g>
<g><path style="opacity:1" fill="#efd0c4" d="M 262.5,91.5 C 264.38,91.2291 265.713,91.8958 266.5,93.5C 266.44,94.0431 266.107,94.3764 265.5,94.5C 263.787,94.1207 262.787,93.1207 262.5,91.5 Z"/></g>
<g><path style="opacity:1" fill="#b88139" d="M 243.5,120.5 C 241.857,124.3 241.19,128.3 241.5,132.5C 231.375,128.883 222.375,123.383 214.5,116C 208.308,112.741 202.308,109.241 196.5,105.5C 192.706,102.047 189.706,98.047 187.5,93.5C 191.111,93.9559 194.444,93.2892 197.5,91.5C 198.349,93.9977 199.349,96.831 200.5,100C 202.167,100.333 203.833,100.667 205.5,101C 207.719,104.045 210.719,105.211 214.5,104.5C 214.227,106.451 214.893,107.951 216.5,109C 221.179,109.164 225.845,109.164 230.5,109C 232.869,111.57 234.869,114.404 236.5,117.5C 239.127,118.058 241.46,119.058 243.5,120.5 Z"/></g>
<g><path style="opacity:1" fill="#c52e15" d="M 262.5,91.5 C 262.787,93.1207 263.787,94.1207 265.5,94.5C 266.107,94.3764 266.44,94.0431 266.5,93.5C 269.428,94.5914 271.594,96.5914 273,99.5C 273.678,103.221 273.511,106.888 272.5,110.5C 271.833,110.5 271.5,110.833 271.5,111.5C 258.108,118.429 248.775,115.096 243.5,101.5C 243.35,97.5301 245.017,94.8635 248.5,93.5C 252.848,90.8992 257.515,90.2325 262.5,91.5 Z"/></g>
<g><path style="opacity:1" fill="#f4dfdb" d="M 248.5,93.5 C 249.791,93.2627 250.791,93.596 251.5,94.5C 246.943,98.5579 245.943,98.2246 248.5,93.5 Z"/></g>
<g><path style="opacity:1" fill="#b9823a" d="M 456.5,93.5 C 454.167,96.8333 451.833,100.167 449.5,103.5C 436.345,111.246 423.678,119.746 411.5,129C 408.583,130.528 405.583,131.861 402.5,133C 403.056,133.383 403.389,133.883 403.5,134.5C 402.849,135.091 402.182,135.757 401.5,136.5C 400.893,136.376 400.56,136.043 400.5,135.5C 401.738,135.19 401.738,134.69 400.5,134C 399.207,133.51 397.873,133.343 396.5,133.5C 397.263,132.732 398.263,132.232 399.5,132C 394.67,130.412 390.004,128.579 385.5,126.5C 384.833,124.5 384.167,122.5 383.5,120.5C 384.251,119.427 385.251,119.26 386.5,120C 388.35,122.018 390.35,123.851 392.5,125.5C 395.264,124.239 397.597,122.405 399.5,120C 401.788,119.178 404.122,118.511 406.5,118C 408.417,115.502 410.084,112.835 411.5,110C 413.034,109.077 414.701,108.577 416.5,108.5C 420.144,109.415 423.81,109.581 427.5,109C 428.38,107.644 428.714,106.144 428.5,104.5C 432.495,105.117 435.828,103.951 438.5,101C 440.134,100.506 441.801,100.34 443.5,100.5C 443.127,97.0177 444.127,94.0177 446.5,91.5C 449.556,93.2892 452.889,93.9559 456.5,93.5 Z"/></g>
<g><path style="opacity:1" fill="#f4f6f9" d="M 360.5,101.5 C 369.908,105.707 377.575,112.04 383.5,120.5C 384.167,122.5 384.833,124.5 385.5,126.5C 387.014,133.03 386.347,139.363 383.5,145.5C 382.89,146.391 382.557,147.391 382.5,148.5C 381.512,149.795 380.512,151.128 379.5,152.5C 361.831,168.139 341.164,174.306 317.5,171C 302.294,168.73 289.294,162.23 278.5,151.5C 275.328,146.988 273.328,141.988 272.5,136.5C 271.746,129.992 273.079,123.992 276.5,118.5C 277.488,117.205 278.488,115.872 279.5,114.5C 284.965,109.36 290.965,105.027 297.5,101.5C 318.489,93.5322 339.489,93.5322 360.5,101.5 Z"/></g>
<g><path style="opacity:1" fill="#c8a53f" d="M 396.5,97.5 C 393.33,99.344 390.163,101.344 387,103.5C 382.715,102.58 380.882,100.247 381.5,96.5C 386.676,94.9049 391.676,95.2383 396.5,97.5 Z"/></g>
<g><path style="opacity:1" fill="#cea340" d="M 251.5,94.5 C 253.719,100.107 256.386,105.607 259.5,111C 257.833,111.667 256.167,111.667 254.5,111C 249.434,106.094 248.434,100.594 251.5,94.5 Z"/></g>
<g><path style="opacity:1" fill="#d0a440" d="M 254.5,93.5 C 265.797,95.0987 268.797,100.765 263.5,110.5C 260.744,104.653 257.744,98.9861 254.5,93.5 Z"/></g>
<g><path style="opacity:1" fill="#eee7d0" d="M 277.5,100.5 C 278.609,100.557 279.609,100.89 280.5,101.5C 279.053,102.885 278.053,102.552 277.5,100.5 Z"/></g>
<g><path style="opacity:1" fill="#bc8f3b" d="M 399.5,100.5 C 401.103,100.312 402.437,100.812 403.5,102C 400.735,103.476 398.068,103.643 395.5,102.5C 396.605,101.4 397.938,100.733 399.5,100.5 Z"/></g>
<g><path style="opacity:1" fill="#51681a" d="M 381.5,96.5 C 380.882,100.247 382.715,102.58 387,103.5C 390.163,101.344 393.33,99.344 396.5,97.5C 402.513,95.4953 403.513,96.4953 399.5,100.5C 397.938,100.733 396.605,101.4 395.5,102.5C 392.907,103.754 390.573,105.42 388.5,107.5C 396.48,108.672 403.813,107.005 410.5,102.5C 410.16,105.675 408.493,107.841 405.5,109C 399.235,110.484 392.902,110.818 386.5,110C 380.325,107.867 377.492,103.7 378,97.5C 379.011,96.6634 380.178,96.33 381.5,96.5 Z"/></g>
<g><path style="opacity:1" fill="#c42a18" d="M 346.5,104.5 C 348.671,105.245 351.005,105.412 353.5,105C 355.324,105.66 356.657,106.827 357.5,108.5C 358.388,111.054 358.721,113.721 358.5,116.5C 354.592,121.902 349.592,126.069 343.5,129C 338.448,129.726 333.448,129.559 328.5,128.5C 327.4,127.395 326.733,126.062 326.5,124.5C 326.509,122.692 326.009,121.025 325,119.5C 321.381,126.451 315.881,131.284 308.5,134C 305.038,134.46 301.704,133.96 298.5,132.5C 296.918,127.328 297.252,122.328 299.5,117.5C 299.833,117.5 300.167,117.5 300.5,117.5C 300.393,115.097 301.393,113.264 303.5,112C 306.309,110.259 309.309,109.092 312.5,108.5C 312.938,108.435 313.272,108.601 313.5,109C 310.879,109.906 311.046,110.406 314,110.5C 315.109,109.495 316.609,108.828 318.5,108.5C 322.606,108.482 325.106,110.482 326,114.5C 326.852,113.429 327.685,112.429 328.5,111.5C 329.716,109.549 331.382,108.049 333.5,107C 337.794,105.857 342.127,105.023 346.5,104.5 Z"/></g>
<g><path style="opacity:1" fill="#335124" d="M 449.5,103.5 C 468.397,116.956 481.73,134.623 489.5,156.5C 483.779,156.918 478.112,157.418 472.5,158C 468.804,154.964 465.804,151.297 463.5,147C 456.956,142.227 449.956,138.227 442.5,135C 440.5,134.333 438.5,134.333 436.5,135C 429.58,140.281 421.913,141.781 413.5,139.5C 410.477,137.322 407.144,135.655 403.5,134.5C 403.389,133.883 403.056,133.383 402.5,133C 405.583,131.861 408.583,130.528 411.5,129C 423.678,119.746 436.345,111.246 449.5,103.5 Z"/></g>
<g><path style="opacity:1" fill="#d5cdcf" d="M 346.5,104.5 C 342.127,105.023 337.794,105.857 333.5,107C 331.382,108.049 329.716,109.549 328.5,111.5C 327.685,112.429 326.852,113.429 326,114.5C 325.106,110.482 322.606,108.482 318.5,108.5C 316.5,107.167 314.5,107.167 312.5,108.5C 309.309,109.092 306.309,110.259 303.5,112C 301.393,113.264 300.393,115.097 300.5,117.5C 300.167,117.5 299.833,117.5 299.5,117.5C 298.448,117.351 297.448,117.517 296.5,118C 293.969,121.854 291.469,125.687 289,129.5C 286.914,132.094 284.414,134.094 281.5,135.5C 281.635,125.73 285.635,117.897 293.5,112C 310.118,101.251 327.785,98.7507 346.5,104.5 Z"/></g>
<g><path style="opacity:1" fill="#de9389" d="M 312.5,108.5 C 314.5,107.167 316.5,107.167 318.5,108.5C 316.609,108.828 315.109,109.495 314,110.5C 311.046,110.406 310.879,109.906 313.5,109C 313.272,108.601 312.938,108.435 312.5,108.5 Z"/></g>
<g><path style="opacity:1" fill="#d3c5c4" d="M 337.5,107.5 C 341.509,107.858 345.509,108.358 349.5,109C 353.282,112.813 353.115,116.646 349,120.5C 345.25,115.928 341.417,111.594 337.5,107.5 Z"/></g>
<g><path style="opacity:1" fill="#d5cfd0" d="M 357.5,108.5 C 371.293,113.752 377.793,123.752 377,138.5C 375.787,140.925 374.621,143.259 373.5,145.5C 371.469,145.028 369.802,144.028 368.5,142.5C 370.647,134.586 369.481,127.252 365,120.5C 362.948,119.207 360.781,118.207 358.5,117.5C 358.5,117.167 358.5,116.833 358.5,116.5C 358.721,113.721 358.388,111.054 357.5,108.5 Z"/></g>
<g><path style="opacity:1" fill="#a62310" d="M 243.5,101.5 C 248.775,115.096 258.108,118.429 271.5,111.5C 269.884,116.155 266.551,118.655 261.5,119C 258.5,119.667 255.5,119.667 252.5,119C 250.963,117.293 249.296,115.793 247.5,114.5C 245.768,110.303 244.435,105.969 243.5,101.5 Z"/></g>
<g><path style="opacity:1" fill="#e9b4ad" d="M 328.5,111.5 C 330.97,112.36 331.137,113.694 329,115.5C 328.51,114.207 328.343,112.873 328.5,111.5 Z"/></g>
<g><path style="opacity:1" fill="#335125" d="M 196.5,105.5 C 202.308,109.241 208.308,112.741 214.5,116C 222.375,123.383 231.375,128.883 241.5,132.5C 242.561,135.622 243.895,138.622 245.5,141.5C 241.485,140.063 237.318,139.396 233,139.5C 223.402,142.067 214.568,140.567 206.5,135C 204.5,134.333 202.5,134.333 200.5,135C 188.795,139.378 179.462,146.711 172.5,157C 170.966,157.923 169.299,158.423 167.5,158.5C 164.822,157.825 162.156,157.158 159.5,156.5C 161.494,149.508 164.327,142.841 168,136.5C 176.346,124.992 185.846,114.659 196.5,105.5 Z"/></g>
<g><path style="opacity:1" fill="#bab77c" d="M 308.5,114.5 C 320.427,112.583 322.594,116.25 315,125.5C 312.579,121.929 310.413,118.262 308.5,114.5 Z"/></g>
<g><path style="opacity:1" fill="#525c66" d="M 485.5,63.5 C 485.414,64.4959 485.748,65.3292 486.5,66C 505.399,77.0583 522.065,90.8916 536.5,107.5C 547.241,120.972 555.407,135.972 561,152.5C 562.361,158.141 563.528,163.808 564.5,169.5C 562.5,169.5 560.5,169.5 558.5,169.5C 557.507,158.041 554.674,147.041 550,136.5C 534.005,106.005 510.838,82.6716 480.5,66.5C 481.965,65.2632 483.632,64.2632 485.5,63.5 Z"/></g>
<g><path style="opacity:1" fill="#b8acad" d="M 333.5,111.5 C 338.4,113.396 342.066,116.729 344.5,121.5C 342.376,123.773 339.71,125.106 336.5,125.5C 332.989,124.331 331.323,121.831 331.5,118C 331.482,115.59 332.149,113.423 333.5,111.5 Z"/></g>
<g><path style="opacity:1" fill="#cc8834" d="M 279.5,114.5 C 278.488,115.872 277.488,117.205 276.5,118.5C 264.474,116.491 258.474,121.491 258.5,133.5C 260.3,138.899 262.3,144.232 264.5,149.5C 264.438,153.568 262.438,156.235 258.5,157.5C 247.589,159.296 243.756,165.63 247,176.5C 248.886,180.958 251.719,184.625 255.5,187.5C 259.846,187.854 261.513,190.187 260.5,194.5C 256.366,197.785 254.699,202.118 255.5,207.5C 255.5,207.833 255.5,208.167 255.5,208.5C 250.515,209.48 246.848,212.147 244.5,216.5C 244.666,211.156 244.499,205.823 244,200.5C 240.028,193.383 235.528,186.716 230.5,180.5C 230.5,178.833 230.5,177.167 230.5,175.5C 232.032,171.314 233.032,166.981 233.5,162.5C 234.675,162.719 235.675,162.386 236.5,161.5C 236.376,160.893 236.043,160.56 235.5,160.5C 240.792,156.083 244.458,150.583 246.5,144C 246.472,142.93 246.139,142.097 245.5,141.5C 243.895,138.622 242.561,135.622 241.5,132.5C 241.19,128.3 241.857,124.3 243.5,120.5C 245.326,118.853 246.66,116.853 247.5,114.5C 249.296,115.793 250.963,117.293 252.5,119C 255.5,119.667 258.5,119.667 261.5,119C 266.551,118.655 269.884,116.155 271.5,111.5C 271.5,110.833 271.833,110.5 272.5,110.5C 272.435,110.938 272.601,111.272 273,111.5C 273.833,110.5 274.667,109.5 275.5,108.5C 276.382,109.76 277.382,110.926 278.5,112C 277.5,112.333 276.5,112.667 275.5,113C 277.058,113.21 278.391,113.71 279.5,114.5 Z"/></g>
<g><path style="opacity:1" fill="#b2a4a4" d="M 306.5,119.5 C 304.784,119.629 303.117,119.962 301.5,120.5C 300.596,119.791 300.263,118.791 300.5,117.5C 303.383,115.651 305.383,116.318 306.5,119.5 Z"/></g>
<g><path style="opacity:1" fill="#b3abab" d="M 299.5,117.5 C 297.252,122.328 296.918,127.328 298.5,132.5C 289.167,131.833 284.833,136.167 285.5,145.5C 283.206,142.63 281.872,139.297 281.5,135.5C 284.414,134.094 286.914,132.094 289,129.5C 291.469,125.687 293.969,121.854 296.5,118C 297.448,117.517 298.448,117.351 299.5,117.5 Z"/></g>
<g><path style="opacity:1" fill="#b8bc7f" d="M 306.5,119.5 C 307.921,122.009 309.588,124.343 311.5,126.5C 308.212,126.016 305.545,127.016 303.5,129.5C 302.072,126.697 301.405,123.697 301.5,120.5C 303.117,119.962 304.784,119.629 306.5,119.5 Z"/></g>
<g><path style="opacity:1" fill="#b67f37" d="M 276.5,118.5 C 273.079,123.992 271.746,129.992 272.5,136.5C 267.906,135.185 263.239,134.185 258.5,133.5C 258.474,121.491 264.474,116.491 276.5,118.5 Z"/></g>
<g><path style="opacity:1" fill="#b0a9a9" d="M 356.5,122.5 C 360.343,123.688 362.343,126.355 362.5,130.5C 359.075,131.29 355.742,132.29 352.5,133.5C 350.964,130.908 348.631,129.908 345.5,130.5C 347.942,128.774 350.609,127.274 353.5,126C 354.71,124.961 355.71,123.794 356.5,122.5 Z"/></g>
<g><path style="opacity:1" fill="#9cac7a" d="M 326.5,124.5 C 326.733,126.062 327.4,127.395 328.5,128.5C 326.379,128.675 324.379,128.341 322.5,127.5C 323.504,126.317 324.338,124.984 325,123.5C 325.383,124.056 325.883,124.389 326.5,124.5 Z"/></g>
<g><path style="opacity:1" fill="#cb8834" d="M 385.5,126.5 C 390.004,128.579 394.67,130.412 399.5,132C 398.263,132.232 397.263,132.732 396.5,133.5C 397.287,135.104 398.62,135.771 400.5,135.5C 400.56,136.043 400.893,136.376 401.5,136.5C 402.182,135.757 402.849,135.091 403.5,134.5C 407.144,135.655 410.477,137.322 413.5,139.5C 416.109,143.067 418.443,146.733 420.5,150.5C 416.841,152.426 413.341,154.759 410,157.5C 408.293,159.909 407.46,162.575 407.5,165.5C 407.604,167.703 408.27,169.703 409.5,171.5C 406.361,173.085 404.694,175.752 404.5,179.5C 404.69,182.855 405.69,185.855 407.5,188.5C 407.833,189.167 408.167,189.833 408.5,190.5C 404.153,195.193 400.819,200.527 398.5,206.5C 394.51,205.174 390.51,203.84 386.5,202.5C 387.388,199.946 387.721,197.279 387.5,194.5C 387.868,190.956 386.868,187.956 384.5,185.5C 382.891,182.054 381.057,178.721 379,175.5C 378.444,173.115 378.61,170.782 379.5,168.5C 383.864,165.399 387.697,161.732 391,157.5C 392.336,153.438 391.169,150.438 387.5,148.5C 386.564,147.026 385.23,146.026 383.5,145.5C 386.347,139.363 387.014,133.03 385.5,126.5 Z"/></g>
<g><path style="opacity:1" fill="#6c7725" d="M 311.5,126.5 C 310.775,127.97 309.109,129.136 306.5,130C 305.251,130.74 304.251,130.573 303.5,129.5C 305.545,127.016 308.212,126.016 311.5,126.5 Z"/></g>
<g><path style="opacity:1" fill="#f2e7d4" d="M 255.5,125.5 C 256.788,127.035 256.788,128.701 255.5,130.5C 254.334,128.833 254.334,127.166 255.5,125.5 Z"/></g>
<g><path style="opacity:1" fill="#a32412" d="M 358.5,116.5 C 358.5,116.833 358.5,117.167 358.5,117.5C 357.833,119.167 357.167,120.833 356.5,122.5C 355.71,123.794 354.71,124.961 353.5,126C 350.609,127.274 347.942,128.774 345.5,130.5C 345.167,130.5 344.833,130.5 344.5,130.5C 340.705,132.143 336.705,132.809 332.5,132.5C 332.158,131.662 331.492,131.328 330.5,131.5C 329.833,130.5 329.167,129.5 328.5,128.5C 333.448,129.559 338.448,129.726 343.5,129C 349.592,126.069 354.592,121.902 358.5,116.5 Z"/></g>
<g><path style="opacity:1" fill="#647f2c" d="M 322.5,127.5 C 324.379,128.341 326.379,128.675 328.5,128.5C 329.167,129.5 329.833,130.5 330.5,131.5C 327.236,130.676 323.902,130.342 320.5,130.5C 321.167,129.5 321.833,128.5 322.5,127.5 Z"/></g>
<g><path style="opacity:1" fill="#577221" d="M 358.5,117.5 C 360.781,118.207 362.948,119.207 365,120.5C 369.481,127.252 370.647,134.586 368.5,142.5C 366.623,146.557 363.623,149.557 359.5,151.5C 357.167,151.5 354.833,151.5 352.5,151.5C 350.708,151.634 349.042,151.301 347.5,150.5C 344.972,149.492 342.805,147.826 341,145.5C 339.624,146.705 338.458,148.038 337.5,149.5C 336.833,149.833 336.167,150.167 335.5,150.5C 333.426,151.514 331.426,152.514 329.5,153.5C 328.041,153.433 326.708,153.766 325.5,154.5C 319.824,155.07 314.49,154.07 309.5,151.5C 309.5,150.833 309.167,150.5 308.5,150.5C 306.873,148.37 305.04,146.37 303,144.5C 301.748,141.986 301.248,139.32 301.5,136.5C 303.5,136.5 305.5,136.5 307.5,136.5C 308.313,139.989 310.313,142.656 313.5,144.5C 313.897,145.525 314.563,145.692 315.5,145C 319.967,139.009 325.634,134.843 332.5,132.5C 336.705,132.809 340.705,132.143 344.5,130.5C 344.192,132.924 344.526,135.257 345.5,137.5C 347.765,135.873 350.099,134.539 352.5,133.5C 355.742,132.29 359.075,131.29 362.5,130.5C 362.343,126.355 360.343,123.688 356.5,122.5C 357.167,120.833 357.833,119.167 358.5,117.5 Z"/></g>
<g><path style="opacity:1" fill="#f9f9f5" d="M 362.5,120.5 C 364.085,121.002 364.585,122.002 364,123.5C 362.961,122.756 362.461,121.756 362.5,120.5 Z"/></g>
<g><path style="opacity:1" fill="#b4ba7e" d="M 344.5,130.5 C 344.833,130.5 345.167,130.5 345.5,130.5C 348.631,129.908 350.964,130.908 352.5,133.5C 350.099,134.539 347.765,135.873 345.5,137.5C 344.526,135.257 344.192,132.924 344.5,130.5 Z"/></g>
<g><path style="opacity:1" fill="#b1bc83" d="M 298.5,132.5 C 298.5,132.833 298.5,133.167 298.5,133.5C 299.705,140.228 298.039,146.228 293.5,151.5C 291.183,149.203 288.516,147.203 285.5,145.5C 284.833,136.167 289.167,131.833 298.5,132.5 Z"/></g>
<g><path style="opacity:1" fill="#cccfb2" d="M 320.5,130.5 C 323.902,130.342 327.236,130.676 330.5,131.5C 331.492,131.328 332.158,131.662 332.5,132.5C 325.634,134.843 319.967,139.009 315.5,145C 314.563,145.692 313.897,145.525 313.5,144.5C 315.461,142.037 317.628,139.703 320,137.5C 320.667,136.5 320.667,135.5 320,134.5C 316.47,137.5 312.636,138.167 308.5,136.5C 312.713,135.06 316.713,133.06 320.5,130.5 Z"/></g>
<g><path style="opacity:1" fill="#f7f1e7" d="M 396.5,133.5 C 397.873,133.343 399.207,133.51 400.5,134C 401.738,134.69 401.738,135.19 400.5,135.5C 398.62,135.771 397.287,135.104 396.5,133.5 Z"/></g>
<g><path style="opacity:1" fill="#375225" d="M 258.5,133.5 C 263.239,134.185 267.906,135.185 272.5,136.5C 273.328,141.988 275.328,146.988 278.5,151.5C 278.5,152.167 278.5,152.833 278.5,153.5C 273.883,151.961 269.216,150.627 264.5,149.5C 262.3,144.232 260.3,138.899 258.5,133.5 Z"/></g>
<g><path style="opacity:1" fill="#adaaa8" d="M 356.5,144.5 C 356.425,141.794 356.092,139.127 355.5,136.5C 363.152,132.077 364.652,134.077 360,142.5C 359.184,143.823 358.017,144.489 356.5,144.5 Z"/></g>
<g><path style="opacity:1" fill="#d0aa43" d="M 245.5,141.5 C 246.139,142.097 246.472,142.93 246.5,144C 244.458,150.583 240.792,156.083 235.5,160.5C 233.36,158.3 231.86,155.633 231,152.5C 229.629,150.959 228.129,149.625 226.5,148.5C 225.833,148.5 225.5,148.167 225.5,147.5C 216.892,144.411 209.392,146.411 203,153.5C 200.826,156.546 200.159,159.88 201,163.5C 203.22,170.101 207.053,175.601 212.5,180C 219.191,181.148 225.191,179.648 230.5,175.5C 230.5,177.167 230.5,178.833 230.5,180.5C 222.46,181.856 215.126,184.856 208.5,189.5C 205.913,188.256 203.58,186.589 201.5,184.5C 198.946,189.949 194.612,192.615 188.5,192.5C 178.932,190.156 169.432,190.156 160,192.5C 158.893,192.415 157.893,192.081 157,191.5C 156.185,189.377 155.185,187.377 154,185.5C 152.873,188.068 150.873,189.402 148,189.5C 144.417,189.032 141.25,187.698 138.5,185.5C 140.808,182.185 143.141,178.851 145.5,175.5C 160.326,174.075 175.326,172.909 190.5,172C 191.823,171.184 192.489,170.017 192.5,168.5C 192.489,166.983 191.823,165.816 190.5,165C 173.483,164.871 156.483,165.371 139.5,166.5C 140.228,164.265 141.561,162.432 143.5,161C 148.448,158.02 153.782,156.52 159.5,156.5C 162.156,157.158 164.822,157.825 167.5,158.5C 169.299,158.423 170.966,157.923 172.5,157C 179.462,146.711 188.795,139.378 200.5,135C 202.5,134.333 204.5,134.333 206.5,135C 214.568,140.567 223.402,142.067 233,139.5C 237.318,139.396 241.485,140.063 245.5,141.5 Z"/></g>
<g><path style="opacity:1" fill="#a32512" d="M 326.5,124.5 C 325.883,124.389 325.383,124.056 325,123.5C 324.338,124.984 323.504,126.317 322.5,127.5C 321.833,128.5 321.167,129.5 320.5,130.5C 316.713,133.06 312.713,135.06 308.5,136.5C 308.167,136.5 307.833,136.5 307.5,136.5C 305.5,136.5 303.5,136.5 301.5,136.5C 300.833,135.167 299.833,134.167 298.5,133.5C 298.5,133.167 298.5,132.833 298.5,132.5C 301.704,133.96 305.038,134.46 308.5,134C 315.881,131.284 321.381,126.451 325,119.5C 326.009,121.025 326.509,122.692 326.5,124.5 Z"/></g>
<g><path style="opacity:1" fill="#d1aa44" d="M 489.5,156.5 C 493.525,158.02 497.525,159.854 501.5,162C 502.582,163.33 503.249,164.83 503.5,166.5C 486.835,165.627 470.168,165.127 453.5,165C 452.584,165.278 451.918,165.778 451.5,166.5C 450.375,168.377 450.709,170.21 452.5,172C 468.055,173.071 483.388,174.571 498.5,176.5C 500.909,178.902 502.909,181.569 504.5,184.5C 500.082,190.071 495.082,190.738 489.5,186.5C 488.375,189.45 486.375,191.45 483.5,192.5C 473.71,190.089 463.876,190.089 454,192.5C 448.414,192.422 444.581,189.756 442.5,184.5C 440.126,186.378 437.626,188.045 435,189.5C 425.746,183.476 415.58,180.143 404.5,179.5C 404.694,175.752 406.361,173.085 409.5,171.5C 410.343,173.173 411.676,174.34 413.5,175C 424.937,177.407 434.77,174.573 443,166.5C 444.009,164.975 444.509,163.308 444.5,161.5C 445.676,155.049 443.01,150.549 436.5,148C 430.608,145.532 425.274,146.365 420.5,150.5C 418.443,146.733 416.109,143.067 413.5,139.5C 421.913,141.781 429.58,140.281 436.5,135C 438.5,134.333 440.5,134.333 442.5,135C 449.956,138.227 456.956,142.227 463.5,147C 465.804,151.297 468.804,154.964 472.5,158C 478.112,157.418 483.779,156.918 489.5,156.5 Z"/></g>
<g><path style="opacity:1" fill="#b9bf83" d="M 313.5,144.5 C 310.313,142.656 308.313,139.989 307.5,136.5C 307.833,136.5 308.167,136.5 308.5,136.5C 312.636,138.167 316.47,137.5 320,134.5C 320.667,135.5 320.667,136.5 320,137.5C 317.628,139.703 315.461,142.037 313.5,144.5 Z"/></g>
<g><path style="opacity:1" fill="#c3c89b" d="M 332.5,135.5 C 333.5,135.5 334.5,135.5 335.5,135.5C 335.846,138.602 335.179,141.435 333.5,144C 328.408,146.778 323.075,147.612 317.5,146.5C 322.39,142.568 327.39,138.901 332.5,135.5 Z"/></g>
<g><path style="opacity:1" fill="#aab87d" d="M 355.5,136.5 C 356.092,139.127 356.425,141.794 356.5,144.5C 343.989,142.847 343.656,140.18 355.5,136.5 Z"/></g>
<g><path style="opacity:1" fill="#f8f3e4" d="M 199.5,139.5 C 201.199,139.34 202.866,139.506 204.5,140C 201.976,141.513 199.309,142.18 196.5,142C 197.571,141.148 198.571,140.315 199.5,139.5 Z"/></g>
<g><path style="opacity:1" fill="#eeddb2" d="M 440.5,140.5 C 442.364,139.207 444.364,139.207 446.5,140.5C 444.484,141.694 442.484,141.694 440.5,140.5 Z"/></g>
<g><path style="opacity:1" fill="#a9b880" d="M 301.5,136.5 C 301.248,139.32 301.748,141.986 303,144.5C 305.04,146.37 306.873,148.37 308.5,150.5C 305.634,152.546 303.467,155.213 302,158.5C 299.937,156.266 297.771,154.266 295.5,152.5C 298.122,147.282 300.122,141.949 301.5,136.5 Z"/></g>
<g><path style="opacity:1" fill="#f1e9ca" d="M 212.5,141.5 C 213.995,141.415 214.995,142.081 215.5,143.5C 212.623,144.911 211.623,144.244 212.5,141.5 Z"/></g>
<g><path style="opacity:1" fill="#f4ebd5" d="M 227.5,142.5 C 233.92,143.103 233.754,144.103 227,145.5C 226.5,145.167 226,144.833 225.5,144.5C 226.243,143.818 226.909,143.151 227.5,142.5 Z"/></g>
<g><path style="opacity:1" fill="#f0e6c6" d="M 427.5,141.5 C 429.199,141.34 430.866,141.506 432.5,142C 430.415,144.139 428.749,143.972 427.5,141.5 Z"/></g>
<g><path style="opacity:1" fill="#f8f3e3" d="M 237.5,142.5 C 238.675,142.281 239.675,142.614 240.5,143.5C 238.948,144.798 237.948,144.465 237.5,142.5 Z"/></g>
<g><path style="opacity:1" fill="#f6f0dc" d="M 449.5,143.5 C 451.093,142.133 452.426,142.466 453.5,144.5C 453.167,144.833 452.833,145.167 452.5,145.5C 451.482,144.807 450.482,144.141 449.5,143.5 Z"/></g>
<g><path style="opacity:1" fill="#f5edd6" d="M 188.5,144.5 C 189.675,144.281 190.675,144.614 191.5,145.5C 190.277,146.614 188.944,146.781 187.5,146C 188.056,145.617 188.389,145.117 188.5,144.5 Z"/></g>
<g><path style="opacity:1" fill="#b0acac" d="M 368.5,142.5 C 369.802,144.028 371.469,145.028 373.5,145.5C 370.053,151.613 365.053,155.946 358.5,158.5C 358.833,157.167 359.167,155.833 359.5,154.5C 359.5,153.5 359.5,152.5 359.5,151.5C 363.623,149.557 366.623,146.557 368.5,142.5 Z"/></g>
<g><path style="opacity:1" fill="#d2d5b8" d="M 298.5,133.5 C 299.833,134.167 300.833,135.167 301.5,136.5C 300.122,141.949 298.122,147.282 295.5,152.5C 294.508,152.672 293.842,152.338 293.5,151.5C 298.039,146.228 299.705,140.228 298.5,133.5 Z"/></g>
<g><path style="opacity:1" fill="#8caf80" d="M 347.5,150.5 C 344.098,150.658 340.764,150.324 337.5,149.5C 338.458,148.038 339.624,146.705 341,145.5C 342.805,147.826 344.972,149.492 347.5,150.5 Z"/></g>
<g><path style="opacity:1" fill="#365526" d="M 383.5,145.5 C 385.23,146.026 386.564,147.026 387.5,148.5C 385.833,148.5 384.167,148.5 382.5,148.5C 382.557,147.391 382.89,146.391 383.5,145.5 Z"/></g>
<g><path style="opacity:1" fill="#c52e15" d="M 444.5,161.5 C 436.604,169.854 426.938,173.354 415.5,172C 412.039,170.695 409.372,168.529 407.5,165.5C 407.46,162.575 408.293,159.909 410,157.5C 413.341,154.759 416.841,152.426 420.5,150.5C 425.274,146.365 430.608,145.532 436.5,148C 443.01,150.549 445.676,155.049 444.5,161.5 Z"/></g>
<g><path style="opacity:1" fill="#fafbf6" d="M 225.5,147.5 C 225.5,148.167 225.833,148.5 226.5,148.5C 225.503,149.713 224.503,149.546 223.5,148C 224.094,147.536 224.761,147.369 225.5,147.5 Z"/></g>
<g><path style="opacity:1" fill="#f2dbd7" d="M 426.5,148.5 C 427.675,148.281 428.675,148.614 429.5,149.5C 427.948,150.798 426.948,150.465 426.5,148.5 Z"/></g>
<g><path style="opacity:1" fill="#d1ab49" d="M 382.5,148.5 C 384.167,148.5 385.833,148.5 387.5,148.5C 391.169,150.438 392.336,153.438 391,157.5C 387.697,161.732 383.864,165.399 379.5,168.5C 377.265,168.795 375.265,168.461 373.5,167.5C 375.783,162.602 377.783,157.602 379.5,152.5C 380.512,151.128 381.512,149.795 382.5,148.5 Z"/></g>
<g><path style="opacity:1" fill="#f6f0dd" d="M 457.5,148.5 C 460.001,148.826 461.168,150.159 461,152.5C 458.929,151.897 457.762,150.564 457.5,148.5 Z"/></g>
<g><path style="opacity:1" fill="#f5efda" d="M 182.5,149.5 C 183.376,149.369 184.043,149.702 184.5,150.5C 182.833,151.833 181.167,153.167 179.5,154.5C 178.479,153.998 178.312,153.332 179,152.5C 180.145,151.364 181.312,150.364 182.5,149.5 Z"/></g>
<g><path style="opacity:1" fill="#5b751f" d="M 225.5,147.5 C 224.761,147.369 224.094,147.536 223.5,148C 224.503,149.546 225.503,149.713 226.5,148.5C 228.129,149.625 229.629,150.959 231,152.5C 231.86,155.633 233.36,158.3 235.5,160.5C 236.043,160.56 236.376,160.893 236.5,161.5C 235.675,162.386 234.675,162.719 233.5,162.5C 233.032,166.981 232.032,171.314 230.5,175.5C 225.191,179.648 219.191,181.148 212.5,180C 207.053,175.601 203.22,170.101 201,163.5C 200.159,159.88 200.826,156.546 203,153.5C 209.392,146.411 216.892,144.411 225.5,147.5 Z"/></g>
<g><path style="opacity:1" fill="#d1aa42" d="M 264.5,149.5 C 269.216,150.627 273.883,151.961 278.5,153.5C 280.484,157.469 282.484,161.469 284.5,165.5C 277.51,168.249 270.343,168.916 263,167.5C 260.551,168.944 258.385,170.778 256.5,173C 251.502,174.33 249.336,172.496 250,167.5C 252.669,164 255.502,160.667 258.5,157.5C 262.438,156.235 264.438,153.568 264.5,149.5 Z"/></g>
<g><path style="opacity:1" fill="#d6d8bf" d="M 337.5,149.5 C 340.764,150.324 344.098,150.658 347.5,150.5C 349.042,151.301 350.708,151.634 352.5,151.5C 352.423,152.75 351.756,153.583 350.5,154C 344.813,155.324 339.813,154.157 335.5,150.5C 336.167,150.167 336.833,149.833 337.5,149.5 Z"/></g>
<g><path style="opacity:1" fill="#dce2ce" d="M 211.5,149.5 C 212.552,149.351 213.552,149.517 214.5,150C 212.835,151.84 210.835,152.507 208.5,152C 209.571,151.148 210.571,150.315 211.5,149.5 Z"/></g>
<g><path style="opacity:1" fill="#cba640" d="M 217.5,151.5 C 219.857,151.337 222.19,151.503 224.5,152C 226.321,153.743 228.321,155.243 230.5,156.5C 231.386,157.325 231.719,158.325 231.5,159.5C 223.728,159.195 216.062,159.862 208.5,161.5C 207.417,160.635 207.251,159.635 208,158.5C 210.79,155.535 213.957,153.202 217.5,151.5 Z"/></g>
<g><path style="opacity:1" fill="#b6bd7f" d="M 335.5,150.5 C 339.813,154.157 344.813,155.324 350.5,154C 351.756,153.583 352.423,152.75 352.5,151.5C 354.833,151.5 357.167,151.5 359.5,151.5C 359.5,152.5 359.5,153.5 359.5,154.5C 350.706,159.399 341.372,160.733 331.5,158.5C 331.204,156.597 330.537,154.93 329.5,153.5C 331.426,152.514 333.426,151.514 335.5,150.5 Z"/></g>
<g><path style="opacity:1" fill="#b6bd7f" d="M 309.5,151.5 C 314.49,154.07 319.824,155.07 325.5,154.5C 325.5,155.167 325.5,155.833 325.5,156.5C 319.862,159.874 314.195,160.208 308.5,157.5C 308.833,155.5 309.167,153.5 309.5,151.5 Z"/></g>
<g><path style="opacity:1" fill="#cfa23f" d="M 424.5,151.5 C 430.103,150.918 434.603,152.918 438,157.5C 438.699,159.074 438.365,160.407 437,161.5C 431.623,158.264 425.79,156.43 419.5,156C 418.167,155.333 418.167,154.667 419.5,154C 421.315,153.243 422.981,152.41 424.5,151.5 Z"/></g>
<g><path style="opacity:1" fill="#bdbcb5" d="M 285.5,145.5 C 288.516,147.203 291.183,149.203 293.5,151.5C 293.842,152.338 294.508,152.672 295.5,152.5C 297.771,154.266 299.937,156.266 302,158.5C 303.467,155.213 305.634,152.546 308.5,150.5C 309.167,150.5 309.5,150.833 309.5,151.5C 309.167,153.5 308.833,155.5 308.5,157.5C 307.427,158.251 307.26,159.251 308,160.5C 308.995,161.066 309.828,161.733 310.5,162.5C 304.365,161.1 298.699,158.6 293.5,155C 290.223,152.234 287.557,149.067 285.5,145.5 Z"/></g>
<g><path style="opacity:0.998" fill="#1e3f44" d="M 536.5,107.5 C 554.303,124.188 566.137,144.521 572,168.5C 573.948,169.109 575.782,169.776 577.5,170.5C 573.119,170.628 568.785,170.295 564.5,169.5C 563.528,163.808 562.361,158.141 561,152.5C 555.407,135.972 547.241,120.972 536.5,107.5 Z"/></g>
<g><path style="opacity:1" fill="#f4e8d8" d="M 244.5,154.5 C 246.885,155.867 246.552,157.201 243.5,158.5C 243.167,158.167 242.833,157.833 242.5,157.5C 243.193,156.482 243.859,155.482 244.5,154.5 Z"/></g>
<g><path style="opacity:1" fill="#f7f1ee" d="M 413.5,155.5 C 415.975,155.747 415.975,156.413 413.5,157.5C 412.537,157.03 412.537,156.363 413.5,155.5 Z"/></g>
<g><path style="opacity:1" fill="#f5f0dd" d="M 170.5,159.5 C 174.276,159.469 174.443,160.136 171,161.5C 169.316,161.317 169.15,160.65 170.5,159.5 Z"/></g>
<g><path style="opacity:1" fill="#d1a540" d="M 414.5,158.5 C 421.383,159.511 428.05,161.344 434.5,164C 428.421,168.072 421.754,169.405 414.5,168C 413.3,164.869 413.3,161.702 414.5,158.5 Z"/></g>
<g><path style="opacity:1" fill="#f0e2be" d="M 483.5,159.5 C 484.978,159.238 486.311,159.571 487.5,160.5C 486.833,160.833 486.167,161.167 485.5,161.5C 484.287,161.253 483.62,160.586 483.5,159.5 Z"/></g>
<g><path style="opacity:1" fill="#cba740" d="M 220.5,162.5 C 223.572,162.183 226.572,162.516 229.5,163.5C 228.056,171.39 223.389,174.557 215.5,173C 206.572,164.962 208.239,161.462 220.5,162.5 Z"/></g>
<g><path style="opacity:1" fill="#eae1c8" d="M 192.5,168.5 C 161.461,169.627 130.461,171.461 99.5,174C 92.0266,174.219 85.36,176.553 79.5,181C 57.8498,182.534 36.1831,183.701 14.5,184.5C 14.3354,181.482 14.502,178.482 15,175.5C 16.2547,174.789 17.4214,173.956 18.5,173C 38.0932,171.553 57.4266,170.386 76.5,169.5C 78.8333,169.5 81.1667,169.5 83.5,169.5C 102.147,168.235 120.813,167.235 139.5,166.5C 156.483,165.371 173.483,164.871 190.5,165C 191.823,165.816 192.489,166.983 192.5,168.5 Z"/></g>
<g><path style="opacity:1" fill="#e9e0c7" d="M 503.5,166.5 C 521.824,167.686 540.158,168.686 558.5,169.5C 560.5,169.5 562.5,169.5 564.5,169.5C 568.785,170.295 573.119,170.628 577.5,170.5C 593.204,170.684 608.87,171.518 624.5,173C 626.286,173.785 627.786,174.951 629,176.5C 629.808,180.027 629.641,183.36 628.5,186.5C 625.742,185.182 622.576,184.515 619,184.5C 600.475,183.718 581.975,182.551 563.5,181C 557.812,177.102 551.479,174.769 544.5,174C 515.856,171.949 487.189,170.282 458.5,169C 455.639,169.03 453.305,168.197 451.5,166.5C 451.918,165.778 452.584,165.278 453.5,165C 470.168,165.127 486.835,165.627 503.5,166.5 Z"/></g>
<g><path style="opacity:1" fill="#b88038" d="M 258.5,157.5 C 255.502,160.667 252.669,164 250,167.5C 249.336,172.496 251.502,174.33 256.5,173C 258.385,170.778 260.551,168.944 263,167.5C 270.343,168.916 277.51,168.249 284.5,165.5C 285.58,167.996 286.914,170.33 288.5,172.5C 277.474,177.853 266.474,182.853 255.5,187.5C 251.719,184.625 248.886,180.958 247,176.5C 243.756,165.63 247.589,159.296 258.5,157.5 Z"/></g>
<g><path style="opacity:1" fill="#ceb980" d="M 192.5,168.5 C 192.489,170.017 191.823,171.184 190.5,172C 175.326,172.909 160.326,174.075 145.5,175.5C 128.483,175.931 111.483,176.764 94.5,178C 90.265,179.211 86.265,180.711 82.5,182.5C 81.7109,182.783 81.0442,183.283 80.5,184C 74.9842,184.173 69.6509,184.673 64.5,185.5C 47.8452,186.433 31.1785,187.099 14.5,187.5C 14.5,186.5 14.5,185.5 14.5,184.5C 36.1831,183.701 57.8498,182.534 79.5,181C 85.36,176.553 92.0266,174.219 99.5,174C 130.461,171.461 161.461,169.627 192.5,168.5 Z"/></g>
<g><path style="opacity:1" fill="#b7803a" d="M 373.5,167.5 C 375.265,168.461 377.265,168.795 379.5,168.5C 378.61,170.782 378.444,173.115 379,175.5C 381.057,178.721 382.891,182.054 384.5,185.5C 378.156,184.16 372.489,181.493 367.5,177.5C 369.137,173.882 371.137,170.549 373.5,167.5 Z"/></g>
<g><path style="opacity:1" fill="#ceb77e" d="M 451.5,166.5 C 453.305,168.197 455.639,169.03 458.5,169C 487.189,170.282 515.856,171.949 544.5,174C 551.479,174.769 557.812,177.102 563.5,181C 581.975,182.551 600.475,183.718 619,184.5C 622.576,184.515 625.742,185.182 628.5,186.5C 625.854,187.164 623.021,187.498 620,187.5C 605.171,186.667 590.338,186 575.5,185.5C 571.901,184.656 568.234,184.323 564.5,184.5C 562.589,183.925 560.922,182.925 559.5,181.5C 555.518,180.337 551.518,179.171 547.5,178C 531.017,176.46 514.684,175.96 498.5,176.5C 483.388,174.571 468.055,173.071 452.5,172C 450.709,170.21 450.375,168.377 451.5,166.5 Z"/></g>
<g><path style="opacity:1" fill="#b8a9a0" d="M 278.5,151.5 C 289.294,162.23 302.294,168.73 317.5,171C 341.164,174.306 361.831,168.139 379.5,152.5C 377.783,157.602 375.783,162.602 373.5,167.5C 371.137,170.549 369.137,173.882 367.5,177.5C 364.167,181.5 360.5,185.167 356.5,188.5C 353.129,190.846 349.796,193.179 346.5,195.5C 321.196,202.847 301.862,195.18 288.5,172.5C 286.914,170.33 285.58,167.996 284.5,165.5C 282.484,161.469 280.484,157.469 278.5,153.5C 278.5,152.833 278.5,152.167 278.5,151.5 Z"/></g>
<g><path style="opacity:1" fill="#b1b0ad" d="M 352.5,160.5 C 342.872,164.883 332.872,166.217 322.5,164.5C 323.833,164.5 325.167,164.5 326.5,164.5C 328.5,164.5 330.5,164.5 332.5,164.5C 338.977,162.271 345.644,160.938 352.5,160.5 Z"/></g>
<g><path style="opacity:1" fill="#8eb182" d="M 359.5,154.5 C 359.167,155.833 358.833,157.167 358.5,158.5C 356.703,159.73 354.703,160.396 352.5,160.5C 345.644,160.938 338.977,162.271 332.5,164.5C 332.483,162.435 332.15,160.435 331.5,158.5C 341.372,160.733 350.706,159.399 359.5,154.5 Z"/></g>
<g><path style="opacity:1" fill="#8db083" d="M 325.5,156.5 C 325.833,159.167 326.167,161.833 326.5,164.5C 325.167,164.5 323.833,164.5 322.5,164.5C 318.342,164.668 314.342,164.002 310.5,162.5C 309.828,161.733 308.995,161.066 308,160.5C 307.26,159.251 307.427,158.251 308.5,157.5C 314.195,160.208 319.862,159.874 325.5,156.5 Z"/></g>
<g><path style="opacity:1" fill="#d4d8c0" d="M 329.5,153.5 C 330.537,154.93 331.204,156.597 331.5,158.5C 332.15,160.435 332.483,162.435 332.5,164.5C 330.5,164.5 328.5,164.5 326.5,164.5C 326.167,161.833 325.833,159.167 325.5,156.5C 325.5,155.833 325.5,155.167 325.5,154.5C 326.708,153.766 328.041,153.433 329.5,153.5 Z"/></g>
<g><path style="opacity:1" fill="#f4e5d3" d="M 242.5,169.5 C 245.166,171.172 245.833,173.506 244.5,176.5C 242.829,174.49 242.162,172.157 242.5,169.5 Z"/></g>
<g><path style="opacity:1" fill="#fcfbf8" d="M 563.5,171.5 C 582.571,172.003 601.571,173.337 620.5,175.5C 618.667,175.833 616.833,176.167 615,176.5C 601.524,175.287 588.024,174.454 574.5,174C 570.367,174.094 566.701,173.26 563.5,171.5 Z"/></g>
<g><path style="opacity:1" fill="#fcfaf5" d="M 64.5,171.5 C 69.8437,171.334 75.1771,171.501 80.5,172C 65.9251,174.48 51.2585,175.48 36.5,175C 45.9518,173.784 55.2851,172.617 64.5,171.5 Z"/></g>
<g><path style="opacity:1" fill="#a62510" d="M 444.5,161.5 C 444.509,163.308 444.009,164.975 443,166.5C 434.77,174.573 424.937,177.407 413.5,175C 411.676,174.34 410.343,173.173 409.5,171.5C 408.27,169.703 407.604,167.703 407.5,165.5C 409.372,168.529 412.039,170.695 415.5,172C 426.938,173.354 436.604,169.854 444.5,161.5 Z"/></g>
<g><path style="opacity:1" fill="#2e383a" d="M 145.5,175.5 C 143.141,178.851 140.808,182.185 138.5,185.5C 141.661,196.001 148.661,201.668 159.5,202.5C 169.57,224.081 184.57,241.581 204.5,255C 206.577,256.705 208.91,257.872 211.5,258.5C 211.663,260.857 211.497,263.19 211,265.5C 209.239,268.411 207.739,271.411 206.5,274.5C 197.467,284.533 187.801,293.867 177.5,302.5C 144.558,287.783 118.058,265.45 98,235.5C 88.2775,219.166 83.1108,201.499 82.5,182.5C 86.265,180.711 90.265,179.211 94.5,178C 111.483,176.764 128.483,175.931 145.5,175.5 Z"/></g>
<g><path style="opacity:1" fill="#2e383a" d="M 559.5,181.5 C 558.64,206.544 550.473,228.878 535,248.5C 515.943,272.055 492.443,289.721 464.5,301.5C 454.806,292.473 445.473,283.14 436.5,273.5C 435.167,270.5 433.833,267.5 432.5,264.5C 432.33,263.178 432.663,262.011 433.5,261C 452.405,251.101 467.905,237.268 480,219.5C 483.068,214.036 485.568,208.369 487.5,202.5C 497.562,200.121 503.228,194.121 504.5,184.5C 502.909,181.569 500.909,178.902 498.5,176.5C 514.684,175.96 531.017,176.46 547.5,178C 551.518,179.171 555.518,180.337 559.5,181.5 Z"/></g>
<g><path style="opacity:1" fill="#e4bc8e" d="M 400.5,174.5 C 401.748,175.334 402.415,176.667 402.5,178.5C 401.916,183.613 400.916,183.613 399.5,178.5C 399.846,177.151 400.179,175.817 400.5,174.5 Z"/></g>
<g><path style="opacity:1" fill="#b88039" d="M 404.5,179.5 C 415.58,180.143 425.746,183.476 435,189.5C 437.626,188.045 440.126,186.378 442.5,184.5C 444.581,189.756 448.414,192.422 454,192.5C 463.876,190.089 473.71,190.089 483.5,192.5C 486.375,191.45 488.375,189.45 489.5,186.5C 495.082,190.738 500.082,190.071 504.5,184.5C 503.228,194.121 497.562,200.121 487.5,202.5C 482.13,201.378 476.797,200.045 471.5,198.5C 468.26,199.748 464.927,200.914 461.5,202C 457.833,202.667 454.167,202.667 450.5,202C 443.472,196.61 435.472,193.943 426.5,194C 420.527,191.731 414.527,189.565 408.5,187.5C 407.893,187.624 407.56,187.957 407.5,188.5C 405.69,185.855 404.69,182.855 404.5,179.5 Z"/></g>
<g><path style="opacity:1" fill="#b88139" d="M 230.5,180.5 C 230.858,183.267 231.525,185.933 232.5,188.5C 227.09,190.026 221.756,191.859 216.5,194C 211.104,194.723 205.771,195.723 200.5,197C 194.777,202.154 188.11,203.82 180.5,202C 173.352,197.529 166.352,197.696 159.5,202.5C 148.661,201.668 141.661,196.001 138.5,185.5C 141.25,187.698 144.417,189.032 148,189.5C 150.873,189.402 152.873,188.068 154,185.5C 155.185,187.377 156.185,189.377 157,191.5C 157.893,192.081 158.893,192.415 160,192.5C 169.432,190.156 178.932,190.156 188.5,192.5C 194.612,192.615 198.946,189.949 201.5,184.5C 203.58,186.589 205.913,188.256 208.5,189.5C 215.126,184.856 222.46,181.856 230.5,180.5 Z"/></g>
<g><path style="opacity:1" fill="#535c66" d="M 559.5,181.5 C 560.922,182.925 562.589,183.925 564.5,184.5C 563.353,209.124 555.186,231.124 540,250.5C 520.311,274.372 496.478,292.705 468.5,305.5C 466.833,304.5 465.5,303.167 464.5,301.5C 492.443,289.721 515.943,272.055 535,248.5C 550.473,228.878 558.64,206.544 559.5,181.5 Z"/></g>
<g><path style="opacity:0.995" fill="#535d67" d="M 82.5,182.5 C 83.1108,201.499 88.2775,219.166 98,235.5C 118.058,265.45 144.558,287.783 177.5,302.5C 176.974,304.23 175.974,305.564 174.5,306.5C 159.206,298.52 144.539,289.52 130.5,279.5C 116.269,268.027 104.102,254.694 94,239.5C 83.8609,222.916 78.0276,204.916 76.5,185.5C 72.5,185.5 68.5,185.5 64.5,185.5C 69.6509,184.673 74.9842,184.173 80.5,184C 81.0442,183.283 81.7109,182.783 82.5,182.5 Z"/></g>
<g><path style="opacity:1" fill="#375425" d="M 367.5,177.5 C 372.489,181.493 378.156,184.16 384.5,185.5C 386.868,187.956 387.868,190.956 387.5,194.5C 384.813,194.664 382.146,194.497 379.5,194C 375.469,191.984 371.469,189.984 367.5,188C 363.779,187.322 360.112,187.489 356.5,188.5C 360.5,185.167 364.167,181.5 367.5,177.5 Z"/></g>
<g><path style="opacity:1" fill="#d0a942" d="M 297.5,213.5 C 296.5,213.5 295.5,213.5 294.5,213.5C 294.719,212.325 294.386,211.325 293.5,210.5C 290.337,215.327 286.004,218.66 280.5,220.5C 278.028,213.432 272.695,209.432 264.5,208.5C 263.5,208.5 262.5,208.5 261.5,208.5C 259.735,207.539 257.735,207.205 255.5,207.5C 254.699,202.118 256.366,197.785 260.5,194.5C 265.951,193.404 270.951,191.237 275.5,188C 294.194,186.854 301.527,195.354 297.5,213.5 Z"/></g>
<g><path style="opacity:1" fill="#cfa942" d="M 387.5,194.5 C 387.721,197.279 387.388,199.946 386.5,202.5C 383.287,202.19 380.287,202.523 377.5,203.5C 376.391,203.557 375.391,203.89 374.5,204.5C 371.833,206.167 369.167,207.833 366.5,209.5C 359.193,207.607 352.193,208.607 345.5,212.5C 345.45,208.812 345.116,205.145 344.5,201.5C 344.363,199.159 345.03,197.159 346.5,195.5C 349.796,193.179 353.129,190.846 356.5,188.5C 360.112,187.489 363.779,187.322 367.5,188C 371.469,189.984 375.469,191.984 379.5,194C 382.146,194.497 384.813,194.664 387.5,194.5 Z"/></g>
<g><path style="opacity:1" fill="#a47129" d="M 408.5,190.5 C 411.674,195.397 412.341,200.73 410.5,206.5C 409.167,208.5 407.833,210.5 406.5,212.5C 404.07,210.055 401.404,208.055 398.5,206.5C 400.819,200.527 404.153,195.193 408.5,190.5 Z"/></g>
<g><path style="opacity:1" fill="#f6f0dc" d="M 375.5,195.5 C 377.604,195.201 379.604,195.534 381.5,196.5C 380.5,196.833 379.5,197.167 378.5,197.5C 376.97,197.36 375.97,196.693 375.5,195.5 Z"/></g>
<g><path style="opacity:1" fill="#325024" d="M 487.5,202.5 C 485.568,208.369 483.068,214.036 480,219.5C 467.905,237.268 452.405,251.101 433.5,261C 432.663,262.011 432.33,263.178 432.5,264.5C 431.848,263.551 431.514,262.385 431.5,261C 435.367,251.755 433.867,243.589 427,236.5C 427.035,231.742 425.702,227.409 423,223.5C 418.824,217.804 414.657,212.137 410.5,206.5C 412.341,200.73 411.674,195.397 408.5,190.5C 408.167,189.833 407.833,189.167 407.5,188.5C 407.56,187.957 407.893,187.624 408.5,187.5C 414.527,189.565 420.527,191.731 426.5,194C 435.472,193.943 443.472,196.61 450.5,202C 454.167,202.667 457.833,202.667 461.5,202C 464.927,200.914 468.26,199.748 471.5,198.5C 476.797,200.045 482.13,201.378 487.5,202.5 Z"/></g>
<g><path style="opacity:1" fill="#f3ebcf" d="M 273.5,196.5 C 276.797,196.329 277.131,196.995 274.5,198.5C 273.702,198.043 273.369,197.376 273.5,196.5 Z"/></g>
<g><path style="opacity:1" fill="#345125" d="M 288.5,172.5 C 301.862,195.18 321.196,202.847 346.5,195.5C 345.03,197.159 344.363,199.159 344.5,201.5C 345.116,205.145 345.45,208.812 345.5,212.5C 342.695,217.07 340.361,221.904 338.5,227C 330.809,230.216 323.142,230.216 315.5,227C 310.731,220.715 304.731,216.215 297.5,213.5C 301.527,195.354 294.194,186.854 275.5,188C 270.951,191.237 265.951,193.404 260.5,194.5C 261.513,190.187 259.846,187.854 255.5,187.5C 266.474,182.853 277.474,177.853 288.5,172.5 Z"/></g>
<g><path style="opacity:1" fill="#eee0ba" d="M 279.5,191.5 C 283.339,192.05 283.339,193.05 279.5,194.5C 278.438,193.575 278.438,192.575 279.5,191.5 Z"/></g>
<g><path style="opacity:1" fill="#f9f7ee" d="M 261.5,198.5 C 263.103,198.312 264.437,198.812 265.5,200C 263.537,200.844 262.204,200.344 261.5,198.5 Z"/></g>
<g><path style="opacity:1" fill="#d1aa43" d="M 239.5,200.5 C 239.675,206.645 239.842,212.979 240,219.5C 244.572,234.717 254.739,240.884 270.5,238C 273.279,237.439 275.946,236.606 278.5,235.5C 278.938,235.435 279.272,235.601 279.5,236C 277.478,239.534 274.478,241.034 270.5,240.5C 270.509,242.308 270.009,243.975 269,245.5C 266.333,247.5 263.667,249.5 261,251.5C 260.747,254.2 260.747,256.867 261,259.5C 257.441,261.13 254.108,263.13 251,265.5C 250.737,269.835 250.903,274.168 251.5,278.5C 249.801,278.34 248.134,278.506 246.5,279C 241.115,285.031 234.448,287.698 226.5,287C 225.91,285.491 225.244,283.991 224.5,282.5C 220.712,284.256 216.712,284.922 212.5,284.5C 224.46,271.039 236.96,258.039 250,245.5C 251.454,243.756 251.621,242.089 250.5,240.5C 248.08,238.076 245.413,237.909 242.5,240C 230.328,251.339 218.328,262.839 206.5,274.5C 207.739,271.411 209.239,268.411 211,265.5C 211.497,263.19 211.663,260.857 211.5,258.5C 208.793,249.67 210.627,242.004 217,235.5C 217.333,233.167 217.667,230.833 218,228.5C 223.881,218.126 231.048,208.793 239.5,200.5 Z"/></g>
<g><path style="opacity:1" fill="#335125" d="M 232.5,188.5 C 234.34,192.856 236.674,196.856 239.5,200.5C 231.048,208.793 223.881,218.126 218,228.5C 217.667,230.833 217.333,233.167 217,235.5C 210.627,242.004 208.793,249.67 211.5,258.5C 208.91,257.872 206.577,256.705 204.5,255C 184.57,241.581 169.57,224.081 159.5,202.5C 166.352,197.696 173.352,197.529 180.5,202C 188.11,203.82 194.777,202.154 200.5,197C 205.771,195.723 211.104,194.723 216.5,194C 221.756,191.859 227.09,190.026 232.5,188.5 Z"/></g>
<g><path style="opacity:1" fill="#edefe2" d="M 377.5,203.5 C 378.751,204.472 378.418,205.139 376.5,205.5C 375.584,205.457 374.917,205.124 374.5,204.5C 375.391,203.89 376.391,203.557 377.5,203.5 Z"/></g>
<g><path style="opacity:1" fill="#d76e51" d="M 255.5,207.5 C 257.735,207.205 259.735,207.539 261.5,208.5C 258.861,208.571 256.694,209.571 255,211.5C 254.5,211.167 254,210.833 253.5,210.5C 254.243,209.818 254.909,209.151 255.5,208.5C 255.5,208.167 255.5,207.833 255.5,207.5 Z"/></g>
<g><path style="opacity:1" fill="#d1aa43" d="M 410.5,206.5 C 414.657,212.137 418.824,217.804 423,223.5C 425.702,227.409 427.035,231.742 427,236.5C 433.867,243.589 435.367,251.755 431.5,261C 431.514,262.385 431.848,263.551 432.5,264.5C 433.833,267.5 435.167,270.5 436.5,273.5C 424.42,262.923 412.753,251.756 401.5,240C 398.836,238.487 396.17,238.32 393.5,239.5C 392.236,241.772 392.402,244.105 394,246.5C 406.622,258.438 418.789,270.771 430.5,283.5C 427.146,284.754 423.646,284.754 420,283.5C 417.065,287.107 413.231,288.274 408.5,287C 404.5,284.333 400.5,281.667 396.5,279C 395.167,278.667 393.833,278.333 392.5,278C 392.183,273.59 392.017,269.09 392,264.5C 389.227,263.074 386.393,261.74 383.5,260.5C 382.853,257.546 382.686,254.546 383,251.5C 380.749,249.623 378.249,248.123 375.5,247C 374.056,245.237 373.056,243.237 372.5,241C 370.833,240.667 369.167,240.333 367.5,240C 364.613,235.716 361.613,231.549 358.5,227.5C 364.315,226.622 369.982,226.289 375.5,226.5C 385.247,228.522 394.58,227.355 403.5,223C 404.823,222.184 405.489,221.017 405.5,219.5C 406.468,217.393 406.802,215.059 406.5,212.5C 407.833,210.5 409.167,208.5 410.5,206.5 Z"/></g>
<g><path style="opacity:1" fill="#cc8936" d="M 366.5,209.5 C 364.974,210.492 364.307,211.992 364.5,214C 364.307,216.008 364.974,217.508 366.5,218.5C 366.427,220.027 367.094,221.027 368.5,221.5C 362.724,223.634 356.724,225.8 350.5,228C 345.833,232 341.167,236 336.5,240C 327.551,244.614 318.884,243.948 310.5,238C 304.658,234.246 298.991,230.246 293.5,226C 291.5,225.333 289.5,225.333 287.5,226C 284.929,227.454 282.262,228.62 279.5,229.5C 280.159,226.545 280.492,223.545 280.5,220.5C 286.004,218.66 290.337,215.327 293.5,210.5C 294.386,211.325 294.719,212.325 294.5,213.5C 295.5,213.5 296.5,213.5 297.5,213.5C 304.731,216.215 310.731,220.715 315.5,227C 323.142,230.216 330.809,230.216 338.5,227C 340.361,221.904 342.695,217.07 345.5,212.5C 352.193,208.607 359.193,207.607 366.5,209.5 Z"/></g>
<g><path style="opacity:1" fill="#5c771e" d="M 377.5,203.5 C 380.287,202.523 383.287,202.19 386.5,202.5C 390.51,203.84 394.51,205.174 398.5,206.5C 401.404,208.055 404.07,210.055 406.5,212.5C 406.802,215.059 406.468,217.393 405.5,219.5C 399.738,222.587 393.571,224.587 387,225.5C 383.995,225.519 381.162,224.852 378.5,223.5C 379.283,221.712 380.616,220.712 382.5,220.5C 387.565,220.1 392.565,219.267 397.5,218C 398.167,217.333 398.833,216.667 399.5,216C 398.045,214.374 396.378,213.208 394.5,212.5C 395.091,211.849 395.757,211.182 396.5,210.5C 396,210.167 395.5,209.833 395,209.5C 393.56,210.148 392.06,210.481 390.5,210.5C 383.683,206.972 376.683,206.639 369.5,209.5C 367.089,211.319 366.922,213.319 369,215.5C 371.397,217.782 374.231,219.116 377.5,219.5C 377.144,220.87 376.31,221.87 375,222.5C 371.802,221.768 368.969,220.435 366.5,218.5C 364.974,217.508 364.307,216.008 364.5,214C 364.307,211.992 364.974,210.492 366.5,209.5C 369.167,207.833 371.833,206.167 374.5,204.5C 374.917,205.124 375.584,205.457 376.5,205.5C 378.418,205.139 378.751,204.472 377.5,203.5 Z"/></g>
<g><path style="opacity:1" fill="#c88833" d="M 390.5,210.5 C 385.715,212.736 381.382,215.736 377.5,219.5C 374.231,219.116 371.397,217.782 369,215.5C 366.922,213.319 367.089,211.319 369.5,209.5C 376.683,206.639 383.683,206.972 390.5,210.5 Z"/></g>
<g><path style="opacity:1" fill="#c52b14" d="M 255.5,208.5 C 254.909,209.151 254.243,209.818 253.5,210.5C 254,210.833 254.5,211.167 255,211.5C 256.694,209.571 258.861,208.571 261.5,208.5C 262.26,210.985 263.26,210.985 264.5,208.5C 272.695,209.432 278.028,213.432 280.5,220.5C 280.492,223.545 280.159,226.545 279.5,229.5C 277.772,231.226 275.772,232.559 273.5,233.5C 262.135,235.487 252.468,232.487 244.5,224.5C 244.5,221.833 244.5,219.167 244.5,216.5C 246.848,212.147 250.515,209.48 255.5,208.5 Z"/></g>
<g><path style="opacity:1" fill="#f1d0cd" d="M 261.5,208.5 C 262.5,208.5 263.5,208.5 264.5,208.5C 263.26,210.985 262.26,210.985 261.5,208.5 Z"/></g>
<g><path style="opacity:1" fill="#d1a640" d="M 271.5,214.5 C 271.953,215.458 272.619,216.292 273.5,217C 270.854,217.497 268.187,217.664 265.5,217.5C 263.131,216.31 261.131,214.643 259.5,212.5C 263.869,210.765 267.869,211.431 271.5,214.5 Z"/></g>
<g><path style="opacity:1" fill="#cc8733" d="M 259.5,212.5 C 261.131,214.643 263.131,216.31 265.5,217.5C 260.933,218.022 256.6,219.355 252.5,221.5C 251.284,216.023 253.618,213.023 259.5,212.5 Z"/></g>
<g><path style="opacity:1" fill="#f3e4e1" d="M 271.5,214.5 C 271.947,212.027 272.947,211.86 274.5,214C 273.552,214.483 272.552,214.649 271.5,214.5 Z"/></g>
<g><path style="opacity:1" fill="#aa742b" d="M 394.5,212.5 C 396.378,213.208 398.045,214.374 399.5,216C 398.833,216.667 398.167,217.333 397.5,218C 392.565,219.267 387.565,220.1 382.5,220.5C 386.119,217.35 390.119,214.684 394.5,212.5 Z"/></g>
<g><path style="opacity:1" fill="#f6edde" d="M 349.5,214.5 C 350.552,214.351 351.552,214.517 352.5,215C 351.271,216.529 349.771,217.696 348,218.5C 347.7,216.934 348.2,215.601 349.5,214.5 Z"/></g>
<g><path style="opacity:1" fill="#f5eedc" d="M 236.5,214.5 C 237.239,214.369 237.906,214.536 238.5,215C 237.696,216.771 236.529,218.271 235,219.5C 234.387,217.505 234.887,215.838 236.5,214.5 Z"/></g>
<g><path style="opacity:1" fill="#f1e3cf" d="M 294.5,218.5 C 296.75,218.181 298.75,218.681 300.5,220C 299.5,220.167 298.5,220.333 297.5,220.5C 295.97,220.36 294.97,219.693 294.5,218.5 Z"/></g>
<g><path style="opacity:1" fill="#f7f3e4" d="M 410.5,217.5 C 411.962,218.458 413.295,219.624 414.5,221C 412.159,221.168 410.826,220.001 410.5,217.5 Z"/></g>
<g><path style="opacity:1" fill="#53661b" d="M 394.5,212.5 C 390.119,214.684 386.119,217.35 382.5,220.5C 380.616,220.712 379.283,221.712 378.5,223.5C 381.162,224.852 383.995,225.519 387,225.5C 393.571,224.587 399.738,222.587 405.5,219.5C 405.489,221.017 404.823,222.184 403.5,223C 394.58,227.355 385.247,228.522 375.5,226.5C 373.381,224.6 371.047,222.934 368.5,221.5C 367.094,221.027 366.427,220.027 366.5,218.5C 368.969,220.435 371.802,221.768 375,222.5C 376.31,221.87 377.144,220.87 377.5,219.5C 381.382,215.736 385.715,212.736 390.5,210.5C 392.06,210.481 393.56,210.148 395,209.5C 395.5,209.833 396,210.167 396.5,210.5C 395.757,211.182 395.091,211.849 394.5,212.5 Z"/></g>
<g><path style="opacity:1" fill="#a6712a" d="M 230.5,180.5 C 235.528,186.716 240.028,193.383 244,200.5C 244.499,205.823 244.666,211.156 244.5,216.5C 244.5,219.167 244.5,221.833 244.5,224.5C 248.488,234.331 255.822,238.164 266.5,236C 269.191,235.844 271.524,235.011 273.5,233.5C 275.772,232.559 277.772,231.226 279.5,229.5C 282.262,228.62 284.929,227.454 287.5,226C 289.5,225.333 291.5,225.333 293.5,226C 298.991,230.246 304.658,234.246 310.5,238C 318.884,243.948 327.551,244.614 336.5,240C 341.167,236 345.833,232 350.5,228C 356.724,225.8 362.724,223.634 368.5,221.5C 371.047,222.934 373.381,224.6 375.5,226.5C 369.982,226.289 364.315,226.622 358.5,227.5C 354.812,229.188 352.145,231.855 350.5,235.5C 349.843,244.793 344.677,249.126 335,248.5C 329.084,248.226 323.251,247.393 317.5,246C 309.32,242.74 301.32,239.24 293.5,235.5C 288.539,231.51 283.539,231.51 278.5,235.5C 275.946,236.606 273.279,237.439 270.5,238C 254.739,240.884 244.572,234.717 240,219.5C 239.842,212.979 239.675,206.645 239.5,200.5C 236.674,196.856 234.34,192.856 232.5,188.5C 231.525,185.933 230.858,183.267 230.5,180.5 Z"/></g>
<g><path style="opacity:1" fill="#f5ecde" d="M 308.5,223.5 C 310.903,224.835 312.236,226.502 312.5,228.5C 310.069,227.64 308.736,225.973 308.5,223.5 Z"/></g>
<g><path style="opacity:1" fill="#cd8633" d="M 262.5,221.5 C 266.5,221.5 270.5,221.5 274.5,221.5C 274.607,223.903 273.607,225.736 271.5,227C 264.594,230.916 258.26,230.249 252.5,225C 255.776,223.308 259.109,222.141 262.5,221.5 Z"/></g>
<g><path style="opacity:1" fill="#b88139" d="M 358.5,227.5 C 361.613,231.549 364.613,235.716 367.5,240C 369.167,240.333 370.833,240.667 372.5,241C 373.056,243.237 374.056,245.237 375.5,247C 378.249,248.123 380.749,249.623 383,251.5C 382.686,254.546 382.853,257.546 383.5,260.5C 386.393,261.74 389.227,263.074 392,264.5C 392.017,269.09 392.183,273.59 392.5,278C 393.833,278.333 395.167,278.667 396.5,279C 400.5,281.667 404.5,284.333 408.5,287C 413.231,288.274 417.065,287.107 420,283.5C 423.646,284.754 427.146,284.754 430.5,283.5C 433.243,285.239 435.243,287.573 436.5,290.5C 430.221,298.625 421.887,301.792 411.5,300C 406.406,298.985 401.406,297.652 396.5,296C 394.044,293.592 392.211,290.759 391,287.5C 388.63,284.961 386.13,282.628 383.5,280.5C 377.882,274.94 374.049,268.273 372,260.5C 368.333,257.833 364.667,255.167 361,252.5C 359.059,248.952 357.393,245.286 356,241.5C 354.669,239.004 352.836,237.004 350.5,235.5C 352.145,231.855 354.812,229.188 358.5,227.5 Z"/></g>
<g><path style="opacity:1" fill="#f8f1e8" d="M 317.5,231.5 C 318.097,230.861 318.93,230.528 320,230.5C 322.5,231 325,231.5 327.5,232C 324.076,232.747 320.743,232.58 317.5,231.5 Z"/></g>
<g><path style="opacity:1" fill="#ecd4b4" d="M 333.5,229.5 C 337.278,230.311 337.111,231.311 333,232.5C 332.5,232.167 332,231.833 331.5,231.5C 332.243,230.818 332.909,230.151 333.5,229.5 Z"/></g>
<g><path style="opacity:1" fill="#f9f6ea" d="M 418.5,229.5 C 420.332,230.14 420.665,231.14 419.5,232.5C 418.614,231.675 418.281,230.675 418.5,229.5 Z"/></g>
<g><path style="opacity:1" fill="#f5efd9" d="M 225.5,226.5 C 226.043,226.56 226.376,226.893 226.5,227.5C 224.833,230.167 223.167,232.833 221.5,235.5C 220.417,234.635 220.251,233.635 221,232.5C 222.332,230.34 223.832,228.34 225.5,226.5 Z"/></g>
<g><path style="opacity:1" fill="#a3210f" d="M 244.5,224.5 C 252.468,232.487 262.135,235.487 273.5,233.5C 271.524,235.011 269.191,235.844 266.5,236C 255.822,238.164 248.488,234.331 244.5,224.5 Z"/></g>
<g><path style="opacity:1" fill="#b88139" d="M 293.5,235.5 C 288.277,239.605 284.777,244.938 283,251.5C 278.815,254.595 274.815,257.928 271,261.5C 269.124,268.255 265.957,274.255 261.5,279.5C 255.944,283.24 251.777,288.24 249,294.5C 239.629,298.64 229.796,300.474 219.5,300C 214.447,297.775 210.114,294.608 206.5,290.5C 208.167,288.167 210.167,286.167 212.5,284.5C 216.712,284.922 220.712,284.256 224.5,282.5C 225.244,283.991 225.91,285.491 226.5,287C 234.448,287.698 241.115,285.031 246.5,279C 248.134,278.506 249.801,278.34 251.5,278.5C 250.903,274.168 250.737,269.835 251,265.5C 254.108,263.13 257.441,261.13 261,259.5C 260.747,256.867 260.747,254.2 261,251.5C 263.667,249.5 266.333,247.5 269,245.5C 270.009,243.975 270.509,242.308 270.5,240.5C 274.478,241.034 277.478,239.534 279.5,236C 279.272,235.601 278.938,235.435 278.5,235.5C 283.539,231.51 288.539,231.51 293.5,235.5 Z"/></g>
<g><path style="opacity:1" fill="#f8f3e5" d="M 422.5,238.5 C 424.337,238.639 424.67,239.306 423.5,240.5C 422.702,240.043 422.369,239.376 422.5,238.5 Z"/></g>
<g><path style="opacity:1" fill="#ece3ca" d="M 250.5,240.5 C 250.631,241.239 250.464,241.906 250,242.5C 207.388,286.447 164.722,330.447 122,374.5C 117.286,370.946 112.453,367.613 107.5,364.5C 121.515,348.308 136.182,332.475 151.5,317C 158.46,317.126 164.46,314.959 169.5,310.5C 171.167,309.167 172.833,307.833 174.5,306.5C 175.974,305.564 176.974,304.23 177.5,302.5C 187.801,293.867 197.467,284.533 206.5,274.5C 218.328,262.839 230.328,251.339 242.5,240C 245.413,237.909 248.08,238.076 250.5,240.5 Z"/></g>
<g><path style="opacity:1" fill="#ece2c9" d="M 436.5,273.5 C 445.473,283.14 454.806,292.473 464.5,301.5C 465.5,303.167 466.833,304.5 468.5,305.5C 471.719,310.397 476.052,313.731 481.5,315.5C 485.142,316.08 488.809,316.58 492.5,317C 506.338,332.337 520.338,347.504 534.5,362.5C 532.031,365.144 529.698,367.977 527.5,371C 525.635,372.301 523.635,372.635 521.5,372C 488.474,338.198 455.307,304.364 422,270.5C 412.272,260.276 402.772,249.943 393.5,239.5C 396.17,238.32 398.836,238.487 401.5,240C 412.753,251.756 424.42,262.923 436.5,273.5 Z"/></g>
<g><path style="opacity:1" fill="#325125" d="M 293.5,235.5 C 301.32,239.24 309.32,242.74 317.5,246C 323.251,247.393 329.084,248.226 335,248.5C 344.677,249.126 349.843,244.793 350.5,235.5C 352.836,237.004 354.669,239.004 356,241.5C 357.393,245.286 359.059,248.952 361,252.5C 364.667,255.167 368.333,257.833 372,260.5C 374.049,268.273 377.882,274.94 383.5,280.5C 364.494,285.753 344.994,288.087 325,287.5C 303.269,288.211 282.102,285.544 261.5,279.5C 265.957,274.255 269.124,268.255 271,261.5C 274.815,257.928 278.815,254.595 283,251.5C 284.777,244.938 288.277,239.605 293.5,235.5 Z"/></g>
<g><path style="opacity:0.995" fill="#1a3b40" d="M 564.5,184.5 C 568.234,184.323 571.901,184.656 575.5,185.5C 573.666,220.829 560.166,250.829 535,275.5C 519.502,290.001 502.335,302.168 483.5,312C 482.177,312.816 481.511,313.983 481.5,315.5C 476.052,313.731 471.719,310.397 468.5,305.5C 496.478,292.705 520.311,274.372 540,250.5C 555.186,231.124 563.353,209.124 564.5,184.5 Z"/></g>
<g><path style="opacity:1" fill="#ceb980" d="M 393.5,239.5 C 402.772,249.943 412.272,260.276 422,270.5C 455.307,304.364 488.474,338.198 521.5,372C 523.635,372.635 525.635,372.301 527.5,371C 529.698,367.977 532.031,365.144 534.5,362.5C 536.441,364.011 536.941,366.011 536,368.5C 532.333,371.001 529.166,374.001 526.5,377.5C 524.5,377.5 522.5,377.5 520.5,377.5C 502.806,358.807 485.139,340.14 467.5,321.5C 464.5,317.833 461.167,314.5 457.5,311.5C 456.5,309.833 455.167,308.5 453.5,307.5C 448.14,301.473 442.473,295.806 436.5,290.5C 435.243,287.573 433.243,285.239 430.5,283.5C 418.789,270.771 406.622,258.438 394,246.5C 392.402,244.105 392.236,241.772 393.5,239.5 Z"/></g>
<g><path style="opacity:1" fill="#2e383a" d="M 261.5,279.5 C 282.102,285.544 303.269,288.211 325,287.5C 344.994,288.087 364.494,285.753 383.5,280.5C 386.13,282.628 388.63,284.961 391,287.5C 392.211,290.759 394.044,293.592 396.5,296C 401.406,297.652 406.406,298.985 411.5,300C 421.887,301.792 430.221,298.625 436.5,290.5C 442.473,295.806 448.14,301.473 453.5,307.5C 399.041,329.687 342.374,337.853 283.5,332C 251.085,328.23 219.751,320.396 189.5,308.5C 194.463,301.869 200.13,295.869 206.5,290.5C 210.114,294.608 214.447,297.775 219.5,300C 229.796,300.474 239.629,298.64 249,294.5C 251.777,288.24 255.944,283.24 261.5,279.5 Z"/></g>
<g><path style="opacity:0.725" fill="#1e3f44" d="M 130.5,279.5 C 144.539,289.52 159.206,298.52 174.5,306.5C 172.833,307.833 171.167,309.167 169.5,310.5C 169.489,308.983 168.823,307.816 167.5,307C 153.855,299.511 141.522,290.345 130.5,279.5 Z"/></g>
<g><path style="opacity:1" fill="#525b65" d="M 453.5,307.5 C 455.167,308.5 456.5,309.833 457.5,311.5C 376.274,342.489 293.941,345.656 210.5,321C 202.322,318.07 194.322,314.904 186.5,311.5C 187.167,310.167 188.167,309.167 189.5,308.5C 219.751,320.396 251.085,328.23 283.5,332C 342.374,337.853 399.041,329.687 453.5,307.5 Z"/></g>
<g><path style="opacity:0.993" fill="#1a3b40" d="M 186.5,311.5 C 194.322,314.904 202.322,318.07 210.5,321C 293.941,345.656 376.274,342.489 457.5,311.5C 461.167,314.5 464.5,317.833 467.5,321.5C 466.504,321.586 465.671,321.252 465,320.5C 393.594,348.377 320.427,353.877 245.5,337C 223.808,331.714 202.808,324.547 182.5,315.5C 183.5,313.833 184.833,312.5 186.5,311.5 Z"/></g>
<g><path style="opacity:1" fill="#c7b580" d="M 250.5,240.5 C 251.621,242.089 251.454,243.756 250,245.5C 236.96,258.039 224.46,271.039 212.5,284.5C 210.167,286.167 208.167,288.167 206.5,290.5C 200.13,295.869 194.463,301.869 189.5,308.5C 188.167,309.167 187.167,310.167 186.5,311.5C 184.833,312.5 183.5,313.833 182.5,315.5C 162.131,335.535 142.464,356.202 123.5,377.5C 121.5,377.5 119.5,377.5 117.5,377.5C 114.501,373.668 111.001,370.335 107,367.5C 106.26,366.251 106.427,365.251 107.5,364.5C 112.453,367.613 117.286,370.946 122,374.5C 164.722,330.447 207.388,286.447 250,242.5C 250.464,241.906 250.631,241.239 250.5,240.5 Z"/></g>
</svg>
