<?xml version="1.0" encoding="UTF-8"?>
<!DOCTYPE svg PUBLIC "-//W3C//DTD SVG 1.1//EN" "http://www.w3.org/Graphics/SVG/1.1/DTD/svg11.dtd">
<svg xmlns="http://www.w3.org/2000/svg" version="1.1" width="500px" height="500px" style="shape-rendering:geometricPrecision; text-rendering:geometricPrecision; image-rendering:optimizeQuality; fill-rule:evenodd; clip-rule:evenodd" xmlns:xlink="http://www.w3.org/1999/xlink">
<g><path style="opacity:1" fill="#748b14" d="M 338.5,115.5 C 336.014,116.844 334.348,119.01 333.5,122C 335.227,131.166 337.727,139.999 341,148.5C 336.14,142.74 330.14,138.74 323,136.5C 320.681,137.709 318.181,138.542 315.5,139C 317.089,143.337 318.423,147.837 319.5,152.5C 317.939,155.943 317.106,159.61 317,163.5C 312.127,148.076 303.961,134.743 292.5,123.5C 294.642,118.921 298.309,116.588 303.5,116.5C 311.921,117.795 319.421,121.128 326,126.5C 324.048,116.046 328.214,112.379 338.5,115.5 Z"/></g>
<g><path style="opacity:1" fill="#7e9619" d="M 338.5,115.5 C 341.089,115.461 343.089,116.461 344.5,118.5C 342.61,118.297 341.11,118.963 340,120.5C 339.333,122.833 339.333,125.167 340,127.5C 341.605,130.648 342.605,133.981 343,137.5C 347.361,143.76 349.861,150.76 350.5,158.5C 347.611,167.965 348.111,177.298 352,186.5C 353.154,187.743 354.488,188.743 356,189.5C 356.305,191.557 356.305,193.557 356,195.5C 357.017,193.624 357.851,191.624 358.5,189.5C 360.258,188.872 361.758,187.872 363,186.5C 363.333,178.167 363.667,169.833 364,161.5C 365.698,157.672 367.532,154.006 369.5,150.5C 369.334,154.846 369.501,159.179 370,163.5C 373.584,170.166 376.75,176.999 379.5,184C 377.464,193.535 371.798,199.701 362.5,202.5C 360.785,206.776 358.285,207.443 355,204.5C 354.162,207.481 354.995,209.814 357.5,211.5C 355.5,211.5 353.5,211.5 351.5,211.5C 352.472,210.601 353.138,209.434 353.5,208C 352.077,202.218 350.91,196.385 350,190.5C 349.167,189 348,187.833 346.5,187C 347.578,186.326 348.245,185.326 348.5,184C 347.339,179.199 346.339,174.366 345.5,169.5C 342.507,162.015 337.84,155.848 331.5,151C 329.934,150.235 328.601,150.402 327.5,151.5C 324.589,150.017 321.922,150.35 319.5,152.5C 318.423,147.837 317.089,143.337 315.5,139C 318.181,138.542 320.681,137.709 323,136.5C 330.14,138.74 336.14,142.74 341,148.5C 337.727,139.999 335.227,131.166 333.5,122C 334.348,119.01 336.014,116.844 338.5,115.5 Z"/></g>
<g><path style="opacity:1" fill="#88a413" d="M 344.5,118.5 C 349.097,121.658 352.264,125.991 354,131.5C 355.989,139.765 357.655,148.099 359,156.5C 360.748,150.885 364.248,148.885 369.5,150.5C 367.532,154.006 365.698,157.672 364,161.5C 363.667,169.833 363.333,178.167 363,186.5C 361.758,187.872 360.258,188.872 358.5,189.5C 357.851,191.624 357.017,193.624 356,195.5C 356.305,193.557 356.305,191.557 356,189.5C 354.488,188.743 353.154,187.743 352,186.5C 348.111,177.298 347.611,167.965 350.5,158.5C 349.861,150.76 347.361,143.76 343,137.5C 342.605,133.981 341.605,130.648 340,127.5C 339.333,125.167 339.333,122.833 340,120.5C 341.11,118.963 342.61,118.297 344.5,118.5 Z"/></g>
<g><path style="opacity:1" fill="#afb840" d="M 292.5,123.5 C 303.961,134.743 312.127,148.076 317,163.5C 317.106,159.61 317.939,155.943 319.5,152.5C 321.922,150.35 324.589,150.017 327.5,151.5C 332.822,153.815 335.822,157.815 336.5,163.5C 336.784,176.912 335.951,190.245 334,203.5C 332.506,204.747 331.006,204.747 329.5,203.5C 327.333,200.5 325.167,197.5 323,194.5C 322.667,196.833 322.333,199.167 322,201.5C 321.308,196.298 319.975,191.298 318,186.5C 313.976,184.152 309.809,181.985 305.5,180C 299.432,173.535 292.099,171.535 283.5,174C 280.53,172.847 277.863,171.18 275.5,169C 267.847,167.891 260.181,166.891 252.5,166C 243.838,162.007 241.004,155.507 244,146.5C 245.019,145.313 246.186,144.313 247.5,143.5C 257.836,148.924 267.003,155.924 275,164.5C 272.129,158.594 267.963,153.427 262.5,149C 258.603,145.469 254.436,142.303 250,139.5C 249.845,137.144 249.845,134.811 250,132.5C 249.329,133.252 248.496,133.586 247.5,133.5C 248.673,131.496 250.34,129.996 252.5,129C 257.158,127.55 261.824,127.217 266.5,128C 273.91,118.817 282.577,117.317 292.5,123.5 Z"/></g>
<g><path style="opacity:1" fill="#8c9213" d="M 230.5,150.5 C 231.876,153.959 233.543,157.459 235.5,161C 246.27,165.591 257.27,169.591 268.5,173C 271.239,174.026 273.572,175.526 275.5,177.5C 269.31,177.177 263.31,177.51 257.5,178.5C 254.941,178.198 252.607,178.532 250.5,179.5C 243.089,177.244 235.756,175.244 228.5,173.5C 227.486,171.426 226.486,169.426 225.5,167.5C 224.578,160.944 226.245,155.277 230.5,150.5 Z"/></g>
<g><path style="opacity:1" fill="#fef7db" d="M 225.5,167.5 C 226.486,169.426 227.486,171.426 228.5,173.5C 225.15,173.335 221.817,173.502 218.5,174C 215.555,174.139 213.221,175.306 211.5,177.5C 209.75,178.659 208.75,180.326 208.5,182.5C 207.027,183.071 205.36,183.071 203.5,182.5C 196.711,182.201 190.044,182.868 183.5,184.5C 177.491,184.334 171.491,184.501 165.5,185C 164.944,185.383 164.611,185.883 164.5,186.5C 163.833,186.5 163.167,186.5 162.5,186.5C 159.806,183.14 156.806,180.14 153.5,177.5C 155.884,177.443 158.218,177.777 160.5,178.5C 181.376,174.765 202.376,171.932 223.5,170C 224.756,169.583 225.423,168.75 225.5,167.5 Z"/></g>
<g><path style="opacity:1" fill="#a2ab34" d="M 336.5,163.5 C 338.074,172.776 338.407,182.11 337.5,191.5C 337.537,195.925 338.204,200.091 339.5,204C 338.281,206.283 338.281,208.616 339.5,211C 339.022,212.303 338.355,213.469 337.5,214.5C 335.102,214.259 333.102,214.926 331.5,216.5C 330.167,217.167 328.833,217.833 327.5,218.5C 326.067,216.481 324.733,214.314 323.5,212C 322.207,211.51 320.873,211.343 319.5,211.5C 318.824,207.813 317.324,204.48 315,201.5C 304.688,188.762 291.521,180.762 275.5,177.5C 273.572,175.526 271.239,174.026 268.5,173C 257.27,169.591 246.27,165.591 235.5,161C 233.543,157.459 231.876,153.959 230.5,150.5C 233.892,146.787 237.892,143.787 242.5,141.5C 243.807,138.531 245.473,135.865 247.5,133.5C 248.496,133.586 249.329,133.252 250,132.5C 249.845,134.811 249.845,137.144 250,139.5C 254.436,142.303 258.603,145.469 262.5,149C 267.963,153.427 272.129,158.594 275,164.5C 267.003,155.924 257.836,148.924 247.5,143.5C 246.186,144.313 245.019,145.313 244,146.5C 241.004,155.507 243.838,162.007 252.5,166C 260.181,166.891 267.847,167.891 275.5,169C 277.863,171.18 280.53,172.847 283.5,174C 292.099,171.535 299.432,173.535 305.5,180C 309.809,181.985 313.976,184.152 318,186.5C 319.975,191.298 321.308,196.298 322,201.5C 322.333,199.167 322.667,196.833 323,194.5C 325.167,197.5 327.333,200.5 329.5,203.5C 331.006,204.747 332.506,204.747 334,203.5C 335.951,190.245 336.784,176.912 336.5,163.5 Z"/></g>
<g><path style="opacity:1" fill="#da333f" d="M 228.5,173.5 C 235.756,175.244 243.089,177.244 250.5,179.5C 250.5,180.167 250.833,180.5 251.5,180.5C 256.527,181.846 260.194,184.846 262.5,189.5C 261.461,191.531 259.795,192.864 257.5,193.5C 255.365,191.929 253.032,190.596 250.5,189.5C 246.761,187.898 242.761,186.898 238.5,186.5C 235.762,184.975 232.762,183.975 229.5,183.5C 224.672,182.501 220.005,182.501 215.5,183.5C 214.455,181.23 213.121,179.23 211.5,177.5C 213.221,175.306 215.555,174.139 218.5,174C 221.817,173.502 225.15,173.335 228.5,173.5 Z"/></g>
<g><path style="opacity:1" fill="#d74e09" d="M 106.5,267.5 C 105.5,267.5 104.5,267.5 103.5,267.5C 102.417,267.461 101.417,267.127 100.5,266.5C 99.7306,250.116 98.3972,233.783 96.5,217.5C 96.6667,214.167 96.8333,210.833 97,207.5C 99.3279,203.02 101.828,198.687 104.5,194.5C 109.712,188.56 115.712,183.56 122.5,179.5C 124.086,178.587 125.586,178.587 127,179.5C 133.46,176.596 140.293,175.763 147.5,177C 135.17,184.655 124.004,193.822 114,204.5C 112.333,207.167 110.667,209.833 109,212.5C 108.323,225.676 108.49,238.843 109.5,252C 109.682,257.431 108.682,262.598 106.5,267.5 Z"/></g>
<g><path style="opacity:1" fill="#fd8022" d="M 153.5,177.5 C 156.806,180.14 159.806,183.14 162.5,186.5C 160.34,189.829 159.006,193.496 158.5,197.5C 158.568,200.438 159.234,203.105 160.5,205.5C 160.649,206.552 160.483,207.552 160,208.5C 154.664,212.67 149.83,217.337 145.5,222.5C 143.39,223.453 142.223,225.119 142,227.5C 141.667,231.5 141.333,235.5 141,239.5C 138.378,245.085 135.544,250.418 132.5,255.5C 131.25,255.423 130.417,254.756 130,253.5C 129,254.5 128,255.5 127,256.5C 124.538,252.565 122.538,252.898 121,257.5C 119.171,255.844 117.837,253.844 117,251.5C 113.443,239.39 112.11,227.056 113,214.5C 116.617,206.871 121.783,200.371 128.5,195C 135.539,189.489 142.539,183.989 149.5,178.5C 150.689,177.571 152.022,177.238 153.5,177.5 Z"/></g>
<g><path style="opacity:1" fill="#db9ab9" d="M 257.5,178.5 C 271.301,177.301 283.967,180.467 295.5,188C 292.721,188.561 290.054,189.394 287.5,190.5C 284.563,188.344 281.229,186.844 277.5,186C 268.994,183.332 260.328,181.499 251.5,180.5C 250.833,180.5 250.5,180.167 250.5,179.5C 252.607,178.532 254.941,178.198 257.5,178.5 Z"/></g>
<g><path style="opacity:1" fill="#738a10" d="M 327.5,151.5 C 328.601,150.402 329.934,150.235 331.5,151C 337.84,155.848 342.507,162.015 345.5,169.5C 346.339,174.366 347.339,179.199 348.5,184C 348.245,185.326 347.578,186.326 346.5,187C 348,187.833 349.167,189 350,190.5C 350.91,196.385 352.077,202.218 353.5,208C 353.138,209.434 352.472,210.601 351.5,211.5C 348.296,212.383 345.629,214.05 343.5,216.5C 342.833,216.167 342.167,215.833 341.5,215.5C 340.292,214.766 338.959,214.433 337.5,214.5C 338.355,213.469 339.022,212.303 339.5,211C 338.281,208.616 338.281,206.283 339.5,204C 338.204,200.091 337.537,195.925 337.5,191.5C 338.407,182.11 338.074,172.776 336.5,163.5C 335.822,157.815 332.822,153.815 327.5,151.5 Z"/></g>
<g><path style="opacity:1" fill="#faead0" d="M 229.5,183.5 C 225.366,184.485 221.032,184.818 216.5,184.5C 215.833,184.5 215.5,184.167 215.5,183.5C 220.005,182.501 224.672,182.501 229.5,183.5 Z"/></g>
<g><path style="opacity:1" fill="#e3a584" d="M 229.5,183.5 C 232.762,183.975 235.762,184.975 238.5,186.5C 231.524,185.768 224.524,185.435 217.5,185.5C 216.833,185.5 216.5,185.167 216.5,184.5C 221.032,184.818 225.366,184.485 229.5,183.5 Z"/></g>
<g><path style="opacity:1" fill="#fcc1c1" d="M 203.5,182.5 C 205.36,183.071 207.027,183.071 208.5,182.5C 208.5,183.5 208.5,184.5 208.5,185.5C 208.423,186.75 207.756,187.583 206.5,188C 198.182,191.159 189.848,194.159 181.5,197C 180.944,197.383 180.611,197.883 180.5,198.5C 179.272,199.306 178.272,200.306 177.5,201.5C 175.708,201.634 174.042,201.301 172.5,200.5C 170.202,195.557 167.535,190.89 164.5,186.5C 164.611,185.883 164.944,185.383 165.5,185C 171.491,184.501 177.491,184.334 183.5,184.5C 181.058,185.899 178.724,187.566 176.5,189.5C 173.484,196.913 174.484,197.413 179.5,191C 187.301,187.229 195.301,184.395 203.5,182.5 Z"/></g>
<g><path style="opacity:1" fill="#eb3b3f" d="M 211.5,177.5 C 213.121,179.23 214.455,181.23 215.5,183.5C 215.5,184.167 215.833,184.5 216.5,184.5C 216.5,185.167 216.833,185.5 217.5,185.5C 218.29,186.401 219.29,187.068 220.5,187.5C 224.421,189.578 228.421,191.245 232.5,192.5C 229.468,192.495 226.468,192.162 223.5,191.5C 221.486,191.437 219.819,192.103 218.5,193.5C 216.938,193.267 215.605,192.6 214.5,191.5C 213.5,190.833 212.5,190.167 211.5,189.5C 210.488,188.128 209.488,186.795 208.5,185.5C 208.5,184.5 208.5,183.5 208.5,182.5C 208.75,180.326 209.75,178.659 211.5,177.5 Z"/></g>
<g><path style="opacity:1" fill="#c16180" d="M 203.5,182.5 C 195.301,184.395 187.301,187.229 179.5,191C 174.484,197.413 173.484,196.913 176.5,189.5C 178.724,187.566 181.058,185.899 183.5,184.5C 190.044,182.868 196.711,182.201 203.5,182.5 Z"/></g>
<g><path style="opacity:1" fill="#ecadcc" d="M 220.5,187.5 C 229.566,186.425 238.233,188.259 246.5,193C 245.552,193.483 244.552,193.649 243.5,193.5C 242.833,193.5 242.167,193.5 241.5,193.5C 238.609,192.597 235.609,192.264 232.5,192.5C 228.421,191.245 224.421,189.578 220.5,187.5 Z"/></g>
<g><path style="opacity:1" fill="#efaac8" d="M 211.5,189.5 C 212.5,190.167 213.5,190.833 214.5,191.5C 213.081,192.451 211.415,192.784 209.5,192.5C 208.596,191.791 208.263,190.791 208.5,189.5C 209.5,189.5 210.5,189.5 211.5,189.5 Z"/></g>
<g><path style="opacity:1" fill="#f9a3a1" d="M 262.5,189.5 C 267.066,189.729 271.733,189.896 276.5,190C 278.063,190.759 279.063,191.926 279.5,193.5C 273.022,196.104 266.355,198.104 259.5,199.5C 261.65,196.528 262.65,193.195 262.5,189.5 Z"/></g>
<g><path style="opacity:1" fill="#90911d" d="M 251.5,180.5 C 260.328,181.499 268.994,183.332 277.5,186C 281.229,186.844 284.563,188.344 287.5,190.5C 285.046,192.06 282.38,193.06 279.5,193.5C 279.063,191.926 278.063,190.759 276.5,190C 271.733,189.896 267.066,189.729 262.5,189.5C 260.194,184.846 256.527,181.846 251.5,180.5 Z"/></g>
<g><path style="opacity:1" fill="#c15b72" d="M 217.5,185.5 C 224.524,185.435 231.524,185.768 238.5,186.5C 242.761,186.898 246.761,187.898 250.5,189.5C 249.761,189.369 249.094,189.536 248.5,190C 250.86,191.18 253.193,192.347 255.5,193.5C 251.5,194.833 247.5,194.833 243.5,193.5C 244.552,193.649 245.552,193.483 246.5,193C 238.233,188.259 229.566,186.425 220.5,187.5C 219.29,187.068 218.29,186.401 217.5,185.5 Z"/></g>
<g><path style="opacity:1" fill="#9c8027" d="M 250.5,189.5 C 253.032,190.596 255.365,191.929 257.5,193.5C 256.833,193.5 256.167,193.5 255.5,193.5C 253.193,192.347 250.86,191.18 248.5,190C 249.094,189.536 249.761,189.369 250.5,189.5 Z"/></g>
<g><path style="opacity:1" fill="#748a13" d="M 369.5,150.5 C 371.582,150.624 373.082,151.624 374,153.5C 374.333,159.167 374.667,164.833 375,170.5C 377.63,174.132 380.63,177.465 384,180.5C 384.497,182.81 384.663,185.143 384.5,187.5C 381.883,194.402 379.55,201.402 377.5,208.5C 376.209,212.399 376.209,216.399 377.5,220.5C 373.578,220.069 370.078,221.069 367,223.5C 366.685,221.414 366.185,219.414 365.5,217.5C 364.833,216.167 363.833,215.167 362.5,214.5C 361.341,212.75 359.674,211.75 357.5,211.5C 354.995,209.814 354.162,207.481 355,204.5C 358.285,207.443 360.785,206.776 362.5,202.5C 371.798,199.701 377.464,193.535 379.5,184C 376.75,176.999 373.584,170.166 370,163.5C 369.501,159.179 369.334,154.846 369.5,150.5 Z"/></g>
<g><path style="opacity:1" fill="#fef8e0" d="M 384.5,187.5 C 406.668,195.084 427.334,205.584 446.5,219C 459.921,229.014 468.421,242.181 472,258.5C 473.159,268.536 471.326,277.869 466.5,286.5C 466.881,284.058 466.214,283.391 464.5,284.5C 459.72,290.783 454.387,296.616 448.5,302C 424.35,318.942 398.017,331.275 369.5,339C 282.6,362.15 196.6,359.317 111.5,330.5C 87.5392,322.017 66.3725,309.017 48,291.5C 44.0858,287.43 41.0858,282.763 39,277.5C 38.31,276.262 37.81,276.262 37.5,277.5C 36.8333,276.167 36.1667,274.833 35.5,273.5C 32.1767,258.452 35.3434,244.785 45,232.5C 61.8205,215.17 81.6539,202.503 104.5,194.5C 101.828,198.687 99.3279,203.02 97,207.5C 96.8333,210.833 96.6667,214.167 96.5,217.5C 98.3972,233.783 99.7306,250.116 100.5,266.5C 101.417,267.127 102.417,267.461 103.5,267.5C 105.698,268.165 108.031,268.832 110.5,269.5C 117.188,279.521 125.521,287.855 135.5,294.5C 135.205,296.735 135.539,298.735 136.5,300.5C 137.072,305.715 138.738,310.549 141.5,315C 152.882,314.995 164.215,314.161 175.5,312.5C 176.919,313.451 178.585,313.784 180.5,313.5C 189.855,316.453 199.522,318.453 209.5,319.5C 211.111,323.069 213.944,325.069 218,325.5C 222.204,324.574 226.371,323.574 230.5,322.5C 275.489,324.42 319.155,317.92 361.5,303C 376.357,297.401 389.524,289.234 401,278.5C 409.934,267.047 411.934,254.38 407,240.5C 400.553,227.72 391.053,217.886 378.5,211C 377.748,210.329 377.414,209.496 377.5,208.5C 379.55,201.402 381.883,194.402 384.5,187.5 Z"/></g>
<g><path style="opacity:1" fill="#eb8e90" d="M 208.5,185.5 C 209.488,186.795 210.488,188.128 211.5,189.5C 210.5,189.5 209.5,189.5 208.5,189.5C 208.263,190.791 208.596,191.791 209.5,192.5C 209.389,193.117 209.056,193.617 208.5,194C 199.823,196.079 191.49,198.912 183.5,202.5C 182.737,201.732 181.737,201.232 180.5,201C 185.658,200.317 185.658,199.484 180.5,198.5C 180.611,197.883 180.944,197.383 181.5,197C 189.848,194.159 198.182,191.159 206.5,188C 207.756,187.583 208.423,186.75 208.5,185.5 Z"/></g>
<g><path style="opacity:1" fill="#758813" d="M 232.5,192.5 C 235.609,192.264 238.609,192.597 241.5,193.5C 241.371,195.216 241.038,196.883 240.5,198.5C 237.675,198.919 235.509,197.919 234,195.5C 233.648,197.247 233.148,198.914 232.5,200.5C 230.408,200.439 228.908,199.439 228,197.5C 226.249,202.156 224.082,202.489 221.5,198.5C 219.591,199.348 217.591,199.682 215.5,199.5C 215.5,198.833 215.5,198.167 215.5,197.5C 216.5,196.167 217.5,194.833 218.5,193.5C 219.819,192.103 221.486,191.437 223.5,191.5C 226.468,192.162 229.468,192.495 232.5,192.5 Z"/></g>
<g><path style="opacity:1" fill="#ee383f" d="M 262.5,189.5 C 262.65,193.195 261.65,196.528 259.5,199.5C 256.365,201.023 253.032,201.69 249.5,201.5C 246.482,201.296 243.482,200.963 240.5,200.5C 240.5,199.833 240.5,199.167 240.5,198.5C 241.038,196.883 241.371,195.216 241.5,193.5C 242.167,193.5 242.833,193.5 243.5,193.5C 247.5,194.833 251.5,194.833 255.5,193.5C 256.167,193.5 256.833,193.5 257.5,193.5C 259.795,192.864 261.461,191.531 262.5,189.5 Z"/></g>
<g><path style="opacity:1" fill="#fd8c87" d="M 162.5,186.5 C 163.167,186.5 163.833,186.5 164.5,186.5C 167.535,190.89 170.202,195.557 172.5,200.5C 172.119,201.931 171.119,202.764 169.5,203C 171.592,203.953 171.925,205.286 170.5,207C 168.536,207.624 166.869,207.124 165.5,205.5C 163.191,206.933 161.691,206.266 161,203.5C 160.536,204.094 160.369,204.761 160.5,205.5C 159.234,203.105 158.568,200.438 158.5,197.5C 159.006,193.496 160.34,189.829 162.5,186.5 Z"/></g>
<g><path style="opacity:1" fill="#c0587a" d="M 214.5,191.5 C 215.605,192.6 216.938,193.267 218.5,193.5C 217.5,194.833 216.5,196.167 215.5,197.5C 204.025,198.032 193.358,201.032 183.5,206.5C 182.314,205.295 182.314,203.961 183.5,202.5C 191.49,198.912 199.823,196.079 208.5,194C 209.056,193.617 209.389,193.117 209.5,192.5C 211.415,192.784 213.081,192.451 214.5,191.5 Z"/></g>
<g><path style="opacity:1" fill="#dd9198" d="M 240.5,198.5 C 240.5,199.167 240.5,199.833 240.5,200.5C 237.939,201.767 235.272,201.767 232.5,200.5C 233.148,198.914 233.648,197.247 234,195.5C 235.509,197.919 237.675,198.919 240.5,198.5 Z"/></g>
<g><path style="opacity:1" fill="#eeafd0" d="M 296.5,190.5 C 297.72,192.05 297.72,193.716 296.5,195.5C 292.397,196.09 288.397,197.09 284.5,198.5C 270.293,203.719 255.626,207.385 240.5,209.5C 231.779,210.705 223.112,210.705 214.5,209.5C 212.05,209.702 209.717,209.369 207.5,208.5C 205.219,207.661 202.885,206.661 200.5,205.5C 199.702,205.043 199.369,204.376 199.5,203.5C 208.99,208.056 218.99,209.556 229.5,208C 252.458,204.519 274.791,198.686 296.5,190.5 Z"/></g>
<g><path style="opacity:1" fill="#e63642" d="M 211.5,200.5 C 212.833,200.5 214.167,200.5 215.5,200.5C 215.5,201.833 215.5,203.167 215.5,204.5C 214.167,204.5 212.833,204.5 211.5,204.5C 209.708,204.634 208.042,204.301 206.5,203.5C 206.5,202.5 206.5,201.5 206.5,200.5C 208.167,200.5 209.833,200.5 211.5,200.5 Z"/></g>
<g><path style="opacity:1" fill="#df6866" d="M 232.5,200.5 C 235.272,201.767 237.939,201.767 240.5,200.5C 243.482,200.963 246.482,201.296 249.5,201.5C 237.02,205.223 224.353,206.223 211.5,204.5C 212.833,204.5 214.167,204.5 215.5,204.5C 215.5,203.167 215.5,201.833 215.5,200.5C 214.167,200.5 212.833,200.5 211.5,200.5C 212.568,199.566 213.901,199.232 215.5,199.5C 217.591,199.682 219.591,199.348 221.5,198.5C 224.082,202.489 226.249,202.156 228,197.5C 228.908,199.439 230.408,200.439 232.5,200.5 Z"/></g>
<g><path style="opacity:1" fill="#dd95b4" d="M 215.5,197.5 C 215.5,198.167 215.5,198.833 215.5,199.5C 213.901,199.232 212.568,199.566 211.5,200.5C 209.833,200.5 208.167,200.5 206.5,200.5C 206.5,201.5 206.5,202.5 206.5,203.5C 204.337,201.568 202.003,201.235 199.5,202.5C 198.209,202.263 197.209,202.596 196.5,203.5C 195.167,203.833 193.833,204.167 192.5,204.5C 189.846,205.122 187.346,206.122 185,207.5C 184.235,207.43 183.735,207.097 183.5,206.5C 193.358,201.032 204.025,198.032 215.5,197.5 Z"/></g>
<g><path style="opacity:1" fill="#bf5c7c" d="M 257.5,178.5 C 263.31,177.51 269.31,177.177 275.5,177.5C 291.521,180.762 304.688,188.762 315,201.5C 317.324,204.48 318.824,207.813 319.5,211.5C 319.539,214.089 318.539,216.089 316.5,217.5C 313.645,206.295 307.645,197.128 298.5,190C 297.563,189.308 296.897,189.475 296.5,190.5C 274.791,198.686 252.458,204.519 229.5,208C 218.99,209.556 208.99,208.056 199.5,203.5C 199.5,203.167 199.5,202.833 199.5,202.5C 202.003,201.235 204.337,201.568 206.5,203.5C 208.042,204.301 209.708,204.634 211.5,204.5C 224.353,206.223 237.02,205.223 249.5,201.5C 253.032,201.69 256.365,201.023 259.5,199.5C 266.355,198.104 273.022,196.104 279.5,193.5C 282.38,193.06 285.046,192.06 287.5,190.5C 290.054,189.394 292.721,188.561 295.5,188C 283.967,180.467 271.301,177.301 257.5,178.5 Z"/></g>
<g><path style="opacity:1" fill="#969a26" d="M 296.5,195.5 C 298.806,197.139 300.806,199.139 302.5,201.5C 298.079,203.102 293.412,204.102 288.5,204.5C 286.748,202.754 285.415,200.754 284.5,198.5C 288.397,197.09 292.397,196.09 296.5,195.5 Z"/></g>
<g><path style="opacity:1" fill="#f26e15" d="M 153.5,177.5 C 152.022,177.238 150.689,177.571 149.5,178.5C 142.539,183.989 135.539,189.489 128.5,195C 121.783,200.371 116.617,206.871 113,214.5C 112.11,227.056 113.443,239.39 117,251.5C 117.837,253.844 119.171,255.844 121,257.5C 122.538,252.898 124.538,252.565 127,256.5C 128,255.5 129,254.5 130,253.5C 130.417,254.756 131.25,255.423 132.5,255.5C 131.85,257.435 131.517,259.435 131.5,261.5C 129.77,260.024 128.437,260.358 127.5,262.5C 129.288,263.283 130.288,264.616 130.5,266.5C 129.833,266.5 129.167,266.5 128.5,266.5C 128.265,265.903 127.765,265.57 127,265.5C 124.654,265.99 122.487,266.657 120.5,267.5C 115.833,267.5 111.167,267.5 106.5,267.5C 108.682,262.598 109.682,257.431 109.5,252C 108.49,238.843 108.323,225.676 109,212.5C 110.667,209.833 112.333,207.167 114,204.5C 124.004,193.822 135.17,184.655 147.5,177C 140.293,175.763 133.46,176.596 127,179.5C 125.586,178.587 124.086,178.587 122.5,179.5C 124.958,177.287 127.958,176.121 131.5,176C 137.5,175.333 143.5,175.333 149.5,176C 151.058,176.21 152.391,176.71 153.5,177.5 Z"/></g>
<g><path style="opacity:1" fill="#788818" d="M 196.5,203.5 C 199.739,206.48 200.072,209.814 197.5,213.5C 194.706,214.585 194.039,216.418 195.5,219C 193.866,219.494 192.199,219.66 190.5,219.5C 190.567,218.041 190.234,216.708 189.5,215.5C 189.351,214.448 189.517,213.448 190,212.5C 191.487,211.845 192.653,210.845 193.5,209.5C 192.691,207.929 192.357,206.262 192.5,204.5C 193.833,204.167 195.167,203.833 196.5,203.5 Z"/></g>
<g><path style="opacity:1" fill="#faa4a3" d="M 284.5,198.5 C 285.415,200.754 286.748,202.754 288.5,204.5C 284.974,206.072 281.307,207.572 277.5,209C 276.29,210.039 275.29,211.206 274.5,212.5C 274.047,213.458 273.381,214.292 272.5,215C 264.827,216.207 265.161,217.041 273.5,217.5C 273.737,218.791 273.404,219.791 272.5,220.5C 269.609,219.597 266.609,219.264 263.5,219.5C 261.685,215.182 258.518,212.515 254,211.5C 244.337,213.75 235.503,217.75 227.5,223.5C 226.957,223.44 226.624,223.107 226.5,222.5C 231.187,218.145 235.854,213.812 240.5,209.5C 255.626,207.385 270.293,203.719 284.5,198.5 Z"/></g>
<g><path style="opacity:1" fill="#eb9290" d="M 196.5,203.5 C 197.209,202.596 198.209,202.263 199.5,202.5C 199.5,202.833 199.5,203.167 199.5,203.5C 199.369,204.376 199.702,205.043 200.5,205.5C 202.885,206.661 205.219,207.661 207.5,208.5C 205.866,209.207 204.532,210.373 203.5,212C 201.655,213.128 199.655,213.628 197.5,213.5C 200.072,209.814 199.739,206.48 196.5,203.5 Z"/></g>
<g><path style="opacity:1" fill="#eb7f7e" d="M 180.5,198.5 C 185.658,199.484 185.658,200.317 180.5,201C 181.737,201.232 182.737,201.732 183.5,202.5C 182.314,203.961 182.314,205.295 183.5,206.5C 183.735,207.097 184.235,207.43 185,207.5C 187.346,206.122 189.846,205.122 192.5,204.5C 192.357,206.262 192.691,207.929 193.5,209.5C 192.653,210.845 191.487,211.845 190,212.5C 189.517,213.448 189.351,214.448 189.5,215.5C 187.91,215.628 186.577,216.295 185.5,217.5C 187.21,218.887 188.877,220.221 190.5,221.5C 188.693,222.836 187.193,224.503 186,226.5C 183.552,221.248 180.386,216.581 176.5,212.5C 176.5,211.833 176.167,211.5 175.5,211.5C 174.658,207.983 175.325,204.649 177.5,201.5C 178.272,200.306 179.272,199.306 180.5,198.5 Z"/></g>
<g><path style="opacity:1" fill="#fc8b88" d="M 214.5,209.5 C 223.112,210.705 231.779,210.705 240.5,209.5C 235.854,213.812 231.187,218.145 226.5,222.5C 226.624,223.107 226.957,223.44 227.5,223.5C 228.448,226.14 229.448,228.807 230.5,231.5C 225.314,233.676 219.981,235.676 214.5,237.5C 210.9,235.08 207.4,232.414 204,229.5C 204.206,226.394 205.039,223.394 206.5,220.5C 211.835,218.848 214.501,215.181 214.5,209.5 Z"/></g>
<g><path style="opacity:1" fill="#b39a51" d="M 308.5,209.5 C 309.11,210.391 309.443,211.391 309.5,212.5C 309.062,213.506 308.396,213.506 307.5,212.5C 307.263,211.209 307.596,210.209 308.5,209.5 Z"/></g>
<g><path style="opacity:1" fill="#dd9bbc" d="M 296.5,190.5 C 296.897,189.475 297.563,189.308 298.5,190C 307.645,197.128 313.645,206.295 316.5,217.5C 315.599,219.727 313.933,220.727 311.5,220.5C 311.435,217.572 310.768,214.905 309.5,212.5C 309.443,211.391 309.11,210.391 308.5,209.5C 306.853,206.527 304.853,203.86 302.5,201.5C 300.806,199.139 298.806,197.139 296.5,195.5C 297.72,193.716 297.72,192.05 296.5,190.5 Z"/></g>
<g><path style="opacity:1" fill="#eb8f8e" d="M 302.5,201.5 C 304.853,203.86 306.853,206.527 308.5,209.5C 307.596,210.209 307.263,211.209 307.5,212.5C 306.281,214.301 304.448,215.301 302,215.5C 301.5,215.167 301,214.833 300.5,214.5C 302.17,211.3 303.003,207.967 303,204.5C 301.515,208.811 300.015,213.145 298.5,217.5C 295.646,217.924 292.979,218.924 290.5,220.5C 289.833,220.167 289.167,219.833 288.5,219.5C 287.209,221.097 285.709,222.43 284,223.5C 282.56,222.852 281.06,222.519 279.5,222.5C 280.355,221.469 281.022,220.303 281.5,219C 279.571,217.306 278.571,215.139 278.5,212.5C 277.167,212.5 275.833,212.5 274.5,212.5C 275.29,211.206 276.29,210.039 277.5,209C 281.307,207.572 284.974,206.072 288.5,204.5C 293.412,204.102 298.079,203.102 302.5,201.5 Z"/></g>
<g><path style="opacity:1" fill="#7d891f" d="M 175.5,211.5 C 176.167,211.5 176.5,211.833 176.5,212.5C 176.635,214.554 175.968,216.221 174.5,217.5C 172.409,217.682 170.409,217.348 168.5,216.5C 167.615,222.442 164.281,224.609 158.5,223C 157.044,222.577 156.544,221.744 157,220.5C 159.405,219.726 161.905,219.226 164.5,219C 166.155,217.556 166.822,215.722 166.5,213.5C 169.752,213.71 172.752,213.044 175.5,211.5 Z"/></g>
<g><path style="opacity:1" fill="#e46f10" d="M 351.5,211.5 C 353.5,211.5 355.5,211.5 357.5,211.5C 359.674,211.75 361.341,212.75 362.5,214.5C 360.184,213.84 357.851,213.173 355.5,212.5C 354.833,212.833 354.167,213.167 353.5,213.5C 359.875,213.874 362.541,217.207 361.5,223.5C 356.257,224.22 352.091,226.886 349,231.5C 348.633,225.849 346.8,220.849 343.5,216.5C 345.629,214.05 348.296,212.383 351.5,211.5 Z"/></g>
<g><path style="opacity:1" fill="#fbb361" d="M 337.5,214.5 C 338.959,214.433 340.292,214.766 341.5,215.5C 342.412,217.595 343.579,219.595 345,221.5C 345.749,222.635 345.583,223.635 344.5,224.5C 343.102,222.203 341.436,220.037 339.5,218C 336.986,216.748 334.32,216.248 331.5,216.5C 333.102,214.926 335.102,214.259 337.5,214.5 Z"/></g>
<g><path style="opacity:1" fill="#f8af65" d="M 362.5,214.5 C 363.833,215.167 364.833,216.167 365.5,217.5C 364.532,219.607 364.198,221.941 364.5,224.5C 363.391,224.443 362.391,224.11 361.5,223.5C 362.541,217.207 359.875,213.874 353.5,213.5C 354.167,213.167 354.833,212.833 355.5,212.5C 357.851,213.173 360.184,213.84 362.5,214.5 Z"/></g>
<g><path style="opacity:1" fill="#e2333e" d="M 207.5,208.5 C 209.717,209.369 212.05,209.702 214.5,209.5C 214.501,215.181 211.835,218.848 206.5,220.5C 202.142,220.919 198.142,222.252 194.5,224.5C 194.167,223.5 193.5,222.833 192.5,222.5C 192.158,221.662 191.492,221.328 190.5,221.5C 188.877,220.221 187.21,218.887 185.5,217.5C 186.577,216.295 187.91,215.628 189.5,215.5C 190.234,216.708 190.567,218.041 190.5,219.5C 192.199,219.66 193.866,219.494 195.5,219C 194.039,216.418 194.706,214.585 197.5,213.5C 199.655,213.628 201.655,213.128 203.5,212C 204.532,210.373 205.866,209.207 207.5,208.5 Z"/></g>
<g><path style="opacity:1" fill="#ed9491" d="M 172.5,200.5 C 174.042,201.301 175.708,201.634 177.5,201.5C 175.325,204.649 174.658,207.983 175.5,211.5C 172.752,213.044 169.752,213.71 166.5,213.5C 166.822,215.722 166.155,217.556 164.5,219C 161.905,219.226 159.405,219.726 157,220.5C 156.544,221.744 157.044,222.577 158.5,223C 164.281,224.609 167.615,222.442 168.5,216.5C 170.409,217.348 172.409,217.682 174.5,217.5C 175.097,217.735 175.43,218.235 175.5,219C 173.621,220.709 171.954,222.542 170.5,224.5C 170.565,224.062 170.399,223.728 170,223.5C 167.895,226.107 167.062,229.107 167.5,232.5C 168.5,232.5 169.5,232.5 170.5,232.5C 167.657,233.275 164.991,233.275 162.5,232.5C 161.984,230.8 160.984,229.467 159.5,228.5C 158.437,230.435 157.103,232.101 155.5,233.5C 156.807,234.865 156.807,236.198 155.5,237.5C 152.963,237.209 150.296,237.042 147.5,237C 149.813,236.338 152.146,235.838 154.5,235.5C 154.5,234.5 154.5,233.5 154.5,232.5C 151.786,232.75 149.119,232.917 146.5,233C 147.672,232.581 148.672,231.915 149.5,231C 147.559,230.257 145.726,230.424 144,231.5C 143.568,230.4 144.068,229.733 145.5,229.5C 147.5,229 149.5,228.5 151.5,228C 148.957,226.618 146.957,224.785 145.5,222.5C 149.83,217.337 154.664,212.67 160,208.5C 160.483,207.552 160.649,206.552 160.5,205.5C 160.369,204.761 160.536,204.094 161,203.5C 161.691,206.266 163.191,206.933 165.5,205.5C 166.869,207.124 168.536,207.624 170.5,207C 171.925,205.286 171.592,203.953 169.5,203C 171.119,202.764 172.119,201.931 172.5,200.5 Z"/></g>
<g><path style="opacity:1" fill="#c05a7e" d="M 263.5,219.5 C 266.609,219.264 269.609,219.597 272.5,220.5C 272.5,220.833 272.5,221.167 272.5,221.5C 268.434,221.307 264.434,221.64 260.5,222.5C 260.5,221.833 260.5,221.167 260.5,220.5C 261.791,220.737 262.791,220.404 263.5,219.5 Z"/></g>
<g><path style="opacity:1" fill="#7c881c" d="M 274.5,212.5 C 275.833,212.5 277.167,212.5 278.5,212.5C 278.571,215.139 279.571,217.306 281.5,219C 281.022,220.303 280.355,221.469 279.5,222.5C 279.5,223.167 279.5,223.833 279.5,224.5C 279.5,225.167 279.167,225.5 278.5,225.5C 277.167,225.5 275.833,225.5 274.5,225.5C 274.5,226.5 274.5,227.5 274.5,228.5C 273.167,228.5 271.833,228.5 270.5,228.5C 270.517,226.435 270.85,224.435 271.5,222.5C 272.167,222.5 272.5,222.167 272.5,221.5C 272.5,221.167 272.5,220.833 272.5,220.5C 273.404,219.791 273.737,218.791 273.5,217.5C 265.161,217.041 264.827,216.207 272.5,215C 273.381,214.292 274.047,213.458 274.5,212.5 Z"/></g>
<g><path style="opacity:1" fill="#e47010" d="M 365.5,217.5 C 366.185,219.414 366.685,221.414 367,223.5C 370.078,221.069 373.578,220.069 377.5,220.5C 381.363,221.694 384.363,224.027 386.5,227.5C 386.752,230.32 386.252,232.986 385,235.5C 383.644,236.38 382.144,236.714 380.5,236.5C 378.393,235.532 376.059,235.198 373.5,235.5C 373.768,233.901 373.434,232.568 372.5,231.5C 371.864,229.205 370.531,227.539 368.5,226.5C 367.486,225.326 366.153,224.66 364.5,224.5C 364.198,221.941 364.532,219.607 365.5,217.5 Z"/></g>
<g><path style="opacity:1" fill="#7a861a" d="M 260.5,220.5 C 260.5,221.167 260.5,221.833 260.5,222.5C 258.449,224.594 256.116,224.927 253.5,223.5C 252.478,223.855 251.811,224.522 251.5,225.5C 250.209,225.737 249.209,225.404 248.5,224.5C 248.649,223.448 248.483,222.448 248,221.5C 247.221,222.728 246.221,223.728 245,224.5C 238.089,221.989 237.923,219.322 244.5,216.5C 249.221,220.046 254.555,221.38 260.5,220.5 Z"/></g>
<g><path style="opacity:1" fill="#ea7978" d="M 263.5,219.5 C 262.791,220.404 261.791,220.737 260.5,220.5C 254.555,221.38 249.221,220.046 244.5,216.5C 237.923,219.322 238.089,221.989 245,224.5C 246.221,223.728 247.221,222.728 248,221.5C 248.483,222.448 248.649,223.448 248.5,224.5C 243.322,227.922 238.322,231.589 233.5,235.5C 233.912,233.027 232.912,231.694 230.5,231.5C 229.448,228.807 228.448,226.14 227.5,223.5C 235.503,217.75 244.337,213.75 254,211.5C 258.518,212.515 261.685,215.182 263.5,219.5 Z"/></g>
<g><path style="opacity:1" fill="#fc8d8a" d="M 263.5,224.5 C 263.5,226.5 263.5,228.5 263.5,230.5C 261.213,230.724 259.047,231.391 257,232.5C 255.739,232.241 254.739,231.574 254,230.5C 253.316,231.784 253.483,232.951 254.5,234C 250.452,234.304 246.452,234.804 242.5,235.5C 247.728,228.633 254.728,224.967 263.5,224.5 Z"/></g>
<g><path style="opacity:1" fill="#f89730" d="M 341.5,215.5 C 342.167,215.833 342.833,216.167 343.5,216.5C 346.8,220.849 348.633,225.849 349,231.5C 352.091,226.886 356.257,224.22 361.5,223.5C 362.391,224.11 363.391,224.443 364.5,224.5C 366.153,224.66 367.486,225.326 368.5,226.5C 365.792,225.551 363.126,225.551 360.5,226.5C 367.051,226.715 370.051,230.048 369.5,236.5C 370.5,236.5 371.5,236.5 372.5,236.5C 372.5,234.833 372.5,233.167 372.5,231.5C 373.434,232.568 373.768,233.901 373.5,235.5C 376.059,235.198 378.393,235.532 380.5,236.5C 378.571,236.231 376.905,236.731 375.5,238C 382.43,238.096 385.763,241.596 385.5,248.5C 385.833,248.833 386.167,249.167 386.5,249.5C 387.521,248.099 388.521,246.765 389.5,245.5C 389.6,248.108 388.933,250.442 387.5,252.5C 385.932,253.473 384.265,253.64 382.5,253C 380.623,250.749 379.123,248.249 378,245.5C 376.333,244.167 374.667,244.167 373,245.5C 373.24,249.008 373.073,252.341 372.5,255.5C 370.336,255.279 368.67,254.279 367.5,252.5C 365.5,251.167 363.833,249.5 362.5,247.5C 366.269,243.45 366.436,239.117 363,234.5C 359.828,231.612 357.661,232.278 356.5,236.5C 358.491,239.493 360.491,242.493 362.5,245.5C 361.326,246.514 360.66,247.847 360.5,249.5C 358.18,247.774 355.513,247.107 352.5,247.5C 350.481,244.071 348.148,243.738 345.5,246.5C 344.833,248.167 344.167,249.833 343.5,251.5C 344.654,244.815 341.821,241.148 335,240.5C 333.624,240.684 332.791,241.351 332.5,242.5C 331.065,241.087 330.065,239.42 329.5,237.5C 329.737,236.209 329.404,235.209 328.5,234.5C 325.021,229.341 324.687,224.008 327.5,218.5C 328.833,217.833 330.167,217.167 331.5,216.5C 334.32,216.248 336.986,216.748 339.5,218C 341.436,220.037 343.102,222.203 344.5,224.5C 345.583,223.635 345.749,222.635 345,221.5C 343.579,219.595 342.412,217.595 341.5,215.5 Z"/></g>
<g><path style="opacity:1" fill="#fcb166" d="M 334.5,225.5 C 339.757,224.521 344.09,226.021 347.5,230C 343.259,228.062 338.593,227.062 333.5,227C 334.056,226.617 334.389,226.117 334.5,225.5 Z"/></g>
<g><path style="opacity:1" fill="#7c891e" d="M 170.5,224.5 C 169.167,227.167 169.167,229.833 170.5,232.5C 169.5,232.5 168.5,232.5 167.5,232.5C 167.062,229.107 167.895,226.107 170,223.5C 170.399,223.728 170.565,224.062 170.5,224.5 Z"/></g>
<g><path style="opacity:1" fill="#faa5a4" d="M 307.5,212.5 C 308.396,213.506 309.062,213.506 309.5,212.5C 310.768,214.905 311.435,217.572 311.5,220.5C 313.933,220.727 315.599,219.727 316.5,217.5C 318.539,216.089 319.539,214.089 319.5,211.5C 320.873,211.343 322.207,211.51 323.5,212C 324.733,214.314 326.067,216.481 327.5,218.5C 324.687,224.008 325.021,229.341 328.5,234.5C 328.911,237.276 328.078,237.943 326,236.5C 321.645,238.261 317.478,240.428 313.5,243C 315.117,244.092 316.117,245.592 316.5,247.5C 316.5,248.167 316.167,248.5 315.5,248.5C 315.037,246.139 313.704,244.472 311.5,243.5C 309.477,244.54 307.477,245.54 305.5,246.5C 303.5,246 301.5,245.5 299.5,245C 300.167,244.667 300.833,244.333 301.5,244C 299.059,238.013 295.559,237.18 291,241.5C 290.833,241.167 290.667,240.833 290.5,240.5C 292.641,238.796 294.641,237.13 296.5,235.5C 291.414,233.367 287.747,234.701 285.5,239.5C 284.069,240.78 283.402,242.447 283.5,244.5C 283.281,245.675 283.614,246.675 284.5,247.5C 285.739,247.942 286.739,248.609 287.5,249.5C 287.5,249.833 287.5,250.167 287.5,250.5C 286.07,250.421 284.736,250.754 283.5,251.5C 282.289,250.726 282.289,249.893 283.5,249C 280.506,249.358 278.673,251.192 278,254.5C 276.333,255.5 274.667,256.5 273,257.5C 272.386,259.313 272.719,259.647 274,258.5C 274.717,259.044 275.217,259.711 275.5,260.5C 272.917,261.985 271.584,264.318 271.5,267.5C 269.265,267.205 267.265,267.539 265.5,268.5C 259.479,269.003 253.479,269.669 247.5,270.5C 246.914,264.142 246.08,257.809 245,251.5C 243.59,250.213 242.09,249.046 240.5,248C 241.449,247.383 242.282,247.549 243,248.5C 244.168,245.107 243.334,242.441 240.5,240.5C 240.846,239.304 241.346,239.304 242,240.5C 242.494,238.866 242.66,237.199 242.5,235.5C 246.452,234.804 250.452,234.304 254.5,234C 253.483,232.951 253.316,231.784 254,230.5C 254.739,231.574 255.739,232.241 257,232.5C 259.047,231.391 261.213,230.724 263.5,230.5C 263.5,228.5 263.5,226.5 263.5,224.5C 265.905,223.232 268.572,222.565 271.5,222.5C 270.85,224.435 270.517,226.435 270.5,228.5C 271.833,228.5 273.167,228.5 274.5,228.5C 274.5,227.5 274.5,226.5 274.5,225.5C 275.833,225.5 277.167,225.5 278.5,225.5C 278.082,226.222 277.416,226.722 276.5,227C 282.622,226.473 285.289,229.307 284.5,235.5C 287.049,234.491 289.715,233.658 292.5,233C 290.606,230.476 288.273,229.81 285.5,231C 289.135,229.584 289.468,227.584 286.5,225C 284.19,224.503 281.857,224.337 279.5,224.5C 279.5,223.833 279.5,223.167 279.5,222.5C 281.06,222.519 282.56,222.852 284,223.5C 285.709,222.43 287.209,221.097 288.5,219.5C 289.167,219.833 289.833,220.167 290.5,220.5C 292.979,218.924 295.646,217.924 298.5,217.5C 300.015,213.145 301.515,208.811 303,204.5C 303.003,207.967 302.17,211.3 300.5,214.5C 301,214.833 301.5,215.167 302,215.5C 304.448,215.301 306.281,214.301 307.5,212.5 Z"/></g>
<g><path style="opacity:1" fill="#7e8a20" d="M 296.5,235.5 C 295.77,234.288 294.77,233.288 293.5,232.5C 297.878,232.13 301.878,230.796 305.5,228.5C 308.905,231.136 308.238,233.303 303.5,235C 301.19,235.497 298.857,235.663 296.5,235.5 Z"/></g>
<g><path style="opacity:1" fill="#f2817f" d="M 279.5,224.5 C 281.857,224.337 284.19,224.503 286.5,225C 289.468,227.584 289.135,229.584 285.5,231C 288.273,229.81 290.606,230.476 292.5,233C 289.715,233.658 287.049,234.491 284.5,235.5C 285.289,229.307 282.622,226.473 276.5,227C 277.416,226.722 278.082,226.222 278.5,225.5C 279.167,225.5 279.5,225.167 279.5,224.5 Z"/></g>
<g><path style="opacity:1" fill="#fcb469" d="M 368.5,226.5 C 370.531,227.539 371.864,229.205 372.5,231.5C 372.5,233.167 372.5,234.833 372.5,236.5C 371.5,236.5 370.5,236.5 369.5,236.5C 370.051,230.048 367.051,226.715 360.5,226.5C 363.126,225.551 365.792,225.551 368.5,226.5 Z"/></g>
<g><path style="opacity:1" fill="#828823" d="M 162.5,232.5 C 162.306,236.248 160.639,238.915 157.5,240.5C 157.218,239.222 156.551,238.222 155.5,237.5C 156.807,236.198 156.807,234.865 155.5,233.5C 157.103,232.101 158.437,230.435 159.5,228.5C 160.984,229.467 161.984,230.8 162.5,232.5 Z"/></g>
<g><path style="opacity:1" fill="#df95b3" d="M 272.5,221.5 C 272.5,222.167 272.167,222.5 271.5,222.5C 268.572,222.565 265.905,223.232 263.5,224.5C 254.728,224.967 247.728,228.633 242.5,235.5C 239.661,237.42 236.661,239.087 233.5,240.5C 238.916,234.747 244.916,229.747 251.5,225.5C 251.811,224.522 252.478,223.855 253.5,223.5C 256.116,224.927 258.449,224.594 260.5,222.5C 264.434,221.64 268.434,221.307 272.5,221.5 Z"/></g>
<g><path style="opacity:1" fill="#d2550b" d="M 337.5,233.5 C 345.218,234.387 345.385,236.054 338,238.5C 334.927,237.252 334.76,235.585 337.5,233.5 Z"/></g>
<g><path style="opacity:1" fill="#e87211" d="M 362.5,247.5 C 362.5,246.833 362.5,246.167 362.5,245.5C 360.491,242.493 358.491,239.493 356.5,236.5C 357.661,232.278 359.828,231.612 363,234.5C 366.436,239.117 366.269,243.45 362.5,247.5 Z"/></g>
<g><path style="opacity:1" fill="#e13542" d="M 230.5,231.5 C 232.912,231.694 233.912,233.027 233.5,235.5C 230.709,237.735 227.709,239.735 224.5,241.5C 223.735,241.077 222.902,240.743 222,240.5C 219.766,241.701 217.599,243.035 215.5,244.5C 214.893,244.376 214.56,244.043 214.5,243.5C 214.649,242.448 214.483,241.448 214,240.5C 212.603,242.07 211.103,243.404 209.5,244.5C 209.167,244.5 208.833,244.5 208.5,244.5C 207.588,243.262 207.421,241.928 208,240.5C 210.221,239.594 212.388,238.594 214.5,237.5C 219.981,235.676 225.314,233.676 230.5,231.5 Z"/></g>
<g><path style="opacity:1" fill="#c2597b" d="M 248.5,224.5 C 249.209,225.404 250.209,225.737 251.5,225.5C 244.916,229.747 238.916,234.747 233.5,240.5C 229.034,242.566 224.701,244.9 220.5,247.5C 220.238,246.022 220.571,244.689 221.5,243.5C 222.739,243.058 223.739,242.391 224.5,241.5C 227.709,239.735 230.709,237.735 233.5,235.5C 238.322,231.589 243.322,227.922 248.5,224.5 Z"/></g>
<g><path style="opacity:1" fill="#fbaf60" d="M 386.5,227.5 C 387.94,228.946 388.607,230.779 388.5,233C 388.083,235.498 387.749,237.998 387.5,240.5C 390.713,240.19 393.713,240.523 396.5,241.5C 393.203,241.329 392.869,241.995 395.5,243.5C 393.977,245.283 391.977,245.949 389.5,245.5C 388.521,246.765 387.521,248.099 386.5,249.5C 386.167,249.167 385.833,248.833 385.5,248.5C 385.763,241.596 382.43,238.096 375.5,238C 376.905,236.731 378.571,236.231 380.5,236.5C 382.144,236.714 383.644,236.38 385,235.5C 386.252,232.986 386.752,230.32 386.5,227.5 Z"/></g>
<g><path style="opacity:1" fill="#8d8d33" d="M 252.5,239.5 C 255.473,239.965 256.64,241.632 256,244.5C 254.59,243.213 253.09,242.046 251.5,241C 252.056,240.617 252.389,240.117 252.5,239.5 Z"/></g>
<g><path style="opacity:1" fill="#fba7a6" d="M 176.5,212.5 C 180.386,216.581 183.552,221.248 186,226.5C 187.193,224.503 188.693,222.836 190.5,221.5C 191.492,221.328 192.158,221.662 192.5,222.5C 188.872,223.743 187.538,226.077 188.5,229.5C 190.456,228.452 192.456,227.952 194.5,228C 192.349,229.405 190.682,231.239 189.5,233.5C 190.414,235.664 191.581,237.664 193,239.5C 194.036,237.433 195.536,236.266 197.5,236C 195.129,241.693 191.962,246.86 188,251.5C 187.667,250.833 187.333,250.167 187,249.5C 185.846,250.743 184.512,251.743 183,252.5C 182.4,255.095 182.9,257.429 184.5,259.5C 182.855,258.521 181.521,257.188 180.5,255.5C 177.446,259.414 174.112,263.08 170.5,266.5C 169.504,266.586 168.671,266.252 168,265.5C 167.074,263.308 165.907,261.308 164.5,259.5C 164.167,258.5 163.5,257.833 162.5,257.5C 162.068,256.29 161.401,255.29 160.5,254.5C 158.705,251.536 156.705,248.702 154.5,246C 155.14,243.88 156.14,242.046 157.5,240.5C 160.639,238.915 162.306,236.248 162.5,232.5C 164.991,233.275 167.657,233.275 170.5,232.5C 169.167,229.833 169.167,227.167 170.5,224.5C 171.954,222.542 173.621,220.709 175.5,219C 175.43,218.235 175.097,217.735 174.5,217.5C 175.968,216.221 176.635,214.554 176.5,212.5 Z"/></g>
<g><path style="opacity:1" fill="#fb8c85" d="M 328.5,234.5 C 329.404,235.209 329.737,236.209 329.5,237.5C 329.631,238.239 329.464,238.906 329,239.5C 325.791,240.679 323.291,242.679 321.5,245.5C 319.833,246.167 318.167,246.833 316.5,247.5C 316.117,245.592 315.117,244.092 313.5,243C 317.478,240.428 321.645,238.261 326,236.5C 328.078,237.943 328.911,237.276 328.5,234.5 Z"/></g>
<g><path style="opacity:1" fill="#fcb468" d="M 343.5,251.5 C 343.361,253.337 342.694,253.67 341.5,252.5C 342.564,245.347 339.564,242.013 332.5,242.5C 332.791,241.351 333.624,240.684 335,240.5C 341.821,241.148 344.654,244.815 343.5,251.5 Z"/></g>
<g><path style="opacity:1" fill="#fb8986" d="M 296.5,235.5 C 294.641,237.13 292.641,238.796 290.5,240.5C 290.667,240.833 290.833,241.167 291,241.5C 295.559,237.18 299.059,238.013 301.5,244C 300.833,244.333 300.167,244.667 299.5,245C 301.5,245.5 303.5,246 305.5,246.5C 307.477,245.54 309.477,244.54 311.5,243.5C 313.704,244.472 315.037,246.139 315.5,248.5C 314.128,249.512 312.795,250.512 311.5,251.5C 302.304,248.567 293.637,244.567 285.5,239.5C 287.747,234.701 291.414,233.367 296.5,235.5 Z"/></g>
<g><path style="opacity:1" fill="#fc8c8a" d="M 224.5,241.5 C 223.739,242.391 222.739,243.058 221.5,243.5C 220.571,244.689 220.238,246.022 220.5,247.5C 220.369,248.376 220.702,249.043 221.5,249.5C 222.417,248.873 223.417,248.539 224.5,248.5C 224.662,250.527 224.495,252.527 224,254.5C 220.5,251.98 217.166,252.313 214,255.5C 213.505,253.527 213.338,251.527 213.5,249.5C 213.205,247.265 213.539,245.265 214.5,243.5C 214.56,244.043 214.893,244.376 215.5,244.5C 217.599,243.035 219.766,241.701 222,240.5C 222.902,240.743 223.735,241.077 224.5,241.5 Z"/></g>
<g><path style="opacity:1" fill="#d4630a" d="M 352.5,247.5 C 350.492,249.268 348.326,250.934 346,252.5C 345.505,250.527 345.338,248.527 345.5,246.5C 348.148,243.738 350.481,244.071 352.5,247.5 Z"/></g>
<g><path style="opacity:1" fill="#e095b4" d="M 233.5,240.5 C 233.5,240.833 233.5,241.167 233.5,241.5C 231.809,242.864 230.142,244.197 228.5,245.5C 227.5,246.167 226.5,246.833 225.5,247.5C 224.833,247.5 224.5,247.833 224.5,248.5C 223.417,248.539 222.417,248.873 221.5,249.5C 220.702,249.043 220.369,248.376 220.5,247.5C 224.701,244.9 229.034,242.566 233.5,240.5 Z"/></g>
<g><path style="opacity:1" fill="#808a21" d="M 245.5,239.5 C 247,241.184 248.667,242.851 250.5,244.5C 251.246,245.736 251.579,247.07 251.5,248.5C 244.796,248.681 242.796,245.681 245.5,239.5 Z"/></g>
<g><path style="opacity:1" fill="#c15d7f" d="M 285.5,239.5 C 293.637,244.567 302.304,248.567 311.5,251.5C 314.084,253.472 317.084,254.472 320.5,254.5C 320.5,255.5 320.5,256.5 320.5,257.5C 316.106,257.156 311.772,256.49 307.5,255.5C 307.53,254.503 307.03,253.836 306,253.5C 298.203,251.183 290.703,248.183 283.5,244.5C 283.402,242.447 284.069,240.78 285.5,239.5 Z"/></g>
<g><path style="opacity:1" fill="#e87211" d="M 398.5,242.5 C 404.447,245.737 406.613,250.737 405,257.5C 404.634,259.452 403.801,261.118 402.5,262.5C 403.03,260.284 402.363,258.118 400.5,256C 398.095,255.852 395.761,256.352 393.5,257.5C 392.558,257.392 391.725,257.059 391,256.5C 390.202,254.741 390.369,253.074 391.5,251.5C 394.366,250.818 396.866,249.484 399,247.5C 399.384,245.803 399.218,244.137 398.5,242.5 Z"/></g>
<g><path style="opacity:1" fill="#c05a7d" d="M 208.5,244.5 C 208.833,244.5 209.167,244.5 209.5,244.5C 207.414,261.797 208.747,278.797 213.5,295.5C 210.296,291.078 208.129,286.078 207,280.5C 206.497,272.462 205.664,264.462 204.5,256.5C 196.4,262.616 188.066,268.283 179.5,273.5C 177.973,273.573 176.973,272.906 176.5,271.5C 186.363,265.975 195.696,259.641 204.5,252.5C 205.782,251.042 205.782,249.708 204.5,248.5C 206.139,247.527 207.473,246.194 208.5,244.5 Z"/></g>
<g><path style="opacity:1" fill="#e03642" d="M 233.5,241.5 C 235.302,246.057 236.636,250.891 237.5,256C 237.472,257.07 237.139,257.903 236.5,258.5C 233.833,254.167 231.167,249.833 228.5,245.5C 230.142,244.197 231.809,242.864 233.5,241.5 Z"/></g>
<g><path style="opacity:1" fill="#cc4f50" d="M 206.5,220.5 C 205.039,223.394 204.206,226.394 204,229.5C 207.4,232.414 210.9,235.08 214.5,237.5C 212.388,238.594 210.221,239.594 208,240.5C 207.421,241.928 207.588,243.262 208.5,244.5C 207.473,246.194 206.139,247.527 204.5,248.5C 195.379,256.889 185.713,264.555 175.5,271.5C 174.317,270.496 172.984,269.662 171.5,269C 166.924,268.25 162.591,267.083 158.5,265.5C 160.188,263.146 162.188,261.146 164.5,259.5C 165.907,261.308 167.074,263.308 168,265.5C 168.671,266.252 169.504,266.586 170.5,266.5C 176.426,266.429 181.093,264.096 184.5,259.5C 190.676,254.831 197.01,250.331 203.5,246C 200.914,238.66 197.914,231.494 194.5,224.5C 198.142,222.252 202.142,220.919 206.5,220.5 Z"/></g>
<g><path style="opacity:1" fill="#f38e28" d="M 329.5,237.5 C 330.065,239.42 331.065,241.087 332.5,242.5C 339.564,242.013 342.564,245.347 341.5,252.5C 342.694,253.67 343.361,253.337 343.5,251.5C 344.167,249.833 344.833,248.167 345.5,246.5C 345.338,248.527 345.505,250.527 346,252.5C 348.326,250.934 350.492,249.268 352.5,247.5C 355.513,247.107 358.18,247.774 360.5,249.5C 365.826,253.385 367.992,258.719 367,265.5C 368.789,261.3 368.956,256.967 367.5,252.5C 368.67,254.279 370.336,255.279 372.5,255.5C 370.777,259.211 369.777,263.211 369.5,267.5C 366.721,267.279 364.054,267.612 361.5,268.5C 360.826,265.474 359.993,262.474 359,259.5C 356.707,256.866 354.54,256.866 352.5,259.5C 351.167,258.5 349.833,257.5 348.5,256.5C 344.518,254.767 340.518,254.433 336.5,255.5C 336.313,253.436 335.813,251.436 335,249.5C 332.378,246.761 330.212,247.095 328.5,250.5C 329.44,253.132 329.607,255.798 329,258.5C 327.052,259.109 325.218,259.776 323.5,260.5C 322.728,259.306 321.728,258.306 320.5,257.5C 320.5,256.5 320.5,255.5 320.5,254.5C 320.368,251.43 320.701,248.43 321.5,245.5C 323.291,242.679 325.791,240.679 329,239.5C 329.464,238.906 329.631,238.239 329.5,237.5 Z"/></g>
<g><path style="opacity:1" fill="#df97b3" d="M 283.5,244.5 C 290.703,248.183 298.203,251.183 306,253.5C 307.03,253.836 307.53,254.503 307.5,255.5C 306.041,255.433 304.708,255.766 303.5,256.5C 302.657,254.827 301.324,253.66 299.5,253C 295.453,251.928 291.453,250.761 287.5,249.5C 286.739,248.609 285.739,247.942 284.5,247.5C 283.614,246.675 283.281,245.675 283.5,244.5 Z"/></g>
<g><path style="opacity:1" fill="#928f19" d="M 321.5,245.5 C 320.701,248.43 320.368,251.43 320.5,254.5C 317.084,254.472 314.084,253.472 311.5,251.5C 312.795,250.512 314.128,249.512 315.5,248.5C 316.167,248.5 316.5,248.167 316.5,247.5C 318.167,246.833 319.833,246.167 321.5,245.5 Z"/></g>
<g><path style="opacity:1" fill="#e97312" d="M 336.5,255.5 C 333.214,257.451 330.214,259.785 327.5,262.5C 325.938,262.267 324.605,261.6 323.5,260.5C 325.218,259.776 327.052,259.109 329,258.5C 329.607,255.798 329.44,253.132 328.5,250.5C 330.212,247.095 332.378,246.761 335,249.5C 335.813,251.436 336.313,253.436 336.5,255.5 Z"/></g>
<g><path style="opacity:1" fill="#fb8885" d="M 192.5,222.5 C 193.5,222.833 194.167,223.5 194.5,224.5C 197.914,231.494 200.914,238.66 203.5,246C 197.01,250.331 190.676,254.831 184.5,259.5C 182.9,257.429 182.4,255.095 183,252.5C 184.512,251.743 185.846,250.743 187,249.5C 187.333,250.167 187.667,250.833 188,251.5C 191.962,246.86 195.129,241.693 197.5,236C 195.536,236.266 194.036,237.433 193,239.5C 191.581,237.664 190.414,235.664 189.5,233.5C 190.682,231.239 192.349,229.405 194.5,228C 192.456,227.952 190.456,228.452 188.5,229.5C 187.538,226.077 188.872,223.743 192.5,222.5 Z"/></g>
<g><path style="opacity:1" fill="#eca8c7" d="M 204.5,248.5 C 205.782,249.708 205.782,251.042 204.5,252.5C 195.696,259.641 186.363,265.975 176.5,271.5C 176.167,271.5 175.833,271.5 175.5,271.5C 185.713,264.555 195.379,256.889 204.5,248.5 Z"/></g>
<g><path style="opacity:1" fill="#cb5556" d="M 287.5,250.5 C 287.5,250.167 287.5,249.833 287.5,249.5C 291.453,250.761 295.453,251.928 299.5,253C 301.324,253.66 302.657,254.827 303.5,256.5C 303.5,256.833 303.5,257.167 303.5,257.5C 298.162,255.164 292.829,252.831 287.5,250.5 Z"/></g>
<g><path style="opacity:1" fill="#fcc0bf" d="M 287.5,250.5 C 292.829,252.831 298.162,255.164 303.5,257.5C 307.405,259.793 311.405,262.126 315.5,264.5C 316.626,265.808 316.626,267.142 315.5,268.5C 314.5,269.833 313.5,271.167 312.5,272.5C 311.599,273.29 310.932,274.29 310.5,275.5C 309.167,276.5 307.833,277.5 306.5,278.5C 297.208,273.265 286.875,267.265 275.5,260.5C 275.217,259.711 274.717,259.044 274,258.5C 272.719,259.647 272.386,259.313 273,257.5C 274.667,256.5 276.333,255.5 278,254.5C 278.673,251.192 280.506,249.358 283.5,249C 282.289,249.893 282.289,250.726 283.5,251.5C 284.736,250.754 286.07,250.421 287.5,250.5 Z"/></g>
<g><path style="opacity:1" fill="#919219" d="M 307.5,255.5 C 311.772,256.49 316.106,257.156 320.5,257.5C 321.728,258.306 322.728,259.306 323.5,260.5C 324.605,261.6 325.938,262.267 327.5,262.5C 327.768,264.099 327.434,265.432 326.5,266.5C 322.633,266.242 318.966,266.908 315.5,268.5C 316.626,267.142 316.626,265.808 315.5,264.5C 311.405,262.126 307.405,259.793 303.5,257.5C 303.5,257.167 303.5,256.833 303.5,256.5C 304.708,255.766 306.041,255.433 307.5,255.5 Z"/></g>
<g><path style="opacity:1" fill="#fdb66d" d="M 362.5,245.5 C 362.5,246.167 362.5,246.833 362.5,247.5C 363.833,249.5 365.5,251.167 367.5,252.5C 368.956,256.967 368.789,261.3 367,265.5C 367.992,258.719 365.826,253.385 360.5,249.5C 360.66,247.847 361.326,246.514 362.5,245.5 Z"/></g>
<g><path style="opacity:1" fill="#e56e0f" d="M 387.5,252.5 C 387.586,253.496 387.252,254.329 386.5,255C 389.4,257.397 391.733,260.23 393.5,263.5C 392.873,264.417 392.539,265.417 392.5,266.5C 391.163,272.504 387.496,276.171 381.5,277.5C 379.018,272.352 375.018,269.019 369.5,267.5C 369.777,263.211 370.777,259.211 372.5,255.5C 373.073,252.341 373.24,249.008 373,245.5C 374.667,244.167 376.333,244.167 378,245.5C 379.123,248.249 380.623,250.749 382.5,253C 384.265,253.64 385.932,253.473 387.5,252.5 Z"/></g>
<g><path style="opacity:1" fill="#f38d27" d="M 396.5,241.5 C 397.492,241.328 398.158,241.662 398.5,242.5C 399.218,244.137 399.384,245.803 399,247.5C 396.866,249.484 394.366,250.818 391.5,251.5C 390.369,253.074 390.202,254.741 391,256.5C 391.725,257.059 392.558,257.392 393.5,257.5C 395.761,256.352 398.095,255.852 400.5,256C 402.363,258.118 403.03,260.284 402.5,262.5C 400.97,264.346 398.97,265.346 396.5,265.5C 395.041,265.433 393.708,265.766 392.5,266.5C 392.539,265.417 392.873,264.417 393.5,263.5C 391.733,260.23 389.4,257.397 386.5,255C 387.252,254.329 387.586,253.496 387.5,252.5C 388.933,250.442 389.6,248.108 389.5,245.5C 391.977,245.949 393.977,245.283 395.5,243.5C 392.869,241.995 393.203,241.329 396.5,241.5 Z"/></g>
<g><path style="opacity:1" fill="#f88682" d="M 145.5,222.5 C 146.957,224.785 148.957,226.618 151.5,228C 149.5,228.5 147.5,229 145.5,229.5C 144.068,229.733 143.568,230.4 144,231.5C 145.726,230.424 147.559,230.257 149.5,231C 148.672,231.915 147.672,232.581 146.5,233C 149.119,232.917 151.786,232.75 154.5,232.5C 154.5,233.5 154.5,234.5 154.5,235.5C 152.146,235.838 149.813,236.338 147.5,237C 150.296,237.042 152.963,237.209 155.5,237.5C 156.551,238.222 157.218,239.222 157.5,240.5C 156.14,242.046 155.14,243.88 154.5,246C 156.705,248.702 158.705,251.536 160.5,254.5C 150.176,258.418 148.176,264.752 154.5,273.5C 152.901,273.232 151.568,273.566 150.5,274.5C 149.5,276.167 148.167,277.5 146.5,278.5C 145.833,278.833 145.167,279.167 144.5,279.5C 140.194,277.012 135.861,274.512 131.5,272C 129.393,270.736 128.393,268.903 128.5,266.5C 129.167,266.5 129.833,266.5 130.5,266.5C 131.82,268.364 133.487,270.031 135.5,271.5C 137.423,267.608 136.257,265.274 132,264.5C 131.517,263.552 131.351,262.552 131.5,261.5C 131.517,259.435 131.85,257.435 132.5,255.5C 135.544,250.418 138.378,245.085 141,239.5C 141.333,235.5 141.667,231.5 142,227.5C 142.223,225.119 143.39,223.453 145.5,222.5 Z"/></g>
<g><path style="opacity:1" fill="#f98381" d="M 162.5,257.5 C 163.5,257.833 164.167,258.5 164.5,259.5C 162.188,261.146 160.188,263.146 158.5,265.5C 156.727,264.686 156.227,263.352 157,261.5C 158.432,259.561 160.265,258.228 162.5,257.5 Z"/></g>
<g><path style="opacity:1" fill="#fb8c88" d="M 184.5,259.5 C 181.093,264.096 176.426,266.429 170.5,266.5C 174.112,263.08 177.446,259.414 180.5,255.5C 181.521,257.188 182.855,258.521 184.5,259.5 Z"/></g>
<g><path style="opacity:1" fill="#d5640c" d="M 361.5,268.5 C 359.229,270.266 357.063,272.266 355,274.5C 355.709,270.721 355.542,267.054 354.5,263.5C 354.267,261.938 353.6,260.605 352.5,259.5C 354.54,256.866 356.707,256.866 359,259.5C 359.993,262.474 360.826,265.474 361.5,268.5 Z"/></g>
<g><path style="opacity:1" fill="#fb8e8a" d="M 242.5,235.5 C 242.66,237.199 242.494,238.866 242,240.5C 241.346,239.304 240.846,239.304 240.5,240.5C 243.334,242.441 244.168,245.107 243,248.5C 242.282,247.549 241.449,247.383 240.5,248C 242.09,249.046 243.59,250.213 245,251.5C 246.08,257.809 246.914,264.142 247.5,270.5C 245.901,268.396 244.068,266.396 242,264.5C 242.295,269.668 242.128,274.668 241.5,279.5C 240.25,277.068 238.75,274.734 237,272.5C 236.501,267.845 236.334,263.179 236.5,258.5C 237.139,257.903 237.472,257.07 237.5,256C 236.636,250.891 235.302,246.057 233.5,241.5C 233.5,241.167 233.5,240.833 233.5,240.5C 236.661,239.087 239.661,237.42 242.5,235.5 Z"/></g>
<g><path style="opacity:1" fill="#f2c983" d="M 377.5,208.5 C 377.414,209.496 377.748,210.329 378.5,211C 391.053,217.886 400.553,227.72 407,240.5C 411.934,254.38 409.934,267.047 401,278.5C 389.524,289.234 376.357,297.401 361.5,303C 319.155,317.92 275.489,324.42 230.5,322.5C 231.167,321.833 231.833,321.167 232.5,320.5C 237.623,318.721 241.957,315.721 245.5,311.5C 251.037,317.035 257.704,318.869 265.5,317C 269.468,315.962 273.135,314.462 276.5,312.5C 277.167,312.5 277.833,312.5 278.5,312.5C 278.833,312.5 279.167,312.5 279.5,312.5C 283.469,313.343 287.469,314.509 291.5,316C 293.167,316.667 294.833,316.667 296.5,316C 300.564,311.256 302.897,305.756 303.5,299.5C 303.443,298.391 303.11,297.391 302.5,296.5C 305.838,294.832 309.172,293.166 312.5,291.5C 311.553,293.734 310.886,296.068 310.5,298.5C 310.52,299.726 310.853,300.726 311.5,301.5C 315.95,311.629 323.284,314.295 333.5,309.5C 335.479,308.188 337.145,306.521 338.5,304.5C 341.306,303.832 343.972,303.166 346.5,302.5C 348.703,302.396 350.703,301.73 352.5,300.5C 353.5,300.167 354.167,299.5 354.5,298.5C 355.559,296.445 357.225,295.111 359.5,294.5C 371.153,297.513 378.153,293.179 380.5,281.5C 386.112,281.701 390.112,279.368 392.5,274.5C 393.731,271.473 395.064,268.473 396.5,265.5C 398.97,265.346 400.97,264.346 402.5,262.5C 403.801,261.118 404.634,259.452 405,257.5C 406.613,250.737 404.447,245.737 398.5,242.5C 398.158,241.662 397.492,241.328 396.5,241.5C 393.713,240.523 390.713,240.19 387.5,240.5C 387.749,237.998 388.083,235.498 388.5,233C 388.607,230.779 387.94,228.946 386.5,227.5C 384.363,224.027 381.363,221.694 377.5,220.5C 376.209,216.399 376.209,212.399 377.5,208.5 Z"/></g>
<g><path style="opacity:1" fill="#7a8718" d="M 131.5,261.5 C 131.351,262.552 131.517,263.552 132,264.5C 136.257,265.274 137.423,267.608 135.5,271.5C 133.487,270.031 131.82,268.364 130.5,266.5C 130.288,264.616 129.288,263.283 127.5,262.5C 128.437,260.358 129.77,260.024 131.5,261.5 Z"/></g>
<g><path style="opacity:1" fill="#fc9593" d="M 228.5,245.5 C 231.167,249.833 233.833,254.167 236.5,258.5C 235.518,261.962 235.185,265.629 235.5,269.5C 232.679,269.461 230.012,268.795 227.5,267.5C 229.991,266.459 229.991,265.626 227.5,265C 228.167,264.667 228.833,264.333 229.5,264C 227.608,263.027 225.608,262.36 223.5,262C 228.459,261.972 229.293,260.472 226,257.5C 225.502,254.183 225.335,250.85 225.5,247.5C 226.5,246.833 227.5,246.167 228.5,245.5 Z"/></g>
<g><path style="opacity:1" fill="#5b6605" d="M 128.5,266.5 C 128.393,268.903 129.393,270.736 131.5,272C 135.861,274.512 140.194,277.012 144.5,279.5C 143.189,282.135 141.522,284.469 139.5,286.5C 128.412,284.811 122.079,278.478 120.5,267.5C 122.487,266.657 124.654,265.99 127,265.5C 127.765,265.57 128.265,265.903 128.5,266.5 Z"/></g>
<g><path style="opacity:1" fill="#d45454" d="M 247.5,270.5 C 253.479,269.669 259.479,269.003 265.5,268.5C 267.288,268.215 268.955,268.548 270.5,269.5C 274.044,273.207 278.044,276.374 282.5,279C 283.738,279.69 283.738,280.19 282.5,280.5C 273.74,279.348 265.073,277.681 256.5,275.5C 255.584,275.543 254.917,275.876 254.5,276.5C 252.454,278.279 250.287,279.946 248,281.5C 247.309,289.195 247.475,296.861 248.5,304.5C 243.993,306.447 239.327,307.781 234.5,308.5C 233.833,308.5 233.167,308.5 232.5,308.5C 230.716,305.098 229.05,301.598 227.5,298C 225.718,297.878 224.052,298.378 222.5,299.5C 221.094,299.027 220.427,298.027 220.5,296.5C 227.814,291.182 234.814,285.516 241.5,279.5C 242.128,274.668 242.295,269.668 242,264.5C 244.068,266.396 245.901,268.396 247.5,270.5 Z"/></g>
<g><path style="opacity:1" fill="#e7700f" d="M 326.5,266.5 C 327.301,268.042 327.634,269.708 327.5,271.5C 327.862,275.203 329.529,278.203 332.5,280.5C 331.112,284.094 328.445,285.427 324.5,284.5C 327.149,282.441 327.982,279.775 327,276.5C 326.275,275.941 325.442,275.608 324.5,275.5C 322.394,276.43 320.394,277.596 318.5,279C 313.671,279.668 311.671,277.501 312.5,272.5C 313.5,271.167 314.5,269.833 315.5,268.5C 318.966,266.908 322.633,266.242 326.5,266.5 Z"/></g>
<g><path style="opacity:1" fill="#fc9e35" d="M 348.5,256.5 C 352.026,262.092 352.359,267.925 349.5,274C 349.833,274.5 350.167,275 350.5,275.5C 353.23,271.978 354.563,267.978 354.5,263.5C 355.542,267.054 355.709,270.721 355,274.5C 357.063,272.266 359.229,270.266 361.5,268.5C 364.054,267.612 366.721,267.279 369.5,267.5C 375.018,269.019 379.018,272.352 381.5,277.5C 381.47,278.497 381.97,279.164 383,279.5C 386.529,278.459 389.695,276.793 392.5,274.5C 390.112,279.368 386.112,281.701 380.5,281.5C 379.454,283.54 377.787,284.873 375.5,285.5C 372.391,284.226 370.058,282.06 368.5,279C 365.132,277.795 362.798,278.795 361.5,282C 363.51,284.167 364.844,286.667 365.5,289.5C 365.167,290.5 364.833,291.5 364.5,292.5C 362.664,293.028 360.997,293.694 359.5,294.5C 357.225,295.111 355.559,296.445 354.5,298.5C 353.833,297.833 353.167,297.167 352.5,296.5C 357.479,293.374 358.645,289.041 356,283.5C 354.603,281.93 353.103,280.596 351.5,279.5C 352.332,278.671 351.999,277.838 350.5,277C 348.26,276.023 345.927,275.523 343.5,275.5C 343.59,273.304 343.923,271.137 344.5,269C 343.556,264.668 341.056,263.501 337,265.5C 337.469,274.257 334.302,276.257 327.5,271.5C 327.634,269.708 327.301,268.042 326.5,266.5C 327.434,265.432 327.768,264.099 327.5,262.5C 330.214,259.785 333.214,257.451 336.5,255.5C 340.518,254.433 344.518,254.767 348.5,256.5 Z"/></g>
<g><path style="opacity:1" fill="#fdb66b" d="M 348.5,256.5 C 349.833,257.5 351.167,258.5 352.5,259.5C 353.6,260.605 354.267,261.938 354.5,263.5C 354.563,267.978 353.23,271.978 350.5,275.5C 350.167,275 349.833,274.5 349.5,274C 352.359,267.925 352.026,262.092 348.5,256.5 Z"/></g>
<g><path style="opacity:1" fill="#eb363f" d="M 160.5,254.5 C 161.401,255.29 162.068,256.29 162.5,257.5C 160.265,258.228 158.432,259.561 157,261.5C 156.227,263.352 156.727,264.686 158.5,265.5C 162.591,267.083 166.924,268.25 171.5,269C 172.984,269.662 174.317,270.496 175.5,271.5C 175.833,271.5 176.167,271.5 176.5,271.5C 176.973,272.906 177.973,273.573 179.5,273.5C 182.167,276.5 184.833,279.5 187.5,282.5C 189.793,285.906 190.126,289.573 188.5,293.5C 187.596,294.209 187.263,295.209 187.5,296.5C 187.167,296.5 186.833,296.5 186.5,296.5C 185.833,295.833 185.167,295.167 184.5,294.5C 182.728,289.797 180.061,285.63 176.5,282C 169.384,278.682 162.051,275.849 154.5,273.5C 148.176,264.752 150.176,258.418 160.5,254.5 Z"/></g>
<g><path style="opacity:1" fill="#faa6a6" d="M 225.5,247.5 C 225.335,250.85 225.502,254.183 226,257.5C 229.293,260.472 228.459,261.972 223.5,262C 225.608,262.36 227.608,263.027 229.5,264C 228.833,264.333 228.167,264.667 227.5,265C 229.991,265.626 229.991,266.459 227.5,267.5C 230.012,268.795 232.679,269.461 235.5,269.5C 235.185,265.629 235.518,261.962 236.5,258.5C 236.334,263.179 236.501,267.845 237,272.5C 238.75,274.734 240.25,277.068 241.5,279.5C 234.814,285.516 227.814,291.182 220.5,296.5C 215.826,291.134 213.326,284.8 213,277.5C 212.176,267.991 212.342,258.657 213.5,249.5C 213.338,251.527 213.505,253.527 214,255.5C 217.166,252.313 220.5,251.98 224,254.5C 224.495,252.527 224.662,250.527 224.5,248.5C 224.5,247.833 224.833,247.5 225.5,247.5 Z"/></g>
<g><path style="opacity:1" fill="#f8ac61" d="M 396.5,265.5 C 395.064,268.473 393.731,271.473 392.5,274.5C 389.695,276.793 386.529,278.459 383,279.5C 381.97,279.164 381.47,278.497 381.5,277.5C 387.496,276.171 391.163,272.504 392.5,266.5C 393.708,265.766 395.041,265.433 396.5,265.5 Z"/></g>
<g><path style="opacity:1" fill="#faa4a2" d="M 150.5,274.5 C 151.568,273.566 152.901,273.232 154.5,273.5C 162.051,275.849 169.384,278.682 176.5,282C 180.061,285.63 182.728,289.797 184.5,294.5C 184.389,295.117 184.056,295.617 183.5,296C 171.431,298.469 159.264,300.303 147,301.5C 143.814,300.879 140.648,300.212 137.5,299.5C 136.893,299.624 136.56,299.957 136.5,300.5C 135.539,298.735 135.205,296.735 135.5,294.5C 136.833,291.833 138.167,289.167 139.5,286.5C 141.522,284.469 143.189,282.135 144.5,279.5C 145.167,279.167 145.833,278.833 146.5,278.5C 146.351,279.552 146.517,280.552 147,281.5C 148.855,279.645 150.688,277.812 152.5,276C 152.164,274.97 151.497,274.47 150.5,274.5 Z"/></g>
<g><path style="opacity:1" fill="#d06209" d="M 312.5,272.5 C 311.671,277.501 313.671,279.668 318.5,279C 320.394,277.596 322.394,276.43 324.5,275.5C 325.442,275.608 326.275,275.941 327,276.5C 327.982,279.775 327.149,282.441 324.5,284.5C 323.209,284.263 322.209,284.596 321.5,285.5C 319.597,285.796 317.93,286.463 316.5,287.5C 315.957,287.44 315.624,287.107 315.5,286.5C 316.325,285.614 317.325,285.281 318.5,285.5C 318.785,283.712 318.452,282.045 317.5,280.5C 315.382,281.946 313.049,282.613 310.5,282.5C 310.5,280.167 310.5,277.833 310.5,275.5C 310.932,274.29 311.599,273.29 312.5,272.5 Z"/></g>
<g><path style="opacity:1" fill="#fb8e8a" d="M 275.5,260.5 C 286.875,267.265 297.208,273.265 306.5,278.5C 306.267,280.062 305.6,281.395 304.5,282.5C 302.566,283.11 300.899,284.11 299.5,285.5C 293.961,283.197 288.294,281.531 282.5,280.5C 283.738,280.19 283.738,279.69 282.5,279C 278.044,276.374 274.044,273.207 270.5,269.5C 268.955,268.548 267.288,268.215 265.5,268.5C 267.265,267.539 269.265,267.205 271.5,267.5C 271.584,264.318 272.917,261.985 275.5,260.5 Z"/></g>
<g><path style="opacity:1" fill="#f38c25" d="M 351.5,279.5 C 350.425,278.438 349.425,278.438 348.5,279.5C 350.483,280.982 352.316,282.649 354,284.5C 353.844,288.506 353.344,292.506 352.5,296.5C 353.167,297.167 353.833,297.833 354.5,298.5C 354.167,299.5 353.5,300.167 352.5,300.5C 350.482,299.953 348.649,298.953 347,297.5C 346.667,293.833 346.333,290.167 346,286.5C 343.959,285.577 341.792,285.244 339.5,285.5C 339.893,288.93 339.227,292.096 337.5,295C 333.362,295.369 330.695,293.536 329.5,289.5C 329.5,288.167 329.5,286.833 329.5,285.5C 326.833,285.5 324.167,285.5 321.5,285.5C 322.209,284.596 323.209,284.263 324.5,284.5C 328.445,285.427 331.112,284.094 332.5,280.5C 329.529,278.203 327.862,275.203 327.5,271.5C 334.302,276.257 337.469,274.257 337,265.5C 341.056,263.501 343.556,264.668 344.5,269C 343.923,271.137 343.59,273.304 343.5,275.5C 345.927,275.523 348.26,276.023 350.5,277C 351.999,277.838 352.332,278.671 351.5,279.5 Z"/></g>
<g><path style="opacity:1" fill="#838824" d="M 150.5,274.5 C 151.497,274.47 152.164,274.97 152.5,276C 150.688,277.812 148.855,279.645 147,281.5C 146.517,280.552 146.351,279.552 146.5,278.5C 148.167,277.5 149.5,276.167 150.5,274.5 Z"/></g>
<g><path style="opacity:1" fill="#faa2a1" d="M 213.5,295.5 C 214.446,298.409 216.113,300.742 218.5,302.5C 214.524,303.331 210.524,303.497 206.5,303C 205.29,301.961 204.29,300.794 203.5,299.5C 200.093,293.691 196.426,288.025 192.5,282.5C 191.524,281.185 190.524,279.852 189.5,278.5C 188.828,279.949 188.161,281.282 187.5,282.5C 184.833,279.5 182.167,276.5 179.5,273.5C 188.066,268.283 196.4,262.616 204.5,256.5C 205.664,264.462 206.497,272.462 207,280.5C 208.129,286.078 210.296,291.078 213.5,295.5 Z"/></g>
<g><path style="opacity:1" fill="#64690b" d="M 310.5,275.5 C 310.5,277.833 310.5,280.167 310.5,282.5C 308.691,283.291 306.691,283.291 304.5,282.5C 305.6,281.395 306.267,280.062 306.5,278.5C 307.833,277.5 309.167,276.5 310.5,275.5 Z"/></g>
<g><path style="opacity:0.999" fill="#f2cb85" d="M 35.5,273.5 C 36.1667,274.833 36.8333,276.167 37.5,277.5C 41.6607,288.486 47.9941,297.986 56.5,306C 78.7461,324.293 103.746,337.626 131.5,346C 163.615,355.702 196.282,361.535 229.5,363.5C 187.309,363.074 145.642,358.241 104.5,349C 80.6932,343.926 59.0266,334.259 39.5,320C 32.1242,313.63 27.7909,305.63 26.5,296C 27.2067,292.8 28.04,289.633 29,286.5C 31.4622,282.236 33.6289,277.903 35.5,273.5 Z"/></g>
<g><path style="opacity:1" fill="#708310" d="M 316.5,287.5 C 316.5,288.5 316.5,289.5 316.5,290.5C 315.041,290.433 313.708,290.766 312.5,291.5C 309.172,293.166 305.838,294.832 302.5,296.5C 301.554,293.328 300.221,290.328 298.5,287.5C 298.863,286.817 299.196,286.15 299.5,285.5C 300.899,284.11 302.566,283.11 304.5,282.5C 306.691,283.291 308.691,283.291 310.5,282.5C 313.049,282.613 315.382,281.946 317.5,280.5C 318.452,282.045 318.785,283.712 318.5,285.5C 317.325,285.281 316.325,285.614 315.5,286.5C 315.624,287.107 315.957,287.44 316.5,287.5 Z"/></g>
<g><path style="opacity:1" fill="#f0c782" d="M 103.5,267.5 C 104.5,267.5 105.5,267.5 106.5,267.5C 111.167,267.5 115.833,267.5 120.5,267.5C 122.079,278.478 128.412,284.811 139.5,286.5C 138.167,289.167 136.833,291.833 135.5,294.5C 125.521,287.855 117.188,279.521 110.5,269.5C 108.031,268.832 105.698,268.165 103.5,267.5 Z"/></g>
<g><path style="opacity:1" fill="#dc99b9" d="M 214.5,243.5 C 213.539,245.265 213.205,247.265 213.5,249.5C 212.342,258.657 212.176,267.991 213,277.5C 213.326,284.8 215.826,291.134 220.5,296.5C 220.427,298.027 221.094,299.027 222.5,299.5C 224.5,303.5 227.5,306.5 231.5,308.5C 231.5,308.833 231.5,309.167 231.5,309.5C 226.759,307.962 222.425,305.629 218.5,302.5C 216.113,300.742 214.446,298.409 213.5,295.5C 208.747,278.797 207.414,261.797 209.5,244.5C 211.103,243.404 212.603,242.07 214,240.5C 214.483,241.448 214.649,242.448 214.5,243.5 Z"/></g>
<g><path style="opacity:1" fill="#f3831c" d="M 380.5,281.5 C 378.153,293.179 371.153,297.513 359.5,294.5C 360.997,293.694 362.664,293.028 364.5,292.5C 364.833,291.5 365.167,290.5 365.5,289.5C 364.844,286.667 363.51,284.167 361.5,282C 362.798,278.795 365.132,277.795 368.5,279C 370.058,282.06 372.391,284.226 375.5,285.5C 377.787,284.873 379.454,283.54 380.5,281.5 Z"/></g>
<g><path style="opacity:1" fill="#fefdf9" d="M 466.5,286.5 C 463.305,292.541 459.472,298.208 455,303.5C 433.795,322.861 409.295,336.694 381.5,345C 331.942,360.028 281.275,366.195 229.5,363.5C 196.282,361.535 163.615,355.702 131.5,346C 103.746,337.626 78.7461,324.293 56.5,306C 47.9941,297.986 41.6607,288.486 37.5,277.5C 37.81,276.262 38.31,276.262 39,277.5C 41.0858,282.763 44.0858,287.43 48,291.5C 66.3725,309.017 87.5392,322.017 111.5,330.5C 196.6,359.317 282.6,362.15 369.5,339C 398.017,331.275 424.35,318.942 448.5,302C 454.387,296.616 459.72,290.783 464.5,284.5C 466.214,283.391 466.881,284.058 466.5,286.5 Z"/></g>
<g><path style="opacity:1" fill="#d85757" d="M 192.5,282.5 C 196.426,288.025 200.093,293.691 203.5,299.5C 199.699,297.601 195.699,296.268 191.5,295.5C 191.182,290.968 191.515,286.634 192.5,282.5 Z"/></g>
<g><path style="opacity:1" fill="#fa8d88" d="M 254.5,276.5 C 254.855,279.067 255.521,281.567 256.5,284C 256.167,284.5 255.833,285 255.5,285.5C 253.368,283.883 251.035,283.383 248.5,284C 251.405,285.286 254.405,286.286 257.5,287C 258.337,288.011 258.67,289.178 258.5,290.5C 258.167,291.833 257.833,293.167 257.5,294.5C 256.624,294.631 255.957,294.298 255.5,293.5C 256.681,291.802 256.681,290.135 255.5,288.5C 252.697,290.969 250.697,293.969 249.5,297.5C 249.389,298.117 249.056,298.617 248.5,299C 251.581,299.991 252.248,301.824 250.5,304.5C 249.833,304.5 249.167,304.5 248.5,304.5C 247.475,296.861 247.309,289.195 248,281.5C 250.287,279.946 252.454,278.279 254.5,276.5 Z"/></g>
<g><path style="opacity:1" fill="#fda038" d="M 321.5,285.5 C 324.167,285.5 326.833,285.5 329.5,285.5C 329.5,286.833 329.5,288.167 329.5,289.5C 330.885,299.365 336.552,303.698 346.5,302.5C 343.972,303.166 341.306,303.832 338.5,304.5C 337.145,306.521 335.479,308.188 333.5,309.5C 332.391,308.71 331.058,308.21 329.5,308C 328.874,307.25 328.374,306.416 328,305.5C 328.033,301.907 327.867,298.407 327.5,295C 325.5,294.333 323.5,294.333 321.5,295C 321.047,298.227 320.047,301.227 318.5,304C 315.196,305.042 313.029,303.875 312,300.5C 311.601,300.728 311.435,301.062 311.5,301.5C 310.853,300.726 310.52,299.726 310.5,298.5C 310.886,296.068 311.553,293.734 312.5,291.5C 313.708,290.766 315.041,290.433 316.5,290.5C 316.5,289.5 316.5,288.5 316.5,287.5C 317.93,286.463 319.597,285.796 321.5,285.5 Z"/></g>
<g><path style="opacity:1" fill="#fdb66b" d="M 351.5,279.5 C 353.103,280.596 354.603,281.93 356,283.5C 358.645,289.041 357.479,293.374 352.5,296.5C 353.344,292.506 353.844,288.506 354,284.5C 352.316,282.649 350.483,280.982 348.5,279.5C 349.425,278.438 350.425,278.438 351.5,279.5 Z"/></g>
<g><path style="opacity:1" fill="#e87110" d="M 352.5,300.5 C 350.703,301.73 348.703,302.396 346.5,302.5C 336.552,303.698 330.885,299.365 329.5,289.5C 330.695,293.536 333.362,295.369 337.5,295C 339.227,292.096 339.893,288.93 339.5,285.5C 341.792,285.244 343.959,285.577 346,286.5C 346.333,290.167 346.667,293.833 347,297.5C 348.649,298.953 350.482,299.953 352.5,300.5 Z"/></g>
<g><path style="opacity:1" fill="#8c8c2f" d="M 146.5,285.5 C 148.896,287.951 151.896,288.951 155.5,288.5C 155.5,289.5 155.5,290.5 155.5,291.5C 150.291,292.604 147.291,290.604 146.5,285.5 Z"/></g>
<g><path style="opacity:1" fill="#f98583" d="M 192.5,282.5 C 191.515,286.634 191.182,290.968 191.5,295.5C 190.5,294.833 189.5,294.167 188.5,293.5C 190.126,289.573 189.793,285.906 187.5,282.5C 188.161,281.282 188.828,279.949 189.5,278.5C 190.524,279.852 191.524,281.185 192.5,282.5 Z"/></g>
<g><path style="opacity:1" fill="#fcc1c0" d="M 282.5,280.5 C 288.294,281.531 293.961,283.197 299.5,285.5C 299.196,286.15 298.863,286.817 298.5,287.5C 300.221,290.328 301.554,293.328 302.5,296.5C 303.11,297.391 303.443,298.391 303.5,299.5C 301.833,299.5 300.167,299.5 298.5,299.5C 297.997,304.5 297.664,304.167 297.5,298.5C 295.473,298.338 293.473,298.505 291.5,299C 292.61,301.737 292.777,304.571 292,307.5C 291.39,304.173 290.89,300.839 290.5,297.5C 289.07,297.579 287.736,297.246 286.5,296.5C 286.167,297 285.833,297.5 285.5,298C 286.851,303.155 287.684,308.321 288,313.5C 285.649,308.457 284.316,303.124 284,297.5C 282.103,295.984 279.936,295.317 277.5,295.5C 278.275,301.153 278.942,306.82 279.5,312.5C 279.167,312.5 278.833,312.5 278.5,312.5C 277.451,307.715 276.451,302.881 275.5,298C 275.735,297.127 276.069,296.293 276.5,295.5C 273.988,294.205 271.321,293.539 268.5,293.5C 267.955,297.172 267.622,296.838 267.5,292.5C 264.37,292.3 261.37,291.634 258.5,290.5C 258.67,289.178 258.337,288.011 257.5,287C 254.405,286.286 251.405,285.286 248.5,284C 251.035,283.383 253.368,283.883 255.5,285.5C 255.833,285 256.167,284.5 256.5,284C 255.521,281.567 254.855,279.067 254.5,276.5C 254.917,275.876 255.584,275.543 256.5,275.5C 265.073,277.681 273.74,279.348 282.5,280.5 Z"/></g>
<g><path style="opacity:1" fill="#f9a7a5" d="M 258.5,290.5 C 261.37,291.634 264.37,292.3 267.5,292.5C 267.622,296.838 267.955,297.172 268.5,293.5C 271.321,293.539 273.988,294.205 276.5,295.5C 276.069,296.293 275.735,297.127 275.5,298C 276.451,302.881 277.451,307.715 278.5,312.5C 277.833,312.5 277.167,312.5 276.5,312.5C 267.833,309.833 259.167,307.167 250.5,304.5C 252.248,301.824 251.581,299.991 248.5,299C 249.056,298.617 249.389,298.117 249.5,297.5C 252.167,297.5 254.833,297.5 257.5,297.5C 257.5,296.5 257.5,295.5 257.5,294.5C 257.833,293.167 258.167,291.833 258.5,290.5 Z"/></g>
<g><path style="opacity:1" fill="#7c891b" d="M 257.5,294.5 C 257.5,295.5 257.5,296.5 257.5,297.5C 254.833,297.5 252.167,297.5 249.5,297.5C 250.697,293.969 252.697,290.969 255.5,288.5C 256.681,290.135 256.681,291.802 255.5,293.5C 255.957,294.298 256.624,294.631 257.5,294.5 Z"/></g>
<g><path style="opacity:1" fill="#f3831c" d="M 333.5,309.5 C 323.284,314.295 315.95,311.629 311.5,301.5C 311.435,301.062 311.601,300.728 312,300.5C 313.029,303.875 315.196,305.042 318.5,304C 320.047,301.227 321.047,298.227 321.5,295C 323.5,294.333 325.5,294.333 327.5,295C 327.867,298.407 328.033,301.907 328,305.5C 328.374,306.416 328.874,307.25 329.5,308C 331.058,308.21 332.391,308.71 333.5,309.5 Z"/></g>
<g><path style="opacity:1" fill="#fba5a3" d="M 303.5,299.5 C 302.897,305.756 300.564,311.256 296.5,316C 294.833,316.667 293.167,316.667 291.5,316C 287.469,314.509 283.469,313.343 279.5,312.5C 278.942,306.82 278.275,301.153 277.5,295.5C 279.936,295.317 282.103,295.984 284,297.5C 284.316,303.124 285.649,308.457 288,313.5C 287.684,308.321 286.851,303.155 285.5,298C 285.833,297.5 286.167,297 286.5,296.5C 287.736,297.246 289.07,297.579 290.5,297.5C 290.89,300.839 291.39,304.173 292,307.5C 292.777,304.571 292.61,301.737 291.5,299C 293.473,298.505 295.473,298.338 297.5,298.5C 297.664,304.167 297.997,304.5 298.5,299.5C 300.167,299.5 301.833,299.5 303.5,299.5 Z"/></g>
<g><path style="opacity:1" fill="#bb5f7b" d="M 188.5,293.5 C 189.5,294.167 190.5,294.833 191.5,295.5C 196.476,299.987 201.809,303.987 207.5,307.5C 200.539,304.353 193.873,300.687 187.5,296.5C 187.263,295.209 187.596,294.209 188.5,293.5 Z"/></g>
<g><path style="opacity:1" fill="#5e650c" d="M 232.5,308.5 C 232.167,308.5 231.833,308.5 231.5,308.5C 227.5,306.5 224.5,303.5 222.5,299.5C 224.052,298.378 225.718,297.878 227.5,298C 229.05,301.598 230.716,305.098 232.5,308.5 Z"/></g>
<g><path style="opacity:1" fill="#5b6608" d="M 191.5,295.5 C 195.699,296.268 199.699,297.601 203.5,299.5C 204.29,300.794 205.29,301.961 206.5,303C 210.524,303.497 214.524,303.331 218.5,302.5C 222.425,305.629 226.759,307.962 231.5,309.5C 231.649,310.552 231.483,311.552 231,312.5C 229.644,311.62 228.144,311.286 226.5,311.5C 226.585,313.929 227.585,315.929 229.5,317.5C 228.477,319.895 229.477,320.895 232.5,320.5C 231.833,321.167 231.167,321.833 230.5,322.5C 226.371,323.574 222.204,324.574 218,325.5C 213.944,325.069 211.111,323.069 209.5,319.5C 209.5,317.167 209.5,314.833 209.5,312.5C 213.807,313.498 218.14,313.998 222.5,314C 217.479,311.821 212.479,309.654 207.5,307.5C 201.809,303.987 196.476,299.987 191.5,295.5 Z"/></g>
<g><path style="opacity:1" fill="#656c12" d="M 190.5,302.5 C 195.833,305.167 201.167,307.833 206.5,310.5C 198.146,312.997 189.479,313.997 180.5,313.5C 178.585,313.784 176.919,313.451 175.5,312.5C 179.715,312.075 183.715,310.908 187.5,309C 189.451,307.266 190.451,305.099 190.5,302.5 Z"/></g>
<g><path style="opacity:1" fill="#d596af" d="M 186.5,296.5 C 186.833,296.5 187.167,296.5 187.5,296.5C 193.873,300.687 200.539,304.353 207.5,307.5C 212.479,309.654 217.479,311.821 222.5,314C 218.14,313.998 213.807,313.498 209.5,312.5C 208.71,311.599 207.71,310.932 206.5,310.5C 201.167,307.833 195.833,305.167 190.5,302.5C 188.536,300.873 187.203,298.873 186.5,296.5 Z"/></g>
<g><path style="opacity:1" fill="#5d6807" d="M 248.5,304.5 C 249.167,304.5 249.833,304.5 250.5,304.5C 259.167,307.167 267.833,309.833 276.5,312.5C 273.135,314.462 269.468,315.962 265.5,317C 257.704,318.869 251.037,317.035 245.5,311.5C 241.957,315.721 237.623,318.721 232.5,320.5C 236.896,317.18 237.563,313.18 234.5,308.5C 239.327,307.781 243.993,306.447 248.5,304.5 Z"/></g>
<g><path style="opacity:1" fill="#fc8c88" d="M 184.5,294.5 C 185.167,295.167 185.833,295.833 186.5,296.5C 187.203,298.873 188.536,300.873 190.5,302.5C 190.451,305.099 189.451,307.266 187.5,309C 183.715,310.908 179.715,312.075 175.5,312.5C 164.215,314.161 152.882,314.995 141.5,315C 138.738,310.549 137.072,305.715 136.5,300.5C 136.56,299.957 136.893,299.624 137.5,299.5C 140.648,300.212 143.814,300.879 147,301.5C 159.264,300.303 171.431,298.469 183.5,296C 184.056,295.617 184.389,295.117 184.5,294.5 Z"/></g>
<g><path style="opacity:1" fill="#71870f" d="M 231.5,308.5 C 231.833,308.5 232.167,308.5 232.5,308.5C 233.167,308.5 233.833,308.5 234.5,308.5C 237.563,313.18 236.896,317.18 232.5,320.5C 229.477,320.895 228.477,319.895 229.5,317.5C 227.585,315.929 226.585,313.929 226.5,311.5C 228.144,311.286 229.644,311.62 231,312.5C 231.483,311.552 231.649,310.552 231.5,309.5C 231.5,309.167 231.5,308.833 231.5,308.5 Z"/></g>
<g><path style="opacity:1" fill="#efc983" d="M 206.5,310.5 C 207.71,310.932 208.71,311.599 209.5,312.5C 209.5,314.833 209.5,317.167 209.5,319.5C 199.522,318.453 189.855,316.453 180.5,313.5C 189.479,313.997 198.146,312.997 206.5,310.5 Z"/></g>
</svg>
