<?xml version="1.0" encoding="UTF-8"?>
<!DOCTYPE svg PUBLIC "-//W3C//DTD SVG 1.1//EN" "http://www.w3.org/Graphics/SVG/1.1/DTD/svg11.dtd">
<svg xmlns="http://www.w3.org/2000/svg" version="1.1" width="500px" height="500px" style="shape-rendering:geometricPrecision; text-rendering:geometricPrecision; image-rendering:optimizeQuality; fill-rule:evenodd; clip-rule:evenodd" xmlns:xlink="http://www.w3.org/1999/xlink">
<g><path style="opacity:0.965" fill="#f1e1db" d="M 331.5,34.5 C 333.054,35.9142 334.388,37.5808 335.5,39.5C 334.316,41.0461 333.316,42.7127 332.5,44.5C 331.248,42.9991 330.248,41.3325 329.5,39.5C 330.95,38.1502 331.617,36.4835 331.5,34.5 Z"/></g>
<g><path style="opacity:0.993" fill="#f0e0dc" d="M 198.5,44.5 C 199.1,49.0964 201.433,52.5964 205.5,55C 201.184,57.1256 199.017,60.6256 199,65.5C 197.837,62.8754 196.67,60.2087 195.5,57.5C 194.335,56.4164 193.002,55.5831 191.5,55C 195.706,52.7575 198.039,49.2575 198.5,44.5 Z"/></g>
<g><path style="opacity:0.996" fill="#eddedd" d="M 361.5,59.5 C 362.726,62.6715 364.393,65.6715 366.5,68.5C 364.349,70.7723 362.849,73.439 362,76.5C 361.339,72.9926 359.505,70.326 356.5,68.5C 359.471,66.2026 361.138,63.2026 361.5,59.5 Z"/></g>
<g><path style="opacity:1" fill="#ecdedd" d="M 233.5,67.5 C 234.319,71.2824 236.319,74.4491 239.5,77C 236.135,79.1981 234.135,82.3648 233.5,86.5C 232.515,84.228 231.681,81.8947 231,79.5C 230.097,78.2986 228.931,77.4652 227.5,77C 230.649,74.5312 232.649,71.3646 233.5,67.5 Z"/></g>
<g><path style="opacity:0.96" fill="#f1e2db" d="M 323.5,72.5 C 325.054,73.9142 326.388,75.5808 327.5,77.5C 326.333,79.1667 325.167,80.8333 324,82.5C 323.167,80.8333 322.333,79.1667 321.5,77.5C 322.456,75.9246 323.123,74.258 323.5,72.5 Z"/></g>
<g><path style="opacity:0.974" fill="#f0e0dc" d="M 154.5,77.5 C 155.958,79.9323 157.125,82.5989 158,85.5C 159.586,86.376 161.086,87.376 162.5,88.5C 160.807,89.2283 159.307,90.2283 158,91.5C 157,94.1667 156,96.8333 155,99.5C 153.803,96.9109 152.803,94.2442 152,91.5C 150.414,90.624 148.914,89.624 147.5,88.5C 152.088,86.3353 154.421,82.6687 154.5,77.5 Z"/></g>
<g><path style="opacity:0.998" fill="#115f7e" d="M 375.5,125.5 C 374.5,126.833 373.5,128.167 372.5,129.5C 372.816,126.022 372.316,122.688 371,119.5C 365.986,113.411 359.819,108.911 352.5,106C 322.762,96.3297 292.429,93.9964 261.5,99C 245.529,100.57 232.029,107.07 221,118.5C 219.663,122.026 219.163,125.692 219.5,129.5C 218.5,128.167 217.5,126.833 216.5,125.5C 215.979,121.281 217.146,117.614 220,114.5C 223.292,111.127 226.792,108.127 230.5,105.5C 236.324,103.342 241.99,101.009 247.5,98.5C 283.177,89.5837 318.51,90.7504 353.5,102C 361.102,104.94 367.602,109.44 373,115.5C 375.006,118.536 375.84,121.869 375.5,125.5 Z"/></g>
<g><path style="opacity:1" fill="#003e5f" d="M 372.5,129.5 C 371.99,132.674 370.323,135.008 367.5,136.5C 367.965,130.598 365.632,126.098 360.5,123C 339.098,112.619 316.431,107.785 292.5,108.5C 270.837,107.603 250.837,112.769 232.5,124C 227.914,127.058 225.247,131.225 224.5,136.5C 222.1,134.704 220.433,132.37 219.5,129.5C 219.163,125.692 219.663,122.026 221,118.5C 232.029,107.07 245.529,100.57 261.5,99C 292.429,93.9964 322.762,96.3297 352.5,106C 359.819,108.911 365.986,113.411 371,119.5C 372.316,122.688 372.816,126.022 372.5,129.5 Z"/></g>
<g><path style="opacity:0.991" fill="#ebdcde" d="M 137.5,98.5 C 138.59,100.761 140.256,102.594 142.5,104C 140.185,105.109 138.685,106.943 138,109.5C 136.859,107.391 135.359,105.558 133.5,104C 135.439,102.568 136.772,100.735 137.5,98.5 Z"/></g>
<g><path style="opacity:1" fill="#c6f1e4" d="M 230.5,105.5 C 226.792,108.127 223.292,111.127 220,114.5C 217.146,117.614 215.979,121.281 216.5,125.5C 215.833,125.5 215.5,125.833 215.5,126.5C 191.147,128.336 168.147,134.669 146.5,145.5C 140.833,145.5 135.167,145.5 129.5,145.5C 118.346,144.505 107.012,144.172 95.5,144.5C 98.977,143.677 102.644,143.177 106.5,143C 144.17,118.744 185.503,106.244 230.5,105.5 Z"/></g>
<g><path style="opacity:1" fill="#09324c" d="M 367.5,136.5 C 365.858,137.803 364.191,139.136 362.5,140.5C 362.737,139.209 362.404,138.209 361.5,137.5C 357.76,131.944 352.76,127.777 346.5,125C 338.404,121.784 330.071,119.45 321.5,118C 301.354,115.433 281.354,116.099 261.5,120C 257.532,121.038 253.865,122.538 250.5,124.5C 241.868,127.307 234.868,132.307 229.5,139.5C 227.589,138.925 225.922,137.925 224.5,136.5C 225.247,131.225 227.914,127.058 232.5,124C 250.837,112.769 270.837,107.603 292.5,108.5C 316.431,107.785 339.098,112.619 360.5,123C 365.632,126.098 367.965,130.598 367.5,136.5 Z"/></g>
<g><path style="opacity:1" fill="#f1622d" d="M 361.5,137.5 C 361.5,138.167 361.167,138.5 360.5,138.5C 360.217,137.711 359.717,137.044 359,136.5C 357.611,138.227 355.944,139.561 354,140.5C 352.743,140.15 352.409,139.483 353,138.5C 354.41,137.213 355.91,136.046 357.5,135C 337.916,122.811 316.583,117.811 293.5,120C 300.279,121.288 306.945,122.955 313.5,125C 317.634,127.203 318.301,130.036 315.5,133.5C 316.051,131.245 315.385,129.078 313.5,127C 301.08,122.173 288.747,122.34 276.5,127.5C 275.429,129.325 276.096,130.492 278.5,131C 286.208,131.706 293.875,131.372 301.5,130C 297.804,128.031 293.804,127.031 289.5,127C 294.327,126.116 298.994,126.616 303.5,128.5C 304.386,129.325 304.719,130.325 304.5,131.5C 296.016,134.083 287.349,134.916 278.5,134C 271.551,131.57 270.884,128.237 276.5,124C 278.788,123.178 281.122,122.511 283.5,122C 271.555,122.425 260.055,124.925 249,129.5C 248.601,129.272 248.435,128.938 248.5,128.5C 248.733,126.938 249.4,125.605 250.5,124.5C 253.865,122.538 257.532,121.038 261.5,120C 281.354,116.099 301.354,115.433 321.5,118C 330.071,119.45 338.404,121.784 346.5,125C 352.76,127.777 357.76,131.944 361.5,137.5 Z"/></g>
<g><path style="opacity:1" fill="#e55519" d="M 360.5,138.5 C 351.744,144.311 342.077,147.978 331.5,149.5C 315.938,149.029 300.438,149.696 285,151.5C 281.793,151.259 278.626,150.759 275.5,150C 266.969,147.96 258.635,145.293 250.5,142C 246.132,137.926 245.466,133.426 248.5,128.5C 248.435,128.938 248.601,129.272 249,129.5C 260.055,124.925 271.555,122.425 283.5,122C 281.122,122.511 278.788,123.178 276.5,124C 270.884,128.237 271.551,131.57 278.5,134C 287.349,134.916 296.016,134.083 304.5,131.5C 304.719,130.325 304.386,129.325 303.5,128.5C 298.994,126.616 294.327,126.116 289.5,127C 293.804,127.031 297.804,128.031 301.5,130C 293.875,131.372 286.208,131.706 278.5,131C 276.096,130.492 275.429,129.325 276.5,127.5C 288.747,122.34 301.08,122.173 313.5,127C 315.385,129.078 316.051,131.245 315.5,133.5C 318.301,130.036 317.634,127.203 313.5,125C 306.945,122.955 300.279,121.288 293.5,120C 316.583,117.811 337.916,122.811 357.5,135C 355.91,136.046 354.41,137.213 353,138.5C 352.409,139.483 352.743,140.15 354,140.5C 355.944,139.561 357.611,138.227 359,136.5C 359.717,137.044 360.217,137.711 360.5,138.5 Z"/></g>
<g><path style="opacity:1" fill="#95cab9" d="M 215.5,126.5 C 215.179,132.026 215.512,137.36 216.5,142.5C 216.833,145.167 217.167,147.833 217.5,150.5C 215.214,150.405 213.214,149.738 211.5,148.5C 211.5,147.5 211.5,146.5 211.5,145.5C 208.085,145.739 204.919,145.072 202,143.5C 199.244,143.424 198.077,144.757 198.5,147.5C 194.5,147.5 190.5,147.5 186.5,147.5C 188.954,146.379 191.621,145.546 194.5,145C 189.772,143.003 185.105,143.336 180.5,146C 176.514,146.499 172.514,146.666 168.5,146.5C 161.08,146.797 153.746,146.464 146.5,145.5C 168.147,134.669 191.147,128.336 215.5,126.5 Z"/></g>
<g><path style="opacity:1" fill="#fb6e3a" d="M 322.5,124.5 C 322.56,123.957 322.893,123.624 323.5,123.5C 325.799,124.635 327.966,125.968 330,127.5C 330.667,129.5 330.667,131.5 330,133.5C 326.863,135.986 323.363,137.819 319.5,139C 305.167,139.667 290.833,139.667 276.5,139C 273.471,138.461 270.471,137.794 267.5,137C 264.029,134.04 263.696,130.874 266.5,127.5C 267.505,128.11 267.338,128.776 266,129.5C 264.967,132.217 265.8,134.051 268.5,135C 286.135,136.547 303.802,136.881 321.5,136C 330.427,132.811 330.76,128.978 322.5,124.5 Z"/></g>
<g><path style="opacity:1" fill="#025278" d="M 375.5,129.5 C 375.908,139.654 374.908,149.654 372.5,159.5C 368.986,170.197 363.653,179.863 356.5,188.5C 345.004,198.58 331.671,204.913 316.5,207.5C 316.672,206.508 316.338,205.842 315.5,205.5C 311.457,192.122 302.457,184.289 288.5,182C 274.504,181.5 260.504,181.333 246.5,181.5C 243.316,179.586 239.649,178.92 235.5,179.5C 235.233,177.035 234.566,174.701 233.5,172.5C 230.799,163.15 225.466,155.816 217.5,150.5C 217.167,147.833 216.833,145.167 216.5,142.5C 216.334,137.821 216.501,133.155 217,128.5C 221.289,137.454 228.123,143.621 237.5,147C 261.483,155.212 286.149,158.212 311.5,156C 330.841,155.666 348.841,150.666 365.5,141C 369.863,137.204 373.197,133.371 375.5,129.5 Z"/></g>
<g><path style="opacity:1" fill="#c5f1e4" d="M 375.5,129.5 C 375.833,129.5 376.167,129.5 376.5,129.5C 410.601,145.474 436.434,170.141 454,203.5C 455.467,206.758 456.633,210.092 457.5,213.5C 466.806,260.417 453.472,299.584 417.5,331C 394.512,348.995 368.846,361.995 340.5,370C 263.151,392.069 187.484,387.402 113.5,356C 92.1588,346.324 73.9922,332.491 59,314.5C 32.0107,274.166 31.6773,233.499 58,192.5C 61.6969,187.315 65.5302,182.315 69.5,177.5C 68.7814,179.764 68.448,182.097 68.5,184.5C 67.5655,185.568 67.2322,186.901 67.5,188.5C 66.41,199.978 68.0766,210.978 72.5,221.5C 67.1047,249.919 73.6047,275.253 92,297.5C 111.034,318.275 133.867,333.442 160.5,343C 208.016,359.314 256.349,361.98 305.5,351C 342.45,342.95 373.95,325.45 400,298.5C 425.336,267.338 428.836,234.005 410.5,198.5C 413.07,197.516 413.07,196.349 410.5,195C 415.387,194.526 418.387,192.359 419.5,188.5C 420.833,187.833 422.167,187.167 423.5,186.5C 425.103,186.688 426.437,186.188 427.5,185C 425.655,183.577 423.655,182.41 421.5,181.5C 424.107,180.682 426.774,180.182 429.5,180C 430.634,178.984 430.301,178.317 428.5,178C 419.874,173.875 412.374,175.375 406,182.5C 406.543,179.388 407.71,176.388 409.5,173.5C 407.926,172.369 406.259,172.202 404.5,173C 403.315,174.353 401.981,175.52 400.5,176.5C 397.787,171.425 396.12,172.092 395.5,178.5C 388.386,171.451 380.719,165.117 372.5,159.5C 374.908,149.654 375.908,139.654 375.5,129.5 Z"/></g>
<g><path style="opacity:1" fill="#eddedd" d="M 434.5,136.5 C 435.429,140.837 437.762,144.337 441.5,147C 437.534,148.835 435.368,152.002 435,156.5C 434.094,152.355 431.927,149.022 428.5,146.5C 432.037,144.093 434.037,140.76 434.5,136.5 Z"/></g>
<g><path style="opacity:1" fill="#77890e" d="M 211.5,148.5 C 207.19,147.92 202.857,147.586 198.5,147.5C 198.077,144.757 199.244,143.424 202,143.5C 204.919,145.072 208.085,145.739 211.5,145.5C 211.5,146.5 211.5,147.5 211.5,148.5 Z"/></g>
<g><path style="opacity:1" fill="#f3a02e" d="M 95.5,144.5 C 107.012,144.172 118.346,144.505 129.5,145.5C 128.5,145.5 127.5,145.5 126.5,145.5C 121.928,146.135 117.428,147.135 113,148.5C 111.416,147.139 109.582,146.472 107.5,146.5C 107.36,148.124 108.027,149.29 109.5,150C 108.975,150.692 108.308,151.192 107.5,151.5C 105.414,149.977 103.748,150.31 102.5,152.5C 103.5,153.167 104.5,153.833 105.5,154.5C 101.881,161.136 96.5473,165.469 89.5,167.5C 86.3794,170.916 83.3794,174.416 80.5,178C 79.1667,178.667 77.8333,178.667 76.5,178C 74.6125,176.606 72.6125,175.44 70.5,174.5C 72.709,163.139 78.3757,153.972 87.5,147C 89.9088,145.293 92.5755,144.46 95.5,144.5 Z"/></g>
<g><path style="opacity:1" fill="#95a128" d="M 186.5,147.5 C 180.31,147.823 174.31,147.49 168.5,146.5C 172.514,146.666 176.514,146.499 180.5,146C 185.105,143.336 189.772,143.003 194.5,145C 191.621,145.546 188.954,146.379 186.5,147.5 Z"/></g>
<g><path style="opacity:1" fill="#ef8e00" d="M 126.5,145.5 C 127.5,145.5 128.5,145.5 129.5,145.5C 135.167,145.5 140.833,145.5 146.5,145.5C 153.746,146.464 161.08,146.797 168.5,146.5C 174.31,147.49 180.31,147.823 186.5,147.5C 190.5,147.5 194.5,147.5 198.5,147.5C 202.857,147.586 207.19,147.92 211.5,148.5C 213.214,149.738 215.214,150.405 217.5,150.5C 225.466,155.816 230.799,163.15 233.5,172.5C 229.306,168.155 224.139,165.822 218,165.5C 209.098,167.189 200.265,169.189 191.5,171.5C 184.946,169.924 178.446,168.258 172,166.5C 154.354,167.496 142.354,176.162 136,192.5C 127.818,201.602 117.985,204.102 106.5,200C 100.178,197.174 94.1777,193.841 88.5,190C 83.8958,188.939 79.2291,188.273 74.5,188C 72.1133,187.436 70.1133,186.27 68.5,184.5C 68.448,182.097 68.7814,179.764 69.5,177.5C 69.2627,176.209 69.596,175.209 70.5,174.5C 72.6125,175.44 74.6125,176.606 76.5,178C 77.8333,178.667 79.1667,178.667 80.5,178C 83.3794,174.416 86.3794,170.916 89.5,167.5C 89.8588,169.371 90.8588,170.871 92.5,172C 95.5,172.667 98.5,172.667 101.5,172C 104.937,167.113 108.603,162.446 112.5,158C 116.687,157.929 120.687,157.262 124.5,156C 135.522,155.515 146.522,155.515 157.5,156C 159.013,153.546 158.346,151.879 155.5,151C 152.374,150.241 149.207,149.741 146,149.5C 138.507,151.962 132.007,150.629 126.5,145.5 Z"/></g>
<g><path style="opacity:1" fill="#d34510" d="M 250.5,124.5 C 249.4,125.605 248.733,126.938 248.5,128.5C 245.466,133.426 246.132,137.926 250.5,142C 258.635,145.293 266.969,147.96 275.5,150C 278.626,150.759 281.793,151.259 285,151.5C 300.438,149.696 315.938,149.029 331.5,149.5C 318.619,150.523 305.619,151.856 292.5,153.5C 278.173,151.723 263.84,150.056 249.5,148.5C 242.817,147.161 236.484,144.828 230.5,141.5C 229.702,141.043 229.369,140.376 229.5,139.5C 234.868,132.307 241.868,127.307 250.5,124.5 Z"/></g>
<g><path style="opacity:1" fill="#ee9802" d="M 126.5,145.5 C 132.007,150.629 138.507,151.962 146,149.5C 149.207,149.741 152.374,150.241 155.5,151C 158.346,151.879 159.013,153.546 157.5,156C 146.522,155.515 135.522,155.515 124.5,156C 120.687,157.262 116.687,157.929 112.5,158C 108.603,162.446 104.937,167.113 101.5,172C 98.5,172.667 95.5,172.667 92.5,172C 90.8588,170.871 89.8588,169.371 89.5,167.5C 96.5473,165.469 101.881,161.136 105.5,154.5C 104.5,153.833 103.5,153.167 102.5,152.5C 103.748,150.31 105.414,149.977 107.5,151.5C 108.308,151.192 108.975,150.692 109.5,150C 108.027,149.29 107.36,148.124 107.5,146.5C 109.582,146.472 111.416,147.139 113,148.5C 117.428,147.135 121.928,146.135 126.5,145.5 Z"/></g>
<g><path style="opacity:0.999" fill="#ebdcde" d="M 457.5,145.5 C 459.105,147.48 460.272,149.813 461,152.5C 461.903,153.701 463.069,154.535 464.5,155C 460.704,157.412 458.538,160.912 458,165.5C 457.462,160.912 455.296,157.412 451.5,155C 455.13,152.916 457.13,149.749 457.5,145.5 Z"/></g>
<g><path style="opacity:1" fill="#e0fbf1" d="M 247.5,98.5 C 241.99,101.009 236.324,103.342 230.5,105.5C 185.503,106.244 144.17,118.744 106.5,143C 102.644,143.177 98.977,143.677 95.5,144.5C 92.5755,144.46 89.9088,145.293 87.5,147C 78.3757,153.972 72.709,163.139 70.5,174.5C 69.596,175.209 69.2627,176.209 69.5,177.5C 65.5302,182.315 61.6969,187.315 58,192.5C 31.6773,233.499 32.0107,274.166 59,314.5C 73.9922,332.491 92.1588,346.324 113.5,356C 187.484,387.402 263.151,392.069 340.5,370C 368.846,361.995 394.512,348.995 417.5,331C 453.472,299.584 466.806,260.417 457.5,213.5C 459.072,216.215 460.072,219.215 460.5,222.5C 460.814,225.947 461.648,229.28 463,232.5C 463.5,243.495 463.667,254.495 463.5,265.5C 462.508,269.407 461.508,273.407 460.5,277.5C 459.962,279.117 459.629,280.784 459.5,282.5C 457.997,286.341 456.664,290.341 455.5,294.5C 454.514,296.426 453.514,298.426 452.5,300.5C 450.519,304.461 448.519,308.461 446.5,312.5C 444.937,313.945 443.604,315.611 442.5,317.5C 441.833,318.5 441.167,319.5 440.5,320.5C 438.42,323.642 436.086,326.642 433.5,329.5C 432.026,330.436 431.026,331.77 430.5,333.5C 429.5,334.167 428.5,334.833 427.5,335.5C 424.07,339.386 420.403,343.053 416.5,346.5C 415.833,346.5 415.5,346.833 415.5,347.5C 412.851,349.14 410.184,350.807 407.5,352.5C 402.009,356.746 396.342,360.746 390.5,364.5C 387.167,366.167 383.833,367.833 380.5,369.5C 379.833,369.833 379.167,370.167 378.5,370.5C 370.674,374.749 362.674,378.416 354.5,381.5C 353.209,381.263 352.209,381.596 351.5,382.5C 345.879,384.322 340.212,385.989 334.5,387.5C 311.807,393.873 288.807,397.873 265.5,399.5C 250.833,399.5 236.167,399.5 221.5,399.5C 196.753,398.654 172.42,394.654 148.5,387.5C 142.385,386.239 136.385,384.573 130.5,382.5C 129.791,381.596 128.791,381.263 127.5,381.5C 119.564,377.868 111.564,374.202 103.5,370.5C 103.167,370.5 102.833,370.5 102.5,370.5C 99.322,367.742 95.6553,365.742 91.5,364.5C 86.205,360.512 80.8716,356.512 75.5,352.5C 72.9906,351.079 70.6572,349.412 68.5,347.5C 68.5,346.833 68.1667,346.5 67.5,346.5C 63.5968,343.053 59.9302,339.386 56.5,335.5C 56.5,334.833 56.1667,334.5 55.5,334.5C 54.1667,332.833 52.8333,331.167 51.5,329.5C 48.8333,325.833 46.1667,322.167 43.5,318.5C 42.5254,316.205 41.1921,314.205 39.5,312.5C 37.7365,307.978 35.7365,303.645 33.5,299.5C 33.1075,297.716 32.4408,296.05 31.5,294.5C 30.5366,289.95 29.2032,285.617 27.5,281.5C 27.7678,279.901 27.4345,278.568 26.5,277.5C 26.7947,275.265 26.4614,273.265 25.5,271.5C 21.687,247.809 24.687,225.143 34.5,203.5C 44.8949,182.261 59.5615,164.427 78.5,150C 119.891,120.088 166.224,103.421 217.5,100C 227.51,99.5905 237.51,99.0905 247.5,98.5 Z"/></g>
<g><path style="opacity:1" fill="#29748f" d="M 216.5,125.5 C 217.5,126.833 218.5,128.167 219.5,129.5C 220.433,132.37 222.1,134.704 224.5,136.5C 225.922,137.925 227.589,138.925 229.5,139.5C 229.369,140.376 229.702,141.043 230.5,141.5C 236.484,144.828 242.817,147.161 249.5,148.5C 257.469,151.386 265.803,153.22 274.5,154C 297.444,155.831 320.11,154.165 342.5,149C 349.603,146.942 356.27,144.108 362.5,140.5C 364.191,139.136 365.858,137.803 367.5,136.5C 370.323,135.008 371.99,132.674 372.5,129.5C 373.5,128.167 374.5,126.833 375.5,125.5C 376.234,126.708 376.567,128.041 376.5,129.5C 376.167,129.5 375.833,129.5 375.5,129.5C 373.197,133.371 369.863,137.204 365.5,141C 348.841,150.666 330.841,155.666 311.5,156C 286.149,158.212 261.483,155.212 237.5,147C 228.123,143.621 221.289,137.454 217,128.5C 216.501,133.155 216.334,137.821 216.5,142.5C 215.512,137.36 215.179,132.026 215.5,126.5C 215.5,125.833 215.833,125.5 216.5,125.5 Z"/></g>
<g><path style="opacity:1" fill="#c0380e" d="M 361.5,137.5 C 362.404,138.209 362.737,139.209 362.5,140.5C 356.27,144.108 349.603,146.942 342.5,149C 320.11,154.165 297.444,155.831 274.5,154C 265.803,153.22 257.469,151.386 249.5,148.5C 263.84,150.056 278.173,151.723 292.5,153.5C 305.619,151.856 318.619,150.523 331.5,149.5C 342.077,147.978 351.744,144.311 360.5,138.5C 361.167,138.5 361.5,138.167 361.5,137.5 Z"/></g>
<g><path style="opacity:1" fill="#ea8301" d="M 233.5,172.5 C 234.566,174.701 235.233,177.035 235.5,179.5C 231.467,180.132 227.467,180.632 223.5,181C 219.014,180.064 217.348,177.564 218.5,173.5C 216.534,172.628 214.534,172.795 212.5,174C 216.508,176.818 216.174,177.651 211.5,176.5C 209.551,173.853 207.551,173.853 205.5,176.5C 204.359,175.661 203.026,174.994 201.5,174.5C 190.008,177.658 178.341,178.325 166.5,176.5C 160.501,176.101 156.001,178.434 153,183.5C 150.929,191.381 148.262,199.048 145,206.5C 139.831,211.764 133.497,214.097 126,213.5C 123.075,213.477 120.241,212.977 117.5,212C 111.947,209.39 106.281,207.057 100.5,205C 94.1667,204.667 87.8333,204.333 81.5,204C 78.0976,202.6 75.2643,200.433 73,197.5C 71.4242,194.165 69.5908,191.165 67.5,188.5C 67.2322,186.901 67.5655,185.568 68.5,184.5C 70.1133,186.27 72.1133,187.436 74.5,188C 79.2291,188.273 83.8958,188.939 88.5,190C 94.1777,193.841 100.178,197.174 106.5,200C 117.985,204.102 127.818,201.602 136,192.5C 142.354,176.162 154.354,167.496 172,166.5C 178.446,168.258 184.946,169.924 191.5,171.5C 200.265,169.189 209.098,167.189 218,165.5C 224.139,165.822 229.306,168.155 233.5,172.5 Z"/></g>
<g><path style="opacity:1" fill="#9cd1be" d="M 372.5,159.5 C 380.719,165.117 388.386,171.451 395.5,178.5C 394.63,183.976 393.13,189.309 391,194.5C 388.112,197.771 384.612,199.604 380.5,200C 386.068,195.776 390.068,190.442 392.5,184C 390.954,182.56 390.121,180.727 390,178.5C 386.784,177.348 384.284,178.348 382.5,181.5C 381.833,180.5 381.167,179.5 380.5,178.5C 380.167,178.667 379.833,178.833 379.5,179C 377.975,181.908 376.975,185.074 376.5,188.5C 375.686,186.234 375.186,183.9 375,181.5C 373.172,179.193 371.506,179.526 370,182.5C 369.586,182.043 369.086,181.709 368.5,181.5C 368.731,188.854 368.231,196.188 367,203.5C 363.227,206.629 359.394,209.629 355.5,212.5C 342.61,210.158 330.277,211.825 318.5,217.5C 317.532,215.393 317.198,213.059 317.5,210.5C 325.837,210.444 333.837,209.111 341.5,206.5C 343.415,206.784 345.081,206.451 346.5,205.5C 349.987,204.592 352.987,202.926 355.5,200.5C 357.199,200.66 358.866,200.494 360.5,200C 361.833,199.333 361.833,198.667 360.5,198C 366.03,195.741 365.696,194.574 359.5,194.5C 358.5,192.5 357.5,190.5 356.5,188.5C 363.653,179.863 368.986,170.197 372.5,159.5 Z"/></g>
<g><path style="opacity:0.94" fill="#ecdddd" d="M 457.5,177.5 C 458.69,179.355 460.023,181.188 461.5,183C 460.458,184.918 459.292,186.751 458,188.5C 456.833,186.667 455.667,184.833 454.5,183C 456.16,181.512 457.16,179.679 457.5,177.5 Z"/></g>
<g><path style="opacity:1" fill="#ee8f01" d="M 246.5,181.5 C 260.504,181.333 274.504,181.5 288.5,182C 302.457,184.289 311.457,192.122 315.5,205.5C 312.561,208.918 308.894,211.418 304.5,213C 294.493,217.336 284.16,220.669 273.5,223C 267.763,223.789 262.097,223.456 256.5,222C 250.519,218.005 244.019,215.172 237,213.5C 230.491,216.841 223.657,219.174 216.5,220.5C 214.811,218.117 213.978,215.451 214,212.5C 215.191,215.534 217.358,217.201 220.5,217.5C 220.951,212.766 219.118,208.766 215,205.5C 213.451,202.688 212.618,199.688 212.5,196.5C 212.369,195.624 212.702,194.957 213.5,194.5C 214.172,197.897 215.005,201.23 216,204.5C 218.376,206.842 220.709,209.175 223,211.5C 225.836,211.627 228.67,210.961 231.5,209.5C 231.579,208.07 231.246,206.736 230.5,205.5C 231.274,204.289 232.107,204.289 233,205.5C 233.667,204.5 233.667,203.5 233,202.5C 231.127,200.291 228.96,198.458 226.5,197C 228.025,195.991 229.692,195.491 231.5,195.5C 231.64,193.876 230.973,192.71 229.5,192C 224.917,190.855 220.251,190.189 215.5,190C 224.355,182.119 234.688,179.286 246.5,181.5 Z"/></g>
<g><path style="opacity:1" fill="#ee9000" d="M 200.5,181.5 C 198.027,183.143 196.027,185.31 194.5,188C 196.112,188.72 197.612,188.554 199,187.5C 199.483,188.448 199.649,189.448 199.5,190.5C 198.167,190.5 196.833,190.5 195.5,190.5C 194.361,193.004 193.694,195.67 193.5,198.5C 198.592,198.497 198.592,199.33 193.5,201C 191.199,203.003 191.199,204.837 193.5,206.5C 192.798,208.776 192.965,211.109 194,213.5C 195.303,214.112 196.47,214.446 197.5,214.5C 196.156,217.656 197.156,219.156 200.5,219C 201.46,217.581 202.293,216.081 203,214.5C 203.718,213.549 204.551,213.383 205.5,214C 203.069,217.078 202.069,220.578 202.5,224.5C 201.732,223.737 201.232,222.737 201,221.5C 192.444,229.366 182.611,231.532 171.5,228C 166.162,225.993 162.996,222.159 162,216.5C 159.873,210.048 160.207,203.714 163,197.5C 165.272,193.276 167.772,189.276 170.5,185.5C 173.796,183.279 177.463,182.113 181.5,182C 187.825,181.5 194.158,181.334 200.5,181.5 Z"/></g>
<g><path style="opacity:1" fill="#ea8301" d="M 170.5,185.5 C 167.772,189.276 165.272,193.276 163,197.5C 160.207,203.714 159.873,210.048 162,216.5C 162.996,222.159 166.162,225.993 171.5,228C 182.611,231.532 192.444,229.366 201,221.5C 201.232,222.737 201.732,223.737 202.5,224.5C 203.117,224.389 203.617,224.056 204,223.5C 204.333,224.833 204.667,226.167 205,227.5C 207.642,228.818 210.308,228.818 213,227.5C 214.179,225.256 215.346,222.923 216.5,220.5C 223.657,219.174 230.491,216.841 237,213.5C 244.019,215.172 250.519,218.005 256.5,222C 262.097,223.456 267.763,223.789 273.5,223C 284.16,220.669 294.493,217.336 304.5,213C 308.894,211.418 312.561,208.918 315.5,205.5C 316.338,205.842 316.672,206.508 316.5,207.5C 316.5,208.167 316.5,208.833 316.5,209.5C 316.5,210.5 316.5,211.5 316.5,212.5C 296.873,219.764 276.873,225.93 256.5,231C 250.5,234.333 244.5,237.667 238.5,241C 231.532,242.708 225.532,241.041 220.5,236C 212.926,233.25 205.259,232.917 197.5,235C 192.757,236.47 188.091,238.136 183.5,240C 176.679,240.876 170.012,240.209 163.5,238C 163.033,234.535 161.033,232.868 157.5,233C 153.074,229.212 151.408,224.378 152.5,218.5C 151.708,203.664 157.708,192.664 170.5,185.5 Z"/></g>
<g><path style="opacity:1" fill="#e99601" d="M 203.5,191.5 C 202.448,191.649 201.448,191.483 200.5,191C 202.329,190.727 203.829,189.893 205,188.5C 207.149,189.84 208.316,189.173 208.5,186.5C 211.418,177.862 216.084,176.695 222.5,183C 218.302,184.933 214.635,187.599 211.5,191C 208.854,191.497 206.187,191.664 203.5,191.5 Z"/></g>
<g><path style="opacity:1" fill="#b4dbb0" d="M 423.5,186.5 C 422.167,187.167 420.833,187.833 419.5,188.5C 415.471,188.149 411.638,188.815 408,190.5C 406.392,190.026 406.226,189.359 407.5,188.5C 412.638,186.667 417.972,186 423.5,186.5 Z"/></g>
<g><path style="opacity:1" fill="#80c4ad" d="M 356.5,188.5 C 357.5,190.5 358.5,192.5 359.5,194.5C 359.5,195.5 359.5,196.5 359.5,197.5C 357.027,197.088 355.694,198.088 355.5,200.5C 352.987,202.926 349.987,204.592 346.5,205.5C 343.99,202.913 341.323,202.913 338.5,205.5C 339.325,206.386 340.325,206.719 341.5,206.5C 333.837,209.111 325.837,210.444 317.5,210.5C 317.5,209.833 317.167,209.5 316.5,209.5C 316.5,208.833 316.5,208.167 316.5,207.5C 331.671,204.913 345.004,198.58 356.5,188.5 Z"/></g>
<g><path style="opacity:1" fill="#92a31f" d="M 235.5,179.5 C 239.649,178.92 243.316,179.586 246.5,181.5C 234.688,179.286 224.355,182.119 215.5,190C 220.251,190.189 224.917,190.855 229.5,192C 230.973,192.71 231.64,193.876 231.5,195.5C 229.692,195.491 228.025,195.991 226.5,197C 228.96,198.458 231.127,200.291 233,202.5C 233.667,203.5 233.667,204.5 233,205.5C 232.107,204.289 231.274,204.289 230.5,205.5C 231.246,206.736 231.579,208.07 231.5,209.5C 228.67,210.961 225.836,211.627 223,211.5C 220.709,209.175 218.376,206.842 216,204.5C 215.005,201.23 214.172,197.897 213.5,194.5C 212.702,194.957 212.369,195.624 212.5,196.5C 211.467,197.912 210.801,199.578 210.5,201.5C 211.406,203.747 212.739,205.747 214.5,207.5C 214.333,207.833 214.167,208.167 214,208.5C 211.199,204.313 209.699,204.646 209.5,209.5C 209.365,211.808 210.031,213.808 211.5,215.5C 211.154,216.696 210.654,216.696 210,215.5C 209.581,219.852 208.914,220.185 208,216.5C 207.346,217.696 206.846,217.696 206.5,216.5C 208.669,212.312 209.002,207.978 207.5,203.5C 209.281,200.732 210.614,197.732 211.5,194.5C 209.43,194.448 207.097,194.281 204.5,194C 206.167,193.667 207.833,193.333 209.5,193C 207.292,192.809 205.292,192.309 203.5,191.5C 206.187,191.664 208.854,191.497 211.5,191C 214.635,187.599 218.302,184.933 222.5,183C 216.084,176.695 211.418,177.862 208.5,186.5C 207.465,182.603 208.465,179.269 211.5,176.5C 216.174,177.651 216.508,176.818 212.5,174C 214.534,172.795 216.534,172.628 218.5,173.5C 217.348,177.564 219.014,180.064 223.5,181C 227.467,180.632 231.467,180.132 235.5,179.5 Z"/></g>
<g><path style="opacity:1" fill="#7a9228" d="M 359.5,194.5 C 365.696,194.574 366.03,195.741 360.5,198C 361.833,198.667 361.833,199.333 360.5,200C 358.866,200.494 357.199,200.66 355.5,200.5C 355.694,198.088 357.027,197.088 359.5,197.5C 359.5,196.5 359.5,195.5 359.5,194.5 Z"/></g>
<g><path style="opacity:1" fill="#92c7b7" d="M 410.5,198.5 C 428.836,234.005 425.336,267.338 400,298.5C 373.95,325.45 342.45,342.95 305.5,351C 256.349,361.98 208.016,359.314 160.5,343C 133.867,333.442 111.034,318.275 92,297.5C 73.6047,275.253 67.1047,249.919 72.5,221.5C 74.5248,223.196 76.5248,224.863 78.5,226.5C 74.8733,250.998 81.04,272.665 97,291.5C 113.515,309.003 133.015,322.17 155.5,331C 213.131,351.85 271.131,352.85 329.5,334C 358.067,324.646 381.9,308.48 401,285.5C 417.044,262.815 420.211,238.482 410.5,212.5C 410.611,211.883 410.944,211.383 411.5,211C 410.167,210 408.833,209 407.5,208C 407.957,207.586 408.291,207.086 408.5,206.5C 404.855,205.713 401.188,205.546 397.5,206C 398.91,205.632 399.91,204.799 400.5,203.5C 395.702,202.699 391.035,202.699 386.5,203.5C 388.064,200.714 390.398,198.881 393.5,198C 399.14,198.132 404.807,198.299 410.5,198.5 Z"/></g>
<g><path style="opacity:1" fill="#85970f" d="M 211.5,176.5 C 208.465,179.269 207.465,182.603 208.5,186.5C 208.316,189.173 207.149,189.84 205,188.5C 203.829,189.893 202.329,190.727 200.5,191C 201.448,191.483 202.448,191.649 203.5,191.5C 205.292,192.309 207.292,192.809 209.5,193C 207.833,193.333 206.167,193.667 204.5,194C 207.097,194.281 209.43,194.448 211.5,194.5C 210.614,197.732 209.281,200.732 207.5,203.5C 209.002,207.978 208.669,212.312 206.5,216.5C 206.846,217.696 207.346,217.696 208,216.5C 208.914,220.185 209.581,219.852 210,215.5C 210.654,216.696 211.154,216.696 211.5,215.5C 210.031,213.808 209.365,211.808 209.5,209.5C 209.699,204.646 211.199,204.313 214,208.5C 214.167,208.167 214.333,207.833 214.5,207.5C 212.739,205.747 211.406,203.747 210.5,201.5C 210.801,199.578 211.467,197.912 212.5,196.5C 212.618,199.688 213.451,202.688 215,205.5C 219.118,208.766 220.951,212.766 220.5,217.5C 217.358,217.201 215.191,215.534 214,212.5C 213.978,215.451 214.811,218.117 216.5,220.5C 215.346,222.923 214.179,225.256 213,227.5C 210.308,228.818 207.642,228.818 205,227.5C 204.667,226.167 204.333,224.833 204,223.5C 203.617,224.056 203.117,224.389 202.5,224.5C 202.069,220.578 203.069,217.078 205.5,214C 204.551,213.383 203.718,213.549 203,214.5C 202.293,216.081 201.46,217.581 200.5,219C 197.156,219.156 196.156,217.656 197.5,214.5C 196.47,214.446 195.303,214.112 194,213.5C 192.965,211.109 192.798,208.776 193.5,206.5C 191.199,204.837 191.199,203.003 193.5,201C 198.592,199.33 198.592,198.497 193.5,198.5C 193.694,195.67 194.361,193.004 195.5,190.5C 196.833,190.5 198.167,190.5 199.5,190.5C 199.649,189.448 199.483,188.448 199,187.5C 197.612,188.554 196.112,188.72 194.5,188C 196.027,185.31 198.027,183.143 200.5,181.5C 203.702,181.463 205.368,179.797 205.5,176.5C 207.551,173.853 209.551,173.853 211.5,176.5 Z"/></g>
<g><path style="opacity:1" fill="#859e1a" d="M 423.5,186.5 C 417.972,186 412.638,186.667 407.5,188.5C 406.226,189.359 406.392,190.026 408,190.5C 411.638,188.815 415.471,188.149 419.5,188.5C 418.387,192.359 415.387,194.526 410.5,195C 413.07,196.349 413.07,197.516 410.5,198.5C 404.807,198.299 399.14,198.132 393.5,198C 390.398,198.881 388.064,200.714 386.5,203.5C 391.035,202.699 395.702,202.699 400.5,203.5C 399.91,204.799 398.91,205.632 397.5,206C 401.188,205.546 404.855,205.713 408.5,206.5C 408.291,207.086 407.957,207.586 407.5,208C 408.833,209 410.167,210 411.5,211C 410.944,211.383 410.611,211.883 410.5,212.5C 408.146,212.838 405.813,213.338 403.5,214C 405.679,214.442 406.345,215.442 405.5,217C 399.734,219.319 394.234,218.819 389,215.5C 387.437,216.102 387.604,216.935 389.5,218C 381.14,219.658 374.14,217.324 368.5,211C 364.002,208.542 360.336,209.375 357.5,213.5C 356.833,213.167 356.167,212.833 355.5,212.5C 359.394,209.629 363.227,206.629 367,203.5C 368.231,196.188 368.731,188.854 368.5,181.5C 369.086,181.709 369.586,182.043 370,182.5C 371.506,179.526 373.172,179.193 375,181.5C 375.186,183.9 375.686,186.234 376.5,188.5C 376.975,185.074 377.975,181.908 379.5,179C 379.833,178.833 380.167,178.667 380.5,178.5C 381.167,179.5 381.833,180.5 382.5,181.5C 384.284,178.348 386.784,177.348 390,178.5C 390.121,180.727 390.954,182.56 392.5,184C 390.068,190.442 386.068,195.776 380.5,200C 384.612,199.604 388.112,197.771 391,194.5C 393.13,189.309 394.63,183.976 395.5,178.5C 396.12,172.092 397.787,171.425 400.5,176.5C 401.981,175.52 403.315,174.353 404.5,173C 406.259,172.202 407.926,172.369 409.5,173.5C 407.71,176.388 406.543,179.388 406,182.5C 412.374,175.375 419.874,173.875 428.5,178C 430.301,178.317 430.634,178.984 429.5,180C 426.774,180.182 424.107,180.682 421.5,181.5C 423.655,182.41 425.655,183.577 427.5,185C 426.437,186.188 425.103,186.688 423.5,186.5 Z"/></g>
<g><path style="opacity:1" fill="#789023" d="M 346.5,205.5 C 345.081,206.451 343.415,206.784 341.5,206.5C 340.325,206.719 339.325,206.386 338.5,205.5C 341.323,202.913 343.99,202.913 346.5,205.5 Z"/></g>
<g><path style="opacity:1" fill="#758808" d="M 351.5,205.5 C 353.288,205.215 354.955,205.548 356.5,206.5C 355.667,206.833 354.833,207.167 354,207.5C 352.624,207.316 351.791,206.649 351.5,205.5 Z"/></g>
<g><path style="opacity:1" fill="#d79001" d="M 206.5,196.5 C 208.344,197.204 208.844,198.537 208,200.5C 205,204.833 201.333,208.5 197,211.5C 197.434,208.711 199.1,206.711 202,205.5C 202.986,202.194 204.486,199.194 206.5,196.5 Z"/></g>
<g><path style="opacity:0.999" fill="#998ac5" d="M 34.5,203.5 C 24.687,225.143 21.687,247.809 25.5,271.5C 21.9464,272.769 18.9464,274.769 16.5,277.5C 13.3661,278.901 10.3661,280.568 7.5,282.5C 6.83333,282.5 6.5,282.833 6.5,283.5C 4.30207,285.098 1.96874,286.431 -0.5,287.5C -0.5,271.5 -0.5,255.5 -0.5,239.5C 9.09763,225.568 20.7643,213.568 34.5,203.5 Z"/></g>
<g><path style="opacity:1" fill="#9fd5c4" d="M 410.5,212.5 C 420.211,238.482 417.044,262.815 401,285.5C 381.9,308.48 358.067,324.646 329.5,334C 271.131,352.85 213.131,351.85 155.5,331C 133.015,322.17 113.515,309.003 97,291.5C 81.04,272.665 74.8733,250.998 78.5,226.5C 80.7638,227.219 83.0971,227.552 85.5,227.5C 87.2922,228.309 89.2922,228.809 91.5,229C 90.3279,229.419 89.3279,230.085 88.5,231C 90.6572,232.912 92.9906,234.579 95.5,236C 89.9417,238.803 90.275,240.803 96.5,242C 95.1667,242.667 95.1667,243.333 96.5,244C 99.811,243.785 103.144,243.785 106.5,244C 101.019,245.648 100.686,246.981 105.5,248C 102.766,248.998 101.099,250.832 100.5,253.5C 102.591,253.682 104.591,253.348 106.5,252.5C 106.833,253.833 107.167,255.167 107.5,256.5C 109.529,255.156 111.529,253.823 113.5,252.5C 113.702,253.364 114.036,254.364 114.5,255.5C 119.128,253.519 123.461,251.019 127.5,248C 133.209,247.3 138.709,248.133 144,250.5C 144.5,250.167 145,249.833 145.5,249.5C 142.817,248.49 140.151,247.49 137.5,246.5C 134.818,244.47 133.151,241.803 132.5,238.5C 134.5,238.5 136.5,238.5 138.5,238.5C 141.512,242.502 145.512,244.002 150.5,243C 148.423,241.295 146.09,240.128 143.5,239.5C 146.287,238.523 149.287,238.19 152.5,238.5C 153.68,243.537 156.347,247.537 160.5,250.5C 157.991,251.921 155.657,253.588 153.5,255.5C 150.5,257.833 147.833,260.5 145.5,263.5C 143.473,263.662 141.473,263.495 139.5,263C 135.299,259.127 132.965,259.961 132.5,265.5C 133.873,265.343 135.207,265.51 136.5,266C 138.596,266.737 140.263,267.903 141.5,269.5C 136.776,277.779 135.442,286.446 137.5,295.5C 140.444,314.952 151.444,327.452 170.5,333C 180.836,334.667 191.169,336.334 201.5,338C 205.027,338.808 208.36,338.641 211.5,337.5C 213.954,336.773 216.287,335.773 218.5,334.5C 219.167,334.5 219.5,334.167 219.5,333.5C 220.488,332.205 221.488,330.872 222.5,329.5C 224.777,328.551 226.777,327.218 228.5,325.5C 229.492,325.672 230.158,325.338 230.5,324.5C 231.609,324.443 232.609,324.11 233.5,323.5C 233.833,323.5 234.167,323.5 234.5,323.5C 233.391,325.554 232.391,327.721 231.5,330C 231.833,330.5 232.167,331 232.5,331.5C 234.106,330.923 235.772,330.59 237.5,330.5C 241.245,331.205 244.912,332.205 248.5,333.5C 251.468,332.838 254.468,332.505 257.5,332.5C 257.5,331.167 257.5,329.833 257.5,328.5C 259.5,328.5 261.5,328.5 263.5,328.5C 271.322,331.393 279.322,332.06 287.5,330.5C 290.728,332.026 293.394,331.36 295.5,328.5C 296.833,328.167 298.167,327.833 299.5,327.5C 324.931,325.638 347.431,316.638 367,300.5C 370.275,296.943 372.775,292.943 374.5,288.5C 381.767,280.964 386.101,271.964 387.5,261.5C 387.5,261.167 387.5,260.833 387.5,260.5C 388.647,256.354 388.814,252.02 388,247.5C 386.716,242.272 384.883,237.272 382.5,232.5C 384.55,232.961 386.55,233.628 388.5,234.5C 390.553,233.061 391.553,231.061 391.5,228.5C 386.457,227.323 381.457,225.989 376.5,224.5C 370.925,219.545 364.592,215.878 357.5,213.5C 360.336,209.375 364.002,208.542 368.5,211C 374.14,217.324 381.14,219.658 389.5,218C 387.604,216.935 387.437,216.102 389,215.5C 394.234,218.819 399.734,219.319 405.5,217C 406.345,215.442 405.679,214.442 403.5,214C 405.813,213.338 408.146,212.838 410.5,212.5 Z"/></g>
<g><path style="opacity:1" fill="#ea8302" d="M 355.5,212.5 C 356.167,212.833 356.833,213.167 357.5,213.5C 364.592,215.878 370.925,219.545 376.5,224.5C 376.833,225.167 377.167,225.833 377.5,226.5C 376.436,233.064 372.603,236.731 366,237.5C 358.516,235.006 350.849,233.339 343,232.5C 335.837,232.832 329.004,234.499 322.5,237.5C 317.759,235.383 312.926,233.383 308,231.5C 307.127,231.735 306.293,232.069 305.5,232.5C 301.555,231.732 297.555,231.232 293.5,231C 291.494,228.952 290.494,229.452 290.5,232.5C 279.596,235.579 268.596,238.246 257.5,240.5C 276.937,232.796 296.604,225.462 316.5,218.5C 317.492,218.672 318.158,218.338 318.5,217.5C 330.277,211.825 342.61,210.158 355.5,212.5 Z"/></g>
<g><path style="opacity:1" fill="#e27100" d="M 205.5,176.5 C 205.368,179.797 203.702,181.463 200.5,181.5C 194.158,181.334 187.825,181.5 181.5,182C 177.463,182.113 173.796,183.279 170.5,185.5C 157.708,192.664 151.708,203.664 152.5,218.5C 151.408,224.378 153.074,229.212 157.5,233C 161.033,232.868 163.033,234.535 163.5,238C 170.012,240.209 176.679,240.876 183.5,240C 188.091,238.136 192.757,236.47 197.5,235C 205.259,232.917 212.926,233.25 220.5,236C 225.532,241.041 231.532,242.708 238.5,241C 244.5,237.667 250.5,234.333 256.5,231C 276.873,225.93 296.873,219.764 316.5,212.5C 316.5,214.5 316.5,216.5 316.5,218.5C 296.604,225.462 276.937,232.796 257.5,240.5C 253.402,241.272 250.069,243.272 247.5,246.5C 244.796,246.67 243.129,248.003 242.5,250.5C 241.167,251.833 239.833,253.167 238.5,254.5C 235.5,254.5 232.5,254.5 229.5,254.5C 226.879,250.386 223.212,247.553 218.5,246C 204.167,245.333 189.833,245.333 175.5,246C 170.616,246.939 165.949,248.439 161.5,250.5C 161.167,250.5 160.833,250.5 160.5,250.5C 156.347,247.537 153.68,243.537 152.5,238.5C 152.5,235.833 152.5,233.167 152.5,230.5C 145.5,230.5 138.5,230.5 131.5,230.5C 129.589,226.185 127.255,222.019 124.5,218C 123.258,217.689 122.258,218.189 121.5,219.5C 117.935,216.549 116.601,217.549 117.5,222.5C 116.325,222.281 115.325,222.614 114.5,223.5C 115.747,225.323 116.414,227.323 116.5,229.5C 115.5,229.5 114.5,229.5 113.5,229.5C 113.119,225.976 112.119,222.642 110.5,219.5C 109.833,219.833 109.167,220.167 108.5,220.5C 107.167,219.5 105.833,218.5 104.5,217.5C 103.119,218 102.453,219 102.5,220.5C 103.362,222.51 103.862,224.51 104,226.5C 101.795,223.96 99.2953,221.793 96.5,220C 95.2559,219.544 94.4226,220.044 94,221.5C 92.4374,218.956 90.9374,218.956 89.5,221.5C 88.3914,220.41 87.3914,220.41 86.5,221.5C 86.9461,223.368 87.2795,225.201 87.5,227C 86.9056,227.464 86.2389,227.631 85.5,227.5C 83.0971,227.552 80.7638,227.219 78.5,226.5C 76.5248,224.863 74.5248,223.196 72.5,221.5C 68.0766,210.978 66.41,199.978 67.5,188.5C 69.5908,191.165 71.4242,194.165 73,197.5C 75.2643,200.433 78.0976,202.6 81.5,204C 87.8333,204.333 94.1667,204.667 100.5,205C 106.281,207.057 111.947,209.39 117.5,212C 120.241,212.977 123.075,213.477 126,213.5C 133.497,214.097 139.831,211.764 145,206.5C 148.262,199.048 150.929,191.381 153,183.5C 156.001,178.434 160.501,176.101 166.5,176.5C 178.341,178.325 190.008,177.658 201.5,174.5C 203.026,174.994 204.359,175.661 205.5,176.5 Z"/></g>
<g><path style="opacity:1" fill="#c1a865" d="M 316.5,209.5 C 317.167,209.5 317.5,209.833 317.5,210.5C 317.198,213.059 317.532,215.393 318.5,217.5C 318.158,218.338 317.492,218.672 316.5,218.5C 316.5,216.5 316.5,214.5 316.5,212.5C 316.5,211.5 316.5,210.5 316.5,209.5 Z"/></g>
<g><path style="opacity:1" fill="#798a0a" d="M 131.5,230.5 C 132.092,233.127 132.425,235.794 132.5,238.5C 133.151,241.803 134.818,244.47 137.5,246.5C 133.571,245.412 129.904,243.746 126.5,241.5C 127.779,236.853 127.779,232.186 126.5,227.5C 125.167,225.5 123.5,223.833 121.5,222.5C 120.5,222.833 119.833,223.5 119.5,224.5C 120.313,225.814 121.313,226.981 122.5,228C 121.978,228.561 121.645,229.228 121.5,230C 122.756,231.845 123.756,233.845 124.5,236C 122.75,239.01 120.416,239.343 117.5,237C 113.241,233.642 110.074,229.475 108,224.5C 107.13,225.108 106.63,225.941 106.5,227C 109.541,232.055 108.541,232.889 103.5,229.5C 101.803,228.636 100.637,227.303 100,225.5C 99.6667,226.5 99.3333,227.5 99,228.5C 92.5539,225.628 92.0539,226.295 97.5,230.5C 96.9747,231.192 96.3081,231.692 95.5,232C 100.128,232.596 104.461,233.929 108.5,236C 105.319,237.633 101.986,238.966 98.5,240C 102.87,239.719 107.204,238.886 111.5,237.5C 115.162,238.997 118.828,240.497 122.5,242C 121.051,243.117 119.384,243.784 117.5,244C 114.532,244.17 111.699,244.336 109,244.5C 106.063,250.65 107.563,251.983 113.5,248.5C 114.626,249.808 114.626,251.142 113.5,252.5C 111.529,253.823 109.529,255.156 107.5,256.5C 107.167,255.167 106.833,253.833 106.5,252.5C 104.591,253.348 102.591,253.682 100.5,253.5C 101.099,250.832 102.766,248.998 105.5,248C 100.686,246.981 101.019,245.648 106.5,244C 103.144,243.785 99.811,243.785 96.5,244C 95.1667,243.333 95.1667,242.667 96.5,242C 90.275,240.803 89.9417,238.803 95.5,236C 92.9906,234.579 90.6572,232.912 88.5,231C 89.3279,230.085 90.3279,229.419 91.5,229C 89.2922,228.809 87.2922,228.309 85.5,227.5C 86.2389,227.631 86.9056,227.464 87.5,227C 87.2795,225.201 86.9461,223.368 86.5,221.5C 87.3914,220.41 88.3914,220.41 89.5,221.5C 90.9374,218.956 92.4374,218.956 94,221.5C 94.4226,220.044 95.2559,219.544 96.5,220C 99.2953,221.793 101.795,223.96 104,226.5C 103.862,224.51 103.362,222.51 102.5,220.5C 102.453,219 103.119,218 104.5,217.5C 105.833,218.5 107.167,219.5 108.5,220.5C 109.167,220.167 109.833,219.833 110.5,219.5C 112.119,222.642 113.119,225.976 113.5,229.5C 114.5,229.5 115.5,229.5 116.5,229.5C 116.414,227.323 115.747,225.323 114.5,223.5C 115.325,222.614 116.325,222.281 117.5,222.5C 116.601,217.549 117.935,216.549 121.5,219.5C 122.258,218.189 123.258,217.689 124.5,218C 127.255,222.019 129.589,226.185 131.5,230.5 Z"/></g>
<g><path style="opacity:1" fill="#809d19" d="M 376.5,224.5 C 381.457,225.989 386.457,227.323 391.5,228.5C 391.553,231.061 390.553,233.061 388.5,234.5C 386.55,233.628 384.55,232.961 382.5,232.5C 381.728,231.306 380.728,230.306 379.5,229.5C 379.068,228.29 378.401,227.29 377.5,226.5C 377.167,225.833 376.833,225.167 376.5,224.5 Z"/></g>
<g><path style="opacity:1" fill="#ef8f00" d="M 377.5,226.5 C 378.401,227.29 379.068,228.29 379.5,229.5C 378.698,230.952 378.198,232.618 378,234.5C 373.965,238.2 370.298,242.2 367,246.5C 366.014,252.22 364.847,257.886 363.5,263.5C 363.39,265.374 364.056,266.874 365.5,268C 369.203,268.579 372.869,268.412 376.5,267.5C 375.653,268.966 374.32,269.8 372.5,270C 366.606,271.037 360.939,270.371 355.5,268C 352.167,265.333 348.833,262.667 345.5,260C 340.572,258.357 337.072,259.857 335,264.5C 333.283,273.442 331.949,282.442 331,291.5C 328.475,301.525 322.309,308.192 312.5,311.5C 311.375,289.084 302.041,270.584 284.5,256C 283.241,255.018 281.908,254.685 280.5,255C 296.445,268.887 306.445,286.221 310.5,307C 310.198,309.4 309.532,311.566 308.5,313.5C 308.988,305.458 307.488,297.792 304,290.5C 295.72,271.554 282.554,257.054 264.5,247C 258.884,243.949 253.217,243.782 247.5,246.5C 250.069,243.272 253.402,241.272 257.5,240.5C 268.596,238.246 279.596,235.579 290.5,232.5C 290.494,229.452 291.494,228.952 293.5,231C 297.555,231.232 301.555,231.732 305.5,232.5C 306.293,232.069 307.127,231.735 308,231.5C 312.926,233.383 317.759,235.383 322.5,237.5C 329.004,234.499 335.837,232.832 343,232.5C 350.849,233.339 358.516,235.006 366,237.5C 372.603,236.731 376.436,233.064 377.5,226.5 Z"/></g>
<g><path style="opacity:1" fill="#f29a12" d="M 379.5,229.5 C 380.728,230.306 381.728,231.306 382.5,232.5C 384.883,237.272 386.716,242.272 388,247.5C 388.814,252.02 388.647,256.354 387.5,260.5C 387.583,252.859 386.416,252.859 384,260.5C 381.604,263.067 379.104,265.4 376.5,267.5C 372.869,268.412 369.203,268.579 365.5,268C 364.056,266.874 363.39,265.374 363.5,263.5C 364.847,257.886 366.014,252.22 367,246.5C 370.298,242.2 373.965,238.2 378,234.5C 378.198,232.618 378.698,230.952 379.5,229.5 Z"/></g>
<g><path style="opacity:1" fill="#86c4ab" d="M 131.5,230.5 C 138.5,230.5 145.5,230.5 152.5,230.5C 152.5,233.167 152.5,235.833 152.5,238.5C 149.287,238.19 146.287,238.523 143.5,239.5C 142.469,238.645 141.303,237.978 140,237.5C 139.235,237.57 138.735,237.903 138.5,238.5C 136.5,238.5 134.5,238.5 132.5,238.5C 132.425,235.794 132.092,233.127 131.5,230.5 Z"/></g>
<g><path style="opacity:1" fill="#9a8cc6" d="M 460.5,222.5 C 461.621,224.741 462.787,227.075 464,229.5C 477.903,242.226 489.736,256.559 499.5,272.5C 499.5,275.833 499.5,279.167 499.5,282.5C 499.167,282.5 498.833,282.5 498.5,282.5C 494.71,281.105 491.043,279.438 487.5,277.5C 486.791,276.596 485.791,276.263 484.5,276.5C 479.026,273.262 473.36,270.262 467.5,267.5C 466.395,266.4 465.062,265.733 463.5,265.5C 463.667,254.495 463.5,243.495 463,232.5C 461.648,229.28 460.814,225.947 460.5,222.5 Z"/></g>
<g><path style="opacity:1" fill="#8ca427" d="M 137.5,246.5 C 140.151,247.49 142.817,248.49 145.5,249.5C 145,249.833 144.5,250.167 144,250.5C 138.709,248.133 133.209,247.3 127.5,248C 123.461,251.019 119.128,253.519 114.5,255.5C 114.036,254.364 113.702,253.364 113.5,252.5C 114.626,251.142 114.626,249.808 113.5,248.5C 107.563,251.983 106.063,250.65 109,244.5C 111.699,244.336 114.532,244.17 117.5,244C 119.384,243.784 121.051,243.117 122.5,242C 118.828,240.497 115.162,238.997 111.5,237.5C 107.204,238.886 102.87,239.719 98.5,240C 101.986,238.966 105.319,237.633 108.5,236C 104.461,233.929 100.128,232.596 95.5,232C 96.3081,231.692 96.9747,231.192 97.5,230.5C 92.0539,226.295 92.5539,225.628 99,228.5C 99.3333,227.5 99.6667,226.5 100,225.5C 100.637,227.303 101.803,228.636 103.5,229.5C 108.541,232.889 109.541,232.055 106.5,227C 106.63,225.941 107.13,225.108 108,224.5C 110.074,229.475 113.241,233.642 117.5,237C 120.416,239.343 122.75,239.01 124.5,236C 123.756,233.845 122.756,231.845 121.5,230C 121.645,229.228 121.978,228.561 122.5,228C 121.313,226.981 120.313,225.814 119.5,224.5C 119.833,223.5 120.5,222.833 121.5,222.5C 123.5,223.833 125.167,225.5 126.5,227.5C 127.779,232.186 127.779,236.853 126.5,241.5C 129.904,243.746 133.571,245.412 137.5,246.5 Z"/></g>
<g><path style="opacity:1" fill="#82be96" d="M 115.5,231.5 C 116.251,230.427 117.251,230.26 118.5,231C 120.329,232.113 121.163,233.613 121,235.5C 119.226,234.035 117.392,232.702 115.5,231.5 Z"/></g>
<g><path style="opacity:1" fill="#ed9800" d="M 293.5,236.5 C 301.206,235.665 308.539,236.831 315.5,240C 321.857,240.707 328.19,240.54 334.5,239.5C 337.362,239.364 339.029,240.698 339.5,243.5C 338.946,245.628 337.613,247.128 335.5,248C 322.982,250.183 314.816,257.35 311,269.5C 307.793,272.007 304.626,271.841 301.5,269C 297.263,264.52 293.263,259.853 289.5,255C 285.287,251.28 280.954,247.78 276.5,244.5C 277.924,242.282 279.924,240.782 282.5,240C 286.254,238.691 289.921,237.525 293.5,236.5 Z"/></g>
<g><path style="opacity:1" fill="#798f20" d="M 138.5,238.5 C 138.735,237.903 139.235,237.57 140,237.5C 141.303,237.978 142.469,238.645 143.5,239.5C 146.09,240.128 148.423,241.295 150.5,243C 145.512,244.002 141.512,242.502 138.5,238.5 Z"/></g>
<g><path style="opacity:1" fill="#f1980e" d="M 153.5,255.5 C 155.657,253.588 157.991,251.921 160.5,250.5C 160.833,250.5 161.167,250.5 161.5,250.5C 160.107,254.075 161.274,255.075 165,253.5C 165.483,252.552 165.649,251.552 165.5,250.5C 177.049,249.004 188.382,249.671 199.5,252.5C 199.5,251.167 199.5,249.833 199.5,248.5C 205.313,247.022 210.98,247.522 216.5,250C 218.667,250.833 220.167,252.333 221,254.5C 224.15,252.839 225.65,253.839 225.5,257.5C 216.319,260.766 207.319,264.766 198.5,269.5C 191.652,266.158 184.486,263.825 177,262.5C 170.051,264.22 163.218,266.387 156.5,269C 153.854,269.497 151.187,269.664 148.5,269.5C 149.709,263.794 152.709,259.294 157.5,256C 156.207,255.51 154.873,255.343 153.5,255.5 Z"/></g>
<g><path style="opacity:1" fill="#e3d2a2" d="M 300.5,296.5 C 299.577,297.303 298.577,297.47 297.5,297C 296.74,295.559 296.074,294.059 295.5,292.5C 294.009,291.756 292.509,291.09 291,290.5C 289.249,282.974 285.082,277.307 278.5,273.5C 276.588,269.34 274.421,265.34 272,261.5C 270.736,259.393 268.903,258.393 266.5,258.5C 266.853,260.635 266.02,261.968 264,262.5C 261.216,260.72 258.716,258.553 256.5,256C 255.056,255.219 253.723,255.386 252.5,256.5C 249.507,261.812 247.674,267.479 247,273.5C 245.815,271.623 244.815,269.623 244,267.5C 243.333,268.167 242.667,268.833 242,269.5C 241.501,273.486 241.334,277.486 241.5,281.5C 240.137,274.234 240.47,266.9 242.5,259.5C 244.55,255.939 247.217,252.772 250.5,250C 260.397,249.941 269.064,253.275 276.5,260C 287.889,269.946 295.889,282.113 300.5,296.5 Z"/></g>
<g><path style="opacity:1" fill="#e9840d" d="M 242.5,250.5 C 242.369,251.239 242.536,251.906 243,252.5C 243.654,251.304 244.154,251.304 244.5,252.5C 243.423,254.729 242.756,257.063 242.5,259.5C 240.47,266.9 240.137,274.234 241.5,281.5C 241.714,286.683 242.714,291.683 244.5,296.5C 248.2,307.937 255.2,316.604 265.5,322.5C 258.642,320.142 252.809,316.142 248,310.5C 244.87,305.569 242.037,300.569 239.5,295.5C 235.927,282.038 235.594,268.372 238.5,254.5C 239.833,253.167 241.167,251.833 242.5,250.5 Z"/></g>
<g><path style="opacity:1" fill="#7b9226" d="M 147.5,252.5 C 149.048,252.821 149.715,253.821 149.5,255.5C 146.752,255.598 146.086,254.598 147.5,252.5 Z"/></g>
<g><path style="opacity:1" fill="#ef8f00" d="M 229.5,254.5 C 229.5,254.833 229.5,255.167 229.5,255.5C 227.547,276.245 225.714,297.245 224,318.5C 222.933,323.704 221.433,328.704 219.5,333.5C 219.5,334.167 219.167,334.5 218.5,334.5C 218.5,332.167 218.5,329.833 218.5,327.5C 215.984,327.245 213.65,326.411 211.5,325C 205.471,318.308 199.471,311.641 193.5,305C 185.145,305.073 176.812,305.406 168.5,306C 161.588,303.376 154.588,301.043 147.5,299C 144.884,297.291 143.884,295.124 144.5,292.5C 152.323,299.509 153.156,298.842 147,290.5C 143.894,282.228 143.728,273.895 146.5,265.5C 146.457,264.584 146.124,263.917 145.5,263.5C 147.833,260.5 150.5,257.833 153.5,255.5C 154.873,255.343 156.207,255.51 157.5,256C 152.709,259.294 149.709,263.794 148.5,269.5C 151.187,269.664 153.854,269.497 156.5,269C 163.218,266.387 170.051,264.22 177,262.5C 184.486,263.825 191.652,266.158 198.5,269.5C 207.319,264.766 216.319,260.766 225.5,257.5C 225.65,253.839 224.15,252.839 221,254.5C 220.167,252.333 218.667,250.833 216.5,250C 210.98,247.522 205.313,247.022 199.5,248.5C 199.5,249.833 199.5,251.167 199.5,252.5C 188.382,249.671 177.049,249.004 165.5,250.5C 165.649,251.552 165.483,252.552 165,253.5C 161.274,255.075 160.107,254.075 161.5,250.5C 165.949,248.439 170.616,246.939 175.5,246C 189.833,245.333 204.167,245.333 218.5,246C 223.212,247.553 226.879,250.386 229.5,254.5 Z"/></g>
<g><path style="opacity:1" fill="#7b9328" d="M 131.5,254.5 C 135.637,254.146 139.637,254.646 143.5,256C 141.2,257.109 138.7,257.609 136,257.5C 133.833,257.167 131.667,256.833 129.5,256.5C 130.243,255.818 130.909,255.151 131.5,254.5 Z"/></g>
<g><path style="opacity:1" fill="#ea8300" d="M 376.5,267.5 C 379.104,265.4 381.604,263.067 384,260.5C 386.416,252.859 387.583,252.859 387.5,260.5C 387.5,260.833 387.5,261.167 387.5,261.5C 386.194,264.338 385.027,267.338 384,270.5C 383.517,269.552 383.351,268.552 383.5,267.5C 382.5,267.5 381.5,267.5 380.5,267.5C 380.771,269.821 380.104,271.821 378.5,273.5C 379.5,274.167 380.5,274.833 381.5,275.5C 378.733,280.651 377.067,279.985 376.5,273.5C 376.167,273.667 375.833,273.833 375.5,274C 374.736,276.069 374.236,278.236 374,280.5C 373.333,279.167 372.667,279.167 372,280.5C 371.907,283.007 371.074,285.174 369.5,287C 361.909,288.992 353.909,289.992 345.5,290C 340.945,292.566 337.778,296.4 336,301.5C 328.156,311.001 318.322,317.334 306.5,320.5C 307.167,318.167 307.833,315.833 308.5,313.5C 309.532,311.566 310.198,309.4 310.5,307C 306.445,286.221 296.445,268.887 280.5,255C 281.908,254.685 283.241,255.018 284.5,256C 302.041,270.584 311.375,289.084 312.5,311.5C 322.309,308.192 328.475,301.525 331,291.5C 331.949,282.442 333.283,273.442 335,264.5C 337.072,259.857 340.572,258.357 345.5,260C 348.833,262.667 352.167,265.333 355.5,268C 360.939,270.371 366.606,271.037 372.5,270C 374.32,269.8 375.653,268.966 376.5,267.5 Z"/></g>
<g><path style="opacity:1" fill="#eee1be" d="M 300.5,296.5 C 302.794,300.243 303.794,304.409 303.5,309C 303.672,312.477 303.006,315.644 301.5,318.5C 301.666,313.821 301.499,309.155 301,304.5C 299.89,302.963 298.39,302.297 296.5,302.5C 297.234,301.292 297.567,299.959 297.5,298.5C 294.482,298.335 291.482,298.502 288.5,299C 285.823,299.814 283.823,301.314 282.5,303.5C 280.098,299.035 277.432,294.702 274.5,290.5C 275.507,288.732 274.841,287.399 272.5,286.5C 271.614,287.325 271.281,288.325 271.5,289.5C 267.669,289.249 264.336,290.416 261.5,293C 255.109,294.631 251.276,292.131 250,285.5C 245.057,282.604 243.557,283.937 245.5,289.5C 245.016,291.846 244.683,294.179 244.5,296.5C 242.714,291.683 241.714,286.683 241.5,281.5C 241.334,277.486 241.501,273.486 242,269.5C 242.667,268.833 243.333,268.167 244,267.5C 244.815,269.623 245.815,271.623 247,273.5C 247.674,267.479 249.507,261.812 252.5,256.5C 253.723,255.386 255.056,255.219 256.5,256C 258.716,258.553 261.216,260.72 264,262.5C 266.02,261.968 266.853,260.635 266.5,258.5C 268.903,258.393 270.736,259.393 272,261.5C 274.421,265.34 276.588,269.34 278.5,273.5C 285.082,277.307 289.249,282.974 291,290.5C 292.509,291.09 294.009,291.756 295.5,292.5C 296.074,294.059 296.74,295.559 297.5,297C 298.577,297.47 299.577,297.303 300.5,296.5 Z"/></g>
<g><path style="opacity:1" fill="#7b8c16" d="M 145.5,263.5 C 144.154,265.537 142.82,267.537 141.5,269.5C 140.263,267.903 138.596,266.737 136.5,266C 135.207,265.51 133.873,265.343 132.5,265.5C 132.965,259.961 135.299,259.127 139.5,263C 141.473,263.495 143.473,263.662 145.5,263.5 Z"/></g>
<g><path style="opacity:1" fill="#7e9c16" d="M 123.5,260.5 C 125.948,260.085 127.281,261.085 127.5,263.5C 127.182,264.647 126.516,265.481 125.5,266C 121.606,266.964 117.773,268.131 114,269.5C 111.843,268.615 111.01,266.948 111.5,264.5C 115.784,263.739 119.784,262.405 123.5,260.5 Z"/></g>
<g><path style="opacity:1" fill="#ea8302" d="M 145.5,263.5 C 146.124,263.917 146.457,264.584 146.5,265.5C 143.728,273.895 143.894,282.228 147,290.5C 153.156,298.842 152.323,299.509 144.5,292.5C 143.884,295.124 144.884,297.291 147.5,299C 154.588,301.043 161.588,303.376 168.5,306C 176.812,305.406 185.145,305.073 193.5,305C 199.471,311.641 205.471,318.308 211.5,325C 213.65,326.411 215.984,327.245 218.5,327.5C 218.5,329.833 218.5,332.167 218.5,334.5C 216.287,335.773 213.954,336.773 211.5,337.5C 209.073,335.442 206.407,333.609 203.5,332C 203.033,328.535 201.033,326.868 197.5,327C 192.955,320.876 186.955,318.876 179.5,321C 173.454,324.658 167.787,324.158 162.5,319.5C 162.002,320.603 161.669,321.603 161.5,322.5C 160.738,321.372 160.071,320.205 159.5,319C 153.406,317.932 148.573,314.765 145,309.5C 141.578,304.655 139.245,299.322 138,293.5C 137.536,294.094 137.369,294.761 137.5,295.5C 135.442,286.446 136.776,277.779 141.5,269.5C 142.82,267.537 144.154,265.537 145.5,263.5 Z"/></g>
<g><path style="opacity:1" fill="#f2a610" d="M 229.5,255.5 C 230.97,258.094 231.636,260.927 231.5,264C 231.11,267.835 230.777,271.668 230.5,275.5C 229.787,288.717 228.62,302.05 227,315.5C 226.11,320.403 224.61,325.07 222.5,329.5C 221.488,330.872 220.488,332.205 219.5,333.5C 221.433,328.704 222.933,323.704 224,318.5C 225.714,297.245 227.547,276.245 229.5,255.5 Z"/></g>
<g><path style="opacity:1" fill="#e0d2a4" d="M 467.5,267.5 C 473.36,270.262 479.026,273.262 484.5,276.5C 477.492,276.666 470.492,276.5 463.5,276C 465.249,273.337 466.582,270.503 467.5,267.5 Z"/></g>
<g><path style="opacity:1" fill="#d4bc7a" d="M 463.5,265.5 C 465.062,265.733 466.395,266.4 467.5,267.5C 466.582,270.503 465.249,273.337 463.5,276C 470.492,276.5 477.492,276.666 484.5,276.5C 485.791,276.263 486.791,276.596 487.5,277.5C 478.5,277.5 469.5,277.5 460.5,277.5C 461.508,273.407 462.508,269.407 463.5,265.5 Z"/></g>
<g><path style="opacity:1" fill="#f3a300" d="M 308.5,313.5 C 307.833,315.833 307.167,318.167 306.5,320.5C 304.5,322.167 302.5,323.833 300.5,325.5C 300.389,324.883 300.056,324.383 299.5,324C 305.437,319.189 307.604,313.022 306,305.5C 299.654,282.604 286.821,264.437 267.5,251C 261.219,246.381 254.552,245.548 247.5,248.5C 246.537,248.03 246.537,247.363 247.5,246.5C 253.217,243.782 258.884,243.949 264.5,247C 282.554,257.054 295.72,271.554 304,290.5C 307.488,297.792 308.988,305.458 308.5,313.5 Z"/></g>
<g><path style="opacity:1" fill="#ddc68a" d="M 25.5,271.5 C 26.4614,273.265 26.7947,275.265 26.5,277.5C 23.1667,277.5 19.8333,277.5 16.5,277.5C 18.9464,274.769 21.9464,272.769 25.5,271.5 Z"/></g>
<g><path style="opacity:1" fill="#ee9e0a" d="M 16.5,277.5 C 19.8333,277.5 23.1667,277.5 26.5,277.5C 27.4345,278.568 27.7678,279.901 27.5,281.5C 24.572,282.82 21.2386,283.486 17.5,283.5C 13.9825,283.498 10.6491,283.165 7.5,282.5C 10.3661,280.568 13.3661,278.901 16.5,277.5 Z"/></g>
<g><path style="opacity:1" fill="#ce8353" d="M 246.5,277.5 C 252.536,277.021 257.536,279.021 261.5,283.5C 257.048,284.044 252.715,283.211 248.5,281C 247.027,280.29 246.36,279.124 246.5,277.5 Z"/></g>
<g><path style="opacity:1" fill="#f2a302" d="M 460.5,277.5 C 469.5,277.5 478.5,277.5 487.5,277.5C 491.043,279.438 494.71,281.105 498.5,282.5C 485.677,283.495 472.677,283.829 459.5,283.5C 459.5,283.167 459.5,282.833 459.5,282.5C 459.629,280.784 459.962,279.117 460.5,277.5 Z"/></g>
<g><path style="opacity:1" fill="#ef9411" d="M 247.5,246.5 C 246.537,247.363 246.537,248.03 247.5,248.5C 254.552,245.548 261.219,246.381 267.5,251C 286.821,264.437 299.654,282.604 306,305.5C 307.604,313.022 305.437,319.189 299.5,324C 300.056,324.383 300.389,324.883 300.5,325.5C 299.833,325.5 299.5,325.833 299.5,326.5C 299.5,326.833 299.5,327.167 299.5,327.5C 298.167,327.833 296.833,328.167 295.5,328.5C 296.483,324.531 298.483,321.198 301.5,318.5C 303.006,315.644 303.672,312.477 303.5,309C 303.794,304.409 302.794,300.243 300.5,296.5C 295.889,282.113 287.889,269.946 276.5,260C 269.064,253.275 260.397,249.941 250.5,250C 247.217,252.772 244.55,255.939 242.5,259.5C 242.756,257.063 243.423,254.729 244.5,252.5C 244.154,251.304 243.654,251.304 243,252.5C 242.536,251.906 242.369,251.239 242.5,250.5C 243.129,248.003 244.796,246.67 247.5,246.5 Z"/></g>
<g><path style="opacity:1" fill="#efe3c0" d="M 230.5,277.5 C 231.338,277.842 231.672,278.508 231.5,279.5C 231.612,290.76 233.279,301.76 236.5,312.5C 235.552,317.064 233.552,321.064 230.5,324.5C 230.158,325.338 229.492,325.672 228.5,325.5C 229.148,323.914 229.648,322.247 230,320.5C 230.5,306.171 230.667,291.837 230.5,277.5 Z"/></g>
<g><path style="opacity:1" fill="#efeddf" d="M 231.5,279.5 C 232.558,280.6 233.392,281.934 234,283.5C 234.411,293.302 236.244,302.802 239.5,312C 238.408,316.352 236.408,320.185 233.5,323.5C 232.609,324.11 231.609,324.443 230.5,324.5C 233.552,321.064 235.552,317.064 236.5,312.5C 233.279,301.76 231.612,290.76 231.5,279.5 Z"/></g>
<g><path style="opacity:1" fill="#f0e9d7" d="M 271.5,289.5 C 272.391,290.11 273.391,290.443 274.5,290.5C 277.432,294.702 280.098,299.035 282.5,303.5C 287.238,304.827 291.905,304.493 296.5,302.5C 298.39,302.297 299.89,302.963 301,304.5C 301.499,309.155 301.666,313.821 301.5,318.5C 298.483,321.198 296.483,324.531 295.5,328.5C 293.394,331.36 290.728,332.026 287.5,330.5C 287.5,329.167 287.5,327.833 287.5,326.5C 286.494,321.813 283.494,319.813 278.5,320.5C 278.386,313.99 276.386,308.157 272.5,303C 270.298,301.978 267.965,301.478 265.5,301.5C 254.624,304.638 247.958,300.638 245.5,289.5C 243.557,283.937 245.057,282.604 250,285.5C 251.276,292.131 255.109,294.631 261.5,293C 264.336,290.416 267.669,289.249 271.5,289.5 Z"/></g>
<g><path style="opacity:1" fill="#e6c472" d="M 498.5,282.5 C 498.833,282.5 499.167,282.5 499.5,282.5C 499.5,283.167 499.5,283.833 499.5,284.5C 485.99,284.829 472.656,284.496 459.5,283.5C 472.677,283.829 485.677,283.495 498.5,282.5 Z"/></g>
<g><path style="opacity:1" fill="#e1d3a4" d="M 6.5,283.5 C 11.6405,284.488 16.9738,284.821 22.5,284.5C 22.5,287.833 22.5,291.167 22.5,294.5C 14.8333,294.5 7.16667,294.5 -0.5,294.5C -0.5,292.167 -0.5,289.833 -0.5,287.5C 1.96874,286.431 4.30207,285.098 6.5,283.5 Z"/></g>
<g><path style="opacity:1" fill="#e1d3a5" d="M 459.5,282.5 C 459.5,282.833 459.5,283.167 459.5,283.5C 472.656,284.496 485.99,284.829 499.5,284.5C 499.5,287.833 499.5,291.167 499.5,294.5C 484.833,294.5 470.167,294.5 455.5,294.5C 456.664,290.341 457.997,286.341 459.5,282.5 Z"/></g>
<g><path style="opacity:1" fill="#d1ba77" d="M 27.5,281.5 C 29.2032,285.617 30.5366,289.95 31.5,294.5C 28.5,294.5 25.5,294.5 22.5,294.5C 22.5,291.167 22.5,287.833 22.5,284.5C 16.9738,284.821 11.6405,284.488 6.5,283.5C 6.5,282.833 6.83333,282.5 7.5,282.5C 10.6491,283.165 13.9825,283.498 17.5,283.5C 21.2386,283.486 24.572,282.82 27.5,281.5 Z"/></g>
<g><path style="opacity:1" fill="#88c4aa" d="M 229.5,254.5 C 232.5,254.5 235.5,254.5 238.5,254.5C 235.594,268.372 235.927,282.038 239.5,295.5C 242.88,309.95 250.88,320.95 263.5,328.5C 261.5,328.5 259.5,328.5 257.5,328.5C 256.448,327.47 255.114,326.803 253.5,326.5C 250.846,327.268 248.179,327.434 245.5,327C 242.669,322.906 239.003,321.739 234.5,323.5C 234.167,323.5 233.833,323.5 233.5,323.5C 236.408,320.185 238.408,316.352 239.5,312C 236.244,302.802 234.411,293.302 234,283.5C 233.392,281.934 232.558,280.6 231.5,279.5C 231.672,278.508 231.338,277.842 230.5,277.5C 230.5,276.833 230.5,276.167 230.5,275.5C 230.777,271.668 231.11,267.835 231.5,264C 231.636,260.927 230.97,258.094 229.5,255.5C 229.5,255.167 229.5,254.833 229.5,254.5 Z"/></g>
<g><path style="opacity:1" fill="#cf8758" d="M 274.5,290.5 C 273.391,290.443 272.391,290.11 271.5,289.5C 271.281,288.325 271.614,287.325 272.5,286.5C 274.841,287.399 275.507,288.732 274.5,290.5 Z"/></g>
<g><path style="opacity:1" fill="#e07105" d="M 387.5,261.5 C 386.101,271.964 381.767,280.964 374.5,288.5C 350.236,302.466 325.236,315.132 299.5,326.5C 299.5,325.833 299.833,325.5 300.5,325.5C 302.5,323.833 304.5,322.167 306.5,320.5C 318.322,317.334 328.156,311.001 336,301.5C 337.778,296.4 340.945,292.566 345.5,290C 353.909,289.992 361.909,288.992 369.5,287C 371.074,285.174 371.907,283.007 372,280.5C 372.667,279.167 373.333,279.167 374,280.5C 374.236,278.236 374.736,276.069 375.5,274C 375.833,273.833 376.167,273.667 376.5,273.5C 377.067,279.985 378.733,280.651 381.5,275.5C 380.5,274.833 379.5,274.167 378.5,273.5C 380.104,271.821 380.771,269.821 380.5,267.5C 381.5,267.5 382.5,267.5 383.5,267.5C 383.351,268.552 383.517,269.552 384,270.5C 385.027,267.338 386.194,264.338 387.5,261.5 Z"/></g>
<g><path style="opacity:1" fill="#85c6ad" d="M 374.5,288.5 C 372.775,292.943 370.275,296.943 367,300.5C 347.431,316.638 324.931,325.638 299.5,327.5C 299.5,327.167 299.5,326.833 299.5,326.5C 325.236,315.132 350.236,302.466 374.5,288.5 Z"/></g>
<g><path style="opacity:1" fill="#f3a70d" d="M -0.5,294.5 C 7.16667,294.5 14.8333,294.5 22.5,294.5C 22.5,296.833 22.5,299.167 22.5,301.5C 14.8333,301.5 7.16667,301.5 -0.5,301.5C -0.5,299.167 -0.5,296.833 -0.5,294.5 Z"/></g>
<g><path style="opacity:1" fill="#de880e" d="M 22.5,294.5 C 25.5,294.5 28.5,294.5 31.5,294.5C 32.4408,296.05 33.1075,297.716 33.5,299.5C 30.6627,301.402 27.3293,302.069 23.5,301.5C 23.1667,301.5 22.8333,301.5 22.5,301.5C 22.5,299.167 22.5,296.833 22.5,294.5 Z"/></g>
<g><path style="opacity:1" fill="#de6f05" d="M 211.5,337.5 C 208.36,338.641 205.027,338.808 201.5,338C 191.169,336.334 180.836,334.667 170.5,333C 151.444,327.452 140.444,314.952 137.5,295.5C 137.369,294.761 137.536,294.094 138,293.5C 139.245,299.322 141.578,304.655 145,309.5C 148.573,314.765 153.406,317.932 159.5,319C 160.071,320.205 160.738,321.372 161.5,322.5C 161.669,321.603 162.002,320.603 162.5,319.5C 167.787,324.158 173.454,324.658 179.5,321C 186.955,318.876 192.955,320.876 197.5,327C 201.033,326.868 203.033,328.535 203.5,332C 206.407,333.609 209.073,335.442 211.5,337.5 Z"/></g>
<g><path style="opacity:1" fill="#f3a70e" d="M 455.5,294.5 C 470.167,294.5 484.833,294.5 499.5,294.5C 499.5,296.833 499.5,299.167 499.5,301.5C 483.658,301.83 467.991,301.496 452.5,300.5C 453.514,298.426 454.514,296.426 455.5,294.5 Z"/></g>
<g><path style="opacity:1" fill="#cd8050" d="M 296.5,302.5 C 291.905,304.493 287.238,304.827 282.5,303.5C 283.823,301.314 285.823,299.814 288.5,299C 291.482,298.502 294.482,298.335 297.5,298.5C 297.567,299.959 297.234,301.292 296.5,302.5 Z"/></g>
<g><path style="opacity:1" fill="#e1d3a4" d="M -0.5,301.5 C 7.16667,301.5 14.8333,301.5 22.5,301.5C 22.8333,301.5 23.1667,301.5 23.5,301.5C 23.4595,304.881 23.7929,308.214 24.5,311.5C 16.1667,311.5 7.83333,311.5 -0.5,311.5C -0.5,308.167 -0.5,304.833 -0.5,301.5 Z"/></g>
<g><path style="opacity:1" fill="#d2b974" d="M 33.5,299.5 C 35.7365,303.645 37.7365,307.978 39.5,312.5C 34.8333,312.5 30.1667,312.5 25.5,312.5C 16.8333,312.5 8.16667,312.5 -0.5,312.5C -0.5,312.167 -0.5,311.833 -0.5,311.5C 7.83333,311.5 16.1667,311.5 24.5,311.5C 23.7929,308.214 23.4595,304.881 23.5,301.5C 27.3293,302.069 30.6627,301.402 33.5,299.5 Z"/></g>
<g><path style="opacity:1" fill="#e2d19f" d="M 452.5,300.5 C 467.991,301.496 483.658,301.83 499.5,301.5C 499.5,305.167 499.5,308.833 499.5,312.5C 488.654,312.828 477.987,312.494 467.5,311.5C 471.263,310.299 474.93,308.799 478.5,307C 477.833,306.833 477.167,306.667 476.5,306.5C 469.744,308.308 463.078,310.308 456.5,312.5C 453.167,312.5 449.833,312.5 446.5,312.5C 448.519,308.461 450.519,304.461 452.5,300.5 Z"/></g>
<g><path style="opacity:1" fill="#e3d3a0" d="M 230.5,275.5 C 230.5,276.167 230.5,276.833 230.5,277.5C 230.667,291.837 230.5,306.171 230,320.5C 229.648,322.247 229.148,323.914 228.5,325.5C 226.777,327.218 224.777,328.551 222.5,329.5C 224.61,325.07 226.11,320.403 227,315.5C 228.62,302.05 229.787,288.717 230.5,275.5 Z"/></g>
<g><path style="opacity:1" fill="#be5e0e" d="M 467.5,311.5 C 461.681,313.656 456.015,315.99 450.5,318.5C 447.45,319.295 444.45,320.295 441.5,321.5C 440.893,321.376 440.56,321.043 440.5,320.5C 441.167,319.5 441.833,318.5 442.5,317.5C 447.438,316.354 452.105,314.687 456.5,312.5C 463.078,310.308 469.744,308.308 476.5,306.5C 477.167,306.667 477.833,306.833 478.5,307C 474.93,308.799 471.263,310.299 467.5,311.5 Z"/></g>
<g><path style="opacity:1" fill="#e9daae" d="M 245.5,289.5 C 247.958,300.638 254.624,304.638 265.5,301.5C 267.965,301.478 270.298,301.978 272.5,303C 276.386,308.157 278.386,313.99 278.5,320.5C 283.494,319.813 286.494,321.813 287.5,326.5C 280.032,326.042 272.698,324.709 265.5,322.5C 255.2,316.604 248.2,307.937 244.5,296.5C 244.683,294.179 245.016,291.846 245.5,289.5 Z"/></g>
<g><path style="opacity:1" fill="#f3a400" d="M -0.5,312.5 C 8.16667,312.5 16.8333,312.5 25.5,312.5C 26.7298,314.297 27.3964,316.297 27.5,318.5C 18.1667,318.5 8.83333,318.5 -0.5,318.5C -0.5,316.5 -0.5,314.5 -0.5,312.5 Z"/></g>
<g><path style="opacity:1" fill="#e08606" d="M 25.5,312.5 C 30.1667,312.5 34.8333,312.5 39.5,312.5C 41.1921,314.205 42.5254,316.205 43.5,318.5C 38.1667,318.5 32.8333,318.5 27.5,318.5C 27.3964,316.297 26.7298,314.297 25.5,312.5 Z"/></g>
<g><path style="opacity:1" fill="#f1a40e" d="M 446.5,312.5 C 449.833,312.5 453.167,312.5 456.5,312.5C 452.105,314.687 447.438,316.354 442.5,317.5C 443.604,315.611 444.937,313.945 446.5,312.5 Z"/></g>
<g><path style="opacity:1" fill="#f2a301" d="M 467.5,311.5 C 477.987,312.494 488.654,312.828 499.5,312.5C 499.5,314.5 499.5,316.5 499.5,318.5C 499.167,318.5 498.833,318.5 498.5,318.5C 491.833,318.5 485.167,318.5 478.5,318.5C 482.676,316.863 487.009,315.363 491.5,314C 490.667,313.833 489.833,313.667 489,313.5C 482.213,315.405 475.379,317.072 468.5,318.5C 462.5,318.5 456.5,318.5 450.5,318.5C 456.015,315.99 461.681,313.656 467.5,311.5 Z"/></g>
<g><path style="opacity:1" fill="#e27311" d="M 239.5,295.5 C 242.037,300.569 244.87,305.569 248,310.5C 252.809,316.142 258.642,320.142 265.5,322.5C 272.698,324.709 280.032,326.042 287.5,326.5C 287.5,327.833 287.5,329.167 287.5,330.5C 279.322,332.06 271.322,331.393 263.5,328.5C 250.88,320.95 242.88,309.95 239.5,295.5 Z"/></g>
<g><path style="opacity:1" fill="#cd8353" d="M 272.5,314.5 C 275.443,316.048 276.443,318.382 275.5,321.5C 272.907,319.929 271.907,317.596 272.5,314.5 Z"/></g>
<g><path style="opacity:1" fill="#e1d3a4" d="M -0.5,319.5 C 9.52216,319.168 19.5222,319.501 29.5,320.5C 30.9252,323.688 32.5919,326.688 34.5,329.5C 22.8333,329.5 11.1667,329.5 -0.5,329.5C -0.5,326.167 -0.5,322.833 -0.5,319.5 Z"/></g>
<g><path style="opacity:1" fill="#d0ba78" d="M -0.5,319.5 C -0.5,319.167 -0.5,318.833 -0.5,318.5C 8.83333,318.5 18.1667,318.5 27.5,318.5C 32.8333,318.5 38.1667,318.5 43.5,318.5C 46.1667,322.167 48.8333,325.833 51.5,329.5C 45.8333,329.5 40.1667,329.5 34.5,329.5C 32.5919,326.688 30.9252,323.688 29.5,320.5C 19.5222,319.501 9.52216,319.168 -0.5,319.5 Z"/></g>
<g><path style="opacity:1" fill="#e1ce9c" d="M 450.5,318.5 C 456.5,318.5 462.5,318.5 468.5,318.5C 456.99,322.335 445.323,326.002 433.5,329.5C 436.086,326.642 438.42,323.642 440.5,320.5C 440.56,321.043 440.893,321.376 441.5,321.5C 444.45,320.295 447.45,319.295 450.5,318.5 Z"/></g>
<g><path style="opacity:1" fill="#e1d0a0" d="M 478.5,318.5 C 485.167,318.5 491.833,318.5 498.5,318.5C 492.842,322.665 486.842,326.332 480.5,329.5C 468.5,329.5 456.5,329.5 444.5,329.5C 455.49,325.06 466.824,321.393 478.5,318.5 Z"/></g>
<g><path style="opacity:0.997" fill="#998ac5" d="M 498.5,318.5 C 498.833,318.5 499.167,318.5 499.5,318.5C 499.5,342.167 499.5,365.833 499.5,389.5C 474.978,423.492 442.978,447.992 403.5,463C 340.815,485.548 276.481,491.881 210.5,482C 160.079,475.194 113.079,458.861 69.5,433C 41.4421,415.775 18.1088,393.608 -0.5,366.5C -0.5,357.5 -0.5,348.5 -0.5,339.5C 43.1889,365.535 86.8556,391.535 130.5,417.5C 129.761,417.369 129.094,417.536 128.5,418C 134.955,424.721 142.622,429.054 151.5,431C 150.619,430.292 149.953,429.458 149.5,428.5C 163.834,435.998 177.834,443.998 191.5,452.5C 190.535,453.721 190.702,455.054 192,456.5C 196.862,460.89 202.362,462.557 208.5,461.5C 216.788,466.143 225.454,469.976 234.5,473C 239.167,473.667 243.833,473.667 248.5,473C 252.534,469.983 256.867,467.483 261.5,465.5C 320.97,431.268 379.637,395.768 437.5,359C 444.411,354.39 451.078,349.557 457.5,344.5C 461.777,342.218 465.777,339.551 469.5,336.5C 473.457,334.527 477.124,332.194 480.5,329.5C 486.842,326.332 492.842,322.665 498.5,318.5 Z M 130.5,417.5 C 136.697,421.431 143.031,425.098 149.5,428.5C 149.953,429.458 150.619,430.292 151.5,431C 142.622,429.054 134.955,424.721 128.5,418C 129.094,417.536 129.761,417.369 130.5,417.5 Z M 191.5,452.5 C 195.833,454.5 200.167,456.5 204.5,458.5C 205.795,459.488 207.128,460.488 208.5,461.5C 202.362,462.557 196.862,460.89 192,456.5C 190.702,455.054 190.535,453.721 191.5,452.5 Z"/></g>
<g><path style="opacity:1" fill="#be5f11" d="M 478.5,318.5 C 466.824,321.393 455.49,325.06 444.5,329.5C 439.776,330.63 435.109,331.964 430.5,333.5C 431.026,331.77 432.026,330.436 433.5,329.5C 445.323,326.002 456.99,322.335 468.5,318.5C 475.379,317.072 482.213,315.405 489,313.5C 489.833,313.667 490.667,313.833 491.5,314C 487.009,315.363 482.676,316.863 478.5,318.5 Z"/></g>
<g><path style="opacity:1" fill="#7ca014" d="M 257.5,328.5 C 257.5,329.833 257.5,331.167 257.5,332.5C 254.468,332.505 251.468,332.838 248.5,333.5C 244.912,332.205 241.245,331.205 237.5,330.5C 235.772,330.59 234.106,330.923 232.5,331.5C 232.167,331 231.833,330.5 231.5,330C 232.391,327.721 233.391,325.554 234.5,323.5C 239.003,321.739 242.669,322.906 245.5,327C 248.179,327.434 250.846,327.268 253.5,326.5C 255.114,326.803 256.448,327.47 257.5,328.5 Z"/></g>
<g><path style="opacity:1" fill="#f3a400" d="M -0.5,329.5 C 11.1667,329.5 22.8333,329.5 34.5,329.5C 36.2255,331.228 37.5589,333.228 38.5,335.5C 25.5,335.5 12.5,335.5 -0.5,335.5C -0.5,333.5 -0.5,331.5 -0.5,329.5 Z"/></g>
<g><path style="opacity:1" fill="#e08504" d="M 34.5,329.5 C 40.1667,329.5 45.8333,329.5 51.5,329.5C 52.8333,331.167 54.1667,332.833 55.5,334.5C 50.0247,335.489 44.358,335.822 38.5,335.5C 37.5589,333.228 36.2255,331.228 34.5,329.5 Z"/></g>
<g><path style="opacity:1" fill="#f2a612" d="M 444.5,329.5 C 456.5,329.5 468.5,329.5 480.5,329.5C 477.124,332.194 473.457,334.527 469.5,336.5C 455.323,336.829 441.323,336.496 427.5,335.5C 428.5,334.833 429.5,334.167 430.5,333.5C 435.109,331.964 439.776,330.63 444.5,329.5 Z"/></g>
<g><path style="opacity:1" fill="#e8af3c" d="M 55.5,334.5 C 56.1667,334.5 56.5,334.833 56.5,335.5C 51.3595,336.488 46.0262,336.821 40.5,336.5C 26.8333,336.5 13.1667,336.5 -0.5,336.5C -0.5,336.167 -0.5,335.833 -0.5,335.5C 12.5,335.5 25.5,335.5 38.5,335.5C 44.358,335.822 50.0247,335.489 55.5,334.5 Z"/></g>
<g><path style="opacity:1" fill="#e1d3a4" d="M -0.5,336.5 C 13.1667,336.5 26.8333,336.5 40.5,336.5C 42.8081,339.815 45.1414,343.149 47.5,346.5C 37.1667,346.5 26.8333,346.5 16.5,346.5C 10.8333,343.833 5.16667,341.167 -0.5,338.5C -0.5,337.833 -0.5,337.167 -0.5,336.5 Z"/></g>
<g><path style="opacity:1" fill="#e0d2a4" d="M 427.5,335.5 C 441.323,336.496 455.323,336.829 469.5,336.5C 465.777,339.551 461.777,342.218 457.5,344.5C 455.5,345.167 453.5,345.833 451.5,346.5C 439.833,346.5 428.167,346.5 416.5,346.5C 420.403,343.053 424.07,339.386 427.5,335.5 Z"/></g>
<g><path style="opacity:1" fill="#cdb979" d="M 56.5,335.5 C 59.9302,339.386 63.5968,343.053 67.5,346.5C 60.8333,346.5 54.1667,346.5 47.5,346.5C 45.1414,343.149 42.8081,339.815 40.5,336.5C 46.0262,336.821 51.3595,336.488 56.5,335.5 Z"/></g>
<g><path style="opacity:1" fill="#ebb848" d="M 415.5,347.5 C 415.5,346.833 415.833,346.5 416.5,346.5C 428.167,346.5 439.833,346.5 451.5,346.5C 451.672,347.492 451.338,348.158 450.5,348.5C 439.012,347.505 427.345,347.172 415.5,347.5 Z"/></g>
<g><path style="opacity:1" fill="#f1a717" d="M 16.5,346.5 C 26.8333,346.5 37.1667,346.5 47.5,346.5C 54.1667,346.5 60.8333,346.5 67.5,346.5C 68.1667,346.5 68.5,346.833 68.5,347.5C 62.1579,347.334 55.8246,347.5 49.5,348C 51.3734,349.704 53.0401,351.537 54.5,353.5C 45.5,353.5 36.5,353.5 27.5,353.5C 23.2886,351.902 19.622,349.568 16.5,346.5 Z"/></g>
<g><path style="opacity:1" fill="#df8505" d="M 68.5,347.5 C 70.6572,349.412 72.9906,351.079 75.5,352.5C 69.021,353.491 62.3543,353.824 55.5,353.5C 55.1667,353.5 54.8333,353.5 54.5,353.5C 53.0401,351.537 51.3734,349.704 49.5,348C 55.8246,347.5 62.1579,347.334 68.5,347.5 Z"/></g>
<g><path style="opacity:1" fill="#f3a505" d="M 415.5,347.5 C 427.345,347.172 439.012,347.505 450.5,348.5C 447.661,350.42 444.661,352.087 441.5,353.5C 429.988,353.828 418.654,353.495 407.5,352.5C 410.184,350.807 412.851,349.14 415.5,347.5 Z"/></g>
<g><path style="opacity:1" fill="#e1d2a2" d="M 27.5,353.5 C 36.5,353.5 45.5,353.5 54.5,353.5C 54.8333,353.5 55.1667,353.5 55.5,353.5C 58.8604,357.527 62.5271,361.194 66.5,364.5C 59.8333,364.5 53.1667,364.5 46.5,364.5C 39.9677,361.071 33.6343,357.404 27.5,353.5 Z"/></g>
<g><path style="opacity:1" fill="#cdb877" d="M 75.5,352.5 C 80.8716,356.512 86.205,360.512 91.5,364.5C 83.5,364.5 75.5,364.5 67.5,364.5C 67.1667,364.5 66.8333,364.5 66.5,364.5C 62.5271,361.194 58.8604,357.527 55.5,353.5C 62.3543,353.824 69.021,353.491 75.5,352.5 Z"/></g>
<g><path style="opacity:1" fill="#e1d3a3" d="M 407.5,352.5 C 418.654,353.495 429.988,353.828 441.5,353.5C 435.842,357.665 429.842,361.332 423.5,364.5C 412.5,364.5 401.5,364.5 390.5,364.5C 396.342,360.746 402.009,356.746 407.5,352.5 Z"/></g>
<g><path style="opacity:1" fill="#f3a402" d="M 46.5,364.5 C 53.1667,364.5 59.8333,364.5 66.5,364.5C 66.8333,364.5 67.1667,364.5 67.5,364.5C 69.8838,366.885 72.5505,368.885 75.5,370.5C 68.825,370.666 62.1583,370.5 55.5,370C 52.4362,368.141 49.4362,366.308 46.5,364.5 Z"/></g>
<g><path style="opacity:1" fill="#df8607" d="M 67.5,364.5 C 75.5,364.5 83.5,364.5 91.5,364.5C 95.6553,365.742 99.322,367.742 102.5,370.5C 93.5,370.5 84.5,370.5 75.5,370.5C 72.5505,368.885 69.8838,366.885 67.5,364.5 Z"/></g>
<g><path style="opacity:1" fill="#f1a204" d="M 390.5,364.5 C 401.5,364.5 412.5,364.5 423.5,364.5C 420.709,366.735 417.709,368.735 414.5,370.5C 402.988,370.828 391.654,370.495 380.5,369.5C 383.833,367.833 387.167,366.167 390.5,364.5 Z"/></g>
<g><path style="opacity:1" fill="#e6bb5c" d="M 380.5,369.5 C 391.654,370.495 402.988,370.828 414.5,370.5C 414.158,371.338 413.492,371.672 412.5,371.5C 400.988,371.828 389.654,371.495 378.5,370.5C 379.167,370.167 379.833,369.833 380.5,369.5 Z"/></g>
<g><path style="opacity:1" fill="#e1d3a3" d="M 78.5,371.5 C 84.0021,375.085 89.6688,378.419 95.5,381.5C 89.1667,381.5 82.8333,381.5 76.5,381.5C 70.5648,378.864 64.8982,375.698 59.5,372C 65.8246,371.5 72.1579,371.334 78.5,371.5 Z"/></g>
<g><path style="opacity:1" fill="#cdb878" d="M 103.5,370.5 C 111.564,374.202 119.564,377.868 127.5,381.5C 116.833,381.5 106.167,381.5 95.5,381.5C 89.6688,378.419 84.0021,375.085 78.5,371.5C 87.0168,371.826 95.3501,371.493 103.5,370.5 Z"/></g>
<g><path style="opacity:1" fill="#dece9c" d="M 378.5,370.5 C 389.654,371.495 400.988,371.828 412.5,371.5C 407.006,375.082 401.339,378.415 395.5,381.5C 381.833,381.5 368.167,381.5 354.5,381.5C 362.674,378.416 370.674,374.749 378.5,370.5 Z"/></g>
<g><path style="opacity:1" fill="#eea414" d="M 76.5,381.5 C 82.8333,381.5 89.1667,381.5 95.5,381.5C 106.167,381.5 116.833,381.5 127.5,381.5C 128.791,381.263 129.791,381.596 130.5,382.5C 120.161,382.334 109.828,382.5 99.5,383C 103.402,384.565 107.069,386.398 110.5,388.5C 103.167,388.5 95.8333,388.5 88.5,388.5C 83.9758,386.957 79.9758,384.623 76.5,381.5 Z"/></g>
<g><path style="opacity:1" fill="#df8607" d="M 130.5,382.5 C 136.385,384.573 142.385,386.239 148.5,387.5C 136.678,388.495 124.678,388.828 112.5,388.5C 111.833,388.5 111.167,388.5 110.5,388.5C 107.069,386.398 103.402,384.565 99.5,383C 109.828,382.5 120.161,382.334 130.5,382.5 Z"/></g>
<g><path style="opacity:1" fill="#df8910" d="M 351.5,382.5 C 355.846,382.334 360.179,382.501 364.5,383C 361.102,384.357 358.102,386.19 355.5,388.5C 354.833,388.5 354.167,388.5 353.5,388.5C 346.978,388.823 340.645,388.49 334.5,387.5C 340.212,385.989 345.879,384.322 351.5,382.5 Z"/></g>
<g><path style="opacity:1" fill="#f1a612" d="M 351.5,382.5 C 352.209,381.596 353.209,381.263 354.5,381.5C 368.167,381.5 381.833,381.5 395.5,381.5C 392.106,384.221 388.439,386.554 384.5,388.5C 374.833,388.5 365.167,388.5 355.5,388.5C 358.102,386.19 361.102,384.357 364.5,383C 360.179,382.501 355.846,382.334 351.5,382.5 Z"/></g>
<g><path style="opacity:1" fill="#bea868" d="M 457.5,344.5 C 451.078,349.557 444.411,354.39 437.5,359C 379.637,395.768 320.97,431.268 261.5,465.5C 263.72,462.713 266.386,460.38 269.5,458.5C 273.836,456.668 277.836,454.335 281.5,451.5C 287.373,448.069 293.04,444.402 298.5,440.5C 301.817,438.863 305.15,437.196 308.5,435.5C 309.338,435.158 309.672,434.492 309.5,433.5C 315.668,430.92 321.335,427.586 326.5,423.5C 330.836,421.668 334.836,419.335 338.5,416.5C 344.206,413.653 349.539,410.32 354.5,406.5C 355.492,406.672 356.158,406.338 356.5,405.5C 360.173,404 363.506,402 366.5,399.5C 367.167,399.5 367.5,399.167 367.5,398.5C 373.339,395.415 379.006,392.082 384.5,388.5C 388.439,386.554 392.106,384.221 395.5,381.5C 401.339,378.415 407.006,375.082 412.5,371.5C 413.492,371.672 414.158,371.338 414.5,370.5C 417.709,368.735 420.709,366.735 423.5,364.5C 429.842,361.332 435.842,357.665 441.5,353.5C 444.661,352.087 447.661,350.42 450.5,348.5C 451.338,348.158 451.672,347.492 451.5,346.5C 453.5,345.833 455.5,345.167 457.5,344.5 Z"/></g>
<g><path style="opacity:1" fill="#e1d3a4" d="M 88.5,388.5 C 95.8333,388.5 103.167,388.5 110.5,388.5C 111.167,388.5 111.833,388.5 112.5,388.5C 119.627,391.891 126.961,395.057 134.5,398C 124.839,398.5 115.172,398.666 105.5,398.5C 99.3315,395.92 93.6649,392.586 88.5,388.5 Z"/></g>
<g><path style="opacity:1" fill="#cfb875" d="M 148.5,387.5 C 172.42,394.654 196.753,398.654 221.5,399.5C 194.5,399.5 167.5,399.5 140.5,399.5C 129.167,399.5 117.833,399.5 106.5,399.5C 105.833,399.5 105.5,399.167 105.5,398.5C 115.172,398.666 124.839,398.5 134.5,398C 126.961,395.057 119.627,391.891 112.5,388.5C 124.678,388.828 136.678,388.495 148.5,387.5 Z"/></g>
<g><path style="opacity:1" fill="#d0b976" d="M 334.5,387.5 C 340.645,388.49 346.978,388.823 353.5,388.5C 347.72,391.892 341.72,395.059 335.5,398C 346.161,398.5 356.828,398.667 367.5,398.5C 367.5,399.167 367.167,399.5 366.5,399.5C 354.5,399.5 342.5,399.5 330.5,399.5C 308.833,399.5 287.167,399.5 265.5,399.5C 288.807,397.873 311.807,393.873 334.5,387.5 Z"/></g>
<g><path style="opacity:1" fill="#e1d3a4" d="M 353.5,388.5 C 354.167,388.5 354.833,388.5 355.5,388.5C 365.167,388.5 374.833,388.5 384.5,388.5C 379.006,392.082 373.339,395.415 367.5,398.5C 356.828,398.667 346.161,398.5 335.5,398C 341.72,395.059 347.72,391.892 353.5,388.5 Z"/></g>
<g><path style="opacity:1" fill="#f3a401" d="M 106.5,399.5 C 117.833,399.5 129.167,399.5 140.5,399.5C 145.436,401.651 150.436,403.651 155.5,405.5C 142.163,405.667 128.829,405.5 115.5,405C 112.328,403.303 109.328,401.47 106.5,399.5 Z"/></g>
<g><path style="opacity:1" fill="#e08607" d="M 140.5,399.5 C 167.5,399.5 194.5,399.5 221.5,399.5C 236.167,399.5 250.833,399.5 265.5,399.5C 287.167,399.5 308.833,399.5 330.5,399.5C 326.588,401.692 322.588,403.692 318.5,405.5C 264.167,405.5 209.833,405.5 155.5,405.5C 150.436,403.651 145.436,401.651 140.5,399.5 Z"/></g>
<g><path style="opacity:1" fill="#f3a401" d="M 330.5,399.5 C 342.5,399.5 354.5,399.5 366.5,399.5C 363.506,402 360.173,404 356.5,405.5C 343.833,405.5 331.167,405.5 318.5,405.5C 322.588,403.692 326.588,401.692 330.5,399.5 Z"/></g>
<g><path style="opacity:0.999" fill="#c5aa65" d="M -0.5,339.5 C -0.5,339.167 -0.5,338.833 -0.5,338.5C 5.16667,341.167 10.8333,343.833 16.5,346.5C 19.622,349.568 23.2886,351.902 27.5,353.5C 33.6343,357.404 39.9677,361.071 46.5,364.5C 49.4362,366.308 52.4362,368.141 55.5,370C 62.1583,370.5 68.825,370.666 75.5,370.5C 84.5,370.5 93.5,370.5 102.5,370.5C 102.833,370.5 103.167,370.5 103.5,370.5C 95.3501,371.493 87.0168,371.826 78.5,371.5C 72.1579,371.334 65.8246,371.5 59.5,372C 64.8982,375.698 70.5648,378.864 76.5,381.5C 79.9758,384.623 83.9758,386.957 88.5,388.5C 93.6649,392.586 99.3315,395.92 105.5,398.5C 105.5,399.167 105.833,399.5 106.5,399.5C 109.328,401.47 112.328,403.303 115.5,405C 128.829,405.5 142.163,405.667 155.5,405.5C 209.833,405.5 264.167,405.5 318.5,405.5C 331.167,405.5 343.833,405.5 356.5,405.5C 356.158,406.338 355.492,406.672 354.5,406.5C 340.5,406.5 326.5,406.5 312.5,406.5C 262.833,406.5 213.167,406.5 163.5,406.5C 148.496,406.333 133.496,406.5 118.5,407C 124.194,410.179 129.861,413.345 135.5,416.5C 139.164,419.335 143.164,421.668 147.5,423.5C 153.17,427.337 159.17,430.67 165.5,433.5C 165.328,434.492 165.662,435.158 166.5,435.5C 169.86,437.18 173.193,438.847 176.5,440.5C 182.57,444.558 188.903,448.225 195.5,451.5C 198.681,453.592 201.681,455.925 204.5,458.5C 200.167,456.5 195.833,454.5 191.5,452.5C 177.834,443.998 163.834,435.998 149.5,428.5C 143.031,425.098 136.697,421.431 130.5,417.5C 86.8556,391.535 43.1889,365.535 -0.5,339.5 Z"/></g>
<g><path style="opacity:1" fill="#e1d3a4" d="M 163.5,406.5 C 169.491,409.086 175.824,410.919 182.5,412C 192.34,413.341 202.007,414.841 211.5,416.5C 186.167,416.5 160.833,416.5 135.5,416.5C 129.861,413.345 124.194,410.179 118.5,407C 133.496,406.5 148.496,406.333 163.5,406.5 Z"/></g>
<g><path style="opacity:1" fill="#e1d3a4" d="M 312.5,406.5 C 326.5,406.5 340.5,406.5 354.5,406.5C 349.539,410.32 344.206,413.653 338.5,416.5C 314.833,416.5 291.167,416.5 267.5,416.5C 277.34,414.918 287.34,413.418 297.5,412C 302.796,410.673 307.796,408.839 312.5,406.5 Z"/></g>
<g><path style="opacity:1" fill="#cdb877" d="M 163.5,406.5 C 213.167,406.5 262.833,406.5 312.5,406.5C 307.796,408.839 302.796,410.673 297.5,412C 287.34,413.418 277.34,414.918 267.5,416.5C 248.833,416.5 230.167,416.5 211.5,416.5C 202.007,414.841 192.34,413.341 182.5,412C 175.824,410.919 169.491,409.086 163.5,406.5 Z"/></g>
<g><path style="opacity:1" fill="#f2a60c" d="M 135.5,416.5 C 160.833,416.5 186.167,416.5 211.5,416.5C 230.167,416.5 248.833,416.5 267.5,416.5C 291.167,416.5 314.833,416.5 338.5,416.5C 334.836,419.335 330.836,421.668 326.5,423.5C 266.833,423.5 207.167,423.5 147.5,423.5C 143.164,421.668 139.164,419.335 135.5,416.5 Z"/></g>
<g><path style="opacity:1" fill="#e1d3a4" d="M 147.5,423.5 C 207.167,423.5 266.833,423.5 326.5,423.5C 321.335,427.586 315.668,430.92 309.5,433.5C 261.5,433.5 213.5,433.5 165.5,433.5C 159.17,430.67 153.17,427.337 147.5,423.5 Z"/></g>
<g><path style="opacity:1" fill="#e9bf5e" d="M 165.5,433.5 C 213.5,433.5 261.5,433.5 309.5,433.5C 309.672,434.492 309.338,435.158 308.5,435.5C 261.167,434.167 213.833,434.167 166.5,435.5C 165.662,435.158 165.328,434.492 165.5,433.5 Z"/></g>
<g><path style="opacity:1" fill="#f3a501" d="M 166.5,435.5 C 213.833,434.167 261.167,434.167 308.5,435.5C 305.15,437.196 301.817,438.863 298.5,440.5C 257.833,440.5 217.167,440.5 176.5,440.5C 173.193,438.847 169.86,437.18 166.5,435.5 Z"/></g>
<g><path style="opacity:1" fill="#e2d3a3" d="M 176.5,440.5 C 217.167,440.5 257.833,440.5 298.5,440.5C 293.04,444.402 287.373,448.069 281.5,451.5C 252.833,451.5 224.167,451.5 195.5,451.5C 188.903,448.225 182.57,444.558 176.5,440.5 Z"/></g>
<g><path style="opacity:1" fill="#f2a711" d="M 195.5,451.5 C 224.167,451.5 252.833,451.5 281.5,451.5C 277.836,454.335 273.836,456.668 269.5,458.5C 247.833,458.5 226.167,458.5 204.5,458.5C 201.681,455.925 198.681,453.592 195.5,451.5 Z"/></g>
<g><path style="opacity:1" fill="#e0d1a3" d="M 204.5,458.5 C 226.167,458.5 247.833,458.5 269.5,458.5C 266.386,460.38 263.72,462.713 261.5,465.5C 256.867,467.483 252.534,469.983 248.5,473C 243.833,473.667 239.167,473.667 234.5,473C 225.454,469.976 216.788,466.143 208.5,461.5C 207.128,460.488 205.795,459.488 204.5,458.5 Z"/></g>
</svg>
