<?xml version="1.0" encoding="UTF-8"?>
<!DOCTYPE svg PUBLIC "-//W3C//DTD SVG 1.1//EN" "http://www.w3.org/Graphics/SVG/1.1/DTD/svg11.dtd">
<svg xmlns="http://www.w3.org/2000/svg" version="1.1" width="500px" height="500px" style="shape-rendering:geometricPrecision; text-rendering:geometricPrecision; image-rendering:optimizeQuality; fill-rule:evenodd; clip-rule:evenodd" xmlns:xlink="http://www.w3.org/1999/xlink">
<g><path style="opacity:1" fill="#1ca614" d="M 303.5,116.5 C 302.833,116.5 302.5,116.833 302.5,117.5C 299.675,125.925 297.341,134.592 295.5,143.5C 294.442,147.279 293.109,150.946 291.5,154.5C 287.589,160.749 282.922,166.415 277.5,171.5C 274.808,173.862 272.141,176.196 269.5,178.5C 267.973,178.427 266.973,179.094 266.5,180.5C 260.965,183.767 255.298,186.767 249.5,189.5C 249.931,186.551 251.098,183.884 253,181.5C 263.518,175.318 273.185,167.985 282,159.5C 286,151.5 290,143.5 294,135.5C 295.409,128.565 296.409,121.565 297,114.5C 297.803,111.756 298.803,109.089 300,106.5C 301.621,101.602 300.288,97.9349 296,95.5C 292.257,93.8636 288.423,92.5302 284.5,91.5C 282.714,91.6962 281.381,92.5295 280.5,94C 268.936,95.4789 257.769,93.9789 247,89.5C 245.441,90.0294 243.941,90.696 242.5,91.5C 237.554,97.0935 233.387,103.093 230,109.5C 230.485,116.859 231.485,124.192 233,131.5C 233.5,138.158 233.666,144.825 233.5,151.5C 232.113,157.95 230.779,164.283 229.5,170.5C 229.649,169.448 229.483,168.448 229,167.5C 226.169,172.798 224.503,178.465 224,184.5C 221.274,186.577 221.107,188.577 223.5,190.5C 224.92,193.261 225.587,196.261 225.5,199.5C 223.167,199.5 220.833,199.5 218.5,199.5C 218.736,196.171 217.903,193.171 216,190.5C 216.29,193.413 216.457,196.413 216.5,199.5C 215.167,199.5 213.833,199.5 212.5,199.5C 214.367,197.188 214.867,194.521 214,191.5C 210.518,188.201 208.351,184.201 207.5,179.5C 204.979,177.971 202.146,176.971 199,176.5C 197.5,176.667 196,176.833 194.5,177C 193.944,177.383 193.611,177.883 193.5,178.5C 192.604,177.494 191.938,177.494 191.5,178.5C 187.233,178.244 183.233,177.078 179.5,175C 178.897,173.175 178.23,171.341 177.5,169.5C 167.81,162.857 157.477,161.357 146.5,165C 143.903,168.088 143.069,171.588 144,175.5C 146.115,178.618 146.615,181.952 145.5,185.5C 143.364,184.528 142.197,182.861 142,180.5C 141.945,174.271 140.778,168.271 138.5,162.5C 138.833,162.167 139.167,161.833 139.5,161.5C 140.5,162.833 141.5,164.167 142.5,165.5C 143.492,161.174 146.159,158.508 150.5,157.5C 151.331,155.527 151.498,153.527 151,151.5C 154.436,157.138 159.269,159.138 165.5,157.5C 166.467,158.806 167.801,159.473 169.5,159.5C 174.483,161.618 179.483,163.952 184.5,166.5C 185.474,164.257 185.808,161.924 185.5,159.5C 186.473,161.948 186.806,164.615 186.5,167.5C 187.5,167.5 188.5,167.5 189.5,167.5C 189.813,162.647 190.479,157.98 191.5,153.5C 192.676,158.047 192.676,162.547 191.5,167C 193.695,167.409 195.695,166.909 197.5,165.5C 200.553,165.681 203.553,165.848 206.5,166C 208.792,162.584 210.959,159.084 213,155.5C 211.839,160.327 209.672,164.827 206.5,169C 207.711,170.578 209.045,170.745 210.5,169.5C 211.214,167.189 212.214,165.022 213.5,163C 218.333,161.834 220.167,163.667 219,168.5C 217.357,170.977 215.524,173.31 213.5,175.5C 214.531,176.7 215.365,178.034 216,179.5C 227.364,162.488 230.864,143.822 226.5,123.5C 223.499,114.001 219.999,104.667 216,95.5C 214.739,85.3272 212.739,75.3272 210,65.5C 207.619,61.5592 204.119,59.5592 199.5,59.5C 188.857,61.2439 178.523,64.0773 168.5,68C 158.774,68.1084 149.107,68.7751 139.5,70C 133.933,74.3365 131.433,80.1698 132,87.5C 130.292,89.5435 128.292,91.2101 126,92.5C 124.613,96.2147 123.78,100.048 123.5,104C 125.921,119.075 130.088,133.575 136,147.5C 136.667,149.5 136.667,151.5 136,153.5C 134.877,150.751 133.377,148.251 131.5,146C 125.918,142.711 120.252,139.711 114.5,137C 107.882,135.679 101.216,134.679 94.5,134C 90.5082,131.893 86.3415,130.393 82,129.5C 80.5,129.667 79,129.833 77.5,130C 74.7149,135.02 72.7149,140.353 71.5,146C 71.4683,147.971 72.3016,149.471 74,150.5C 74.6667,154.167 74.6667,157.833 74,161.5C 72.3369,167.484 70.6703,173.484 69,179.5C 68.3333,181.833 68.3333,184.167 69,186.5C 76.3743,193.438 84.541,199.271 93.5,204C 91.8659,204.494 90.1992,204.66 88.5,204.5C 84.5657,202.561 80.899,200.228 77.5,197.5C 74.9635,195.284 71.9635,194.117 68.5,194C 64.7406,190.257 63.5739,185.757 65,180.5C 66.8001,175.3 67.9668,169.967 68.5,164.5C 63.2468,152.443 64.9134,141.443 73.5,131.5C 75.4935,129.501 77.8268,128.001 80.5,127C 85.1667,126.333 89.8333,126.333 94.5,127C 105.845,130.665 117.179,133.999 128.5,137C 126.476,132.597 124.642,128.097 123,123.5C 119.469,120.975 117.135,117.641 116,113.5C 115.306,102.722 117.139,92.3882 121.5,82.5C 123.483,81.018 125.316,79.3513 127,77.5C 129.935,70.1039 134.435,63.9372 140.5,59C 142.649,58.4212 144.815,57.9212 147,57.5C 153.464,58.7329 159.964,59.7329 166.5,60.5C 175.593,59.1435 184.593,57.3101 193.5,55C 205.13,52.8986 213.63,57.0653 219,67.5C 223.145,79.8922 226.145,92.5588 228,105.5C 232.33,100.505 235.33,94.8379 237,88.5C 239.289,87.0137 241.789,86.0137 244.5,85.5C 250.889,87.3892 257.389,88.7225 264,89.5C 268.136,89.3437 271.969,88.177 275.5,86C 286.335,85.3367 295.169,89.1701 302,97.5C 304.726,103.645 305.226,109.979 303.5,116.5 Z"/></g>
<g><path style="opacity:1" fill="#079502" d="M 197.5,165.5 C 201.69,163.745 204.69,160.579 206.5,156C 204.943,152.004 204.109,147.838 204,143.5C 203.005,142.934 202.172,142.267 201.5,141.5C 202.463,140.637 202.463,139.97 201.5,139.5C 198.754,141.623 195.921,143.623 193,145.5C 193.458,133.823 191.792,122.49 188,111.5C 185.299,106.147 182.632,100.814 180,95.5C 179.144,87.391 177.81,79.391 176,71.5C 175.132,85.9508 178.465,99.2841 186,111.5C 188.126,116.326 189.126,121.326 189,126.5C 183.201,118.234 175.701,112.9 166.5,110.5C 177.198,115.752 185.032,123.752 190,134.5C 190.65,143.257 189.983,151.924 188,160.5C 186.653,153.631 185.82,153.298 185.5,159.5C 185.808,161.924 185.474,164.257 184.5,166.5C 179.483,163.952 174.483,161.618 169.5,159.5C 167.323,150.148 164.823,140.814 162,131.5C 160.627,128.439 158.46,126.606 155.5,126C 158.467,128.1 160.3,130.934 161,134.5C 162.981,142.087 164.481,149.754 165.5,157.5C 159.269,159.138 154.436,157.138 151,151.5C 151.498,153.527 151.331,155.527 150.5,157.5C 146.159,158.508 143.492,161.174 142.5,165.5C 141.5,164.167 140.5,162.833 139.5,161.5C 139.167,161.833 138.833,162.167 138.5,162.5C 140.778,168.271 141.945,174.271 142,180.5C 142.197,182.861 143.364,184.528 145.5,185.5C 146.615,181.952 146.115,178.618 144,175.5C 143.069,171.588 143.903,168.088 146.5,165C 157.477,161.357 167.81,162.857 177.5,169.5C 178.23,171.341 178.897,173.175 179.5,175C 183.233,177.078 187.233,178.244 191.5,178.5C 195.365,183.987 196.365,189.987 194.5,196.5C 187.038,191.548 179.205,187.215 171,183.5C 170.5,183.667 170,183.833 169.5,184C 174.591,185.866 178.925,188.699 182.5,192.5C 182.124,194.383 181.124,195.883 179.5,197C 176.226,198.202 172.893,199.202 169.5,200C 176.408,201.203 181.408,198.703 184.5,192.5C 189.832,196.501 195.498,200.001 201.5,203C 198.794,205.371 196.461,208.037 194.5,211C 187.579,212.219 180.579,212.886 173.5,213C 180.762,214.801 188.096,214.968 195.5,213.5C 195.604,215.703 196.27,217.703 197.5,219.5C 196.475,219.897 196.308,220.563 197,221.5C 200.299,225.882 204.466,228.882 209.5,230.5C 207.046,231.621 204.379,232.454 201.5,233C 201.146,234.626 201.146,236.459 201.5,238.5C 198.511,237.702 195.845,236.202 193.5,234C 191.19,233.503 188.857,233.337 186.5,233.5C 183.634,231.568 180.634,229.901 177.5,228.5C 173.361,224.532 169.027,220.699 164.5,217C 159.634,211.305 154.634,205.805 149.5,200.5C 145.32,194.806 141.654,188.806 138.5,182.5C 138.803,172.78 135.97,164.114 130,156.5C 131.788,161.177 133.621,166.01 135.5,171C 136.726,174.402 137.393,177.902 137.5,181.5C 135.941,179.392 134.608,177.059 133.5,174.5C 131.604,173.534 129.604,173.201 127.5,173.5C 123.704,169.202 119.704,165.036 115.5,161C 116.327,153.956 113.994,147.956 108.5,143C 107.833,142.333 107.167,142.333 106.5,143C 111.07,147.627 113.236,153.127 113,159.5C 104.639,150.736 94.4728,147.236 82.5,149C 88.584,148.73 94.2507,150.063 99.5,153C 107.144,157.665 113.81,163.498 119.5,170.5C 109.935,172.156 100.268,172.99 90.5,173C 95.7258,174.118 101.059,174.618 106.5,174.5C 111.549,174.475 116.549,174.142 121.5,173.5C 122.855,174.188 123.855,175.188 124.5,176.5C 123.588,178.595 122.421,180.595 121,182.5C 120.503,185.146 120.336,187.813 120.5,190.5C 120.942,194.154 121.276,197.821 121.5,201.5C 116.839,202.181 112.172,203.347 107.5,205C 112.478,204.949 117.478,204.782 122.5,204.5C 122.5,205.167 122.833,205.5 123.5,205.5C 123.5,207.167 123.5,208.833 123.5,210.5C 121.302,210.12 119.635,210.787 118.5,212.5C 117.374,213.714 116.041,214.714 114.5,215.5C 113.833,215.333 113.167,215.167 112.5,215C 109.382,210.214 105.882,205.714 102,201.5C 99.1761,202.818 96.6761,204.485 94.5,206.5C 93.8333,206.5 93.1667,206.5 92.5,206.5C 90.847,206.34 89.5137,205.674 88.5,204.5C 90.1992,204.66 91.8659,204.494 93.5,204C 84.541,199.271 76.3743,193.438 69,186.5C 68.3333,184.167 68.3333,181.833 69,179.5C 70.6703,173.484 72.3369,167.484 74,161.5C 74.6667,157.833 74.6667,154.167 74,150.5C 72.3016,149.471 71.4683,147.971 71.5,146C 72.7149,140.353 74.7149,135.02 77.5,130C 79,129.833 80.5,129.667 82,129.5C 86.3415,130.393 90.5082,131.893 94.5,134C 101.216,134.679 107.882,135.679 114.5,137C 120.252,139.711 125.918,142.711 131.5,146C 133.377,148.251 134.877,150.751 136,153.5C 136.667,151.5 136.667,149.5 136,147.5C 130.088,133.575 125.921,119.075 123.5,104C 123.78,100.048 124.613,96.2147 126,92.5C 128.292,91.2101 130.292,89.5435 132,87.5C 131.433,80.1698 133.933,74.3365 139.5,70C 149.107,68.7751 158.774,68.1084 168.5,68C 178.523,64.0773 188.857,61.2439 199.5,59.5C 204.119,59.5592 207.619,61.5592 210,65.5C 212.739,75.3272 214.739,85.3272 216,95.5C 219.999,104.667 223.499,114.001 226.5,123.5C 230.864,143.822 227.364,162.488 216,179.5C 215.365,178.034 214.531,176.7 213.5,175.5C 215.524,173.31 217.357,170.977 219,168.5C 220.167,163.667 218.333,161.834 213.5,163C 212.214,165.022 211.214,167.189 210.5,169.5C 209.045,170.745 207.711,170.578 206.5,169C 209.672,164.827 211.839,160.327 213,155.5C 210.959,159.084 208.792,162.584 206.5,166C 203.553,165.848 200.553,165.681 197.5,165.5 Z"/></g>
<g><path style="opacity:1" fill="#00a300" d="M 187.5,86.5 C 189.92,86.2924 192.253,86.6258 194.5,87.5C 200.198,93.0325 205.365,99.0325 210,105.5C 211.577,110.079 210.077,113.079 205.5,114.5C 203.893,114.363 202.559,113.696 201.5,112.5C 197.58,106.326 193.413,100.326 189,94.5C 187.748,91.9865 187.248,89.3198 187.5,86.5 Z"/></g>
<g><path style="opacity:1" fill="#009402" d="M 249.5,189.5 C 248.833,190.167 248.167,190.833 247.5,191.5C 241.775,191.964 236.442,193.631 231.5,196.5C 232.434,192.627 233.934,188.961 236,185.5C 238.007,184.331 240.173,183.665 242.5,183.5C 242.66,181.801 242.494,180.134 242,178.5C 240.536,177.541 239.703,176.208 239.5,174.5C 242.472,170.062 245.806,165.895 249.5,162C 248.906,161.536 248.239,161.369 247.5,161.5C 257.374,160.396 266.541,157.063 275,151.5C 275.667,150.833 275.667,150.167 275,149.5C 267.698,154.934 259.531,157.767 250.5,158C 256.833,151 263.167,144 269.5,137C 277.001,136.998 283.168,134.165 288,128.5C 288.667,127.833 288.667,127.167 288,126.5C 283.502,131.328 278.002,133.828 271.5,134C 279.882,125.421 283.216,115.254 281.5,103.5C 281.018,109.012 279.851,114.345 278,119.5C 273.532,127.416 267.865,134.416 261,140.5C 259.837,138.715 259.17,136.715 259,134.5C 258.831,126.812 258.331,119.145 257.5,111.5C 256.766,122.491 256.599,133.491 257,144.5C 252.634,149.695 248.134,154.695 243.5,159.5C 245.321,149.54 245.655,139.54 244.5,129.5C 243.811,138.351 242.811,147.017 241.5,155.5C 240.542,155.047 239.708,154.381 239,153.5C 238.493,148.111 237.66,142.777 236.5,137.5C 235.808,138.025 235.308,138.692 235,139.5C 234.824,143.688 234.324,147.688 233.5,151.5C 233.666,144.825 233.5,138.158 233,131.5C 231.485,124.192 230.485,116.859 230,109.5C 233.387,103.093 237.554,97.0935 242.5,91.5C 243.941,90.696 245.441,90.0294 247,89.5C 257.769,93.9789 268.936,95.4789 280.5,94C 281.381,92.5295 282.714,91.6962 284.5,91.5C 288.423,92.5302 292.257,93.8636 296,95.5C 300.288,97.9349 301.621,101.602 300,106.5C 298.803,109.089 297.803,111.756 297,114.5C 296.409,121.565 295.409,128.565 294,135.5C 290,143.5 286,151.5 282,159.5C 273.185,167.985 263.518,175.318 253,181.5C 251.098,183.884 249.931,186.551 249.5,189.5 Z"/></g>
<g><path style="opacity:0.999" fill="#f7f7f6" d="M 327.5,120.5 C 327.423,121.75 326.756,122.583 325.5,123C 321.858,123.914 318.192,124.748 314.5,125.5C 315.84,129.51 317.174,133.51 318.5,137.5C 318.423,139.299 317.923,140.966 317,142.5C 313.672,145.333 310.005,147.666 306,149.5C 300.205,157.309 295.205,165.643 291,174.5C 290.013,170.525 290.513,166.859 292.5,163.5C 295.075,158.255 298.075,153.255 301.5,148.5C 299.604,147.534 297.604,147.201 295.5,147.5C 296.686,146.039 296.686,144.705 295.5,143.5C 297.341,134.592 299.675,125.925 302.5,117.5C 303.167,117.5 303.5,117.167 303.5,116.5C 308.845,112.707 314.845,111.54 321.5,113C 324.577,114.662 326.577,117.162 327.5,120.5 Z"/></g>
<g><path style="opacity:1" fill="#ebeae9" d="M 327.5,120.5 C 328.742,124.41 331.409,126.41 335.5,126.5C 330.302,128.133 324.969,129.633 319.5,131C 324.63,133.419 328.296,137.252 330.5,142.5C 331.167,141.167 331.833,139.833 332.5,138.5C 336.288,140.256 340.288,140.922 344.5,140.5C 343.851,145.136 343.351,149.802 343,154.5C 342.125,157.215 340.292,158.548 337.5,158.5C 336.425,157.438 335.425,157.438 334.5,158.5C 333.028,161.945 331.694,165.445 330.5,169C 330.57,169.765 330.903,170.265 331.5,170.5C 330.4,171.605 329.733,172.938 329.5,174.5C 328.391,174.443 327.391,174.11 326.5,173.5C 327.063,167.929 328.229,162.595 330,157.5C 325.208,161.135 321.708,165.802 319.5,171.5C 317.5,171.5 315.5,171.5 313.5,171.5C 314.575,167.235 315.075,162.902 315,158.5C 312.293,162.581 310.126,166.914 308.5,171.5C 305.69,172.199 303.023,173.199 300.5,174.5C 303.023,168.267 305.356,161.934 307.5,155.5C 307.154,154.304 306.654,154.304 306,155.5C 300.667,164.167 295.333,172.833 290,181.5C 289.503,184.146 289.336,186.813 289.5,189.5C 289.719,190.675 289.386,191.675 288.5,192.5C 287.702,190.922 287.202,189.256 287,187.5C 285.382,191.772 282.215,193.772 277.5,193.5C 278.364,186.142 278.364,178.808 277.5,171.5C 282.922,166.415 287.589,160.749 291.5,154.5C 292.167,154.5 292.833,154.5 293.5,154.5C 292.199,157.588 291.865,160.588 292.5,163.5C 290.513,166.859 290.013,170.525 291,174.5C 295.205,165.643 300.205,157.309 306,149.5C 310.005,147.666 313.672,145.333 317,142.5C 317.923,140.966 318.423,139.299 318.5,137.5C 317.174,133.51 315.84,129.51 314.5,125.5C 318.192,124.748 321.858,123.914 325.5,123C 326.756,122.583 327.423,121.75 327.5,120.5 Z"/></g>
<g><path style="opacity:1" fill="#fdfcfc" d="M 387.5,134.5 C 387.389,135.117 387.056,135.617 386.5,136C 382.463,136.607 378.463,136.44 374.5,135.5C 378.312,148.851 373.312,156.017 359.5,157C 352,163.167 345.167,170 339,177.5C 339.274,173.932 340.44,170.599 342.5,167.5C 347.07,163.318 351.403,158.984 355.5,154.5C 365.906,155.258 370.739,150.592 370,140.5C 367.008,137.701 365.008,134.368 364,130.5C 363,131.5 362,132.5 361,133.5C 360.195,137.874 358.528,141.874 356,145.5C 354.992,145.982 353.825,146.148 352.5,146C 345.173,155.986 339.507,166.82 335.5,178.5C 333.205,177.525 331.205,176.192 329.5,174.5C 329.733,172.938 330.4,171.605 331.5,170.5C 332.975,166.217 334.975,162.217 337.5,158.5C 340.292,158.548 342.125,157.215 343,154.5C 343.351,149.802 343.851,145.136 344.5,140.5C 340.288,140.922 336.288,140.256 332.5,138.5C 331.833,139.833 331.167,141.167 330.5,142.5C 328.296,137.252 324.63,133.419 319.5,131C 324.969,129.633 330.302,128.133 335.5,126.5C 344.733,128.971 354.067,129.138 363.5,127C 369.949,121.639 376.782,121.139 384,125.5C 386.287,128.072 387.453,131.072 387.5,134.5 Z"/></g>
<g><path style="opacity:1" fill="#018204" d="M 241.5,155.5 C 241.5,156.833 241.5,158.167 241.5,159.5C 238.633,166.175 234.467,172.175 229,177.5C 228.982,175.203 229.149,172.869 229.5,170.5C 230.779,164.283 232.113,157.95 233.5,151.5C 234.324,147.688 234.824,143.688 235,139.5C 235.308,138.692 235.808,138.025 236.5,137.5C 237.66,142.777 238.493,148.111 239,153.5C 239.708,154.381 240.542,155.047 241.5,155.5 Z"/></g>
<g><path style="opacity:1" fill="#008001" d="M 201.5,141.5 C 202.172,142.267 203.005,142.934 204,143.5C 204.109,147.838 204.943,152.004 206.5,156C 204.69,160.579 201.69,163.745 197.5,165.5C 195.695,166.909 193.695,167.409 191.5,167C 192.676,162.547 192.676,158.047 191.5,153.5C 191.39,150.941 192.056,148.608 193.5,146.5C 196.195,144.822 198.861,143.156 201.5,141.5 Z"/></g>
<g><path style="opacity:1" fill="#eeeceb" d="M 355.5,154.5 C 354.057,153.297 352.391,152.797 350.5,153C 346.921,157.325 344.254,162.158 342.5,167.5C 340.44,170.599 339.274,173.932 339,177.5C 345.167,170 352,163.167 359.5,157C 373.312,156.017 378.312,148.851 374.5,135.5C 378.463,136.44 382.463,136.607 386.5,136C 387.056,135.617 387.389,135.117 387.5,134.5C 388.29,135.609 388.79,136.942 389,138.5C 401.314,143.649 403.814,151.815 396.5,163C 399.745,166.509 401.412,170.676 401.5,175.5C 399.319,175.284 397.653,176.117 396.5,178C 398.708,178.191 400.708,178.691 402.5,179.5C 400.143,179.337 397.81,179.503 395.5,180C 391.749,183.726 387.749,184.226 383.5,181.5C 383.38,180.414 382.713,179.747 381.5,179.5C 371.552,182.475 362.552,187.141 354.5,193.5C 352.833,193.5 351.167,193.5 349.5,193.5C 356.292,185.538 363.292,177.704 370.5,170C 369.646,168.978 368.646,168.145 367.5,167.5C 358.926,174.736 352.259,183.403 347.5,193.5C 346.12,194.706 344.953,194.373 344,192.5C 342.991,190.975 342.491,189.308 342.5,187.5C 348.973,180.19 354.139,172.19 358,163.5C 350.996,169.338 344.496,175.671 338.5,182.5C 337.512,181.205 336.512,179.872 335.5,178.5C 339.507,166.82 345.173,155.986 352.5,146C 353.825,146.148 354.992,145.982 356,145.5C 358.528,141.874 360.195,137.874 361,133.5C 362,132.5 363,131.5 364,130.5C 365.008,134.368 367.008,137.701 370,140.5C 370.739,150.592 365.906,155.258 355.5,154.5 Z M 388.5,161.5 C 390.308,161.491 391.975,161.991 393.5,163C 392.667,163.167 391.833,163.333 391,163.5C 389.624,163.316 388.791,162.649 388.5,161.5 Z"/></g>
<g><path style="opacity:1" fill="#a56d50" d="M 295.5,147.5 C 297.604,147.201 299.604,147.534 301.5,148.5C 298.075,153.255 295.075,158.255 292.5,163.5C 291.865,160.588 292.199,157.588 293.5,154.5C 293.878,152.079 294.545,149.746 295.5,147.5 Z"/></g>
<g><path style="opacity:1" fill="#21d559" d="M 243.5,159.5 C 243.062,160.506 242.396,160.506 241.5,159.5C 241.5,158.167 241.5,156.833 241.5,155.5C 242.811,147.017 243.811,138.351 244.5,129.5C 245.655,139.54 245.321,149.54 243.5,159.5 Z"/></g>
<g><path style="opacity:1" fill="#2aef7d" d="M 201.5,141.5 C 198.861,143.156 196.195,144.822 193.5,146.5C 192.056,148.608 191.39,150.941 191.5,153.5C 190.479,157.98 189.813,162.647 189.5,167.5C 188.5,167.5 187.5,167.5 186.5,167.5C 186.806,164.615 186.473,161.948 185.5,159.5C 185.82,153.298 186.653,153.631 188,160.5C 189.983,151.924 190.65,143.257 190,134.5C 185.032,123.752 177.198,115.752 166.5,110.5C 175.701,112.9 183.201,118.234 189,126.5C 189.126,121.326 188.126,116.326 186,111.5C 178.465,99.2841 175.132,85.9508 176,71.5C 177.81,79.391 179.144,87.391 180,95.5C 182.632,100.814 185.299,106.147 188,111.5C 191.792,122.49 193.458,133.823 193,145.5C 195.921,143.623 198.754,141.623 201.5,139.5C 202.463,139.97 202.463,140.637 201.5,141.5 Z"/></g>
<g><path style="opacity:1" fill="#2af27f" d="M 169.5,159.5 C 167.801,159.473 166.467,158.806 165.5,157.5C 164.481,149.754 162.981,142.087 161,134.5C 160.3,130.934 158.467,128.1 155.5,126C 158.46,126.606 160.627,128.439 162,131.5C 164.823,140.814 167.323,150.148 169.5,159.5 Z"/></g>
<g><path style="opacity:1" fill="#d68b65" d="M 355.5,154.5 C 351.403,158.984 347.07,163.318 342.5,167.5C 344.254,162.158 346.921,157.325 350.5,153C 352.391,152.797 354.057,153.297 355.5,154.5 Z"/></g>
<g><path style="opacity:1" fill="#a9775d" d="M 337.5,158.5 C 334.975,162.217 332.975,166.217 331.5,170.5C 330.903,170.265 330.57,169.765 330.5,169C 331.694,165.445 333.028,161.945 334.5,158.5C 335.425,157.438 336.425,157.438 337.5,158.5 Z"/></g>
<g><path style="opacity:1" fill="#7e4a2f" d="M 313.5,171.5 C 311.833,171.5 310.167,171.5 308.5,171.5C 310.126,166.914 312.293,162.581 315,158.5C 315.075,162.902 314.575,167.235 313.5,171.5 Z"/></g>
<g><path style="opacity:1" fill="#2af180" d="M 127.5,173.5 C 126.833,174.833 125.833,175.833 124.5,176.5C 123.855,175.188 122.855,174.188 121.5,173.5C 116.549,174.142 111.549,174.475 106.5,174.5C 101.059,174.618 95.7258,174.118 90.5,173C 100.268,172.99 109.935,172.156 119.5,170.5C 113.81,163.498 107.144,157.665 99.5,153C 94.2507,150.063 88.584,148.73 82.5,149C 94.4728,147.236 104.639,150.736 113,159.5C 113.236,153.127 111.07,147.627 106.5,143C 107.167,142.333 107.833,142.333 108.5,143C 113.994,147.956 116.327,153.956 115.5,161C 119.704,165.036 123.704,169.202 127.5,173.5 Z"/></g>
<g><path style="opacity:1" fill="#814b30" d="M 326.5,173.5 C 324.167,172.833 321.833,172.167 319.5,171.5C 321.708,165.802 325.208,161.135 330,157.5C 328.229,162.595 327.063,167.929 326.5,173.5 Z"/></g>
<g><path style="opacity:1" fill="#2bef7c" d="M 138.5,182.5 C 137.833,182.5 137.5,182.167 137.5,181.5C 137.393,177.902 136.726,174.402 135.5,171C 133.621,166.01 131.788,161.177 130,156.5C 135.97,164.114 138.803,172.78 138.5,182.5 Z"/></g>
<g><path style="opacity:1" fill="#038306" d="M 247.5,161.5 C 248.239,161.369 248.906,161.536 249.5,162C 245.806,165.895 242.472,170.062 239.5,174.5C 239.703,176.208 240.536,177.541 242,178.5C 242.494,180.134 242.66,181.801 242.5,183.5C 240.173,183.665 238.007,184.331 236,185.5C 233.934,188.961 232.434,192.627 231.5,196.5C 231.167,197.5 230.5,198.167 229.5,198.5C 228.053,197.115 227.053,197.448 226.5,199.5C 226.167,199.5 225.833,199.5 225.5,199.5C 225.587,196.261 224.92,193.261 223.5,190.5C 231.47,180.858 239.47,171.191 247.5,161.5 Z"/></g>
<g><path style="opacity:1" fill="#ba7857" d="M 376.5,171.5 C 378.609,172.052 379.442,173.386 379,175.5C 375.439,177.23 371.939,178.73 368.5,180C 371.371,177.297 374.038,174.464 376.5,171.5 Z"/></g>
<g><path style="opacity:1" fill="#8c5539" d="M 349.5,193.5 C 348.833,193.5 348.167,193.5 347.5,193.5C 352.259,183.403 358.926,174.736 367.5,167.5C 368.646,168.145 369.646,168.978 370.5,170C 363.292,177.704 356.292,185.538 349.5,193.5 Z"/></g>
<g><path style="opacity:1" fill="#e59d78" d="M 401.5,175.5 C 404.582,177.372 407.249,179.705 409.5,182.5C 407.313,181.242 404.98,180.242 402.5,179.5C 400.708,178.691 398.708,178.191 396.5,178C 397.653,176.117 399.319,175.284 401.5,175.5 Z"/></g>
<g><path style="opacity:1" fill="#7c492d" d="M 277.5,171.5 C 278.364,178.808 278.364,186.142 277.5,193.5C 275.833,194.167 274.167,194.833 272.5,195.5C 271.037,189.928 270.037,184.261 269.5,178.5C 272.141,176.196 274.808,173.862 277.5,171.5 Z"/></g>
<g><path style="opacity:1" fill="#824d31" d="M 342.5,187.5 C 340.457,186.421 339.124,184.754 338.5,182.5C 344.496,175.671 350.996,169.338 358,163.5C 354.139,172.19 348.973,180.19 342.5,187.5 Z"/></g>
<g><path style="opacity:1" fill="#f6f4f3" d="M 402.5,179.5 C 404.98,180.242 407.313,181.242 409.5,182.5C 411.716,183.203 413.549,184.536 415,186.5C 417.5,189.667 420,192.833 422.5,196C 434.974,198.502 439.641,205.669 436.5,217.5C 434.036,219.135 432.036,221.301 430.5,224C 434.728,234.042 431.728,240.876 421.5,244.5C 419.539,242.688 417.206,241.688 414.5,241.5C 413.819,232.52 413.319,223.52 413,214.5C 412.5,214 412,213.5 411.5,213C 400.607,211.061 389.607,210.228 378.5,210.5C 374.461,205.46 369.794,201.127 364.5,197.5C 369.241,194.798 374.241,192.631 379.5,191C 377.203,189.737 376.37,187.903 377,185.5C 378.972,183.768 381.139,182.435 383.5,181.5C 387.749,184.226 391.749,183.726 395.5,180C 397.81,179.503 400.143,179.337 402.5,179.5 Z"/></g>
<g><path style="opacity:1" fill="#2bf685" d="M 247.5,161.5 C 239.47,171.191 231.47,180.858 223.5,190.5C 221.107,188.577 221.274,186.577 224,184.5C 224.503,178.465 226.169,172.798 229,167.5C 229.483,168.448 229.649,169.448 229.5,170.5C 229.149,172.869 228.982,175.203 229,177.5C 234.467,172.175 238.633,166.175 241.5,159.5C 242.396,160.506 243.062,160.506 243.5,159.5C 248.134,154.695 252.634,149.695 257,144.5C 256.599,133.491 256.766,122.491 257.5,111.5C 258.331,119.145 258.831,126.812 259,134.5C 259.17,136.715 259.837,138.715 261,140.5C 267.865,134.416 273.532,127.416 278,119.5C 279.851,114.345 281.018,109.012 281.5,103.5C 283.216,115.254 279.882,125.421 271.5,134C 278.002,133.828 283.502,131.328 288,126.5C 288.667,127.167 288.667,127.833 288,128.5C 283.168,134.165 277.001,136.998 269.5,137C 263.167,144 256.833,151 250.5,158C 259.531,157.767 267.698,154.934 275,149.5C 275.667,150.167 275.667,150.833 275,151.5C 266.541,157.063 257.374,160.396 247.5,161.5 Z"/></g>
<g><path style="opacity:1" fill="#814b30" d="M 300.5,174.5 C 295.096,178.339 291.43,183.339 289.5,189.5C 289.336,186.813 289.503,184.146 290,181.5C 295.333,172.833 300.667,164.167 306,155.5C 306.654,154.304 307.154,154.304 307.5,155.5C 305.356,161.934 303.023,168.267 300.5,174.5 Z"/></g>
<g><path style="opacity:1" fill="#78482a" d="M 266.5,180.5 C 267.63,185.888 268.963,191.222 270.5,196.5C 269.71,197.401 268.71,198.068 267.5,198.5C 266.354,196.525 264.687,195.025 262.5,194C 257.637,192.327 252.637,191.494 247.5,191.5C 248.167,190.833 248.833,190.167 249.5,189.5C 255.298,186.767 260.965,183.767 266.5,180.5 Z"/></g>
<g><path style="opacity:1" fill="#814b30" d="M 383.5,181.5 C 381.139,182.435 378.972,183.768 377,185.5C 376.37,187.903 377.203,189.737 379.5,191C 374.241,192.631 369.241,194.798 364.5,197.5C 361.296,196.099 357.963,195.099 354.5,194.5C 354.5,194.167 354.5,193.833 354.5,193.5C 362.552,187.141 371.552,182.475 381.5,179.5C 382.713,179.747 383.38,180.414 383.5,181.5 Z"/></g>
<g><path style="opacity:1" fill="#139502" d="M 212.5,199.5 C 209.687,199.548 207.021,200.215 204.5,201.5C 202.587,200.627 200.753,199.627 199,198.5C 198.281,191.523 196.448,184.856 193.5,178.5C 193.611,177.883 193.944,177.383 194.5,177C 196,176.833 197.5,176.667 199,176.5C 202.146,176.971 204.979,177.971 207.5,179.5C 208.351,184.201 210.518,188.201 214,191.5C 214.867,194.521 214.367,197.188 212.5,199.5 Z"/></g>
<g><path style="opacity:1" fill="#e1d9d4" d="M 269.5,178.5 C 270.037,184.261 271.037,189.928 272.5,195.5C 272.158,196.338 271.492,196.672 270.5,196.5C 268.963,191.222 267.63,185.888 266.5,180.5C 266.973,179.094 267.973,178.427 269.5,178.5 Z"/></g>
<g><path style="opacity:1" fill="#ef6941" d="M 354.5,194.5 C 357.963,195.099 361.296,196.099 364.5,197.5C 369.794,201.127 374.461,205.46 378.5,210.5C 375.782,218.593 374.282,226.927 374,235.5C 372.955,234.627 372.122,233.627 371.5,232.5C 373.144,228.042 372.311,224.042 369,220.5C 362.637,212.965 354.804,207.631 345.5,204.5C 344.945,201.647 345.778,198.981 348,196.5C 349.897,194.984 352.064,194.317 354.5,194.5 Z"/></g>
<g><path style="opacity:1" fill="#895d47" d="M 379.5,194.5 C 380.5,194.5 381.5,194.5 382.5,194.5C 382.5,195.5 382.5,196.5 382.5,197.5C 378.089,197.861 373.756,198.361 369.5,199C 373.042,197.725 376.375,196.225 379.5,194.5 Z"/></g>
<g><path style="opacity:1" fill="#04a905" d="M 265.5,201.5 C 262.44,205.289 260.773,209.622 260.5,214.5C 252.88,216.829 245.214,216.996 237.5,215C 230.661,212.843 228.161,208.343 230,201.5C 235.071,195.419 241.571,192.752 249.5,193.5C 255.531,192.677 260.698,194.344 265,198.5C 265.483,199.448 265.649,200.448 265.5,201.5 Z"/></g>
<g><path style="opacity:1" fill="#fe9c6a" d="M 77.5,197.5 C 80.899,200.228 84.5657,202.561 88.5,204.5C 89.5137,205.674 90.847,206.34 92.5,206.5C 88.2609,210.626 85.2609,215.626 83.5,221.5C 81.7234,224.505 80.7234,227.838 80.5,231.5C 79.6993,233.042 79.366,234.708 79.5,236.5C 79.5,240.5 79.5,244.5 79.5,248.5C 81.6342,266.437 89.3009,281.437 102.5,293.5C 118.053,309.121 136.387,320.454 157.5,327.5C 178.205,336.178 199.871,341.178 222.5,342.5C 248.137,345.663 273.471,344.663 298.5,339.5C 308.716,338.538 318.716,336.538 328.5,333.5C 330.216,333.371 331.883,333.038 333.5,332.5C 340.61,330.111 347.61,327.444 354.5,324.5C 357.303,327.204 358.137,330.537 357,334.5C 354.975,338.356 352.142,341.356 348.5,343.5C 347.167,344.167 345.833,344.833 344.5,345.5C 298.657,359.431 251.99,363.098 204.5,356.5C 193.739,354.859 183.072,352.692 172.5,350C 162.236,345.695 151.903,341.862 141.5,338.5C 143.167,338.5 144.833,338.5 146.5,338.5C 146.439,336.408 145.439,334.908 143.5,334C 123.435,324.977 105.435,312.977 89.5,298C 88.2068,297.51 86.8734,297.343 85.5,297.5C 85.5,298.833 85.5,300.167 85.5,301.5C 82.4602,298.461 79.7935,295.127 77.5,291.5C 78.8149,292.476 80.1482,293.476 81.5,294.5C 81.8333,294 82.1667,293.5 82.5,293C 73.8203,280.468 68.3203,266.634 66,251.5C 65.5014,247.848 65.3347,244.182 65.5,240.5C 64.1667,240.5 62.8333,240.5 61.5,240.5C 60.791,239.596 59.791,239.263 58.5,239.5C 59.209,238.596 60.209,238.263 61.5,238.5C 62.0901,233.05 63.2568,227.717 65,222.5C 68.6871,213.792 72.8537,205.459 77.5,197.5 Z"/></g>
<g><path style="opacity:1" fill="#2ef07e" d="M 193.5,178.5 C 196.448,184.856 198.281,191.523 199,198.5C 200.753,199.627 202.587,200.627 204.5,201.5C 207.021,200.215 209.687,199.548 212.5,199.5C 213.833,199.5 215.167,199.5 216.5,199.5C 216.457,196.413 216.29,193.413 216,190.5C 217.903,193.171 218.736,196.171 218.5,199.5C 220.833,199.5 223.167,199.5 225.5,199.5C 225.833,199.5 226.167,199.5 226.5,199.5C 227.609,199.443 228.609,199.11 229.5,198.5C 230.5,198.167 231.167,197.5 231.5,196.5C 236.442,193.631 241.775,191.964 247.5,191.5C 252.637,191.494 257.637,192.327 262.5,194C 264.687,195.025 266.354,196.525 267.5,198.5C 267.573,200.027 266.906,201.027 265.5,201.5C 265.649,200.448 265.483,199.448 265,198.5C 260.698,194.344 255.531,192.677 249.5,193.5C 241.571,192.752 235.071,195.419 230,201.5C 228.161,208.343 230.661,212.843 237.5,215C 245.214,216.996 252.88,216.829 260.5,214.5C 260.5,215.167 260.5,215.833 260.5,216.5C 253.324,218.462 245.991,218.962 238.5,218C 232.012,216.449 227.679,212.615 225.5,206.5C 225.966,204.799 225.966,203.299 225.5,202C 216.119,200.101 207.619,201.934 200,207.5C 196.401,216.144 199.235,221.977 208.5,225C 215.143,226.893 221.81,226.893 228.5,225C 231.11,223.519 233.777,222.352 236.5,221.5C 235.284,223.451 233.618,224.951 231.5,226C 222.804,229.227 214.137,229.227 205.5,226C 202.213,224.533 199.546,222.366 197.5,219.5C 196.27,217.703 195.604,215.703 195.5,213.5C 188.096,214.968 180.762,214.801 173.5,213C 180.579,212.886 187.579,212.219 194.5,211C 196.461,208.037 198.794,205.371 201.5,203C 195.498,200.001 189.832,196.501 184.5,192.5C 181.408,198.703 176.408,201.203 169.5,200C 172.893,199.202 176.226,198.202 179.5,197C 181.124,195.883 182.124,194.383 182.5,192.5C 178.925,188.699 174.591,185.866 169.5,184C 170,183.833 170.5,183.667 171,183.5C 179.205,187.215 187.038,191.548 194.5,196.5C 196.365,189.987 195.365,183.987 191.5,178.5C 191.938,177.494 192.604,177.494 193.5,178.5 Z"/></g>
<g><path style="opacity:1" fill="#6c4c25" d="M 229.5,198.5 C 228.609,199.11 227.609,199.443 226.5,199.5C 227.053,197.448 228.053,197.115 229.5,198.5 Z"/></g>
<g><path style="opacity:1" fill="#32ef7e" d="M 121.5,201.5 C 121.833,201.5 122.167,201.5 122.5,201.5C 122.5,202.5 122.5,203.5 122.5,204.5C 117.478,204.782 112.478,204.949 107.5,205C 112.172,203.347 116.839,202.181 121.5,201.5 Z"/></g>
<g><path style="opacity:1" fill="#03aa06" d="M 225.5,206.5 C 224.527,206.987 223.527,207.487 222.5,208C 224.004,209.337 225.004,211.004 225.5,213C 219.571,212.017 219.238,212.851 224.5,215.5C 225.086,215.291 225.586,214.957 226,214.5C 228.701,218.252 232.201,220.585 236.5,221.5C 233.777,222.352 231.11,223.519 228.5,225C 221.81,226.893 215.143,226.893 208.5,225C 199.235,221.977 196.401,216.144 200,207.5C 207.619,201.934 216.119,200.101 225.5,202C 225.966,203.299 225.966,204.799 225.5,206.5 Z"/></g>
<g><path style="opacity:1" fill="#fb7b50" d="M 308.5,171.5 C 310.167,171.5 311.833,171.5 313.5,171.5C 315.5,171.5 317.5,171.5 319.5,171.5C 321.833,172.167 324.167,172.833 326.5,173.5C 327.391,174.11 328.391,174.443 329.5,174.5C 331.205,176.192 333.205,177.525 335.5,178.5C 336.512,179.872 337.512,181.205 338.5,182.5C 339.124,184.754 340.457,186.421 342.5,187.5C 342.491,189.308 342.991,190.975 344,192.5C 344.953,194.373 346.12,194.706 347.5,193.5C 348.167,193.5 348.833,193.5 349.5,193.5C 351.167,193.5 352.833,193.5 354.5,193.5C 354.5,193.833 354.5,194.167 354.5,194.5C 352.064,194.317 349.897,194.984 348,196.5C 345.778,198.981 344.945,201.647 345.5,204.5C 343.335,204.116 341.668,204.783 340.5,206.5C 346.55,208.941 352.05,212.274 357,216.5C 360.278,221.052 362.444,226.052 363.5,231.5C 365.099,231.232 366.432,231.566 367.5,232.5C 363.5,234.5 359.5,236.5 355.5,238.5C 354.833,235.5 354.167,232.5 353.5,229.5C 349.133,217.495 340.466,211.828 327.5,212.5C 314.689,212.654 305.189,218.321 299,229.5C 296.984,233.531 294.984,237.531 293,241.5C 292.502,244.817 292.335,248.15 292.5,251.5C 291.167,250.5 289.833,249.5 288.5,248.5C 288.154,245.398 288.821,242.565 290.5,240C 285.71,241.612 280.71,242.779 275.5,243.5C 273.81,239.303 271.143,235.803 267.5,233C 271.866,232.114 276.033,232.614 280,234.5C 280.667,233.833 280.667,233.167 280,232.5C 273.676,228.867 266.843,227.201 259.5,227.5C 259.85,224.959 259.85,222.626 259.5,220.5C 260.434,219.432 260.768,218.099 260.5,216.5C 260.5,215.833 260.5,215.167 260.5,214.5C 260.773,209.622 262.44,205.289 265.5,201.5C 266.906,201.027 267.573,200.027 267.5,198.5C 268.71,198.068 269.71,197.401 270.5,196.5C 271.492,196.672 272.158,196.338 272.5,195.5C 274.167,194.833 275.833,194.167 277.5,193.5C 282.215,193.772 285.382,191.772 287,187.5C 287.202,189.256 287.702,190.922 288.5,192.5C 289.386,191.675 289.719,190.675 289.5,189.5C 291.43,183.339 295.096,178.339 300.5,174.5C 303.023,173.199 305.69,172.199 308.5,171.5 Z"/></g>
<g><path style="opacity:1" fill="#fb976b" d="M 293.5,195.5 C 295.288,195.215 296.955,195.548 298.5,196.5C 296.623,197.06 294.623,198.227 292.5,200C 287.833,200.333 283.167,200.667 278.5,201C 281.817,201.498 285.15,201.665 288.5,201.5C 288.477,204.457 287.477,206.957 285.5,209C 286.76,210.814 286.76,212.647 285.5,214.5C 281.558,216.938 278.058,219.938 275,223.5C 274.416,220.743 274.75,218.077 276,215.5C 278.704,211.42 281.871,207.753 285.5,204.5C 283.833,204.167 282.167,203.833 280.5,203.5C 264.961,206.841 264.627,205.341 279.5,199C 283.5,198.667 287.5,198.333 291.5,198C 292.381,197.292 293.047,196.458 293.5,195.5 Z"/></g>
<g><path style="opacity:1" fill="#eb9f83" d="M 338.5,199.5 C 336.515,199.863 334.181,200.53 331.5,201.5C 332.668,203.217 334.335,203.884 336.5,203.5C 336.5,204.5 336.5,205.5 336.5,206.5C 332.486,206.666 328.486,206.499 324.5,206C 322.093,203.817 319.76,201.65 317.5,199.5C 318.167,199.5 318.833,199.5 319.5,199.5C 323.167,199.5 326.833,199.5 330.5,199.5C 330.664,193.512 333.164,192.179 338,195.5C 338.49,196.793 338.657,198.127 338.5,199.5 Z"/></g>
<g><path style="opacity:1" fill="#f3b69e" d="M 328.5,178.5 C 331.643,179.134 334.143,180.8 336,183.5C 339.397,187.288 341.397,191.621 342,196.5C 340.961,197.71 339.794,198.71 338.5,199.5C 338.657,198.127 338.49,196.793 338,195.5C 333.164,192.179 330.664,193.512 330.5,199.5C 326.833,199.5 323.167,199.5 319.5,199.5C 325.409,193.78 328.409,186.78 328.5,178.5 Z"/></g>
<g><path style="opacity:1" fill="#fdd6c0" d="M 328.5,178.5 C 328.409,186.78 325.409,193.78 319.5,199.5C 318.833,199.5 318.167,199.5 317.5,199.5C 310.57,197.317 303.57,195.317 296.5,193.5C 299.831,179.157 308.831,173.323 323.5,176C 325.315,176.757 326.981,177.59 328.5,178.5 Z"/></g>
<g><path style="opacity:1" fill="#7f4c33" d="M 387.5,203.5 C 390.572,203.183 393.572,203.516 396.5,204.5C 397.246,205.736 397.579,207.07 397.5,208.5C 391.461,207.995 385.461,207.162 379.5,206C 382.31,205.218 384.977,204.384 387.5,203.5 Z"/></g>
<g><path style="opacity:1" fill="#fcd3bd" d="M 298.5,208.5 C 296.766,212.998 295.266,217.664 294,222.5C 292.985,226.44 292.485,230.44 292.5,234.5C 292.607,236.379 292.107,236.712 291,235.5C 289.717,228.202 289.383,220.869 290,213.5C 291.096,208.532 293.929,206.865 298.5,208.5 Z"/></g>
<g><path style="opacity:1" fill="#f5878c" d="M 97.5,210.5 C 99.8568,210.337 102.19,210.503 104.5,211C 106.155,212.444 106.822,214.278 106.5,216.5C 105.58,220.254 107.247,221.92 111.5,221.5C 111.216,223.415 111.549,225.081 112.5,226.5C 112.833,227.167 113.167,227.833 113.5,228.5C 112.791,229.404 111.791,229.737 110.5,229.5C 106.542,223.708 101.709,218.708 96,214.5C 95.2274,212.648 95.7274,211.314 97.5,210.5 Z"/></g>
<g><path style="opacity:1" fill="#fce9a1" d="M 378.5,210.5 C 389.607,210.228 400.607,211.061 411.5,213C 412,213.5 412.5,214 413,214.5C 413.319,223.52 413.819,232.52 414.5,241.5C 417.206,241.688 419.539,242.688 421.5,244.5C 426.01,252.843 431.51,260.509 438,267.5C 438.383,266.944 438.883,266.611 439.5,266.5C 440.5,266.833 441.167,267.5 441.5,268.5C 441.046,270.259 441.046,272.259 441.5,274.5C 441.167,275.5 440.5,276.167 439.5,276.5C 440.434,274.761 440.434,273.095 439.5,271.5C 436.718,272.516 434.051,273.516 431.5,274.5C 420.197,275.626 408.864,276.292 397.5,276.5C 398.033,280.965 399.033,285.298 400.5,289.5C 400.5,291.5 400.5,293.5 400.5,295.5C 398.309,296.869 395.975,297.869 393.5,298.5C 386.47,299.927 379.47,300.26 372.5,299.5C 371.364,287.833 371.364,276.166 372.5,264.5C 378.72,262.656 385.053,261.323 391.5,260.5C 388.208,255.251 386.041,249.585 385,243.5C 382.226,242.477 379.393,242.477 376.5,243.5C 375.885,247.96 376.885,251.96 379.5,255.5C 377.146,258.688 374.312,261.355 371,263.5C 368.778,259.612 365.612,256.779 361.5,255C 357.631,250.963 353.631,247.13 349.5,243.5C 351.131,241.357 353.131,239.69 355.5,238.5C 359.5,236.5 363.5,234.5 367.5,232.5C 368.833,231.167 370.167,231.167 371.5,232.5C 372.122,233.627 372.955,234.627 374,235.5C 374.282,226.927 375.782,218.593 378.5,210.5 Z"/></g>
<g><path style="opacity:1" fill="#fdd6c1" d="M 353.5,229.5 C 350.828,238.999 345.161,246.166 336.5,251C 326.958,256.908 316.624,259.241 305.5,258C 301.085,256.957 297.085,255.124 293.5,252.5C 292.833,252.5 292.5,252.167 292.5,251.5C 292.335,248.15 292.502,244.817 293,241.5C 294.984,237.531 296.984,233.531 299,229.5C 305.189,218.321 314.689,212.654 327.5,212.5C 340.466,211.828 349.133,217.495 353.5,229.5 Z"/></g>
<g><path style="opacity:1" fill="#e63e4d" d="M 149.5,200.5 C 154.634,205.805 159.634,211.305 164.5,217C 169.027,220.699 173.361,224.532 177.5,228.5C 172.218,225.855 167.218,222.688 162.5,219C 155.406,212.479 148.406,205.979 141.5,199.5C 142.098,198.205 142.598,196.872 143,195.5C 144.777,197.79 146.944,199.457 149.5,200.5 Z"/></g>
<g><path style="opacity:1" fill="#0a8608" d="M 225.5,206.5 C 227.679,212.615 232.012,216.449 238.5,218C 245.991,218.962 253.324,218.462 260.5,216.5C 260.768,218.099 260.434,219.432 259.5,220.5C 256.615,220.194 253.948,220.527 251.5,221.5C 246.345,222.412 241.678,224.412 237.5,227.5C 237.217,226.711 236.717,226.044 236,225.5C 230.904,229.625 225.071,231.291 218.5,230.5C 217.5,230.5 216.5,230.5 215.5,230.5C 213.5,230.5 211.5,230.5 209.5,230.5C 204.466,228.882 200.299,225.882 197,221.5C 196.308,220.563 196.475,219.897 197.5,219.5C 199.546,222.366 202.213,224.533 205.5,226C 214.137,229.227 222.804,229.227 231.5,226C 233.618,224.951 235.284,223.451 236.5,221.5C 232.201,220.585 228.701,218.252 226,214.5C 225.586,214.957 225.086,215.291 224.5,215.5C 219.238,212.851 219.571,212.017 225.5,213C 225.004,211.004 224.004,209.337 222.5,208C 223.527,207.487 224.527,206.987 225.5,206.5 Z"/></g>
<g><path style="opacity:1" fill="#f3b69d" d="M 298.5,208.5 C 301.228,210.227 303.228,212.56 304.5,215.5C 300.476,221.849 296.476,228.183 292.5,234.5C 292.485,230.44 292.985,226.44 294,222.5C 295.266,217.664 296.766,212.998 298.5,208.5 Z"/></g>
<g><path style="opacity:1" fill="#f0ae94" d="M 345.5,204.5 C 354.804,207.631 362.637,212.965 369,220.5C 372.311,224.042 373.144,228.042 371.5,232.5C 370.167,231.167 368.833,231.167 367.5,232.5C 366.432,231.566 365.099,231.232 363.5,231.5C 362.444,226.052 360.278,221.052 357,216.5C 352.05,212.274 346.55,208.941 340.5,206.5C 341.668,204.783 343.335,204.116 345.5,204.5 Z"/></g>
<g><path style="opacity:1" fill="#e18b60" d="M 436.5,217.5 C 439.109,224.267 440.942,231.267 442,238.5C 443.145,239.636 444.312,240.636 445.5,241.5C 444.504,241.414 443.671,241.748 443,242.5C 442.667,241.833 442.333,241.167 442,240.5C 441.674,249.227 440.841,257.894 439.5,266.5C 438.883,266.611 438.383,266.944 438,267.5C 431.51,260.509 426.01,252.843 421.5,244.5C 431.728,240.876 434.728,234.042 430.5,224C 432.036,221.301 434.036,219.135 436.5,217.5 Z"/></g>
<g><path style="opacity:1" fill="#ed6372" d="M 118.5,212.5 C 118.351,213.552 118.517,214.552 119,215.5C 121.244,213.006 123.577,213.006 126,215.5C 129.294,222.594 133.46,229.094 138.5,235C 137.5,235.667 136.5,235.667 135.5,235C 129.79,231.145 123.79,227.812 117.5,225C 113.992,221.794 110.825,218.294 108,214.5C 107.722,215.416 107.222,216.082 106.5,216.5C 106.822,214.278 106.155,212.444 104.5,211C 102.19,210.503 99.8568,210.337 97.5,210.5C 97.9175,209.778 98.5842,209.278 99.5,209C 98.0899,207.628 96.4233,206.795 94.5,206.5C 96.6761,204.485 99.1761,202.818 102,201.5C 105.882,205.714 109.382,210.214 112.5,215C 113.167,215.167 113.833,215.333 114.5,215.5C 116.041,214.714 117.374,213.714 118.5,212.5 Z"/></g>
<g><path style="opacity:1" fill="#d52033" d="M 120.5,190.5 C 126.167,197.833 131.833,205.167 137.5,212.5C 144.927,221.265 153.261,228.932 162.5,235.5C 172.293,244.449 183.293,251.616 195.5,257C 207.375,264.103 219.375,270.936 231.5,277.5C 232.739,277.058 233.739,276.391 234.5,275.5C 236.191,274.136 237.858,272.803 239.5,271.5C 241.05,270.559 242.716,269.893 244.5,269.5C 245.708,268.766 247.041,268.433 248.5,268.5C 250.515,269.924 252.848,270.59 255.5,270.5C 256.531,271.249 257.698,271.915 259,272.5C 260.569,276.148 260.736,279.814 259.5,283.5C 258.326,285.441 256.659,286.941 254.5,288C 259.15,291.194 263.817,291.194 268.5,288C 270.854,284.105 272.52,279.939 273.5,275.5C 274.586,275.62 275.253,276.287 275.5,277.5C 275.033,279.568 274.366,281.568 273.5,283.5C 273.957,284.298 274.624,284.631 275.5,284.5C 277.833,284.5 280.167,284.5 282.5,284.5C 285.5,285.167 288.5,285.833 291.5,286.5C 289.5,288.833 287.5,291.167 285.5,293.5C 282.817,288.595 278.817,287.261 273.5,289.5C 270.291,291.265 267.291,293.265 264.5,295.5C 263.518,296.141 262.518,296.807 261.5,297.5C 259.68,294.344 257.013,292.344 253.5,291.5C 252.82,290.14 252.153,288.807 251.5,287.5C 253.448,283.271 255.115,278.938 256.5,274.5C 253.373,274.124 250.373,274.124 247.5,274.5C 246.749,277.935 245.749,281.268 244.5,284.5C 241.5,284.5 238.5,284.5 235.5,284.5C 233.167,284.5 230.833,284.5 228.5,284.5C 225.885,285.291 223.218,285.957 220.5,286.5C 211.528,283.182 202.862,279.016 194.5,274C 183.027,271.273 171.694,268.273 160.5,265C 157.661,263.08 154.661,261.413 151.5,260C 144.504,252.004 137.17,244.337 129.5,237C 124.414,232.462 118.748,228.962 112.5,226.5C 111.549,225.081 111.216,223.415 111.5,221.5C 107.247,221.92 105.58,220.254 106.5,216.5C 107.222,216.082 107.722,215.416 108,214.5C 110.825,218.294 113.992,221.794 117.5,225C 123.79,227.812 129.79,231.145 135.5,235C 136.5,235.667 137.5,235.667 138.5,235C 133.46,229.094 129.294,222.594 126,215.5C 123.577,213.006 121.244,213.006 119,215.5C 118.517,214.552 118.351,213.552 118.5,212.5C 119.635,210.787 121.302,210.12 123.5,210.5C 123.5,208.833 123.5,207.167 123.5,205.5C 138.476,225.309 156.476,241.809 177.5,255C 180.377,256.946 183.377,258.279 186.5,259C 161.511,243.841 140.177,224.674 122.5,201.5C 122.167,201.5 121.833,201.5 121.5,201.5C 121.276,197.821 120.942,194.154 120.5,190.5 Z"/></g>
<g><path style="opacity:1" fill="#eb5466" d="M 122.5,201.5 C 140.177,224.674 161.511,243.841 186.5,259C 183.377,258.279 180.377,256.946 177.5,255C 156.476,241.809 138.476,225.309 123.5,205.5C 122.833,205.5 122.5,205.167 122.5,204.5C 122.5,203.5 122.5,202.5 122.5,201.5 Z"/></g>
<g><path style="opacity:1" fill="#7a4529" d="M 209.5,230.5 C 211.5,230.5 213.5,230.5 215.5,230.5C 215.5,232.5 215.5,234.5 215.5,236.5C 216.81,244.186 221.477,248.186 229.5,248.5C 229.448,250.903 229.781,253.236 230.5,255.5C 223.86,252.18 217.193,248.847 210.5,245.5C 202.156,241.995 194.156,237.995 186.5,233.5C 188.857,233.337 191.19,233.503 193.5,234C 195.845,236.202 198.511,237.702 201.5,238.5C 201.146,236.459 201.146,234.626 201.5,233C 204.379,232.454 207.046,231.621 209.5,230.5 Z"/></g>
<g><path style="opacity:1" fill="#0ca706" d="M 237.5,227.5 C 233.116,231.559 230.449,236.559 229.5,242.5C 228.833,242.5 228.5,242.833 228.5,243.5C 221.361,242.034 218.027,237.7 218.5,230.5C 225.071,231.291 230.904,229.625 236,225.5C 236.717,226.044 237.217,226.711 237.5,227.5 Z"/></g>
<g><path style="opacity:1" fill="#2cf07f" d="M 215.5,230.5 C 216.5,230.5 217.5,230.5 218.5,230.5C 218.027,237.7 221.361,242.034 228.5,243.5C 228.53,244.497 228.03,245.164 227,245.5C 221.998,243.777 218.165,240.777 215.5,236.5C 215.5,234.5 215.5,232.5 215.5,230.5 Z"/></g>
<g><path style="opacity:1" fill="#ec6072" d="M 127.5,173.5 C 129.604,173.201 131.604,173.534 133.5,174.5C 134.608,177.059 135.941,179.392 137.5,181.5C 137.5,182.167 137.833,182.5 138.5,182.5C 141.654,188.806 145.32,194.806 149.5,200.5C 146.944,199.457 144.777,197.79 143,195.5C 142.598,196.872 142.098,198.205 141.5,199.5C 148.406,205.979 155.406,212.479 162.5,219C 167.218,222.688 172.218,225.855 177.5,228.5C 180.634,229.901 183.634,231.568 186.5,233.5C 194.156,237.995 202.156,241.995 210.5,245.5C 210.5,246.167 210.5,246.833 210.5,247.5C 207.91,246.872 205.577,245.705 203.5,244C 199.889,242.746 198.389,243.912 199,247.5C 201.988,249.399 204.821,251.399 207.5,253.5C 179.583,240.912 154.583,224.412 132.5,204C 134.5,206.667 136.5,209.333 138.5,212C 138.272,212.399 137.938,212.565 137.5,212.5C 131.833,205.167 126.167,197.833 120.5,190.5C 120.336,187.813 120.503,185.146 121,182.5C 122.421,180.595 123.588,178.595 124.5,176.5C 125.833,175.833 126.833,174.833 127.5,173.5 Z"/></g>
<g><path style="opacity:1" fill="#f6858a" d="M 90.5,244.5 C 87.5557,242.689 84.5557,240.856 81.5,239C 80.7476,238.329 80.4142,237.496 80.5,236.5C 85.8234,235.667 89.8234,237.834 92.5,243C 92.1639,244.03 91.4972,244.53 90.5,244.5 Z"/></g>
<g><path style="opacity:1" fill="#fa976b" d="M 251.5,221.5 C 253.948,220.527 256.615,220.194 259.5,220.5C 259.85,222.626 259.85,224.959 259.5,227.5C 266.843,227.201 273.676,228.867 280,232.5C 280.667,233.167 280.667,233.833 280,234.5C 276.033,232.614 271.866,232.114 267.5,233C 271.143,235.803 273.81,239.303 275.5,243.5C 273.565,244.15 271.565,244.483 269.5,244.5C 263.214,239.097 256.547,238.597 249.5,243C 245.241,246.358 242.074,250.525 240,255.5C 239.612,247.101 242.446,239.935 248.5,234C 243.914,233.527 239.748,234.693 236,237.5C 236.606,234.54 238.439,232.373 241.5,231C 244.569,229.154 247.902,228.154 251.5,228C 252.833,225.333 254.833,223.333 257.5,222C 255.527,221.505 253.527,221.338 251.5,221.5 Z"/></g>
<g><path style="opacity:1" fill="#b95735" d="M 255.5,228.5 C 257.155,229.93 259.155,230.764 261.5,231C 260.833,231.333 260.167,231.667 259.5,232C 263.183,233.841 266.516,236.174 269.5,239C 265.788,236.984 261.788,235.151 257.5,233.5C 253.999,234.493 251.166,236.493 249,239.5C 248.333,238.833 248.333,238.167 249,237.5C 255.199,232.614 254.032,230.447 245.5,231C 249.311,231.083 252.645,230.25 255.5,228.5 Z"/></g>
<g><path style="opacity:1" fill="#fdd4be" d="M 288.5,248.5 C 287.833,248.5 287.5,248.833 287.5,249.5C 282.086,249.52 276.753,250.187 271.5,251.5C 270.167,251.167 268.833,250.833 267.5,250.5C 266.872,248.742 265.872,247.242 264.5,246C 265.056,245.617 265.389,245.117 265.5,244.5C 266.833,244.5 268.167,244.5 269.5,244.5C 271.565,244.483 273.565,244.15 275.5,243.5C 280.71,242.779 285.71,241.612 290.5,240C 288.821,242.565 288.154,245.398 288.5,248.5 Z"/></g>
<g><path style="opacity:1" fill="#fc7f53" d="M 251.5,221.5 C 253.527,221.338 255.527,221.505 257.5,222C 254.833,223.333 252.833,225.333 251.5,228C 247.902,228.154 244.569,229.154 241.5,231C 238.439,232.373 236.606,234.54 236,237.5C 239.748,234.693 243.914,233.527 248.5,234C 242.446,239.935 239.612,247.101 240,255.5C 242.074,250.525 245.241,246.358 249.5,243C 256.547,238.597 263.214,239.097 269.5,244.5C 268.167,244.5 266.833,244.5 265.5,244.5C 263.629,244.859 262.129,245.859 261,247.5C 260.502,250.817 260.335,254.15 260.5,257.5C 260.833,258.833 261.167,260.167 261.5,261.5C 251.606,261.283 241.94,259.616 232.5,256.5C 231.508,256.672 230.842,256.338 230.5,255.5C 229.781,253.236 229.448,250.903 229.5,248.5C 229.5,246.5 229.5,244.5 229.5,242.5C 230.449,236.559 233.116,231.559 237.5,227.5C 241.678,224.412 246.345,222.412 251.5,221.5 Z"/></g>
<g><path style="opacity:1" fill="#c4603e" d="M 445.5,241.5 C 452.216,244.389 456.716,249.389 459,256.5C 463.838,271.692 460.671,284.859 449.5,296C 444.304,299.43 438.971,302.597 433.5,305.5C 429.783,307.109 426.283,309.109 423,311.5C 414.469,337.055 399.635,358.222 378.5,375C 335.261,406.69 286.927,420.19 233.5,415.5C 263.626,416.973 290.96,409.139 315.5,392C 324.895,383.661 332.729,374.161 339,363.5C 341.453,357.689 343.286,351.689 344.5,345.5C 345.833,344.833 347.167,344.167 348.5,343.5C 376.233,335.056 400.067,320.389 420,299.5C 421.75,297.266 423.25,294.932 424.5,292.5C 428.166,292.258 431.333,290.925 434,288.5C 435.743,284.428 437.576,280.428 439.5,276.5C 440.5,276.167 441.167,275.5 441.5,274.5C 445.5,272.5 445.5,270.5 441.5,268.5C 441.167,267.5 440.5,266.833 439.5,266.5C 440.841,257.894 441.674,249.227 442,240.5C 442.333,241.167 442.667,241.833 443,242.5C 443.671,241.748 444.504,241.414 445.5,241.5 Z"/></g>
<g><path style="opacity:1" fill="#ec3a51" d="M 207.5,253.5 C 210.869,255.515 214.202,257.515 217.5,259.5C 223.605,263.059 229.605,266.893 235.5,271C 236.793,271.49 238.127,271.657 239.5,271.5C 237.858,272.803 236.191,274.136 234.5,275.5C 233.284,273.549 231.618,272.049 229.5,271C 207.683,258.093 185.35,246.26 162.5,235.5C 153.261,228.932 144.927,221.265 137.5,212.5C 137.938,212.565 138.272,212.399 138.5,212C 136.5,209.333 134.5,206.667 132.5,204C 154.583,224.412 179.583,240.912 207.5,253.5 Z"/></g>
<g><path style="opacity:0.999" fill="#bc4a2c" d="M 61.5,243.5 C 61.6731,250.883 62.3398,258.217 63.5,265.5C 60.2957,266.383 57.6291,268.05 55.5,270.5C 53.3862,269.64 52.2195,267.973 52,265.5C 50.0251,255.796 53.1918,248.463 61.5,243.5 Z"/></g>
<g><path style="opacity:1" fill="#ed5f72" d="M 113.5,228.5 C 115.333,235.734 117.166,243.067 119,250.5C 125.5,259 132,267.5 138.5,276C 142.708,277.854 147.041,278.854 151.5,279C 146.412,275.917 141.912,272.083 138,267.5C 133.333,261.5 128.667,255.5 124,249.5C 117.544,232.176 119.711,230.509 130.5,244.5C 129.5,244.5 128.5,244.5 127.5,244.5C 127.351,245.552 127.517,246.552 128,247.5C 129.707,249.037 131.207,250.704 132.5,252.5C 131.957,252.56 131.624,252.893 131.5,253.5C 135.787,260.787 141.454,266.787 148.5,271.5C 164.71,281.211 182.043,286.211 200.5,286.5C 201.71,286.932 202.71,287.599 203.5,288.5C 186.728,290.305 170.728,287.638 155.5,280.5C 154.833,280.667 154.167,280.833 153.5,281C 156.354,282.397 159.02,283.897 161.5,285.5C 158.689,285.429 156.022,284.762 153.5,283.5C 152.261,283.942 151.261,284.609 150.5,285.5C 150.53,284.503 150.03,283.836 149,283.5C 145.49,282.554 142.157,281.22 139,279.5C 138.601,279.728 138.435,280.062 138.5,280.5C 130.255,275.878 121.921,271.545 113.5,267.5C 113.5,268.5 113.5,269.5 113.5,270.5C 112.842,269.602 112.176,268.602 111.5,267.5C 101.318,260.311 90.6513,253.978 79.5,248.5C 79.5,244.5 79.5,240.5 79.5,236.5C 79.8333,236.5 80.1667,236.5 80.5,236.5C 80.4142,237.496 80.7476,238.329 81.5,239C 84.5557,240.856 87.5557,242.689 90.5,244.5C 92.3718,247.723 95.0385,249.723 98.5,250.5C 97.325,250.281 96.325,250.614 95.5,251.5C 98.0237,253.19 100.024,255.357 101.5,258C 102.448,258.483 103.448,258.649 104.5,258.5C 104.5,257.5 104.5,256.5 104.5,255.5C 105.219,257.091 106.219,258.591 107.5,260C 114.573,264.732 121.906,269.065 129.5,273C 137.276,274.854 137.276,274.187 129.5,271C 122.259,264.692 117.426,256.859 115,247.5C 114.745,241.147 113.245,235.147 110.5,229.5C 111.791,229.737 112.791,229.404 113.5,228.5 Z"/></g>
<g><path style="opacity:1" fill="#348417" d="M 215.5,236.5 C 218.165,240.777 221.998,243.777 227,245.5C 228.03,245.164 228.53,244.497 228.5,243.5C 228.5,242.833 228.833,242.5 229.5,242.5C 229.5,244.5 229.5,246.5 229.5,248.5C 221.477,248.186 216.81,244.186 215.5,236.5 Z"/></g>
<g><path style="opacity:1" fill="#e6c466" d="M 372.5,299.5 C 369.5,299.5 366.5,299.5 363.5,299.5C 363.5,297.833 363.5,296.167 363.5,294.5C 364.675,294.719 365.675,294.386 366.5,293.5C 366.376,292.893 366.043,292.56 365.5,292.5C 365.306,281.327 363.806,270.327 361,259.5C 359.938,258.101 358.605,257.101 357,256.5C 355.97,256.836 355.47,257.503 355.5,258.5C 353.483,257.471 351.483,256.471 349.5,255.5C 348.257,251.516 348.257,247.516 349.5,243.5C 353.631,247.13 357.631,250.963 361.5,255C 365.612,256.779 368.778,259.612 371,263.5C 374.312,261.355 377.146,258.688 379.5,255.5C 376.885,251.96 375.885,247.96 376.5,243.5C 379.393,242.477 382.226,242.477 385,243.5C 386.041,249.585 388.208,255.251 391.5,260.5C 385.053,261.323 378.72,262.656 372.5,264.5C 371.364,276.166 371.364,287.833 372.5,299.5 Z"/></g>
<g><path style="opacity:1" fill="#ee5e70" d="M 162.5,235.5 C 185.35,246.26 207.683,258.093 229.5,271C 231.618,272.049 233.284,273.549 234.5,275.5C 233.739,276.391 232.739,277.058 231.5,277.5C 219.375,270.936 207.375,264.103 195.5,257C 183.293,251.616 172.293,244.449 162.5,235.5 Z"/></g>
<g><path style="opacity:1" fill="#f3b69e" d="M 353.5,229.5 C 354.167,232.5 354.833,235.5 355.5,238.5C 353.131,239.69 351.131,241.357 349.5,243.5C 348.257,247.516 348.257,251.516 349.5,255.5C 340.254,269.866 327.254,274.699 310.5,270C 304.157,267.645 298.991,263.811 295,258.5C 294.187,256.564 293.687,254.564 293.5,252.5C 297.085,255.124 301.085,256.957 305.5,258C 316.624,259.241 326.958,256.908 336.5,251C 345.161,246.166 350.828,238.999 353.5,229.5 Z"/></g>
<g><path style="opacity:1" fill="#87462d" d="M 83.5,221.5 C 89.0371,231.202 95.8704,239.869 104,247.5C 106.204,250.23 107.537,253.23 108,256.5C 101.167,249 94.3333,241.5 87.5,234C 85.559,232.097 83.2257,231.264 80.5,231.5C 80.7234,227.838 81.7234,224.505 83.5,221.5 Z"/></g>
<g><path style="opacity:1" fill="#f5b69b" d="M 303.5,235.5 C 309.382,235.049 311.716,237.716 310.5,243.5C 316.842,243.666 323.175,243.5 329.5,243C 332,242.625 334.333,241.792 336.5,240.5C 337.429,244.53 336.096,247.696 332.5,250C 322.833,250.667 313.167,250.667 303.5,250C 298.972,245.425 298.972,240.592 303.5,235.5 Z"/></g>
<g><path style="opacity:1" fill="#f5b99e" d="M 265.5,244.5 C 265.389,245.117 265.056,245.617 264.5,246C 265.872,247.242 266.872,248.742 267.5,250.5C 268.833,250.833 270.167,251.167 271.5,251.5C 276.753,250.187 282.086,249.52 287.5,249.5C 286.64,251.614 284.973,252.78 282.5,253C 279,253.5 275.5,254 272,254.5C 268.605,253.195 265.105,252.529 261.5,252.5C 261.784,254.415 261.451,256.081 260.5,257.5C 260.335,254.15 260.502,250.817 261,247.5C 262.129,245.859 263.629,244.859 265.5,244.5 Z"/></g>
<g><path style="opacity:1" fill="#ed5c6f" d="M 138.5,243.5 C 146.385,245.47 153.385,249.637 159.5,256C 156.265,255.071 152.932,254.071 149.5,253C 145.666,249.998 142,246.831 138.5,243.5 Z"/></g>
<g><path style="opacity:1" fill="#f59496" d="M 210.5,247.5 C 212.822,249.664 215.489,251.331 218.5,252.5C 220.705,254.363 222.039,256.697 222.5,259.5C 220.833,259.5 219.167,259.5 217.5,259.5C 214.202,257.515 210.869,255.515 207.5,253.5C 204.821,251.399 201.988,249.399 199,247.5C 198.389,243.912 199.889,242.746 203.5,244C 205.577,245.705 207.91,246.872 210.5,247.5 Z"/></g>
<g><path style="opacity:1" fill="#e03245" d="M 92.5,206.5 C 93.1667,206.5 93.8333,206.5 94.5,206.5C 96.4233,206.795 98.0899,207.628 99.5,209C 98.5842,209.278 97.9175,209.778 97.5,210.5C 95.7274,211.314 95.2274,212.648 96,214.5C 101.709,218.708 106.542,223.708 110.5,229.5C 113.245,235.147 114.745,241.147 115,247.5C 117.426,256.859 122.259,264.692 129.5,271C 137.276,274.187 137.276,274.854 129.5,273C 121.906,269.065 114.573,264.732 107.5,260C 106.219,258.591 105.219,257.091 104.5,255.5C 103.109,253.11 101.109,251.443 98.5,250.5C 95.0385,249.723 92.3718,247.723 90.5,244.5C 91.4972,244.53 92.1639,244.03 92.5,243C 89.8234,237.834 85.8234,235.667 80.5,236.5C 80.1667,236.5 79.8333,236.5 79.5,236.5C 79.366,234.708 79.6993,233.042 80.5,231.5C 83.2257,231.264 85.559,232.097 87.5,234C 94.3333,241.5 101.167,249 108,256.5C 107.537,253.23 106.204,250.23 104,247.5C 95.8704,239.869 89.0371,231.202 83.5,221.5C 85.2609,215.626 88.2609,210.626 92.5,206.5 Z"/></g>
<g><path style="opacity:1" fill="#ed5e71" d="M 87.5,214.5 C 97.7403,220.237 104.907,228.57 109,239.5C 109.667,241.167 109.667,242.833 109,244.5C 101.59,234.603 94.4229,224.603 87.5,214.5 Z"/></g>
<g><path style="opacity:1" fill="#e99a7e" d="M 288.5,248.5 C 288.364,251.551 288.698,254.551 289.5,257.5C 289.182,258.647 288.516,259.481 287.5,260C 280.528,261.639 273.528,263.139 266.5,264.5C 264.308,264.243 262.641,263.243 261.5,261.5C 261.167,260.167 260.833,258.833 260.5,257.5C 261.451,256.081 261.784,254.415 261.5,252.5C 265.105,252.529 268.605,253.195 272,254.5C 275.5,254 279,253.5 282.5,253C 284.973,252.78 286.64,251.614 287.5,249.5C 287.5,248.833 287.833,248.5 288.5,248.5 Z"/></g>
<g><path style="opacity:1" fill="#f79294" d="M 98.5,250.5 C 101.109,251.443 103.109,253.11 104.5,255.5C 104.5,256.5 104.5,257.5 104.5,258.5C 103.448,258.649 102.448,258.483 101.5,258C 100.024,255.357 98.0237,253.19 95.5,251.5C 96.325,250.614 97.325,250.281 98.5,250.5 Z"/></g>
<g><path style="opacity:1" fill="#fdfdfc" d="M 365.5,292.5 C 363.958,293.163 362.291,293.83 360.5,294.5C 355.258,311.524 344.591,323.69 328.5,331C 327.402,331.77 327.402,332.603 328.5,333.5C 318.716,336.538 308.716,338.538 298.5,339.5C 288.467,338.825 278.634,339.825 269,342.5C 266.58,341.512 264.247,341.845 262,343.5C 261.235,343.43 260.735,343.097 260.5,342.5C 280.652,328.247 301.986,315.747 324.5,305C 326.647,302.763 328.98,300.763 331.5,299C 334.685,298.612 337.685,299.279 340.5,301C 343.372,303.537 345.872,306.37 348,309.5C 347.17,305.478 346.004,301.478 344.5,297.5C 344.893,295.716 345.559,294.05 346.5,292.5C 347.043,292.44 347.376,292.107 347.5,291.5C 344.215,290.676 340.882,290.176 337.5,290C 335.035,287.263 332.035,285.93 328.5,286C 326.167,288.333 323.833,290.667 321.5,293C 314.167,296.333 306.833,299.667 299.5,303C 289.775,309.853 280.108,316.686 270.5,323.5C 270.322,322.305 269.989,321.138 269.5,320C 270.32,318.2 270.986,316.366 271.5,314.5C 272.942,313.18 273.608,311.514 273.5,309.5C 274.167,309.167 274.833,308.833 275.5,308.5C 297.091,280.692 324.757,271.859 358.5,282C 357.335,280.916 356.002,280.083 354.5,279.5C 353.548,277.955 353.215,276.288 353.5,274.5C 354.167,270.5 354.833,266.5 355.5,262.5C 355.5,261.167 355.5,259.833 355.5,258.5C 355.47,257.503 355.97,256.836 357,256.5C 358.605,257.101 359.938,258.101 361,259.5C 363.806,270.327 365.306,281.327 365.5,292.5 Z"/></g>
<g><path style="opacity:1" fill="#ea3b50" d="M 210.5,245.5 C 217.193,248.847 223.86,252.18 230.5,255.5C 230.842,256.338 231.508,256.672 232.5,256.5C 238.191,260.013 243.524,264.013 248.5,268.5C 247.041,268.433 245.708,268.766 244.5,269.5C 235.916,263.864 227.249,258.197 218.5,252.5C 215.489,251.331 212.822,249.664 210.5,247.5C 210.5,246.833 210.5,246.167 210.5,245.5 Z"/></g>
<g><path style="opacity:1" fill="#ef6978" d="M 218.5,252.5 C 227.249,258.197 235.916,263.864 244.5,269.5C 242.716,269.893 241.05,270.559 239.5,271.5C 238.127,271.657 236.793,271.49 235.5,271C 229.605,266.893 223.605,263.059 217.5,259.5C 219.167,259.5 220.833,259.5 222.5,259.5C 222.039,256.697 220.705,254.363 218.5,252.5 Z"/></g>
<g><path style="opacity:1" fill="#f47048" d="M 288.5,248.5 C 289.833,249.5 291.167,250.5 292.5,251.5C 292.5,252.167 292.833,252.5 293.5,252.5C 293.687,254.564 294.187,256.564 295,258.5C 298.991,263.811 304.157,267.645 310.5,270C 327.254,274.699 340.254,269.866 349.5,255.5C 351.483,256.471 353.483,257.471 355.5,258.5C 355.5,259.833 355.5,261.167 355.5,262.5C 351.767,267.564 347.101,271.564 341.5,274.5C 326.255,271.551 311.922,273.884 298.5,281.5C 295.864,280.176 293.198,280.176 290.5,281.5C 289.534,279.604 289.201,277.604 289.5,275.5C 287.833,275.5 286.167,275.5 284.5,275.5C 287.567,272.121 291.234,269.454 295.5,267.5C 294.185,264.362 292.185,262.196 289.5,261C 282.657,267.516 277.991,275.349 275.5,284.5C 274.624,284.631 273.957,284.298 273.5,283.5C 274.366,281.568 275.033,279.568 275.5,277.5C 275.253,276.287 274.586,275.62 273.5,275.5C 271.473,275.338 269.473,275.505 267.5,276C 266.809,277.067 266.309,278.234 266,279.5C 265.329,280.252 264.496,280.586 263.5,280.5C 263.5,277.167 263.5,273.833 263.5,270.5C 260.833,270.5 258.167,270.5 255.5,270.5C 252.848,270.59 250.515,269.924 248.5,268.5C 243.524,264.013 238.191,260.013 232.5,256.5C 241.94,259.616 251.606,261.283 261.5,261.5C 262.641,263.243 264.308,264.243 266.5,264.5C 273.528,263.139 280.528,261.639 287.5,260C 288.516,259.481 289.182,258.647 289.5,257.5C 288.698,254.551 288.364,251.551 288.5,248.5 Z"/></g>
<g><path style="opacity:1" fill="#e4374b" d="M 112.5,226.5 C 118.748,228.962 124.414,232.462 129.5,237C 137.17,244.337 144.504,252.004 151.5,260C 154.661,261.413 157.661,263.08 160.5,265C 171.694,268.273 183.027,271.273 194.5,274C 202.862,279.016 211.528,283.182 220.5,286.5C 220.167,286.5 219.833,286.5 219.5,286.5C 210.884,283.471 202.051,281.137 193,279.5C 189.715,279.7 188.882,281.2 190.5,284C 193.768,285.15 197.101,285.984 200.5,286.5C 182.043,286.211 164.71,281.211 148.5,271.5C 141.454,266.787 135.787,260.787 131.5,253.5C 131.624,252.893 131.957,252.56 132.5,252.5C 137.018,257.179 142.018,261.346 147.5,265C 159.164,268.648 159.497,267.648 148.5,262C 142.631,255.964 136.631,250.13 130.5,244.5C 119.711,230.509 117.544,232.176 124,249.5C 128.667,255.5 133.333,261.5 138,267.5C 141.912,272.083 146.412,275.917 151.5,279C 147.041,278.854 142.708,277.854 138.5,276C 132,267.5 125.5,259 119,250.5C 117.166,243.067 115.333,235.734 113.5,228.5C 113.167,227.833 112.833,227.167 112.5,226.5 Z"/></g>
<g><path style="opacity:1" fill="#f6878b" d="M 130.5,244.5 C 136.631,250.13 142.631,255.964 148.5,262C 159.497,267.648 159.164,268.648 147.5,265C 142.018,261.346 137.018,257.179 132.5,252.5C 131.207,250.704 129.707,249.037 128,247.5C 127.517,246.552 127.351,245.552 127.5,244.5C 128.5,244.5 129.5,244.5 130.5,244.5 Z"/></g>
<g><path style="opacity:1" fill="#fb9366" d="M 284.5,275.5 C 283.677,278.461 283.01,281.461 282.5,284.5C 280.167,284.5 277.833,284.5 275.5,284.5C 277.991,275.349 282.657,267.516 289.5,261C 292.185,262.196 294.185,264.362 295.5,267.5C 291.234,269.454 287.567,272.121 284.5,275.5 Z"/></g>
<g><path style="opacity:1" fill="#f69292" d="M 138.5,280.5 C 138.209,281.649 137.376,282.316 136,282.5C 127.85,279.676 120.35,275.676 113.5,270.5C 113.5,269.5 113.5,268.5 113.5,267.5C 121.921,271.545 130.255,275.878 138.5,280.5 Z"/></g>
<g><path style="opacity:1" fill="#84472a" d="M 255.5,270.5 C 258.167,270.5 260.833,270.5 263.5,270.5C 263.5,273.833 263.5,277.167 263.5,280.5C 262.738,282.262 261.404,283.262 259.5,283.5C 260.736,279.814 260.569,276.148 259,272.5C 257.698,271.915 256.531,271.249 255.5,270.5 Z"/></g>
<g><path style="opacity:1" fill="#80492f" d="M 355.5,262.5 C 354.833,266.5 354.167,270.5 353.5,274.5C 352.596,275.209 352.263,276.209 352.5,277.5C 348.573,277.074 344.907,276.074 341.5,274.5C 347.101,271.564 351.767,267.564 355.5,262.5 Z"/></g>
<g><path style="opacity:1" fill="#d09e43" d="M 431.5,274.5 C 426.309,278.857 421.642,283.69 417.5,289C 411.843,289.499 406.176,289.666 400.5,289.5C 399.033,285.298 398.033,280.965 397.5,276.5C 408.864,276.292 420.197,275.626 431.5,274.5 Z"/></g>
<g><path style="opacity:1" fill="#b48839" d="M 439.5,276.5 C 437.576,280.428 435.743,284.428 434,288.5C 431.333,290.925 428.166,292.258 424.5,292.5C 416.432,293.291 408.432,294.291 400.5,295.5C 400.5,293.5 400.5,291.5 400.5,289.5C 406.176,289.666 411.843,289.499 417.5,289C 421.642,283.69 426.309,278.857 431.5,274.5C 434.051,273.516 436.718,272.516 439.5,271.5C 440.434,273.095 440.434,274.761 439.5,276.5 Z"/></g>
<g><path style="opacity:1" fill="#fdc2a5" d="M 61.5,240.5 C 62.8333,240.5 64.1667,240.5 65.5,240.5C 65.3347,244.182 65.5014,247.848 66,251.5C 68.3203,266.634 73.8203,280.468 82.5,293C 82.1667,293.5 81.8333,294 81.5,294.5C 80.1482,293.476 78.8149,292.476 77.5,291.5C 74.7712,286.771 71.1045,283.104 66.5,280.5C 67.3764,280.631 68.0431,280.298 68.5,279.5C 66.432,274.962 64.7653,270.295 63.5,265.5C 62.3398,258.217 61.6731,250.883 61.5,243.5C 61.5,242.5 61.5,241.5 61.5,240.5 Z"/></g>
<g><path style="opacity:1" fill="#ec475a" d="M 251.5,287.5 C 249.442,286.067 247.108,285.4 244.5,285.5C 244.5,285.167 244.5,284.833 244.5,284.5C 245.749,281.268 246.749,277.935 247.5,274.5C 250.373,274.124 253.373,274.124 256.5,274.5C 255.115,278.938 253.448,283.271 251.5,287.5 Z"/></g>
<g><path style="opacity:1" fill="#ed6072" d="M 273.5,275.5 C 272.52,279.939 270.854,284.105 268.5,288C 263.817,291.194 259.15,291.194 254.5,288C 256.659,286.941 258.326,285.441 259.5,283.5C 261.404,283.262 262.738,282.262 263.5,280.5C 264.496,280.586 265.329,280.252 266,279.5C 266.309,278.234 266.809,277.067 267.5,276C 269.473,275.505 271.473,275.338 273.5,275.5 Z"/></g>
<g><path style="opacity:1" fill="#eb394f" d="M 79.5,248.5 C 90.6513,253.978 101.318,260.311 111.5,267.5C 112.176,268.602 112.842,269.602 113.5,270.5C 120.35,275.676 127.85,279.676 136,282.5C 137.376,282.316 138.209,281.649 138.5,280.5C 138.435,280.062 138.601,279.728 139,279.5C 142.157,281.22 145.49,282.554 149,283.5C 150.03,283.836 150.53,284.503 150.5,285.5C 150.511,287.017 151.177,288.184 152.5,289C 159.404,292.133 166.404,294.966 173.5,297.5C 186.256,301.609 199.256,305.276 212.5,308.5C 213.736,310.649 214.736,312.982 215.5,315.5C 215.5,315.833 215.5,316.167 215.5,316.5C 214.5,316.833 213.833,317.5 213.5,318.5C 194.611,309.563 175.277,301.396 155.5,294C 141.538,287.462 127.538,281.129 113.5,275C 142.851,298.839 176.185,314.339 213.5,321.5C 213.833,323.5 214.167,325.5 214.5,327.5C 199.935,325.587 185.935,321.754 172.5,316C 146.037,302.773 120.037,289.107 94.5,275C 105.977,285.122 118.977,292.788 133.5,298C 136.997,300.583 140.664,302.916 144.5,305C 149.662,310.495 155.662,314.829 162.5,318C 179.166,324.292 196.332,328.792 214,331.5C 215.376,331.316 216.209,330.649 216.5,329.5C 218.5,332.167 220.833,334.5 223.5,336.5C 223.5,337.167 223.5,337.833 223.5,338.5C 199.513,337.236 176.846,331.403 155.5,321C 142.298,310.561 127.964,301.894 112.5,295C 106.689,290.69 101.023,286.19 95.5,281.5C 95.1667,281.667 94.8333,281.833 94.5,282C 100.096,288.103 106.096,293.603 112.5,298.5C 108.856,297.345 105.523,295.678 102.5,293.5C 89.3009,281.437 81.6342,266.437 79.5,248.5 Z"/></g>
<g><path style="opacity:1" fill="#ee5e70" d="M 90.5,258.5 C 96.6357,265.468 103.302,271.968 110.5,278C 101.291,274.365 93.2912,268.698 86.5,261C 88.0664,260.392 89.3998,259.558 90.5,258.5 Z"/></g>
<g><path style="opacity:1" fill="#ec5f6f" d="M 284.5,275.5 C 286.167,275.5 287.833,275.5 289.5,275.5C 289.201,277.604 289.534,279.604 290.5,281.5C 293.198,280.176 295.864,280.176 298.5,281.5C 296.45,283.547 294.117,285.214 291.5,286.5C 288.5,285.833 285.5,285.167 282.5,284.5C 283.01,281.461 283.677,278.461 284.5,275.5 Z"/></g>
<g><path style="opacity:1" fill="#f68589" d="M 219.5,286.5 C 218.564,287.974 217.23,288.974 215.5,289.5C 211.466,289.495 207.466,289.162 203.5,288.5C 202.71,287.599 201.71,286.932 200.5,286.5C 197.101,285.984 193.768,285.15 190.5,284C 188.882,281.2 189.715,279.7 193,279.5C 202.051,281.137 210.884,283.471 219.5,286.5 Z"/></g>
<g><path style="opacity:1" fill="#e9e5e4" d="M 341.5,274.5 C 344.907,276.074 348.573,277.074 352.5,277.5C 352.263,276.209 352.596,275.209 353.5,274.5C 353.215,276.288 353.548,277.955 354.5,279.5C 356.002,280.083 357.335,280.916 358.5,282C 324.757,271.859 297.091,280.692 275.5,308.5C 276.399,305.605 277.733,302.938 279.5,300.5C 280.167,300.5 280.5,300.167 280.5,299.5C 282.156,297.54 283.823,295.54 285.5,293.5C 287.5,291.167 289.5,288.833 291.5,286.5C 294.117,285.214 296.45,283.547 298.5,281.5C 311.922,273.884 326.255,271.551 341.5,274.5 Z"/></g>
<g><path style="opacity:1" fill="#fcd2bc" d="M 244.5,285.5 C 247.108,285.4 249.442,286.067 251.5,287.5C 252.153,288.807 252.82,290.14 253.5,291.5C 257.013,292.344 259.68,294.344 261.5,297.5C 262.518,296.807 263.518,296.141 264.5,295.5C 269.957,294.602 274.624,295.936 278.5,299.5C 277.272,300.306 276.272,301.306 275.5,302.5C 267.91,298.01 260.743,298.676 254,304.5C 253.435,299.701 251.101,296.035 247,293.5C 246.903,290.518 246.07,287.851 244.5,285.5 Z"/></g>
<g><path style="opacity:1" fill="#e8e7e6" d="M 346.5,292.5 C 344.372,291.371 342.039,291.204 339.5,292C 340.851,294.264 342.517,296.098 344.5,297.5C 346.004,301.478 347.17,305.478 348,309.5C 345.872,306.37 343.372,303.537 340.5,301C 337.685,299.279 334.685,298.612 331.5,299C 328.98,300.763 326.647,302.763 324.5,305C 301.986,315.747 280.652,328.247 260.5,342.5C 259.833,342.5 259.5,342.167 259.5,341.5C 258.33,338.469 258.997,335.803 261.5,333.5C 265.234,330.769 268.234,327.436 270.5,323.5C 280.108,316.686 289.775,309.853 299.5,303C 306.833,299.667 314.167,296.333 321.5,293C 323.833,290.667 326.167,288.333 328.5,286C 332.035,285.93 335.035,287.263 337.5,290C 340.882,290.176 344.215,290.676 347.5,291.5C 347.376,292.107 347.043,292.44 346.5,292.5 Z"/></g>
<g><path style="opacity:1" fill="#ec3a50" d="M 203.5,288.5 C 207.466,289.162 211.466,289.495 215.5,289.5C 215.34,291.153 214.674,292.486 213.5,293.5C 189.896,292.189 189.563,294.189 212.5,299.5C 212.5,301.167 212.5,302.833 212.5,304.5C 200.216,301.762 188.216,298.096 176.5,293.5C 171.592,290.548 166.592,287.881 161.5,285.5C 159.02,283.897 156.354,282.397 153.5,281C 154.167,280.833 154.833,280.667 155.5,280.5C 170.728,287.638 186.728,290.305 203.5,288.5 Z"/></g>
<g><path style="opacity:1" fill="#f9cdba" d="M 285.5,293.5 C 283.823,295.54 282.156,297.54 280.5,299.5C 279.772,297.488 278.938,295.488 278,293.5C 275.882,292.717 274.382,291.384 273.5,289.5C 278.817,287.261 282.817,288.595 285.5,293.5 Z"/></g>
<g><path style="opacity:1" fill="#f69495" d="M 161.5,285.5 C 166.592,287.881 171.592,290.548 176.5,293.5C 177.234,294.708 177.567,296.041 177.5,297.5C 176.167,297.5 174.833,297.5 173.5,297.5C 166.404,294.966 159.404,292.133 152.5,289C 151.177,288.184 150.511,287.017 150.5,285.5C 151.261,284.609 152.261,283.942 153.5,283.5C 156.022,284.762 158.689,285.429 161.5,285.5 Z"/></g>
<g><path style="opacity:1" fill="#f97d54" d="M 273.5,289.5 C 274.382,291.384 275.882,292.717 278,293.5C 278.938,295.488 279.772,297.488 280.5,299.5C 280.5,300.167 280.167,300.5 279.5,300.5C 278.833,300.5 278.5,300.167 278.5,299.5C 274.624,295.936 269.957,294.602 264.5,295.5C 267.291,293.265 270.291,291.265 273.5,289.5 Z"/></g>
<g><path style="opacity:1" fill="#7d492e" d="M 346.5,292.5 C 345.559,294.05 344.893,295.716 344.5,297.5C 342.517,296.098 340.851,294.264 339.5,292C 342.039,291.204 344.372,291.371 346.5,292.5 Z"/></g>
<g><path style="opacity:1" fill="#ee6071" d="M 213.5,293.5 C 212.85,295.435 212.517,297.435 212.5,299.5C 189.563,294.189 189.896,292.189 213.5,293.5 Z"/></g>
<g><path style="opacity:1" fill="#e2895d" d="M 424.5,292.5 C 423.25,294.932 421.75,297.266 420,299.5C 400.067,320.389 376.233,335.056 348.5,343.5C 352.142,341.356 354.975,338.356 357,334.5C 358.137,330.537 357.303,327.204 354.5,324.5C 369.413,318.042 383.079,309.542 395.5,299C 394.906,298.536 394.239,298.369 393.5,298.5C 395.975,297.869 398.309,296.869 400.5,295.5C 408.432,294.291 416.432,293.291 424.5,292.5 Z"/></g>
<g><path style="opacity:1" fill="#ee5e71" d="M 176.5,293.5 C 188.216,298.096 200.216,301.762 212.5,304.5C 212.5,305.833 212.5,307.167 212.5,308.5C 199.256,305.276 186.256,301.609 173.5,297.5C 174.833,297.5 176.167,297.5 177.5,297.5C 177.567,296.041 177.234,294.708 176.5,293.5 Z"/></g>
<g><path style="opacity:1" fill="#7d472b" d="M 393.5,298.5 C 394.239,298.369 394.906,298.536 395.5,299C 383.079,309.542 369.413,318.042 354.5,324.5C 347.61,327.444 340.61,330.111 333.5,332.5C 342.619,327.894 350.452,321.561 357,313.5C 359.489,308.863 361.656,304.196 363.5,299.5C 366.5,299.5 369.5,299.5 372.5,299.5C 379.47,300.26 386.47,299.927 393.5,298.5 Z"/></g>
<g><path style="opacity:1" fill="#fc7e53" d="M 228.5,284.5 C 233.358,286.682 237.358,290.015 240.5,294.5C 242.283,293.652 242.783,292.319 242,290.5C 240.564,287.558 238.397,285.558 235.5,284.5C 238.5,284.5 241.5,284.5 244.5,284.5C 244.5,284.833 244.5,285.167 244.5,285.5C 246.07,287.851 246.903,290.518 247,293.5C 251.101,296.035 253.435,299.701 254,304.5C 260.743,298.676 267.91,298.01 275.5,302.5C 275.737,303.791 275.404,304.791 274.5,305.5C 270.259,304.182 265.926,304.348 261.5,306C 256.884,308.56 252.718,311.727 249,315.5C 248.333,317.833 248.333,320.167 249,322.5C 255.592,315.122 263.758,310.788 273.5,309.5C 273.608,311.514 272.942,313.18 271.5,314.5C 264.167,317.167 259.167,322.167 256.5,329.5C 255.686,331.631 255.186,333.964 255,336.5C 252.695,334.179 250.195,332.179 247.5,330.5C 242.833,335.07 237.166,336.737 230.5,335.5C 230.5,336.833 230.5,338.167 230.5,339.5C 228.046,338.773 225.713,337.773 223.5,336.5C 220.833,334.5 218.5,332.167 216.5,329.5C 216.167,328.5 215.5,327.833 214.5,327.5C 214.167,325.5 213.833,323.5 213.5,321.5C 213.5,320.5 213.5,319.5 213.5,318.5C 213.833,317.5 214.5,316.833 215.5,316.5C 215.238,317.978 215.571,319.311 216.5,320.5C 224.765,315.373 233.765,313.206 243.5,314C 244.044,313.283 244.711,312.783 245.5,312.5C 246.008,314.233 246.841,314.566 248,313.5C 249.07,310.758 250.57,308.258 252.5,306C 252.272,305.601 251.938,305.435 251.5,305.5C 247.776,299.803 242.442,296.969 235.5,297C 236.061,295.434 235.394,294.101 233.5,293C 228.601,289.775 223.268,288.775 217.5,290C 216.663,291.011 216.33,292.178 216.5,293.5C 236.398,296.556 236.398,299.389 216.5,302C 215.203,304.545 215.369,307.045 217,309.5C 226.859,299.255 237.025,298.922 247.5,308.5C 247.167,309.5 246.5,310.167 245.5,310.5C 234.408,306.496 224.408,308.162 215.5,315.5C 214.736,312.982 213.736,310.649 212.5,308.5C 212.5,307.167 212.5,305.833 212.5,304.5C 212.5,302.833 212.5,301.167 212.5,299.5C 212.517,297.435 212.85,295.435 213.5,293.5C 214.674,292.486 215.34,291.153 215.5,289.5C 217.23,288.974 218.564,287.974 219.5,286.5C 219.833,286.5 220.167,286.5 220.5,286.5C 223.218,285.957 225.885,285.291 228.5,284.5 Z"/></g>
<g><path style="opacity:1" fill="#fcd1ba" d="M 251.5,305.5 C 249.859,306.147 248.526,307.147 247.5,308.5C 237.025,298.922 226.859,299.255 217,309.5C 215.369,307.045 215.203,304.545 216.5,302C 236.398,299.389 236.398,296.556 216.5,293.5C 216.33,292.178 216.663,291.011 217.5,290C 223.268,288.775 228.601,289.775 233.5,293C 235.394,294.101 236.061,295.434 235.5,297C 242.442,296.969 247.776,299.803 251.5,305.5 Z"/></g>
<g><path style="opacity:1" fill="#fcd1ba" d="M 228.5,284.5 C 230.833,284.5 233.167,284.5 235.5,284.5C 238.397,285.558 240.564,287.558 242,290.5C 242.783,292.319 242.283,293.652 240.5,294.5C 237.358,290.015 233.358,286.682 228.5,284.5 Z"/></g>
<g><path style="opacity:1" fill="#8e563d" d="M 278.5,299.5 C 278.5,300.167 278.833,300.5 279.5,300.5C 277.733,302.938 276.399,305.605 275.5,308.5C 274.833,308.833 274.167,309.167 273.5,309.5C 273.433,308.041 273.766,306.708 274.5,305.5C 275.404,304.791 275.737,303.791 275.5,302.5C 276.272,301.306 277.272,300.306 278.5,299.5 Z"/></g>
<g><path style="opacity:1" fill="#fdd1bb" d="M 274.5,305.5 C 273.766,306.708 273.433,308.041 273.5,309.5C 263.758,310.788 255.592,315.122 249,322.5C 248.333,320.167 248.333,317.833 249,315.5C 252.718,311.727 256.884,308.56 261.5,306C 265.926,304.348 270.259,304.182 274.5,305.5 Z"/></g>
<g><path style="opacity:1" fill="#ed5d70" d="M 223.5,338.5 C 223.737,339.791 223.404,340.791 222.5,341.5C 208.689,338.723 194.689,336.223 180.5,334C 172.816,331.821 165.15,329.654 157.5,327.5C 146.07,321.608 135.404,314.441 125.5,306C 121.466,302.983 117.133,300.483 112.5,298.5C 106.096,293.603 100.096,288.103 94.5,282C 94.8333,281.833 95.1667,281.667 95.5,281.5C 101.023,286.19 106.689,290.69 112.5,295C 127.964,301.894 142.298,310.561 155.5,321C 176.846,331.403 199.513,337.236 223.5,338.5 Z"/></g>
<g><path style="opacity:1" fill="#d4bcbb" d="M 433.5,305.5 C 459.154,353.715 448.487,391.882 401.5,420C 368.906,436.754 334.24,444.92 297.5,444.5C 238.989,444.382 185.989,427.549 138.5,394C 124.453,382.796 112.786,369.629 103.5,354.5C 111.545,364.208 120.879,372.542 131.5,379.5C 161.76,401.59 195.76,413.59 233.5,415.5C 286.927,420.19 335.261,406.69 378.5,375C 399.635,358.222 414.469,337.055 423,311.5C 426.283,309.109 429.783,307.109 433.5,305.5 Z"/></g>
<g><path style="opacity:1" fill="#82492c" d="M 251.5,305.5 C 251.938,305.435 252.272,305.601 252.5,306C 250.57,308.258 249.07,310.758 248,313.5C 246.841,314.566 246.008,314.233 245.5,312.5C 245.5,311.833 245.5,311.167 245.5,310.5C 246.5,310.167 247.167,309.5 247.5,308.5C 248.526,307.147 249.859,306.147 251.5,305.5 Z"/></g>
<g><path style="opacity:1" fill="#fcd2bc" d="M 245.5,310.5 C 245.5,311.167 245.5,311.833 245.5,312.5C 244.711,312.783 244.044,313.283 243.5,314C 233.765,313.206 224.765,315.373 216.5,320.5C 215.571,319.311 215.238,317.978 215.5,316.5C 215.5,316.167 215.5,315.833 215.5,315.5C 224.408,308.162 234.408,306.496 245.5,310.5 Z"/></g>
<g><path style="opacity:1" fill="#e6e3e2" d="M 365.5,292.5 C 366.043,292.56 366.376,292.893 366.5,293.5C 365.675,294.386 364.675,294.719 363.5,294.5C 363.5,296.167 363.5,297.833 363.5,299.5C 361.656,304.196 359.489,308.863 357,313.5C 350.452,321.561 342.619,327.894 333.5,332.5C 331.883,333.038 330.216,333.371 328.5,333.5C 327.402,332.603 327.402,331.77 328.5,331C 344.591,323.69 355.258,311.524 360.5,294.5C 362.291,293.83 363.958,293.163 365.5,292.5 Z"/></g>
<g><path style="opacity:1" fill="#d52534" d="M 102.5,293.5 C 105.523,295.678 108.856,297.345 112.5,298.5C 117.133,300.483 121.466,302.983 125.5,306C 135.404,314.441 146.07,321.608 157.5,327.5C 136.387,320.454 118.053,309.121 102.5,293.5 Z"/></g>
<g><path style="opacity:1" fill="#ee5e72" d="M 214.5,327.5 C 215.5,327.833 216.167,328.5 216.5,329.5C 216.209,330.649 215.376,331.316 214,331.5C 196.332,328.792 179.166,324.292 162.5,318C 155.662,314.829 149.662,310.495 144.5,305C 140.664,302.916 136.997,300.583 133.5,298C 118.977,292.788 105.977,285.122 94.5,275C 120.037,289.107 146.037,302.773 172.5,316C 185.935,321.754 199.935,325.587 214.5,327.5 Z"/></g>
<g><path style="opacity:1" fill="#fdc2a5" d="M 141.5,338.5 C 119.615,330.933 100.949,318.599 85.5,301.5C 85.5,300.167 85.5,298.833 85.5,297.5C 86.8734,297.343 88.2068,297.51 89.5,298C 105.435,312.977 123.435,324.977 143.5,334C 145.439,334.908 146.439,336.408 146.5,338.5C 144.833,338.5 143.167,338.5 141.5,338.5 Z"/></g>
<g><path style="opacity:1" fill="#ec586a" d="M 213.5,318.5 C 213.5,319.5 213.5,320.5 213.5,321.5C 176.185,314.339 142.851,298.839 113.5,275C 127.538,281.129 141.538,287.462 155.5,294C 175.277,301.396 194.611,309.563 213.5,318.5 Z"/></g>
<g><path style="opacity:1" fill="#fdceb7" d="M 271.5,314.5 C 270.986,316.366 270.32,318.2 269.5,320C 269.989,321.138 270.322,322.305 270.5,323.5C 268.234,327.436 265.234,330.769 261.5,333.5C 258.796,333.33 257.129,331.997 256.5,329.5C 259.167,322.167 264.167,317.167 271.5,314.5 Z"/></g>
<g><path style="opacity:1" fill="#fcd2bb" d="M 239.5,318.5 C 241.5,318.5 243.5,318.5 245.5,318.5C 245.719,319.675 245.386,320.675 244.5,321.5C 237.946,324.224 232.779,328.557 229,334.5C 220.797,331.328 220.631,327.494 228.5,323C 232.157,321.178 235.824,319.678 239.5,318.5 Z"/></g>
<g><path style="opacity:1" fill="#82533a" d="M 323.5,318.5 C 325.842,318.775 325.842,319.608 323.5,321C 319.525,324.446 315.191,325.113 310.5,323C 315.092,321.929 319.425,320.429 323.5,318.5 Z"/></g>
<g><path style="opacity:1" fill="#fe7d52" d="M 58.5,239.5 C 59.791,239.263 60.791,239.596 61.5,240.5C 61.5,241.5 61.5,242.5 61.5,243.5C 53.1918,248.463 50.0251,255.796 52,265.5C 52.2195,267.973 53.3862,269.64 55.5,270.5C 57.8713,275.202 61.538,278.536 66.5,280.5C 71.1045,283.104 74.7712,286.771 77.5,291.5C 79.7935,295.127 82.4602,298.461 85.5,301.5C 100.949,318.599 119.615,330.933 141.5,338.5C 151.903,341.862 162.236,345.695 172.5,350C 183.072,352.692 193.739,354.859 204.5,356.5C 191.988,368.637 176.988,376.137 159.5,379C 150.173,379.5 140.839,379.666 131.5,379.5C 120.879,372.542 111.545,364.208 103.5,354.5C 93.1383,342.463 85.305,328.796 80,313.5C 71.9137,308.873 63.747,304.373 55.5,300C 39.3747,289.041 34.5413,274.208 41,255.5C 44.472,247.526 50.3054,242.192 58.5,239.5 Z"/></g>
<g><path style="opacity:1" fill="#fe9e78" d="M 99.5,321.5 C 101.199,321.34 102.866,321.506 104.5,322C 111.627,327.459 118.461,333.292 125,339.5C 126.545,344.047 126.879,348.713 126,353.5C 122.663,356.97 118.83,357.47 114.5,355C 104.889,348.593 99.2227,339.76 97.5,328.5C 97.3187,325.837 97.9854,323.503 99.5,321.5 Z"/></g>
<g><path style="opacity:1" fill="#fb5932" d="M 247.5,330.5 C 246.167,334.5 246.167,338.5 247.5,342.5C 241.608,342.608 235.942,341.608 230.5,339.5C 230.5,338.167 230.5,336.833 230.5,335.5C 237.166,336.737 242.833,335.07 247.5,330.5 Z"/></g>
<g><path style="opacity:1" fill="#fb9f80" d="M 256.5,329.5 C 257.129,331.997 258.796,333.33 261.5,333.5C 258.997,335.803 258.33,338.469 259.5,341.5C 255.566,342.36 251.566,342.693 247.5,342.5C 246.167,338.5 246.167,334.5 247.5,330.5C 250.195,332.179 252.695,334.179 255,336.5C 255.186,333.964 255.686,331.631 256.5,329.5 Z"/></g>
<g><path style="opacity:1" fill="#d62e36" d="M 157.5,327.5 C 165.15,329.654 172.816,331.821 180.5,334C 194.689,336.223 208.689,338.723 222.5,341.5C 222.5,341.833 222.5,342.167 222.5,342.5C 199.871,341.178 178.205,336.178 157.5,327.5 Z"/></g>
<g><path style="opacity:1" fill="#945638" d="M 223.5,336.5 C 225.713,337.773 228.046,338.773 230.5,339.5C 235.942,341.608 241.608,342.608 247.5,342.5C 251.566,342.693 255.566,342.36 259.5,341.5C 259.5,342.167 259.833,342.5 260.5,342.5C 260.735,343.097 261.235,343.43 262,343.5C 264.247,341.845 266.58,341.512 269,342.5C 278.634,339.825 288.467,338.825 298.5,339.5C 273.471,344.663 248.137,345.663 222.5,342.5C 222.5,342.167 222.5,341.833 222.5,341.5C 223.404,340.791 223.737,339.791 223.5,338.5C 223.5,337.833 223.5,337.167 223.5,336.5 Z"/></g>
<g><path style="opacity:1" fill="#de6d45" d="M 344.5,345.5 C 343.286,351.689 341.453,357.689 339,363.5C 332.729,374.161 324.895,383.661 315.5,392C 290.96,409.139 263.626,416.973 233.5,415.5C 195.76,413.59 161.76,401.59 131.5,379.5C 140.839,379.666 150.173,379.5 159.5,379C 176.988,376.137 191.988,368.637 204.5,356.5C 251.99,363.098 298.657,359.431 344.5,345.5 Z"/></g>
</svg>
