<?xml version="1.0" encoding="UTF-8"?>
<!DOCTYPE svg PUBLIC "-//W3C//DTD SVG 1.1//EN" "http://www.w3.org/Graphics/SVG/1.1/DTD/svg11.dtd">
<svg xmlns="http://www.w3.org/2000/svg" version="1.1" width="500px" height="500px" style="shape-rendering:geometricPrecision; text-rendering:geometricPrecision; image-rendering:optimizeQuality; fill-rule:evenodd; clip-rule:evenodd" xmlns:xlink="http://www.w3.org/1999/xlink">
<g><path style="opacity:1" fill="#db9321" d="M 218.5,154.5 C 212.007,155.829 208.507,159.829 208,166.5C 205.86,167.728 204.193,169.395 203,171.5C 202.219,172.944 202.386,174.277 203.5,175.5C 204.167,173.833 204.833,172.167 205.5,170.5C 205.833,170.667 206.167,170.833 206.5,171C 204.985,176.114 206.318,180.281 210.5,183.5C 210.389,184.117 210.056,184.617 209.5,185C 203.784,184.549 198.784,186.049 194.5,189.5C 193.602,188.842 192.602,188.176 191.5,187.5C 192.544,185.232 192.711,182.899 192,180.5C 191.907,183.007 191.074,185.174 189.5,187C 184.514,187.997 179.514,188.831 174.5,189.5C 174.662,187.473 174.495,185.473 174,183.5C 173.781,184.938 173.281,186.271 172.5,187.5C 171.293,185.73 169.626,184.73 167.5,184.5C 163.845,187.15 160.179,189.817 156.5,192.5C 156.34,190.847 155.674,189.514 154.5,188.5C 155.291,190.691 155.291,192.691 154.5,194.5C 147.472,192.871 142.139,195.037 138.5,201C 136.073,202.591 133.407,203.425 130.5,203.5C 130.286,201.856 130.62,200.356 131.5,199C 129.066,198.667 128.066,199.834 128.5,202.5C 125.484,202.841 122.818,204.007 120.5,206C 118.934,206.765 117.601,206.598 116.5,205.5C 116.735,201.43 118.735,198.597 122.5,197C 120.097,196.37 118.263,197.203 117,199.5C 116.427,201.641 115.594,203.641 114.5,205.5C 110.481,203.798 106.481,202.131 102.5,200.5C 97.6301,201.602 93.2968,203.768 89.5,207C 87.1667,207.667 84.8333,207.667 82.5,207C 80.3171,204.65 77.9837,202.483 75.5,200.5C 77.9023,199.425 80.2356,198.258 82.5,197C 78.248,196.649 74.5813,197.982 71.5,201C 69.1667,201.667 66.8333,201.667 64.5,201C 61.865,196.498 58.5316,192.498 54.5,189C 47.0138,188.012 42.6805,183.846 41.5,176.5C 43.3084,176.491 44.9751,176.991 46.5,178C 50.3319,182.918 54.6652,183.585 59.5,180C 54.7823,182.549 50.7823,181.549 47.5,177C 45.2852,175.956 42.9519,175.29 40.5,175C 39.9152,173.698 39.2485,172.531 38.5,171.5C 36.5564,167.884 37.5564,165.884 41.5,165.5C 41.5,164.5 41.5,163.5 41.5,162.5C 45.1738,158.529 47.6738,153.862 49,148.5C 52.8877,143.419 58.0543,140.586 64.5,140C 68.7829,137.385 72.7829,134.385 76.5,131C 83.0122,126.919 89.8456,126.419 97,129.5C 100.537,129.026 104.037,128.359 107.5,127.5C 109.197,127.899 110.863,128.399 112.5,129C 115.855,133.352 119.521,137.352 123.5,141C 129.031,141.687 134.364,143.02 139.5,145C 141.598,147.854 143.931,150.521 146.5,153C 158.546,151.781 167.88,156.114 174.5,166C 181.2,171.506 188.2,171.839 195.5,167C 197.213,165.622 198.547,163.955 199.5,162C 205.347,161.41 210.014,158.743 213.5,154C 215.387,153.22 217.054,153.387 218.5,154.5 Z"/></g>
<g><path style="opacity:1" fill="#b16215" d="M 114.5,147.5 C 115.077,143.216 113.41,140.216 109.5,138.5C 108.764,136.459 107.931,134.459 107,132.5C 104.931,131.736 102.764,131.236 100.5,131C 102.756,129.133 105.09,129.133 107.5,131C 108.458,135.432 110.958,138.598 115,140.5C 117.066,143.086 116.9,145.419 114.5,147.5 Z"/></g>
<g><path style="opacity:1" fill="#e0a02d" d="M 85.5,135.5 C 96.5276,133.072 104.694,136.739 110,146.5C 110.602,149.662 110.102,152.662 108.5,155.5C 107.575,154.359 106.741,154.359 106,155.5C 105.086,157.664 103.919,159.664 102.5,161.5C 94.4553,164.853 87.4553,169.686 81.5,176C 80.0677,176.27 79.0677,175.604 78.5,174C 79.13,172.108 80.13,170.441 81.5,169C 80.0039,168.493 78.8373,168.993 78,170.5C 77.7744,173.095 77.2744,175.595 76.5,178C 67.9833,179.178 62.15,175.678 59,167.5C 58.3333,166.5 58.3333,165.5 59,164.5C 62.3622,161.268 62.3622,160.602 59,162.5C 58.8301,160.155 59.1635,157.821 60,155.5C 66.1502,145.841 74.6502,139.174 85.5,135.5 Z"/></g>
<g><path style="opacity:1" fill="#b16315" d="M 114.5,147.5 C 114.457,150.867 114.79,154.201 115.5,157.5C 115.923,160.182 114.923,161.348 112.5,161C 113.574,160.261 114.241,159.261 114.5,158C 113.732,155.864 113.066,153.697 112.5,151.5C 112.668,149.829 113.335,148.496 114.5,147.5 Z"/></g>
<g><path style="opacity:1" fill="#d3891f" d="M 218.5,154.5 C 222.389,158.904 226.723,162.904 231.5,166.5C 229.647,169.695 227.647,172.861 225.5,176C 222.5,176.333 219.5,176.667 216.5,177C 214.266,179.063 212.266,181.229 210.5,183.5C 206.318,180.281 204.985,176.114 206.5,171C 206.167,170.833 205.833,170.667 205.5,170.5C 204.833,172.167 204.167,173.833 203.5,175.5C 202.386,174.277 202.219,172.944 203,171.5C 204.193,169.395 205.86,167.728 208,166.5C 208.507,159.829 212.007,155.829 218.5,154.5 Z"/></g>
<g><path style="opacity:1" fill="#b76f20" d="M 94.5,147.5 C 96.4411,149.011 96.9411,151.011 96,153.5C 93.9565,155.208 92.2899,157.208 91,159.5C 90.3333,158.5 90.3333,157.5 91,156.5C 92.892,154.946 94.392,153.112 95.5,151C 95.0109,149.862 94.6775,148.695 94.5,147.5 Z"/></g>
<g><path style="opacity:1" fill="#fee2cb" d="M 294.5,162.5 C 293.5,162.5 292.5,162.5 291.5,162.5C 291.335,165.518 291.502,168.518 292,171.5C 294.703,174.538 297.703,177.205 301,179.5C 301.159,184.916 301.826,190.25 303,195.5C 303.689,196.357 304.522,197.023 305.5,197.5C 306.065,195.49 307.065,193.824 308.5,192.5C 308.833,193.167 309.167,193.833 309.5,194.5C 308.352,196.761 307.852,199.095 308,201.5C 309.903,201.694 311.737,201.694 313.5,201.5C 310.261,204.265 309.928,207.265 312.5,210.5C 310.394,214.763 309.394,219.096 309.5,223.5C 308.549,222.674 307.549,222.508 306.5,223C 304.53,225.316 302.196,227.149 299.5,228.5C 298.764,230.793 298.598,233.126 299,235.5C 297.989,234.663 296.822,234.33 295.5,234.5C 294.224,238.595 294.224,242.428 295.5,246C 289.074,248.258 282.741,250.758 276.5,253.5C 273.878,255.411 271.711,257.745 270,260.5C 269.689,258.444 269.189,256.444 268.5,254.5C 267.5,253.167 266.5,253.167 265.5,254.5C 266.895,257.017 267.895,259.684 268.5,262.5C 266.49,266.516 264.157,270.349 261.5,274C 255.058,276.814 248.391,277.314 241.5,275.5C 241.737,274.209 241.404,273.209 240.5,272.5C 238.474,270.498 236.141,270.164 233.5,271.5C 233.855,272.522 234.522,273.189 235.5,273.5C 227.731,275.592 220.398,278.759 213.5,283C 210.198,284.026 206.865,284.86 203.5,285.5C 201.877,279.594 199.71,273.927 197,268.5C 194.685,264.362 191.852,260.695 188.5,257.5C 177.501,242.325 163.167,231.492 145.5,225C 139.912,223.711 134.245,223.211 128.5,223.5C 130.698,222.835 133.031,222.168 135.5,221.5C 134.278,219.022 132.278,218.022 129.5,218.5C 128.833,216.833 128.167,215.167 127.5,213.5C 129.402,214.511 131.402,214.678 133.5,214C 135.569,211.466 138.235,210.299 141.5,210.5C 142.167,210.5 142.833,210.5 143.5,210.5C 147.499,209.965 151.499,209.299 155.5,208.5C 158.836,202.014 164.169,199.181 171.5,200C 177.553,196.872 183.886,194.538 190.5,193C 192.093,192.051 193.426,190.885 194.5,189.5C 198.784,186.049 203.784,184.549 209.5,185C 210.056,184.617 210.389,184.117 210.5,183.5C 212.266,181.229 214.266,179.063 216.5,177C 219.5,176.667 222.5,176.333 225.5,176C 227.647,172.861 229.647,169.695 231.5,166.5C 240.88,170.131 249.547,168.964 257.5,163C 262.75,162.109 267.917,160.942 273,159.5C 276.134,160.1 279.134,161.1 282,162.5C 284.567,161.422 287.233,160.755 290,160.5C 292.008,160.307 293.508,160.974 294.5,162.5 Z"/></g>
<g><path style="opacity:1" fill="#ae5f11" d="M 137.5,149.5 C 138.496,149.414 139.329,149.748 140,150.5C 140.145,154.991 140.979,159.324 142.5,163.5C 142.444,164.737 141.944,165.737 141,166.5C 140.447,160.623 139.281,154.956 137.5,149.5 Z"/></g>
<g><path style="opacity:1" fill="#b56616" d="M 120.5,156.5 C 122.143,158.671 123.477,161.171 124.5,164C 123.076,167.092 121.243,169.926 119,172.5C 119.391,169.573 120.558,166.906 122.5,164.5C 121.238,161.978 120.571,159.311 120.5,156.5 Z"/></g>
<g><path style="opacity:1" fill="#fdd7ae" d="M 294.5,162.5 C 296.963,164.461 299.297,166.628 301.5,169C 305.921,170.016 310.255,171.349 314.5,173C 315.928,175.185 317.595,177.185 319.5,179C 324.833,180.667 330.167,182.333 335.5,184C 338.968,187.26 341.968,190.926 344.5,195C 350.404,195.083 354.071,197.916 355.5,203.5C 354.251,205.829 354.918,207.662 357.5,209C 361.058,209.146 364.391,209.979 367.5,211.5C 370.208,214.209 373.208,216.542 376.5,218.5C 379.683,220.01 383.016,221.343 386.5,222.5C 388.379,223.341 390.379,223.675 392.5,223.5C 394.5,225.167 396.5,226.833 398.5,228.5C 399.167,229.833 400.167,230.833 401.5,231.5C 403.531,233.522 405.865,235.189 408.5,236.5C 408.427,238.027 409.094,239.027 410.5,239.5C 411.159,242.455 411.492,245.455 411.5,248.5C 408.946,251.59 407.946,255.256 408.5,259.5C 406.534,258.559 404.534,257.559 402.5,256.5C 401.289,257.274 401.289,258.107 402.5,259C 401.423,259.47 400.423,259.303 399.5,258.5C 398.504,257.335 397.171,256.668 395.5,256.5C 391.013,257.711 386.513,257.711 382,256.5C 376.181,257.829 376.015,259.996 381.5,263C 387.669,264.461 393.669,265.961 399.5,267.5C 389.681,267.813 380.014,269.146 370.5,271.5C 367.648,269.909 364.648,268.576 361.5,267.5C 359.316,265.415 356.649,264.415 353.5,264.5C 353.34,266.199 353.506,267.866 354,269.5C 356.628,272.21 359.461,274.544 362.5,276.5C 354.943,277.465 347.943,279.799 341.5,283.5C 338.15,283.335 334.817,283.502 331.5,284C 334.359,285.26 337.026,286.76 339.5,288.5C 336.802,288.845 334.802,290.178 333.5,292.5C 331.708,292.366 330.042,292.699 328.5,293.5C 326.634,292.986 324.8,292.32 323,291.5C 306.61,293.407 290.276,295.74 274,298.5C 271.13,297.981 268.297,297.314 265.5,296.5C 256.812,299.164 248.145,299.164 239.5,296.5C 231.219,299.38 222.719,301.38 214,302.5C 210.722,301.378 207.556,300.045 204.5,298.5C 204.706,294.102 204.373,289.768 203.5,285.5C 206.865,284.86 210.198,284.026 213.5,283C 220.398,278.759 227.731,275.592 235.5,273.5C 237.726,275.18 239.393,274.847 240.5,272.5C 241.404,273.209 241.737,274.209 241.5,275.5C 248.391,277.314 255.058,276.814 261.5,274C 264.157,270.349 266.49,266.516 268.5,262.5C 267.895,259.684 266.895,257.017 265.5,254.5C 266.5,253.167 267.5,253.167 268.5,254.5C 269.189,256.444 269.689,258.444 270,260.5C 271.711,257.745 273.878,255.411 276.5,253.5C 282.741,250.758 289.074,248.258 295.5,246C 294.224,242.428 294.224,238.595 295.5,234.5C 296.822,234.33 297.989,234.663 299,235.5C 298.598,233.126 298.764,230.793 299.5,228.5C 302.196,227.149 304.53,225.316 306.5,223C 307.549,222.508 308.549,222.674 309.5,223.5C 309.394,219.096 310.394,214.763 312.5,210.5C 309.928,207.265 310.261,204.265 313.5,201.5C 311.737,201.694 309.903,201.694 308,201.5C 307.852,199.095 308.352,196.761 309.5,194.5C 309.167,193.833 308.833,193.167 308.5,192.5C 307.065,193.824 306.065,195.49 305.5,197.5C 304.522,197.023 303.689,196.357 303,195.5C 301.826,190.25 301.159,184.916 301,179.5C 297.703,177.205 294.703,174.538 292,171.5C 291.502,168.518 291.335,165.518 291.5,162.5C 292.5,162.5 293.5,162.5 294.5,162.5 Z"/></g>
<g><path style="opacity:1" fill="#ad5e12" d="M 160.5,159.5 C 160.56,158.957 160.893,158.624 161.5,158.5C 166.008,161.375 166.674,165.042 163.5,169.5C 166.718,172.469 167.218,175.803 165,179.5C 165.305,177.557 165.305,175.557 165,173.5C 161.914,170.76 161.748,167.76 164.5,164.5C 163.867,162.214 162.534,160.548 160.5,159.5 Z"/></g>
<g><path style="opacity:1" fill="#8ca549" d="M 273.5,171.5 C 275.564,171.687 277.564,172.187 279.5,173C 280.674,175.829 279.674,176.829 276.5,176C 274.561,175.092 273.561,173.592 273.5,171.5 Z"/></g>
<g><path style="opacity:1" fill="#ae5e14" d="M 38.5,171.5 C 39.2485,172.531 39.9152,173.698 40.5,175C 42.9519,175.29 45.2852,175.956 47.5,177C 50.7823,181.549 54.7823,182.549 59.5,180C 54.6652,183.585 50.3319,182.918 46.5,178C 44.9751,176.991 43.3084,176.491 41.5,176.5C 40.391,176.443 39.391,176.11 38.5,175.5C 37.3143,174.039 37.3143,172.705 38.5,171.5 Z"/></g>
<g><path style="opacity:1" fill="#fef0e3" d="M 231.5,179.5 C 238.386,178.674 244.22,180.674 249,185.5C 250.369,190.437 249.203,194.604 245.5,198C 240.374,200.789 235.041,203.122 229.5,205C 225.696,211.607 220.03,213.94 212.5,212C 206.678,207.212 205.345,201.379 208.5,194.5C 214.213,186.165 221.88,181.165 231.5,179.5 Z"/></g>
<g><path style="opacity:1" fill="#dba154" d="M 41.5,162.5 C 41.5,163.5 41.5,164.5 41.5,165.5C 37.5564,165.884 36.5564,167.884 38.5,171.5C 37.3143,172.705 37.3143,174.039 38.5,175.5C 38.5,180.167 38.5,184.833 38.5,189.5C 37.8022,183.315 36.8022,176.981 35.5,170.5C 35.6466,166.363 37.6466,163.697 41.5,162.5 Z"/></g>
<g><path style="opacity:1" fill="#ad5e13" d="M 154.5,188.5 C 153.291,186.565 153.458,184.565 155,182.5C 160.174,178.585 160.507,178.918 156,183.5C 154.991,185.025 154.491,186.692 154.5,188.5 Z"/></g>
<g><path style="opacity:1" fill="#ae5f12" d="M 89.5,179.5 C 90.525,179.897 90.6917,180.563 90,181.5C 87.3145,182.676 84.9812,184.343 83,186.5C 82.3333,185.833 82.3333,185.167 83,184.5C 85.3256,182.934 87.4922,181.268 89.5,179.5 Z"/></g>
<g><path style="opacity:1" fill="#cd7f19" d="M 194.5,189.5 C 193.426,190.885 192.093,192.051 190.5,193C 183.886,194.538 177.553,196.872 171.5,200C 164.169,199.181 158.836,202.014 155.5,208.5C 151.499,209.299 147.499,209.965 143.5,210.5C 143.34,208.801 143.506,207.134 144,205.5C 147.527,202.655 151.193,199.988 155,197.5C 156.009,195.975 156.509,194.308 156.5,192.5C 160.179,189.817 163.845,187.15 167.5,184.5C 169.626,184.73 171.293,185.73 172.5,187.5C 173.281,186.271 173.781,184.938 174,183.5C 174.495,185.473 174.662,187.473 174.5,189.5C 179.514,188.831 184.514,187.997 189.5,187C 191.074,185.174 191.907,183.007 192,180.5C 192.711,182.899 192.544,185.232 191.5,187.5C 192.602,188.176 193.602,188.842 194.5,189.5 Z"/></g>
<g><path style="opacity:1" fill="#819f44" d="M 226.5,187.5 C 227.833,187.5 229.167,187.5 230.5,187.5C 230.845,190.488 229.512,191.821 226.5,191.5C 225.5,191.167 224.5,190.833 223.5,190.5C 224.34,189.265 225.34,188.265 226.5,187.5 Z"/></g>
<g><path style="opacity:1" fill="#d99a4c" d="M 38.5,190.5 C 40.6449,190.738 42.3115,191.738 43.5,193.5C 43.1434,197.407 43.1434,201.407 43.5,205.5C 42.1506,200.484 40.4839,195.484 38.5,190.5 Z"/></g>
<g><path style="opacity:1" fill="#c77656" d="M 386.5,199.5 C 382.186,205.259 376.519,206.925 369.5,204.5C 369.167,204.833 368.833,205.167 368.5,205.5C 369.193,206.518 369.859,207.518 370.5,208.5C 369.306,209.272 368.306,210.272 367.5,211.5C 364.391,209.979 361.058,209.146 357.5,209C 354.918,207.662 354.251,205.829 355.5,203.5C 359.383,203.109 363.05,203.776 366.5,205.5C 367.367,199.468 370.867,196.468 377,196.5C 380.312,197.074 383.478,198.074 386.5,199.5 Z"/></g>
<g><path style="opacity:1" fill="#ce7a5b" d="M 411.5,202.5 C 411.5,202.833 411.5,203.167 411.5,203.5C 407.149,206.075 402.816,205.908 398.5,203C 397.107,201.829 396.273,200.329 396,198.5C 395.617,199.056 395.117,199.389 394.5,199.5C 394.574,197.589 395.574,196.422 397.5,196C 403.875,194.689 408.542,196.856 411.5,202.5 Z"/></g>
<g><path style="opacity:1" fill="#ce801a" d="M 38.5,175.5 C 39.391,176.11 40.391,176.443 41.5,176.5C 42.6805,183.846 47.0138,188.012 54.5,189C 58.5316,192.498 61.865,196.498 64.5,201C 66.8333,201.667 69.1667,201.667 71.5,201C 74.5813,197.982 78.248,196.649 82.5,197C 80.2356,198.258 77.9023,199.425 75.5,200.5C 77.9837,202.483 80.3171,204.65 82.5,207C 84.8333,207.667 87.1667,207.667 89.5,207C 93.2968,203.768 97.6301,201.602 102.5,200.5C 106.481,202.131 110.481,203.798 114.5,205.5C 111.512,207.14 108.179,207.974 104.5,208C 103.944,208.383 103.611,208.883 103.5,209.5C 95.6249,212.439 88.2915,216.439 81.5,221.5C 76.1667,221.5 70.8333,221.5 65.5,221.5C 56.2792,218.575 48.9459,213.242 43.5,205.5C 43.1434,201.407 43.1434,197.407 43.5,193.5C 42.3115,191.738 40.6449,190.738 38.5,190.5C 38.5,190.167 38.5,189.833 38.5,189.5C 38.5,184.833 38.5,180.167 38.5,175.5 Z"/></g>
<g><path style="opacity:1" fill="#b45737" d="M 411.5,203.5 C 411.5,204.5 411.5,205.5 411.5,206.5C 409.284,207.203 407.451,208.536 406,210.5C 405.493,211.996 405.993,213.163 407.5,214C 413.651,215.626 418.651,214.126 422.5,209.5C 423.754,211.357 423.754,213.357 422.5,215.5C 423.77,216.288 424.77,217.288 425.5,218.5C 424.766,219.929 423.599,220.929 422,221.5C 418.343,219.609 414.51,218.775 410.5,219C 408.996,220.491 408.163,222.324 408,224.5C 402.333,226.014 397.666,224.347 394,219.5C 393.59,220.901 393.09,222.234 392.5,223.5C 390.379,223.675 388.379,223.341 386.5,222.5C 390.007,220.902 393.007,218.569 395.5,215.5C 399.483,216.405 403.483,216.905 407.5,217C 405.894,213.695 403.227,212.195 399.5,212.5C 399.966,210.799 399.966,209.299 399.5,208C 395.861,208.278 392.194,208.278 388.5,208C 384.068,204.922 382.401,206.088 383.5,211.5C 379.035,210.967 374.702,209.967 370.5,208.5C 369.859,207.518 369.193,206.518 368.5,205.5C 368.833,205.167 369.167,204.833 369.5,204.5C 376.519,206.925 382.186,205.259 386.5,199.5C 389.167,199.5 391.833,199.5 394.5,199.5C 395.117,199.389 395.617,199.056 396,198.5C 396.273,200.329 397.107,201.829 398.5,203C 402.816,205.908 407.149,206.075 411.5,203.5 Z"/></g>
<g><path style="opacity:1" fill="#af5c12" d="M 154.5,188.5 C 155.674,189.514 156.34,190.847 156.5,192.5C 156.509,194.308 156.009,195.975 155,197.5C 151.193,199.988 147.527,202.655 144,205.5C 143.506,207.134 143.34,208.801 143.5,210.5C 142.833,210.5 142.167,210.5 141.5,210.5C 142.11,204.385 145.444,200.551 151.5,199C 153.141,197.871 154.141,196.371 154.5,194.5C 155.291,192.691 155.291,190.691 154.5,188.5 Z"/></g>
<g><path style="opacity:1" fill="#7e9838" d="M 325.5,202.5 C 328.463,202.151 330.796,203.151 332.5,205.5C 330.579,206.641 328.579,206.808 326.5,206C 325.663,204.989 325.33,203.822 325.5,202.5 Z"/></g>
<g><path style="opacity:1" fill="#cd801b" d="M 154.5,194.5 C 154.141,196.371 153.141,197.871 151.5,199C 145.444,200.551 142.11,204.385 141.5,210.5C 138.235,210.299 135.569,211.466 133.5,214C 131.402,214.678 129.402,214.511 127.5,213.5C 123.635,209.876 118.968,208.209 113.5,208.5C 114.5,207.5 115.5,206.5 116.5,205.5C 117.601,206.598 118.934,206.765 120.5,206C 122.818,204.007 125.484,202.841 128.5,202.5C 128.066,199.834 129.066,198.667 131.5,199C 130.62,200.356 130.286,201.856 130.5,203.5C 133.407,203.425 136.073,202.591 138.5,201C 142.139,195.037 147.472,192.871 154.5,194.5 Z"/></g>
<g><path style="opacity:0.38" fill="#cfcba6" d="M 411.5,202.5 C 412.404,203.209 412.737,204.209 412.5,205.5C 417.363,205.181 422.03,205.514 426.5,206.5C 424.167,206.5 421.833,206.5 419.5,206.5C 416.833,206.5 414.167,206.5 411.5,206.5C 411.5,205.5 411.5,204.5 411.5,203.5C 411.5,203.167 411.5,202.833 411.5,202.5 Z"/></g>
<g><path style="opacity:1" fill="#ca7454" d="M 411.5,206.5 C 414.167,206.5 416.833,206.5 419.5,206.5C 420.694,207.272 421.694,208.272 422.5,209.5C 418.651,214.126 413.651,215.626 407.5,214C 405.993,213.163 405.493,211.996 406,210.5C 407.451,208.536 409.284,207.203 411.5,206.5 Z"/></g>
<g><path style="opacity:1" fill="#ab5813" d="M 116.5,205.5 C 115.5,206.5 114.5,207.5 113.5,208.5C 110.119,208.46 106.786,208.793 103.5,209.5C 103.611,208.883 103.944,208.383 104.5,208C 108.179,207.974 111.512,207.14 114.5,205.5C 115.594,203.641 116.427,201.641 117,199.5C 118.263,197.203 120.097,196.37 122.5,197C 118.735,198.597 116.735,201.43 116.5,205.5 Z"/></g>
<g><path style="opacity:1" fill="#809d41" d="M 293.5,205.5 C 295.344,206.204 295.844,207.537 295,209.5C 293.301,210.406 291.467,210.739 289.5,210.5C 289.281,209.325 289.614,208.325 290.5,207.5C 291.739,207.058 292.739,206.391 293.5,205.5 Z"/></g>
<g><path style="opacity:1" fill="#fdfdfa" d="M 113.5,208.5 C 118.968,208.209 123.635,209.876 127.5,213.5C 128.167,215.167 128.833,216.833 129.5,218.5C 117.228,222.105 109.228,230.105 105.5,242.5C 85.0939,233.792 70.2606,239.459 61,259.5C 60.0766,265.105 60.5766,270.439 62.5,275.5C 65.7947,284.463 72.128,289.796 81.5,291.5C 82.9187,292.451 84.5853,292.784 86.5,292.5C 86.6469,297.214 86.3136,301.881 85.5,306.5C 82.5,306.5 79.5,306.5 76.5,306.5C 51.7174,305.235 41.8841,292.568 47,268.5C 54.1396,249.521 65.6396,233.855 81.5,221.5C 88.2915,216.439 95.6249,212.439 103.5,209.5C 106.786,208.793 110.119,208.46 113.5,208.5 Z"/></g>
<g><path style="opacity:1" fill="#889f47" d="M 250.5,208.5 C 252.655,208.372 254.655,208.872 256.5,210C 257.451,210.718 257.617,211.551 257,212.5C 252.967,214.31 250.8,212.976 250.5,208.5 Z"/></g>
<g><path style="opacity:1" fill="#aa5611" d="M 69.5,204.5 C 70.5735,205.251 70.7401,206.251 70,207.5C 66.0589,213.065 61.2256,213.898 55.5,210C 52.8333,209.667 50.1667,209.333 47.5,209C 51.8583,207.925 55.8583,208.592 59.5,211C 64.9768,212.097 68.3101,209.93 69.5,204.5 Z"/></g>
<g><path style="opacity:1" fill="#9d3e1f" d="M 395.5,215.5 C 394.653,214.034 393.32,213.2 391.5,213C 387.171,211.849 383.338,212.682 380,215.5C 379.517,216.448 379.351,217.448 379.5,218.5C 378.5,218.5 377.5,218.5 376.5,218.5C 373.208,216.542 370.208,214.209 367.5,211.5C 368.306,210.272 369.306,209.272 370.5,208.5C 374.702,209.967 379.035,210.967 383.5,211.5C 382.401,206.088 384.068,204.922 388.5,208C 392.194,208.278 395.861,208.278 399.5,208C 399.966,209.299 399.966,210.799 399.5,212.5C 403.227,212.195 405.894,213.695 407.5,217C 403.483,216.905 399.483,216.405 395.5,215.5 Z"/></g>
<g><path style="opacity:1" fill="#ca7454" d="M 395.5,215.5 C 393.007,218.569 390.007,220.902 386.5,222.5C 383.016,221.343 379.683,220.01 376.5,218.5C 377.5,218.5 378.5,218.5 379.5,218.5C 379.351,217.448 379.517,216.448 380,215.5C 383.338,212.682 387.171,211.849 391.5,213C 393.32,213.2 394.653,214.034 395.5,215.5 Z"/></g>
<g><path style="opacity:1" fill="#8ca54d" d="M 157.5,217.5 C 159.924,217.192 162.257,217.526 164.5,218.5C 162.992,221.418 160.825,222.084 158,220.5C 157.517,219.552 157.351,218.552 157.5,217.5 Z"/></g>
<g><path style="opacity:1" fill="#95371a" d="M 425.5,218.5 C 426.461,220.265 426.795,222.265 426.5,224.5C 423.808,227.181 420.475,228.514 416.5,228.5C 414.863,227.62 413.03,226.954 411,226.5C 409.97,226.836 409.47,227.503 409.5,228.5C 407.5,228.5 405.5,228.5 403.5,228.5C 401.833,228.5 400.167,228.5 398.5,228.5C 396.5,226.833 394.5,225.167 392.5,223.5C 393.09,222.234 393.59,220.901 394,219.5C 397.666,224.347 402.333,226.014 408,224.5C 408.163,222.324 408.996,220.491 410.5,219C 414.51,218.775 418.343,219.609 422,221.5C 423.599,220.929 424.766,219.929 425.5,218.5 Z"/></g>
<g><path style="opacity:1" fill="#fefefc" d="M 128.5,223.5 C 134.245,223.211 139.912,223.711 145.5,225C 163.167,231.492 177.501,242.325 188.5,257.5C 194.224,271.041 193.724,284.374 187,297.5C 184.688,300.979 181.854,303.979 178.5,306.5C 174.544,307.867 170.877,309.7 167.5,312C 163.582,313.156 159.582,313.656 155.5,313.5C 151.818,313.665 148.152,313.499 144.5,313C 124.321,297.714 114.321,277.214 114.5,251.5C 114.544,243.897 115.878,236.564 118.5,229.5C 120.796,225.889 124.129,223.889 128.5,223.5 Z"/></g>
<g><path style="opacity:1" fill="#7e9c3e" d="M 197.5,222.5 C 198.833,222.5 200.167,222.5 201.5,222.5C 200.546,226.311 198.213,227.311 194.5,225.5C 195.34,224.265 196.34,223.265 197.5,222.5 Z"/></g>
<g><path style="opacity:1" fill="#6a9d1f" d="M 450.5,224.5 C 451.5,224.5 452.5,224.5 453.5,224.5C 454.263,225.268 455.263,225.768 456.5,226C 454.405,226.556 454.238,227.056 456,227.5C 458.434,226.678 460.934,226.344 463.5,226.5C 464.552,226.351 465.552,226.517 466.5,227C 464.006,232.316 462.006,237.816 460.5,243.5C 460.167,244.167 459.833,244.833 459.5,245.5C 453.196,244.587 446.863,243.92 440.5,243.5C 440.367,240.412 441.7,238.412 444.5,237.5C 449.746,239.185 455.079,240.018 460.5,240C 454.927,238.348 449.261,237.014 443.5,236C 445.97,232.222 448.303,228.389 450.5,224.5 Z"/></g>
<g><path style="opacity:1" fill="#9ebd6a" d="M 453.5,224.5 C 457.04,224.753 460.373,225.419 463.5,226.5C 460.934,226.344 458.434,226.678 456,227.5C 454.238,227.056 454.405,226.556 456.5,226C 455.263,225.768 454.263,225.268 453.5,224.5 Z"/></g>
<g><path style="opacity:1" fill="#846a26" d="M 416.5,228.5 C 414.477,228.715 412.144,228.715 409.5,228.5C 409.47,227.503 409.97,226.836 411,226.5C 413.03,226.954 414.863,227.62 416.5,228.5 Z"/></g>
<g><path style="opacity:1" fill="#feefc4" d="M 129.5,218.5 C 132.278,218.022 134.278,219.022 135.5,221.5C 133.031,222.168 130.698,222.835 128.5,223.5C 124.129,223.889 120.796,225.889 118.5,229.5C 115.095,232.083 112.595,235.416 111,239.5C 110.581,243.392 109.748,247.058 108.5,250.5C 109.092,247.369 108.092,245.036 105.5,243.5C 105.5,243.167 105.5,242.833 105.5,242.5C 109.228,230.105 117.228,222.105 129.5,218.5 Z"/></g>
<g><path style="opacity:1" fill="#827026" d="M 398.5,228.5 C 400.167,228.5 401.833,228.5 403.5,228.5C 403.218,229.778 402.551,230.778 401.5,231.5C 400.167,230.833 399.167,229.833 398.5,228.5 Z"/></g>
<g><path style="opacity:1" fill="#cb7555" d="M 426.5,224.5 C 427.952,225.302 429.618,225.802 431.5,226C 432.381,226.708 433.047,227.542 433.5,228.5C 429.739,232.534 425.073,234.034 419.5,233C 418.874,232.25 418.374,231.416 418,230.5C 415.878,234.145 412.711,236.145 408.5,236.5C 405.865,235.189 403.531,233.522 401.5,231.5C 402.551,230.778 403.218,229.778 403.5,228.5C 405.5,228.5 407.5,228.5 409.5,228.5C 412.144,228.715 414.477,228.715 416.5,228.5C 420.475,228.514 423.808,227.181 426.5,224.5 Z"/></g>
<g><path style="opacity:1" fill="#b15333" d="M 433.5,228.5 C 433.643,230.262 433.309,231.929 432.5,233.5C 429.779,235.527 426.779,237.027 423.5,238C 424.056,238.383 424.389,238.883 424.5,239.5C 421.127,241.851 417.793,241.518 414.5,238.5C 413.264,239.246 411.93,239.579 410.5,239.5C 409.094,239.027 408.427,238.027 408.5,236.5C 412.711,236.145 415.878,234.145 418,230.5C 418.374,231.416 418.874,232.25 419.5,233C 425.073,234.034 429.739,232.534 433.5,228.5 Z"/></g>
<g><path style="opacity:0.99" fill="#fdfdfb" d="M 44.5,234.5 C 45.1692,239.514 46.0025,244.514 47,249.5C 47.6667,254.167 47.6667,258.833 47,263.5C 43.828,273.533 39.9947,283.2 35.5,292.5C 35.6984,290.425 35.8651,288.425 36,286.5C 17.8857,271.838 18.0524,257.338 36.5,243C 38.5,242 40.5,241 42.5,240C 43.1094,238.052 43.776,236.218 44.5,234.5 Z"/></g>
<g><path style="opacity:1" fill="#feca37" d="M 105.5,242.5 C 105.5,242.833 105.5,243.167 105.5,243.5C 102.029,248.342 99.1959,253.675 97,259.5C 94.773,266.687 92.273,273.687 89.5,280.5C 81.9373,282.236 74.604,281.736 67.5,279C 65.6217,277.457 64.1217,275.624 63,273.5C 62.5357,274.094 62.369,274.761 62.5,275.5C 60.5766,270.439 60.0766,265.105 61,259.5C 70.2606,239.459 85.0939,233.792 105.5,242.5 Z"/></g>
<g><path style="opacity:1" fill="#923a1a" d="M 424.5,239.5 C 426.268,245.609 423.768,248.942 417,249.5C 415.122,249.304 413.288,248.971 411.5,248.5C 411.492,245.455 411.159,242.455 410.5,239.5C 411.93,239.579 413.264,239.246 414.5,238.5C 417.793,241.518 421.127,241.851 424.5,239.5 Z"/></g>
<g><path style="opacity:1" fill="#829d42" d="M 226.5,240.5 C 227.5,240.5 228.5,240.5 229.5,240.5C 229.349,244.314 227.349,245.981 223.5,245.5C 223.31,243.041 224.31,241.374 226.5,240.5 Z"/></g>
<g><path style="opacity:0.982" fill="#fcfdfa" d="M 460.5,243.5 C 476.623,251.442 480.457,263.442 472,279.5C 469.665,281.4 467.498,283.4 465.5,285.5C 462.833,282.167 460.167,278.833 457.5,275.5C 457.672,274.508 457.338,273.842 456.5,273.5C 456.372,269.119 456.705,264.785 457.5,260.5C 457.5,260.167 457.5,259.833 457.5,259.5C 457.5,257.833 457.5,256.167 457.5,254.5C 457.5,254.167 457.5,253.833 457.5,253.5C 458.461,251.735 458.795,249.735 458.5,247.5C 459.338,247.158 459.672,246.492 459.5,245.5C 459.833,244.833 460.167,244.167 460.5,243.5 Z"/></g>
<g><path style="opacity:1" fill="#fef1e0" d="M 118.5,229.5 C 115.878,236.564 114.544,243.897 114.5,251.5C 114.321,277.214 124.321,297.714 144.5,313C 148.152,313.499 151.818,313.665 155.5,313.5C 147.648,314.715 139.648,314.715 131.5,313.5C 129.15,312.139 126.816,310.806 124.5,309.5C 123.833,308.167 122.833,307.167 121.5,306.5C 120.551,304.223 119.218,302.223 117.5,300.5C 116.5,298.5 115.5,296.5 114.5,294.5C 111.891,288.745 109.891,282.745 108.5,276.5C 108.806,273.615 108.473,270.948 107.5,268.5C 107.211,262.409 107.545,256.409 108.5,250.5C 109.748,247.058 110.581,243.392 111,239.5C 112.595,235.416 115.095,232.083 118.5,229.5 Z"/></g>
<g><path style="opacity:1" fill="#febd2a" d="M 105.5,243.5 C 108.092,245.036 109.092,247.369 108.5,250.5C 107.545,256.409 107.211,262.409 107.5,268.5C 102.298,273.703 96.2982,277.703 89.5,280.5C 92.273,273.687 94.773,266.687 97,259.5C 99.1959,253.675 102.029,248.342 105.5,243.5 Z"/></g>
<g><path style="opacity:1" fill="#93a950" d="M 269.5,244.5 C 273.577,244.017 275.91,245.684 276.5,249.5C 272.719,249.704 270.386,248.037 269.5,244.5 Z"/></g>
<g><path style="opacity:1" fill="#8ca442" d="M 319.5,243.5 C 322.621,244.288 324.288,246.288 324.5,249.5C 320.438,249.131 318.771,247.131 319.5,243.5 Z"/></g>
<g><path style="opacity:1" fill="#669b18" d="M 458.5,247.5 C 458.795,249.735 458.461,251.735 457.5,253.5C 450.647,252.093 443.647,250.76 436.5,249.5C 437.049,246.053 439.049,244.386 442.5,244.5C 447.923,245.252 453.256,246.252 458.5,247.5 Z"/></g>
<g><path style="opacity:1" fill="#88a03e" d="M 372.5,246.5 C 378.824,246.872 378.991,248.205 373,250.5C 372.167,250.167 371.333,249.833 370.5,249.5C 371.193,248.482 371.859,247.482 372.5,246.5 Z"/></g>
<g><path style="opacity:1" fill="#feca38" d="M 187.5,284.5 C 187.663,282.143 187.497,279.81 187,277.5C 176.569,295.544 162.069,299.544 143.5,289.5C 142.702,289.957 142.369,290.624 142.5,291.5C 136.911,283.391 135.077,274.391 137,264.5C 142.761,254.016 151.595,249.849 163.5,252C 181.181,256.125 189.181,266.959 187.5,284.5 Z"/></g>
<g><path style="opacity:1" fill="#669b18" d="M 457.5,254.5 C 457.5,256.167 457.5,257.833 457.5,259.5C 449.521,258.701 441.521,258.035 433.5,257.5C 433.421,256.07 433.754,254.736 434.5,253.5C 442.265,252.27 449.932,252.603 457.5,254.5 Z"/></g>
<g><path style="opacity:1" fill="#fed655" d="M 157.5,256.5 C 163.833,256.055 169.833,257.222 175.5,260C 177,262.167 178.5,264.333 180,266.5C 181.923,274.229 179.09,277.729 171.5,277C 168.638,276.07 166.305,274.403 164.5,272C 154.081,270.367 151.748,265.2 157.5,256.5 Z"/></g>
<g><path style="opacity:1" fill="#669b18" d="M 457.5,260.5 C 456.705,264.785 456.372,269.119 456.5,273.5C 456.5,274.833 456.5,276.167 456.5,277.5C 446.784,276.112 437.117,274.445 427.5,272.5C 428.461,267.744 430.127,263.244 432.5,259C 440.755,259.878 449.088,260.378 457.5,260.5 Z"/></g>
<g><path style="opacity:1" fill="#a95d1a" d="M 408.5,259.5 C 410.833,261.5 413.167,263.5 415.5,265.5C 412.279,264.291 409.279,262.624 406.5,260.5C 405.167,261.833 403.833,261.833 402.5,260.5C 401.719,261.737 400.719,262.737 399.5,263.5C 398.304,263.154 398.304,262.654 399.5,262C 398.552,261.517 397.552,261.351 396.5,261.5C 396.5,260.5 396.5,259.5 396.5,258.5C 397.5,258.5 398.5,258.5 399.5,258.5C 400.423,259.303 401.423,259.47 402.5,259C 401.289,258.107 401.289,257.274 402.5,256.5C 404.534,257.559 406.534,258.559 408.5,259.5 Z"/></g>
<g><path style="opacity:1" fill="#df9a2f" d="M 399.5,258.5 C 398.5,258.5 397.5,258.5 396.5,258.5C 396.5,259.5 396.5,260.5 396.5,261.5C 397.552,261.351 398.552,261.517 399.5,262C 398.304,262.654 398.304,263.154 399.5,263.5C 400.719,262.737 401.719,261.737 402.5,260.5C 403.833,261.833 405.167,261.833 406.5,260.5C 409.279,262.624 412.279,264.291 415.5,265.5C 417.403,268.748 419.737,271.748 422.5,274.5C 420.405,275.229 418.572,274.563 417,272.5C 416.833,272.833 416.667,273.167 416.5,273.5C 418.552,275.878 420.552,278.211 422.5,280.5C 422.631,281.239 422.464,281.906 422,282.5C 420.989,281.663 419.822,281.33 418.5,281.5C 416.948,278.888 414.614,277.555 411.5,277.5C 409.732,274.41 407.065,272.41 403.5,271.5C 402.674,269.736 401.341,268.402 399.5,267.5C 393.669,265.961 387.669,264.461 381.5,263C 376.015,259.996 376.181,257.829 382,256.5C 386.513,257.711 391.013,257.711 395.5,256.5C 397.171,256.668 398.504,257.335 399.5,258.5 Z"/></g>
<g><path style="opacity:1" fill="#9b4f14" d="M 415.5,265.5 C 419.858,268.013 423.858,271.013 427.5,274.5C 429.461,276.798 430.461,279.465 430.5,282.5C 428.379,282.675 426.379,282.341 424.5,281.5C 424.158,280.662 423.492,280.328 422.5,280.5C 420.552,278.211 418.552,275.878 416.5,273.5C 416.667,273.167 416.833,272.833 417,272.5C 418.572,274.563 420.405,275.229 422.5,274.5C 419.737,271.748 417.403,268.748 415.5,265.5 Z"/></g>
<g><path style="opacity:1" fill="#feb327" d="M 107.5,268.5 C 108.473,270.948 108.806,273.615 108.5,276.5C 105.973,280.679 102.64,284.179 98.5,287C 95.9278,289.287 92.9278,290.453 89.5,290.5C 88.7109,290.217 88.0442,289.717 87.5,289C 88.713,286.313 89.3797,283.48 89.5,280.5C 96.2982,277.703 102.298,273.703 107.5,268.5 Z"/></g>
<g><path style="opacity:1" fill="#819e41" d="M 240.5,272.5 C 239.393,274.847 237.726,275.18 235.5,273.5C 234.522,273.189 233.855,272.522 233.5,271.5C 236.141,270.164 238.474,270.498 240.5,272.5 Z"/></g>
<g><path style="opacity:1" fill="#fdecd2" d="M 188.5,257.5 C 191.852,260.695 194.685,264.362 197,268.5C 199.71,273.927 201.877,279.594 203.5,285.5C 204.373,289.768 204.706,294.102 204.5,298.5C 203.069,299.78 202.402,301.447 202.5,303.5C 191.052,307.719 180.719,313.719 171.5,321.5C 164.679,320.671 157.679,320.171 150.5,320C 146.649,319.586 142.983,318.752 139.5,317.5C 136.596,316.715 133.93,315.381 131.5,313.5C 139.648,314.715 147.648,314.715 155.5,313.5C 159.582,313.656 163.582,313.156 167.5,312C 170.877,309.7 174.544,307.867 178.5,306.5C 181.854,303.979 184.688,300.979 187,297.5C 193.724,284.374 194.224,271.041 188.5,257.5 Z"/></g>
<g><path style="opacity:1" fill="#eaa83f" d="M 361.5,267.5 C 364.648,268.576 367.648,269.909 370.5,271.5C 371.097,272.139 371.93,272.472 373,272.5C 380.098,270.867 387.265,270.367 394.5,271C 393.377,272.044 392.044,272.71 390.5,273C 384.804,273.17 379.138,273.67 373.5,274.5C 373.957,275.298 374.624,275.631 375.5,275.5C 376.436,276.974 377.77,277.974 379.5,278.5C 379.833,279.5 380.5,280.167 381.5,280.5C 381.167,281.5 380.5,282.167 379.5,282.5C 374.035,279.934 368.702,277.101 363.5,274C 361.771,272.211 361.104,270.044 361.5,267.5 Z"/></g>
<g><path style="opacity:1" fill="#9e5116" d="M 399.5,267.5 C 401.341,268.402 402.674,269.736 403.5,271.5C 396.535,277.13 389.868,283.13 383.5,289.5C 381.205,290.475 379.205,291.808 377.5,293.5C 375.897,293.312 374.563,293.812 373.5,295C 375.154,295.608 376.821,296.108 378.5,296.5C 381.258,297.377 383.924,298.544 386.5,300C 384.866,300.494 383.199,300.66 381.5,300.5C 370.799,301.354 360.465,299.854 350.5,296C 349.177,295.184 348.511,294.017 348.5,292.5C 354.772,291.434 361.105,291.434 367.5,292.5C 368.209,293.404 369.209,293.737 370.5,293.5C 370.961,290.697 372.295,288.363 374.5,286.5C 376.191,285.136 377.858,283.803 379.5,282.5C 380.5,282.167 381.167,281.5 381.5,280.5C 391.521,276.916 391.521,275.25 381.5,275.5C 379.5,275.5 377.5,275.5 375.5,275.5C 374.624,275.631 373.957,275.298 373.5,274.5C 379.138,273.67 384.804,273.17 390.5,273C 392.044,272.71 393.377,272.044 394.5,271C 387.265,270.367 380.098,270.867 373,272.5C 371.93,272.472 371.097,272.139 370.5,271.5C 380.014,269.146 389.681,267.813 399.5,267.5 Z"/></g>
<g><path style="opacity:1" fill="#d89126" d="M 361.5,267.5 C 361.104,270.044 361.771,272.211 363.5,274C 368.702,277.101 374.035,279.934 379.5,282.5C 377.858,283.803 376.191,285.136 374.5,286.5C 374.421,285.07 374.754,283.736 375.5,282.5C 374.311,281.571 372.978,281.238 371.5,281.5C 369.001,279.062 366.001,277.395 362.5,276.5C 359.461,274.544 356.628,272.21 354,269.5C 353.506,267.866 353.34,266.199 353.5,264.5C 356.649,264.415 359.316,265.415 361.5,267.5 Z"/></g>
<g><path style="opacity:1" fill="#e7c993" d="M 375.5,275.5 C 377.5,275.5 379.5,275.5 381.5,275.5C 380.833,276.5 380.167,277.5 379.5,278.5C 377.77,277.974 376.436,276.974 375.5,275.5 Z"/></g>
<g><path style="opacity:1" fill="#588211" d="M 381.5,275.5 C 391.521,275.25 391.521,276.916 381.5,280.5C 380.5,280.167 379.833,279.5 379.5,278.5C 380.167,277.5 380.833,276.5 381.5,275.5 Z"/></g>
<g><path style="opacity:1" fill="#fdbe2d" d="M 89.5,280.5 C 89.3797,283.48 88.713,286.313 87.5,289C 88.0442,289.717 88.7109,290.217 89.5,290.5C 87.0521,291.473 84.3854,291.806 81.5,291.5C 72.128,289.796 65.7947,284.463 62.5,275.5C 62.369,274.761 62.5357,274.094 63,273.5C 64.1217,275.624 65.6217,277.457 67.5,279C 74.604,281.736 81.9373,282.236 89.5,280.5 Z"/></g>
<g><path style="opacity:1" fill="#feeec1" d="M 108.5,276.5 C 109.891,282.745 111.891,288.745 114.5,294.5C 113.85,294.196 113.183,293.863 112.5,293.5C 104.727,300.346 95.7272,304.679 85.5,306.5C 86.3136,301.881 86.6469,297.214 86.5,292.5C 84.5853,292.784 82.9187,292.451 81.5,291.5C 84.3854,291.806 87.0521,291.473 89.5,290.5C 92.9278,290.453 95.9278,289.287 98.5,287C 102.64,284.179 105.973,280.679 108.5,276.5 Z"/></g>
<g><path style="opacity:1" fill="#febe2d" d="M 187.5,284.5 C 183.683,300.255 173.683,306.755 157.5,304C 150.87,301.699 145.87,297.532 142.5,291.5C 142.369,290.624 142.702,289.957 143.5,289.5C 162.069,299.544 176.569,295.544 187,277.5C 187.497,279.81 187.663,282.143 187.5,284.5 Z"/></g>
<g><path style="opacity:1" fill="#618826" d="M 457.5,275.5 C 460.167,278.833 462.833,282.167 465.5,285.5C 467.489,288.806 469.489,292.139 471.5,295.5C 470.767,296.087 469.767,296.087 468.5,295.5C 465.167,295.5 461.833,295.5 458.5,295.5C 458.5,296.833 458.5,298.167 458.5,299.5C 457.523,296.713 457.19,293.713 457.5,290.5C 457.5,285.5 457.5,280.5 457.5,275.5 Z"/></g>
<g><path style="opacity:1" fill="#a3541b" d="M 362.5,276.5 C 366.001,277.395 369.001,279.062 371.5,281.5C 367.5,282.5 363.5,283.5 359.5,284.5C 356.15,284.665 352.817,284.498 349.5,284C 355.126,283.313 360.459,281.813 365.5,279.5C 364.667,279.167 363.833,278.833 363,278.5C 355.686,279.621 348.519,281.287 341.5,283.5C 347.943,279.799 354.943,277.465 362.5,276.5 Z"/></g>
<g><path style="opacity:1" fill="#5b8413" d="M 371.5,281.5 C 372.978,281.238 374.311,281.571 375.5,282.5C 374.754,283.736 374.421,285.07 374.5,286.5C 372.295,288.363 370.961,290.697 370.5,293.5C 369.209,293.737 368.209,293.404 367.5,292.5C 369.085,291.998 369.585,290.998 369,289.5C 366.874,287.623 364.374,286.623 361.5,286.5C 360.833,285.833 360.167,285.167 359.5,284.5C 363.5,283.5 367.5,282.5 371.5,281.5 Z"/></g>
<g><path style="opacity:1" fill="#f3b351" d="M 395.5,273.5 C 396.239,273.369 396.906,273.536 397.5,274C 393.06,279.042 388.06,283.375 382.5,287C 381.365,287.749 380.365,287.583 379.5,286.5C 384.497,281.679 389.831,277.346 395.5,273.5 Z"/></g>
<g><path style="opacity:1" fill="#8da343" d="M 316.5,279.5 C 317.5,279.5 318.5,279.5 319.5,279.5C 318.91,283.316 316.577,284.983 312.5,284.5C 312.281,283.325 312.614,282.325 313.5,281.5C 314.739,281.058 315.739,280.391 316.5,279.5 Z"/></g>
<g><path style="opacity:1" fill="#e6a439" d="M 359.5,284.5 C 360.167,285.167 360.833,285.833 361.5,286.5C 360.766,287.708 360.433,289.041 360.5,290.5C 356.5,290.5 352.5,290.5 348.5,290.5C 345.598,289.422 342.598,288.756 339.5,288.5C 337.026,286.76 334.359,285.26 331.5,284C 334.817,283.502 338.15,283.335 341.5,283.5C 348.519,281.287 355.686,279.621 363,278.5C 363.833,278.833 364.667,279.167 365.5,279.5C 360.459,281.813 355.126,283.313 349.5,284C 352.817,284.498 356.15,284.665 359.5,284.5 Z"/></g>
<g><path style="opacity:1" fill="#669b18" d="M 457.5,290.5 C 457.19,293.713 457.523,296.713 458.5,299.5C 458.5,300.5 458.5,301.5 458.5,302.5C 446.835,300.714 435.168,298.881 423.5,297C 422.342,295.991 421.675,294.658 421.5,293C 421.788,290.813 422.122,288.646 422.5,286.5C 434.249,287.26 445.915,288.594 457.5,290.5 Z"/></g>
<g><path style="opacity:1" fill="#c07719" d="M 361.5,286.5 C 364.374,286.623 366.874,287.623 369,289.5C 369.585,290.998 369.085,291.998 367.5,292.5C 361.105,291.434 354.772,291.434 348.5,292.5C 348.5,291.833 348.5,291.167 348.5,290.5C 352.5,290.5 356.5,290.5 360.5,290.5C 360.433,289.041 360.766,287.708 361.5,286.5 Z"/></g>
<g><path style="opacity:1" fill="#f9e2a9" d="M 114.5,294.5 C 115.5,296.5 116.5,298.5 117.5,300.5C 110.273,303.468 102.94,305.801 95.5,307.5C 88.9779,307.823 82.6446,307.49 76.5,306.5C 79.5,306.5 82.5,306.5 85.5,306.5C 95.7272,304.679 104.727,300.346 112.5,293.5C 113.183,293.863 113.85,294.196 114.5,294.5 Z"/></g>
<g><path style="opacity:1" fill="#f9dbc4" d="M 468.5,295.5 C 469.177,299.375 471.01,302.708 474,305.5C 479.859,317.062 478.192,327.395 469,336.5C 465.956,339.051 462.789,341.384 459.5,343.5C 451.789,333.639 441.789,327.306 429.5,324.5C 441.339,325.572 453.006,327.572 464.5,330.5C 464.833,330 465.167,329.5 465.5,329C 462.468,320.573 460.135,312.073 458.5,303.5C 458.5,303.167 458.5,302.833 458.5,302.5C 458.5,301.5 458.5,300.5 458.5,299.5C 458.5,298.167 458.5,296.833 458.5,295.5C 461.833,295.5 465.167,295.5 468.5,295.5 Z"/></g>
<g><path style="opacity:1" fill="#59881b" d="M 117.5,300.5 C 119.218,302.223 120.551,304.223 121.5,306.5C 112.818,306.521 104.152,306.854 95.5,307.5C 102.94,305.801 110.273,303.468 117.5,300.5 Z"/></g>
<g><path style="opacity:1" fill="#528417" d="M 65.5,221.5 C 70.8333,221.5 76.1667,221.5 81.5,221.5C 65.6396,233.855 54.1396,249.521 47,268.5C 41.8841,292.568 51.7174,305.235 76.5,306.5C 82.6446,307.49 88.9779,307.823 95.5,307.5C 78.7971,309.268 62.1304,311.935 45.5,315.5C 44.8333,315.5 44.1667,315.5 43.5,315.5C 40.921,312.865 37.921,310.699 34.5,309C 32.5116,308.82 30.5116,308.986 28.5,309.5C 31.1159,303.937 33.4493,298.27 35.5,292.5C 39.9947,283.2 43.828,273.533 47,263.5C 47.6667,258.833 47.6667,254.167 47,249.5C 46.0025,244.514 45.1692,239.514 44.5,234.5C 47.6267,233.419 50.9601,232.753 54.5,232.5C 54.804,229.478 55.304,226.478 56,223.5C 59.2704,222.868 62.4371,222.201 65.5,221.5 Z"/></g>
<g><path style="opacity:1" fill="#f8f5e9" d="M 291.5,306.5 C 289.5,307.167 287.5,307.833 285.5,308.5C 284.833,308.5 284.167,308.5 283.5,308.5C 281.901,308.232 280.568,308.566 279.5,309.5C 276.998,309.749 274.498,310.083 272,310.5C 257.907,306.209 244.073,306.542 230.5,311.5C 227.419,310.462 224.419,309.128 221.5,307.5C 220.29,307.068 219.29,306.401 218.5,305.5C 242.688,304.476 267.021,304.809 291.5,306.5 Z"/></g>
<g><path style="opacity:1" fill="#538516" d="M 419.5,206.5 C 421.833,206.5 424.167,206.5 426.5,206.5C 428.739,211.216 430.405,216.216 431.5,221.5C 438.036,222.051 444.369,223.051 450.5,224.5C 448.303,228.389 445.97,232.222 443.5,236C 449.261,237.014 454.927,238.348 460.5,240C 455.079,240.018 449.746,239.185 444.5,237.5C 441.7,238.412 440.367,240.412 440.5,243.5C 446.863,243.92 453.196,244.587 459.5,245.5C 459.672,246.492 459.338,247.158 458.5,247.5C 453.256,246.252 447.923,245.252 442.5,244.5C 439.049,244.386 437.049,246.053 436.5,249.5C 443.647,250.76 450.647,252.093 457.5,253.5C 457.5,253.833 457.5,254.167 457.5,254.5C 449.932,252.603 442.265,252.27 434.5,253.5C 433.754,254.736 433.421,256.07 433.5,257.5C 441.521,258.035 449.521,258.701 457.5,259.5C 457.5,259.833 457.5,260.167 457.5,260.5C 449.088,260.378 440.755,259.878 432.5,259C 430.127,263.244 428.461,267.744 427.5,272.5C 437.117,274.445 446.784,276.112 456.5,277.5C 456.5,276.167 456.5,274.833 456.5,273.5C 457.338,273.842 457.672,274.508 457.5,275.5C 457.5,280.5 457.5,285.5 457.5,290.5C 445.915,288.594 434.249,287.26 422.5,286.5C 422.122,288.646 421.788,290.813 421.5,293C 421.675,294.658 422.342,295.991 423.5,297C 435.168,298.881 446.835,300.714 458.5,302.5C 458.5,302.833 458.5,303.167 458.5,303.5C 445.517,301.741 432.517,300.074 419.5,298.5C 418.643,302.406 418.643,306.24 419.5,310C 424.897,310.227 430.231,310.894 435.5,312C 429.484,312.499 423.484,312.332 417.5,311.5C 417.5,314.833 417.5,318.167 417.5,321.5C 411.5,320.833 405.5,320.167 399.5,319.5C 391.732,317.551 383.732,316.217 375.5,315.5C 354.269,312.295 332.936,309.962 311.5,308.5C 305.021,307.402 298.354,306.735 291.5,306.5C 267.021,304.809 242.688,304.476 218.5,305.5C 213.049,303.679 207.716,303.012 202.5,303.5C 202.402,301.447 203.069,299.78 204.5,298.5C 207.556,300.045 210.722,301.378 214,302.5C 222.719,301.38 231.219,299.38 239.5,296.5C 248.145,299.164 256.812,299.164 265.5,296.5C 268.297,297.314 271.13,297.981 274,298.5C 290.276,295.74 306.61,293.407 323,291.5C 324.8,292.32 326.634,292.986 328.5,293.5C 328.488,296.142 329.821,297.475 332.5,297.5C 332.918,298.222 333.584,298.722 334.5,299C 334.167,299.333 333.833,299.667 333.5,300C 330.478,300.098 327.811,300.932 325.5,302.5C 322.784,302.678 320.117,303.178 317.5,304C 316.167,304.667 316.167,305.333 317.5,306C 328.574,306.83 339.574,306.33 350.5,304.5C 355.82,305.266 361.154,305.432 366.5,305C 356.211,298.959 345.211,294.792 333.5,292.5C 334.802,290.178 336.802,288.845 339.5,288.5C 342.598,288.756 345.598,289.422 348.5,290.5C 348.5,291.167 348.5,291.833 348.5,292.5C 348.511,294.017 349.177,295.184 350.5,296C 360.465,299.854 370.799,301.354 381.5,300.5C 394.851,322.76 396.851,321.76 387.5,297.5C 394.568,300.289 401.901,301.456 409.5,301C 412.129,298.211 411.462,296.211 407.5,295C 399.916,293.26 392.249,292.094 384.5,291.5C 383.662,291.158 383.328,290.492 383.5,289.5C 389.868,283.13 396.535,277.13 403.5,271.5C 407.065,272.41 409.732,274.41 411.5,277.5C 401.45,279.527 392.45,283.694 384.5,290C 396.41,289.531 407.744,286.698 418.5,281.5C 419.822,281.33 420.989,281.663 422,282.5C 422.464,281.906 422.631,281.239 422.5,280.5C 423.492,280.328 424.158,280.662 424.5,281.5C 423.596,282.209 423.263,283.209 423.5,284.5C 434.508,285.768 445.508,287.101 456.5,288.5C 456.5,285.5 456.5,282.5 456.5,279.5C 446.893,277.51 437.227,275.843 427.5,274.5C 423.858,271.013 419.858,268.013 415.5,265.5C 413.167,263.5 410.833,261.5 408.5,259.5C 407.946,255.256 408.946,251.59 411.5,248.5C 413.288,248.971 415.122,249.304 417,249.5C 423.768,248.942 426.268,245.609 424.5,239.5C 424.389,238.883 424.056,238.383 423.5,238C 426.779,237.027 429.779,235.527 432.5,233.5C 433.309,231.929 433.643,230.262 433.5,228.5C 433.047,227.542 432.381,226.708 431.5,226C 429.618,225.802 427.952,225.302 426.5,224.5C 426.795,222.265 426.461,220.265 425.5,218.5C 424.77,217.288 423.77,216.288 422.5,215.5C 423.754,213.357 423.754,211.357 422.5,209.5C 421.694,208.272 420.694,207.272 419.5,206.5 Z"/></g>
<g><path style="opacity:1" fill="#9d5316" d="M 325.5,302.5 C 324.737,303.268 323.737,303.768 322.5,304C 330.287,304.975 337.954,304.475 345.5,302.5C 347.422,302.801 349.088,303.467 350.5,304.5C 339.574,306.33 328.574,306.83 317.5,306C 316.167,305.333 316.167,304.667 317.5,304C 320.117,303.178 322.784,302.678 325.5,302.5 Z"/></g>
<g><path style="opacity:1" fill="#a75c16" d="M 325.5,302.5 C 327.811,300.932 330.478,300.098 333.5,300C 333.833,299.667 334.167,299.333 334.5,299C 333.584,298.722 332.918,298.222 332.5,297.5C 332.656,293.865 333.822,293.532 336,296.5C 336.333,295.833 336.667,295.167 337,294.5C 337.72,296.112 337.554,297.612 336.5,299C 337.167,299.667 337.833,300.333 338.5,301C 334.187,301.735 329.853,302.235 325.5,302.5 Z"/></g>
<g><path style="opacity:1" fill="#994f15" d="M 384.5,291.5 C 392.249,292.094 399.916,293.26 407.5,295C 411.462,296.211 412.129,298.211 409.5,301C 401.901,301.456 394.568,300.289 387.5,297.5C 386.227,296.923 386.227,296.257 387.5,295.5C 392.342,297.41 397.342,297.91 402.5,297C 396.322,295.084 390.322,293.251 384.5,291.5 Z"/></g>
<g><path style="opacity:1" fill="#dc9b2d" d="M 333.5,292.5 C 345.211,294.792 356.211,298.959 366.5,305C 361.154,305.432 355.82,305.266 350.5,304.5C 349.088,303.467 347.422,302.801 345.5,302.5C 337.954,304.475 330.287,304.975 322.5,304C 323.737,303.768 324.737,303.268 325.5,302.5C 329.853,302.235 334.187,301.735 338.5,301C 337.833,300.333 337.167,299.667 336.5,299C 337.554,297.612 337.72,296.112 337,294.5C 336.667,295.167 336.333,295.833 336,296.5C 333.822,293.532 332.656,293.865 332.5,297.5C 329.821,297.475 328.488,296.142 328.5,293.5C 330.042,292.699 331.708,292.366 333.5,292.5 Z"/></g>
<g><path style="opacity:1" fill="#f7b94f" d="M 338.5,297.5 C 339.946,296.387 341.613,296.22 343.5,297C 349.231,298.799 354.898,300.799 360.5,303C 352.672,303.043 345.338,301.21 338.5,297.5 Z"/></g>
<g><path style="opacity:1" fill="#e3a338" d="M 383.5,289.5 C 383.328,290.492 383.662,291.158 384.5,291.5C 390.322,293.251 396.322,295.084 402.5,297C 397.342,297.91 392.342,297.41 387.5,295.5C 386.227,296.257 386.227,296.923 387.5,297.5C 396.851,321.76 394.851,322.76 381.5,300.5C 383.199,300.66 384.866,300.494 386.5,300C 383.924,298.544 381.258,297.377 378.5,296.5C 378.443,295.391 378.11,294.391 377.5,293.5C 379.205,291.808 381.205,290.475 383.5,289.5 Z"/></g>
<g><path style="opacity:1" fill="#707812" d="M 377.5,293.5 C 378.11,294.391 378.443,295.391 378.5,296.5C 376.821,296.108 375.154,295.608 373.5,295C 374.563,293.812 375.897,293.312 377.5,293.5 Z"/></g>
<g><path style="opacity:1" fill="#f0b050" d="M 357.5,295.5 C 365.315,294.348 372.982,295.514 380.5,299C 372.558,299.565 364.891,298.398 357.5,295.5 Z"/></g>
<g><path style="opacity:1" fill="#9a5114" d="M 411.5,277.5 C 414.614,277.555 416.948,278.888 418.5,281.5C 407.744,286.698 396.41,289.531 384.5,290C 392.45,283.694 401.45,279.527 411.5,277.5 Z"/></g>
<g><path style="opacity:1" fill="#f3b352" d="M 406.5,280.5 C 412.825,280.004 413.159,281.171 407.5,284C 383.973,290.425 383.64,289.258 406.5,280.5 Z"/></g>
<g><path style="opacity:1" fill="#679b18" d="M 427.5,274.5 C 437.227,275.843 446.893,277.51 456.5,279.5C 456.5,282.5 456.5,285.5 456.5,288.5C 445.508,287.101 434.508,285.768 423.5,284.5C 423.263,283.209 423.596,282.209 424.5,281.5C 426.379,282.341 428.379,282.675 430.5,282.5C 430.461,279.465 429.461,276.798 427.5,274.5 Z"/></g>
<g><path style="opacity:1" fill="#b7cc94" d="M 291.5,306.5 C 298.354,306.735 305.021,307.402 311.5,308.5C 309.901,308.232 308.568,308.566 307.5,309.5C 300.223,308.57 292.89,308.236 285.5,308.5C 287.5,307.833 289.5,307.167 291.5,306.5 Z"/></g>
<g><path style="opacity:0.887" fill="#fbfcf9" d="M 307.5,309.5 C 308.568,308.566 309.901,308.232 311.5,308.5C 332.936,309.962 354.269,312.295 375.5,315.5C 365.071,317.808 354.404,319.475 343.5,320.5C 342.666,319.252 341.333,318.585 339.5,318.5C 334.421,318.485 333.755,319.485 337.5,321.5C 332.473,322.509 327.473,322.509 322.5,321.5C 321.833,320.167 320.833,319.167 319.5,318.5C 317.25,313.26 313.25,310.26 307.5,309.5 Z"/></g>
<g><path style="opacity:1" fill="#e9fec9" d="M 271.5,337.5 C 266.109,339.693 260.776,342.193 255.5,345C 251.578,346.463 247.578,347.629 243.5,348.5C 243.25,346.326 242.25,344.659 240.5,343.5C 240.389,342.883 240.056,342.383 239.5,342C 243.721,339.102 248.388,337.102 253.5,336C 258.347,331.076 258.68,325.909 254.5,320.5C 247.341,317.187 241.008,318.353 235.5,324C 234.552,324.483 233.552,324.649 232.5,324.5C 232.215,320.809 231.215,317.309 229.5,314C 229.836,312.97 230.503,312.47 231.5,312.5C 245.404,308.019 259.071,308.519 272.5,314C 276.242,318.517 277.409,323.684 276,329.5C 275.14,332.633 273.64,335.3 271.5,337.5 Z"/></g>
<g><path style="opacity:1" fill="#e8fdc8" d="M 279.5,309.5 C 280.568,308.566 281.901,308.232 283.5,308.5C 289.653,309.328 295.987,309.828 302.5,310C 314.506,311.181 319.339,317.681 317,329.5C 316.14,332.633 314.64,335.3 312.5,337.5C 303.609,342.067 294.275,345.734 284.5,348.5C 284.166,345.832 282.833,343.832 280.5,342.5C 280.942,341.261 281.609,340.261 282.5,339.5C 287.007,338.458 291.341,336.958 295.5,335C 298.572,331.268 299.239,327.101 297.5,322.5C 292.498,318.208 287.164,317.541 281.5,320.5C 279.605,319.027 277.939,317.36 276.5,315.5C 275.859,314.518 275.193,313.518 274.5,312.5C 276.657,311.21 278.99,310.376 281.5,310C 280.906,309.536 280.239,309.369 279.5,309.5 Z"/></g>
<g><path style="opacity:1" fill="#456f10" d="M 121.5,306.5 C 122.833,307.167 123.833,308.167 124.5,309.5C 97.4051,311.238 70.7385,315.571 44.5,322.5C 44.9926,320.194 45.3259,317.861 45.5,315.5C 62.1304,311.935 78.7971,309.268 95.5,307.5C 104.152,306.854 112.818,306.521 121.5,306.5 Z"/></g>
<g><path style="opacity:1" fill="#588219" d="M 124.5,309.5 C 126.816,310.806 129.15,312.139 131.5,313.5C 133.93,315.381 136.596,316.715 139.5,317.5C 130.816,318.948 122.15,320.615 113.5,322.5C 88.4994,328.055 63.8327,334.055 39.5,340.5C 41.172,334.476 42.8387,328.476 44.5,322.5C 70.7385,315.571 97.4051,311.238 124.5,309.5 Z"/></g>
<g><path style="opacity:1" fill="#699c1d" d="M 43.5,315.5 C 37.0775,316.785 30.7442,318.452 24.5,320.5C 24.1667,320.167 23.8333,319.833 23.5,319.5C 25.1799,316.14 26.8466,312.807 28.5,309.5C 30.5116,308.986 32.5116,308.82 34.5,309C 37.921,310.699 40.921,312.865 43.5,315.5 Z"/></g>
<g><path style="opacity:1" fill="#689c1b" d="M 458.5,303.5 C 460.135,312.073 462.468,320.573 465.5,329C 465.167,329.5 464.833,330 464.5,330.5C 453.006,327.572 441.339,325.572 429.5,324.5C 425.5,323.5 421.5,322.5 417.5,321.5C 417.5,318.167 417.5,314.833 417.5,311.5C 423.484,312.332 429.484,312.499 435.5,312C 430.231,310.894 424.897,310.227 419.5,310C 418.643,306.24 418.643,302.406 419.5,298.5C 432.517,300.074 445.517,301.741 458.5,303.5 Z"/></g>
<g><path style="opacity:1" fill="#fcf4e8" d="M 139.5,317.5 C 142.983,318.752 146.649,319.586 150.5,320C 157.679,320.171 164.679,320.671 171.5,321.5C 167.833,325.5 164.167,329.5 160.5,333.5C 145.825,332.943 131.492,330.443 117.5,326C 115.456,325.502 114.122,324.335 113.5,322.5C 122.15,320.615 130.816,318.948 139.5,317.5 Z"/></g>
<g><path style="opacity:1" fill="#73a32f" d="M 279.5,309.5 C 280.239,309.369 280.906,309.536 281.5,310C 278.99,310.376 276.657,311.21 274.5,312.5C 275.193,313.518 275.859,314.518 276.5,315.5C 280.242,326.126 278.075,335.459 270,343.5C 259.052,353.432 246.218,359.432 231.5,361.5C 242.836,358.324 253.503,353.491 263.5,347C 266.777,344.234 269.443,341.067 271.5,337.5C 273.64,335.3 275.14,332.633 276,329.5C 277.409,323.684 276.242,318.517 272.5,314C 259.071,308.519 245.404,308.019 231.5,312.5C 231.5,311.833 231.167,311.5 230.5,311.5C 244.073,306.542 257.907,306.209 272,310.5C 274.498,310.083 276.998,309.749 279.5,309.5 Z"/></g>
<g><path style="opacity:0.863" fill="#f7ecdd" d="M 375.5,315.5 C 383.732,316.217 391.732,317.551 399.5,319.5C 378.273,318.2 357.606,320.7 337.5,327C 333.514,327.499 329.514,327.666 325.5,327.5C 325.795,329.735 325.461,331.735 324.5,333.5C 325.01,329.187 324.343,325.187 322.5,321.5C 327.473,322.509 332.473,322.509 337.5,321.5C 339.379,320.659 341.379,320.325 343.5,320.5C 354.404,319.475 365.071,317.808 375.5,315.5 Z"/></g>
<g><path style="opacity:1" fill="#578619" d="M 221.5,307.5 C 224.419,309.128 227.419,310.462 230.5,311.5C 231.167,311.5 231.5,311.833 231.5,312.5C 230.503,312.47 229.836,312.97 229.5,314C 231.215,317.309 232.215,320.809 232.5,324.5C 231.673,333.65 228.673,341.984 223.5,349.5C 221.844,351.46 220.177,353.46 218.5,355.5C 216.299,358.021 213.966,360.521 211.5,363C 218.235,363.489 224.901,362.989 231.5,361.5C 246.218,359.432 259.052,353.432 270,343.5C 278.075,335.459 280.242,326.126 276.5,315.5C 277.939,317.36 279.605,319.027 281.5,320.5C 282.93,322.155 283.764,324.155 284,326.5C 285.627,324.688 287.127,324.521 288.5,326C 287.139,327.962 285.972,329.796 285,331.5C 286.993,329.622 289.159,329.288 291.5,330.5C 289.353,332.663 286.686,333.663 283.5,333.5C 283.167,335.5 282.833,337.5 282.5,339.5C 281.609,340.261 280.942,341.261 280.5,342.5C 282.833,343.832 284.166,345.832 284.5,348.5C 284.103,349.525 283.437,349.692 282.5,349C 281.382,347.926 280.382,346.76 279.5,345.5C 278.522,345.977 277.689,346.643 277,347.5C 276.749,349.433 276.249,351.266 275.5,353C 274.256,353.456 273.423,352.956 273,351.5C 267.589,356.46 261.422,360.294 254.5,363C 259.223,363.624 263.89,363.29 268.5,362C 278.169,359.722 287.503,356.555 296.5,352.5C 312.064,346.589 319.73,335.255 319.5,318.5C 320.833,319.167 321.833,320.167 322.5,321.5C 324.343,325.187 325.01,329.187 324.5,333.5C 324.5,334.5 324.5,335.5 324.5,336.5C 322.7,340.76 320.367,344.76 317.5,348.5C 316.5,348.833 315.833,349.5 315.5,350.5C 293.06,368.151 267.893,374.151 240,368.5C 228.966,371.151 217.799,371.984 206.5,371C 205.892,370.13 205.059,369.63 204,369.5C 198.709,373.556 193.209,377.223 187.5,380.5C 177.686,385.69 168.019,385.69 158.5,380.5C 171.345,381.222 182.345,377.222 191.5,368.5C 204.386,360.098 214.553,349.098 222,335.5C 225.488,326.055 225.321,316.722 221.5,307.5 Z"/></g>
<g><path style="opacity:1" fill="#d8fda8" d="M 282.5,339.5 C 282.833,337.5 283.167,335.5 283.5,333.5C 286.686,333.663 289.353,332.663 291.5,330.5C 289.159,329.288 286.993,329.622 285,331.5C 285.972,329.796 287.139,327.962 288.5,326C 287.127,324.521 285.627,324.688 284,326.5C 283.764,324.155 282.93,322.155 281.5,320.5C 287.164,317.541 292.498,318.208 297.5,322.5C 299.239,327.101 298.572,331.268 295.5,335C 291.341,336.958 287.007,338.458 282.5,339.5 Z"/></g>
<g><path style="opacity:1" fill="#f8e7da" d="M 453.5,355.5 C 453.524,350.38 451.524,346.213 447.5,343C 443.425,341.917 439.425,340.584 435.5,339C 431.84,334.482 427.173,331.982 421.5,331.5C 412.352,332.921 404.018,331.088 396.5,326C 391.928,325.113 387.595,325.78 383.5,328C 378.5,328.333 373.5,328.667 368.5,329C 366.5,330 364.5,331 362.5,332C 346.052,329.727 332.219,334.56 321,346.5C 319.991,348.025 319.491,349.692 319.5,351.5C 318.833,350.5 318.167,349.5 317.5,348.5C 320.367,344.76 322.7,340.76 324.5,336.5C 324.435,336.938 324.601,337.272 325,337.5C 329.84,333.164 335.34,329.997 341.5,328C 374.027,318.731 406.36,319.398 438.5,330C 445.274,332.967 450.774,337.467 455,343.5C 455.667,346.833 455.667,350.167 455,353.5C 454.722,354.416 454.222,355.082 453.5,355.5 Z"/></g>
<g><path style="opacity:1" fill="#f9dac2" d="M 35.5,292.5 C 33.4493,298.27 31.1159,303.937 28.5,309.5C 26.8466,312.807 25.1799,316.14 23.5,319.5C 23.8333,319.833 24.1667,320.167 24.5,320.5C 30.7442,318.452 37.0775,316.785 43.5,315.5C 44.1667,315.5 44.8333,315.5 45.5,315.5C 45.3259,317.861 44.9926,320.194 44.5,322.5C 42.8387,328.476 41.172,334.476 39.5,340.5C 63.8327,334.055 88.4994,328.055 113.5,322.5C 114.122,324.335 115.456,325.502 117.5,326C 131.492,330.443 145.825,332.943 160.5,333.5C 150.946,343.612 146.779,355.612 148,369.5C 148.653,372.139 149.82,374.473 151.5,376.5C 119.466,373.242 88.4663,365.742 58.5,354C 46.0133,348.84 35.18,341.34 26,331.5C 20,322.5 20,313.5 26,304.5C 29.4113,300.601 32.5779,296.601 35.5,292.5 Z"/></g>
<g><path style="opacity:1" fill="#d61f1f" d="M 421.5,331.5 C 422.745,336.979 424.411,342.313 426.5,347.5C 425.138,353.695 421.472,357.862 415.5,360C 404.438,361.393 393.772,364.06 383.5,368C 375.591,369.5 368.258,368.167 361.5,364C 352.849,362.89 344.182,361.89 335.5,361C 330.139,358.986 325.139,356.486 320.5,353.5C 319.662,353.158 319.328,352.492 319.5,351.5C 319.491,349.692 319.991,348.025 321,346.5C 332.219,334.56 346.052,329.727 362.5,332C 364.5,331 366.5,330 368.5,329C 373.5,328.667 378.5,328.333 383.5,328C 387.595,325.78 391.928,325.113 396.5,326C 404.018,331.088 412.352,332.921 421.5,331.5 Z"/></g>
<g><path style="opacity:1" fill="#d7fca8" d="M 240.5,343.5 C 239.624,343.369 238.957,343.702 238.5,344.5C 239.124,346.754 240.457,348.421 242.5,349.5C 243.107,349.376 243.44,349.043 243.5,348.5C 247.578,347.629 251.578,346.463 255.5,345C 260.776,342.193 266.109,339.693 271.5,337.5C 269.443,341.067 266.777,344.234 263.5,347C 253.503,353.491 242.836,358.324 231.5,361.5C 224.901,362.989 218.235,363.489 211.5,363C 213.966,360.521 216.299,358.021 218.5,355.5C 222.538,357.522 226.871,358.022 231.5,357C 233.635,356.124 234.969,354.624 235.5,352.5C 235.949,350.023 235.283,348.023 233.5,346.5C 232.702,346.957 232.369,347.624 232.5,348.5C 231.778,348.918 231.278,349.584 231,350.5C 230.536,349.906 230.369,349.239 230.5,348.5C 230.314,343.69 229.314,343.357 227.5,347.5C 226.533,348.806 225.199,349.473 223.5,349.5C 228.673,341.984 231.673,333.65 232.5,324.5C 233.552,324.649 234.552,324.483 235.5,324C 241.008,318.353 247.341,317.187 254.5,320.5C 258.68,325.909 258.347,331.076 253.5,336C 248.388,337.102 243.721,339.102 239.5,342C 240.056,342.383 240.389,342.883 240.5,343.5 Z"/></g>
<g><path style="opacity:1" fill="#73a42a" d="M 245.5,324.5 C 248.099,326.584 247.599,328.251 244,329.5C 243.5,329.167 243,328.833 242.5,328.5C 243.172,326.84 244.172,325.507 245.5,324.5 Z"/></g>
<g><path style="opacity:1" fill="#73a529" d="M 240.5,321.5 C 241.497,321.47 242.164,321.97 242.5,323C 239.87,329.441 238.703,329.608 239,323.5C 239.717,322.956 240.217,322.289 240.5,321.5 Z"/></g>
<g><path style="opacity:1" fill="#76a72e" d="M 246.5,329.5 C 251.584,330.777 251.25,332.111 245.5,333.5C 244.833,333.167 244.167,332.833 243.5,332.5C 244.34,331.265 245.34,330.265 246.5,329.5 Z"/></g>
<g><path style="opacity:1" fill="#bb1917" d="M 421.5,331.5 C 427.173,331.982 431.84,334.482 435.5,339C 439.425,340.584 443.425,341.917 447.5,343C 451.524,346.213 453.524,350.38 453.5,355.5C 451.332,358.5 448.666,361 445.5,363C 426.394,371.982 406.228,376.149 385,375.5C 369.395,375.509 354.229,373.009 339.5,368C 335.007,365.921 330.674,363.588 326.5,361C 323.882,358.894 321.882,356.394 320.5,353.5C 325.139,356.486 330.139,358.986 335.5,361C 344.182,361.89 352.849,362.89 361.5,364C 368.258,368.167 375.591,369.5 383.5,368C 393.772,364.06 404.438,361.393 415.5,360C 421.472,357.862 425.138,353.695 426.5,347.5C 424.411,342.313 422.745,336.979 421.5,331.5 Z"/></g>
<g><path style="opacity:0.997" fill="#fefcfc" d="M 399.5,319.5 C 405.5,320.167 411.5,320.833 417.5,321.5C 421.5,322.5 425.5,323.5 429.5,324.5C 441.789,327.306 451.789,333.639 459.5,343.5C 459.804,349.577 459.304,355.577 458,361.5C 455.078,367.68 451.911,373.68 448.5,379.5C 447.577,378.697 446.577,378.53 445.5,379C 435.02,389.574 422.353,395.907 407.5,398C 390.775,400.231 374.109,399.897 357.5,397C 340.256,393.078 327.756,383.245 320,367.5C 317.404,362.113 315.904,356.447 315.5,350.5C 315.833,349.5 316.5,348.833 317.5,348.5C 318.167,349.5 318.833,350.5 319.5,351.5C 319.328,352.492 319.662,353.158 320.5,353.5C 321.882,356.394 323.882,358.894 326.5,361C 330.674,363.588 335.007,365.921 339.5,368C 354.229,373.009 369.395,375.509 385,375.5C 406.228,376.149 426.394,371.982 445.5,363C 448.666,361 451.332,358.5 453.5,355.5C 454.222,355.082 454.722,354.416 455,353.5C 455.667,350.167 455.667,346.833 455,343.5C 450.774,337.467 445.274,332.967 438.5,330C 406.36,319.398 374.027,318.731 341.5,328C 335.34,329.997 329.84,333.164 325,337.5C 324.601,337.272 324.435,336.938 324.5,336.5C 324.5,335.5 324.5,334.5 324.5,333.5C 325.461,331.735 325.795,329.735 325.5,327.5C 329.514,327.666 333.514,327.499 337.5,327C 357.606,320.7 378.273,318.2 399.5,319.5 Z"/></g>
<g><path style="opacity:1" fill="#74a42d" d="M 240.5,343.5 C 242.25,344.659 243.25,346.326 243.5,348.5C 243.44,349.043 243.107,349.376 242.5,349.5C 240.457,348.421 239.124,346.754 238.5,344.5C 238.957,343.702 239.624,343.369 240.5,343.5 Z"/></g>
<g><path style="opacity:1" fill="#6da127" d="M 283.5,308.5 C 284.167,308.5 284.833,308.5 285.5,308.5C 292.89,308.236 300.223,308.57 307.5,309.5C 313.25,310.26 317.25,313.26 319.5,318.5C 319.73,335.255 312.064,346.589 296.5,352.5C 303.112,348.889 308.446,343.889 312.5,337.5C 314.64,335.3 316.14,332.633 317,329.5C 319.339,317.681 314.506,311.181 302.5,310C 295.987,309.828 289.653,309.328 283.5,308.5 Z"/></g>
<g><path style="opacity:1" fill="#70a326" d="M 230.5,348.5 C 228.19,352.786 227.19,352.452 227.5,347.5C 229.314,343.357 230.314,343.69 230.5,348.5 Z"/></g>
<g><path style="opacity:1" fill="#6fa627" d="M 235.5,352.5 C 234.85,352.804 234.183,353.137 233.5,353.5C 232.548,351.955 232.215,350.288 232.5,348.5C 232.369,347.624 232.702,346.957 233.5,346.5C 235.283,348.023 235.949,350.023 235.5,352.5 Z"/></g>
<g><path style="opacity:1" fill="#c7f98c" d="M 227.5,347.5 C 227.19,352.452 228.19,352.786 230.5,348.5C 230.369,349.239 230.536,349.906 231,350.5C 231.278,349.584 231.778,348.918 232.5,348.5C 232.215,350.288 232.548,351.955 233.5,353.5C 234.183,353.137 234.85,352.804 235.5,352.5C 234.969,354.624 233.635,356.124 231.5,357C 226.871,358.022 222.538,357.522 218.5,355.5C 220.177,353.46 221.844,351.46 223.5,349.5C 225.199,349.473 226.533,348.806 227.5,347.5 Z"/></g>
<g><path style="opacity:1" fill="#d6fca6" d="M 312.5,337.5 C 308.446,343.889 303.112,348.889 296.5,352.5C 287.503,356.555 278.169,359.722 268.5,362C 263.89,363.29 259.223,363.624 254.5,363C 261.422,360.294 267.589,356.46 273,351.5C 273.423,352.956 274.256,353.456 275.5,353C 276.249,351.266 276.749,349.433 277,347.5C 277.689,346.643 278.522,345.977 279.5,345.5C 280.382,346.76 281.382,347.926 282.5,349C 283.437,349.692 284.103,349.525 284.5,348.5C 294.275,345.734 303.609,342.067 312.5,337.5 Z"/></g>
<g><path style="opacity:1" fill="#f8dac3" d="M 315.5,350.5 C 315.904,356.447 317.404,362.113 320,367.5C 327.756,383.245 340.256,393.078 357.5,397C 374.109,399.897 390.775,400.231 407.5,398C 422.353,395.907 435.02,389.574 445.5,379C 446.577,378.53 447.577,378.697 448.5,379.5C 450.02,383.7 449.52,387.7 447,391.5C 436.943,398.607 425.777,403.107 413.5,405C 386.212,409.385 359.545,407.051 333.5,398C 328.459,395.745 324.625,392.245 322,387.5C 321.503,385.19 321.337,382.857 321.5,380.5C 276.771,384.332 232.104,384.332 187.5,380.5C 193.209,377.223 198.709,373.556 204,369.5C 205.059,369.63 205.892,370.13 206.5,371C 217.799,371.984 228.966,371.151 240,368.5C 267.893,374.151 293.06,368.151 315.5,350.5 Z"/></g>
<g><path style="opacity:1" fill="#73a32e" d="M 202.5,303.5 C 207.716,303.012 213.049,303.679 218.5,305.5C 219.29,306.401 220.29,307.068 221.5,307.5C 225.321,316.722 225.488,326.055 222,335.5C 214.553,349.098 204.386,360.098 191.5,368.5C 182.345,377.222 171.345,381.222 158.5,380.5C 155.669,379.921 153.336,378.588 151.5,376.5C 149.82,374.473 148.653,372.139 148,369.5C 146.779,355.612 150.946,343.612 160.5,333.5C 164.167,329.5 167.833,325.5 171.5,321.5C 180.719,313.719 191.052,307.719 202.5,303.5 Z"/></g>
<g><path style="opacity:1" fill="#d8fda8" d="M 194.5,345.5 C 195.121,348.121 196.788,349.788 199.5,350.5C 200.298,350.043 200.631,349.376 200.5,348.5C 209.237,342.098 216.57,334.432 222.5,325.5C 221.25,333.667 218.083,341 213,347.5C 206.324,355.071 199.158,362.071 191.5,368.5C 185.281,372.441 178.614,375.608 171.5,378C 153.66,380.449 146.66,372.949 150.5,355.5C 150.027,358.833 151.36,361 154.5,362C 162.249,362.647 169.916,362.147 177.5,360.5C 178.65,355.327 176.65,352.327 171.5,351.5C 172.85,350.176 172.683,349.176 171,348.5C 169.357,349.315 167.857,350.315 166.5,351.5C 163.833,350.833 162.167,349.167 161.5,346.5C 169.5,345.5 169.5,344.5 161.5,343.5C 162.46,341.539 163.793,339.873 165.5,338.5C 171.157,336.156 176.824,333.656 182.5,331C 184.188,326.625 186.855,322.958 190.5,320C 199.159,316.827 204.492,319.66 206.5,328.5C 203.945,333.559 200.445,337.892 196,341.5C 195.209,342.745 194.709,344.078 194.5,345.5 Z"/></g>
<g><path style="opacity:1" fill="#6ea625" d="M 194.5,357.5 C 191.224,356.878 189.891,354.878 190.5,351.5C 191.329,350.668 192.162,351.001 193,352.5C 194.009,354.025 194.509,355.692 194.5,357.5 Z"/></g>
<g><path style="opacity:1" fill="#71a629" d="M 188.5,355.5 C 188.179,357.048 187.179,357.715 185.5,357.5C 185.337,355.143 185.503,352.81 186,350.5C 187.883,351.653 188.716,353.319 188.5,355.5 Z"/></g>
<g><path style="opacity:1" fill="#cafc8f" d="M 190.5,351.5 C 189.891,354.878 191.224,356.878 194.5,357.5C 191.744,364.296 186.911,366.629 180,364.5C 178.991,362.975 178.491,361.308 178.5,359.5C 181.079,359.606 183.412,358.939 185.5,357.5C 187.179,357.715 188.179,357.048 188.5,355.5C 189.167,354.167 189.833,352.833 190.5,351.5 Z"/></g>
<g><path style="opacity:1" fill="#6d9e21" d="M 171.5,351.5 C 169.716,352.72 168.05,352.72 166.5,351.5C 167.857,350.315 169.357,349.315 171,348.5C 172.683,349.176 172.85,350.176 171.5,351.5 Z"/></g>
<g><path style="opacity:1" fill="#6fa126" d="M 194.5,345.5 C 196.947,345.615 198.947,346.615 200.5,348.5C 200.631,349.376 200.298,350.043 199.5,350.5C 196.788,349.788 195.121,348.121 194.5,345.5 Z"/></g>
<g><path style="opacity:1" fill="#e9feca" d="M 222.5,325.5 C 216.57,334.432 209.237,342.098 200.5,348.5C 198.947,346.615 196.947,345.615 194.5,345.5C 194.709,344.078 195.209,342.745 196,341.5C 200.445,337.892 203.945,333.559 206.5,328.5C 204.492,319.66 199.159,316.827 190.5,320C 186.855,322.958 184.188,326.625 182.5,331C 176.824,333.656 171.157,336.156 165.5,338.5C 163.793,339.873 162.46,341.539 161.5,343.5C 160.167,344.5 160.167,345.5 161.5,346.5C 162.167,349.167 163.833,350.833 166.5,351.5C 168.05,352.72 169.716,352.72 171.5,351.5C 176.65,352.327 178.65,355.327 177.5,360.5C 169.916,362.147 162.249,362.647 154.5,362C 151.36,361 150.027,358.833 150.5,355.5C 152.488,347.191 156.321,339.858 162,333.5C 172.757,320.211 186.257,311.045 202.5,306C 217.131,304.129 223.797,310.629 222.5,325.5 Z"/></g>
<g><path style="opacity:1" fill="#73a62c" d="M 161.5,343.5 C 169.5,344.5 169.5,345.5 161.5,346.5C 160.167,345.5 160.167,344.5 161.5,343.5 Z"/></g>
<g><path style="opacity:1" fill="#6fa226" d="M 165.5,338.5 C 167.827,338.247 169.827,338.914 171.5,340.5C 169.926,341.631 168.259,341.798 166.5,341C 165.748,340.329 165.414,339.496 165.5,338.5 Z"/></g>
<g><path style="opacity:1" fill="#6fa124" d="M 196.5,329.5 C 198.355,329.272 199.188,329.939 199,331.5C 193.242,335.762 192.409,335.095 196.5,329.5 Z"/></g>
<g><path style="opacity:1" fill="#78a830" d="M 187.5,324.5 C 189.951,326.916 190.117,329.583 188,332.5C 186.188,329.954 186.022,327.288 187.5,324.5 Z"/></g>
<g><path style="opacity:1" fill="#73a52a" d="M 193.5,325.5 C 194.497,325.47 195.164,325.97 195.5,327C 192.87,333.441 191.703,333.608 192,327.5C 192.717,326.956 193.217,326.289 193.5,325.5 Z"/></g>
</svg>
