<?xml version="1.0" encoding="UTF-8"?>
<!DOCTYPE svg PUBLIC "-//W3C//DTD SVG 1.1//EN" "http://www.w3.org/Graphics/SVG/1.1/DTD/svg11.dtd">
<svg xmlns="http://www.w3.org/2000/svg" version="1.1" width="500px" height="500px" style="shape-rendering:geometricPrecision; text-rendering:geometricPrecision; image-rendering:optimizeQuality; fill-rule:evenodd; clip-rule:evenodd" xmlns:xlink="http://www.w3.org/1999/xlink">
<g><path style="opacity:1" fill="#e44d1b" d="M 207.5,187.5 C 207.5,189.167 207.5,190.833 207.5,192.5C 205.901,192.768 204.568,192.434 203.5,191.5C 191.737,150.78 181.07,109.78 171.5,68.5C 172.622,67.8442 173.955,67.5108 175.5,67.5C 177.32,67.6493 178.82,68.3159 180,69.5C 188.571,109.108 197.738,148.442 207.5,187.5 Z"/></g>
<g><path style="opacity:1" fill="#ca3713" d="M 133.5,90.5 C 150.288,123.901 166.288,157.567 181.5,191.5C 180.22,192.931 178.553,193.598 176.5,193.5C 160.631,161.429 144.464,129.429 128,97.5C 128.063,93.921 129.896,91.5877 133.5,90.5 Z"/></g>
<g><path style="opacity:0.839" fill="#7b491b" d="M 209.5,188.5 C 208.732,187.737 208.232,186.737 208,185.5C 207.536,186.094 207.369,186.761 207.5,187.5C 197.738,148.442 188.571,109.108 180,69.5C 178.82,68.3159 177.32,67.6493 175.5,67.5C 173.955,67.5108 172.622,67.8442 171.5,68.5C 166.325,69.488 164.158,72.488 165,77.5C 175.27,114.36 186.103,151.027 197.5,187.5C 195.23,186.875 194.896,187.875 196.5,190.5C 193.163,191.666 189.83,191.666 186.5,190.5C 171.424,156.673 156.59,122.673 142,88.5C 138.691,87.2155 135.857,87.8822 133.5,90.5C 129.896,91.5877 128.063,93.921 128,97.5C 144.464,129.429 160.631,161.429 176.5,193.5C 175.833,193.5 175.167,193.5 174.5,193.5C 157.529,161.562 140.529,129.562 123.5,97.5C 126.827,87.8393 133.494,83.8393 143.5,85.5C 158.647,120.284 173.98,154.951 189.5,189.5C 190.598,190.615 191.765,190.615 193,189.5C 194.054,188.518 194.554,187.351 194.5,186C 183.327,148.647 171.994,111.313 160.5,74C 160.439,72.2894 161.106,70.956 162.5,70C 168.37,65.7493 174.704,64.4159 181.5,66C 191.694,106.612 201.028,147.445 209.5,188.5 Z"/></g>
<g><path style="opacity:1" fill="#e54d1b" d="M 186.5,190.5 C 185.081,191.451 183.415,191.784 181.5,191.5C 166.288,157.567 150.288,123.901 133.5,90.5C 135.857,87.8822 138.691,87.2155 142,88.5C 156.59,122.673 171.424,156.673 186.5,190.5 Z"/></g>
<g><path style="opacity:1" fill="#ca3713" d="M 171.5,68.5 C 181.07,109.78 191.737,150.78 203.5,191.5C 199.759,192.401 197.759,191.068 197.5,187.5C 186.103,151.027 175.27,114.36 165,77.5C 164.158,72.488 166.325,69.488 171.5,68.5 Z"/></g>
<g><path style="opacity:1" fill="#c8b79c" d="M 187.5,267.5 C 186.448,267.649 185.448,267.483 184.5,267C 190.154,256.526 189.654,246.36 183,236.5C 181.89,234.963 180.39,234.297 178.5,234.5C 177.713,242.695 175.213,250.362 171,257.5C 166.361,260.827 161.195,262.994 155.5,264C 148.964,268.537 141.797,269.703 134,267.5C 131.54,268.313 129.04,268.98 126.5,269.5C 122.915,267.871 119.248,266.538 115.5,265.5C 115.491,267.308 115.991,268.975 117,270.5C 119.372,272.703 121.539,275.037 123.5,277.5C 121.801,277.66 120.134,277.494 118.5,277C 116.361,274.522 114.361,272.022 112.5,269.5C 104.46,245.083 112.126,227.583 135.5,217C 155.373,211.342 172.206,216.176 186,231.5C 192.982,242.535 194.315,254.202 190,266.5C 189.329,267.252 188.496,267.586 187.5,267.5 Z"/></g>
<g><path style="opacity:1" fill="#714517" d="M 350.5,209.5 C 348.901,210.799 348.401,212.465 349,214.5C 350.045,213.627 350.878,212.627 351.5,211.5C 356.66,209.849 361.993,208.682 367.5,208C 373.775,200.912 381.442,198.912 390.5,202C 394.05,205.883 397.217,210.049 400,214.5C 401.731,216.617 403.898,218.117 406.5,219C 410.696,223.64 412.529,229.14 412,235.5C 413.829,237.156 415.163,239.156 416,241.5C 416.15,248.934 416.983,256.267 418.5,263.5C 417.772,267.302 416.606,270.969 415,274.5C 411.773,278.065 408.273,281.232 404.5,284C 405.531,287.293 405.031,290.46 403,293.5C 387.667,316.833 372.333,340.167 357,363.5C 352.291,369.876 346.625,375.209 340,379.5C 339.856,382.442 338.689,384.776 336.5,386.5C 335.9,385.1 334.9,384.1 333.5,383.5C 334.167,381.833 334.833,380.167 335.5,378.5C 334.791,377.596 333.791,377.263 332.5,377.5C 332.443,376.391 332.11,375.391 331.5,374.5C 333.735,374.795 335.735,374.461 337.5,373.5C 341.957,372.688 345.79,370.688 349,367.5C 356.022,357.448 362.522,347.114 368.5,336.5C 379.414,321.007 390.081,305.34 400.5,289.5C 400.369,290.376 400.702,291.043 401.5,291.5C 402.599,286.895 401.932,282.561 399.5,278.5C 401.623,280.921 403.956,281.088 406.5,279C 409.164,276.331 410.998,273.164 412,269.5C 412.208,259.828 411.875,250.162 411,240.5C 408.063,237.116 406.729,233.116 407,228.5C 406.169,223.319 403.336,219.819 398.5,218C 394.812,213.314 390.812,208.981 386.5,205C 382.833,204.333 379.167,204.333 375.5,205C 372.443,207.723 369.11,210.056 365.5,212C 361.5,212.333 357.5,212.667 353.5,213C 350.833,215 348.167,217 345.5,219C 340.316,219.012 335.316,219.845 330.5,221.5C 327.712,224.91 325.045,228.41 322.5,232C 317.113,232.944 312.28,235.11 308,238.5C 307.003,242.943 308.836,245.277 313.5,245.5C 317.826,246.418 322.326,246.418 327,245.5C 330.364,245.422 333.53,246.089 336.5,247.5C 337.391,248.11 338.391,248.443 339.5,248.5C 339.5,249.167 339.833,249.5 340.5,249.5C 342.391,252.172 345.058,253.172 348.5,252.5C 349.919,253.451 351.585,253.784 353.5,253.5C 357.424,255.147 361.424,256.814 365.5,258.5C 371.806,262.806 377.139,268.139 381.5,274.5C 380.833,275.5 380.167,276.5 379.5,277.5C 367.679,258.261 350.679,251.094 328.5,256C 323.786,258.051 319.619,260.885 316,264.5C 316.033,266.478 317.2,267.478 319.5,267.5C 320.167,268.833 321.167,269.833 322.5,270.5C 323.5,271.167 324.5,271.833 325.5,272.5C 326.899,273.89 328.566,274.89 330.5,275.5C 330.5,275.833 330.5,276.167 330.5,276.5C 329.167,276.833 327.833,277.167 326.5,277.5C 314.269,266.138 299.769,259.471 283,257.5C 267.632,257.932 255.465,264.265 246.5,276.5C 247.689,277.429 249.022,277.762 250.5,277.5C 252.167,277.5 253.833,277.5 255.5,277.5C 257.833,277.5 260.167,277.5 262.5,277.5C 265.833,277.5 269.167,277.5 272.5,277.5C 280.167,277.5 287.833,277.5 295.5,277.5C 296.167,277.5 296.833,277.5 297.5,277.5C 296.469,278.249 295.302,278.915 294,279.5C 288.913,278.845 283.746,278.512 278.5,278.5C 260.194,280.165 241.86,280.665 223.5,280C 222.241,279.077 220.908,278.243 219.5,277.5C 224.272,276.713 228.938,276.38 233.5,276.5C 236.445,277.468 239.445,277.634 242.5,277C 249.808,265.005 260.474,258.005 274.5,256C 275.578,255.326 276.245,254.326 276.5,253C 271.862,236.696 261.196,227.029 244.5,224C 221.443,219.775 205.276,228.275 196,249.5C 195.169,255.477 194.669,261.477 194.5,267.5C 200.672,269.288 206.672,271.788 212.5,275C 214.473,275.495 216.473,275.662 218.5,275.5C 216.097,276.131 213.764,277.131 211.5,278.5C 210.893,278.376 210.56,278.043 210.5,277.5C 201.797,270.476 191.464,268.643 179.5,272C 175.493,273.337 171.827,275.17 168.5,277.5C 167.298,276.595 165.964,276.595 164.5,277.5C 171.369,272.23 179.035,268.897 187.5,267.5C 188.496,267.586 189.329,267.252 190,266.5C 194.315,254.202 192.982,242.535 186,231.5C 172.206,216.176 155.373,211.342 135.5,217C 112.126,227.583 104.46,245.083 112.5,269.5C 111.766,270.708 111.433,272.041 111.5,273.5C 101.264,254.228 104.264,237.061 120.5,222C 130.373,215.154 141.373,211.487 153.5,211C 159.014,203.262 166.014,197.429 174.5,193.5C 175.167,193.5 175.833,193.5 176.5,193.5C 178.553,193.598 180.22,192.931 181.5,191.5C 183.415,191.784 185.081,191.451 186.5,190.5C 189.83,191.666 193.163,191.666 196.5,190.5C 194.896,187.875 195.23,186.875 197.5,187.5C 197.759,191.068 199.759,192.401 203.5,191.5C 204.568,192.434 205.901,192.768 207.5,192.5C 207.5,190.833 207.5,189.167 207.5,187.5C 207.369,186.761 207.536,186.094 208,185.5C 208.232,186.737 208.732,187.737 209.5,188.5C 210.234,189.878 210.901,191.378 211.5,193C 215.745,195.039 219.912,197.206 224,199.5C 227.785,187.814 231.785,176.147 236,164.5C 240.685,152.403 248.852,149.069 260.5,154.5C 276.004,147.896 289.004,151.062 299.5,164C 306.71,164.241 313.377,166.241 319.5,170C 324.69,176.536 331.357,180.536 339.5,182C 347.011,184.742 352.344,189.742 355.5,197C 353.956,201.249 352.29,205.415 350.5,209.5 Z"/></g>
<g><path style="opacity:1" fill="#c9b99d" d="M 233.5,276.5 C 232.833,275.833 232.167,275.167 231.5,274.5C 229.852,273.073 227.852,272.24 225.5,272C 222.5,271.667 219.5,271.333 216.5,271C 214.311,264.132 210.478,258.299 205,253.5C 203.34,250.23 203.006,246.897 204,243.5C 199.342,250.801 197.509,258.801 198.5,267.5C 197.167,267.5 195.833,267.5 194.5,267.5C 194.669,261.477 195.169,255.477 196,249.5C 205.276,228.275 221.443,219.775 244.5,224C 261.196,227.029 271.862,236.696 276.5,253C 276.245,254.326 275.578,255.326 274.5,256C 260.474,258.005 249.808,265.005 242.5,277C 239.445,277.634 236.445,277.468 233.5,276.5 Z"/></g>
<g><path style="opacity:1" fill="#e3d4b7" d="M 141.5,218.5 C 144.397,218.125 147.063,218.625 149.5,220C 142.961,222.621 136.627,225.621 130.5,229C 125.993,235.002 121.326,240.835 116.5,246.5C 115.369,244.926 115.202,243.259 116,241.5C 121.255,230.071 129.755,222.404 141.5,218.5 Z"/></g>
<g><path style="opacity:1" fill="#e34f19" d="M 275.5,214.5 C 280.876,221.263 284.542,228.93 286.5,237.5C 286.253,238.713 285.586,239.38 284.5,239.5C 283.1,230.605 279.267,222.938 273,216.5C 272.503,219.146 272.336,221.813 272.5,224.5C 274.303,229.911 276.303,235.244 278.5,240.5C 277.749,241.573 276.749,241.74 275.5,241C 273.425,236.921 270.592,233.421 267,230.5C 266.328,224.061 266.828,217.728 268.5,211.5C 271.038,212.043 273.372,213.043 275.5,214.5 Z"/></g>
<g><path style="opacity:0.286" fill="#d69f5f" d="M 350.5,209.5 C 350.328,210.492 350.662,211.158 351.5,211.5C 350.878,212.627 350.045,213.627 349,214.5C 348.401,212.465 348.901,210.799 350.5,209.5 Z"/></g>
<g><path style="opacity:1" fill="#b29b79" d="M 213.5,224.5 C 211.473,224.338 209.473,224.505 207.5,225C 205.167,226.667 202.833,228.333 200.5,230C 193.443,232.261 189.61,229.761 189,222.5C 185.202,218.066 180.369,216.066 174.5,216.5C 174.724,212.821 175.058,209.154 175.5,205.5C 170.197,206.124 166.197,208.791 163.5,213.5C 161.146,213.162 158.813,212.662 156.5,212C 170.224,196.426 187.224,191.093 207.5,196C 220.309,199.978 229.976,207.811 236.5,219.5C 228.476,219.702 220.81,221.369 213.5,224.5 Z"/></g>
<g><path style="opacity:1" fill="#db7702" d="M 342.5,187.5 C 347.019,189.852 350.352,193.352 352.5,198C 349.123,203.921 346.123,210.088 343.5,216.5C 339.541,217.327 335.541,217.827 331.5,218C 327.521,221.648 323.855,225.648 320.5,230C 315.245,231.301 310.245,233.134 305.5,235.5C 304.62,228.406 301.62,222.406 296.5,217.5C 299.245,216.263 301.578,214.43 303.5,212C 305.044,210.813 306.711,210.48 308.5,211C 309.19,216.135 309.857,221.302 310.5,226.5C 312.55,227.663 314.55,227.496 316.5,226C 324.348,217.149 331.848,207.982 339,198.5C 341.076,195.107 342.242,191.44 342.5,187.5 Z"/></g>
<g><path style="opacity:1" fill="#ef8f01" d="M 342.5,187.5 C 342.242,191.44 341.076,195.107 339,198.5C 331.848,207.982 324.348,217.149 316.5,226C 314.55,227.496 312.55,227.663 310.5,226.5C 309.857,221.302 309.19,216.135 308.5,211C 306.711,210.48 305.044,210.813 303.5,212C 301.578,214.43 299.245,216.263 296.5,217.5C 296.167,217.5 295.833,217.5 295.5,217.5C 294.365,215.787 292.698,215.12 290.5,215.5C 290.5,216.833 290.5,218.167 290.5,219.5C 288.732,222.606 287.232,225.939 286,229.5C 283.921,225.007 281.588,220.674 279,216.5C 278.184,215.177 277.017,214.511 275.5,214.5C 273.765,210.965 271.098,209.631 267.5,210.5C 266.647,213.478 265.981,216.478 265.5,219.5C 261.692,219.837 258.026,219.337 254.5,218C 253.196,214.515 251.529,211.181 249.5,208C 245.668,208.038 242.168,207.205 239,205.5C 238.333,202.167 238.333,198.833 239,195.5C 241.617,182.75 244.617,170.084 248,157.5C 249.356,156.62 250.856,156.286 252.5,156.5C 258.815,158.964 265.149,158.798 271.5,156C 278.215,154.752 284.548,155.752 290.5,159C 293.203,162.038 296.203,164.705 299.5,167C 304.4,167.522 309.066,168.855 313.5,171C 317.5,174.333 321.5,177.667 325.5,181C 328.898,182.916 332.565,183.916 336.5,184C 338.727,184.941 340.727,186.108 342.5,187.5 Z"/></g>
<g><path style="opacity:1" fill="#81410e" d="M 295.5,217.5 C 293.446,217.365 291.779,218.032 290.5,219.5C 290.5,218.167 290.5,216.833 290.5,215.5C 292.698,215.12 294.365,215.787 295.5,217.5 Z"/></g>
<g><path style="opacity:1" fill="#de7a01" d="M 290.5,165.5 C 292.437,167.091 294.437,168.758 296.5,170.5C 297.583,171.365 297.749,172.365 297,173.5C 290.055,184.111 282.722,194.444 275,204.5C 274.333,202.833 274.333,201.167 275,199.5C 279.907,188.021 285.074,176.688 290.5,165.5 Z"/></g>
<g><path style="opacity:1" fill="#da7703" d="M 252.5,156.5 C 250.856,156.286 249.356,156.62 248,157.5C 244.617,170.084 241.617,182.75 239,195.5C 238.333,198.833 238.333,202.167 239,205.5C 242.168,207.205 245.668,208.038 249.5,208C 251.529,211.181 253.196,214.515 254.5,218C 258.026,219.337 261.692,219.837 265.5,219.5C 265.019,222.522 264.353,225.522 263.5,228.5C 256.777,224.314 249.444,221.814 241.5,221C 238.133,214.957 233.966,209.457 229,204.5C 231.496,188.507 236.33,173.174 243.5,158.5C 246.132,155.566 249.132,154.9 252.5,156.5 Z"/></g>
<g><path style="opacity:1" fill="#738d01" d="M 336.5,247.5 C 333.53,246.089 330.364,245.422 327,245.5C 322.326,246.418 317.826,246.418 313.5,245.5C 316.119,245.768 318.619,245.435 321,244.5C 323.353,239.399 325.853,234.399 328.5,229.5C 329.946,230.171 330.612,231.338 330.5,233C 330.23,234.514 329.897,236.014 329.5,237.5C 329.733,238.932 330.4,239.432 331.5,239C 333.049,235.311 334.215,231.477 335,227.5C 335.875,224.785 337.708,223.452 340.5,223.5C 340.319,226.553 340.152,229.553 340,232.5C 341.421,229.991 343.088,227.657 345,225.5C 345.991,226.43 346.491,227.596 346.5,229C 344.326,235.852 340.993,242.018 336.5,247.5 Z"/></g>
<g><path style="opacity:1" fill="#f19005" d="M 302.5,240.5 C 301.508,240.672 300.842,240.338 300.5,239.5C 300.423,238.25 299.756,237.417 298.5,237C 299.554,235.612 299.72,234.112 299,232.5C 297.532,231.011 296.032,229.677 294.5,228.5C 294.336,225.813 294.503,223.146 295,220.5C 299.48,226.453 301.98,233.12 302.5,240.5 Z"/></g>
<g><path style="opacity:1" fill="#9d8666" d="M 213.5,224.5 C 205.135,229.035 198.969,235.702 195,244.5C 189.914,228.58 179.414,218.247 163.5,213.5C 166.197,208.791 170.197,206.124 175.5,205.5C 175.058,209.154 174.724,212.821 174.5,216.5C 180.369,216.066 185.202,218.066 189,222.5C 189.61,229.761 193.443,232.261 200.5,230C 202.833,228.333 205.167,226.667 207.5,225C 209.473,224.505 211.473,224.338 213.5,224.5 Z"/></g>
<g><path style="opacity:1" fill="#f8af31" d="M 272.5,224.5 C 274.478,226.259 276.644,227.925 279,229.5C 279.595,230.899 279.428,232.232 278.5,233.5C 280.978,234.722 281.978,236.722 281.5,239.5C 280.791,240.404 279.791,240.737 278.5,240.5C 276.303,235.244 274.303,229.911 272.5,224.5 Z"/></g>
<g><path style="opacity:1" fill="#f29005" d="M 284.5,239.5 C 283.5,239.5 282.5,239.5 281.5,239.5C 281.978,236.722 280.978,234.722 278.5,233.5C 279.428,232.232 279.595,230.899 279,229.5C 276.644,227.925 274.478,226.259 272.5,224.5C 272.336,221.813 272.503,219.146 273,216.5C 279.267,222.938 283.1,230.605 284.5,239.5 Z"/></g>
<g><path style="opacity:1" fill="#7ea502" d="M 399.5,278.5 C 394.695,277.513 389.695,277.179 384.5,277.5C 387.977,276.677 391.644,276.177 395.5,276C 396.925,274.286 396.592,272.953 394.5,272C 391.711,271.759 389.044,271.092 386.5,270C 385.098,268.658 385.431,267.824 387.5,267.5C 392.36,269.153 397.36,269.82 402.5,269.5C 402.67,268.178 402.337,267.011 401.5,266C 390.117,260.655 378.117,258.155 365.5,258.5C 361.424,256.814 357.424,255.147 353.5,253.5C 355.262,253.357 356.929,253.691 358.5,254.5C 372.686,250.828 387.019,247.661 401.5,245C 403.921,244.002 405.255,242.168 405.5,239.5C 404.402,237.225 403.068,235.058 401.5,233C 380.17,235.332 359.504,240.499 339.5,248.5C 338.391,248.443 337.391,248.11 336.5,247.5C 340.993,242.018 344.326,235.852 346.5,229C 346.491,227.596 345.991,226.43 345,225.5C 343.088,227.657 341.421,229.991 340,232.5C 340.152,229.553 340.319,226.553 340.5,223.5C 337.708,223.452 335.875,224.785 335,227.5C 334.215,231.477 333.049,235.311 331.5,239C 330.4,239.432 329.733,238.932 329.5,237.5C 329.897,236.014 330.23,234.514 330.5,233C 330.612,231.338 329.946,230.171 328.5,229.5C 325.853,234.399 323.353,239.399 321,244.5C 318.619,245.435 316.119,245.768 313.5,245.5C 308.836,245.277 307.003,242.943 308,238.5C 312.28,235.11 317.113,232.944 322.5,232C 325.045,228.41 327.712,224.91 330.5,221.5C 335.316,219.845 340.316,219.012 345.5,219C 348.167,217 350.833,215 353.5,213C 357.5,212.667 361.5,212.333 365.5,212C 369.11,210.056 372.443,207.723 375.5,205C 379.167,204.333 382.833,204.333 386.5,205C 390.812,208.981 394.812,213.314 398.5,218C 403.336,219.819 406.169,223.319 407,228.5C 406.729,233.116 408.063,237.116 411,240.5C 411.875,250.162 412.208,259.828 412,269.5C 410.998,273.164 409.164,276.331 406.5,279C 403.956,281.088 401.623,280.921 399.5,278.5 Z"/></g>
<g><path style="opacity:1" fill="#738f01" d="M 391.5,219.5 C 394.166,219.066 395.333,220.066 395,222.5C 391.266,226.403 387.1,229.737 382.5,232.5C 381.417,231.635 381.251,230.635 382,229.5C 384.696,225.639 387.863,222.306 391.5,219.5 Z"/></g>
<g><path style="opacity:1" fill="#728e01" d="M 365.5,214.5 C 367.89,214.685 368.89,216.018 368.5,218.5C 364.78,229.556 357.78,237.89 347.5,243.5C 347.167,243.167 346.833,242.833 346.5,242.5C 350.152,235.199 352.652,227.532 354,219.5C 354.71,218.027 355.876,217.36 357.5,217.5C 357.338,219.527 357.505,221.527 358,223.5C 358.414,223.957 358.914,224.291 359.5,224.5C 361.321,221.004 363.321,217.671 365.5,214.5 Z"/></g>
<g><path style="opacity:1" fill="#728e00" d="M 380.5,208.5 C 381.497,208.47 382.164,208.97 382.5,210C 380.764,216.605 381.764,217.105 385.5,211.5C 386.631,213.074 386.798,214.741 386,216.5C 382.606,220.898 379.606,225.565 377,230.5C 375.292,232.543 373.292,234.21 371,235.5C 371.681,228.765 373.014,222.098 375,215.5C 376.697,212.98 378.53,210.647 380.5,208.5 Z"/></g>
<g><path style="opacity:1" fill="#f6ad31" d="M 294.5,228.5 C 296.032,229.677 297.532,231.011 299,232.5C 299.72,234.112 299.554,235.612 298.5,237C 299.756,237.417 300.423,238.25 300.5,239.5C 298.901,239.768 297.568,239.434 296.5,238.5C 295.626,235.211 294.959,231.877 294.5,228.5 Z"/></g>
<g><path style="opacity:1" fill="#94c01c" d="M 353.5,253.5 C 351.585,253.784 349.919,253.451 348.5,252.5C 364.476,247.291 380.81,243.291 397.5,240.5C 398.167,240.167 398.833,239.833 399.5,239.5C 395.267,236.638 390.6,235.805 385.5,237C 370.455,241.2 355.455,245.367 340.5,249.5C 339.833,249.5 339.5,249.167 339.5,248.5C 359.504,240.499 380.17,235.332 401.5,233C 403.068,235.058 404.402,237.225 405.5,239.5C 405.255,242.168 403.921,244.002 401.5,245C 387.019,247.661 372.686,250.828 358.5,254.5C 356.929,253.691 355.262,253.357 353.5,253.5 Z"/></g>
<g><path style="opacity:1" fill="#e05019" d="M 295.5,217.5 C 300.407,223.989 303.74,231.323 305.5,239.5C 305.124,241.803 304.124,242.137 302.5,240.5C 301.98,233.12 299.48,226.453 295,220.5C 294.503,223.146 294.336,225.813 294.5,228.5C 294.959,231.877 295.626,235.211 296.5,238.5C 293.833,238.5 291.167,238.5 288.5,238.5C 288.151,232.031 288.817,225.698 290.5,219.5C 291.779,218.032 293.446,217.365 295.5,217.5 Z"/></g>
<g><path style="opacity:1" fill="#b49e7c" d="M 187.5,267.5 C 179.035,268.897 171.369,272.23 164.5,277.5C 150.833,277.5 137.167,277.5 123.5,277.5C 121.539,275.037 119.372,272.703 117,270.5C 115.991,268.975 115.491,267.308 115.5,265.5C 119.248,266.538 122.915,267.871 126.5,269.5C 129.04,268.98 131.54,268.313 134,267.5C 141.797,269.703 148.964,268.537 155.5,264C 161.195,262.994 166.361,260.827 171,257.5C 175.213,250.362 177.713,242.695 178.5,234.5C 180.39,234.297 181.89,234.963 183,236.5C 189.654,246.36 190.154,256.526 184.5,267C 185.448,267.483 186.448,267.649 187.5,267.5 Z"/></g>
<g><path style="opacity:1" fill="#b9c925" d="M 348.5,252.5 C 345.058,253.172 342.391,252.172 340.5,249.5C 355.455,245.367 370.455,241.2 385.5,237C 390.6,235.805 395.267,236.638 399.5,239.5C 398.833,239.833 398.167,240.167 397.5,240.5C 380.81,243.291 364.476,247.291 348.5,252.5 Z"/></g>
<g><path style="opacity:1" fill="#f4e114" d="M 333.5,252.5 C 331.538,250.983 329.205,250.316 326.5,250.5C 322.499,251.35 318.499,251.85 314.5,252C 309.651,249.41 304.651,247.076 299.5,245C 292.373,244.108 285.373,244.608 278.5,246.5C 277.596,245.791 277.263,244.791 277.5,243.5C 280.843,242.776 284.176,241.943 287.5,241C 296.821,240.659 305.488,242.992 313.5,248C 319.486,247.76 325.486,247.76 331.5,248C 334.446,248.806 337.112,250.139 339.5,252C 337.527,252.495 335.527,252.662 333.5,252.5 Z"/></g>
<g><path style="opacity:1" fill="#728f01" d="M 396.5,248.5 C 399.187,248.336 401.854,248.503 404.5,249C 405.973,249.71 406.64,250.876 406.5,252.5C 394.895,252.449 394.562,253.783 405.5,256.5C 406.386,257.325 406.719,258.325 406.5,259.5C 396.734,256.816 386.734,255.149 376.5,254.5C 376.5,253.5 376.5,252.5 376.5,251.5C 383.393,251.108 390.06,250.108 396.5,248.5 Z"/></g>
<g><path style="opacity:1" fill="#f5b730" d="M 320.5,257.5 C 318.858,258.803 317.191,260.136 315.5,261.5C 309.761,257.636 303.428,254.803 296.5,253C 291.792,252.504 287.125,252.838 282.5,254C 284.058,254.21 285.391,254.71 286.5,255.5C 284.5,255.5 282.5,255.5 280.5,255.5C 280.567,254.041 280.234,252.708 279.5,251.5C 285.425,250.014 291.425,249.514 297.5,250C 303.067,251.783 308.401,254.117 313.5,257C 315.81,257.497 318.143,257.663 320.5,257.5 Z"/></g>
<g><path style="opacity:1" fill="#b49e7c" d="M 231.5,274.5 C 227.069,274.231 222.735,274.564 218.5,275.5C 216.473,275.662 214.473,275.495 212.5,275C 206.672,271.788 200.672,269.288 194.5,267.5C 195.833,267.5 197.167,267.5 198.5,267.5C 197.509,258.801 199.342,250.801 204,243.5C 203.006,246.897 203.34,250.23 205,253.5C 210.478,258.299 214.311,264.132 216.5,271C 219.5,271.333 222.5,271.667 225.5,272C 227.852,272.24 229.852,273.073 231.5,274.5 Z"/></g>
<g><path style="opacity:1" fill="#f7b830" d="M 333.5,252.5 C 331.297,252.604 329.297,253.27 327.5,254.5C 322.684,254.176 317.684,254.009 312.5,254C 302.224,247.299 291.224,245.799 279.5,249.5C 278.89,248.609 278.557,247.609 278.5,246.5C 285.373,244.608 292.373,244.108 299.5,245C 304.651,247.076 309.651,249.41 314.5,252C 318.499,251.85 322.499,251.35 326.5,250.5C 329.205,250.316 331.538,250.983 333.5,252.5 Z"/></g>
<g><path style="opacity:1" fill="#fbe614" d="M 327.5,254.5 C 325.046,255.227 322.713,256.227 320.5,257.5C 318.143,257.663 315.81,257.497 313.5,257C 308.401,254.117 303.067,251.783 297.5,250C 291.425,249.514 285.425,250.014 279.5,251.5C 279.5,250.833 279.5,250.167 279.5,249.5C 291.224,245.799 302.224,247.299 312.5,254C 317.684,254.009 322.684,254.176 327.5,254.5 Z"/></g>
<g><path style="opacity:1" fill="#f6e116" d="M 315.5,261.5 C 314.469,262.355 313.303,263.022 312,263.5C 304.09,258.919 295.59,256.252 286.5,255.5C 285.391,254.71 284.058,254.21 282.5,254C 287.125,252.838 291.792,252.504 296.5,253C 303.428,254.803 309.761,257.636 315.5,261.5 Z"/></g>
<g><path style="opacity:1" fill="#728d01" d="M 365.5,258.5 C 378.117,258.155 390.117,260.655 401.5,266C 402.337,267.011 402.67,268.178 402.5,269.5C 397.36,269.82 392.36,269.153 387.5,267.5C 385.431,267.824 385.098,268.658 386.5,270C 389.044,271.092 391.711,271.759 394.5,272C 396.592,272.953 396.925,274.286 395.5,276C 391.644,276.177 387.977,276.677 384.5,277.5C 383.167,276.833 382.167,275.833 381.5,274.5C 377.139,268.139 371.806,262.806 365.5,258.5 Z"/></g>
<g><path style="opacity:1" fill="#f8b533" d="M 373.5,277.5 C 371.833,277.5 370.167,277.5 368.5,277.5C 360.044,264.939 348.378,260.106 333.5,263C 329.106,264.582 325.439,267.082 322.5,270.5C 321.167,269.833 320.167,268.833 319.5,267.5C 327.271,258.879 336.938,256.045 348.5,259C 359.596,261.617 367.93,267.784 373.5,277.5 Z"/></g>
<g><path style="opacity:1" fill="#f7e414" d="M 379.5,277.5 C 377.5,277.5 375.5,277.5 373.5,277.5C 367.93,267.784 359.596,261.617 348.5,259C 336.938,256.045 327.271,258.879 319.5,267.5C 317.2,267.478 316.033,266.478 316,264.5C 319.619,260.885 323.786,258.051 328.5,256C 350.679,251.094 367.679,258.261 379.5,277.5 Z"/></g>
<g><path style="opacity:1" fill="#fbe714" d="M 368.5,277.5 C 366.833,277.5 365.167,277.5 363.5,277.5C 352.265,263.713 339.599,262.046 325.5,272.5C 324.5,271.833 323.5,271.167 322.5,270.5C 325.439,267.082 329.106,264.582 333.5,263C 348.378,260.106 360.044,264.939 368.5,277.5 Z"/></g>
<g><path style="opacity:1" fill="#f4b233" d="M 326.5,277.5 C 324.167,277.5 321.833,277.5 319.5,277.5C 301.292,259.59 280.959,256.756 258.5,269C 255.629,271.703 252.962,274.536 250.5,277.5C 249.022,277.762 247.689,277.429 246.5,276.5C 255.465,264.265 267.632,257.932 283,257.5C 299.769,259.471 314.269,266.138 326.5,277.5 Z"/></g>
<g><path style="opacity:1" fill="#f6e414" d="M 210.5,277.5 C 208.833,277.5 207.167,277.5 205.5,277.5C 195.49,272.226 185.49,272.226 175.5,277.5C 173.167,277.5 170.833,277.5 168.5,277.5C 171.827,275.17 175.493,273.337 179.5,272C 191.464,268.643 201.797,270.476 210.5,277.5 Z"/></g>
<g><path style="opacity:1" fill="#fbe714" d="M 319.5,277.5 C 317.167,277.5 314.833,277.5 312.5,277.5C 296.876,263.835 279.876,262.002 261.5,272C 259.604,274.068 257.604,275.901 255.5,277.5C 253.833,277.5 252.167,277.5 250.5,277.5C 252.962,274.536 255.629,271.703 258.5,269C 280.959,256.756 301.292,259.59 319.5,277.5 Z"/></g>
<g><path style="opacity:1" fill="#f8b632" d="M 312.5,277.5 C 310.167,277.5 307.833,277.5 305.5,277.5C 296.08,269.984 285.413,267.818 273.5,271C 269.423,272.6 265.756,274.766 262.5,277.5C 260.167,277.5 257.833,277.5 255.5,277.5C 257.604,275.901 259.604,274.068 261.5,272C 279.876,262.002 296.876,263.835 312.5,277.5 Z"/></g>
<g><path style="opacity:1" fill="#fbe714" d="M 305.5,277.5 C 302.833,277.5 300.167,277.5 297.5,277.5C 296.833,277.5 296.167,277.5 295.5,277.5C 294.653,276.034 293.32,275.2 291.5,275C 286.833,274.333 282.167,274.333 277.5,275C 275.685,275.757 274.019,276.59 272.5,277.5C 269.167,277.5 265.833,277.5 262.5,277.5C 265.756,274.766 269.423,272.6 273.5,271C 285.413,267.818 296.08,269.984 305.5,277.5 Z"/></g>
<g><path style="opacity:1" fill="#f8b732" d="M 363.5,277.5 C 361.5,277.5 359.5,277.5 357.5,277.5C 351.139,270.587 343.473,268.754 334.5,272C 332.676,272.66 331.343,273.827 330.5,275.5C 328.566,274.89 326.899,273.89 325.5,272.5C 339.599,262.046 352.265,263.713 363.5,277.5 Z"/></g>
<g><path style="opacity:1" fill="#fbe715" d="M 357.5,277.5 C 355.167,277.5 352.833,277.5 350.5,277.5C 344.803,273.577 339.137,273.577 333.5,277.5C 332.391,277.443 331.391,277.11 330.5,276.5C 330.5,276.167 330.5,275.833 330.5,275.5C 331.343,273.827 332.676,272.66 334.5,272C 343.473,268.754 351.139,270.587 357.5,277.5 Z"/></g>
<g><path style="opacity:1" fill="#f8bb31" d="M 205.5,277.5 C 195.5,277.5 185.5,277.5 175.5,277.5C 185.49,272.226 195.49,272.226 205.5,277.5 Z"/></g>
<g><path style="opacity:0.073" fill="#f0b573" d="M 111.5,274.5 C 112.478,274.811 113.145,275.478 113.5,276.5C 111.955,277.452 110.288,277.785 108.5,277.5C 109.9,276.9 110.9,275.9 111.5,274.5 Z"/></g>
<g><path style="opacity:1" fill="#cfe2f9" d="M 400.5,285.5 C 386.829,285.333 373.163,285.5 359.5,286C 324.238,289.598 288.904,290.432 253.5,288.5C 233.171,289.249 212.837,289.916 192.5,290.5C 178.781,290.66 165.114,289.993 151.5,288.5C 146.017,288.371 140.684,289.204 135.5,291C 131.226,294.033 130.393,297.867 133,302.5C 141.908,313.318 150.574,324.318 159,335.5C 162.023,343.412 165.523,351.079 169.5,358.5C 177.542,361.513 185.876,363.68 194.5,365C 236.426,371.338 278.426,372.005 320.5,367C 324.286,365.607 327.952,363.941 331.5,362C 338.235,354.595 345.568,347.928 353.5,342C 358.314,339.59 363.314,337.756 368.5,336.5C 362.522,347.114 356.022,357.448 349,367.5C 345.79,370.688 341.957,372.688 337.5,373.5C 286.499,373.667 235.499,373.5 184.5,373C 176.246,371.124 169.079,367.291 163,361.5C 150.973,340.8 136.639,321.8 120,304.5C 116.451,298.974 115.118,292.974 116,286.5C 119.457,284.526 122.957,282.86 126.5,281.5C 216.834,281.087 307.167,280.921 397.5,281C 399.863,281.589 400.863,283.089 400.5,285.5 Z"/></g>
<g><path style="opacity:1" fill="#fefefe" d="M 400.5,285.5 C 400.5,286.833 400.5,288.167 400.5,289.5C 390.081,305.34 379.414,321.007 368.5,336.5C 363.314,337.756 358.314,339.59 353.5,342C 345.568,347.928 338.235,354.595 331.5,362C 327.952,363.941 324.286,365.607 320.5,367C 278.426,372.005 236.426,371.338 194.5,365C 185.876,363.68 177.542,361.513 169.5,358.5C 165.523,351.079 162.023,343.412 159,335.5C 150.574,324.318 141.908,313.318 133,302.5C 130.393,297.867 131.226,294.033 135.5,291C 140.684,289.204 146.017,288.371 151.5,288.5C 165.114,289.993 178.781,290.66 192.5,290.5C 212.837,289.916 233.171,289.249 253.5,288.5C 288.904,290.432 324.238,289.598 359.5,286C 373.163,285.5 386.829,285.333 400.5,285.5 Z"/></g>
<g><path style="opacity:1" fill="#d2e5fc" d="M 389.5,290.5 C 396.251,289.806 396.918,291.973 391.5,297C 389.043,298.562 386.376,299.562 383.5,300C 358.178,301.669 332.845,301.836 307.5,300.5C 307.709,299.914 308.043,299.414 308.5,299C 312.219,298.612 315.886,297.945 319.5,297C 336.837,296.051 354.171,295.051 371.5,294C 377.7,293.159 383.7,291.992 389.5,290.5 Z"/></g>
<g><path style="opacity:1" fill="#abbfd6" d="M 126.5,281.5 C 122.957,282.86 119.457,284.526 116,286.5C 115.118,292.974 116.451,298.974 120,304.5C 136.639,321.8 150.973,340.8 163,361.5C 169.079,367.291 176.246,371.124 184.5,373C 235.499,373.5 286.499,373.667 337.5,373.5C 335.735,374.461 333.735,374.795 331.5,374.5C 275.774,374.988 220.108,374.488 164.5,373C 160.136,371.235 156.636,368.401 154,364.5C 137.915,339.329 121.582,314.329 105,289.5C 103.959,286.364 104.793,283.864 107.5,282C 113.825,281.5 120.158,281.334 126.5,281.5 Z"/></g>
<g><path style="opacity:0.165" fill="#e3a05c" d="M 161.5,376.5 C 164.179,376.525 165.512,377.858 165.5,380.5C 163.833,379.5 162.5,378.167 161.5,376.5 Z"/></g>
<g><path style="opacity:1" fill="#817161" d="M 332.5,377.5 C 333.791,377.263 334.791,377.596 335.5,378.5C 280.157,377.837 225.157,378.504 170.5,380.5C 169.596,379.791 169.263,378.791 169.5,377.5C 223.833,377.5 278.167,377.5 332.5,377.5 Z"/></g>
<g><path style="opacity:1" fill="#abc5e2" d="M 335.5,378.5 C 334.833,380.167 334.167,381.833 333.5,383.5C 280.208,384.658 226.874,384.825 173.5,384C 172.29,382.961 171.29,381.794 170.5,380.5C 225.157,378.504 280.157,377.837 335.5,378.5 Z"/></g>
<g><path style="opacity:0.847" fill="#6a3d12" d="M 112.5,269.5 C 114.361,272.022 116.361,274.522 118.5,277C 120.134,277.494 121.801,277.66 123.5,277.5C 137.167,277.5 150.833,277.5 164.5,277.5C 165.964,276.595 167.298,276.595 168.5,277.5C 170.833,277.5 173.167,277.5 175.5,277.5C 185.5,277.5 195.5,277.5 205.5,277.5C 207.167,277.5 208.833,277.5 210.5,277.5C 210.56,278.043 210.893,278.376 211.5,278.5C 213.764,277.131 216.097,276.131 218.5,275.5C 222.735,274.564 227.069,274.231 231.5,274.5C 232.167,275.167 232.833,275.833 233.5,276.5C 228.938,276.38 224.272,276.713 219.5,277.5C 220.908,278.243 222.241,279.077 223.5,280C 241.86,280.665 260.194,280.165 278.5,278.5C 283.746,278.512 288.913,278.845 294,279.5C 295.302,278.915 296.469,278.249 297.5,277.5C 300.167,277.5 302.833,277.5 305.5,277.5C 307.833,277.5 310.167,277.5 312.5,277.5C 314.833,277.5 317.167,277.5 319.5,277.5C 321.833,277.5 324.167,277.5 326.5,277.5C 327.833,277.167 329.167,276.833 330.5,276.5C 331.391,277.11 332.391,277.443 333.5,277.5C 339.167,277.5 344.833,277.5 350.5,277.5C 352.833,277.5 355.167,277.5 357.5,277.5C 359.5,277.5 361.5,277.5 363.5,277.5C 365.167,277.5 366.833,277.5 368.5,277.5C 370.167,277.5 371.833,277.5 373.5,277.5C 375.5,277.5 377.5,277.5 379.5,277.5C 380.167,276.5 380.833,275.5 381.5,274.5C 382.167,275.833 383.167,276.833 384.5,277.5C 389.695,277.179 394.695,277.513 399.5,278.5C 401.932,282.561 402.599,286.895 401.5,291.5C 400.702,291.043 400.369,290.376 400.5,289.5C 400.5,288.167 400.5,286.833 400.5,285.5C 400.863,283.089 399.863,281.589 397.5,281C 307.167,280.921 216.834,281.087 126.5,281.5C 120.158,281.334 113.825,281.5 107.5,282C 104.793,283.864 103.959,286.364 105,289.5C 121.582,314.329 137.915,339.329 154,364.5C 156.636,368.401 160.136,371.235 164.5,373C 220.108,374.488 275.774,374.988 331.5,374.5C 332.11,375.391 332.443,376.391 332.5,377.5C 278.167,377.5 223.833,377.5 169.5,377.5C 169.263,378.791 169.596,379.791 170.5,380.5C 171.29,381.794 172.29,382.961 173.5,384C 226.874,384.825 280.208,384.658 333.5,383.5C 334.9,384.1 335.9,385.1 336.5,386.5C 335.527,386.987 334.527,387.487 333.5,388C 279.5,388.667 225.5,388.667 171.5,388C 168.183,386.52 166.183,384.02 165.5,380.5C 165.512,377.858 164.179,376.525 161.5,376.5C 156.23,373.065 151.73,368.731 148,363.5C 132.727,339.23 117.06,315.23 101,291.5C 98.143,283.881 100.643,279.214 108.5,277.5C 110.288,277.785 111.955,277.452 113.5,276.5C 113.145,275.478 112.478,274.811 111.5,274.5C 111.5,274.167 111.5,273.833 111.5,273.5C 111.433,272.041 111.766,270.708 112.5,269.5 Z"/></g>
<g><path style="opacity:1" fill="#f6b536" d="M 350.5,277.5 C 344.833,277.5 339.167,277.5 333.5,277.5C 339.137,273.577 344.803,273.577 350.5,277.5 Z"/></g>
<g><path style="opacity:1" fill="#f8b733" d="M 295.5,277.5 C 287.833,277.5 280.167,277.5 272.5,277.5C 274.019,276.59 275.685,275.757 277.5,275C 282.167,274.333 286.833,274.333 291.5,275C 293.32,275.2 294.653,276.034 295.5,277.5 Z"/></g>
</svg>
